<svg width="28" height="28" viewBox="0 0 28 28" fill="none" xmlns="http://www.w3.org/2000/svg">
<path d="M11.1879 15.1666C11.8295 15.1666 12.3545 15.6916 12.3545 16.3333C12.3545 16.9749 11.8295 17.4999 11.1879 17.4999C10.5462 17.4999 10.0212 16.9749 10.0212 16.3333C10.0212 15.6916 10.5462 15.1666 11.1879 15.1666ZM11.1879 12.8333C9.2512 12.8333 7.68786 14.3966 7.68786 16.3333C7.68786 18.2699 9.2512 19.8333 11.1879 19.8333C13.1245 19.8333 14.6879 18.2699 14.6879 16.3333C14.6879 14.3966 13.1245 12.8333 11.1879 12.8333ZM21.1045 10.4999L22.3762 7.68825L25.1879 6.41659L22.3762 5.14492L21.1045 2.33325L19.8329 5.14492L17.0212 6.41659L19.8329 7.68825L21.1045 10.4999ZM24.3479 14.8399L23.4379 12.8333L22.5279 14.8399L20.5212 15.7499L22.5279 16.6599L23.4379 18.6666L24.3479 16.6599L26.3545 15.7499L24.3479 14.8399ZM18.4795 16.3333C18.4795 16.1933 18.4795 16.0416 18.4679 15.9016L20.7312 14.1866L17.8145 9.13492L15.2012 10.2316C14.9679 10.0799 14.7112 9.92825 14.4545 9.79992L14.1045 6.99992H8.2712L7.9212 9.81159C7.66453 9.93992 7.41953 10.0916 7.17453 10.2433L4.5612 9.13492L1.64453 14.1866L3.90786 15.9016C3.8962 16.0416 3.8962 16.1933 3.8962 16.3333C3.8962 16.4733 3.8962 16.6249 3.90786 16.7649L1.64453 18.4799L4.5612 23.5316L7.17453 22.4349C7.40786 22.5866 7.66453 22.7383 7.9212 22.8666L8.2712 25.6666H14.1045L14.4545 22.8549C14.7112 22.7266 14.9562 22.5866 15.2012 22.4233L17.8145 23.5199L20.7312 18.4683L18.4679 16.7533C18.4795 16.6249 18.4795 16.4733 18.4795 16.3333ZM16.8229 20.5799L14.8045 19.7283C14.1512 20.4283 13.2879 20.9416 12.3195 21.1633L12.0395 23.3333H10.3362L10.0679 21.1633C9.09953 20.9416 8.2362 20.4283 7.58286 19.7283L5.56453 20.5799L4.71286 19.0983L6.4512 17.7799C6.3112 17.3249 6.2412 16.8466 6.2412 16.3449C6.2412 15.8433 6.3112 15.3649 6.4512 14.9099L4.71286 13.5916L5.56453 12.1099L7.58286 12.9616C8.2362 12.2616 9.09953 11.7483 10.0679 11.5266L10.3362 9.33325H12.0512L12.3195 11.5033C13.2879 11.7249 14.1512 12.2383 14.8045 12.9383L16.8229 12.0866L17.6745 13.5683L15.9362 14.8866C16.0762 15.3416 16.1462 15.8199 16.1462 16.3216C16.1462 16.8233 16.0762 17.3016 15.9362 17.7566L17.6745 19.0749L16.8229 20.5799Z" fill="#0065BD"/>
</svg>
