<svg width="266" height="223" viewBox="0 0 266 223" fill="none" xmlns="http://www.w3.org/2000/svg">
<path d="M165.843 31.1221C159.064 24.3731 150.465 19.7244 141.087 17.7383C131.71 15.7522 121.955 16.5139 113.003 19.9311C104.051 23.3484 96.2854 29.2749 90.6456 36.9936C85.0058 44.7124 81.7335 53.8927 81.2244 63.4241C81.179 64.2931 81.1562 65.1666 81.1562 66.0446V132.857H180.38V66.0446C180.396 59.5559 179.12 53.1283 176.625 47.1339C174.13 41.1395 170.465 35.6973 165.843 31.1221ZM168.504 121.046H93.0233V66.0446C93.0233 65.1632 93.0546 64.2897 93.117 63.4241C94.4705 43.9314 110.841 28.4728 130.765 28.4728C151.576 28.4728 168.504 45.3264 168.504 66.0446V121.046Z" fill="black"/>
<path d="M199.507 138.97C199.507 139.209 199.507 139.446 199.507 139.683C199.122 177.208 168.446 207.508 130.665 207.508C92.6431 207.508 61.8193 176.828 61.8193 138.97C61.8193 136.976 61.9039 135.005 62.073 133.054C62.0952 132.795 62.119 132.535 62.1445 132.28C62.1701 132.024 62.1973 131.771 62.2246 131.507C62.2484 131.279 62.2739 131.052 62.3012 130.829C62.3114 130.735 62.3233 130.642 62.3352 130.552L62.4067 129.983C62.4056 129.974 62.4056 129.966 62.4067 129.957C62.4391 129.706 62.4731 129.449 62.5089 129.206C62.5515 128.922 62.5923 128.637 62.6366 128.359C62.7387 127.696 62.8522 127.036 62.9771 126.381C63.0129 126.189 63.0486 125.998 63.0861 125.808C63.1235 125.618 63.1559 125.449 63.1933 125.271C63.241 125.034 63.2904 124.801 63.3415 124.569C63.3857 124.357 63.4334 124.145 63.4811 123.933C63.5373 123.686 63.5951 123.438 63.6513 123.191C63.7075 122.943 63.7705 122.699 63.8301 122.452C64.0049 121.74 64.1928 121.034 64.3937 120.333C64.4056 120.294 64.4141 120.252 64.426 120.213C64.5605 119.74 64.7001 119.272 64.8466 118.806C64.9198 118.567 64.9947 118.324 65.0713 118.085C65.1479 117.846 65.2262 117.609 65.3063 117.37C65.3863 117.131 65.4663 116.896 65.548 116.66C65.6297 116.424 65.7183 116.185 65.7983 115.95C66.1388 115.007 66.493 114.072 66.8709 113.15C67.0599 112.687 67.2523 112.227 67.4515 111.771C67.552 111.544 67.6507 111.317 67.7546 111.093C67.8329 110.914 67.9146 110.734 67.9981 110.554C68.1394 110.244 68.2841 109.937 68.4288 109.631C68.519 109.443 68.6093 109.256 68.7012 109.068C68.8102 108.844 68.9192 108.622 69.0298 108.402L69.3703 107.737C69.5951 107.297 69.8283 106.859 70.065 106.425C70.1808 106.208 70.3034 105.99 70.4226 105.775C70.5417 105.559 70.6643 105.342 70.7869 105.129C70.8925 104.942 70.9997 104.758 71.1087 104.573C71.1428 104.513 71.1768 104.454 71.2126 104.403C71.2994 104.254 71.3828 104.103 71.4782 103.956C71.6484 103.664 71.8187 103.376 72.006 103.088C72.1064 102.918 72.2103 102.759 72.3141 102.596C72.4452 102.388 72.578 102.181 72.7108 101.973C72.9787 101.557 73.2506 101.145 73.5264 100.739C73.8107 100.318 74.0985 99.9047 74.3913 99.4911C74.5275 99.3012 74.662 99.1114 74.7982 98.9232C74.9021 98.7792 75.0059 98.6368 75.1132 98.4944C75.2205 98.352 75.2835 98.252 75.3805 98.1317C76.0945 97.1791 76.8323 96.2451 77.5939 95.3298C77.7522 95.1383 77.9106 94.9484 78.074 94.7603C78.2375 94.5721 78.4145 94.362 78.5848 94.1653C78.6018 94.1416 78.6223 94.1196 78.641 94.0958C78.8112 93.9026 78.9815 93.7077 79.1518 93.5161C79.322 93.3246 79.4923 93.1432 79.6625 92.9568C79.6898 92.9263 79.7187 92.8958 79.746 92.8636L80.2448 92.3245L80.2806 92.2873C80.4645 92.0906 80.65 91.8951 80.8373 91.7008L81.1659 91.3618C81.4383 91.0821 81.7125 90.8024 81.99 90.5261C82.3782 90.1374 82.772 89.7543 83.1716 89.3769C83.3691 89.1905 83.5683 89.0023 83.7692 88.8159L83.7811 88.804L84.3566 88.2785C84.3747 88.2603 84.394 88.2433 84.4145 88.2277C84.6069 88.0582 84.801 87.8887 84.9951 87.7073C85.1892 87.5259 85.3986 87.3514 85.6029 87.1768C85.6104 87.1695 85.6184 87.1627 85.6267 87.1564C86.0405 86.8005 86.4559 86.4479 86.8781 86.1021C87.5183 85.5744 88.1693 85.0586 88.831 84.5546C89.0455 84.3851 89.2618 84.2291 89.4763 84.0698L90.142 83.5647C90.3633 83.4037 90.5881 83.2426 90.8128 83.085C91.0376 82.9274 91.2623 82.7663 91.4939 82.6104C91.7254 82.4545 91.9161 82.3205 92.1306 82.1765C92.4292 81.9753 92.7288 81.777 93.0296 81.5815C93.0603 81.5612 93.0892 81.5408 93.1216 81.5222C93.268 81.4273 93.4144 81.3323 93.5625 81.2391C93.7873 81.095 94.0137 80.951 94.2436 80.8103L94.3355 80.7527L94.9484 80.3764L94.9978 80.3475C95.2248 80.2086 95.4518 80.0724 95.6789 79.939C95.9059 79.8057 96.1363 79.6718 96.3701 79.5373L96.4263 79.5034C96.5965 79.4085 96.7668 79.3136 96.9268 79.2204C97.9564 78.6418 99.0034 78.0898 100.068 77.5643L100.805 77.205L100.838 77.1897C101.083 77.0728 101.326 76.9558 101.573 76.8507C101.82 76.7456 102.084 76.6168 102.333 76.5032L103.087 76.1642H103.106L103.867 75.8371L104.5 75.5744L105.421 75.2049L106.204 74.9048C106.466 74.8065 106.73 74.7065 106.994 74.6116C107.258 74.5167 107.522 74.4201 107.786 74.3268C108.05 74.2336 108.275 74.1573 108.518 74.076C108.704 74.0133 108.888 73.9505 109.075 73.8912C109.262 73.8319 109.426 73.7743 109.603 73.7217L110.212 73.5302C110.474 73.4488 110.738 73.3709 111.002 73.2912C111.496 73.1454 111.995 73.0047 112.492 72.8691L112.822 72.7793L113.459 72.6098C113.691 72.5505 113.924 72.4911 114.157 72.4403C114.315 72.3979 114.474 72.3606 114.636 72.3233L115.182 72.1962C115.439 72.1369 115.693 72.0792 115.952 72.0267C116.21 71.9742 116.508 71.9064 116.791 71.8572C117.074 71.808 117.351 71.7453 117.632 71.6877C118.194 71.5792 118.759 71.4775 119.335 71.386C119.619 71.3385 119.902 71.2945 120.186 71.2504C120.537 71.1961 120.891 71.147 121.245 71.0995C121.463 71.0673 121.683 71.0402 121.904 71.0114C122.166 70.9775 122.425 70.947 122.689 70.9165L122.905 70.891L123.426 70.8368C123.554 70.8215 123.68 70.808 123.809 70.7961L124.182 70.7605L124.631 70.7215C124.664 70.7215 124.698 70.7131 124.732 70.7114H124.803C126.733 70.5464 128.689 70.4639 130.672 70.4639C139.963 70.456 149.159 72.3241 157.704 75.955C166.25 79.586 173.966 84.9045 180.388 91.5889C183.246 94.5573 185.832 97.7743 188.114 101.201C195.563 112.4 199.526 125.538 199.507 138.97Z" fill="#3DA4F2"/>
<path d="M169.197 103.355C159.483 94.3501 146.698 89.3521 133.424 89.3714C104.385 89.3714 80.8447 112.808 80.8447 141.719C80.8248 154.933 85.8446 167.662 94.8894 177.333C89.5813 172.438 85.3479 166.503 82.4556 159.901C79.5633 153.299 78.0746 146.172 78.083 138.969C78.083 110.057 101.623 86.6153 130.664 86.6153C137.9 86.6081 145.058 88.0917 151.69 90.9726C158.321 93.8535 164.282 98.0695 169.197 103.355Z" fill="#0071BC"/>
<path opacity="0.2" d="M169.197 103.355C159.483 94.3501 146.698 89.3521 133.424 89.3714C104.385 89.3714 80.8447 112.808 80.8447 141.719C80.8248 154.933 85.8446 167.662 94.8894 177.333C89.5813 172.438 85.3479 166.503 82.4556 159.901C79.5633 153.299 78.0746 146.172 78.083 138.969C78.083 110.057 101.623 86.6153 130.664 86.6153C137.9 86.6081 145.058 88.0917 151.69 90.9726C158.321 93.8535 164.282 98.0695 169.197 103.355Z" fill="black"/>
<path d="M183.242 138.97C183.242 167.88 159.702 191.315 130.662 191.315C117.389 191.335 104.603 186.337 94.889 177.333C85.8442 167.662 80.8245 154.933 80.8443 141.719C80.8443 112.809 104.384 89.3716 133.424 89.3716C146.697 89.3524 159.483 94.3504 169.197 103.356C178.242 113.027 183.262 125.755 183.242 138.97Z" fill="#59607C"/>
<path d="M183.242 138.97C183.242 167.88 159.702 191.315 130.662 191.315C117.389 191.335 104.603 186.337 94.889 177.333C85.8442 167.662 80.8245 154.933 80.8443 141.719C80.8443 112.809 104.384 89.3716 133.424 89.3716C146.697 89.3524 159.483 94.3504 169.197 103.356C178.242 113.027 183.262 125.755 183.242 138.97Z" fill="#0071BC"/>
<path opacity="0.2" d="M130.664 76.1433C95.8117 76.1433 67.5571 104.27 67.5571 138.969C66.7973 138.971 66.0455 138.815 65.3491 138.513C64.6528 138.21 64.027 137.768 63.5113 137.212C62.9956 136.657 62.6012 136.001 62.3531 135.286C62.1049 134.571 62.0084 133.813 62.0696 133.059C64.9147 99.9244 91.4394 73.5177 124.725 70.682C125.482 70.6208 126.244 70.7167 126.962 70.9635C127.681 71.2103 128.34 71.6027 128.898 72.116C129.456 72.6292 129.901 73.2521 130.205 73.9453C130.509 74.6385 130.665 75.3869 130.664 76.1433Z" fill="white"/>
<path d="M143.759 121.658C143.766 124.896 142.557 128.019 140.369 130.415C140.228 130.574 140.079 130.728 139.928 130.877C137.784 133.014 134.962 134.344 131.943 134.641C128.924 134.938 125.895 134.183 123.373 132.506C120.85 130.828 118.99 128.332 118.109 125.442C117.228 122.552 117.381 119.448 118.542 116.657C119.703 113.867 121.8 111.564 124.475 110.141C127.151 108.718 130.239 108.262 133.215 108.852C136.19 109.442 138.867 111.041 140.791 113.376C142.715 115.711 143.765 118.638 143.764 121.658H143.759Z" fill="black"/>
<path d="M130.664 172.17C129.416 172.17 128.181 171.915 127.035 171.422C125.889 170.929 124.857 170.208 124.002 169.303C123.147 168.398 122.487 167.328 122.062 166.16C121.638 164.991 121.458 163.748 121.535 162.508L123.673 128.136C123.781 126.364 124.565 124.699 125.864 123.482C127.163 122.264 128.88 121.587 130.664 121.587C132.447 121.587 134.162 122.263 135.461 123.478C136.76 124.694 137.545 126.357 137.655 128.128L139.793 162.5C139.871 163.741 139.692 164.984 139.268 166.154C138.844 167.323 138.185 168.394 137.329 169.3C136.474 170.206 135.441 170.928 134.295 171.422C133.149 171.915 131.913 172.17 130.664 172.17Z" fill="black"/>
<g opacity="0.2">
<path d="M132.504 21.3762C132.504 21.6167 132.457 21.8549 132.364 22.0771C132.272 22.2993 132.136 22.5012 131.965 22.6712C131.794 22.8412 131.591 22.9761 131.368 23.068C131.145 23.1599 130.905 23.207 130.664 23.2068C119.62 23.2206 108.984 27.3609 100.86 34.8085C92.7357 42.2561 87.7157 52.4684 86.793 63.4245H83.0967C83.9309 52.1001 88.8446 41.4565 96.9337 33.4515C96.9728 33.4108 97.0137 33.3718 97.0529 33.3345C101.467 28.9454 106.708 25.4675 112.476 23.1006C118.244 20.7337 124.425 19.5244 130.664 19.5422C130.906 19.5422 131.145 19.5896 131.369 19.6818C131.592 19.774 131.795 19.9091 131.966 20.0795C132.137 20.2498 132.272 20.452 132.365 20.6745C132.457 20.897 132.505 21.1354 132.504 21.3762Z" fill="white"/>
</g>
<path opacity="0.2" d="M188.1 101.167C186.532 100.836 184.935 100.67 183.332 100.672C178.708 100.669 174.192 102.061 170.377 104.664C166.161 107.539 163.03 111.733 161.481 116.581H142.731C143.701 118.872 143.994 121.39 143.576 123.841C143.158 126.291 142.045 128.572 140.369 130.414H161.481C161.746 131.246 162.059 132.062 162.421 132.857C164.19 136.777 167.035 140.119 170.628 142.501C174.221 144.882 178.417 146.205 182.731 146.317C182.931 146.317 183.133 146.317 183.336 146.317C186.338 146.322 189.311 145.738 192.087 144.598C194.862 143.459 197.385 141.786 199.51 139.676C199.51 139.439 199.51 139.201 199.51 138.962C199.53 125.52 195.56 112.371 188.1 101.167ZM183.332 132.694C183.176 132.694 183.019 132.694 182.864 132.682C180.954 132.586 179.12 131.901 177.618 130.722C176.115 129.543 175.018 127.928 174.477 126.101C173.937 124.274 173.979 122.325 174.6 120.523C175.22 118.722 176.387 117.156 177.94 116.044C179.121 115.198 180.487 114.642 181.925 114.421C183.363 114.2 184.833 114.321 186.215 114.773C187.597 115.225 188.853 115.997 189.878 117.024C190.904 118.051 191.672 119.305 192.118 120.684C192.565 122.062 192.678 123.527 192.448 124.957C192.218 126.387 191.651 127.743 190.795 128.914C189.938 130.085 188.816 131.038 187.519 131.695C186.222 132.352 184.787 132.694 183.332 132.694Z" fill="black"/>
<path d="M181.415 98.7603C176.547 98.7597 171.806 100.301 167.877 103.161C163.948 106.021 161.035 110.052 159.56 114.67H119.597C118.281 116.736 117.575 119.128 117.56 121.574C117.544 124.021 118.219 126.422 119.508 128.504H159.553C160.836 132.523 163.212 136.108 166.417 138.864C169.622 141.621 173.531 143.439 177.711 144.119C181.89 144.798 186.177 144.312 190.096 142.714C194.016 141.117 197.414 138.469 199.914 135.066C202.414 131.664 203.919 127.638 204.262 123.435C204.604 119.233 203.771 115.018 201.855 111.258C199.938 107.498 197.013 104.34 193.404 102.134C189.795 99.9284 185.643 98.7605 181.408 98.7603H181.415ZM181.415 130.777C179.589 130.778 177.804 130.239 176.286 129.229C174.767 128.22 173.584 126.785 172.885 125.105C172.186 123.426 172.003 121.578 172.359 119.795C172.715 118.012 173.594 116.375 174.885 115.089C176.176 113.804 177.821 112.928 179.611 112.573C181.402 112.219 183.258 112.401 184.945 113.096C186.632 113.792 188.074 114.97 189.089 116.481C190.103 117.992 190.645 119.769 190.645 121.587C190.644 124.024 189.672 126.361 187.941 128.085C186.21 129.808 183.863 130.777 181.415 130.777Z" fill="#89A5AF"/>
<path opacity="0.2" d="M189.468 114.302C189.461 114.297 189.454 114.29 189.448 114.283C188.457 113.202 187.256 112.332 185.917 111.726C184.579 111.12 183.131 110.79 181.661 110.757C180.191 110.723 178.73 110.987 177.365 111.532C176 112.076 174.761 112.891 173.721 113.926C172.682 114.961 171.863 116.195 171.316 117.554C170.769 118.912 170.504 120.367 170.538 121.831C170.572 123.294 170.903 124.735 171.512 126.068C172.12 127.4 172.994 128.596 174.08 129.582C174.086 129.59 174.093 129.597 174.101 129.603C176.169 131.478 178.883 132.488 181.68 132.423C184.477 132.359 187.141 131.223 189.12 129.254C191.098 127.285 192.238 124.632 192.303 121.848C192.369 119.063 191.354 116.361 189.47 114.302H189.468ZM181.415 130.777C179.589 130.778 177.804 130.239 176.286 129.229C174.767 128.22 173.584 126.784 172.885 125.105C172.186 123.426 172.003 121.578 172.359 119.795C172.715 118.012 173.594 116.374 174.885 115.089C176.176 113.804 177.821 112.928 179.612 112.573C181.402 112.219 183.259 112.4 184.946 113.096C186.633 113.792 188.074 114.97 189.089 116.481C190.103 117.992 190.645 119.769 190.645 121.587C190.644 124.024 189.672 126.361 187.941 128.084C186.21 129.808 183.863 130.776 181.415 130.777Z" fill="white"/>
<path opacity="0.1" d="M193.011 122.301C193.011 124.484 192.347 126.617 191.107 128.418C189.868 130.22 188.11 131.607 186.065 132.396C184.02 133.186 181.783 133.342 179.648 132.843C177.512 132.344 175.578 131.215 174.099 129.603C176.167 131.478 178.881 132.488 181.678 132.423C184.475 132.358 187.139 131.223 189.118 129.254C191.096 127.285 192.236 124.632 192.301 121.848C192.367 119.063 191.352 116.361 189.468 114.302C190.586 115.316 191.478 116.551 192.088 117.928C192.699 119.306 193.013 120.795 193.011 122.301Z" fill="black"/>
<path opacity="0.2" d="M125.117 121.658C125.113 124.077 125.788 126.448 127.066 128.505H119.515C118.226 126.422 117.551 124.021 117.567 121.575C117.582 119.129 118.288 116.736 119.604 114.67H127.156C125.82 116.758 125.113 119.183 125.117 121.658Z" fill="black"/>
<path d="M146.157 48.3778C146.157 52.3684 144.564 56.1956 141.73 59.0174C138.895 61.8392 135.051 63.4244 131.043 63.4244H42.6865C40.7019 63.4244 38.7368 63.0353 36.9033 62.2792C35.0698 61.5231 33.4038 60.4149 32.0005 59.0179C30.5972 57.6208 29.484 55.9623 28.7246 54.1369C27.9651 52.3116 27.5742 50.3552 27.5742 48.3795C27.5742 46.4037 27.9651 44.4473 28.7246 42.622C29.484 40.7966 30.5972 39.1381 32.0005 37.741C33.4038 36.344 35.0698 35.2358 36.9033 34.4797C38.7368 33.7236 40.7019 33.3345 42.6865 33.3345H131.051C135.058 33.3358 138.9 34.9213 141.733 37.7423C144.565 40.5634 146.157 44.3889 146.157 48.3778Z" fill="#E3F2FC"/>
<path d="M42.5705 45.4266C42.961 45.4649 43.3409 45.5753 43.6908 45.752L45.6539 46.6826L45.608 42.6349C45.8229 42.4783 46.0591 42.3527 46.3094 42.262C46.6349 42.1356 46.9817 42.0724 47.331 42.0755C47.7554 42.0633 48.1727 42.1856 48.5228 42.4247C48.8497 42.6569 49.0132 43.0383 49.0132 43.5655C49.0132 43.7502 48.9893 44.1774 48.9434 44.8435C48.8974 45.5097 48.8412 46.1555 48.7731 46.7758L52.1783 45.0079C52.544 45.1798 52.8641 45.4347 53.113 45.752C53.3934 46.0921 53.5425 46.5207 53.5336 46.9606C53.5336 47.4273 53.4013 47.7612 53.1368 47.9623C52.8064 48.2033 52.4541 48.4133 52.0846 48.5895L49.8423 49.6065L52.5529 52.9965C52.4606 53.4597 52.2133 53.878 51.8514 54.1831C51.5072 54.4975 51.0569 54.6718 50.5898 54.6712C50.3904 54.6803 50.1915 54.6465 50.0064 54.5722C49.8213 54.4979 49.6544 54.3849 49.5171 54.2407C49.2515 53.9469 48.9632 53.5983 48.6522 53.1949L47.3446 51.3303L45.1006 54.5865C44.9754 54.642 44.8408 54.6736 44.7039 54.6797H44.3532C43.6358 54.6797 43.0983 54.5249 42.7408 54.2153C42.569 54.0739 42.4314 53.8958 42.3382 53.6942C42.2451 53.4926 42.1988 53.2727 42.2028 53.0508C42.2028 52.5864 42.4366 52.0903 42.9042 51.5626L44.6801 49.5624L41.0382 48.4014C40.9107 48.0112 40.8474 47.6031 40.8509 47.1928C40.8404 46.9593 40.8763 46.726 40.9567 46.5064C41.037 46.2868 41.1602 46.0851 41.3191 45.9131C41.482 45.7494 41.6775 45.6215 41.893 45.5377C42.1086 45.4539 42.3394 45.4161 42.5705 45.4266Z" fill="#0065BD"/>
<path d="M62.4078 45.4266C62.6564 45.4266 63.0304 45.5351 63.5298 45.7521L65.4929 46.6826L65.4452 42.6349C65.6604 42.4787 65.8965 42.3531 66.1467 42.262C66.4722 42.1358 66.8189 42.0726 67.1682 42.0756C67.5927 42.0631 68.0101 42.1854 68.36 42.4247C68.6869 42.657 68.8504 43.0383 68.8504 43.5655C68.8504 43.7503 68.8266 44.1774 68.7806 44.8435C68.7346 45.5097 68.6784 46.1555 68.6103 46.7759L72.0155 45.008C72.3807 45.1808 72.7006 45.4355 72.9502 45.7521C73.2342 46.0879 73.3892 46.5132 73.3878 46.9521C73.3878 47.4188 73.255 47.7528 72.9894 47.9539C72.6595 48.1949 72.3079 48.4049 71.9389 48.5811L69.6949 49.5981L72.4054 52.9881C72.3131 53.4508 72.0665 53.8689 71.7056 54.1746C71.3605 54.4886 70.9099 54.6628 70.4423 54.6628C70.2379 54.6738 70.0335 54.6399 69.8437 54.5635C69.6539 54.487 69.4833 54.3699 69.3441 54.2204C69.0802 53.9271 68.7908 53.578 68.4809 53.1746L67.1716 51.31L64.9276 54.5662C64.8025 54.6218 64.6679 54.6535 64.5309 54.6594H64.1802C63.464 54.6594 62.9265 54.5046 62.5678 54.195C62.396 54.0536 62.2584 53.8755 62.1653 53.6739C62.0721 53.4723 62.0258 53.2524 62.0298 53.0305C62.0298 52.566 62.2636 52.07 62.7313 51.5423L64.5071 49.5421L60.8618 48.3777C60.7343 47.9875 60.671 47.5794 60.6745 47.1691C60.654 46.6976 60.8224 46.2373 61.1427 45.8894C61.3094 45.7285 61.5081 45.6041 61.726 45.5244C61.9439 45.4447 62.1761 45.4114 62.4078 45.4266Z" fill="#0065BD"/>
<path d="M82.2411 45.4267C82.4914 45.4267 82.8642 45.5351 83.3631 45.7521L85.3262 46.6827L85.2802 42.635C85.4945 42.4783 85.7301 42.3527 85.98 42.2621C86.3055 42.136 86.6522 42.0728 87.0015 42.0756C87.426 42.0629 87.8435 42.1852 88.1933 42.4248C88.5202 42.657 88.6837 43.0384 88.6837 43.5655C88.6837 43.7503 88.6616 44.1774 88.6139 44.8436C88.5662 45.5097 88.5134 46.1555 88.4436 46.7759L91.8488 45.008C92.2139 45.1808 92.5339 45.4355 92.7835 45.7521C93.0639 46.0922 93.2131 46.5208 93.2041 46.9606C93.2041 47.4273 93.0718 47.7613 92.8074 47.9624C92.4766 48.203 92.1244 48.413 91.7552 48.5896L89.5112 49.6066L92.2234 52.9966C92.1305 53.4595 91.8833 53.8776 91.5219 54.1831C91.1772 54.4967 90.7273 54.6708 90.2603 54.6713C90.0558 54.6827 89.8513 54.6489 89.6615 54.5725C89.4716 54.496 89.3011 54.3787 89.1621 54.2289C88.8965 53.9356 88.6071 53.5865 88.2972 53.1831L86.9879 51.3185L84.7456 54.5747C84.6198 54.6302 84.4847 54.6618 84.3472 54.6679H83.9964C83.2791 54.6679 82.7416 54.5131 82.3841 54.2035C82.2129 54.0617 82.0758 53.8835 81.983 53.6819C81.8901 53.4804 81.8439 53.2607 81.8478 53.039C81.8478 52.5746 82.081 52.0785 82.5475 51.5508L84.325 49.5506L80.6781 48.3862C80.5511 47.9959 80.4885 47.5878 80.4925 47.1776C80.482 46.9442 80.5178 46.7111 80.5979 46.4915C80.6779 46.2719 80.8006 46.0702 80.959 45.8979C81.1269 45.7332 81.328 45.6061 81.5491 45.5248C81.7701 45.4436 82.006 45.4101 82.2411 45.4267Z" fill="#0065BD"/>
<path d="M102.07 45.4267C102.318 45.4267 102.692 45.5351 103.19 45.7521L105.153 46.6827L105.107 42.635C105.322 42.478 105.558 42.3524 105.808 42.2621C106.134 42.1357 106.481 42.0724 106.83 42.0756C107.254 42.0629 107.672 42.1852 108.022 42.4248C108.35 42.657 108.514 43.0384 108.514 43.5655C108.514 43.7503 108.49 44.1774 108.442 44.8436C108.395 45.5097 108.342 46.1555 108.272 46.7759L111.677 45.008C112.043 45.1804 112.363 45.4352 112.612 45.7521C112.9 46.0864 113.058 46.512 113.058 46.9522C113.058 47.4189 112.926 47.7528 112.661 47.9539C112.331 48.1946 111.978 48.4045 111.609 48.5811L109.367 49.5981L112.077 52.9881C111.985 53.4513 111.738 53.8695 111.376 54.1746C111.031 54.4883 110.581 54.6624 110.114 54.6628C109.91 54.6742 109.705 54.6405 109.515 54.564C109.326 54.4875 109.155 54.3702 109.016 54.2204C108.751 53.9266 108.462 53.578 108.151 53.1746L106.842 51.3101L104.6 54.5662C104.474 54.6215 104.34 54.6531 104.203 54.6594H103.852C103.135 54.6594 102.597 54.5046 102.24 54.195C102.068 54.0536 101.93 53.8755 101.837 53.6739C101.744 53.4723 101.698 53.2524 101.702 53.0305C101.702 52.5661 101.936 52.07 102.403 51.5423L104.179 49.5422L100.534 48.3777C100.405 47.9877 100.342 47.5795 100.347 47.1691C100.336 46.9358 100.372 46.7026 100.452 46.4831C100.532 46.2635 100.655 46.0617 100.813 45.8894C100.979 45.7297 101.176 45.606 101.392 45.5264C101.609 45.4467 101.839 45.4128 102.07 45.4267Z" fill="#0065BD"/>
<path d="M121.9 45.4266C122.148 45.4266 122.522 45.5351 123.022 45.7521L124.985 46.6826L124.937 42.6349C125.152 42.4783 125.388 42.3528 125.639 42.262C125.964 42.1358 126.311 42.0726 126.66 42.0756C127.085 42.0631 127.502 42.1854 127.852 42.4247C128.179 42.657 128.343 43.0383 128.343 43.5655C128.343 43.7503 128.319 44.1774 128.273 44.8435C128.227 45.5097 128.171 46.1555 128.102 46.7759L131.508 45.008C131.873 45.1808 132.193 45.4355 132.442 45.7521C132.722 46.0925 132.871 46.5209 132.863 46.9606C132.863 47.4273 132.73 47.7612 132.464 47.9624C132.135 48.2034 131.783 48.4134 131.414 48.5895L129.17 49.6065L131.881 52.9966C131.788 53.4597 131.541 53.878 131.179 54.1831C130.835 54.4976 130.385 54.6718 129.917 54.6713C129.713 54.6825 129.508 54.6487 129.319 54.5723C129.129 54.4958 128.958 54.3785 128.819 54.2289C128.554 53.9351 128.265 53.5864 127.954 53.183L126.647 51.3185L124.403 54.5746C124.278 54.6302 124.143 54.6618 124.006 54.6679H123.655C122.938 54.6679 122.4 54.5131 122.043 54.2034C121.871 54.0621 121.733 53.884 121.64 53.6824C121.547 53.4807 121.501 53.2608 121.505 53.039C121.505 52.5745 121.739 52.0784 122.206 51.5507L123.982 49.5506L120.337 48.3861C120.209 47.996 120.146 47.5878 120.15 47.1776C120.129 46.7061 120.298 46.2457 120.618 45.8978C120.786 45.7329 120.987 45.6056 121.208 45.5243C121.429 45.4431 121.665 45.4098 121.9 45.4266Z" fill="#0065BD"/>
<path opacity="0.2" d="M93.1167 63.4238C93.0532 64.2883 93.022 65.1618 93.0231 66.0443V70.4293H81.1577V66.0443C81.1577 65.1663 81.1804 64.2928 81.2258 63.4238H93.1167Z" fill="black"/>
</svg>
