<svg width="180" height="263" viewBox="0 0 180 263" fill="none" xmlns="http://www.w3.org/2000/svg">
<path d="M150.365 262.46H8.36472L0.594727 34.0901H142.595L150.365 262.46Z" fill="#0065BD"/>
<path d="M157.455 255.37H15.4548L7.6748 27H149.675L157.455 255.37Z" fill="#0065BD"/>
<path opacity="0.3" d="M157.455 255.37H15.4548L7.6748 27H149.675L157.455 255.37Z" fill="white"/>
<path opacity="0.7" d="M121.459 33.8931C118.458 21.1771 126.333 8.43563 139.049 5.43437C151.765 2.4331 164.507 10.3085 167.508 23.0246C170.509 35.7407 162.634 48.4821 149.918 51.4833C137.202 54.4846 124.46 46.6092 121.459 33.8931Z" fill="#BADEFA"/>
<path d="M144.693 40.1437C144.078 40.1484 143.478 39.9619 142.973 39.61L127.007 28.7134C126.397 28.2316 125.993 27.5364 125.876 26.7683C125.759 26.0001 125.937 25.2161 126.376 24.5746C126.814 23.933 127.48 23.4816 128.238 23.3115C128.996 23.1414 129.79 23.2652 130.461 23.658L144.1 32.9831C149.081 26.9789 163.284 10.7452 175.1 5.42287C175.467 5.25933 175.862 5.16968 176.264 5.15903C176.666 5.14838 177.066 5.21696 177.441 5.36082C177.816 5.50468 178.159 5.72101 178.451 5.99748C178.742 6.27395 178.976 6.60515 179.14 6.97213C179.303 7.33912 179.393 7.73472 179.404 8.13635C179.414 8.53799 179.346 8.93779 179.202 9.31293C179.058 9.68807 178.842 10.0312 178.565 10.3227C178.289 10.6143 177.958 10.8485 177.591 11.012C164.693 16.7494 147.273 38.765 147.11 38.9874C146.82 39.3494 146.452 39.6415 146.034 39.8417C145.615 40.0419 145.157 40.1451 144.693 40.1437Z" fill="#0065BD"/>
<path d="M109.878 120.974C125.082 105.507 124.435 80.2171 108.433 64.4864C92.4309 48.7556 67.1332 48.5414 51.929 64.0079C36.7248 79.4744 37.3717 104.765 53.3738 120.495C69.3759 136.226 94.6736 136.44 109.878 120.974Z" fill="#0065BD"/>
<path d="M113.874 92.5001C114.079 97.9417 112.891 103.346 110.424 108.2C107.762 113.432 103.694 117.818 98.6775 120.867C93.661 123.915 87.8943 125.506 82.0243 125.46C76.0164 125.428 70.1226 123.816 64.9342 120.786C59.7459 117.757 55.4455 113.416 52.4643 108.2C49.6847 103.42 48.1318 98.0263 47.9443 92.5001C47.7599 88.2152 48.4485 83.9375 49.9684 79.9269C51.4882 75.9164 53.8076 72.2567 56.7856 69.1702C59.7636 66.0837 63.3379 63.6349 67.2916 61.9726C71.2452 60.3102 75.4955 59.469 79.7843 59.5001C88.6196 59.5626 97.0912 63.0263 103.44 69.1716C109.788 75.3169 113.525 83.6715 113.874 92.5001Z" fill="white"/>
<path opacity="0.6" d="M110.404 108.2C107.742 113.432 103.674 117.818 98.6575 120.867C93.6411 123.915 87.8744 125.506 82.0043 125.46C75.9964 125.428 70.1026 123.816 64.9143 120.786C59.7259 117.757 55.4255 113.416 52.4443 108.2C60.9015 102.434 70.9087 99.3692 81.1443 99.4101C91.5449 99.4326 101.713 102.487 110.404 108.2Z" fill="#0065BD"/>
<path opacity="0.6" d="M91.1763 91.6776C96.7671 85.9904 96.5292 76.6909 90.6451 70.9066C84.761 65.1223 75.4588 65.0436 69.868 70.7307C64.2773 76.4179 64.5151 85.7174 70.3993 91.5018C76.2834 97.2861 85.5856 97.3648 91.1763 91.6776Z" fill="#0065BD"/>
<path d="M128.924 172.67H38.3444L37.7344 154.67H128.314L128.924 172.67Z" fill="white"/>
<path d="M130.025 204.84H39.4352L38.8252 186.84H129.415L130.025 204.84Z" fill="white"/>
<path d="M95.0646 189.32L73.2346 192.32C73.0263 192.344 72.8252 192.41 72.6439 192.515C72.4626 192.621 72.305 192.762 72.181 192.931C72.057 193.1 71.9694 193.293 71.9235 193.498C71.8777 193.702 71.8746 193.914 71.9146 194.12L74.7846 208.75C74.8785 209.179 75.1297 209.558 75.4887 209.811C75.8477 210.065 76.2886 210.175 76.7246 210.12L98.5546 207.12C98.7624 207.094 98.9626 207.025 99.1428 206.918C99.323 206.811 99.4794 206.669 99.6022 206.499C99.725 206.329 99.8117 206.136 99.8568 205.932C99.9019 205.727 99.9046 205.516 99.8646 205.31L97.0046 190.68C96.9106 190.251 96.6591 189.874 96.2997 189.622C95.9404 189.37 95.4996 189.262 95.0646 189.32ZM88.7946 204.14L84.7946 204.67L84.4046 199.95C83.9924 199.772 83.6292 199.497 83.3455 199.149C83.0618 198.801 82.866 198.39 82.7746 197.95C82.7011 197.609 82.6999 197.257 82.7711 196.916C82.8423 196.575 82.9843 196.253 83.1879 195.97C83.3915 195.687 83.6521 195.45 83.953 195.275C84.2539 195.099 84.5883 194.988 84.9346 194.95C85.6449 194.859 86.3636 195.037 86.9487 195.45C87.5338 195.863 87.9427 196.48 88.0946 197.18C88.1813 197.603 88.1548 198.041 88.0178 198.45C87.8808 198.859 87.6383 199.225 87.3146 199.51L88.7946 204.14Z" fill="#0065BD"/>
<path d="M92.9044 188.53C92.5185 188.579 92.1281 188.482 91.8099 188.258C91.4917 188.035 91.2686 187.7 91.1844 187.32L90.9044 185.89C90.5048 183.939 89.411 182.198 87.8258 180.992C86.2407 179.786 84.2718 179.195 82.2844 179.33C81.2815 179.387 80.3027 179.66 79.4144 180.129C78.5261 180.598 77.7491 181.252 77.1363 182.048C76.5235 182.844 76.0891 183.763 75.8628 184.741C75.6364 185.72 75.6233 186.736 75.8244 187.72L76.1444 189.37C76.1817 189.553 76.1804 189.741 76.1405 189.924C76.1007 190.106 76.0232 190.278 75.9131 190.429C75.8029 190.579 75.6625 190.705 75.5009 190.798C75.3393 190.892 75.1599 190.95 74.9744 190.97C74.5877 191.024 74.195 190.929 73.8757 190.704C73.5564 190.48 73.3343 190.142 73.2544 189.76L72.9844 188.37C72.7098 187.071 72.7007 185.73 72.9576 184.427C73.2146 183.124 73.7322 181.887 74.4795 180.79C75.2267 179.692 76.1882 178.757 77.306 178.04C78.4239 177.324 79.6751 176.841 80.9844 176.62C83.8233 176.143 86.7368 176.778 89.1202 178.392C91.5036 180.007 93.1739 182.477 93.7844 185.29L94.1044 186.93C94.1417 187.115 94.1395 187.306 94.0979 187.49C94.0562 187.674 93.9761 187.848 93.8628 187.999C93.7495 188.15 93.6056 188.275 93.4404 188.367C93.2752 188.458 93.0926 188.514 92.9044 188.53Z" fill="#0065BD"/>
<path d="M115.075 230.05H56.1048L55.7148 218.33H114.675L115.075 230.05Z" fill="#0065BD"/>
<path d="M86.6249 163.67C86.6425 164.097 86.5731 164.524 86.421 164.924C86.2688 165.324 86.037 165.689 85.7397 165.996C85.4424 166.304 85.0856 166.548 84.6912 166.714C84.2967 166.879 83.8727 166.963 83.4449 166.96C82.5631 166.953 81.7177 166.608 81.0831 165.996C80.4486 165.383 80.0733 164.551 80.0349 163.67C80.0173 163.242 80.0867 162.816 80.2388 162.416C80.391 162.016 80.6228 161.651 80.9201 161.344C81.2174 161.036 81.5742 160.792 81.9686 160.626C82.3631 160.461 82.7871 160.377 83.2149 160.38C84.0974 160.384 84.9442 160.729 85.5793 161.342C86.2144 161.954 86.5889 162.788 86.6249 163.67Z" fill="#263238"/>
<path d="M72.4049 163.67C72.424 164.098 72.3556 164.525 72.204 164.926C72.0523 165.326 71.8206 165.691 71.523 165.999C71.2254 166.307 70.8681 166.551 70.473 166.716C70.0778 166.882 69.6532 166.964 69.225 166.96C68.3442 166.953 67.4999 166.607 66.8669 165.995C66.234 165.383 65.8609 164.55 65.8249 163.67C65.8073 163.242 65.8767 162.816 66.0289 162.416C66.181 162.016 66.4128 161.651 66.7102 161.344C67.0075 161.036 67.3642 160.792 67.7587 160.626C68.1531 160.461 68.5771 160.377 69.005 160.38C69.8864 160.384 70.7322 160.729 71.3656 161.342C71.9991 161.955 72.3714 162.789 72.4049 163.67Z" fill="#263238"/>
<path d="M58.2751 163.67C58.2927 164.097 58.2233 164.524 58.0711 164.924C57.919 165.324 57.6872 165.689 57.3899 165.996C57.0925 166.304 56.7358 166.548 56.3413 166.714C55.9469 166.879 55.5229 166.963 55.0951 166.96C54.2136 166.955 53.3679 166.611 52.7344 165.998C52.1009 165.385 51.7286 164.551 51.6951 163.67C51.6774 163.242 51.7468 162.816 51.899 162.416C52.0512 162.016 52.2829 161.651 52.5803 161.344C52.8776 161.036 53.2343 160.792 53.6288 160.626C54.0233 160.461 54.4472 160.377 54.8751 160.38C55.7566 160.384 56.6023 160.729 57.2358 161.342C57.8692 161.955 58.2416 162.789 58.2751 163.67Z" fill="#263238"/>
<path d="M100.795 163.67C100.812 164.097 100.743 164.524 100.591 164.924C100.439 165.324 100.207 165.689 99.9096 165.996C99.6123 166.304 99.2556 166.548 98.8611 166.714C98.4666 166.879 98.0427 166.963 97.6148 166.96C96.7333 166.955 95.8876 166.611 95.2541 165.998C94.6206 165.385 94.2483 164.551 94.2148 163.67C94.1999 163.244 94.2717 162.819 94.4258 162.421C94.5799 162.024 94.8132 161.661 95.1115 161.357C95.4097 161.052 95.7668 160.811 96.161 160.648C96.5552 160.485 96.9784 160.404 97.4048 160.41C98.2796 160.417 99.1186 160.758 99.7491 161.365C100.38 161.971 100.754 162.796 100.795 163.67Z" fill="#263238"/>
<path d="M114.965 163.67C114.984 164.098 114.915 164.525 114.764 164.926C114.612 165.326 114.38 165.691 114.083 165.999C113.785 166.307 113.428 166.551 113.033 166.716C112.637 166.882 112.213 166.964 111.785 166.96C110.904 166.953 110.059 166.607 109.426 165.995C108.794 165.383 108.42 164.55 108.385 163.67C108.367 163.242 108.436 162.816 108.588 162.416C108.741 162.016 108.972 161.651 109.27 161.344C109.567 161.036 109.924 160.792 110.318 160.626C110.713 160.461 111.137 160.377 111.565 160.38C112.446 160.384 113.292 160.729 113.925 161.342C114.559 161.955 114.931 162.789 114.965 163.67Z" fill="#263238"/>
</svg>
