<svg width="128" height="106" viewBox="0 0 128 106" fill="none" xmlns="http://www.w3.org/2000/svg">
<g clip-path="url(#clip0_8344_8482)">
<circle cx="83.5" cy="53.5" r="83.5" fill="#25D366"/>
<path fill-rule="evenodd" clip-rule="evenodd" d="M98.612 26.532C95.2854 23.1835 91.3275 20.5285 86.9674 18.7206C82.6074 16.9127 77.932 15.988 73.212 16C53.42 16 37.308 32.108 37.3 51.908C37.3 58.236 38.952 64.412 42.092 69.86L37 88.464L56.036 83.468C61.3016 86.3344 67.2008 87.8374 73.196 87.84H73.212C93 87.84 109.112 71.732 109.12 51.932C109.134 47.2139 108.212 42.54 106.408 38.1802C104.605 33.8205 101.955 29.8615 98.612 26.532ZM73.212 81.78H73.2C67.8541 81.7805 62.6065 80.3422 58.008 77.616L56.92 76.968L45.624 79.932L48.636 68.92L47.928 67.792C44.9392 63.0337 43.3569 57.5271 43.364 51.908C43.372 35.452 56.76 22.064 73.224 22.064C77.145 22.0553 81.0288 22.8243 84.6506 24.3266C88.2724 25.8289 91.5603 28.0346 94.324 30.816C97.1025 33.5842 99.3048 36.8756 100.804 40.5C102.302 44.1244 103.068 48.0099 103.056 51.932C103.048 68.388 89.66 81.78 73.212 81.78ZM89.584 59.424C88.684 58.972 84.276 56.804 83.452 56.504C82.632 56.204 82.036 56.056 81.436 56.952C80.836 57.848 79.116 59.868 78.592 60.468C78.068 61.068 77.544 61.14 76.648 60.692C75.752 60.244 72.86 59.296 69.432 56.24C66.764 53.86 64.964 50.924 64.44 50.024C63.916 49.124 64.384 48.64 64.836 48.192C65.24 47.792 65.732 47.144 66.18 46.62C66.628 46.096 66.776 45.724 67.076 45.124C67.376 44.524 67.228 44 67 43.552C66.776 43.1 64.98 38.684 64.232 36.888C63.508 35.148 62.768 35.38 62.216 35.356C61.6443 35.3326 61.0722 35.3219 60.5 35.324C60.045 35.3356 59.5973 35.4411 59.185 35.6338C58.7727 35.8265 58.4047 36.1024 58.104 36.444C57.28 37.344 54.964 39.512 54.964 43.928C54.964 48.344 58.18 52.612 58.628 53.212C59.076 53.812 64.956 62.872 73.956 66.76C76.1 67.684 77.772 68.236 79.072 68.652C81.22 69.336 83.176 69.236 84.724 69.008C86.448 68.752 90.032 66.84 90.78 64.744C91.528 62.648 91.528 60.852 91.304 60.476C91.08 60.1 90.476 59.872 89.584 59.424Z" fill="white"/>
</g>
<defs>
<clipPath id="clip0_8344_8482">
<path d="M0 0H121C124.866 0 128 3.13401 128 7V99C128 102.866 124.866 106 121 106H0V0Z" fill="white"/>
</clipPath>
</defs>
</svg>
