<svg width="326" height="108" viewBox="0 0 326 108" fill="none" xmlns="http://www.w3.org/2000/svg">
<g clip-path="url(#clip0_8344_8473)">
<rect x="0.5" y="0.5" width="325" height="107" rx="7.5" stroke="#DCE1ED"/>
<path d="M24.246 32.722L22.762 30.944C22.3513 31.0467 21.9313 31.098 21.502 31.098C20.5873 31.098 19.7473 30.8833 18.982 30.454C18.2167 30.0247 17.61 29.432 17.162 28.676C16.714 27.9107 16.49 27.0473 16.49 26.086C16.49 25.134 16.714 24.28 17.162 23.524C17.61 22.7587 18.2167 22.1613 18.982 21.732C19.7473 21.3027 20.5873 21.088 21.502 21.088C22.426 21.088 23.266 21.3027 24.022 21.732C24.7873 22.1613 25.3893 22.7587 25.828 23.524C26.276 24.28 26.5 25.134 26.5 26.086C26.5 26.954 26.3133 27.7473 25.94 28.466C25.576 29.1753 25.0767 29.754 24.442 30.202L26.682 32.722H24.246ZM18.506 26.086C18.506 26.7393 18.632 27.3133 18.884 27.808C19.136 28.3027 19.486 28.6853 19.934 28.956C20.3913 29.2173 20.914 29.348 21.502 29.348C22.09 29.348 22.608 29.2173 23.056 28.956C23.504 28.6853 23.854 28.3027 24.106 27.808C24.358 27.3133 24.484 26.7393 24.484 26.086C24.484 25.4327 24.358 24.8633 24.106 24.378C23.854 23.8833 23.504 23.5053 23.056 23.244C22.608 22.9827 22.09 22.852 21.502 22.852C20.914 22.852 20.3913 22.9827 19.934 23.244C19.486 23.5053 19.136 23.8833 18.884 24.378C18.632 24.8633 18.506 25.4327 18.506 26.086ZM35.3075 23.244V31H33.3335V30.02C33.0815 30.356 32.7502 30.622 32.3395 30.818C31.9382 31.0047 31.4995 31.098 31.0235 31.098C30.4169 31.098 29.8802 30.972 29.4135 30.72C28.9469 30.4587 28.5782 30.0807 28.3075 29.586C28.0462 29.082 27.9155 28.4847 27.9155 27.794V23.244H29.8755V27.514C29.8755 28.13 30.0295 28.606 30.3375 28.942C30.6455 29.2687 31.0655 29.432 31.5975 29.432C32.1389 29.432 32.5635 29.2687 32.8715 28.942C33.1795 28.606 33.3335 28.13 33.3335 27.514V23.244H35.3075ZM44.4514 26.954C44.4514 27.234 44.4327 27.486 44.3954 27.71H38.7254C38.7721 28.27 38.9681 28.7087 39.3134 29.026C39.6587 29.3433 40.0834 29.502 40.5874 29.502C41.3154 29.502 41.8334 29.1893 42.1414 28.564H44.2554C44.0314 29.3107 43.6021 29.9267 42.9674 30.412C42.3327 30.888 41.5534 31.126 40.6294 31.126C39.8827 31.126 39.2107 30.9627 38.6134 30.636C38.0254 30.3 37.5634 29.8287 37.2274 29.222C36.9007 28.6153 36.7374 27.9153 36.7374 27.122C36.7374 26.3193 36.9007 25.6147 37.2274 25.008C37.5541 24.4013 38.0114 23.9347 38.5994 23.608C39.1874 23.2813 39.8641 23.118 40.6294 23.118C41.3667 23.118 42.0247 23.2767 42.6034 23.594C43.1914 23.9113 43.6441 24.364 43.9614 24.952C44.2881 25.5307 44.4514 26.198 44.4514 26.954ZM42.4214 26.394C42.4121 25.89 42.2301 25.4887 41.8754 25.19C41.5207 24.882 41.0867 24.728 40.5734 24.728C40.0881 24.728 39.6774 24.8773 39.3414 25.176C39.0147 25.4653 38.8141 25.8713 38.7394 26.394H42.4214ZM47.842 24.448C48.094 24.0373 48.4207 23.7153 48.822 23.482C49.2327 23.2487 49.6993 23.132 50.222 23.132V25.19H49.704C49.088 25.19 48.6213 25.3347 48.304 25.624C47.996 25.9133 47.842 26.4173 47.842 27.136V31H45.882V23.244H47.842V24.448ZM56.8381 24.448C57.0901 24.0373 57.4168 23.7153 57.8181 23.482C58.2288 23.2487 58.6954 23.132 59.2181 23.132V25.19H58.7001C58.0841 25.19 57.6174 25.3347 57.3001 25.624C56.9921 25.9133 56.8381 26.4173 56.8381 27.136V31H54.8781V23.244H56.8381V24.448ZM67.7483 26.954C67.7483 27.234 67.7296 27.486 67.6923 27.71H62.0223C62.0689 28.27 62.2649 28.7087 62.6103 29.026C62.9556 29.3433 63.3803 29.502 63.8843 29.502C64.6123 29.502 65.1303 29.1893 65.4383 28.564H67.5523C67.3283 29.3107 66.8989 29.9267 66.2643 30.412C65.6296 30.888 64.8503 31.126 63.9263 31.126C63.1796 31.126 62.5076 30.9627 61.9103 30.636C61.3223 30.3 60.8603 29.8287 60.5243 29.222C60.1976 28.6153 60.0343 27.9153 60.0343 27.122C60.0343 26.3193 60.1976 25.6147 60.5243 25.008C60.8509 24.4013 61.3083 23.9347 61.8963 23.608C62.4843 23.2813 63.1609 23.118 63.9263 23.118C64.6636 23.118 65.3216 23.2767 65.9003 23.594C66.4883 23.9113 66.9409 24.364 67.2583 24.952C67.5849 25.5307 67.7483 26.198 67.7483 26.954ZM65.7183 26.394C65.7089 25.89 65.5269 25.4887 65.1723 25.19C64.8176 24.882 64.3836 24.728 63.8703 24.728C63.3849 24.728 62.9743 24.8773 62.6383 25.176C62.3116 25.4653 62.1109 25.8713 62.0363 26.394H65.7183ZM68.6749 27.122C68.6749 26.3193 68.8382 25.6193 69.1649 25.022C69.4916 24.4153 69.9442 23.9487 70.5229 23.622C71.1016 23.286 71.7642 23.118 72.5109 23.118C73.4722 23.118 74.2656 23.3607 74.8909 23.846C75.5256 24.322 75.9502 24.994 76.1649 25.862H74.0509C73.9389 25.526 73.7476 25.2647 73.4769 25.078C73.2156 24.882 72.8889 24.784 72.4969 24.784C71.9369 24.784 71.4936 24.9893 71.1669 25.4C70.8402 25.8013 70.6769 26.3753 70.6769 27.122C70.6769 27.8593 70.8402 28.4333 71.1669 28.844C71.4936 29.2453 71.9369 29.446 72.4969 29.446C73.2902 29.446 73.8082 29.0913 74.0509 28.382H76.1649C75.9502 29.222 75.5256 29.8893 74.8909 30.384C74.2562 30.8787 73.4629 31.126 72.5109 31.126C71.7642 31.126 71.1016 30.9627 70.5229 30.636C69.9442 30.3 69.4916 29.8333 69.1649 29.236C68.8382 28.6293 68.6749 27.9247 68.6749 27.122ZM84.8108 26.954C84.8108 27.234 84.7921 27.486 84.7548 27.71H79.0848C79.1314 28.27 79.3274 28.7087 79.6728 29.026C80.0181 29.3433 80.4428 29.502 80.9468 29.502C81.6748 29.502 82.1928 29.1893 82.5008 28.564H84.6148C84.3908 29.3107 83.9614 29.9267 83.3268 30.412C82.6921 30.888 81.9128 31.126 80.9888 31.126C80.2421 31.126 79.5701 30.9627 78.9728 30.636C78.3848 30.3 77.9228 29.8287 77.5868 29.222C77.2601 28.6153 77.0968 27.9153 77.0968 27.122C77.0968 26.3193 77.2601 25.6147 77.5868 25.008C77.9134 24.4013 78.3708 23.9347 78.9588 23.608C79.5468 23.2813 80.2234 23.118 80.9888 23.118C81.7261 23.118 82.3841 23.2767 82.9628 23.594C83.5508 23.9113 84.0034 24.364 84.3208 24.952C84.6474 25.5307 84.8108 26.198 84.8108 26.954ZM82.7808 26.394C82.7714 25.89 82.5894 25.4887 82.2348 25.19C81.8801 24.882 81.4461 24.728 80.9328 24.728C80.4474 24.728 80.0368 24.8773 79.7008 25.176C79.3741 25.4653 79.1734 25.8713 79.0988 26.394H82.7808ZM88.2014 24.378C88.4534 24.0047 88.7987 23.7013 89.2374 23.468C89.6854 23.2347 90.1941 23.118 90.7634 23.118C91.4261 23.118 92.0234 23.2813 92.5554 23.608C93.0967 23.9347 93.5214 24.4013 93.8294 25.008C94.1467 25.6053 94.3054 26.3007 94.3054 27.094C94.3054 27.8873 94.1467 28.592 93.8294 29.208C93.5214 29.8147 93.0967 30.286 92.5554 30.622C92.0234 30.958 91.4261 31.126 90.7634 31.126C90.1847 31.126 89.6761 31.014 89.2374 30.79C88.8081 30.5567 88.4627 30.258 88.2014 29.894V31H86.2414V20.64H88.2014V24.378ZM92.3034 27.094C92.3034 26.6273 92.2054 26.226 92.0094 25.89C91.8227 25.5447 91.5707 25.2833 91.2534 25.106C90.9454 24.9287 90.6094 24.84 90.2454 24.84C89.8907 24.84 89.5547 24.9333 89.2374 25.12C88.9294 25.2973 88.6774 25.5587 88.4814 25.904C88.2947 26.2493 88.2014 26.6553 88.2014 27.122C88.2014 27.5887 88.2947 27.9947 88.4814 28.34C88.6774 28.6853 88.9294 28.9513 89.2374 29.138C89.5547 29.3153 89.8907 29.404 90.2454 29.404C90.6094 29.404 90.9454 29.3107 91.2534 29.124C91.5707 28.9373 91.8227 28.6713 92.0094 28.326C92.2054 27.9807 92.3034 27.57 92.3034 27.094ZM102.94 26.954C102.94 27.234 102.921 27.486 102.884 27.71H97.2137C97.2603 28.27 97.4563 28.7087 97.8017 29.026C98.147 29.3433 98.5717 29.502 99.0757 29.502C99.8037 29.502 100.322 29.1893 100.63 28.564H102.744C102.52 29.3107 102.09 29.9267 101.456 30.412C100.821 30.888 100.042 31.126 99.1177 31.126C98.371 31.126 97.699 30.9627 97.1017 30.636C96.5137 30.3 96.0517 29.8287 95.7157 29.222C95.389 28.6153 95.2257 27.9153 95.2257 27.122C95.2257 26.3193 95.389 25.6147 95.7157 25.008C96.0423 24.4013 96.4997 23.9347 97.0877 23.608C97.6757 23.2813 98.3523 23.118 99.1177 23.118C99.855 23.118 100.513 23.2767 101.092 23.594C101.68 23.9113 102.132 24.364 102.45 24.952C102.776 25.5307 102.94 26.198 102.94 26.954ZM100.91 26.394C100.9 25.89 100.718 25.4887 100.364 25.19C100.009 24.882 99.575 24.728 99.0617 24.728C98.5763 24.728 98.1657 24.8773 97.8297 25.176C97.503 25.4653 97.3023 25.8713 97.2277 26.394H100.91ZM106.33 24.448C106.582 24.0373 106.909 23.7153 107.31 23.482C107.721 23.2487 108.188 23.132 108.71 23.132V25.19H108.192C107.576 25.19 107.11 25.3347 106.792 25.624C106.484 25.9133 106.33 26.4173 106.33 27.136V31H104.37V23.244H106.33V24.448ZM116.81 31.126C116.064 31.126 115.392 30.9627 114.794 30.636C114.197 30.3 113.726 29.8287 113.38 29.222C113.044 28.6153 112.876 27.9153 112.876 27.122C112.876 26.3287 113.049 25.6287 113.394 25.022C113.749 24.4153 114.23 23.9487 114.836 23.622C115.443 23.286 116.12 23.118 116.866 23.118C117.613 23.118 118.29 23.286 118.896 23.622C119.503 23.9487 119.979 24.4153 120.324 25.022C120.679 25.6287 120.856 26.3287 120.856 27.122C120.856 27.9153 120.674 28.6153 120.31 29.222C119.956 29.8287 119.47 30.3 118.854 30.636C118.248 30.9627 117.566 31.126 116.81 31.126ZM116.81 29.418C117.165 29.418 117.496 29.334 117.804 29.166C118.122 28.9887 118.374 28.7273 118.56 28.382C118.747 28.0367 118.84 27.6167 118.84 27.122C118.84 26.3847 118.644 25.82 118.252 25.428C117.87 25.0267 117.398 24.826 116.838 24.826C116.278 24.826 115.807 25.0267 115.424 25.428C115.051 25.82 114.864 26.3847 114.864 27.122C114.864 27.8593 115.046 28.4287 115.41 28.83C115.784 29.222 116.25 29.418 116.81 29.418ZM125.126 27.122C125.126 26.3193 125.289 25.6193 125.616 25.022C125.943 24.4153 126.395 23.9487 126.974 23.622C127.553 23.286 128.215 23.118 128.962 23.118C129.923 23.118 130.717 23.3607 131.342 23.846C131.977 24.322 132.401 24.994 132.616 25.862H130.502C130.39 25.526 130.199 25.2647 129.928 25.078C129.667 24.882 129.34 24.784 128.948 24.784C128.388 24.784 127.945 24.9893 127.618 25.4C127.291 25.8013 127.128 26.3753 127.128 27.122C127.128 27.8593 127.291 28.4333 127.618 28.844C127.945 29.2453 128.388 29.446 128.948 29.446C129.741 29.446 130.259 29.0913 130.502 28.382H132.616C132.401 29.222 131.977 29.8893 131.342 30.384C130.707 30.8787 129.914 31.126 128.962 31.126C128.215 31.126 127.553 30.9627 126.974 30.636C126.395 30.3 125.943 29.8333 125.616 29.236C125.289 28.6293 125.126 27.9247 125.126 27.122ZM137.496 31.126C136.749 31.126 136.077 30.9627 135.48 30.636C134.883 30.3 134.411 29.8287 134.066 29.222C133.73 28.6153 133.562 27.9153 133.562 27.122C133.562 26.3287 133.735 25.6287 134.08 25.022C134.435 24.4153 134.915 23.9487 135.522 23.622C136.129 23.286 136.805 23.118 137.552 23.118C138.299 23.118 138.975 23.286 139.582 23.622C140.189 23.9487 140.665 24.4153 141.01 25.022C141.365 25.6287 141.542 26.3287 141.542 27.122C141.542 27.9153 141.36 28.6153 140.996 29.222C140.641 29.8287 140.156 30.3 139.54 30.636C138.933 30.9627 138.252 31.126 137.496 31.126ZM137.496 29.418C137.851 29.418 138.182 29.334 138.49 29.166C138.807 28.9887 139.059 28.7273 139.246 28.382C139.433 28.0367 139.526 27.6167 139.526 27.122C139.526 26.3847 139.33 25.82 138.938 25.428C138.555 25.0267 138.084 24.826 137.524 24.826C136.964 24.826 136.493 25.0267 136.11 25.428C135.737 25.82 135.55 26.3847 135.55 27.122C135.55 27.8593 135.732 28.4287 136.096 28.83C136.469 29.222 136.936 29.418 137.496 29.418ZM139.162 21.13L135.942 22.6V21.2L139.162 19.534V21.13ZM142.476 27.094C142.476 26.31 142.63 25.6147 142.938 25.008C143.255 24.4013 143.684 23.9347 144.226 23.608C144.767 23.2813 145.369 23.118 146.032 23.118C146.536 23.118 147.016 23.23 147.474 23.454C147.931 23.6687 148.295 23.958 148.566 24.322V20.64H150.554V31H148.566V29.852C148.323 30.2347 147.982 30.5427 147.544 30.776C147.105 31.0093 146.596 31.126 146.018 31.126C145.364 31.126 144.767 30.958 144.226 30.622C143.684 30.286 143.255 29.8147 142.938 29.208C142.63 28.592 142.476 27.8873 142.476 27.094ZM148.58 27.122C148.58 26.646 148.486 26.24 148.3 25.904C148.113 25.5587 147.861 25.2973 147.544 25.12C147.226 24.9333 146.886 24.84 146.522 24.84C146.158 24.84 145.822 24.9287 145.514 25.106C145.206 25.2833 144.954 25.5447 144.758 25.89C144.571 26.226 144.478 26.6273 144.478 27.094C144.478 27.5607 144.571 27.9713 144.758 28.326C144.954 28.6713 145.206 28.9373 145.514 29.124C145.831 29.3107 146.167 29.404 146.522 29.404C146.886 29.404 147.226 29.3153 147.544 29.138C147.861 28.9513 148.113 28.69 148.3 28.354C148.486 28.0087 148.58 27.598 148.58 27.122ZM153.462 22.32C153.117 22.32 152.827 22.2127 152.594 21.998C152.37 21.774 152.258 21.4987 152.258 21.172C152.258 20.8453 152.37 20.5747 152.594 20.36C152.827 20.136 153.117 20.024 153.462 20.024C153.807 20.024 154.092 20.136 154.316 20.36C154.549 20.5747 154.666 20.8453 154.666 21.172C154.666 21.4987 154.549 21.774 154.316 21.998C154.092 22.2127 153.807 22.32 153.462 22.32ZM154.428 23.244V31H152.468V23.244H154.428ZM159.402 23.118C159.981 23.118 160.49 23.2347 160.928 23.468C161.367 23.692 161.712 23.986 161.964 24.35V23.244H163.938V31.056C163.938 31.7747 163.794 32.414 163.504 32.974C163.215 33.5433 162.781 33.9913 162.202 34.318C161.624 34.654 160.924 34.822 160.102 34.822C159.001 34.822 158.096 34.5653 157.386 34.052C156.686 33.5387 156.29 32.8387 156.196 31.952H158.142C158.245 32.3067 158.464 32.5867 158.8 32.792C159.146 33.0067 159.561 33.114 160.046 33.114C160.616 33.114 161.078 32.9413 161.432 32.596C161.787 32.26 161.964 31.7467 161.964 31.056V29.852C161.712 30.216 161.362 30.5193 160.914 30.762C160.476 31.0047 159.972 31.126 159.402 31.126C158.749 31.126 158.152 30.958 157.61 30.622C157.069 30.286 156.64 29.8147 156.322 29.208C156.014 28.592 155.86 27.8873 155.86 27.094C155.86 26.31 156.014 25.6147 156.322 25.008C156.64 24.4013 157.064 23.9347 157.596 23.608C158.138 23.2813 158.74 23.118 159.402 23.118ZM161.964 27.122C161.964 26.646 161.871 26.24 161.684 25.904C161.498 25.5587 161.246 25.2973 160.928 25.12C160.611 24.9333 160.27 24.84 159.906 24.84C159.542 24.84 159.206 24.9287 158.898 25.106C158.59 25.2833 158.338 25.5447 158.142 25.89C157.956 26.226 157.862 26.6273 157.862 27.094C157.862 27.5607 157.956 27.9713 158.142 28.326C158.338 28.6713 158.59 28.9373 158.898 29.124C159.216 29.3107 159.552 29.404 159.906 29.404C160.27 29.404 160.611 29.3153 160.928 29.138C161.246 28.9513 161.498 28.69 161.684 28.354C161.871 28.0087 161.964 27.598 161.964 27.122ZM169.297 31.126C168.55 31.126 167.878 30.9627 167.281 30.636C166.683 30.3 166.212 29.8287 165.867 29.222C165.531 28.6153 165.363 27.9153 165.363 27.122C165.363 26.3287 165.535 25.6287 165.881 25.022C166.235 24.4153 166.716 23.9487 167.323 23.622C167.929 23.286 168.606 23.118 169.353 23.118C170.099 23.118 170.776 23.286 171.383 23.622C171.989 23.9487 172.465 24.4153 172.811 25.022C173.165 25.6287 173.343 26.3287 173.343 27.122C173.343 27.9153 173.161 28.6153 172.797 29.222C172.442 29.8287 171.957 30.3 171.341 30.636C170.734 30.9627 170.053 31.126 169.297 31.126ZM169.297 29.418C169.651 29.418 169.983 29.334 170.291 29.166C170.608 28.9887 170.86 28.7273 171.047 28.382C171.233 28.0367 171.327 27.6167 171.327 27.122C171.327 26.3847 171.131 25.82 170.739 25.428C170.356 25.0267 169.885 24.826 169.325 24.826C168.765 24.826 168.293 25.0267 167.911 25.428C167.537 25.82 167.351 26.3847 167.351 27.122C167.351 27.8593 167.533 28.4287 167.897 28.83C168.27 29.222 168.737 29.418 169.297 29.418ZM21.264 44.132C22.188 44.132 22.9347 44.426 23.504 45.014C24.0733 45.5927 24.358 46.4047 24.358 47.45V52H22.398V47.716C22.398 47.1 22.244 46.6287 21.936 46.302C21.628 45.966 21.208 45.798 20.676 45.798C20.1347 45.798 19.7053 45.966 19.388 46.302C19.08 46.6287 18.926 47.1 18.926 47.716V52H16.966V44.244H18.926V45.21C19.1873 44.874 19.5187 44.6127 19.92 44.426C20.3307 44.23 20.7787 44.132 21.264 44.132ZM29.6659 52.126C28.9192 52.126 28.2472 51.9627 27.6499 51.636C27.0525 51.3 26.5812 50.8287 26.2359 50.222C25.8999 49.6153 25.7319 48.9153 25.7319 48.122C25.7319 47.3287 25.9045 46.6287 26.2499 46.022C26.6045 45.4153 27.0852 44.9487 27.6919 44.622C28.2985 44.286 28.9752 44.118 29.7219 44.118C30.4685 44.118 31.1452 44.286 31.7519 44.622C32.3585 44.9487 32.8345 45.4153 33.1799 46.022C33.5345 46.6287 33.7119 47.3287 33.7119 48.122C33.7119 48.9153 33.5299 49.6153 33.1659 50.222C32.8112 50.8287 32.3259 51.3 31.7099 51.636C31.1032 51.9627 30.4219 52.126 29.6659 52.126ZM29.6659 50.418C30.0205 50.418 30.3519 50.334 30.6599 50.166C30.9772 49.9887 31.2292 49.7273 31.4159 49.382C31.6025 49.0367 31.6959 48.6167 31.6959 48.122C31.6959 47.3847 31.4999 46.82 31.1079 46.428C30.7252 46.0267 30.2539 45.826 29.6939 45.826C29.1339 45.826 28.6625 46.0267 28.2799 46.428C27.9065 46.82 27.7199 47.3847 27.7199 48.122C27.7199 48.8593 27.9019 49.4287 28.2659 49.83C28.6392 50.222 29.1059 50.418 29.6659 50.418ZM41.4535 52.126C40.8189 52.126 40.2495 52.014 39.7455 51.79C39.2415 51.5567 38.8402 51.244 38.5415 50.852C38.2522 50.46 38.0935 50.026 38.0655 49.55H40.0395C40.0769 49.8487 40.2215 50.096 40.4735 50.292C40.7349 50.488 41.0569 50.586 41.4395 50.586C41.8129 50.586 42.1022 50.5113 42.3075 50.362C42.5222 50.2127 42.6295 50.0213 42.6295 49.788C42.6295 49.536 42.4989 49.3493 42.2375 49.228C41.9855 49.0973 41.5795 48.9573 41.0195 48.808C40.4409 48.668 39.9649 48.5233 39.5915 48.374C39.2275 48.2247 38.9102 47.996 38.6395 47.688C38.3782 47.38 38.2475 46.9647 38.2475 46.442C38.2475 46.0127 38.3689 45.6207 38.6115 45.266C38.8635 44.9113 39.2182 44.6313 39.6755 44.426C40.1422 44.2207 40.6882 44.118 41.3135 44.118C42.2375 44.118 42.9749 44.3513 43.5255 44.818C44.0762 45.2753 44.3795 45.896 44.4355 46.68H42.5595C42.5315 46.372 42.4009 46.1293 42.1675 45.952C41.9435 45.7653 41.6402 45.672 41.2575 45.672C40.9029 45.672 40.6275 45.7373 40.4315 45.868C40.2449 45.9987 40.1515 46.1807 40.1515 46.414C40.1515 46.6753 40.2822 46.876 40.5435 47.016C40.8049 47.1467 41.2109 47.282 41.7615 47.422C42.3215 47.562 42.7835 47.7067 43.1475 47.856C43.5115 48.0053 43.8242 48.2387 44.0855 48.556C44.3562 48.864 44.4962 49.2747 44.5055 49.788C44.5055 50.236 44.3795 50.6373 44.1275 50.992C43.8849 51.3467 43.5302 51.6267 43.0635 51.832C42.6062 52.028 42.0695 52.126 41.4535 52.126ZM53.3244 47.954C53.3244 48.234 53.3058 48.486 53.2684 48.71H47.5984C47.6451 49.27 47.8411 49.7087 48.1864 50.026C48.5318 50.3433 48.9564 50.502 49.4604 50.502C50.1884 50.502 50.7064 50.1893 51.0144 49.564H53.1284C52.9044 50.3107 52.4751 50.9267 51.8404 51.412C51.2058 51.888 50.4264 52.126 49.5024 52.126C48.7558 52.126 48.0838 51.9627 47.4864 51.636C46.8984 51.3 46.4364 50.8287 46.1004 50.222C45.7738 49.6153 45.6104 48.9153 45.6104 48.122C45.6104 47.3193 45.7738 46.6147 46.1004 46.008C46.4271 45.4013 46.8844 44.9347 47.4724 44.608C48.0604 44.2813 48.7371 44.118 49.5024 44.118C50.2398 44.118 50.8978 44.2767 51.4764 44.594C52.0644 44.9113 52.5171 45.364 52.8344 45.952C53.1611 46.5307 53.3244 47.198 53.3244 47.954ZM51.2944 47.394C51.2851 46.89 51.1031 46.4887 50.7484 46.19C50.3938 45.882 49.9598 45.728 49.4464 45.728C48.9611 45.728 48.5504 45.8773 48.2144 46.176C47.8878 46.4653 47.6871 46.8713 47.6124 47.394H51.2944ZM62.0771 44.244V52H60.1031V51.02C59.8511 51.356 59.5197 51.622 59.1091 51.818C58.7077 52.0047 58.2691 52.098 57.7931 52.098C57.1864 52.098 56.6497 51.972 56.1831 51.72C55.7164 51.4587 55.3477 51.0807 55.0771 50.586C54.8157 50.082 54.6851 49.4847 54.6851 48.794V44.244H56.6451V48.514C56.6451 49.13 56.7991 49.606 57.1071 49.942C57.4151 50.2687 57.8351 50.432 58.3671 50.432C58.9084 50.432 59.3331 50.2687 59.6411 49.942C59.9491 49.606 60.1031 49.13 60.1031 48.514V44.244H62.0771ZM80.4089 42.228L77.6789 52H75.3689L73.5349 45.042L71.6169 52L69.3209 52.014L66.6889 42.228H68.7889L70.5109 49.816L72.4989 42.228H74.6829L76.5589 49.774L78.2949 42.228H80.4089ZM86.0567 44.132C86.6447 44.132 87.1673 44.2627 87.6247 44.524C88.082 44.776 88.4367 45.154 88.6887 45.658C88.95 46.1527 89.0807 46.75 89.0807 47.45V52H87.1207V47.716C87.1207 47.1 86.9667 46.6287 86.6587 46.302C86.3507 45.966 85.9307 45.798 85.3987 45.798C84.8573 45.798 84.428 45.966 84.1107 46.302C83.8027 46.6287 83.6487 47.1 83.6487 47.716V52H81.6887V41.64H83.6487V45.21C83.9007 44.874 84.2367 44.6127 84.6567 44.426C85.0767 44.23 85.5433 44.132 86.0567 44.132ZM90.4405 48.094C90.4405 47.31 90.5945 46.6147 90.9025 46.008C91.2198 45.4013 91.6445 44.9347 92.1765 44.608C92.7178 44.2813 93.3198 44.118 93.9825 44.118C94.5612 44.118 95.0652 44.2347 95.4945 44.468C95.9332 44.7013 96.2832 44.9953 96.5445 45.35V44.244H98.5185V52H96.5445V50.866C96.2925 51.23 95.9425 51.5333 95.4945 51.776C95.0558 52.0093 94.5472 52.126 93.9685 52.126C93.3152 52.126 92.7178 51.958 92.1765 51.622C91.6445 51.286 91.2198 50.8147 90.9025 50.208C90.5945 49.592 90.4405 48.8873 90.4405 48.094ZM96.5445 48.122C96.5445 47.646 96.4512 47.24 96.2645 46.904C96.0778 46.5587 95.8258 46.2973 95.5085 46.12C95.1912 45.9333 94.8505 45.84 94.4865 45.84C94.1225 45.84 93.7865 45.9287 93.4785 46.106C93.1705 46.2833 92.9185 46.5447 92.7225 46.89C92.5358 47.226 92.4425 47.6273 92.4425 48.094C92.4425 48.5607 92.5358 48.9713 92.7225 49.326C92.9185 49.6713 93.1705 49.9373 93.4785 50.124C93.7958 50.3107 94.1318 50.404 94.4865 50.404C94.8505 50.404 95.1912 50.3153 95.5085 50.138C95.8258 49.9513 96.0778 49.69 96.2645 49.354C96.4512 49.0087 96.5445 48.598 96.5445 48.122ZM102.715 45.854V49.606C102.715 49.8673 102.775 50.0587 102.897 50.18C103.027 50.292 103.242 50.348 103.541 50.348H104.451V52H103.219C101.567 52 100.741 51.1973 100.741 49.592V45.854H99.8168V44.244H100.741V42.326H102.715V44.244H104.451V45.854H102.715ZM108.829 52.126C108.194 52.126 107.625 52.014 107.121 51.79C106.617 51.5567 106.215 51.244 105.917 50.852C105.627 50.46 105.469 50.026 105.441 49.55H107.415C107.452 49.8487 107.597 50.096 107.849 50.292C108.11 50.488 108.432 50.586 108.815 50.586C109.188 50.586 109.477 50.5113 109.683 50.362C109.897 50.2127 110.005 50.0213 110.005 49.788C110.005 49.536 109.874 49.3493 109.613 49.228C109.361 49.0973 108.955 48.9573 108.395 48.808C107.816 48.668 107.34 48.5233 106.967 48.374C106.603 48.2247 106.285 47.996 106.015 47.688C105.753 47.38 105.623 46.9647 105.623 46.442C105.623 46.0127 105.744 45.6207 105.987 45.266C106.239 44.9113 106.593 44.6313 107.051 44.426C107.517 44.2207 108.063 44.118 108.689 44.118C109.613 44.118 110.35 44.3513 110.901 44.818C111.451 45.2753 111.755 45.896 111.811 46.68H109.935C109.907 46.372 109.776 46.1293 109.543 45.952C109.319 45.7653 109.015 45.672 108.633 45.672C108.278 45.672 108.003 45.7373 107.807 45.868C107.62 45.9987 107.527 46.1807 107.527 46.414C107.527 46.6753 107.657 46.876 107.919 47.016C108.18 47.1467 108.586 47.282 109.137 47.422C109.697 47.562 110.159 47.7067 110.523 47.856C110.887 48.0053 111.199 48.2387 111.461 48.556C111.731 48.864 111.871 49.2747 111.881 49.788C111.881 50.236 111.755 50.6373 111.503 50.992C111.26 51.3467 110.905 51.6267 110.439 51.832C109.981 52.028 109.445 52.126 108.829 52.126ZM112.985 48.094C112.985 47.31 113.139 46.6147 113.447 46.008C113.765 45.4013 114.189 44.9347 114.721 44.608C115.263 44.2813 115.865 44.118 116.527 44.118C117.106 44.118 117.61 44.2347 118.039 44.468C118.478 44.7013 118.828 44.9953 119.089 45.35V44.244H121.063V52H119.089V50.866C118.837 51.23 118.487 51.5333 118.039 51.776C117.601 52.0093 117.092 52.126 116.513 52.126C115.86 52.126 115.263 51.958 114.721 51.622C114.189 51.286 113.765 50.8147 113.447 50.208C113.139 49.592 112.985 48.8873 112.985 48.094ZM119.089 48.122C119.089 47.646 118.996 47.24 118.809 46.904C118.623 46.5587 118.371 46.2973 118.053 46.12C117.736 45.9333 117.395 45.84 117.031 45.84C116.667 45.84 116.331 45.9287 116.023 46.106C115.715 46.2833 115.463 46.5447 115.267 46.89C115.081 47.226 114.987 47.6273 114.987 48.094C114.987 48.5607 115.081 48.9713 115.267 49.326C115.463 49.6713 115.715 49.9373 116.023 50.124C116.341 50.3107 116.677 50.404 117.031 50.404C117.395 50.404 117.736 50.3153 118.053 50.138C118.371 49.9513 118.623 49.69 118.809 49.354C118.996 49.0087 119.089 48.598 119.089 48.122ZM124.938 45.364C125.19 45.0093 125.535 44.7153 125.974 44.482C126.422 44.2393 126.93 44.118 127.5 44.118C128.162 44.118 128.76 44.2813 129.292 44.608C129.833 44.9347 130.258 45.4013 130.566 46.008C130.883 46.6053 131.042 47.3007 131.042 48.094C131.042 48.8873 130.883 49.592 130.566 50.208C130.258 50.8147 129.833 51.286 129.292 51.622C128.76 51.958 128.162 52.126 127.5 52.126C126.93 52.126 126.426 52.0093 125.988 51.776C125.558 51.5427 125.208 51.2487 124.938 50.894V55.696H122.978V44.244H124.938V45.364ZM129.04 48.094C129.04 47.6273 128.942 47.226 128.746 46.89C128.559 46.5447 128.307 46.2833 127.99 46.106C127.682 45.9287 127.346 45.84 126.982 45.84C126.627 45.84 126.291 45.9333 125.974 46.12C125.666 46.2973 125.414 46.5587 125.218 46.904C125.031 47.2493 124.938 47.6553 124.938 48.122C124.938 48.5887 125.031 48.9947 125.218 49.34C125.414 49.6853 125.666 49.9513 125.974 50.138C126.291 50.3153 126.627 50.404 126.982 50.404C127.346 50.404 127.682 50.3107 127.99 50.124C128.307 49.9373 128.559 49.6713 128.746 49.326C128.942 48.9807 129.04 48.57 129.04 48.094ZM134.426 45.364C134.678 45.0093 135.023 44.7153 135.462 44.482C135.91 44.2393 136.419 44.118 136.988 44.118C137.651 44.118 138.248 44.2813 138.78 44.608C139.321 44.9347 139.746 45.4013 140.054 46.008C140.371 46.6053 140.53 47.3007 140.53 48.094C140.53 48.8873 140.371 49.592 140.054 50.208C139.746 50.8147 139.321 51.286 138.78 51.622C138.248 51.958 137.651 52.126 136.988 52.126C136.419 52.126 135.915 52.0093 135.476 51.776C135.047 51.5427 134.697 51.2487 134.426 50.894V55.696H132.466V44.244H134.426V45.364ZM138.528 48.094C138.528 47.6273 138.43 47.226 138.234 46.89C138.047 46.5447 137.795 46.2833 137.478 46.106C137.17 45.9287 136.834 45.84 136.47 45.84C136.115 45.84 135.779 45.9333 135.462 46.12C135.154 46.2973 134.902 46.5587 134.706 46.904C134.519 47.2493 134.426 47.6553 134.426 48.122C134.426 48.5887 134.519 48.9947 134.706 49.34C134.902 49.6853 135.154 49.9513 135.462 50.138C135.779 50.3153 136.115 50.404 136.47 50.404C136.834 50.404 137.17 50.3107 137.478 50.124C137.795 49.9373 138.047 49.6713 138.234 49.326C138.43 48.9807 138.528 48.57 138.528 48.094ZM144.684 41.892C145.655 41.892 146.434 42.158 147.022 42.69C147.62 43.2127 147.918 43.936 147.918 44.86C147.918 45.7747 147.624 46.4747 147.036 46.96C146.448 47.436 145.669 47.674 144.698 47.674L144.642 48.752H142.92L142.85 46.372H143.48C144.292 46.372 144.918 46.2647 145.356 46.05C145.795 45.8353 146.014 45.4433 146.014 44.874C146.014 44.4633 145.893 44.1367 145.65 43.894C145.417 43.6513 145.095 43.53 144.684 43.53C144.255 43.53 143.919 43.6467 143.676 43.88C143.443 44.1133 143.326 44.4353 143.326 44.846H141.478C141.469 44.2767 141.59 43.768 141.842 43.32C142.094 42.872 142.463 42.522 142.948 42.27C143.443 42.018 144.022 41.892 144.684 41.892ZM143.774 52.098C143.42 52.098 143.126 51.9907 142.892 51.776C142.668 51.552 142.556 51.2767 142.556 50.95C142.556 50.6233 142.668 50.3527 142.892 50.138C143.126 49.914 143.42 49.802 143.774 49.802C144.12 49.802 144.404 49.914 144.628 50.138C144.852 50.3527 144.964 50.6233 144.964 50.95C144.964 51.2767 144.852 51.552 144.628 51.776C144.404 51.9907 144.12 52.098 143.774 52.098Z" fill="#263357"/>
<path d="M18.016 79.524V82.32H21.064V83.22H18.016V86.1H21.424V87H16.924V78.624H21.424V79.524H18.016ZM26.2803 80.304C27.0803 80.304 27.7283 80.548 28.2243 81.036C28.7203 81.516 28.9683 82.212 28.9683 83.124V87H27.8883V83.28C27.8883 82.624 27.7243 82.124 27.3963 81.78C27.0683 81.428 26.6203 81.252 26.0523 81.252C25.4763 81.252 25.0163 81.432 24.6723 81.792C24.3363 82.152 24.1683 82.676 24.1683 83.364V87H23.0763V80.424H24.1683V81.36C24.3843 81.024 24.6763 80.764 25.0443 80.58C25.4203 80.396 25.8323 80.304 26.2803 80.304ZM33.2001 85.992L35.2401 80.424H36.4041L33.8241 87H32.5521L29.9721 80.424H31.1481L33.2001 85.992ZM38.0427 79.356C37.8347 79.356 37.6587 79.284 37.5147 79.14C37.3707 78.996 37.2987 78.82 37.2987 78.612C37.2987 78.404 37.3707 78.228 37.5147 78.084C37.6587 77.94 37.8347 77.868 38.0427 77.868C38.2427 77.868 38.4107 77.94 38.5467 78.084C38.6907 78.228 38.7627 78.404 38.7627 78.612C38.7627 78.82 38.6907 78.996 38.5467 79.14C38.4107 79.284 38.2427 79.356 38.0427 79.356ZM38.5707 80.424V87H37.4787V80.424H38.5707ZM40.0238 83.688C40.0238 83.016 40.1598 82.428 40.4318 81.924C40.7038 81.412 41.0758 81.016 41.5478 80.736C42.0278 80.456 42.5598 80.316 43.1438 80.316C43.7198 80.316 44.2198 80.44 44.6438 80.688C45.0678 80.936 45.3838 81.248 45.5918 81.624V80.424H46.6958V87H45.5918V85.776C45.3758 86.16 45.0518 86.48 44.6198 86.736C44.1958 86.984 43.6998 87.108 43.1318 87.108C42.5478 87.108 42.0198 86.964 41.5478 86.676C41.0758 86.388 40.7038 85.984 40.4318 85.464C40.1598 84.944 40.0238 84.352 40.0238 83.688ZM45.5918 83.7C45.5918 83.204 45.4918 82.772 45.2918 82.404C45.0918 82.036 44.8198 81.756 44.4758 81.564C44.1398 81.364 43.7678 81.264 43.3598 81.264C42.9518 81.264 42.5798 81.36 42.2438 81.552C41.9078 81.744 41.6398 82.024 41.4398 82.392C41.2398 82.76 41.1398 83.192 41.1398 83.688C41.1398 84.192 41.2398 84.632 41.4398 85.008C41.6398 85.376 41.9078 85.66 42.2438 85.86C42.5798 86.052 42.9518 86.148 43.3598 86.148C43.7678 86.148 44.1398 86.052 44.4758 85.86C44.8198 85.66 45.0918 85.376 45.2918 85.008C45.4918 84.632 45.5918 84.196 45.5918 83.7ZM49.6332 81.492C49.8252 81.116 50.0972 80.824 50.4492 80.616C50.8092 80.408 51.2452 80.304 51.7572 80.304V81.432H51.4692C50.2452 81.432 49.6332 82.096 49.6332 83.424V87H48.5412V80.424H49.6332V81.492ZM55.809 83.7C55.809 83.02 55.945 82.428 56.217 81.924C56.489 81.412 56.865 81.016 57.345 80.736C57.833 80.456 58.389 80.316 59.013 80.316C59.821 80.316 60.485 80.512 61.005 80.904C61.533 81.296 61.881 81.84 62.049 82.536H60.873C60.761 82.136 60.541 81.82 60.213 81.588C59.893 81.356 59.493 81.24 59.013 81.24C58.389 81.24 57.885 81.456 57.501 81.888C57.117 82.312 56.925 82.916 56.925 83.7C56.925 84.492 57.117 85.104 57.501 85.536C57.885 85.968 58.389 86.184 59.013 86.184C59.493 86.184 59.893 86.072 60.213 85.848C60.533 85.624 60.753 85.304 60.873 84.888H62.049C61.873 85.56 61.521 86.1 60.993 86.508C60.465 86.908 59.805 87.108 59.013 87.108C58.389 87.108 57.833 86.968 57.345 86.688C56.865 86.408 56.489 86.012 56.217 85.5C55.945 84.988 55.809 84.388 55.809 83.7ZM66.374 87.108C65.758 87.108 65.198 86.968 64.694 86.688C64.198 86.408 63.806 86.012 63.518 85.5C63.238 84.98 63.098 84.38 63.098 83.7C63.098 83.028 63.242 82.436 63.53 81.924C63.826 81.404 64.226 81.008 64.73 80.736C65.234 80.456 65.798 80.316 66.422 80.316C67.046 80.316 67.61 80.456 68.114 80.736C68.618 81.008 69.014 81.4 69.302 81.912C69.598 82.424 69.746 83.02 69.746 83.7C69.746 84.38 69.594 84.98 69.29 85.5C68.994 86.012 68.59 86.408 68.078 86.688C67.566 86.968 66.998 87.108 66.374 87.108ZM66.374 86.148C66.766 86.148 67.134 86.056 67.478 85.872C67.822 85.688 68.098 85.412 68.306 85.044C68.522 84.676 68.63 84.228 68.63 83.7C68.63 83.172 68.526 82.724 68.318 82.356C68.11 81.988 67.838 81.716 67.502 81.54C67.166 81.356 66.802 81.264 66.41 81.264C66.01 81.264 65.642 81.356 65.306 81.54C64.978 81.716 64.714 81.988 64.514 82.356C64.314 82.724 64.214 83.172 64.214 83.7C64.214 84.236 64.31 84.688 64.502 85.056C64.702 85.424 64.966 85.7 65.294 85.884C65.622 86.06 65.982 86.148 66.374 86.148ZM67.598 78.48L65.042 79.848V79.032L67.598 77.532V78.48ZM70.7738 83.688C70.7738 83.016 70.9098 82.428 71.1818 81.924C71.4538 81.412 71.8258 81.016 72.2978 80.736C72.7778 80.456 73.3138 80.316 73.9058 80.316C74.4178 80.316 74.8938 80.436 75.3338 80.676C75.7738 80.908 76.1098 81.216 76.3418 81.6V78.12H77.4458V87H76.3418V85.764C76.1258 86.156 75.8058 86.48 75.3818 86.736C74.9578 86.984 74.4618 87.108 73.8938 87.108C73.3098 87.108 72.7778 86.964 72.2978 86.676C71.8258 86.388 71.4538 85.984 71.1818 85.464C70.9098 84.944 70.7738 84.352 70.7738 83.688ZM76.3418 83.7C76.3418 83.204 76.2418 82.772 76.0418 82.404C75.8418 82.036 75.5698 81.756 75.2258 81.564C74.8898 81.364 74.5178 81.264 74.1098 81.264C73.7018 81.264 73.3298 81.36 72.9938 81.552C72.6578 81.744 72.3898 82.024 72.1898 82.392C71.9898 82.76 71.8898 83.192 71.8898 83.688C71.8898 84.192 71.9898 84.632 72.1898 85.008C72.3898 85.376 72.6578 85.66 72.9938 85.86C73.3298 86.052 73.7018 86.148 74.1098 86.148C74.5178 86.148 74.8898 86.052 75.2258 85.86C75.5698 85.66 75.8418 85.376 76.0418 85.008C76.2418 84.632 76.3418 84.196 76.3418 83.7ZM79.8552 79.356C79.6472 79.356 79.4712 79.284 79.3272 79.14C79.1832 78.996 79.1112 78.82 79.1112 78.612C79.1112 78.404 79.1832 78.228 79.3272 78.084C79.4712 77.94 79.6472 77.868 79.8552 77.868C80.0552 77.868 80.2232 77.94 80.3592 78.084C80.5032 78.228 80.5752 78.404 80.5752 78.612C80.5752 78.82 80.5032 78.996 80.3592 79.14C80.2232 79.284 80.0552 79.356 79.8552 79.356ZM80.3832 80.424V87H79.2912V80.424H80.3832ZM84.9563 80.316C85.5243 80.316 86.0203 80.44 86.4443 80.688C86.8763 80.936 87.1963 81.248 87.4043 81.624V80.424H88.5083V87.144C88.5083 87.744 88.3803 88.276 88.1243 88.74C87.8683 89.212 87.5003 89.58 87.0203 89.844C86.5483 90.108 85.9963 90.24 85.3643 90.24C84.5003 90.24 83.7803 90.036 83.2043 89.628C82.6283 89.22 82.2883 88.664 82.1843 87.96H83.2643C83.3843 88.36 83.6323 88.68 84.0083 88.92C84.3843 89.168 84.8363 89.292 85.3643 89.292C85.9643 89.292 86.4523 89.104 86.8283 88.728C87.2123 88.352 87.4043 87.824 87.4043 87.144V85.764C87.1883 86.148 86.8683 86.468 86.4443 86.724C86.0203 86.98 85.5243 87.108 84.9563 87.108C84.3723 87.108 83.8403 86.964 83.3603 86.676C82.8883 86.388 82.5163 85.984 82.2443 85.464C81.9723 84.944 81.8363 84.352 81.8363 83.688C81.8363 83.016 81.9723 82.428 82.2443 81.924C82.5163 81.412 82.8883 81.016 83.3603 80.736C83.8403 80.456 84.3723 80.316 84.9563 80.316ZM87.4043 83.7C87.4043 83.204 87.3043 82.772 87.1043 82.404C86.9043 82.036 86.6323 81.756 86.2883 81.564C85.9523 81.364 85.5803 81.264 85.1723 81.264C84.7643 81.264 84.3923 81.36 84.0563 81.552C83.7203 81.744 83.4523 82.024 83.2523 82.392C83.0523 82.76 82.9523 83.192 82.9523 83.688C82.9523 84.192 83.0523 84.632 83.2523 85.008C83.4523 85.376 83.7203 85.66 84.0563 85.86C84.3923 86.052 84.7643 86.148 85.1723 86.148C85.5803 86.148 85.9523 86.052 86.2883 85.86C86.6323 85.66 86.9043 85.376 87.1043 85.008C87.3043 84.632 87.4043 84.196 87.4043 83.7ZM93.2217 87.108C92.6057 87.108 92.0457 86.968 91.5417 86.688C91.0457 86.408 90.6537 86.012 90.3657 85.5C90.0857 84.98 89.9457 84.38 89.9457 83.7C89.9457 83.028 90.0897 82.436 90.3777 81.924C90.6737 81.404 91.0737 81.008 91.5777 80.736C92.0817 80.456 92.6457 80.316 93.2697 80.316C93.8937 80.316 94.4577 80.456 94.9617 80.736C95.4657 81.008 95.8617 81.4 96.1497 81.912C96.4457 82.424 96.5937 83.02 96.5937 83.7C96.5937 84.38 96.4417 84.98 96.1377 85.5C95.8417 86.012 95.4377 86.408 94.9257 86.688C94.4137 86.968 93.8457 87.108 93.2217 87.108ZM93.2217 86.148C93.6137 86.148 93.9817 86.056 94.3257 85.872C94.6697 85.688 94.9457 85.412 95.1537 85.044C95.3697 84.676 95.4777 84.228 95.4777 83.7C95.4777 83.172 95.3737 82.724 95.1657 82.356C94.9577 81.988 94.6857 81.716 94.3497 81.54C94.0137 81.356 93.6497 81.264 93.2577 81.264C92.8577 81.264 92.4897 81.356 92.1537 81.54C91.8257 81.716 91.5617 81.988 91.3617 82.356C91.1617 82.724 91.0617 83.172 91.0617 83.7C91.0617 84.236 91.1577 84.688 91.3497 85.056C91.5497 85.424 91.8137 85.7 92.1417 85.884C92.4697 86.06 92.8297 86.148 93.2217 86.148ZM101.749 78.96L102.181 79.74L100.513 80.436L102.193 81.12L101.737 81.924L100.285 80.868L100.477 82.68H99.5775L99.7575 80.868L98.3055 81.936L97.8375 81.12L99.5055 80.424L97.8375 79.752L98.2815 78.948L99.7695 80.016L99.5775 78.192H100.489L100.285 80.016L101.749 78.96Z" fill="#576078"/>
<path d="M111 87L115 83L111 79" stroke="#576078" stroke-width="1.5" stroke-linecap="round" stroke-linejoin="round"/>
<g clip-path="url(#clip1_8344_8473)">
<circle cx="280.5" cy="54.5" r="83.5" fill="#25D366"/>
<path fill-rule="evenodd" clip-rule="evenodd" d="M295.612 27.532C292.285 24.1835 288.327 21.5285 283.967 19.7206C279.607 17.9127 274.932 16.988 270.212 17C250.42 17 234.308 33.108 234.3 52.908C234.3 59.236 235.952 65.412 239.092 70.86L234 89.464L253.036 84.468C258.302 87.3344 264.201 88.8374 270.196 88.84H270.212C290 88.84 306.112 72.732 306.12 52.932C306.134 48.2139 305.212 43.54 303.408 39.1802C301.605 34.8205 298.955 30.8615 295.612 27.532ZM270.212 82.78H270.2C264.854 82.7805 259.607 81.3422 255.008 78.616L253.92 77.968L242.624 80.932L245.636 69.92L244.928 68.792C241.939 64.0337 240.357 58.5271 240.364 52.908C240.372 36.452 253.76 23.064 270.224 23.064C274.145 23.0553 278.029 23.8243 281.651 25.3266C285.272 26.8289 288.56 29.0346 291.324 31.816C294.102 34.5842 296.305 37.8756 297.804 41.5C299.302 45.1244 300.068 49.0099 300.056 52.932C300.048 69.388 286.66 82.78 270.212 82.78ZM286.584 60.424C285.684 59.972 281.276 57.804 280.452 57.504C279.632 57.204 279.036 57.056 278.436 57.952C277.836 58.848 276.116 60.868 275.592 61.468C275.068 62.068 274.544 62.14 273.648 61.692C272.752 61.244 269.86 60.296 266.432 57.24C263.764 54.86 261.964 51.924 261.44 51.024C260.916 50.124 261.384 49.64 261.836 49.192C262.24 48.792 262.732 48.144 263.18 47.62C263.628 47.096 263.776 46.724 264.076 46.124C264.376 45.524 264.228 45 264 44.552C263.776 44.1 261.98 39.684 261.232 37.888C260.508 36.148 259.768 36.38 259.216 36.356C258.644 36.3326 258.072 36.3219 257.5 36.324C257.045 36.3356 256.597 36.4411 256.185 36.6338C255.773 36.8265 255.405 37.1024 255.104 37.444C254.28 38.344 251.964 40.512 251.964 44.928C251.964 49.344 255.18 53.612 255.628 54.212C256.076 54.812 261.956 63.872 270.956 67.76C273.1 68.684 274.772 69.236 276.072 69.652C278.22 70.336 280.176 70.236 281.724 70.008C283.448 69.752 287.032 67.84 287.78 65.744C288.528 63.648 288.528 61.852 288.304 61.476C288.08 61.1 287.476 60.872 286.584 60.424Z" fill="white"/>
</g>
</g>
<defs>
<clipPath id="clip0_8344_8473">
<rect width="326" height="108" fill="white"/>
</clipPath>
<clipPath id="clip1_8344_8473">
<path d="M197 1H318C321.866 1 325 4.13401 325 8V100C325 103.866 321.866 107 318 107H197V1Z" fill="white"/>
</clipPath>
</defs>
</svg>
