<svg width="32" height="33" viewBox="0 0 32 33" fill="none" xmlns="http://www.w3.org/2000/svg">
<path d="M5.12835 12.2283C4.84502 12.2283 4.60746 12.1324 4.41569 11.9406C4.22413 11.7488 4.12835 11.5111 4.12835 11.2276C4.12835 10.9443 4.22413 10.7068 4.41569 10.5153C4.60746 10.3239 4.84502 10.2283 5.12835 10.2283H9.20502C9.78458 10.2283 10.2885 10.4209 10.7167 10.8063C11.1449 11.1918 11.3931 11.6658 11.4614 12.2283H5.12835ZM7.82035 24.2026C8.97435 24.2026 9.95513 23.7987 10.7627 22.9909C11.5705 22.1831 11.9744 21.2024 11.9744 20.0486C11.9744 18.8948 11.5705 17.914 10.7627 17.1063C9.95513 16.2985 8.97435 15.8946 7.82035 15.8946C6.66658 15.8946 5.68591 16.2985 4.87835 17.1063C4.07058 17.914 3.66669 18.8948 3.66669 20.0486C3.66669 21.2024 4.07058 22.1831 4.87835 22.9909C5.68591 23.7987 6.66658 24.2026 7.82035 24.2026ZM26 24.2026C26.6411 24.2026 27.1902 23.9739 27.6474 23.5166C28.1047 23.0593 28.3334 22.51 28.3334 21.8689C28.3334 21.228 28.1047 20.6789 27.6474 20.2216C27.1902 19.7643 26.6411 19.5356 26 19.5356C25.3589 19.5356 24.8098 19.7643 24.3527 20.2216C23.8954 20.6789 23.6667 21.228 23.6667 21.8689C23.6667 22.51 23.8954 23.0593 24.3527 23.5166C24.8098 23.9739 25.3589 24.2026 26 24.2026ZM7.81735 21.7923C7.33224 21.7923 6.92091 21.6224 6.58335 21.2826C6.2458 20.943 6.07702 20.5307 6.07702 20.0456C6.07702 19.5605 6.2468 19.1491 6.58635 18.8116C6.92591 18.4738 7.33835 18.3049 7.82369 18.3049C8.3088 18.3049 8.72013 18.4748 9.05769 18.8146C9.39524 19.1541 9.56402 19.5665 9.56402 20.0516C9.56402 20.5367 9.39424 20.948 9.05469 21.2856C8.71513 21.6234 8.30269 21.7923 7.81735 21.7923ZM26.641 17.5693C27.065 17.6546 27.4189 17.7618 27.7027 17.8909C27.9862 18.02 28.299 18.2316 28.641 18.5256V10.9716C28.641 10.3089 28.405 9.74159 27.933 9.26959C27.461 8.79759 26.8936 8.56159 26.2307 8.56159H18.6L17.2 7.09492L19.0667 5.22826L18.1334 4.29492L13.4 9.02826L14.4 9.96159L16.2667 8.09492L17.6667 9.49492V12.0486C17.6667 12.923 17.3554 13.6716 16.7327 14.2943C16.11 14.9169 15.3615 15.2283 14.487 15.2283H11.6204C12.0032 15.5289 12.3118 15.828 12.546 16.1256C12.7802 16.4229 13.023 16.7904 13.2744 17.2279H14.487C15.9197 17.2279 17.1411 16.7228 18.1514 15.7126C19.1616 14.7024 19.6667 13.481 19.6667 12.0486V10.5613H26.2307C26.3505 10.5613 26.4488 10.5998 26.5257 10.6769C26.6026 10.7538 26.641 10.852 26.641 10.9716V17.5693ZM21.7384 21.0486C21.8461 20.611 21.9686 20.2528 22.1057 19.9739C22.2426 19.695 22.456 19.3866 22.746 19.0486H13.8794C13.9427 19.4321 13.9744 19.7656 13.9744 20.0489C13.9744 20.3325 13.9427 20.6657 13.8794 21.0486H21.7384ZM26 26.2023C24.7967 26.2023 23.7736 25.7809 22.9307 24.9383C22.088 24.0956 21.6667 23.0725 21.6667 21.8689C21.6667 20.6656 22.088 19.6426 22.9307 18.7999C23.7736 17.9573 24.7967 17.5359 26 17.5359C27.2034 17.5359 28.2265 17.9573 29.0694 18.7999C29.912 19.6426 30.3334 20.6656 30.3334 21.8689C30.3334 23.0725 29.912 24.0956 29.0694 24.9383C28.2265 25.7809 27.2034 26.2023 26 26.2023ZM7.82035 26.2023C6.11791 26.2023 4.66669 25.6023 3.46669 24.4023C2.26669 23.2023 1.66669 21.751 1.66669 20.0486C1.66669 18.3461 2.26669 16.8949 3.46669 15.6949C4.66669 14.4949 6.11791 13.8949 7.82035 13.8949C9.52302 13.8949 10.9744 14.4949 12.1744 15.6949C13.3744 16.8949 13.9744 18.3461 13.9744 20.0486C13.9744 21.751 13.3744 23.2023 12.1744 24.4023C10.9744 25.6023 9.52302 26.2023 7.82035 26.2023Z" fill="#0E88E2"/>
</svg>
