<svg width="32" height="33" viewBox="0 0 32 33" fill="none" xmlns="http://www.w3.org/2000/svg">
<path d="M8.00033 28.7149C7.06877 28.7149 6.28033 28.3923 5.63499 27.7469C4.98966 27.1016 4.66699 26.3131 4.66699 25.3816V21.5356H8.66699V3.38159H27.3337V25.3816C27.3337 26.3131 27.011 27.1016 26.3657 27.7469C25.7203 28.3923 24.9319 28.7149 24.0003 28.7149H8.00033ZM24.0003 26.7149C24.3781 26.7149 24.6948 26.5871 24.9503 26.3316C25.2059 26.076 25.3337 25.7594 25.3337 25.3816V5.38159H10.667V21.5356H22.667V25.3816C22.667 25.7594 22.7948 26.076 23.0503 26.3316C23.3059 26.5871 23.6225 26.7149 24.0003 26.7149ZM12.2567 11.6379V9.63793H23.744V11.6379H12.2567ZM12.2567 15.4843V13.4843H23.744V15.4843H12.2567ZM8.00033 26.7149H20.667V23.5353H6.66699V25.3816C6.66699 25.7594 6.79477 26.076 7.05033 26.3316C7.30588 26.5871 7.62255 26.7149 8.00033 26.7149ZM8.00033 26.7149H6.66699H20.667H8.00033Z" fill="#0E88E2"/>
</svg>
