<svg width="20" height="26" viewBox="0 0 20 26" fill="none" xmlns="http://www.w3.org/2000/svg">
<path d="M10 25.4947C9.86156 25.4947 9.72567 25.4836 9.59233 25.4614C9.459 25.4392 9.32989 25.4059 9.205 25.3614C6.39322 24.3614 4.15611 22.5884 2.49367 20.0424C0.831222 17.4962 0 14.7487 0 11.8001V5.79508C0 5.28864 0.145667 4.83275 0.437 4.42742C0.728111 4.0223 1.10467 3.72864 1.56667 3.54642L9.15633 0.713082C9.44189 0.610415 9.72311 0.559082 10 0.559082C10.2769 0.559082 10.5581 0.610415 10.8437 0.713082L18.4333 3.54642C18.8953 3.72864 19.2719 4.0223 19.563 4.42742C19.8543 4.83275 20 5.28864 20 5.79508V11.8001C20 14.7487 19.1688 17.4962 17.5063 20.0424C15.8439 22.5884 13.6068 24.3614 10.795 25.3614C10.6701 25.4059 10.541 25.4392 10.4077 25.4614C10.2743 25.4836 10.1384 25.4947 10 25.4947ZM10 23.5334C12.3111 22.8001 14.2222 21.3334 15.7333 19.1334C17.2444 16.9334 18 14.489 18 11.8001V5.78208C18 5.69675 17.9764 5.61986 17.9293 5.55141C17.8824 5.48297 17.8162 5.43164 17.7307 5.39741L10.141 2.56408C10.0983 2.54697 10.0513 2.53842 10 2.53842C9.94867 2.53842 9.90167 2.54697 9.859 2.56408L2.26933 5.39741C2.18378 5.43164 2.11756 5.48297 2.07067 5.55141C2.02356 5.61986 2 5.69675 2 5.78208V11.8001C2 14.489 2.75556 16.9334 4.26667 19.1334C5.77778 21.3334 7.68889 22.8001 10 23.5334Z" fill="#0E88E2"/>
</svg>
