<svg width="123" height="42" viewBox="0 0 123 42" fill="none" xmlns="http://www.w3.org/2000/svg">
<path d="M2.08721 1.81882C5.08241 0.608176 8.59441 0 12.6261 0C16.3351 0 19.1161 0.919402 20.9721 2.75535C22.8252 4.5913 23.756 7.25813 23.756 10.753V26.8568C23.756 27.465 23.6303 27.8933 23.3819 28.1417C23.1335 28.393 22.7052 28.5157 22.0971 28.5157H19.1533C18.5451 28.5157 18.1282 28.3901 17.8969 28.1417C17.6657 27.8933 17.5486 27.465 17.5486 26.8568V10.9158C17.5486 7.42089 15.6041 5.67345 11.7181 5.67345C9.93354 5.67345 8.22037 5.90473 6.58143 6.37014C6.33302 6.47864 6.20739 6.65852 6.20739 6.90408V26.8597C6.20739 27.4678 6.09032 27.8961 5.85905 28.1445C5.62777 28.3958 5.20804 28.5186 4.60272 28.5186H1.65892C1.05075 28.5186 0.622452 28.393 0.374042 28.1445C0.125633 27.8961 0 27.4678 0 26.8597V4.87112C0 4.01453 0.134198 3.38351 0.39974 2.9695C0.668137 2.56119 1.22777 2.17573 2.08436 1.81882" fill="#0065BD"/>
<path d="M27.8734 5.56495C29.8008 1.85594 33.4926 0 38.9491 0C46.5813 0 50.3988 3.67475 50.3988 11.0214V24.8781C50.3988 25.8061 50.2646 26.4656 49.999 26.8568C49.7306 27.248 49.2224 27.6049 48.4743 27.9275C46.2986 28.8555 43.0893 29.3181 38.8434 29.3181C34.2778 29.3181 31.157 28.6042 29.481 27.1766C27.7706 25.7861 26.9141 23.6104 26.9141 20.6494C26.9141 17.4743 27.842 15.2444 29.6951 13.9623C31.5482 12.6775 34.6719 12.035 39.0576 12.035C39.0919 12.035 40.805 12.1235 44.1942 12.3034V10.8044C44.1942 9.0227 43.7745 7.69214 42.9379 6.81842C42.0985 5.9447 40.7365 5.50785 38.8434 5.50785C36.2052 5.50785 34.3321 6.36443 33.2271 8.07475C32.8331 8.6458 32.5047 8.97702 32.2363 9.06553C31.9679 9.15404 31.5311 9.09123 30.9257 8.87708L28.7871 7.96625C27.6108 7.43231 27.3052 6.62997 27.8763 5.55924M44.1942 22.9993V17.383C43.1235 17.3487 42.0985 17.303 41.1191 17.2488C40.1369 17.1945 39.4402 17.1603 39.0319 17.1431C38.6207 17.126 38.398 17.1174 38.3638 17.1174C36.4736 17.1174 35.143 17.3944 34.3778 17.9455C33.6097 18.4994 33.2271 19.3817 33.2271 20.5952C33.2271 21.8087 33.5926 22.7538 34.3235 23.322C35.0545 23.893 36.3651 24.1786 38.2553 24.1786C40.4652 24.1786 42.2498 24.0358 43.6061 23.7503C43.9972 23.5732 44.1942 23.322 44.1942 23.0022" fill="#0065BD"/>
<path d="M54.1449 17.2802V11.2355C54.1449 3.74613 58.1737 0 66.237 0C70.3372 0 73.5665 0.553925 75.9193 1.65892C76.7759 2.05295 77.3184 2.42699 77.5525 2.7839C77.7838 3.14081 77.9009 3.74613 77.9009 4.60272V29.4266C77.9009 33.1698 76.9272 36.0508 74.9856 38.0667C73.0412 40.0825 70.0888 41.0904 66.1314 41.0904C60.7806 41.0904 57.0887 39.3772 55.0557 35.9538C54.2334 34.8116 54.4476 33.9208 55.6982 33.2784L57.7311 32.1562C58.3736 31.8364 58.8818 31.7194 59.2559 31.8079C59.6299 31.8964 60.0325 32.2276 60.4608 32.7987C61.6029 34.6175 63.456 35.5255 66.0257 35.5255C69.8061 35.5255 71.6963 33.601 71.6963 29.7464V27.071C69.2693 27.7134 67.1307 28.0332 65.2748 28.0332C61.5658 28.0332 58.7819 27.1166 56.9288 25.2778C55.0729 23.4419 54.1478 20.7751 54.1478 17.2802M71.2138 6.25879C69.7148 5.86761 68.1986 5.6706 66.6653 5.6706C62.4566 5.6706 60.3523 7.59506 60.3523 11.4497V17.1203C60.3523 18.7963 60.852 20.0898 61.8513 21.0006C62.8507 21.9086 64.2954 22.3655 66.1856 22.3655C67.6847 22.3655 69.5206 22.117 71.6963 21.6174V6.90122C71.6963 6.6157 71.5364 6.40155 71.2138 6.25879Z" fill="#0065BD"/>
<path d="M94.3216 0H96.0319C96.6372 0 97.0655 0.117067 97.3168 0.348345C97.5652 0.579623 97.6908 1.01648 97.6908 1.65892V4.01453C97.6908 4.61985 97.5652 5.04814 97.3168 5.29941C97.0684 5.54782 96.6401 5.67345 96.0319 5.67345H94.1074C92.1087 5.67345 90.4155 5.8876 89.025 6.31589C88.6681 6.35301 88.4911 6.5643 88.4911 6.95833V26.8597C88.4911 27.4678 88.374 27.8961 88.1427 28.1445C87.9115 28.3958 87.4917 28.5186 86.8864 28.5186H83.9426C83.3373 28.5186 82.909 28.393 82.6577 28.1445C82.4065 27.8961 82.2837 27.4678 82.2837 26.8597V4.65411C82.2837 3.79753 82.4179 3.16651 82.6834 2.75535C82.9518 2.34419 83.5115 1.96158 84.3681 1.60467C86.9749 0.642439 90.2928 0.108501 94.3216 0Z" fill="#0065BD"/>
<path d="M98.3359 18.6193V10.7016C98.3359 7.3495 99.4067 4.72835 101.548 2.83815C103.687 0.945099 106.716 0 110.642 0C114.568 0 117.606 0.9451 119.765 2.8353C121.923 4.7255 123 7.34665 123 10.6988V18.6165C123 21.9686 121.921 24.5926 119.765 26.4799C117.606 28.3701 114.565 29.3152 110.642 29.3152C106.719 29.3152 103.687 28.3701 101.548 26.4799C99.4067 24.5897 98.3359 21.9686 98.3359 18.6165M116.795 18.6165V10.6988C116.795 9.05697 116.261 7.80064 115.191 6.92692C114.12 6.05321 112.604 5.61635 110.642 5.61635C108.681 5.61635 107.173 6.05321 106.119 6.92692C105.069 7.80064 104.54 9.05697 104.54 10.6988V18.6165C104.54 20.2211 105.066 21.4717 106.119 22.3626C107.17 23.2534 108.678 23.6989 110.642 23.6989C112.607 23.6989 114.12 23.2534 115.191 22.3626C116.261 21.4717 116.795 20.2211 116.795 18.6165Z" fill="#0065BD"/>
</svg>
