<svg width="99" height="34" viewBox="0 0 99 34" fill="none" xmlns="http://www.w3.org/2000/svg">
<path d="M1.67995 1.46393C4.09072 0.489507 6.91745 0 10.1624 0C13.1478 0 15.3862 0.740006 16.88 2.21772C18.3715 3.69544 19.1207 5.84191 19.1207 8.65486V21.6165C19.1207 22.106 19.0195 22.4507 18.8196 22.6506C18.6197 22.8529 18.2749 22.9517 17.7854 22.9517H15.416C14.9265 22.9517 14.591 22.8506 14.4048 22.6506C14.2187 22.4507 14.1245 22.106 14.1245 21.6165V8.78585C14.1245 5.97291 12.5594 4.56644 9.43163 4.56644C7.99529 4.56644 6.61639 4.75259 5.29725 5.12719C5.09731 5.21452 4.99619 5.3593 4.99619 5.55694V21.6188C4.99619 22.1083 4.90197 22.453 4.71582 22.6529C4.52967 22.8552 4.19184 22.954 3.70463 22.954H1.33523C0.845722 22.954 0.500998 22.8529 0.301059 22.6529C0.101119 22.453 0 22.1083 0 21.6188V3.92065C0 3.23121 0.108013 2.72332 0.321742 2.39008C0.537769 2.06145 0.988207 1.7512 1.67765 1.46393" fill="white"/>
<path d="M22.4347 4.47911C23.9859 1.4938 26.9574 0 31.3492 0C37.4922 0 40.5648 2.95773 40.5648 8.87088V20.0238C40.5648 20.7707 40.4568 21.3016 40.2431 21.6165C40.027 21.9313 39.618 22.2186 39.0159 22.4783C37.2647 23.2252 34.6815 23.5975 31.2642 23.5975C27.5894 23.5975 25.0775 23.0229 23.7285 21.8739C22.3519 20.7547 21.6625 19.0035 21.6625 16.6203C21.6625 14.0647 22.4094 12.2699 23.9009 11.238C25.3924 10.2038 27.9066 9.68673 31.4365 9.68673C31.4641 9.68673 32.843 9.75797 35.5709 9.90276V8.69622C35.5709 7.26217 35.2331 6.19123 34.5597 5.488C33.8841 4.78476 32.7878 4.43314 31.2642 4.43314C29.1407 4.43314 27.6331 5.12259 26.7437 6.49919C26.4266 6.95882 26.1623 7.2254 25.9462 7.29665C25.7302 7.36789 25.3786 7.31733 24.8914 7.14497L23.1701 6.41186C22.2232 5.9821 21.9773 5.33632 22.437 4.47451M35.5709 18.5117V13.9912C34.7091 13.9636 33.8841 13.9268 33.0958 13.8832C32.3052 13.8395 31.7445 13.8119 31.4158 13.7981C31.0849 13.7843 30.9057 13.7774 30.8781 13.7774C29.3567 13.7774 28.2858 14.0004 27.6699 14.4439C27.0517 14.8898 26.7437 15.5999 26.7437 16.5766C26.7437 17.5533 27.0379 18.314 27.6262 18.7713C28.2145 19.231 29.2694 19.4608 30.7908 19.4608C32.5695 19.4608 34.0059 19.3459 35.0975 19.1161C35.4123 18.9736 35.5709 18.7713 35.5709 18.5139" fill="white"/>
<path d="M43.58 13.9084V9.04324C43.58 3.01518 46.8227 0 53.3127 0C56.6129 0 59.2121 0.445842 61.1058 1.33523C61.7952 1.65237 62.2318 1.95343 62.4203 2.2407C62.6064 2.52797 62.7007 3.01518 62.7007 3.70463V23.6848C62.7007 26.6977 61.917 29.0165 60.3543 30.639C58.7892 32.2615 56.4129 33.0728 53.2277 33.0728C48.9209 33.0728 45.9494 31.6939 44.3131 28.9384C43.6513 28.0191 43.8236 27.3021 44.8302 26.785L46.4665 25.8818C46.9836 25.6244 47.3927 25.5302 47.6937 25.6015C47.9948 25.6727 48.3188 25.9393 48.6635 26.3989C49.5828 27.8628 51.0743 28.5937 53.1426 28.5937C56.1854 28.5937 57.7068 27.0447 57.7068 23.9422V21.7888C55.7534 22.3059 54.032 22.5633 52.5382 22.5633C49.5529 22.5633 47.3122 21.8256 45.8207 20.3456C44.3269 18.8679 43.5823 16.7214 43.5823 13.9084M57.3184 5.03756C56.1119 4.72271 54.8915 4.56414 53.6574 4.56414C50.2699 4.56414 48.5762 6.1131 48.5762 9.21561V13.7797C48.5762 15.1288 48.9784 16.1698 49.7827 16.9029C50.5871 17.6338 51.75 18.0015 53.2713 18.0015C54.4779 18.0015 55.9556 17.8015 57.7068 17.3993V5.55464C57.7068 5.32483 57.5781 5.15247 57.3184 5.03756Z" fill="white"/>
<path d="M75.9174 0H77.294C77.7812 0 78.1259 0.0942244 78.3281 0.280375C78.5281 0.466526 78.6292 0.818144 78.6292 1.33523V3.23121C78.6292 3.71842 78.5281 4.06314 78.3281 4.26538C78.1282 4.46532 77.7835 4.56644 77.294 4.56644H75.745C74.1363 4.56644 72.7735 4.7388 71.6543 5.08352C71.367 5.1134 71.2245 5.28346 71.2245 5.60061V21.6188C71.2245 22.1083 71.1303 22.453 70.9442 22.6529C70.758 22.8552 70.4202 22.954 69.933 22.954H67.5636C67.0764 22.954 66.7316 22.8529 66.5294 22.6529C66.3272 22.453 66.2283 22.1083 66.2283 21.6188V3.74599C66.2283 3.05655 66.3363 2.54866 66.5501 2.21772C66.7661 1.88679 67.2165 1.57883 67.906 1.29156C70.0042 0.517085 72.6747 0.0873299 75.9174 0Z" fill="white"/>
<path d="M79.1484 14.9863V8.61349C79.1484 5.91545 80.0102 3.80575 81.7339 2.28437C83.4552 0.76069 85.8935 0 89.0535 0C92.2135 0 94.6587 0.76069 96.3961 2.28207C98.1335 3.80345 98.9999 5.91316 98.9999 8.61119V14.984C98.9999 17.682 98.1312 19.794 96.3961 21.3131C94.6587 22.8345 92.2112 23.5952 89.0535 23.5952C85.8958 23.5952 83.4552 22.8345 81.7339 21.3131C80.0102 19.7917 79.1484 17.682 79.1484 14.984M94.006 14.984V8.61119C94.006 7.28975 93.5763 6.27856 92.7145 5.57533C91.8526 4.87209 90.6323 4.52047 89.0535 4.52047C87.4747 4.52047 86.2612 4.87209 85.4132 5.57533C84.5675 6.27856 84.1423 7.28975 84.1423 8.61119V14.984C84.1423 16.2755 84.5652 17.2821 85.4132 17.9992C86.2589 18.7162 87.4724 19.0747 89.0535 19.0747C90.6346 19.0747 91.8526 18.7162 92.7145 17.9992C93.5763 17.2821 94.006 16.2755 94.006 14.984Z" fill="white"/>
</svg>
