<svg width="160" height="59" viewBox="0 0 160 59" fill="none" xmlns="http://www.w3.org/2000/svg">
<g filter="url(#filter0_d_11427_10618)">
<path d="M6.57546 2.542C10.2713 1.04817 14.6048 0.297729 19.5796 0.297729C24.1562 0.297729 27.5878 1.4322 29.8779 3.69761C32.1644 5.96303 33.313 9.25369 33.313 13.5661V33.4369C33.313 34.1873 33.158 34.7158 32.8514 35.0223C32.5449 35.3324 32.0164 35.4839 31.266 35.4839H27.6336C26.8832 35.4839 26.3688 35.3288 26.0834 35.0223C25.798 34.7158 25.6536 34.1873 25.6536 33.4369V13.7669C25.6536 9.45451 23.2543 7.29832 18.4592 7.29832C16.2572 7.29832 14.1433 7.5837 12.121 8.15798C11.8144 8.29186 11.6594 8.51382 11.6594 8.81681V33.4404C11.6594 34.1909 11.515 34.7193 11.2296 35.0259C10.9442 35.3359 10.4263 35.4874 9.67939 35.4874H6.04698C5.29654 35.4874 4.76806 35.3324 4.46154 35.0259C4.15502 34.7193 4 34.1909 4 33.4404V6.3083C4 5.25134 4.16559 4.47271 4.49325 3.96185C4.82443 3.45803 5.51497 2.9824 6.57193 2.542" fill="white"/>
<path d="M38.3936 7.16431C40.7718 2.58768 45.3273 0.297607 52.0601 0.297607C61.4776 0.297607 66.1881 4.83196 66.1881 13.8971V30.9952C66.1881 32.1402 66.0225 32.9541 65.6949 33.4368C65.3637 33.9195 64.7366 34.3599 63.8135 34.758C61.1288 35.903 57.1687 36.4738 51.9297 36.4738C46.2962 36.4738 42.4453 35.593 40.3772 33.8314C38.2668 32.1156 37.2098 29.4309 37.2098 25.7774C37.2098 21.8596 38.3549 19.1079 40.6414 17.526C42.928 15.9406 46.7824 15.1479 52.194 15.1479C52.2363 15.1479 54.3502 15.2571 58.5322 15.4791V13.6294C58.5322 11.4309 58.0143 9.78909 56.982 8.711C55.9462 7.6329 54.2656 7.09385 51.9297 7.09385C48.6743 7.09385 46.3631 8.15081 44.9996 10.2612C44.5134 10.9658 44.1083 11.3745 43.7771 11.4838C43.4459 11.593 42.9068 11.5155 42.1599 11.2512L39.5211 10.1273C38.0695 9.46848 37.6925 8.47847 38.3972 7.15727M58.5322 28.6769V21.7468C57.211 21.7045 55.9462 21.6482 54.7377 21.5812C53.5258 21.5143 52.6661 21.472 52.1623 21.4509C51.6549 21.4297 51.3801 21.4192 51.3378 21.4192C49.0055 21.4192 47.3637 21.7609 46.4195 22.4409C45.4717 23.1244 44.9996 24.2131 44.9996 25.7104C44.9996 27.2078 45.4506 28.3739 46.3525 29.0751C47.2545 29.7797 48.8716 30.132 51.204 30.132C53.9309 30.132 56.1329 29.9559 57.8064 29.6035C58.2891 29.3851 58.5322 29.0751 58.5322 28.6805" fill="white"/>
<path d="M70.8105 21.62V14.1614C70.8105 4.92004 75.7818 0.297607 85.7313 0.297607C90.7906 0.297607 94.7753 0.981107 97.6784 2.34458C98.7354 2.83078 99.4048 3.29232 99.6937 3.73272C99.9791 4.17312 100.124 4.92004 100.124 5.977V36.6077C100.124 41.2266 98.9221 44.7815 96.5263 47.2688C94.127 49.7562 90.4841 50.9999 85.6009 50.9999C78.9985 50.9999 74.443 48.886 71.9344 44.6617C70.9198 43.2524 71.184 42.1532 72.7272 41.3604L75.2357 39.9758C76.0284 39.5812 76.6555 39.4368 77.1171 39.546C77.5786 39.6552 78.0754 40.0639 78.6039 40.7685C80.0131 43.0128 82.2997 44.1332 85.4706 44.1332C90.1353 44.1332 92.4676 41.7586 92.4676 37.0023V33.701C89.4729 34.4937 86.834 34.8883 84.544 34.8883C79.9673 34.8883 76.5322 33.7574 74.2457 31.4885C71.9556 29.223 70.8141 25.9324 70.8141 21.62M91.8722 8.02045C90.0225 7.53777 88.1517 7.29467 86.2598 7.29467C81.0666 7.29467 78.47 9.6693 78.47 14.4256V21.4227C78.47 23.4908 79.0865 25.0868 80.3196 26.2107C81.5528 27.3311 83.3355 27.8948 85.6679 27.8948C87.5175 27.8948 89.783 27.5883 92.4676 26.9717V8.81317C92.4676 8.46085 92.2703 8.19661 91.8722 8.02045Z" fill="white"/>
<path d="M120.385 0.297607H122.496C123.243 0.297607 123.771 0.442058 124.081 0.727437C124.388 1.01282 124.543 1.55186 124.543 2.34458V5.25122C124.543 5.99814 124.388 6.52662 124.081 6.83666C123.775 7.14317 123.246 7.2982 122.496 7.2982H120.121C117.655 7.2982 115.566 7.56243 113.85 8.09091C113.409 8.13672 113.191 8.39743 113.191 8.88363V33.4403C113.191 34.1907 113.047 34.7192 112.761 35.0257C112.476 35.3358 111.958 35.4873 111.211 35.4873H107.579C106.832 35.4873 106.303 35.3323 105.993 35.0257C105.683 34.7192 105.532 34.1907 105.532 33.4403V6.04041C105.532 4.98346 105.697 4.20483 106.025 3.69749C106.356 3.19015 107.047 2.71804 108.104 2.27764C111.32 1.09033 115.414 0.431489 120.385 0.297607Z" fill="white"/>
<path d="M125.339 23.2724V13.5025C125.339 9.36631 126.66 6.13202 129.302 3.79966C131.941 1.46378 135.679 0.297607 140.524 0.297607C145.368 0.297607 149.117 1.46378 151.78 3.79614C154.444 6.12849 155.772 9.36279 155.772 13.499V23.2688C155.772 27.4051 154.44 30.6429 151.78 32.9717C149.117 35.3041 145.364 36.4702 140.524 36.4702C135.683 36.4702 131.941 35.3041 129.302 32.9717C126.66 30.6394 125.339 27.4051 125.339 23.2688M148.116 23.2688V13.499C148.116 11.4732 147.457 9.92297 146.136 8.84488C144.815 7.76678 142.944 7.22773 140.524 7.22773C138.103 7.22773 136.243 7.76678 134.943 8.84488C133.646 9.92297 132.995 11.4732 132.995 13.499V23.2688C132.995 25.2489 133.643 26.792 134.943 27.8913C136.239 28.9905 138.1 29.5401 140.524 29.5401C142.948 29.5401 144.815 28.9905 146.136 27.8913C147.457 26.792 148.116 25.2489 148.116 23.2688Z" fill="white"/>
</g>
<defs>
<filter id="filter0_d_11427_10618" x="0" y="0.297607" width="159.772" height="58.7023" filterUnits="userSpaceOnUse" color-interpolation-filters="sRGB">
<feFlood flood-opacity="0" result="BackgroundImageFix"/>
<feColorMatrix in="SourceAlpha" type="matrix" values="0 0 0 0 0 0 0 0 0 0 0 0 0 0 0 0 0 0 127 0" result="hardAlpha"/>
<feOffset dy="4"/>
<feGaussianBlur stdDeviation="2"/>
<feComposite in2="hardAlpha" operator="out"/>
<feColorMatrix type="matrix" values="0 0 0 0 0 0 0 0 0 0 0 0 0 0 0 0 0 0 0.25 0"/>
<feBlend mode="normal" in2="BackgroundImageFix" result="effect1_dropShadow_11427_10618"/>
<feBlend mode="normal" in="SourceGraphic" in2="effect1_dropShadow_11427_10618" result="shape"/>
</filter>
</defs>
</svg>
