<svg width="298" height="297" viewBox="0 0 298 297" fill="none" xmlns="http://www.w3.org/2000/svg">
<g clip-path="url(#clip0_8844_10116)">
<path d="M297.5 227.146H0.5V227.294H297.5V227.146Z" fill="#F5F6F9"/>
<path d="M267.741 236.703H248.067V236.852H267.741V236.703Z" fill="#F5F6F9"/>
<path d="M240.589 236.703H198.528V236.852H240.589V236.703Z" fill="#F5F6F9"/>
<path d="M175.332 231.19H163.933V231.339H175.332V231.19Z" fill="#F5F6F9"/>
<path d="M52.0295 232.188H31.6613V232.337H52.0295V232.188Z" fill="#F5F6F9"/>
<path d="M94.3519 232.188H57.316V232.337H94.3519V232.188Z" fill="#F5F6F9"/>
<path d="M134.233 234.695H112.368V234.844H134.233V234.695Z" fill="#F5F6F9"/>
<path d="M141.278 200.653H26.5826C25.6841 200.652 24.8229 200.294 24.1881 199.658C23.5533 199.022 23.1968 198.16 23.1968 197.261V36.032C23.2046 35.1386 23.5646 34.2844 24.1985 33.6549C24.8325 33.0254 25.6892 32.6715 26.5826 32.6699H141.278C142.178 32.6699 143.04 33.0273 143.676 33.6633C144.312 34.2994 144.67 35.1621 144.67 36.0617V197.261C144.67 198.161 144.312 199.024 143.676 199.66C143.04 200.296 142.178 200.653 141.278 200.653ZM26.5826 32.7887C25.7234 32.7903 24.9 33.1327 24.2931 33.7407C23.6862 34.3488 23.3453 35.1728 23.3453 36.032V197.261C23.3453 198.121 23.6862 198.945 24.2931 199.553C24.9 200.161 25.7234 200.503 26.5826 200.505H141.278C142.138 200.503 142.962 200.161 143.57 199.553C144.178 198.945 144.52 198.121 144.521 197.261V36.032C144.52 35.1723 144.178 34.3483 143.57 33.7404C142.962 33.1325 142.138 32.7903 141.278 32.7887H26.5826Z" fill="#F5F6F9"/>
<path d="M269.766 200.653H155.065C154.166 200.652 153.304 200.294 152.668 199.658C152.032 199.022 151.675 198.16 151.673 197.261V36.032C151.682 35.1381 152.044 34.2839 152.679 33.6545C153.313 33.0252 154.171 32.6714 155.065 32.6699H269.766C270.658 32.673 271.514 33.0277 272.146 33.657C272.779 34.2863 273.138 35.1396 273.146 36.032V197.261C273.146 198.159 272.79 199.02 272.157 199.656C271.523 200.291 270.664 200.65 269.766 200.653ZM155.065 32.7887C154.205 32.7903 153.381 33.1325 152.773 33.7404C152.165 34.3483 151.823 35.1723 151.821 36.032V197.261C151.823 198.121 152.165 198.945 152.773 199.553C153.381 200.161 154.205 200.503 155.065 200.505H269.766C270.626 200.503 271.45 200.161 272.058 199.553C272.666 198.945 273.008 198.121 273.009 197.261V36.032C273.008 35.1723 272.666 34.3483 272.058 33.7404C271.45 33.1325 270.626 32.7903 269.766 32.7887H155.065Z" fill="#F5F6F9"/>
<path d="M45.549 114.772L126.155 114.772L126.155 44.9359L45.549 44.9359L45.549 114.772Z" fill="#E6E6E6"/>
<path d="M43.7492 114.772L124.355 114.772L124.355 44.9359L43.7492 44.9359L43.7492 114.772Z" fill="#F5F5F5"/>
<path d="M121.141 112.278V47.4307L46.9686 47.4307V112.278H121.141Z" fill="#FAFAFA"/>
<path d="M91.3939 112.278L104.836 47.4307H76.7162L63.2799 112.278H91.3939Z" fill="white"/>
<path d="M48.3229 112.284L48.3229 47.4365H46.9686L46.9686 112.284H48.3229Z" fill="#E6E6E6"/>
<path d="M45.0797 100.653L123.024 100.653V97.3032L45.0797 97.3032V100.653Z" fill="#F5F5F5"/>
<path d="M122.413 223.611H135.285V167.793H122.413V223.611Z" fill="#F5F6F9"/>
<path d="M38.3556 227.146H132.819V223.611H38.3556V227.146Z" fill="#F5F6F9"/>
<path d="M122.413 167.787H35.8787V223.605H122.413V167.787Z" fill="#F5F5F5"/>
<path d="M117.358 174.66H40.9396V192.967H117.358V174.66Z" fill="#F5F6F9"/>
<path d="M117.358 198.432H40.9396V216.739H117.358V198.432Z" fill="#F5F6F9"/>
<path d="M58.5517 185.066H99.7456C100.078 185.065 100.395 184.932 100.63 184.698C100.865 184.463 100.997 184.145 100.999 183.813C100.997 183.481 100.865 183.162 100.63 182.926C100.396 182.691 100.078 182.557 99.7456 182.554H58.5517C58.2192 182.557 57.9013 182.691 57.6668 182.926C57.4322 183.162 57.2999 183.481 57.2983 183.813C57.2999 184.145 57.4325 184.463 57.6672 184.698C57.9019 184.932 58.2198 185.065 58.5517 185.066Z" fill="#F5F5F5"/>
<path d="M58.5517 208.839H99.7456C100.078 208.837 100.395 208.705 100.63 208.47C100.865 208.235 100.997 207.917 100.999 207.585C100.999 207.252 100.867 206.933 100.632 206.697C100.397 206.461 100.079 206.328 99.7456 206.326H58.5517C58.2187 206.328 57.8999 206.461 57.6651 206.697C57.4302 206.933 57.2983 207.252 57.2983 207.585C57.2999 207.917 57.4325 208.235 57.6672 208.47C57.9019 208.705 58.2198 208.837 58.5517 208.839Z" fill="#F5F5F5"/>
<path d="M242.882 81.4369C250.212 79.4173 252.719 66.1176 234.198 60.6885C238.285 74.0654 230.105 84.9415 242.882 81.4369Z" fill="#F5F6F9"/>
<path d="M244.504 87.211C250.284 80.968 244.819 66.8427 224.005 72.6164C235.778 82.9163 234.436 98.099 244.504 87.211Z" fill="#DCE1ED"/>
<path d="M238.801 88.8144C233.966 84.0267 240.892 67.365 256.859 75.087C247.812 83.7535 247.266 97.1601 238.801 88.8144Z" fill="#FAFAFA"/>
<path d="M233.978 98.141H248.05L249.113 88.6191H232.921L233.978 98.141Z" fill="#E6E6E6"/>
<path d="M232.76 90.3235H249.274C249.553 90.3235 249.82 90.2127 250.017 90.0155C250.214 89.8183 250.325 89.5509 250.325 89.2721C250.325 88.9932 250.214 88.7258 250.017 88.5286C249.82 88.3315 249.553 88.2207 249.274 88.2207H232.76C232.482 88.2207 232.214 88.3315 232.017 88.5286C231.82 88.7258 231.709 88.9932 231.709 89.2721C231.709 89.5509 231.82 89.8183 232.017 90.0155C232.214 90.2127 232.482 90.3235 232.76 90.3235Z" fill="#E6E6E6"/>
<path d="M115.582 211.018V194.891H129.012V178.77H142.449V162.643H155.879V146.516H169.315V130.395H182.746V114.268H196.182V98.1406H209.618H283.5V227.146H115.582H102.146V211.018H115.582Z" fill="#FAFAFA"/>
<path d="M189.464 211.018V194.891H202.9V178.77H216.331V162.643H229.767V146.516H243.197V130.395H256.633V114.268H270.064V98.1406H283.5V114.268V227.146H189.464H176.034V211.018H189.464Z" fill="#DCE1ED"/>
<path d="M190.034 211.019H115.356V215.854H190.034V211.019Z" fill="#F5F6F9"/>
<path d="M203.47 194.892H128.792V199.727H203.47V194.892Z" fill="#F5F6F9"/>
<path d="M216.9 178.771H142.222V183.606H216.9V178.771Z" fill="#F5F6F9"/>
<path d="M230.336 162.643H155.659V167.478H230.336V162.643Z" fill="#F5F6F9"/>
<path d="M229.767 146.516H155.089V151.351H229.767V146.516Z" fill="#F5F6F9"/>
<path d="M243.203 130.395H168.525V135.23H243.203V130.395Z" fill="#F5F6F9"/>
<path d="M256.633 114.268H181.956V119.103H256.633V114.268Z" fill="#F5F6F9"/>
<path d="M270.07 98.1406H195.392V102.976H270.07V98.1406Z" fill="#F5F6F9"/>
<path d="M149 253.971C212.607 253.971 264.171 250.96 264.171 247.247C264.171 243.533 212.607 240.522 149 240.522C85.393 240.522 33.8293 243.533 33.8293 247.247C33.8293 250.96 85.393 253.971 149 253.971Z" fill="#F5F5F5"/>
<path d="M183.357 136.352C183.881 134.922 184.826 133.683 186.068 132.8C187.309 131.917 188.789 131.43 190.313 131.404H237.862C238.684 131.374 239.502 131.524 240.26 131.844C241.017 132.164 241.695 132.646 242.246 133.257C242.796 133.867 243.206 134.591 243.446 135.378C243.687 136.164 243.751 136.994 243.636 137.808L231.352 240.873C231.092 242.627 230.215 244.232 228.88 245.399C227.545 246.567 225.838 247.222 224.064 247.246H73.1878C72.369 247.277 71.5532 247.129 70.798 246.811C70.0428 246.493 69.3665 246.013 68.8166 245.405C68.2668 244.798 67.8568 244.077 67.6155 243.294C67.3742 242.511 67.3075 241.684 67.4201 240.873L77.7201 154.279C77.9808 152.525 78.8571 150.92 80.1924 149.752C81.5277 148.585 83.2348 147.93 85.0084 147.906H167.111C170.669 147.845 174.125 146.709 177.025 144.647C179.924 142.585 182.132 139.693 183.357 136.352Z" fill="#0065BD"/>
<path d="M70.1346 242.5H227.788L236.769 136.424H79.1219L70.1346 242.5Z" fill="#F5F6F9"/>
<path d="M70.1346 242.5H227.788L234.287 136.424H79.1219L70.1346 242.5Z" fill="#DCE1ED"/>
<path d="M70.1346 242.5H227.788L233.205 133.056H75.5579L70.1346 242.5Z" fill="#F5F6F9"/>
<path d="M70.1346 242.5H227.788L229.933 133.056H75.5579L70.1346 242.5Z" fill="#DCE1ED"/>
<path d="M70.1346 242.5H227.788L228.727 130.086H71.0791L70.1346 242.5Z" fill="#F5F6F9"/>
<path d="M70.1347 242.501H227.788L224.551 132.213H67.9191L70.1347 242.501Z" fill="#DCE1ED"/>
<path d="M70.1346 242.5H227.788L223.107 133.056H65.4598L70.1346 242.5Z" fill="#F5F6F9"/>
<path d="M70.1347 242.5H227.788L220.334 134.707H62.6859L70.1347 242.5Z" fill="#DCE1ED"/>
<path d="M70.1347 242.5H227.788L219.146 135.628H61.4979L70.1347 242.5Z" fill="#F5F6F9"/>
<path d="M149.083 143.047C149.092 142.358 149.239 141.677 149.517 141.046C149.794 140.415 150.195 139.846 150.697 139.374C151.198 138.901 151.79 138.534 152.436 138.295C153.083 138.055 153.77 137.948 154.459 137.98H202.009C203.85 138.051 205.615 138.731 207.028 139.913C208.44 141.096 209.42 142.714 209.814 144.514L228.602 240.742C229.303 244.348 226.951 247.276 223.345 247.276H72.4691C68.8576 247.276 65.3411 244.348 64.658 240.742L49.1605 161.413C48.4596 157.808 50.8119 154.879 54.4174 154.879H136.526C143.654 154.879 148.84 149.973 149.083 143.047Z" fill="#0065BD"/>
<path opacity="0.2" d="M149.083 143.047C149.092 142.358 149.239 141.677 149.517 141.046C149.794 140.415 150.195 139.846 150.697 139.374C151.198 138.901 151.79 138.534 152.436 138.295C153.083 138.055 153.77 137.948 154.459 137.98H202.009C203.85 138.051 205.615 138.731 207.028 139.913C208.44 141.096 209.42 142.714 209.814 144.514L228.602 240.742C229.303 244.348 226.951 247.276 223.345 247.276H72.4691C68.8576 247.276 65.3411 244.348 64.658 240.742L49.1605 161.413C48.4596 157.808 50.8119 154.879 54.4174 154.879H136.526C143.654 154.879 148.84 149.973 149.083 143.047Z" fill="#0065BD"/>
<path opacity="0.2" d="M175.755 182.01C165.691 185.92 154.694 186.758 144.155 184.418C133.615 182.077 124.006 176.664 116.542 168.863C109.079 161.062 104.096 151.223 102.225 140.59C100.353 129.957 101.677 119.008 106.028 109.127C110.379 99.2462 117.562 90.8774 126.669 85.0791C135.776 79.2807 146.398 76.313 157.192 76.5514C167.986 76.7898 178.467 80.2234 187.309 86.4182C196.151 92.613 202.958 101.291 206.869 111.354C209.466 118.036 210.722 125.165 210.564 132.332C210.406 139.5 208.838 146.566 205.948 153.127C203.059 159.689 198.906 165.617 193.725 170.572C188.544 175.528 182.438 179.415 175.755 182.01Z" fill="#012C49"/>
<path opacity="0.1" d="M165.877 77.4423L123.061 174.68C122.402 174.181 121.749 173.664 121.107 173.142C116.969 169.718 113.365 165.696 110.415 161.208L147.397 77.2166C153.524 76.2298 159.776 76.3061 165.877 77.4423Z" fill="white"/>
<path opacity="0.1" d="M196.313 94.3122L156.058 185.735C147.697 185.744 139.445 183.829 131.942 180.139L175.898 80.3057C183.685 83.3511 190.669 88.1429 196.313 94.3122Z" fill="white"/>
<path d="M111.045 94.3534C118.319 85.4654 128.065 78.934 139.051 75.5851C150.037 72.2361 161.769 72.2201 172.764 75.539C183.759 78.8578 193.523 85.3626 200.821 94.2306C208.119 103.099 212.624 113.932 213.765 125.36C214.907 136.788 212.634 148.298 207.233 158.434C201.833 168.571 193.549 176.878 183.427 182.306C173.306 187.734 161.802 190.039 150.371 188.929C138.94 187.819 128.094 183.344 119.206 176.07C107.289 166.315 99.7343 152.226 98.2037 136.902C96.6732 121.577 101.292 106.273 111.045 94.3534ZM197.246 164.897C203.923 156.735 208.03 146.777 209.047 136.281C210.065 125.786 207.947 115.224 202.962 105.932C197.977 96.6397 190.349 89.0343 181.042 84.0774C171.734 79.1206 161.166 77.0348 150.674 78.0839C140.181 79.133 130.236 83.2698 122.094 89.9713C113.953 96.6727 107.981 105.638 104.935 115.733C101.888 125.828 101.903 136.6 104.979 146.686C108.054 156.773 114.051 165.721 122.212 172.399C127.631 176.834 133.871 180.158 140.575 182.181C147.278 184.204 154.315 184.886 161.283 184.19C168.251 183.493 175.013 181.431 181.183 178.12C187.354 174.81 192.812 170.317 197.246 164.897Z" fill="#4C93D1"/>
<path d="M202.372 164.695C208.092 168.111 213.533 171.865 218.879 175.738C224.225 179.611 229.435 183.644 234.561 187.784C239.687 191.924 244.718 196.183 249.571 200.656C252.003 202.889 254.379 205.182 256.699 207.535C259.028 209.911 261.315 212.287 263.471 214.865C263.969 215.461 264.244 216.213 264.248 216.991C264.252 217.768 263.985 218.523 263.492 219.124C263 219.726 262.314 220.138 261.551 220.288C260.788 220.439 259.997 220.319 259.313 219.949C256.343 218.345 253.563 216.575 250.789 214.764C248.015 212.952 245.307 211.063 242.634 209.121C237.288 205.248 232.114 201.167 227.047 196.955C221.98 192.744 216.991 188.437 212.138 183.959C207.285 179.48 202.527 174.894 198.048 169.964C197.489 169.354 197.168 168.563 197.145 167.736C197.121 166.909 197.397 166.101 197.921 165.461C198.445 164.821 199.183 164.391 199.998 164.25C200.813 164.11 201.652 164.268 202.36 164.695H202.372Z" fill="#4C93D1"/>
<path d="M146.334 99.0756L146.21 109.608L146.237 110.112L149.148 136.313C149.284 137.315 149.774 138.236 150.529 138.909C151.283 139.582 152.254 139.964 153.265 139.985L157.941 140.033C158.952 140.027 159.927 139.66 160.691 138.999C161.455 138.337 161.958 137.425 162.11 136.426L165.686 110.294L165.725 109.791L165.83 99.2522C165.821 98.1555 165.388 97.1046 164.622 96.32C163.856 95.5355 162.816 95.0781 161.719 95.0437L150.543 94.8984C149.435 94.9071 148.374 95.349 147.588 96.1296C146.801 96.9102 146.351 97.9676 146.334 99.0756Z" fill="white"/>
<path d="M162.997 153.816C162.979 155.301 162.521 156.747 161.681 157.972C160.841 159.197 159.657 160.145 158.278 160.697C156.899 161.248 155.387 161.379 153.934 161.072C152.481 160.765 151.152 160.034 150.115 158.971C149.077 157.909 148.377 156.563 148.105 155.103C147.832 153.643 147.998 152.135 148.582 150.77C149.167 149.404 150.142 148.243 151.387 147.432C152.631 146.621 154.087 146.197 155.572 146.214C156.56 146.222 157.536 146.426 158.445 146.813C159.354 147.2 160.177 147.763 160.867 148.47C161.557 149.177 162.1 150.013 162.466 150.93C162.832 151.848 163.012 152.829 162.997 153.816Z" fill="white"/>
</g>
<defs>
<clipPath id="clip0_8844_10116">
<rect width="297" height="297" fill="white" transform="translate(0.5)"/>
</clipPath>
</defs>
</svg>
