<svg width="354" height="243" viewBox="0 0 354 243" fill="none" xmlns="http://www.w3.org/2000/svg">
<path opacity="0.03" d="M182.253 241.589C269.59 241.589 340.392 237.456 340.392 232.357C340.392 227.258 269.59 223.124 182.253 223.124C94.9148 223.124 24.1135 227.258 24.1135 232.357C24.1135 237.456 94.9148 241.589 182.253 241.589Z" fill="#263357"/>
<g opacity="0.45">
<path d="M354 231.8H0V231.977H354V231.8Z" fill="#F5F6F9"/>
<path d="M60.5908 238.539H37.1418V238.716H60.5908V238.539Z" fill="#F5F6F9"/>
<path d="M127.32 236.62H102.894V236.797H127.32V236.62Z" fill="#F5F6F9"/>
<path d="M93.1021 241.959H53.8647V242.136H93.1021V241.959Z" fill="#F5F6F9"/>
<path d="M317.772 242.61H287.193V242.787H317.772V242.61Z" fill="#F5F6F9"/>
<path d="M278.478 238.186H262.264V238.363H278.478V238.186Z" fill="#F5F6F9"/>
<path d="M204.832 241.023H138.506V241.2H204.832V241.023Z" fill="#F5F6F9"/>
<path d="M167.796 200.222H31.0883C30.0174 200.22 28.9909 199.794 28.2343 199.036C27.4777 198.278 27.0527 197.251 27.0527 196.18V4.00728C27.0621 2.94247 27.4911 1.92433 28.2467 1.17402C29.0023 0.423708 30.0235 0.00182408 31.0883 0H167.796C168.868 0 169.897 0.425924 170.655 1.18407C171.413 1.94222 171.839 2.97049 171.839 4.04268V196.18C171.839 197.252 171.413 198.28 170.655 199.038C169.897 199.796 168.868 200.222 167.796 200.222ZM31.0883 0.141601C30.0643 0.143476 29.0829 0.551578 28.3595 1.27633C27.636 2.00108 27.2297 2.98326 27.2297 4.00728V196.18C27.2297 197.204 27.636 198.186 28.3595 198.911C29.0829 199.635 30.0643 200.043 31.0883 200.045H167.796C168.821 200.043 169.803 199.636 170.527 198.911C171.252 198.187 171.66 197.204 171.662 196.18V4.00728C171.66 2.98261 171.252 2.00045 170.527 1.2759C169.803 0.551348 168.821 0.143472 167.796 0.141601H31.0883Z" fill="#F5F6F9"/>
<path d="M320.943 200.222H184.229C183.157 200.22 182.13 199.794 181.372 199.036C180.614 198.278 180.188 197.251 180.186 196.18V4.00728C180.197 2.94182 180.628 1.92369 181.385 1.17358C182.141 0.423461 183.163 0.00180419 184.229 0H320.943C322.007 0.00368478 323.026 0.426392 323.781 1.1765C324.535 1.92661 324.963 2.94369 324.972 4.00728V196.18C324.972 197.249 324.548 198.276 323.793 199.033C323.038 199.791 322.013 200.219 320.943 200.222ZM184.229 0.141601C183.204 0.143472 182.222 0.551348 181.497 1.2759C180.773 2.00045 180.365 2.98261 180.363 4.00728V196.18C180.365 197.204 180.773 198.187 181.497 198.911C182.222 199.636 183.204 200.043 184.229 200.045H320.943C321.968 200.043 322.95 199.636 323.675 198.911C324.399 198.187 324.807 197.204 324.809 196.18V4.00728C324.807 2.98261 324.399 2.00045 323.675 1.2759C322.95 0.551348 321.968 0.143472 320.943 0.141601H184.229Z" fill="#F5F6F9"/>
<path d="M143.54 229.604H105.209V231.799H143.54V229.604Z" fill="#DCE1ED"/>
<path d="M120.927 181.665L110.307 229.604H138.379L127.759 181.665C127.555 180.915 127.11 180.253 126.493 179.781C125.875 179.309 125.12 179.054 124.343 179.054C123.566 179.054 122.81 179.309 122.193 179.781C121.575 180.253 121.13 180.915 120.927 181.665Z" fill="#DCE1ED"/>
<path d="M129.925 191.182H118.824L116.14 203.331H132.608L129.925 191.182Z" fill="#F5F6F9"/>
<path d="M133.076 205.468H115.673L114.307 211.62H134.435L133.076 205.468Z" fill="#F5F6F9"/>
<path d="M51.344 231.8H57.0363L73.8018 138.061H68.1024L51.344 231.8Z" fill="#DCE1ED"/>
<path d="M200.47 231.8H206.17L222.935 138.061H217.236L200.47 231.8Z" fill="#DCE1ED"/>
<path d="M239.7 142.627H51.344V176.696H239.7V142.627Z" fill="#F5F6F9"/>
<path d="M71.763 175.187H52.2363L63.0687 144.127H82.5954L71.763 175.187Z" fill="#DCE1ED"/>
<path d="M110.816 175.187H91.2896L102.122 144.127H121.642L110.816 175.187Z" fill="#DCE1ED"/>
<path d="M149.87 175.187H130.343L141.168 144.127H160.695L149.87 175.187Z" fill="#DCE1ED"/>
<path d="M188.916 175.187H169.389L180.221 144.127H199.748L188.916 175.187Z" fill="#DCE1ED"/>
<path d="M227.969 175.187H208.442L219.275 144.127H238.801L227.969 175.187Z" fill="#DCE1ED"/>
<path d="M90.5674 231.8H84.868L68.1025 138.061H73.8019L90.5674 231.8Z" fill="#DCE1ED"/>
<path d="M239.693 231.8H234.001L217.236 138.061H222.935L239.693 231.8Z" fill="#DCE1ED"/>
<path d="M316.476 228.918H266.208V231.8H316.476V228.918Z" fill="#DCE1ED"/>
<path d="M286.492 167.548L272.934 228.918H309.75L296.192 167.548C295.045 162.359 287.639 162.359 286.492 167.548Z" fill="#DCE1ED"/>
<path d="M298.62 178.536H284.064L280.545 194.466H302.139L298.62 178.536Z" fill="#F5F6F9"/>
<path d="M302.755 197.27H279.929L278.145 205.334H304.539L302.755 197.27Z" fill="#F5F6F9"/>
<path d="M327.804 132.324V153.069C327.803 153.391 327.727 153.71 327.58 153.997C327.434 154.285 327.222 154.535 326.962 154.726C326.701 154.916 326.399 155.043 326.081 155.096C325.762 155.149 325.436 155.126 325.128 155.03L25.6438 60.1224C25.2317 59.9878 24.8728 59.7263 24.6184 59.3753C24.3641 59.0243 24.2273 58.6018 24.2278 58.1683V37.4168C24.2266 37.0935 24.3021 36.7745 24.448 36.4859C24.594 36.1974 24.8062 35.9476 25.0673 35.7569C25.3284 35.5662 25.631 35.4402 25.9503 35.389C26.2696 35.3379 26.5964 35.3632 26.904 35.4627L326.388 130.335C326.806 130.471 327.169 130.738 327.424 131.096C327.679 131.454 327.812 131.885 327.804 132.324Z" fill="#F5F6F9"/>
<path d="M304.235 146.825L320.724 152.05L311.577 127.263L295.094 122.038L304.235 146.825Z" fill="#DCE1ED"/>
<path d="M271.263 136.375L287.752 141.6L278.605 116.813L262.123 111.588L271.263 136.375Z" fill="#DCE1ED"/>
<path d="M238.291 125.932L254.781 131.15L245.633 106.363L229.144 101.138L238.291 125.932Z" fill="#DCE1ED"/>
<path d="M205.32 115.475L221.81 120.707L212.662 95.9125L196.173 90.6875L205.32 115.475Z" fill="#DCE1ED"/>
<path d="M172.349 105.031L188.831 110.256L179.69 85.4623L163.201 80.2373L172.349 105.031Z" fill="#DCE1ED"/>
<path d="M139.377 94.5822L155.859 99.8073L146.719 75.0131L130.229 69.7881L139.377 94.5822Z" fill="#DCE1ED"/>
<path d="M106.398 84.1311L122.888 89.3561L113.74 64.562L97.2581 59.3369L106.398 84.1311Z" fill="#DCE1ED"/>
<path d="M73.4267 73.6809L89.916 78.9059L80.7686 54.1118L64.2864 48.8867L73.4267 73.6809Z" fill="#DCE1ED"/>
<path d="M40.455 63.2307L56.9443 68.4557L47.7969 43.6616L31.3147 38.4365L40.455 63.2307Z" fill="#DCE1ED"/>
</g>
<path d="M197.918 234.746H202.566V6.73094C202.566 5.50375 197.918 5.50375 197.918 6.73094V234.746Z" fill="#012C49"/>
<path d="M135.184 235.803H113.831L129.352 112.499H150.713L135.184 235.803Z" fill="#0065BD"/>
<path opacity="0.4" d="M135.184 235.803H113.831L129.352 112.499H150.713L135.184 235.803Z" fill="#263357"/>
<path opacity="0.4" fill-rule="evenodd" clip-rule="evenodd" d="M134.464 234.988L149.788 113.315H130.072L114.756 234.988H134.464ZM135.184 235.803L150.713 112.499H129.352L113.831 235.803H135.184Z" fill="#263357"/>
<path d="M111.922 235.803H113.83L129.351 112.499H127.443L111.922 235.803Z" fill="#012C49"/>
<path d="M214.828 235.803H193.475L208.996 112.499H230.357L214.828 235.803Z" fill="#0065BD"/>
<path opacity="0.4" d="M214.828 235.803H193.475L208.996 112.499H230.357L214.828 235.803Z" fill="#263357"/>
<path opacity="0.4" fill-rule="evenodd" clip-rule="evenodd" d="M214.108 234.988L229.432 113.315H209.715L194.4 234.988H214.108ZM214.828 235.803L230.357 112.499H208.996L193.475 235.803H214.828Z" fill="#263357"/>
<path d="M191.558 235.803H193.474L208.995 112.499H207.087L191.558 235.803Z" fill="#012C49"/>
<path d="M154.954 221.131H232.405L229.028 194.289H151.577L154.954 221.131Z" fill="#0065BD"/>
<path fill-rule="evenodd" clip-rule="evenodd" d="M232.405 221.131L229.028 194.289H151.577L154.954 221.131H232.405ZM152.502 195.105L155.673 220.315H231.48L228.308 195.105H152.502Z" fill="#263357"/>
<path d="M154.954 221.131H153.69L150.305 194.289H151.577L154.954 221.131Z" fill="#012C49"/>
<path d="M228.138 195.463L231.221 219.956H226.645L214.354 195.463H228.138Z" fill="#F5F6F9"/>
<path d="M206.549 195.463L218.84 219.956H202.039L189.747 195.463H206.549Z" fill="#F5F6F9"/>
<path d="M181.942 195.463L194.233 219.956H177.423L165.14 195.463H181.942Z" fill="#F5F6F9"/>
<path d="M157.343 195.463L169.626 219.956H155.843L152.76 195.463H157.343Z" fill="#F5F6F9"/>
<path d="M224.991 235.803H246.352L230.823 112.499H209.47L224.991 235.803Z" fill="#0065BD"/>
<path fill-rule="evenodd" clip-rule="evenodd" d="M246.352 235.803L230.823 112.499H209.47L224.991 235.803H246.352ZM210.395 113.315L225.71 234.988H245.427L230.103 113.315H210.395Z" fill="#263357"/>
<path opacity="0.2" d="M216.386 167.431L238.856 176.264L232.404 125.06H211.043L216.386 167.431Z" fill="#263357"/>
<path d="M224.99 235.803H223.082L207.561 112.499H209.469L224.99 235.803Z" fill="#012C49"/>
<path d="M145.346 235.803H166.707L151.186 112.499H129.825L145.346 235.803Z" fill="#0065BD"/>
<path fill-rule="evenodd" clip-rule="evenodd" d="M166.707 235.803L151.186 112.499H129.825L145.346 235.803H166.707ZM130.749 113.315L146.065 234.988H165.782L150.466 113.315H130.749Z" fill="#263357"/>
<path opacity="0.2" d="M136.74 167.431L159.21 176.264L152.759 125.06H131.406L136.74 167.431Z" fill="#263357"/>
<path d="M145.345 235.803H143.437L127.916 112.499H129.824L145.345 235.803Z" fill="#012C49"/>
<path d="M128.21 161.746H244.834L239.745 121.332H123.121L128.21 161.746Z" fill="#0065BD"/>
<path fill-rule="evenodd" clip-rule="evenodd" d="M244.834 161.746L239.745 121.332H123.121L128.21 161.746H244.834ZM124.045 122.148L128.929 160.93H243.91L239.026 122.148H124.045Z" fill="#263357"/>
<path d="M128.209 161.746H126.301L121.211 121.332H123.12L128.209 161.746Z" fill="#012C49"/>
<path d="M238.406 123.093L243.055 159.975H236.163L217.657 123.093H238.406Z" fill="#F5F6F9"/>
<path d="M205.905 123.093L224.411 159.975H199.102L180.604 123.093H205.905Z" fill="#F5F6F9"/>
<path d="M168.852 123.093L187.358 159.975H162.049L143.543 123.093H168.852Z" fill="#F5F6F9"/>
<path d="M131.805 123.093L150.303 159.975H129.546L124.905 123.093H131.805Z" fill="#F5F6F9"/>
<path d="M197.124 16.2949L165.566 69.5831C165.22 70.1661 165.033 70.8301 165.026 71.508C165.018 72.186 165.189 72.8541 165.521 73.445C165.854 74.0358 166.336 74.5286 166.92 74.8737C167.503 75.2188 168.168 75.404 168.846 75.4106L230.774 76.0902C231.451 76.0997 232.119 75.9304 232.71 75.5993C233.3 75.2682 233.793 74.7871 234.139 74.2045C234.484 73.6219 234.67 72.9584 234.677 72.2811C234.684 71.6039 234.512 70.9367 234.179 70.347L203.812 16.3711C203.48 15.7793 202.999 15.2854 202.415 14.9392C201.832 14.5929 201.168 14.4065 200.49 14.3987C199.812 14.391 199.143 14.5622 198.552 14.8951C197.961 15.228 197.469 15.7108 197.124 16.2949Z" fill="#0065BD"/>
<path d="M174.156 67.0236L199.016 25.0521C199.159 24.8189 199.359 24.6267 199.599 24.4944C199.838 24.3621 200.107 24.2943 200.381 24.2975C200.654 24.3007 200.922 24.3749 201.158 24.5128C201.394 24.6507 201.59 24.8476 201.727 25.0842L225.644 67.588C225.78 67.8286 225.849 68.1007 225.846 68.3769C225.843 68.6531 225.767 68.9236 225.626 69.161C225.485 69.3984 225.283 69.5943 225.042 69.729C224.801 69.8636 224.529 69.9322 224.252 69.9278L175.495 69.3657C175.223 69.3612 174.957 69.286 174.723 69.1474C174.488 69.0089 174.294 68.8119 174.159 68.5756C174.024 68.3394 173.953 68.0721 173.952 67.8C173.952 67.5279 174.022 67.2603 174.156 67.0236Z" fill="#F5F6F9"/>
<path fill-rule="evenodd" clip-rule="evenodd" d="M225.644 67.588L201.727 25.0842C201.59 24.8476 201.394 24.6507 201.158 24.5128C200.922 24.3749 200.654 24.3007 200.381 24.2975C200.107 24.2943 199.838 24.3621 199.599 24.4944C199.359 24.6267 199.159 24.8189 199.016 25.0521L174.156 67.0236C174.022 67.2603 173.952 67.5279 173.952 67.8C173.953 68.0721 174.024 68.3394 174.159 68.5756C174.294 68.8119 174.488 69.0089 174.723 69.1474C174.957 69.286 175.223 69.3612 175.495 69.3657L224.252 69.9278C224.529 69.9322 224.801 69.8636 225.042 69.729C225.283 69.5943 225.485 69.3984 225.626 69.161C225.767 68.9236 225.843 68.6531 225.846 68.3769C225.849 68.1007 225.78 67.8286 225.644 67.588ZM175.509 68.5513C175.508 68.5513 175.509 68.5513 175.509 68.5513L224.265 69.1133C224.398 69.1155 224.529 69.0825 224.645 69.0177C224.761 68.953 224.858 68.8588 224.926 68.7447C224.994 68.6305 225.03 68.5004 225.032 68.3676C225.033 68.2348 225 68.104 224.934 67.9883L201.02 25.4888C200.954 25.376 200.86 25.2821 200.747 25.2161C200.633 25.1494 200.503 25.1136 200.371 25.112C200.239 25.1104 200.108 25.1433 199.993 25.2072C199.878 25.2705 199.782 25.362 199.713 25.473L174.862 67.4307C174.799 67.5432 174.767 67.6697 174.767 67.7984C174.767 67.9293 174.801 68.0578 174.866 68.1714C174.931 68.2849 175.025 68.3797 175.137 68.4463C175.249 68.5127 175.378 68.5489 175.509 68.5513Z" fill="#263357"/>
<path d="M196.276 39.2209L196.226 43.4772L196.237 43.6807L197.414 54.2689C197.468 54.6739 197.666 55.046 197.971 55.318C198.276 55.5901 198.668 55.7442 199.077 55.7527L200.967 55.7723C201.375 55.7698 201.769 55.6215 202.078 55.3543C202.387 55.087 202.59 54.7183 202.651 54.3145L204.096 43.7545L204.112 43.5513L204.155 39.2923C204.151 38.8491 203.976 38.4244 203.667 38.1074C203.357 37.7903 202.937 37.6055 202.494 37.5916L197.977 37.5328C197.529 37.5364 197.101 37.715 196.783 38.0304C196.465 38.3459 196.283 38.7732 196.276 39.2209Z" fill="#263357"/>
<path d="M203.01 61.3423C203.003 61.9424 202.817 62.5269 202.478 63.0218C202.138 63.5167 201.66 63.8998 201.103 64.1228C200.546 64.3458 199.935 64.3985 199.348 64.2744C198.76 64.1503 198.223 63.855 197.804 63.4256C197.385 62.9963 197.102 62.4522 196.992 61.8623C196.882 61.2723 196.949 60.663 197.185 60.1112C197.421 59.5594 197.815 59.09 198.318 58.7624C198.821 58.4347 199.409 58.2634 200.009 58.2702C200.409 58.2736 200.803 58.3558 201.17 58.5123C201.537 58.6688 201.87 58.8964 202.149 59.1819C202.428 59.4674 202.647 59.8053 202.795 60.1761C202.943 60.5469 203.016 60.9432 203.01 61.3423Z" fill="#263357"/>
</svg>
