<svg width="326" height="242" viewBox="0 0 326 242" fill="none" xmlns="http://www.w3.org/2000/svg">
<path d="M325.5 213.26H0.5V213.422H325.5V213.26Z" fill="#F5F6F9"/>
<path d="M107.484 223.283H85.9556V223.446H107.484V223.283Z" fill="#F5F6F9"/>
<path d="M168.746 221.521H163.097V221.684H168.746V221.521Z" fill="#F5F6F9"/>
<path d="M47.0726 218.778H34.5991V218.941H47.0726V218.778Z" fill="#F5F6F9"/>
<path d="M270.757 217.687H253.805V217.849H270.757V217.687Z" fill="#F5F6F9"/>
<path d="M248.014 217.687H232.778V217.849H248.014V217.687Z" fill="#F5F6F9"/>
<path d="M292.942 225.486H232.05V225.649H292.942V225.486Z" fill="#F5F6F9"/>
<path d="M154.55 184.27H29.0414C28.0582 184.268 27.1158 183.877 26.4212 183.181C25.7266 182.485 25.3364 181.542 25.3364 180.559V4.12919C25.345 3.15161 25.7389 2.21688 26.4326 1.52804C27.1263 0.839193 28.0638 0.45187 29.0414 0.450195H154.55C155.534 0.450195 156.478 0.841227 157.174 1.53727C157.87 2.23331 158.261 3.17734 158.261 4.16169V180.559C158.261 181.543 157.87 182.487 157.174 183.183C156.478 183.879 155.534 184.27 154.55 184.27ZM29.0414 0.580196C28.1013 0.581918 27.2003 0.956588 26.5361 1.62197C25.8719 2.28735 25.4989 3.18907 25.4989 4.12919V180.559C25.4989 181.499 25.8719 182.401 26.5361 183.066C27.2003 183.731 28.1013 184.106 29.0414 184.108H154.55C155.491 184.106 156.392 183.731 157.058 183.066C157.723 182.401 158.097 181.499 158.099 180.559V4.12919C158.097 3.18847 157.723 2.28677 157.058 1.62157C156.392 0.956376 155.491 0.581914 154.55 0.580196H29.0414Z" fill="#F5F6F9"/>
<path d="M295.152 184.27H169.637C168.653 184.268 167.71 183.877 167.014 183.181C166.318 182.486 165.927 181.542 165.925 180.559V4.12919C165.935 3.15102 166.331 2.2163 167.025 1.52763C167.72 0.838966 168.658 0.451852 169.637 0.450195H295.152C296.128 0.453578 297.064 0.841657 297.756 1.53032C298.448 2.21898 298.842 3.15273 298.85 4.12919V180.559C298.85 181.541 298.461 182.483 297.768 183.179C297.074 183.874 296.134 184.267 295.152 184.27ZM169.637 0.580196C168.696 0.581914 167.794 0.956376 167.129 1.62157C166.464 2.28677 166.089 3.18847 166.088 4.12919V180.559C166.089 181.499 166.464 182.401 167.129 183.066C167.794 183.731 168.696 184.106 169.637 184.108H295.152C296.092 184.106 296.994 183.731 297.659 183.066C298.324 182.401 298.699 181.499 298.701 180.559V4.12919C298.699 3.18847 298.324 2.28677 297.659 1.62157C296.994 0.956376 296.092 0.581914 295.152 0.580196H169.637Z" fill="#F5F6F9"/>
<path d="M248.579 130.184L215.078 188.203C214.441 189.307 214.107 190.559 214.107 191.833C214.108 193.108 214.444 194.359 215.081 195.463C215.719 196.566 216.636 197.482 217.74 198.119C218.844 198.756 220.096 199.091 221.37 199.09H288.366C289.639 199.09 290.891 198.754 291.993 198.117C293.096 197.479 294.012 196.563 294.649 195.46C295.286 194.357 295.622 193.106 295.622 191.832C295.622 190.558 295.287 189.306 294.651 188.203L261.15 130.184C260.512 129.081 259.596 128.166 258.493 127.529C257.39 126.893 256.138 126.558 254.865 126.558C253.591 126.558 252.34 126.893 251.236 127.529C250.133 128.166 249.217 129.081 248.579 130.184Z" fill="#F5F6F9"/>
<path d="M253.123 146.759H256.6C257.133 146.759 257.661 146.864 258.154 147.068C258.646 147.272 259.094 147.572 259.47 147.949C259.847 148.326 260.146 148.774 260.349 149.267C260.553 149.76 260.657 150.288 260.656 150.821V155.417C260.658 155.586 260.647 155.756 260.624 155.924L258.862 170.016C258.74 170.998 258.263 171.902 257.52 172.557C256.778 173.212 255.822 173.573 254.832 173.571C253.841 173.572 252.884 173.211 252.142 172.554C251.399 171.898 250.923 170.993 250.802 170.009L249.08 155.917C249.07 155.753 249.07 155.588 249.08 155.423V150.821C249.078 149.747 249.503 148.715 250.261 147.954C251.019 147.192 252.048 146.762 253.123 146.759ZM253.526 178.329H256.236C256.769 178.328 257.297 178.433 257.79 178.636C258.283 178.84 258.731 179.138 259.108 179.515C259.486 179.892 259.785 180.339 259.989 180.832C260.193 181.324 260.299 181.852 260.299 182.385V183.848C260.299 184.381 260.193 184.909 259.989 185.401C259.785 185.894 259.486 186.341 259.108 186.718C258.731 187.095 258.283 187.393 257.79 187.597C257.297 187.8 256.769 187.905 256.236 187.904H253.526C252.992 187.905 252.464 187.8 251.971 187.597C251.479 187.393 251.031 187.095 250.653 186.718C250.276 186.341 249.977 185.894 249.772 185.401C249.568 184.909 249.463 184.381 249.463 183.848V182.385C249.463 181.852 249.568 181.324 249.772 180.832C249.977 180.339 250.276 179.892 250.653 179.515C251.031 179.138 251.479 178.84 251.971 178.636C252.464 178.433 252.992 178.328 253.526 178.329Z" fill="white"/>
<path d="M118.742 130.541H42.8151C40.4063 130.541 38.4536 132.494 38.4536 134.903V140.753C38.4536 143.161 40.4063 145.114 42.8151 145.114H118.742C121.15 145.114 123.103 143.161 123.103 140.753V134.903C123.103 132.494 121.15 130.541 118.742 130.541Z" fill="#F5F6F9"/>
<path d="M118.742 151.36H42.8151C40.4063 151.36 38.4536 153.313 38.4536 155.722V161.572C38.4536 163.981 40.4063 165.933 42.8151 165.933H118.742C121.15 165.933 123.103 163.981 123.103 161.572V155.722C123.103 153.313 121.15 151.36 118.742 151.36Z" fill="#F5F6F9"/>
<path d="M80.775 141.761C82.9469 141.761 84.7075 140 84.7075 137.828C84.7075 135.656 82.9469 133.896 80.775 133.896C78.6032 133.896 76.8425 135.656 76.8425 137.828C76.8425 140 78.6032 141.761 80.775 141.761Z" fill="white"/>
<path d="M94.6525 141.761C96.8243 141.761 98.585 140 98.585 137.828C98.585 135.656 96.8243 133.896 94.6525 133.896C92.4806 133.896 90.72 135.656 90.72 137.828C90.72 140 92.4806 141.761 94.6525 141.761Z" fill="white"/>
<path d="M108.53 141.761C110.702 141.761 112.462 140 112.462 137.828C112.462 135.656 110.702 133.896 108.53 133.896C106.358 133.896 104.597 135.656 104.597 137.828C104.597 140 106.358 141.761 108.53 141.761Z" fill="white"/>
<path d="M70.8299 137.828C70.8235 138.598 70.5893 139.349 70.1569 139.986C69.7245 140.623 69.1132 141.118 68.4 141.408C67.6868 141.698 66.9037 141.771 66.1493 141.617C65.3949 141.462 64.7031 141.088 64.1609 140.542C63.6187 139.995 63.2505 139.3 63.1026 138.544C62.9548 137.789 63.0339 137.006 63.33 136.296C63.6261 135.585 64.126 134.978 64.7666 134.551C65.4072 134.123 66.1599 133.896 66.9299 133.896C67.9672 133.904 68.9591 134.322 69.6896 135.059C70.4201 135.795 70.8299 136.791 70.8299 137.828Z" fill="white"/>
<path d="M56.9525 137.828C56.946 138.598 56.7119 139.349 56.2794 139.986C55.847 140.623 55.2357 141.118 54.5225 141.408C53.8094 141.698 53.0262 141.771 52.2719 141.617C51.5175 141.462 50.8256 141.088 50.2835 140.542C49.7413 139.995 49.3731 139.3 49.2252 138.544C49.0773 137.789 49.1564 137.006 49.4525 136.296C49.7487 135.585 50.2485 134.978 50.8891 134.551C51.5298 134.123 52.2825 133.896 53.0525 133.896C53.5674 133.895 54.0772 133.997 54.5525 134.195C55.0278 134.393 55.4592 134.684 55.8217 135.049C56.1843 135.415 56.4709 135.849 56.665 136.326C56.859 136.802 56.9567 137.313 56.9525 137.828Z" fill="white"/>
<path d="M84.7074 158.64C84.7138 159.419 84.4887 160.183 84.0605 160.834C83.6323 161.485 83.0204 161.994 82.3025 162.296C81.5845 162.599 80.7928 162.682 80.0278 162.534C79.2629 162.386 78.5591 162.014 78.0059 161.465C77.4527 160.916 77.0749 160.216 76.9205 159.452C76.7661 158.688 76.8421 157.896 77.1387 157.175C77.4354 156.455 77.9394 155.839 78.5868 155.405C79.2342 154.972 79.9957 154.74 80.7749 154.74C81.8123 154.74 82.8076 155.15 83.5442 155.881C84.2807 156.611 84.6988 157.603 84.7074 158.64Z" fill="white"/>
<path d="M98.5851 158.64C98.5915 159.419 98.3664 160.183 97.9382 160.834C97.51 161.485 96.8981 161.994 96.1801 162.296C95.4622 162.599 94.6705 162.682 93.9055 162.534C93.1405 162.386 92.4368 162.014 91.8836 161.465C91.3304 160.916 90.9526 160.216 90.7982 159.452C90.6438 158.688 90.7198 157.896 91.0164 157.175C91.3131 156.455 91.8171 155.839 92.4645 155.405C93.1118 154.972 93.8734 154.74 94.6526 154.74C95.6899 154.74 96.6853 155.15 97.4219 155.881C98.1584 156.611 98.5765 157.603 98.5851 158.64Z" fill="white"/>
<path d="M112.463 158.64C112.469 159.419 112.244 160.183 111.816 160.834C111.387 161.485 110.776 161.994 110.058 162.296C109.34 162.599 108.548 162.682 107.783 162.534C107.018 162.386 106.314 162.014 105.761 161.465C105.208 160.916 104.83 160.216 104.676 159.452C104.521 158.688 104.597 157.896 104.894 157.175C105.191 156.455 105.695 155.839 106.342 155.405C106.989 154.972 107.751 154.74 108.53 154.74C109.567 154.74 110.563 155.15 111.299 155.881C112.036 156.611 112.454 157.603 112.463 158.64Z" fill="white"/>
<path d="M70.83 158.64C70.8364 159.421 70.6104 160.186 70.1808 160.837C69.7511 161.489 69.1373 161.998 68.4174 162.3C67.6976 162.601 66.9042 162.682 66.1383 162.531C65.3725 162.381 64.6688 162.005 64.1169 161.453C63.565 160.902 63.1898 160.198 63.0391 159.432C62.8884 158.666 62.969 157.873 63.2707 157.153C63.5723 156.433 64.0814 155.819 64.733 155.39C65.3847 154.96 66.1495 154.734 66.93 154.74C67.9617 154.749 68.9487 155.162 69.6783 155.892C70.4078 156.622 70.8215 157.609 70.83 158.64Z" fill="white"/>
<path d="M56.9526 158.64C56.9526 159.412 56.7239 160.166 56.2953 160.807C55.8668 161.448 55.2577 161.948 54.5451 162.243C53.8324 162.539 53.0483 162.616 52.2917 162.465C51.5352 162.315 50.8403 161.943 50.2949 161.398C49.7495 160.853 49.378 160.158 49.2275 159.401C49.077 158.645 49.1543 157.86 49.4495 157.148C49.7446 156.435 50.2445 155.826 50.8859 155.398C51.5272 154.969 52.2812 154.74 53.0526 154.74C54.0869 154.74 55.0789 155.151 55.8103 155.883C56.5417 156.614 56.9526 157.606 56.9526 158.64Z" fill="white"/>
<path d="M270.286 12.7157C269.332 12.7157 268.381 12.8093 267.446 12.9952C265.511 10.2624 262.859 8.11808 259.781 6.79971C256.704 5.48133 253.321 5.04032 250.009 5.52548C246.696 6.01064 243.582 7.40306 241.012 9.54858C238.442 11.6941 236.515 14.509 235.446 17.6817C234.895 17.6032 234.339 17.5641 233.782 17.5647C230.593 17.5647 227.534 18.8316 225.279 21.0868C223.024 23.3419 221.757 26.4005 221.757 29.5897C221.757 32.779 223.024 35.8376 225.279 38.0927C227.534 40.3478 230.593 41.6147 233.782 41.6147H270.286C274.118 41.6147 277.794 40.0924 280.503 37.3826C283.213 34.6728 284.736 30.9975 284.736 27.1652C284.736 23.333 283.213 19.6577 280.503 16.9479C277.794 14.2381 274.118 12.7157 270.286 12.7157Z" fill="#F5F6F9"/>
<path d="M268.745 55.7325C269.276 55.7337 269.805 55.7882 270.325 55.895C271.4 54.3697 272.877 53.1722 274.592 52.4352C276.306 51.6982 278.191 51.4507 280.038 51.72C281.885 51.9893 283.621 52.7649 285.053 53.9608C286.486 55.1567 287.559 56.7261 288.154 58.495C288.463 58.4535 288.773 58.4318 289.084 58.43C290.861 58.43 292.566 59.136 293.823 60.3928C295.079 61.6496 295.785 63.3541 295.785 65.1315C295.785 66.9088 295.079 68.6134 293.823 69.8702C292.566 71.1269 290.861 71.833 289.084 71.833H268.745C266.609 71.833 264.561 70.9845 263.051 69.4742C261.54 67.9638 260.692 65.9154 260.692 63.7795C260.692 61.6436 261.54 59.5951 263.051 58.0848C264.561 56.5745 266.609 55.726 268.745 55.726V55.7325Z" fill="#F5F6F9"/>
<path d="M68.4506 13.3002C68.9264 13.301 69.4011 13.3489 69.8676 13.4432C70.8325 12.0792 72.156 11.0089 73.6916 10.3506C75.2273 9.69232 76.9151 9.47175 78.5683 9.7133C80.2215 9.95486 81.7756 10.6491 83.0587 11.7193C84.3417 12.7894 85.3037 14.1937 85.8381 15.7767C86.1115 15.7373 86.3873 15.7178 86.6636 15.7182C88.2214 15.7694 89.6983 16.4243 90.7822 17.5445C91.866 18.6646 92.472 20.1622 92.472 21.7209C92.472 23.2796 91.866 24.7772 90.7822 25.8974C89.6983 27.0175 88.2214 27.6724 86.6636 27.7237H68.4636C66.5884 27.6674 64.8088 26.8829 63.5023 25.5365C62.1958 24.1902 61.4651 22.3879 61.4651 20.5119C61.4651 18.6359 62.1958 16.8336 63.5023 15.4873C64.8088 14.1409 66.5884 13.3565 68.4636 13.3002H68.4506Z" fill="#F5F6F9"/>
<path d="M165.925 241.551C214.927 241.551 254.65 238.204 254.65 234.076C254.65 229.947 214.927 226.601 165.925 226.601C116.924 226.601 77.2002 229.947 77.2002 234.076C77.2002 238.204 116.924 241.551 165.925 241.551Z" fill="black" fill-opacity="0.08"/>
<path d="M129.207 12.2086H226.889C228.299 12.1938 229.697 12.4722 230.995 13.0262C232.292 13.5802 233.46 14.3976 234.425 15.4266C235.39 16.4557 236.131 17.674 236.6 19.0043C237.07 20.3346 237.257 21.7478 237.152 23.1546L224.724 222.1C224.499 225.046 223.182 227.801 221.031 229.826C218.88 231.851 216.05 233 213.096 233.046H115.407C113.997 233.06 112.599 232.781 111.303 232.226C110.006 231.672 108.839 230.855 107.875 229.826C106.911 228.797 106.17 227.579 105.701 226.249C105.232 224.919 105.045 223.506 105.15 222.1L117.578 23.2001C117.789 20.2451 119.101 17.4768 121.254 15.4418C123.407 13.4068 126.244 12.2531 129.207 12.2086Z" fill="#263238"/>
<path d="M150.793 9.93359H127.523V10.5836H150.793V9.93359Z" fill="#0065BD"/>
<path d="M118.111 14.6009L117.649 14.1394C118.996 12.7779 120.6 11.6975 122.368 10.9609L122.615 11.5654C120.926 12.2653 119.394 13.2976 118.111 14.6009Z" fill="#0065BD"/>
<path d="M127.523 12.2085H225.211C226.622 12.1947 228.019 12.4738 229.316 13.0281C230.612 13.5825 231.78 14.4 232.744 15.429C233.708 16.458 234.448 17.6759 234.917 19.0058C235.386 20.3356 235.574 21.7483 235.468 23.1545L223.04 222.1C222.816 225.046 221.498 227.801 219.347 229.826C217.196 231.851 214.366 232.999 211.412 233.046H113.723C112.313 233.06 110.916 232.781 109.619 232.226C108.323 231.672 107.155 230.854 106.191 229.826C105.227 228.797 104.487 227.579 104.018 226.249C103.549 224.919 103.361 223.506 103.466 222.1L115.894 23.2C116.109 20.2461 117.421 17.4795 119.573 15.4451C121.726 13.4107 124.562 12.256 127.523 12.2085Z" fill="#0065BD"/>
<path d="M114.276 224.239C113.163 224.252 112.06 224.033 111.036 223.596C110.013 223.159 109.091 222.514 108.331 221.701C107.571 220.888 106.988 219.926 106.621 218.876C106.253 217.825 106.109 216.709 106.197 215.6L118.222 23.1285C118.401 20.8131 119.439 18.6482 121.132 17.0586C122.826 15.4689 125.051 14.5691 127.374 14.5355H225.062C226.172 14.5251 227.272 14.7454 228.292 15.1822C229.312 15.619 230.23 16.263 230.988 17.0732C231.747 17.8835 232.329 18.8424 232.697 19.8892C233.065 20.936 233.212 22.0479 233.129 23.1545L221.117 215.6C220.943 217.919 219.907 220.09 218.213 221.684C216.52 223.278 214.29 224.18 211.965 224.213L114.276 224.239Z" fill="white"/>
<g opacity="0.1">
<path d="M232.173 39.0011H161.115C161.07 39.0006 161.025 38.9912 160.984 38.9733C160.943 38.9555 160.905 38.9295 160.874 38.8971L151.54 28.9391H117.883C117.797 28.9391 117.714 28.9048 117.654 28.8439C117.593 28.7829 117.558 28.7003 117.558 28.6141C117.558 28.5279 117.593 28.4452 117.654 28.3843C117.714 28.3233 117.797 28.2891 117.883 28.2891H151.683C151.728 28.2895 151.773 28.299 151.814 28.3168C151.855 28.3347 151.893 28.3606 151.924 28.3931L161.251 38.3511H232.173C232.259 38.3511 232.342 38.3853 232.403 38.4462C232.464 38.5072 232.498 38.5899 232.498 38.6761C232.496 38.7617 232.461 38.8434 232.401 38.904C232.34 38.9646 232.259 38.9994 232.173 39.0011Z" fill="#0065BD"/>
<path d="M232.576 32.5016H161.518C161.432 32.5016 161.349 32.4673 161.288 32.4064C161.227 32.3454 161.193 32.2628 161.193 32.1766C161.193 32.0904 161.227 32.0077 161.288 31.9468C161.349 31.8858 161.432 31.8516 161.518 31.8516H232.576C232.662 31.8516 232.745 31.8858 232.806 31.9468C232.867 32.0077 232.901 32.0904 232.901 32.1766C232.901 32.2628 232.867 32.3454 232.806 32.4064C232.745 32.4673 232.662 32.5016 232.576 32.5016Z" fill="#0065BD"/>
<path d="M232.985 26.0014H161.927C161.882 26.0009 161.838 25.9915 161.797 25.9736C161.755 25.9558 161.718 25.9299 161.687 25.8974L155.596 19.3974C155.537 19.3345 155.505 19.2505 155.507 19.1639C155.51 19.0774 155.546 18.9954 155.609 18.9359C155.672 18.8764 155.756 18.8444 155.843 18.8468C155.929 18.8492 156.011 18.886 156.071 18.9489L162.064 25.3514H232.985C233.071 25.3514 233.154 25.3856 233.215 25.4466C233.276 25.5075 233.31 25.5902 233.31 25.6764C233.309 25.7621 233.274 25.8438 233.213 25.9044C233.153 25.9649 233.071 25.9997 232.985 26.0014Z" fill="#0065BD"/>
<path d="M233.388 19.5016H118.475C118.389 19.5016 118.306 19.4673 118.245 19.4064C118.184 19.3454 118.15 19.2628 118.15 19.1766C118.15 19.0904 118.184 19.0077 118.245 18.9468C118.306 18.8858 118.389 18.8516 118.475 18.8516H233.388C233.475 18.8516 233.557 18.8858 233.618 18.9468C233.679 19.0077 233.713 19.0904 233.713 19.1766C233.713 19.2628 233.679 19.3454 233.618 19.4064C233.557 19.4673 233.475 19.5016 233.388 19.5016Z" fill="#0065BD"/>
<path d="M231.763 45.5011H160.705C160.661 45.5013 160.618 45.4921 160.577 45.4742C160.537 45.4562 160.501 45.43 160.471 45.3971L151.137 35.4391H117.474C117.388 35.4391 117.305 35.4048 117.244 35.3439C117.183 35.2829 117.149 35.2003 117.149 35.1141C117.151 35.0284 117.185 34.9467 117.246 34.8861C117.307 34.8255 117.388 34.7907 117.474 34.7891H151.274C151.318 34.7896 151.361 34.7992 151.402 34.817C151.442 34.8349 151.478 34.8608 151.508 34.8931L160.842 44.8511H231.763C231.85 44.8511 231.932 44.8853 231.993 44.9462C232.054 45.0072 232.088 45.0899 232.088 45.1761C232.088 45.2623 232.054 45.3449 231.993 45.4059C231.932 45.4668 231.85 45.5011 231.763 45.5011Z" fill="#0065BD"/>
<path d="M231.36 52.0011H160.328C160.283 52.0006 160.239 51.9912 160.198 51.9733C160.156 51.9555 160.119 51.9295 160.088 51.8971L150.76 41.9391H117.071C116.985 41.9391 116.902 41.9048 116.841 41.8439C116.78 41.7829 116.746 41.7003 116.746 41.6141C116.746 41.5279 116.78 41.4452 116.841 41.3843C116.902 41.3233 116.985 41.2891 117.071 41.2891H150.871C150.916 41.2895 150.96 41.299 151.002 41.3168C151.043 41.3347 151.08 41.3606 151.111 41.3931L160.439 51.3511H231.36C231.447 51.3511 231.529 51.3853 231.59 51.4463C231.651 51.5072 231.685 51.5899 231.685 51.6761C231.684 51.7617 231.649 51.8434 231.588 51.904C231.528 51.9646 231.446 51.9994 231.36 52.0011Z" fill="#0065BD"/>
<path d="M230.951 58.5011H159.893C159.849 58.5013 159.805 58.4921 159.765 58.4742C159.724 58.4562 159.688 58.43 159.659 58.3971L150.325 48.4391H116.661C116.575 48.4391 116.493 48.4048 116.432 48.3439C116.371 48.2829 116.336 48.2003 116.336 48.1141C116.338 48.0284 116.373 47.9467 116.433 47.8861C116.494 47.8255 116.576 47.7907 116.661 47.7891H150.461C150.506 47.7889 150.549 47.798 150.59 47.816C150.63 47.8339 150.666 47.8602 150.695 47.8931L160.029 57.8511H230.944C231.031 57.8511 231.113 57.8853 231.174 57.9463C231.235 58.0072 231.269 58.0899 231.269 58.1761C231.269 58.2611 231.236 58.3428 231.177 58.4036C231.117 58.4644 231.036 58.4994 230.951 58.5011Z" fill="#0065BD"/>
<path d="M230.528 65.0011H159.49C159.445 65.0006 159.4 64.9912 159.359 64.9733C159.318 64.9555 159.28 64.9295 159.249 64.8971L149.928 54.9391H116.258C116.172 54.9391 116.089 54.9048 116.029 54.8439C115.968 54.7829 115.933 54.7003 115.933 54.6141C115.933 54.5279 115.968 54.4452 116.029 54.3842C116.089 54.3233 116.172 54.2891 116.258 54.2891H150.058C150.103 54.2895 150.148 54.2989 150.189 54.3168C150.23 54.3347 150.268 54.3606 150.299 54.3931L159.626 64.3511H230.528C230.615 64.3511 230.697 64.3853 230.758 64.4463C230.819 64.5072 230.853 64.5899 230.853 64.6761C230.852 64.7617 230.817 64.8434 230.756 64.904C230.696 64.9646 230.614 64.9994 230.528 65.0011Z" fill="#0065BD"/>
<path d="M148.395 81.5572H114.595C114.509 81.5555 114.427 81.5207 114.367 81.4601C114.306 81.3995 114.271 81.3178 114.27 81.2322C114.27 81.146 114.304 81.0633 114.365 81.0023C114.426 80.9414 114.508 80.9072 114.595 80.9072H148.271L158.86 70.9362C158.919 70.8801 158.999 70.8497 159.081 70.8517H230.139C230.225 70.8517 230.307 70.8859 230.368 70.9468C230.429 71.0078 230.464 71.0905 230.464 71.1767C230.464 71.2628 230.429 71.3455 230.368 71.4065C230.307 71.4674 230.225 71.5017 230.139 71.5017H159.211L148.629 81.4662C148.565 81.5254 148.481 81.558 148.395 81.5572Z" fill="#0065BD"/>
<path d="M149.207 68.5572H115.407C115.321 68.5572 115.238 68.523 115.177 68.462C115.116 68.4011 115.082 68.3184 115.082 68.2322C115.082 68.146 115.116 68.0634 115.177 68.0024C115.238 67.9415 115.321 67.9072 115.407 67.9072H149.207C149.293 67.9072 149.376 67.9415 149.437 68.0024C149.498 68.0634 149.532 68.146 149.532 68.2322C149.532 68.3184 149.498 68.4011 149.437 68.462C149.376 68.523 149.293 68.5572 149.207 68.5572Z" fill="#0065BD"/>
<path d="M148.804 75.0573H115.004C114.918 75.0573 114.835 75.0231 114.774 74.9621C114.713 74.9012 114.679 74.8185 114.679 74.7323C114.679 74.6461 114.713 74.5635 114.774 74.5025C114.835 74.4416 114.918 74.4073 115.004 74.4073H148.498L149.272 62.0573H115.816C115.73 62.0573 115.648 62.0231 115.587 61.9621C115.526 61.9012 115.491 61.8185 115.491 61.7323C115.491 61.6461 115.526 61.5635 115.587 61.5025C115.648 61.4416 115.73 61.4073 115.816 61.4073H149.616C149.66 61.4063 149.703 61.4144 149.744 61.4312C149.784 61.448 149.82 61.4731 149.85 61.5048C149.882 61.5374 149.906 61.5762 149.922 61.6187C149.938 61.6612 149.944 61.7066 149.941 61.7518L149.129 74.7518C149.122 74.834 149.086 74.9109 149.026 74.9674C148.965 75.0239 148.886 75.056 148.804 75.0573Z" fill="#0065BD"/>
<path d="M184.437 101.057H113.379C113.293 101.057 113.21 101.023 113.149 100.962C113.088 100.901 113.054 100.818 113.054 100.732C113.054 100.646 113.088 100.563 113.149 100.502C113.21 100.441 113.293 100.407 113.379 100.407H184.307L194.895 90.4361C194.958 90.3802 195.039 90.35 195.123 90.3516H228.923C229.009 90.3516 229.092 90.3859 229.153 90.4468C229.214 90.5078 229.248 90.5904 229.248 90.6766C229.246 90.7623 229.212 90.844 229.151 90.9046C229.09 90.9652 229.009 91 228.923 91.0016H195.246L184.658 100.966C184.599 101.024 184.52 101.057 184.437 101.057Z" fill="#0065BD"/>
<path d="M191.34 94.5572H113.782C113.696 94.5556 113.615 94.5208 113.554 94.4602C113.493 94.3996 113.459 94.3179 113.457 94.2322C113.457 94.146 113.491 94.0634 113.552 94.0024C113.613 93.9415 113.696 93.9072 113.782 93.9072H191.34C191.426 93.9072 191.509 93.9415 191.57 94.0024C191.631 94.0634 191.665 94.146 191.665 94.2322C191.665 94.3184 191.631 94.4011 191.57 94.462C191.509 94.523 191.426 94.5572 191.34 94.5572Z" fill="#0065BD"/>
<path d="M155.779 88.0572H114.179C114.092 88.0572 114.01 88.023 113.949 87.962C113.888 87.9011 113.854 87.8184 113.854 87.7322C113.854 87.646 113.888 87.5634 113.949 87.5024C114.01 87.4415 114.092 87.4072 114.179 87.4072H155.61L162.422 80.9917C162.485 80.9384 162.566 80.9085 162.649 80.9072H229.515C229.601 80.9072 229.683 80.9415 229.744 81.0024C229.805 81.0634 229.84 81.146 229.84 81.2322C229.838 81.3179 229.803 81.3996 229.742 81.4602C229.682 81.5208 229.6 81.5556 229.515 81.5572H162.786L155.974 87.9662C155.921 88.0187 155.852 88.051 155.779 88.0572Z" fill="#0065BD"/>
<path d="M184.028 107.557H112.97C112.884 107.556 112.802 107.521 112.742 107.46C112.681 107.4 112.646 107.318 112.645 107.232C112.645 107.146 112.679 107.063 112.74 107.002C112.801 106.941 112.883 106.907 112.97 106.907H183.898L194.493 96.9362C194.522 96.9082 194.557 96.8862 194.595 96.8717C194.632 96.8572 194.673 96.8504 194.714 96.8517H228.514C228.6 96.8517 228.682 96.886 228.743 96.9469C228.804 97.0079 228.839 97.0905 228.839 97.1767C228.839 97.2629 228.804 97.3456 228.743 97.4065C228.682 97.4675 228.6 97.5017 228.514 97.5017H194.844L184.249 107.466C184.219 107.495 184.185 107.518 184.147 107.534C184.109 107.549 184.069 107.557 184.028 107.557Z" fill="#0065BD"/>
<path d="M183.624 114.057H112.566C112.48 114.057 112.398 114.023 112.337 113.962C112.276 113.901 112.241 113.818 112.241 113.732C112.241 113.646 112.276 113.563 112.337 113.502C112.398 113.441 112.48 113.407 112.566 113.407H183.494L194.083 103.436C194.145 103.38 194.227 103.35 194.31 103.352H228.11C228.197 103.352 228.279 103.386 228.34 103.447C228.401 103.508 228.435 103.59 228.435 103.677C228.435 103.763 228.401 103.845 228.34 103.906C228.279 103.967 228.197 104.002 228.11 104.002H194.434L183.845 113.966C183.786 114.024 183.707 114.057 183.624 114.057Z" fill="#0065BD"/>
<path d="M183.215 120.557H112.157C112.071 120.556 111.99 120.521 111.929 120.46C111.868 120.4 111.834 120.318 111.832 120.232C111.832 120.146 111.866 120.063 111.927 120.002C111.988 119.941 112.071 119.907 112.157 119.907H183.079L193.674 109.936C193.703 109.908 193.738 109.886 193.776 109.872C193.813 109.857 193.854 109.85 193.895 109.852H227.695C227.781 109.852 227.863 109.886 227.924 109.947C227.985 110.008 228.02 110.091 228.02 110.177C228.02 110.263 227.985 110.346 227.924 110.407C227.863 110.467 227.781 110.502 227.695 110.502H194.025L183.436 120.466C183.376 120.522 183.297 120.555 183.215 120.557Z" fill="#0065BD"/>
<path d="M182.812 127.057H111.754C111.668 127.057 111.585 127.023 111.524 126.962C111.463 126.901 111.429 126.818 111.429 126.732C111.429 126.646 111.463 126.563 111.524 126.502C111.585 126.441 111.668 126.407 111.754 126.407H182.682L193.27 116.436C193.333 116.38 193.414 116.35 193.498 116.352H227.298C227.384 116.352 227.467 116.386 227.528 116.447C227.589 116.508 227.623 116.59 227.623 116.677C227.623 116.763 227.589 116.845 227.528 116.906C227.467 116.967 227.384 117.002 227.298 117.002H193.621L183.033 126.966C182.974 127.024 182.895 127.057 182.812 127.057Z" fill="#0065BD"/>
<path d="M225.634 143.613H191.834C191.789 143.612 191.745 143.603 191.703 143.585C191.662 143.567 191.625 143.541 191.594 143.509L182.266 133.557H111.345C111.259 133.556 111.177 133.521 111.117 133.46C111.056 133.4 111.021 133.318 111.02 133.232C111.02 133.146 111.054 133.063 111.115 133.002C111.176 132.942 111.258 132.907 111.345 132.907H182.429C182.474 132.907 182.519 132.915 182.56 132.933C182.601 132.951 182.639 132.978 182.669 133.011L192.003 142.963H225.66C225.746 142.963 225.829 142.997 225.89 143.058C225.951 143.119 225.985 143.202 225.985 143.288C225.985 143.374 225.951 143.457 225.89 143.518C225.829 143.579 225.746 143.613 225.66 143.613H225.634Z" fill="#0065BD"/>
<path d="M226.447 130.612H192.647C192.56 130.612 192.478 130.578 192.417 130.517C192.356 130.456 192.322 130.373 192.322 130.287C192.322 130.201 192.356 130.118 192.417 130.057C192.478 129.996 192.56 129.962 192.647 129.962H226.447C226.533 129.962 226.615 129.996 226.676 130.057C226.737 130.118 226.772 130.201 226.772 130.287C226.772 130.373 226.737 130.456 226.676 130.517C226.615 130.578 226.533 130.612 226.447 130.612Z" fill="#0065BD"/>
<path d="M226.043 137.112H192.243C192.199 137.111 192.156 137.101 192.116 137.084C192.075 137.066 192.039 137.04 192.009 137.008C191.978 136.976 191.955 136.938 191.939 136.897C191.924 136.855 191.917 136.811 191.918 136.767L192.731 123.767C192.736 123.685 192.772 123.607 192.833 123.55C192.893 123.493 192.973 123.462 193.056 123.462H226.856C226.942 123.462 227.025 123.496 227.086 123.557C227.147 123.618 227.181 123.701 227.181 123.787C227.181 123.873 227.147 123.956 227.086 124.017C227.025 124.078 226.942 124.112 226.856 124.112H193.355L192.588 136.462H226.043C226.13 136.462 226.212 136.496 226.273 136.557C226.334 136.618 226.368 136.701 226.368 136.787C226.368 136.873 226.334 136.956 226.273 137.017C226.212 137.078 226.13 137.112 226.043 137.112Z" fill="#0065BD"/>
<path d="M220.336 228.451H186.536C186.491 228.451 186.447 228.441 186.405 228.423C186.364 228.406 186.327 228.379 186.296 228.347L176.962 218.395H106.047C105.961 218.395 105.878 218.361 105.817 218.3C105.756 218.239 105.722 218.156 105.722 218.07C105.722 217.984 105.756 217.901 105.817 217.84C105.878 217.779 105.961 217.745 106.047 217.745H177.105C177.149 217.744 177.192 217.752 177.232 217.769C177.273 217.786 177.309 217.811 177.339 217.843L186.673 227.801H220.336C220.423 227.801 220.505 227.835 220.566 227.896C220.627 227.957 220.661 228.04 220.661 228.126C220.66 228.211 220.625 228.293 220.564 228.354C220.504 228.414 220.422 228.449 220.336 228.451Z" fill="#0065BD"/>
<path d="M177.508 211.895H106.456C106.37 211.895 106.287 211.861 106.227 211.8C106.166 211.739 106.131 211.656 106.131 211.57C106.131 211.484 106.166 211.401 106.227 211.34C106.287 211.279 106.37 211.245 106.456 211.245H177.384L187.973 201.3C188.032 201.242 188.111 201.209 188.194 201.209H221.994C222.08 201.211 222.161 201.245 222.222 201.306C222.282 201.367 222.317 201.448 222.319 201.534C222.319 201.62 222.285 201.703 222.224 201.764C222.163 201.825 222.08 201.859 221.994 201.859H188.324L177.735 211.83C177.67 211.878 177.589 211.901 177.508 211.895Z" fill="#0065BD"/>
<path d="M221.188 214.833H187.388C187.302 214.833 187.219 214.798 187.158 214.737C187.097 214.676 187.063 214.594 187.063 214.508C187.065 214.422 187.099 214.34 187.16 214.28C187.221 214.219 187.302 214.184 187.388 214.183H221.188C221.274 214.184 221.355 214.219 221.416 214.28C221.477 214.34 221.511 214.422 221.513 214.508C221.513 214.594 221.479 214.676 221.418 214.737C221.357 214.798 221.274 214.833 221.188 214.833Z" fill="#0065BD"/>
<path d="M220.778 221.333H186.978C186.934 221.333 186.889 221.325 186.848 221.308C186.807 221.292 186.769 221.267 186.738 221.235C186.708 221.202 186.685 221.162 186.671 221.12C186.656 221.078 186.65 221.033 186.653 220.988L187.466 207.988C187.471 207.905 187.507 207.828 187.568 207.771C187.628 207.714 187.708 207.682 187.791 207.683H221.591C221.677 207.683 221.76 207.717 221.821 207.778C221.882 207.839 221.916 207.921 221.916 208.008C221.916 208.094 221.882 208.176 221.821 208.237C221.76 208.298 221.677 208.333 221.591 208.333H188.096L187.323 220.683H220.778C220.865 220.683 220.947 220.717 221.008 220.778C221.069 220.839 221.103 220.921 221.103 221.008C221.103 221.094 221.069 221.176 221.008 221.237C220.947 221.298 220.865 221.333 220.778 221.333Z" fill="#0065BD"/>
<path d="M141.479 192.395H107.679C107.592 192.395 107.51 192.361 107.449 192.3C107.388 192.239 107.354 192.156 107.354 192.07C107.354 191.984 107.388 191.901 107.449 191.84C107.51 191.779 107.592 191.745 107.679 191.745H141.349L151.937 181.8C151.966 181.771 152.001 181.748 152.038 181.732C152.076 181.717 152.117 181.709 152.158 181.709H223.216C223.302 181.709 223.385 181.743 223.446 181.804C223.507 181.865 223.541 181.948 223.541 182.034C223.541 182.12 223.507 182.203 223.446 182.264C223.385 182.325 223.302 182.359 223.216 182.359H152.288L141.7 192.33C141.636 192.377 141.558 192.4 141.479 192.395Z" fill="#0065BD"/>
<path d="M222.813 188.833H145.255C145.169 188.833 145.086 188.798 145.025 188.737C144.964 188.676 144.93 188.594 144.93 188.508C144.93 188.421 144.964 188.339 145.025 188.278C145.086 188.217 145.169 188.183 145.255 188.183H222.813C222.899 188.184 222.98 188.219 223.041 188.28C223.101 188.34 223.136 188.422 223.138 188.508C223.138 188.594 223.104 188.676 223.043 188.737C222.982 188.798 222.899 188.833 222.813 188.833Z" fill="#0065BD"/>
<path d="M173.933 201.833H107.08C106.994 201.833 106.912 201.799 106.851 201.738C106.79 201.677 106.755 201.594 106.755 201.508C106.755 201.422 106.79 201.339 106.851 201.278C106.912 201.217 106.994 201.183 107.08 201.183H173.803L180.615 194.8C180.677 194.742 180.758 194.71 180.842 194.709H222.403C222.49 194.709 222.572 194.743 222.633 194.804C222.694 194.865 222.728 194.948 222.728 195.034C222.728 195.12 222.694 195.203 222.633 195.264C222.572 195.325 222.49 195.359 222.403 195.359H180.972L174.16 201.775C174.094 201.821 174.013 201.842 173.933 201.833Z" fill="#0065BD"/>
<path d="M141.881 185.895H108.081C107.996 185.893 107.914 185.859 107.853 185.798C107.793 185.737 107.758 185.656 107.756 185.57C107.756 185.484 107.791 185.401 107.852 185.34C107.912 185.279 107.995 185.245 108.081 185.245H141.758L152.34 175.3C152.402 175.242 152.483 175.21 152.567 175.209H223.625C223.711 175.211 223.793 175.245 223.853 175.306C223.914 175.367 223.949 175.448 223.95 175.534C223.95 175.62 223.916 175.703 223.855 175.764C223.794 175.825 223.712 175.859 223.625 175.859H152.691L142.128 185.804C142.096 185.836 142.057 185.861 142.015 185.876C141.972 185.892 141.927 185.898 141.881 185.895Z" fill="#0065BD"/>
<path d="M142.284 179.395H108.484C108.398 179.395 108.316 179.361 108.255 179.3C108.194 179.239 108.159 179.156 108.159 179.07C108.159 178.984 108.194 178.901 108.255 178.84C108.316 178.779 108.398 178.745 108.484 178.745H142.128L152.749 168.8C152.778 168.771 152.813 168.748 152.851 168.732C152.889 168.717 152.929 168.709 152.97 168.709H224.028C224.115 168.709 224.197 168.743 224.258 168.804C224.319 168.865 224.353 168.948 224.353 169.034C224.353 169.12 224.319 169.203 224.258 169.264C224.197 169.325 224.115 169.359 224.028 169.359H153.1L142.505 179.33C142.443 179.379 142.364 179.402 142.284 179.395Z" fill="#0065BD"/>
<path d="M142.694 172.895H108.894C108.808 172.893 108.726 172.859 108.666 172.798C108.605 172.737 108.571 172.656 108.569 172.57C108.569 172.484 108.603 172.401 108.664 172.34C108.725 172.279 108.808 172.245 108.894 172.245H142.57L153.178 162.3C153.237 162.242 153.317 162.209 153.399 162.209H224.438C224.524 162.211 224.605 162.245 224.666 162.306C224.726 162.367 224.761 162.448 224.763 162.534C224.763 162.62 224.729 162.703 224.668 162.764C224.607 162.825 224.524 162.859 224.438 162.859H153.503L142.915 172.83C142.852 172.878 142.773 172.902 142.694 172.895Z" fill="#0065BD"/>
<path d="M143.097 166.395H109.297C109.211 166.395 109.128 166.361 109.067 166.3C109.006 166.239 108.972 166.156 108.972 166.07C108.972 165.984 109.006 165.901 109.067 165.84C109.128 165.779 109.211 165.745 109.297 165.745H142.967L153.562 155.8C153.591 155.771 153.625 155.748 153.663 155.732C153.701 155.717 153.742 155.709 153.783 155.709H224.841C224.927 155.709 225.01 155.743 225.071 155.804C225.132 155.865 225.166 155.948 225.166 156.034C225.166 156.12 225.132 156.203 225.071 156.264C225.01 156.325 224.927 156.359 224.841 156.359H153.913L143.318 166.33C143.255 166.379 143.176 166.402 143.097 166.395Z" fill="#0065BD"/>
<path d="M225.244 149.832H154.186C154.142 149.833 154.099 149.825 154.059 149.809C154.018 149.792 153.982 149.767 153.952 149.735L144.618 139.777H110.961C110.875 139.777 110.792 139.743 110.731 139.682C110.67 139.621 110.636 139.538 110.636 139.452C110.636 139.366 110.67 139.283 110.731 139.222C110.792 139.161 110.875 139.127 110.961 139.127H144.761C144.805 139.127 144.849 139.136 144.889 139.154C144.929 139.172 144.966 139.198 144.995 139.231L154.329 149.182H225.244C225.33 149.182 225.413 149.217 225.474 149.278C225.535 149.339 225.569 149.421 225.569 149.507C225.569 149.594 225.535 149.676 225.474 149.737C225.413 149.798 225.33 149.832 225.244 149.832Z" fill="#0065BD"/>
<path d="M143.948 152.777H110.148C110.062 152.777 109.98 152.743 109.919 152.682C109.858 152.621 109.823 152.538 109.823 152.452C109.823 152.366 109.858 152.283 109.919 152.222C109.98 152.161 110.062 152.127 110.148 152.127H143.948C144.035 152.127 144.117 152.161 144.178 152.222C144.239 152.283 144.273 152.366 144.273 152.452C144.273 152.538 144.239 152.621 144.178 152.682C144.117 152.743 144.035 152.777 143.948 152.777Z" fill="#0065BD"/>
<path d="M143.539 159.277H109.739C109.653 159.277 109.57 159.243 109.509 159.182C109.448 159.121 109.414 159.038 109.414 158.952C109.415 158.866 109.45 158.785 109.511 158.724C109.571 158.663 109.653 158.629 109.739 158.627H143.24L144.007 146.277H110.551C110.465 146.277 110.382 146.243 110.322 146.182C110.261 146.121 110.226 146.038 110.226 145.952C110.226 145.866 110.261 145.783 110.322 145.722C110.382 145.661 110.465 145.627 110.551 145.627H144.351C144.396 145.627 144.441 145.637 144.482 145.655C144.523 145.673 144.561 145.698 144.592 145.731C144.621 145.763 144.644 145.801 144.658 145.843C144.673 145.884 144.679 145.928 144.676 145.971L143.864 158.971C143.86 159.055 143.825 159.133 143.764 159.191C143.703 159.248 143.622 159.279 143.539 159.277Z" fill="#0065BD"/>
</g>
<path d="M201.928 181.501H199.77C199.72 181.502 199.669 181.493 199.622 181.474C199.574 181.455 199.531 181.427 199.495 181.391C199.459 181.355 199.43 181.313 199.41 181.266C199.391 181.219 199.38 181.168 199.38 181.118C199.38 181.066 199.391 181.016 199.41 180.968C199.43 180.921 199.458 180.878 199.495 180.842C199.531 180.806 199.574 180.777 199.621 180.757C199.669 180.738 199.719 180.728 199.77 180.728H201.928C202.206 180.728 202.482 180.687 202.747 180.604C202.798 180.582 202.852 180.571 202.907 180.572C202.962 180.572 203.016 180.585 203.066 180.608C203.116 180.631 203.16 180.664 203.196 180.705C203.232 180.746 203.259 180.795 203.276 180.847C203.292 180.9 203.297 180.955 203.29 181.01C203.283 181.064 203.265 181.116 203.237 181.163C203.208 181.21 203.17 181.251 203.125 181.282C203.08 181.313 203.029 181.335 202.975 181.345C202.636 181.449 202.283 181.501 201.928 181.501ZM196.663 181.501H193.556C193.506 181.502 193.455 181.493 193.408 181.474C193.36 181.455 193.317 181.427 193.281 181.391C193.245 181.355 193.216 181.313 193.196 181.266C193.177 181.219 193.166 181.168 193.166 181.118C193.166 181.014 193.208 180.915 193.281 180.842C193.354 180.769 193.453 180.728 193.556 180.728H196.663C196.767 180.728 196.866 180.769 196.939 180.842C197.012 180.915 197.053 181.014 197.053 181.118C197.054 181.171 197.043 181.225 197.021 181.274C196.999 181.323 196.968 181.367 196.928 181.404C196.888 181.44 196.841 181.467 196.79 181.484C196.739 181.501 196.684 181.507 196.631 181.501H196.663ZM190.449 181.501H187.342C187.292 181.502 187.241 181.493 187.194 181.474C187.146 181.455 187.103 181.427 187.067 181.391C187.031 181.355 187.002 181.313 186.982 181.266C186.963 181.219 186.952 181.168 186.952 181.118C186.952 181.014 186.994 180.915 187.067 180.842C187.14 180.769 187.239 180.728 187.342 180.728H190.449C190.553 180.728 190.652 180.769 190.725 180.842C190.798 180.915 190.839 181.014 190.839 181.118C190.84 181.171 190.829 181.225 190.807 181.274C190.785 181.323 190.754 181.367 190.714 181.404C190.674 181.44 190.627 181.467 190.576 181.484C190.525 181.501 190.47 181.507 190.417 181.501H190.449ZM184.235 181.501H181.128C181.078 181.502 181.027 181.493 180.98 181.474C180.932 181.455 180.889 181.427 180.853 181.391C180.817 181.355 180.788 181.313 180.768 181.266C180.749 181.219 180.738 181.168 180.738 181.118C180.738 181.014 180.78 180.915 180.853 180.842C180.926 180.769 181.025 180.728 181.128 180.728H184.229C184.332 180.728 184.432 180.769 184.505 180.842C184.578 180.915 184.619 181.014 184.619 181.118C184.619 181.171 184.608 181.223 184.587 181.272C184.566 181.321 184.535 181.365 184.495 181.401C184.456 181.437 184.41 181.465 184.36 181.482C184.309 181.499 184.256 181.506 184.203 181.501H184.235ZM178.028 181.501H174.888C174.838 181.502 174.787 181.493 174.74 181.474C174.692 181.455 174.649 181.427 174.613 181.391C174.577 181.355 174.548 181.313 174.528 181.266C174.509 181.219 174.498 181.168 174.498 181.118C174.498 181.014 174.54 180.915 174.613 180.842C174.686 180.769 174.785 180.728 174.888 180.728H177.995C178.046 180.728 178.097 180.738 178.144 180.757C178.191 180.777 178.233 180.806 178.269 180.842C178.305 180.878 178.333 180.922 178.352 180.969C178.371 181.016 178.38 181.067 178.379 181.118C178.38 181.168 178.371 181.218 178.352 181.265C178.333 181.312 178.304 181.355 178.269 181.391C178.233 181.426 178.19 181.455 178.143 181.474C178.096 181.493 178.046 181.502 177.995 181.501H178.028ZM171.814 181.501H168.707C168.656 181.502 168.605 181.493 168.558 181.474C168.511 181.455 168.468 181.427 168.432 181.391C168.395 181.355 168.366 181.313 168.347 181.266C168.327 181.219 168.317 181.168 168.317 181.118C168.317 181.014 168.358 180.915 168.431 180.842C168.504 180.769 168.604 180.728 168.707 180.728H171.814C171.865 180.728 171.915 180.738 171.962 180.757C172.009 180.777 172.052 180.806 172.087 180.842C172.123 180.878 172.151 180.922 172.17 180.969C172.189 181.016 172.198 181.067 172.197 181.118C172.199 181.171 172.188 181.224 172.168 181.273C172.147 181.323 172.115 181.367 172.076 181.403C172.037 181.44 171.99 181.467 171.939 181.484C171.889 181.501 171.835 181.507 171.781 181.501H171.814ZM165.6 181.501H162.493C162.442 181.502 162.391 181.493 162.344 181.474C162.297 181.455 162.254 181.427 162.218 181.391C162.181 181.355 162.152 181.313 162.133 181.266C162.113 181.219 162.103 181.168 162.103 181.118C162.103 181.014 162.144 180.915 162.217 180.842C162.29 180.769 162.39 180.728 162.493 180.728H165.6C165.703 180.728 165.803 180.769 165.876 180.842C165.949 180.915 165.99 181.014 165.99 181.118C165.99 181.171 165.979 181.225 165.958 181.274C165.936 181.323 165.904 181.367 165.864 181.404C165.824 181.44 165.777 181.467 165.726 181.484C165.675 181.501 165.621 181.507 165.567 181.501H165.6ZM159.386 181.501H156.279C156.228 181.502 156.177 181.493 156.13 181.474C156.083 181.455 156.04 181.427 156.004 181.391C155.967 181.355 155.938 181.313 155.919 181.266C155.899 181.219 155.889 181.168 155.889 181.118C155.889 181.014 155.93 180.915 156.003 180.842C156.076 180.769 156.176 180.728 156.279 180.728H159.386C159.437 180.728 159.488 180.738 159.535 180.757C159.583 180.777 159.626 180.806 159.662 180.842C159.698 180.878 159.727 180.921 159.746 180.968C159.766 181.016 159.776 181.066 159.776 181.118C159.776 181.171 159.765 181.225 159.744 181.274C159.722 181.323 159.69 181.367 159.65 181.404C159.61 181.44 159.563 181.467 159.512 181.484C159.461 181.501 159.407 181.507 159.353 181.501H159.386ZM153.172 181.501H150.065C150.014 181.502 149.964 181.493 149.917 181.474C149.87 181.455 149.828 181.426 149.792 181.391C149.756 181.355 149.728 181.312 149.709 181.265C149.69 181.218 149.681 181.168 149.681 181.118C149.681 181.067 149.69 181.016 149.709 180.969C149.728 180.922 149.756 180.878 149.791 180.842C149.827 180.806 149.87 180.777 149.917 180.757C149.964 180.738 150.014 180.728 150.065 180.728H153.172C153.275 180.728 153.375 180.769 153.448 180.842C153.521 180.915 153.562 181.014 153.562 181.118C153.562 181.171 153.551 181.225 153.53 181.274C153.508 181.323 153.476 181.367 153.436 181.404C153.396 181.44 153.349 181.467 153.298 181.484C153.247 181.501 153.193 181.507 153.139 181.501H153.172ZM146.958 181.501H143.857C143.807 181.502 143.756 181.493 143.709 181.474C143.661 181.455 143.618 181.427 143.582 181.391C143.546 181.355 143.517 181.313 143.497 181.266C143.478 181.219 143.467 181.168 143.467 181.118C143.467 181.014 143.509 180.915 143.582 180.842C143.655 180.769 143.754 180.728 143.857 180.728H146.958C147.009 180.728 147.06 180.738 147.107 180.757C147.155 180.777 147.198 180.806 147.234 180.842C147.27 180.878 147.299 180.921 147.318 180.968C147.338 181.016 147.348 181.066 147.348 181.118C147.348 181.171 147.337 181.225 147.316 181.274C147.294 181.323 147.262 181.367 147.222 181.404C147.182 181.44 147.135 181.467 147.084 181.484C147.033 181.501 146.979 181.507 146.925 181.501H146.958ZM140.75 181.501H137.643C137.593 181.502 137.542 181.493 137.495 181.474C137.447 181.455 137.404 181.427 137.368 181.391C137.332 181.355 137.303 181.313 137.283 181.266C137.264 181.219 137.253 181.168 137.253 181.118C137.253 181.014 137.295 180.915 137.368 180.842C137.441 180.769 137.54 180.728 137.643 180.728H140.75C140.801 180.728 140.852 180.738 140.899 180.757C140.946 180.777 140.988 180.806 141.024 180.842C141.06 180.878 141.088 180.922 141.107 180.969C141.126 181.016 141.135 181.067 141.134 181.118C141.135 181.171 141.125 181.224 141.104 181.273C141.083 181.323 141.052 181.367 141.013 181.403C140.973 181.44 140.927 181.467 140.876 181.484C140.825 181.501 140.771 181.507 140.718 181.501H140.75ZM134.536 181.501H131.429C131.379 181.502 131.328 181.493 131.281 181.474C131.233 181.455 131.19 181.427 131.154 181.391C131.118 181.355 131.089 181.313 131.069 181.266C131.05 181.219 131.039 181.168 131.039 181.118C131.039 181.014 131.081 180.915 131.154 180.842C131.227 180.769 131.326 180.728 131.429 180.728H134.536C134.64 180.728 134.739 180.769 134.812 180.842C134.885 180.915 134.926 181.014 134.926 181.118C134.927 181.171 134.916 181.225 134.894 181.274C134.872 181.323 134.841 181.367 134.801 181.404C134.761 181.44 134.714 181.467 134.663 181.484C134.612 181.501 134.557 181.507 134.504 181.501H134.536ZM128.563 180.63C128.511 180.631 128.459 180.621 128.411 180.601C128.363 180.581 128.319 180.551 128.283 180.513C127.692 179.899 127.365 179.078 127.373 178.225C127.373 178.154 127.373 178.082 127.373 178.011L127.412 177.322C127.416 177.27 127.429 177.22 127.452 177.174C127.475 177.128 127.506 177.087 127.545 177.053C127.583 177.019 127.628 176.993 127.677 176.977C127.726 176.961 127.777 176.954 127.828 176.958C127.879 176.96 127.929 176.973 127.975 176.995C128.021 177.017 128.063 177.048 128.097 177.086C128.13 177.124 128.156 177.168 128.173 177.217C128.189 177.265 128.196 177.316 128.192 177.367L128.147 178.056C128.144 178.112 128.144 178.169 128.147 178.225C128.142 178.876 128.391 179.504 128.842 179.974C128.892 180.029 128.925 180.097 128.937 180.171C128.949 180.244 128.94 180.319 128.91 180.388C128.881 180.456 128.833 180.515 128.771 180.556C128.709 180.598 128.637 180.621 128.563 180.624V180.63ZM205.022 179.291C204.98 179.3 204.935 179.3 204.892 179.291C204.844 179.274 204.8 179.248 204.762 179.214C204.724 179.18 204.694 179.139 204.672 179.093C204.65 179.047 204.638 178.997 204.635 178.946C204.633 178.896 204.641 178.845 204.658 178.797C204.749 178.551 204.801 178.292 204.814 178.03L204.957 175.82C204.955 175.765 204.964 175.711 204.984 175.66C205.005 175.609 205.035 175.562 205.075 175.524C205.114 175.486 205.161 175.456 205.212 175.437C205.264 175.418 205.319 175.41 205.373 175.414C205.428 175.418 205.481 175.433 205.53 175.459C205.578 175.484 205.621 175.52 205.654 175.563C205.688 175.606 205.712 175.656 205.726 175.709C205.739 175.763 205.741 175.818 205.731 175.872L205.594 178.082C205.569 178.414 205.501 178.742 205.393 179.057C205.359 179.134 205.302 179.197 205.229 179.24C205.157 179.282 205.073 179.3 204.99 179.291H205.022ZM127.971 174.65C127.92 174.648 127.871 174.635 127.825 174.613C127.778 174.591 127.737 174.56 127.703 174.522C127.67 174.484 127.644 174.439 127.627 174.391C127.611 174.343 127.604 174.291 127.607 174.241L127.802 171.14C127.809 171.038 127.856 170.942 127.933 170.874C128.009 170.806 128.11 170.771 128.212 170.776C128.263 170.779 128.313 170.791 128.359 170.813C128.405 170.835 128.446 170.866 128.48 170.904C128.514 170.942 128.54 170.987 128.556 171.035C128.573 171.084 128.579 171.135 128.576 171.186L128.381 174.286C128.378 174.337 128.366 174.387 128.344 174.433C128.322 174.479 128.291 174.52 128.253 174.554C128.215 174.588 128.17 174.614 128.122 174.63C128.073 174.647 128.022 174.654 127.971 174.65ZM205.503 173.129C205.401 173.121 205.305 173.073 205.237 172.995C205.169 172.917 205.134 172.816 205.139 172.713L205.334 169.613C205.332 169.558 205.341 169.503 205.361 169.452C205.382 169.401 205.412 169.355 205.452 169.317C205.491 169.278 205.538 169.249 205.589 169.23C205.641 169.211 205.696 169.203 205.75 169.207C205.805 169.21 205.858 169.225 205.907 169.251C205.955 169.277 205.998 169.312 206.031 169.356C206.065 169.399 206.089 169.449 206.103 169.502C206.116 169.555 206.118 169.611 206.108 169.665L205.919 172.765C205.906 172.864 205.856 172.955 205.779 173.019C205.702 173.083 205.603 173.115 205.503 173.11V173.129ZM128.355 168.449C128.304 168.447 128.254 168.434 128.208 168.412C128.162 168.39 128.121 168.359 128.087 168.321C128.053 168.283 128.027 168.238 128.011 168.19C127.994 168.142 127.987 168.09 127.991 168.04L128.179 164.939C128.189 164.837 128.238 164.742 128.315 164.675C128.393 164.607 128.493 164.571 128.595 164.575C128.698 164.582 128.793 164.628 128.861 164.705C128.93 164.782 128.965 164.882 128.959 164.985L128.764 168.085C128.755 168.185 128.706 168.276 128.63 168.341C128.553 168.405 128.455 168.437 128.355 168.43V168.449ZM205.893 166.928C205.842 166.925 205.792 166.911 205.746 166.889C205.7 166.866 205.659 166.834 205.625 166.796C205.591 166.757 205.565 166.712 205.549 166.663C205.533 166.615 205.526 166.563 205.529 166.512L205.724 163.412C205.722 163.357 205.731 163.302 205.751 163.251C205.772 163.2 205.802 163.154 205.842 163.116C205.881 163.077 205.928 163.048 205.979 163.029C206.031 163.01 206.086 163.002 206.14 163.006C206.195 163.009 206.248 163.024 206.297 163.05C206.345 163.076 206.388 163.111 206.421 163.155C206.455 163.198 206.479 163.248 206.493 163.301C206.506 163.354 206.508 163.41 206.498 163.464L206.303 166.564C206.292 166.663 206.243 166.754 206.167 166.818C206.09 166.882 205.993 166.914 205.893 166.909V166.928ZM128.745 162.235C128.694 162.233 128.644 162.22 128.598 162.198C128.552 162.176 128.511 162.145 128.477 162.107C128.443 162.069 128.417 162.024 128.401 161.976C128.384 161.928 128.377 161.876 128.381 161.826L128.576 158.725C128.574 158.67 128.583 158.616 128.603 158.565C128.623 158.514 128.654 158.467 128.693 158.429C128.732 158.391 128.779 158.361 128.831 158.342C128.882 158.323 128.937 158.315 128.992 158.319C129.046 158.323 129.1 158.338 129.148 158.364C129.197 158.389 129.239 158.425 129.273 158.468C129.307 158.511 129.331 158.561 129.344 158.614C129.357 158.668 129.359 158.723 129.349 158.777L129.161 161.878C129.151 161.979 129.102 162.073 129.025 162.14C128.947 162.206 128.847 162.241 128.745 162.235ZM206.277 160.708C206.174 160.699 206.078 160.651 206.011 160.573C205.943 160.496 205.908 160.395 205.913 160.292L206.108 157.191C206.116 157.088 206.164 156.993 206.242 156.925C206.32 156.857 206.421 156.822 206.524 156.827C206.575 156.83 206.625 156.844 206.671 156.866C206.717 156.889 206.759 156.921 206.792 156.959C206.826 156.998 206.852 157.043 206.868 157.092C206.885 157.14 206.891 157.192 206.888 157.243L206.693 160.344C206.685 160.446 206.637 160.542 206.559 160.61C206.481 160.678 206.38 160.713 206.277 160.708ZM129.128 156.034C129.077 156.032 129.028 156.019 128.982 155.997C128.935 155.975 128.894 155.944 128.86 155.906C128.827 155.868 128.801 155.823 128.784 155.775C128.768 155.727 128.761 155.675 128.764 155.625L128.959 152.524C128.962 152.473 128.975 152.423 128.997 152.377C129.019 152.331 129.05 152.29 129.088 152.256C129.126 152.222 129.17 152.196 129.219 152.18C129.267 152.163 129.318 152.157 129.369 152.16C129.42 152.163 129.47 152.177 129.516 152.199C129.562 152.222 129.604 152.254 129.637 152.292C129.671 152.331 129.697 152.376 129.713 152.425C129.73 152.473 129.736 152.525 129.733 152.576L129.538 155.677C129.53 155.778 129.482 155.872 129.406 155.938C129.329 156.005 129.23 156.039 129.128 156.034ZM206.667 154.5C206.616 154.497 206.566 154.483 206.52 154.461C206.473 154.438 206.432 154.406 206.399 154.368C206.365 154.329 206.339 154.284 206.322 154.235C206.306 154.187 206.299 154.135 206.303 154.084L206.498 150.984C206.496 150.929 206.505 150.874 206.525 150.823C206.545 150.772 206.576 150.726 206.615 150.688C206.654 150.649 206.701 150.62 206.753 150.601C206.804 150.582 206.859 150.574 206.914 150.578C206.968 150.581 207.022 150.596 207.07 150.622C207.119 150.648 207.161 150.683 207.195 150.727C207.229 150.77 207.253 150.82 207.266 150.873C207.279 150.926 207.281 150.982 207.271 151.036L207.076 154.136C207.07 154.238 207.023 154.334 206.946 154.402C206.87 154.47 206.769 154.505 206.667 154.5ZM129.518 149.833C129.416 149.826 129.321 149.78 129.252 149.703C129.184 149.626 129.149 149.526 129.154 149.424L129.349 146.323C129.356 146.22 129.404 146.123 129.482 146.055C129.56 145.987 129.662 145.952 129.765 145.959C129.869 145.966 129.965 146.014 130.034 146.092C130.102 146.17 130.136 146.272 130.129 146.375L129.934 149.476C129.925 149.577 129.876 149.671 129.798 149.738C129.721 149.804 129.621 149.839 129.518 149.833ZM207.05 148.306C206.999 148.302 206.949 148.289 206.903 148.266C206.857 148.243 206.816 148.212 206.782 148.173C206.748 148.135 206.722 148.09 206.706 148.041C206.69 147.992 206.683 147.941 206.686 147.89L206.881 144.789C206.898 144.695 206.95 144.61 207.025 144.551C207.101 144.492 207.196 144.462 207.291 144.469C207.387 144.475 207.477 144.517 207.544 144.585C207.611 144.654 207.651 144.745 207.655 144.841L207.46 147.942C207.453 148.044 207.407 148.139 207.33 148.208C207.253 148.276 207.153 148.311 207.05 148.306ZM129.908 143.632C129.806 143.624 129.71 143.576 129.642 143.498C129.574 143.42 129.539 143.319 129.544 143.216L129.739 140.116C129.737 140.061 129.746 140.006 129.766 139.955C129.787 139.904 129.817 139.858 129.857 139.82C129.896 139.781 129.943 139.752 129.994 139.733C130.046 139.714 130.101 139.706 130.155 139.71C130.21 139.713 130.263 139.728 130.312 139.754C130.36 139.78 130.403 139.815 130.436 139.859C130.47 139.902 130.494 139.952 130.508 140.005C130.521 140.058 130.523 140.114 130.513 140.168L130.318 143.268C130.311 143.37 130.265 143.466 130.188 143.534C130.111 143.602 130.011 143.637 129.908 143.632ZM207.44 142.105C207.389 142.101 207.339 142.088 207.293 142.065C207.247 142.042 207.206 142.011 207.172 141.972C207.138 141.934 207.112 141.889 207.096 141.84C207.08 141.791 207.073 141.74 207.076 141.689L207.271 138.588C207.281 138.488 207.329 138.395 207.405 138.328C207.481 138.262 207.58 138.227 207.681 138.231C207.732 138.233 207.782 138.246 207.828 138.268C207.874 138.29 207.915 138.321 207.949 138.359C207.983 138.397 208.009 138.441 208.025 138.49C208.042 138.538 208.048 138.589 208.045 138.64L207.856 141.741C207.853 141.792 207.84 141.842 207.817 141.888C207.794 141.934 207.763 141.975 207.724 142.009C207.685 142.043 207.64 142.069 207.592 142.085C207.543 142.101 207.492 142.108 207.44 142.105ZM130.292 137.431C130.241 137.428 130.191 137.414 130.145 137.392C130.098 137.369 130.057 137.337 130.024 137.299C129.99 137.26 129.964 137.215 129.947 137.166C129.931 137.118 129.924 137.066 129.928 137.015L130.116 133.915C130.126 133.812 130.175 133.718 130.252 133.65C130.33 133.582 130.43 133.547 130.532 133.551C130.584 133.554 130.634 133.567 130.68 133.59C130.726 133.613 130.767 133.644 130.801 133.683C130.835 133.722 130.861 133.767 130.877 133.815C130.893 133.864 130.9 133.915 130.896 133.967L130.701 137.067C130.695 137.169 130.648 137.265 130.571 137.333C130.495 137.401 130.394 137.436 130.292 137.431ZM207.778 135.904C207.685 135.903 207.594 135.868 207.524 135.806C207.453 135.744 207.407 135.659 207.395 135.566C207.336 135.12 207.155 134.7 206.873 134.35C206.591 134.001 206.219 133.735 205.796 133.583C205.7 133.546 205.621 133.474 205.577 133.38C205.534 133.287 205.528 133.18 205.562 133.083C205.579 133.035 205.605 132.99 205.639 132.952C205.673 132.915 205.714 132.884 205.76 132.862C205.806 132.84 205.856 132.828 205.907 132.826C205.957 132.823 206.008 132.831 206.056 132.849C206.61 133.05 207.098 133.399 207.469 133.857C207.84 134.315 208.08 134.865 208.162 135.449C208.17 135.499 208.168 135.551 208.156 135.601C208.143 135.65 208.121 135.697 208.09 135.738C208.059 135.778 208.02 135.812 207.975 135.838C207.931 135.863 207.881 135.879 207.83 135.884L207.778 135.904ZM202.838 133.427H199.718C199.668 133.427 199.617 133.417 199.57 133.397C199.523 133.378 199.481 133.349 199.445 133.312C199.409 133.276 199.381 133.233 199.362 133.186C199.343 133.139 199.334 133.088 199.335 133.037C199.334 132.986 199.343 132.936 199.362 132.889C199.381 132.842 199.41 132.8 199.445 132.764C199.481 132.728 199.524 132.7 199.571 132.681C199.618 132.662 199.668 132.653 199.718 132.654H202.825C202.876 132.653 202.927 132.662 202.974 132.681C203.021 132.7 203.065 132.728 203.101 132.764C203.137 132.799 203.166 132.842 203.186 132.889C203.205 132.936 203.215 132.986 203.215 133.037C203.215 133.088 203.205 133.139 203.186 133.186C203.166 133.234 203.137 133.277 203.101 133.313C203.065 133.349 203.022 133.378 202.975 133.397C202.927 133.417 202.877 133.427 202.825 133.427H202.838ZM196.631 133.427H193.524C193.473 133.427 193.422 133.417 193.375 133.397C193.327 133.378 193.284 133.349 193.248 133.313C193.212 133.277 193.183 133.234 193.164 133.186C193.144 133.139 193.134 133.088 193.134 133.037C193.134 132.986 193.144 132.936 193.164 132.889C193.183 132.842 193.212 132.799 193.249 132.764C193.285 132.728 193.328 132.7 193.375 132.681C193.422 132.662 193.473 132.653 193.524 132.654H196.631C196.682 132.653 196.732 132.662 196.779 132.681C196.826 132.7 196.868 132.728 196.904 132.764C196.94 132.8 196.968 132.842 196.987 132.889C197.006 132.936 197.015 132.986 197.014 133.037C197.015 133.089 197.006 133.141 196.986 133.189C196.966 133.237 196.937 133.281 196.9 133.317C196.863 133.354 196.819 133.382 196.77 133.401C196.722 133.42 196.67 133.429 196.618 133.427H196.631ZM190.417 133.427H187.31C187.259 133.427 187.208 133.417 187.161 133.397C187.113 133.378 187.07 133.349 187.034 133.313C186.998 133.277 186.969 133.234 186.95 133.186C186.93 133.139 186.92 133.088 186.92 133.037C186.92 132.986 186.93 132.936 186.95 132.889C186.969 132.842 186.998 132.799 187.035 132.764C187.071 132.728 187.114 132.7 187.161 132.681C187.208 132.662 187.259 132.653 187.31 132.654H190.417C190.468 132.653 190.518 132.662 190.565 132.681C190.612 132.7 190.654 132.728 190.69 132.764C190.726 132.8 190.754 132.842 190.773 132.889C190.792 132.936 190.801 132.986 190.8 133.037C190.801 133.089 190.792 133.141 190.772 133.189C190.752 133.237 190.723 133.281 190.686 133.317C190.649 133.354 190.605 133.382 190.556 133.401C190.508 133.42 190.456 133.429 190.404 133.427H190.417ZM184.203 133.427H181.096C181.045 133.427 180.994 133.417 180.947 133.397C180.899 133.378 180.856 133.349 180.82 133.313C180.784 133.277 180.755 133.234 180.736 133.186C180.716 133.139 180.706 133.088 180.706 133.037C180.706 132.986 180.716 132.936 180.736 132.889C180.755 132.842 180.784 132.799 180.821 132.764C180.857 132.728 180.9 132.7 180.947 132.681C180.994 132.662 181.045 132.653 181.096 132.654H184.203C184.254 132.653 184.304 132.662 184.352 132.681C184.399 132.7 184.442 132.728 184.478 132.764C184.515 132.799 184.543 132.842 184.563 132.889C184.583 132.936 184.593 132.986 184.593 133.037C184.593 133.089 184.582 133.141 184.562 133.189C184.542 133.238 184.512 133.281 184.474 133.318C184.437 133.354 184.392 133.382 184.343 133.401C184.294 133.42 184.242 133.429 184.19 133.427H184.203ZM177.989 133.427H174.882C174.831 133.427 174.78 133.417 174.733 133.397C174.685 133.378 174.642 133.349 174.606 133.313C174.57 133.277 174.541 133.234 174.522 133.186C174.502 133.139 174.492 133.088 174.492 133.037C174.492 132.986 174.502 132.936 174.522 132.889C174.541 132.842 174.57 132.799 174.607 132.764C174.643 132.728 174.686 132.7 174.733 132.681C174.78 132.662 174.831 132.653 174.882 132.654H177.989C178.04 132.653 178.09 132.662 178.138 132.681C178.185 132.7 178.228 132.728 178.264 132.764C178.301 132.799 178.329 132.842 178.349 132.889C178.369 132.936 178.379 132.986 178.379 133.037C178.379 133.089 178.368 133.141 178.348 133.189C178.328 133.238 178.298 133.281 178.26 133.318C178.223 133.354 178.178 133.382 178.129 133.401C178.08 133.42 178.028 133.429 177.976 133.427H177.989ZM171.775 133.427H168.668C168.617 133.427 168.567 133.417 168.52 133.397C168.473 133.378 168.43 133.349 168.394 133.312C168.359 133.276 168.331 133.233 168.312 133.186C168.293 133.139 168.284 133.088 168.284 133.037C168.284 132.986 168.293 132.936 168.312 132.889C168.331 132.842 168.359 132.8 168.395 132.764C168.431 132.728 168.473 132.7 168.52 132.681C168.567 132.662 168.617 132.653 168.668 132.654H171.775C171.826 132.653 171.876 132.662 171.924 132.681C171.971 132.7 172.014 132.728 172.05 132.764C172.087 132.799 172.115 132.842 172.135 132.889C172.155 132.936 172.165 132.986 172.165 133.037C172.165 133.089 172.154 133.141 172.134 133.189C172.114 133.238 172.084 133.281 172.046 133.318C172.009 133.354 171.964 133.382 171.915 133.401C171.866 133.42 171.814 133.429 171.762 133.427H171.775ZM165.567 133.427H165.528C164.432 133.345 163.368 133.012 162.421 132.452C162.366 132.433 162.316 132.402 162.274 132.361C162.232 132.32 162.201 132.271 162.181 132.216C162.161 132.161 162.154 132.102 162.159 132.044C162.165 131.986 162.184 131.93 162.214 131.88C162.245 131.83 162.286 131.788 162.335 131.756C162.384 131.724 162.44 131.704 162.498 131.696C162.555 131.689 162.614 131.694 162.67 131.713C162.725 131.731 162.776 131.762 162.818 131.802C163.662 132.3 164.61 132.598 165.587 132.673C165.638 132.676 165.688 132.69 165.733 132.713C165.779 132.735 165.82 132.767 165.853 132.806C165.887 132.845 165.912 132.89 165.927 132.938C165.943 132.987 165.949 133.038 165.944 133.089C165.927 133.184 165.875 133.27 165.798 133.329C165.721 133.387 165.625 133.416 165.528 133.408L165.567 133.427ZM130.695 131.25C130.644 131.246 130.594 131.233 130.548 131.21C130.501 131.187 130.46 131.156 130.427 131.117C130.393 131.079 130.367 131.034 130.35 130.985C130.334 130.936 130.327 130.885 130.331 130.834L130.5 128.136C130.5 127.989 130.519 127.839 130.558 127.688C130.563 127.633 130.579 127.58 130.605 127.532C130.632 127.483 130.668 127.441 130.712 127.408C130.756 127.375 130.806 127.352 130.859 127.339C130.913 127.327 130.968 127.326 131.022 127.337C131.076 127.347 131.127 127.369 131.172 127.401C131.217 127.432 131.255 127.473 131.283 127.52C131.311 127.568 131.328 127.62 131.335 127.675C131.341 127.729 131.336 127.785 131.319 127.837C131.299 127.951 131.286 128.066 131.28 128.182L131.111 130.886C131.096 130.987 131.044 131.078 130.964 131.142C130.885 131.206 130.784 131.238 130.682 131.23L130.695 131.25ZM160.413 130.366C160.348 130.367 160.284 130.352 160.227 130.321C160.17 130.29 160.122 130.245 160.088 130.19C159.572 129.383 159.226 128.478 159.074 127.532C159.003 127.086 158.811 126.668 158.518 126.324C158.226 125.981 157.845 125.724 157.416 125.582C157.323 125.546 157.247 125.476 157.203 125.386C157.16 125.295 157.153 125.192 157.184 125.097C157.215 125.001 157.281 124.922 157.369 124.874C157.457 124.826 157.56 124.814 157.657 124.841C158.219 125.027 158.72 125.363 159.105 125.814C159.49 126.264 159.744 126.811 159.841 127.395C159.978 128.236 160.283 129.041 160.738 129.761C160.766 129.804 160.784 129.851 160.794 129.901C160.803 129.951 160.802 130.002 160.791 130.052C160.78 130.102 160.759 130.149 160.73 130.19C160.701 130.232 160.664 130.267 160.621 130.294C160.554 130.332 160.477 130.35 160.4 130.346L160.413 130.366ZM132.749 125.783C132.66 125.787 132.572 125.759 132.501 125.705C132.43 125.65 132.38 125.573 132.36 125.486C132.34 125.399 132.351 125.307 132.391 125.228C132.431 125.148 132.498 125.084 132.58 125.049C133.065 124.81 133.599 124.685 134.14 124.685H135.81C135.914 124.685 136.013 124.726 136.086 124.799C136.159 124.872 136.2 124.971 136.2 125.075C136.2 125.178 136.159 125.277 136.086 125.35C136.013 125.423 135.914 125.465 135.81 125.465H134.14C133.717 125.463 133.299 125.559 132.918 125.744C132.86 125.765 132.797 125.772 132.736 125.764L132.749 125.783ZM154.446 125.465H151.339C151.236 125.465 151.136 125.423 151.063 125.35C150.99 125.277 150.949 125.178 150.949 125.075C150.949 124.971 150.99 124.872 151.063 124.799C151.136 124.726 151.236 124.685 151.339 124.685H154.446C154.549 124.685 154.649 124.726 154.722 124.799C154.795 124.872 154.836 124.971 154.836 125.075C154.836 125.178 154.795 125.277 154.722 125.35C154.649 125.423 154.549 125.465 154.446 125.465ZM148.232 125.465H145.125C145.022 125.465 144.922 125.423 144.849 125.35C144.776 125.277 144.735 125.178 144.735 125.075C144.735 124.971 144.776 124.872 144.849 124.799C144.922 124.726 145.022 124.685 145.125 124.685H148.232C148.335 124.685 148.435 124.726 148.508 124.799C148.581 124.872 148.622 124.971 148.622 125.075C148.622 125.178 148.581 125.277 148.508 125.35C148.435 125.423 148.335 125.465 148.232 125.465ZM142.018 125.465H138.878C138.775 125.465 138.676 125.423 138.603 125.35C138.53 125.277 138.488 125.178 138.488 125.075C138.488 124.971 138.53 124.872 138.603 124.799C138.676 124.726 138.775 124.685 138.878 124.685H141.979C142.082 124.685 142.182 124.726 142.255 124.799C142.328 124.872 142.369 124.971 142.369 125.075C142.369 125.178 142.328 125.277 142.255 125.35C142.182 125.423 142.082 125.465 141.979 125.465H142.018Z" fill="#0065BD"/>
<path opacity="0.24" d="M215.678 29.6804C214.351 29.7884 213.02 29.8209 211.69 29.7779C211.219 29.6765 210.737 29.6437 210.257 29.6804H210.103C206.348 29.4034 202.632 28.7214 199.019 27.6459C194.488 26.2152 190.312 23.8123 186.775 20.5999C185.916 19.7595 184.768 19.2931 183.576 19.2999H178.148C176.932 19.3089 175.761 19.7715 174.859 20.5999C171.105 23.8026 166.75 26.1995 162.059 27.6459C158.392 28.7166 154.626 29.3985 150.821 29.6804H150.667C150.185 29.6437 149.7 29.6765 149.227 29.7779C147.899 29.821 146.57 29.7884 145.246 29.6804C144.565 29.6274 143.879 29.7138 143.231 29.9343C142.582 30.1548 141.984 30.505 141.471 30.9642C140.958 31.4235 140.54 31.9825 140.244 32.6082C139.947 33.2339 139.776 33.9137 139.742 34.6074L137.656 89.3114C137.609 90.4188 137.835 91.5208 138.315 92.5165C138.794 93.5123 139.512 94.3702 140.402 95.0119L170.577 116.566C171.689 117.358 173.015 117.78 174.372 117.775H179.793C181.179 117.77 182.533 117.349 183.684 116.566L215.498 95.0119C216.435 94.3839 217.213 93.5406 217.769 92.5501C218.325 91.5597 218.643 90.4501 218.698 89.3114L220.778 34.6074C220.806 33.931 220.69 33.2565 220.44 32.629C220.19 32.0016 219.811 31.4356 219.328 30.9691C218.845 30.5026 218.269 30.1463 217.64 29.924C217.01 29.7018 216.341 29.6187 215.678 29.6804Z" fill="black"/>
<path d="M210.398 25.1306C209.051 25.2386 207.699 25.2711 206.348 25.2281C205.87 25.1267 205.38 25.0939 204.892 25.1306H204.736C200.922 24.8536 197.148 24.1716 193.478 23.0961C188.876 21.6654 184.636 19.2625 181.044 16.0501C180.171 15.2097 179.005 14.7433 177.794 14.7501H172.282C171.046 14.7591 169.857 15.2217 168.941 16.0501C165.128 19.2528 160.706 21.6497 155.941 23.0961C152.217 24.1668 148.391 24.8486 144.527 25.1306H144.371C143.881 25.0939 143.389 25.1267 142.908 25.2281C141.56 25.2712 140.21 25.2386 138.865 25.1306C138.173 25.0776 137.477 25.164 136.818 25.3845C136.159 25.605 135.552 25.9552 135.03 26.4144C134.509 26.8737 134.086 27.4327 133.784 28.0584C133.483 28.6841 133.31 29.3639 133.275 30.0576L131.156 84.7616C131.108 85.869 131.338 86.971 131.825 87.9667C132.312 88.9625 133.041 89.8204 133.945 90.4621L164.592 112.016C165.721 112.808 167.068 113.23 168.447 113.225H173.952C175.36 113.22 176.735 112.799 177.904 112.016L210.216 90.4621C211.167 89.8341 211.957 88.9907 212.522 88.0003C213.087 87.0099 213.41 85.9003 213.466 84.7616L215.578 30.0576C215.606 29.3812 215.489 28.7067 215.235 28.0792C214.981 27.4518 214.596 26.8858 214.105 26.4193C213.615 25.9528 213.03 25.5965 212.391 25.3742C211.751 25.1519 211.072 25.0689 210.398 25.1306Z" fill="#4C93D1"/>
<path d="M134.738 84.6573L136.759 32.3518C136.804 31.3928 137.214 30.4874 137.906 29.8213C138.597 29.1553 139.517 28.7792 140.477 28.7703H141.667C146.81 28.7064 151.921 27.941 156.857 26.4953C161.553 25.0722 165.955 22.8202 169.857 19.8458C170.5 19.3221 171.303 19.0361 172.132 19.0361C172.961 19.0361 173.765 19.3221 174.407 19.8458C178.11 22.8391 182.35 25.0981 186.9 26.5018C191.777 27.9548 196.833 28.7205 201.922 28.7768H203.02C203.494 28.7727 203.963 28.8653 204.399 29.049C204.836 29.2326 205.23 29.5034 205.558 29.8449C205.886 30.1863 206.141 30.5911 206.307 31.0344C206.473 31.4778 206.547 31.9504 206.524 32.4233L204.502 84.6638C204.475 85.2523 204.31 85.8262 204.019 86.3389C203.729 86.8516 203.322 87.2887 202.832 87.6148L170.722 109.065C170.126 109.471 169.421 109.688 168.7 109.688C167.979 109.688 167.274 109.471 166.679 109.065L136.22 87.6148C135.743 87.2866 135.358 86.8434 135.099 86.3264C134.84 85.8093 134.715 85.2352 134.738 84.6573Z" fill="#0065BD"/>
<path opacity="0.2" d="M143.662 81.8952L145.378 37.4287C149.973 37.0651 154.52 36.2398 158.95 34.9652C163.469 33.6061 167.777 31.624 171.749 29.0762C175.553 31.6359 179.715 33.6203 184.099 34.9652C188.463 36.2454 192.948 37.0709 197.482 37.4287L195.76 81.8952L169.019 99.7312L143.662 81.8952Z" fill="white"/>
<path d="M179.881 72.2002C185.349 66.9015 185.745 58.4409 180.766 53.303C175.787 48.1651 167.318 48.2955 161.85 53.5943C156.383 58.893 155.986 67.3536 160.965 72.4914C165.944 77.6293 174.413 77.4989 179.881 72.2002Z" fill="#0065BD"/>
<path d="M169.86 53.4005H173.072C173.227 53.3982 173.382 53.4285 173.526 53.4895C173.669 53.5504 173.798 53.6408 173.905 53.7546C174.011 53.8685 174.093 54.0033 174.144 54.1506C174.195 54.2978 174.215 54.4541 174.202 54.6095L174.014 57.645C174.017 57.6948 174.017 57.7447 174.014 57.7945L172.597 65.328C172.541 65.6231 172.386 65.8898 172.156 66.0829C171.926 66.2761 171.636 66.3837 171.336 66.3875H169.997C169.707 66.3914 169.428 66.2833 169.216 66.086C169.004 65.8886 168.876 65.6171 168.859 65.328L168.411 57.788V57.645L168.599 54.6095C168.622 54.2874 168.764 53.9851 168.997 53.7616C169.23 53.5382 169.538 53.4094 169.86 53.4005ZM169.523 68.045H171.583C171.739 68.0427 171.894 68.073 172.037 68.134C172.181 68.1949 172.31 68.2853 172.416 68.3991C172.523 68.513 172.604 68.6478 172.655 68.7951C172.707 68.9423 172.727 69.0986 172.714 69.254L172.616 70.7945C172.593 71.1233 172.446 71.431 172.205 71.6555C171.964 71.8799 171.646 72.0043 171.316 72.0035H169.256C169.1 72.0049 168.946 71.9739 168.803 71.9126C168.66 71.8512 168.531 71.7609 168.425 71.6473C168.319 71.5336 168.237 71.3992 168.186 71.2524C168.134 71.1056 168.113 70.9497 168.125 70.7945L168.223 69.254C168.246 68.9253 168.393 68.6175 168.634 68.3931C168.875 68.1686 169.193 68.0442 169.523 68.045Z" fill="white"/>
<g opacity="0.3">
<path d="M168.694 141.815C170.113 141.815 171.518 142.095 172.829 142.638C174.14 143.181 175.331 143.977 176.335 144.98C177.338 145.984 178.134 147.175 178.677 148.486C179.22 149.797 179.5 151.202 179.5 152.621V160.137C179.5 160.519 179.424 160.897 179.278 161.249C179.132 161.602 178.918 161.922 178.649 162.192C178.379 162.462 178.058 162.676 177.706 162.822C177.353 162.968 176.976 163.043 176.594 163.043H160.793C160.023 163.043 159.284 162.737 158.739 162.192C158.194 161.647 157.888 160.908 157.888 160.137V152.621C157.888 151.202 158.167 149.797 158.71 148.486C159.253 147.175 160.049 145.984 161.053 144.98C162.056 143.977 163.247 143.181 164.558 142.638C165.869 142.095 167.275 141.815 168.694 141.815Z" fill="#4C93D1"/>
<path d="M167.326 149.128H170.066C170.132 149.127 170.198 149.139 170.26 149.164C170.321 149.189 170.377 149.226 170.425 149.273C170.472 149.32 170.509 149.376 170.535 149.437C170.561 149.498 170.574 149.564 170.574 149.631V166.281C170.574 166.785 170.374 167.268 170.018 167.624C169.661 167.98 169.178 168.18 168.675 168.18C168.175 168.174 167.698 167.971 167.347 167.616C166.996 167.26 166.799 166.781 166.799 166.281V149.631C166.799 149.563 166.813 149.495 166.84 149.433C166.867 149.37 166.906 149.313 166.955 149.266C167.004 149.219 167.063 149.183 167.126 149.159C167.19 149.135 167.258 149.124 167.326 149.128Z" fill="#4C93D1"/>
<path d="M170.621 149.128H173.365C173.431 149.127 173.497 149.139 173.559 149.165C173.62 149.19 173.676 149.227 173.722 149.274C173.769 149.32 173.806 149.376 173.831 149.437C173.857 149.499 173.869 149.565 173.868 149.631V166.281C173.869 166.781 173.672 167.26 173.321 167.616C172.97 167.971 172.493 168.174 171.993 168.18C171.489 168.18 171.006 167.98 170.65 167.624C170.294 167.268 170.094 166.785 170.094 166.281V149.631C170.094 149.563 170.108 149.495 170.134 149.433C170.161 149.37 170.2 149.313 170.25 149.266C170.299 149.219 170.357 149.183 170.421 149.159C170.485 149.135 170.553 149.124 170.621 149.128Z" fill="#4C93D1"/>
<path d="M164.027 149.128H166.771C166.904 149.128 167.032 149.181 167.127 149.275C167.221 149.37 167.274 149.498 167.274 149.631V166.282C167.274 166.785 167.074 167.268 166.718 167.624C166.362 167.981 165.879 168.181 165.375 168.181C164.875 168.174 164.398 167.972 164.047 167.616C163.696 167.261 163.5 166.781 163.5 166.282V149.631C163.499 149.563 163.512 149.495 163.539 149.432C163.565 149.369 163.604 149.312 163.654 149.265C163.703 149.218 163.762 149.181 163.826 149.158C163.89 149.134 163.958 149.124 164.027 149.128Z" fill="#4C93D1"/>
</g>
<path d="M168.02 157.131L166.562 158.917C166.46 159.045 166.396 159.2 166.377 159.364C166.359 159.527 166.386 159.692 166.457 159.841C166.528 159.989 166.639 160.115 166.777 160.203C166.916 160.291 167.076 160.339 167.241 160.341H170.151C170.316 160.339 170.476 160.291 170.615 160.203C170.753 160.115 170.864 159.989 170.935 159.841C171.006 159.692 171.033 159.527 171.015 159.364C170.996 159.2 170.932 159.045 170.83 158.917L169.377 157.131C169.295 157.03 169.192 156.949 169.075 156.893C168.957 156.837 168.829 156.808 168.698 156.808C168.568 156.808 168.44 156.837 168.322 156.893C168.205 156.949 168.101 157.03 168.02 157.131Z" fill="white"/>
<path d="M160.67 155.789C161.083 157.213 162.892 157.935 164.705 157.403C166.519 156.871 167.659 155.29 167.241 153.871C166.823 152.451 165.019 151.725 163.205 152.256C161.391 152.788 160.252 154.369 160.67 155.789Z" fill="white"/>
<path d="M176.722 155.789C176.309 157.213 174.5 157.935 172.687 157.403C170.873 156.871 169.733 155.29 170.151 153.871C170.569 152.451 172.373 151.725 174.187 152.256C176.001 152.788 177.14 154.369 176.722 155.789Z" fill="white"/>
</svg>
