<svg width="82" height="80" viewBox="0 0 82 80" fill="none" xmlns="http://www.w3.org/2000/svg">
<path d="M77.8499 41.0928C77.4573 49.4015 74.5027 57.385 69.3915 63.9473C65.6079 68.9041 60.7389 72.9281 55.1582 75.7106C49.5775 78.493 43.4336 79.9599 37.1978 79.9985C32.1588 80.037 27.1651 79.0433 22.5246 77.0788C17.8841 75.1142 13.6949 72.2204 10.2151 68.5756C6.73526 64.9307 4.03852 60.6121 2.29095 55.8855C0.543386 51.159 -0.217999 46.1248 0.0536989 41.0928C0.58775 30.6512 5.09058 20.808 12.6414 13.5762C20.1921 6.34436 30.2204 2.27031 40.6754 2.18715C45.7183 2.14013 50.7172 3.1277 55.3634 5.08885C60.0096 7.05 64.2043 9.94307 67.6882 13.5893C71.1722 17.2355 73.8715 21.5574 75.6193 26.288C77.3671 31.0186 78.1262 36.0573 77.8499 41.0928Z" fill="#E3F2FC"/>
<path d="M81.5102 10.3267C81.4111 12.5359 80.6255 14.6593 79.2627 16.4009C78.2544 17.7175 76.9586 18.7863 75.4743 19.5258C73.9899 20.2653 72.3563 20.656 70.698 20.6681C69.0913 20.6779 67.5067 20.2941 66.0826 19.5502C64.6584 18.8064 63.438 17.7251 62.5281 16.4009C61.3232 14.6116 60.7268 12.4816 60.8273 10.3267C60.9741 7.55438 62.173 4.9425 64.1793 3.02368C66.1856 1.10485 68.8483 0.0235889 71.6244 0.000408743C72.9636 -0.0118167 74.2912 0.250323 75.5253 0.770676C76.7594 1.29103 77.8738 2.05857 78.8 3.02602C79.7262 3.99346 80.4445 5.1403 80.9106 6.39589C81.3767 7.65148 81.5807 8.98922 81.5102 10.3267Z" fill="#0065BD"/>
<path d="M50.279 39.0664C56.635 32.8508 56.9722 22.888 51.0323 16.8138C45.0923 10.7396 35.1244 10.8542 28.7683 17.0698C22.4123 23.2854 22.0751 33.2482 28.0151 39.3224C33.9551 45.3966 43.9229 45.282 50.279 39.0664Z" fill="#0065BD"/>
<path d="M69.3923 63.9474C65.6087 68.9042 60.7397 72.9282 55.159 75.7107C49.5784 78.4931 43.4344 79.96 37.1987 79.9986C31.1519 80.0499 25.1853 78.6126 19.8252 75.8134C14.4651 73.0141 9.87611 68.939 6.46289 63.9474C13.8431 56.5975 25.5209 51.7988 38.4591 51.7988C51.3973 51.7988 62.6651 56.5975 69.3923 63.9474Z" fill="#0065BD"/>
<rect x="65.5352" y="8.62573" width="10.63" height="3.03713" fill="white"/>
</svg>
