<svg width="112" height="115" viewBox="0 0 112 115" fill="none" xmlns="http://www.w3.org/2000/svg">
<path d="M12.3004 54.0395H78.7219C79.9901 54.027 81.2471 54.2778 82.4134 54.7759C83.5797 55.2741 84.6299 56.0088 85.4977 56.9337C86.3655 57.8585 87.032 58.9533 87.455 60.1489C87.878 61.3445 88.0484 62.6149 87.9553 63.8797L86.1021 93.9416C85.8983 96.588 84.7146 99.0632 82.7825 100.883C80.8504 102.703 78.3089 103.737 75.655 103.782H67.9633L71.1039 114.106L56.0812 103.782H9.25814C7.98996 103.794 6.73299 103.544 5.5667 103.045C4.4004 102.547 3.35014 101.813 2.48234 100.888C1.61453 99.9628 0.94804 98.868 0.525019 97.6724C0.101999 96.4768 -0.0683543 95.2064 0.0247262 93.9416L1.86157 63.8797C2.06521 61.2347 3.24775 58.7607 5.17812 56.941C7.10849 55.1213 9.64799 54.0868 12.3004 54.0395Z" fill="#0065BD"/>
<path d="M72.6369 69.7839H16.4656C16.2271 69.7826 15.9915 69.7318 15.7737 69.6347C15.5559 69.5376 15.3606 69.3963 15.2003 69.2197C15.0399 69.0432 14.918 68.8353 14.8422 68.6091C14.7664 68.383 14.7384 68.1436 14.76 67.9061C14.7967 67.4084 15.0181 66.9425 15.3807 66.5996C15.7433 66.2567 16.2209 66.0617 16.7198 66.0529H72.8993C73.1366 66.0534 73.3712 66.1027 73.5886 66.1977C73.806 66.2928 74.0015 66.4315 74.163 66.6053C74.3245 66.7791 74.4485 66.9843 74.5274 67.2081C74.6062 67.4318 74.6382 67.6694 74.6213 67.9061C74.5921 68.413 74.3704 68.8896 74.0016 69.2386C73.6328 69.5877 73.1447 69.7827 72.6369 69.7839Z" fill="white"/>
<path d="M39.3609 80.764H15.7936C15.555 80.7657 15.3185 80.7181 15.0992 80.624C14.8799 80.53 14.6824 80.3916 14.5191 80.2175C14.3558 80.0435 14.2303 79.8375 14.1505 79.6126C14.0706 79.3878 14.0382 79.1488 14.0552 78.9107C14.092 78.4117 14.3146 77.9446 14.6789 77.6015C15.0432 77.2584 15.5228 77.0643 16.0232 77.0575H39.6151C39.8545 77.0546 40.0918 77.1014 40.3121 77.195C40.5324 77.2885 40.7309 77.4267 40.8951 77.6009C41.0592 77.7751 41.1855 77.9814 41.2658 78.2069C41.3461 78.4323 41.3788 78.672 41.3618 78.9107C41.3226 79.4147 41.0948 79.8854 40.724 80.2289C40.3531 80.5724 39.8664 80.7634 39.3609 80.764Z" fill="white"/>
<path d="M59.5576 91.744H15.1208C14.8821 91.7457 14.6457 91.698 14.4264 91.604C14.207 91.51 14.0095 91.3716 13.8462 91.1975C13.683 91.0235 13.5575 90.8175 13.4776 90.5926C13.3978 90.3677 13.3653 90.1288 13.3823 89.8907C13.4173 89.391 13.6393 88.9228 14.004 88.5793C14.3687 88.2359 14.8494 88.0424 15.3504 88.0375H59.7872C60.0262 88.0345 60.2632 88.0813 60.4831 88.1749C60.703 88.2686 60.901 88.4069 61.0645 88.5812C61.2281 88.7556 61.3535 88.962 61.4329 89.1875C61.5123 89.4129 61.5438 89.6524 61.5256 89.8907C61.4887 90.3898 61.2662 90.8569 60.9019 91.2C60.5376 91.543 60.0579 91.7371 59.5576 91.744Z" fill="white"/>
<path d="M56.6723 80.764H47.3815C47.1429 80.7657 46.9064 80.7181 46.6871 80.624C46.4678 80.53 46.2702 80.3916 46.107 80.2175C45.9437 80.0435 45.8182 79.8375 45.7384 79.6127C45.6585 79.3878 45.6261 79.1488 45.6431 78.9107C45.6817 78.4124 45.9048 77.9463 46.2688 77.6036C46.6327 77.2609 47.1113 77.0662 47.6111 77.0575H56.8937C57.1327 77.0545 57.3697 77.1013 57.5896 77.195C57.8095 77.2886 58.0075 77.4269 58.1711 77.6013C58.3346 77.7756 58.46 77.982 58.5394 78.2075C58.6188 78.4329 58.6504 78.6724 58.6321 78.9107C58.5954 79.4084 58.374 79.8744 58.0114 80.2173C57.6489 80.5601 57.1712 80.7551 56.6723 80.764Z" fill="white"/>
<path d="M104.79 0.000317511H68.5784C66.5134 0.0313111 64.5346 0.833458 63.0309 2.24914C61.5272 3.66483 60.6073 5.59169 60.452 7.65109L59.0416 31.0544C58.9713 32.0384 59.1056 33.0263 59.4361 33.9557C59.7666 34.8852 60.286 35.7362 60.9616 36.455C61.6373 37.1737 62.4545 37.7448 63.3618 38.1321C64.269 38.5194 65.2467 38.7145 66.2331 38.7052H72.1619L68.7342 46.7414L81.4117 38.7052H102.421C104.486 38.6742 106.464 37.872 107.968 36.4564C109.472 35.0407 110.392 33.1138 110.547 31.0544L111.982 7.65109C112.052 6.66711 111.918 5.67925 111.587 4.74976C111.257 3.82028 110.738 2.96933 110.062 2.25054C109.386 1.53176 108.569 0.960725 107.662 0.57344C106.755 0.186154 105.777 -0.00898352 104.79 0.000317511Z" fill="#0065BD"/>
<g opacity="0.5">
<path d="M104.791 0.000317511H68.5794C66.5144 0.0313111 64.5356 0.833458 63.0319 2.24914C61.5282 3.66483 60.6083 5.59169 60.453 7.65109L59.0426 31.0544C58.9723 32.0384 59.1066 33.0263 59.4371 33.9557C59.7675 34.8852 60.287 35.7362 60.9626 36.455C61.6382 37.1737 62.4555 37.7448 63.3627 38.1321C64.27 38.5194 65.2477 38.7145 66.2341 38.7052H72.1629L68.7352 46.7414L81.4127 38.7052H102.422C104.487 38.6742 106.465 37.872 107.969 36.4564C109.473 35.0407 110.393 33.1138 110.548 31.0544L111.983 7.65109C112.053 6.66711 111.919 5.67925 111.588 4.74976C111.258 3.82028 110.739 2.96933 110.063 2.25054C109.387 1.53176 108.57 0.960725 107.663 0.57344C106.755 0.186154 105.778 -0.00898352 104.791 0.000317511Z" fill="#FAFAFA"/>
</g>
<path d="M87.332 23.1823C87.2073 23.6977 86.9132 24.1564 86.497 24.4849C86.0807 24.8135 85.5663 24.9929 85.036 24.9945H82.8957C82.8957 24.3877 82.9449 24.0187 82.9531 23.8875C82.9841 22.7055 83.2872 21.5466 83.8388 20.5008C84.6136 19.335 85.5978 18.3229 86.7416 17.516C87.6538 16.855 88.5145 16.1258 89.3165 15.3347C89.7419 14.8313 89.9948 14.2048 90.0381 13.5471C90.0703 13.1113 90.002 12.674 89.8385 12.2688C89.675 11.8636 89.4207 11.5014 89.0951 11.21C88.2995 10.5285 87.2708 10.1817 86.225 10.2424C85.1253 10.2124 84.0505 10.5726 83.1909 11.2592C82.6801 11.6806 82.2615 12.2026 81.9609 12.7926C81.7394 13.2237 81.3956 13.5797 80.9725 13.816C80.5495 14.0524 80.066 14.1585 79.5829 14.1211C79.2352 14.078 78.904 13.948 78.6199 13.743C78.3359 13.5381 78.1081 13.2647 77.9576 12.9484C77.8072 12.632 77.739 12.2828 77.7594 11.9331C77.7797 11.5833 77.8879 11.2444 78.074 10.9476C78.5688 10.1172 79.2042 9.37911 79.9519 8.76635C81.729 7.3378 83.9631 6.60085 86.2414 6.69171C88.9229 6.69171 91.0057 7.38873 92.5063 8.79096C93.2089 9.39496 93.7618 10.1536 94.1218 11.0072C94.4817 11.8609 94.6389 12.7864 94.581 13.7111C94.5057 14.762 94.1425 15.772 93.5314 16.6303C92.3795 18.0486 91.0481 19.3111 89.5707 20.386C88.8052 20.9205 88.1439 21.5902 87.619 22.3623C87.4856 22.6209 87.389 22.8969 87.332 23.1823ZM82.6497 29.07V28.8076C82.6929 28.215 82.957 27.6602 83.3899 27.2532C83.8227 26.8462 84.3927 26.6166 84.9868 26.61H85.282C85.5661 26.6058 85.8481 26.6608 86.1098 26.7714C86.3716 26.882 86.6076 27.0459 86.8026 27.2525C86.9977 27.4592 87.1477 27.7041 87.2431 27.9718C87.3385 28.2395 87.3771 28.5242 87.3566 28.8076V29.07C87.3136 29.6634 87.0497 30.2191 86.6171 30.6274C86.1844 31.0358 85.6144 31.2672 85.0196 31.2759H84.7572C84.4695 31.2848 84.1833 31.233 83.9169 31.124C83.6506 31.0149 83.4103 30.851 83.2115 30.643C83.0127 30.4349 82.8599 30.1873 82.7631 29.9163C82.6664 29.6453 82.6277 29.3569 82.6497 29.07Z" fill="white"/>
</svg>
