<svg width="78" height="80" viewBox="0 0 78 80" fill="none" xmlns="http://www.w3.org/2000/svg">
<path d="M30.3574 52.6696V60.1566L34.1924 60.5437C34.7034 63.008 35.6776 65.3528 37.0634 67.4537L34.5865 70.4513L39.8851 75.7429L42.8757 73.266C44.978 74.6552 47.3254 75.6319 49.7927 76.144L50.1516 80.0001H57.6457L58.0045 76.144C60.4718 75.6319 62.8193 74.6552 64.9216 73.266L67.9122 75.7429L73.2108 70.4513L70.7832 67.4326C72.1683 65.3306 73.1446 62.9863 73.6612 60.5225L77.5173 60.1566V52.6696L73.6612 52.3037C73.1447 49.8378 72.1683 47.4912 70.7832 45.3866L73.2601 42.3961L67.9685 37.0974L64.9779 39.5744C62.8736 38.1902 60.5268 37.2161 58.0608 36.7034L57.702 32.8473H50.1727L49.8139 36.7034C47.3479 37.2161 45.001 38.1902 42.8968 39.5744L39.9062 37.0974L34.6076 42.3961L37.0845 45.3866C35.6993 47.4912 34.723 49.8378 34.2065 52.3037L30.3574 52.6696ZM53.8951 46.2733C55.9006 46.2733 57.861 46.868 59.5285 47.9821C61.196 49.0963 62.4957 50.68 63.2631 52.5328C64.0306 54.3856 64.2314 56.4244 63.8401 58.3913C63.4489 60.3583 62.4832 62.165 61.0651 63.5831C59.647 65.0012 57.8402 65.9669 55.8733 66.3582C53.9064 66.7494 51.8676 66.5486 50.0148 65.7811C48.1619 65.0137 46.5783 63.714 45.4641 62.0465C44.35 60.379 43.7553 58.4186 43.7553 56.4131C43.7553 55.0815 44.0175 53.763 44.5271 52.5328C45.0367 51.3026 45.7836 50.1847 46.7251 49.2432C47.6667 48.3016 48.7845 47.5547 50.0148 47.0451C51.245 46.5355 52.5635 46.2733 53.8951 46.2733Z" fill="#0065BD"/>
<path opacity="0.7" d="M0 31.1654V37.034L3.02578 37.3154C3.42509 39.2483 4.18931 41.0872 5.27751 42.7337L3.33538 45.0628L7.48703 49.2075L9.83025 47.2653C11.4777 48.3533 13.3161 49.1197 15.2485 49.5241L15.537 52.5428H21.4056L21.687 49.5241C23.6198 49.121 25.4585 48.3545 27.1053 47.2653L29.4485 49.2075L33.6002 45.0628L31.658 42.7126C32.7484 41.0664 33.515 39.2275 33.9168 37.2943L36.9355 37.0129V31.1443L33.9168 30.8558C33.5124 28.9234 32.746 27.085 31.658 25.4375L33.6002 23.0943L29.4485 18.9427L27.1053 20.8848C25.4566 19.8007 23.6185 19.0368 21.687 18.6331L21.4056 15.6073H15.537L15.2485 18.6331C13.3175 19.0382 11.4796 19.802 9.83025 20.8848L7.48703 18.9427L3.33538 23.0943L5.27751 25.4375C4.19174 27.0853 3.42771 28.9238 3.02578 30.8558L0 31.1654ZM18.4713 26.1553C20.0425 26.1553 21.5785 26.6212 22.885 27.4942C24.1914 28.3671 25.2097 29.6079 25.811 31.0595C26.4123 32.5112 26.5696 34.1085 26.263 35.6496C25.9565 37.1906 25.1999 38.6062 24.0888 39.7172C22.9778 40.8283 21.5622 41.5849 20.0212 41.8915C18.4801 42.198 16.8827 42.0407 15.4311 41.4394C13.9794 40.8381 12.7387 39.8198 11.8657 38.5134C10.9928 37.2069 10.5269 35.671 10.5269 34.0997C10.5269 31.9927 11.3639 29.972 12.8537 28.4821C14.3436 26.9923 16.3643 26.1553 18.4713 26.1553Z" fill="#0065BD"/>
<path d="M32.7285 13.046V17.9717L35.2688 18.2109C35.6103 19.8333 36.2523 21.3774 37.1616 22.7637L35.5291 24.7269L39.0475 28.2452L41.0107 26.6127C42.3969 27.5221 43.9411 28.1641 45.5634 28.5056L45.8027 31.0458H50.7283L50.9676 28.5056C52.5903 28.1654 54.1347 27.5233 55.5203 26.6127L57.4906 28.2452L60.9738 24.7269L59.3412 22.7637C60.2506 21.3774 60.8926 19.8333 61.2341 18.2109L63.7744 17.9717V13.046L61.2341 12.8068C60.8939 11.184 60.2518 9.63966 59.3412 8.25403L60.9738 6.28377L57.4906 2.80061L55.5203 4.43312C54.1378 3.51683 52.5923 2.87426 50.9676 2.54025L50.7283 0H45.8027L45.5634 2.54025C43.9392 2.8756 42.3939 3.51806 41.0107 4.43312L39.0475 2.80061L35.5291 6.28377L37.1616 8.25403C36.2511 9.63966 35.609 11.184 35.2688 12.8068L32.7285 13.046ZM48.2444 8.824C49.5654 8.824 50.8568 9.21582 51.9551 9.9499C53.0534 10.684 53.9093 11.7273 54.4146 12.948C54.9198 14.1686 55.0516 15.5116 54.7934 16.8072C54.5351 18.1027 53.8985 19.2926 52.9638 20.2262C52.0292 21.1599 50.8387 21.7953 49.5429 22.0522C48.247 22.309 46.9041 22.1758 45.684 21.6693C44.4639 21.1628 43.4215 20.3058 42.6886 19.2067C41.9557 18.1076 41.5652 16.8158 41.5666 15.4948C41.5694 14.6178 41.7448 13.75 42.083 12.9409C42.4211 12.1318 42.9153 11.3972 43.5374 10.779C44.1594 10.1609 44.8972 9.67134 45.7084 9.33831C46.5197 9.00528 47.3886 8.83529 48.2655 8.83807L48.2444 8.824Z" fill="#BADEFA"/>
<path opacity="0.7" d="M24.1244 32.5798L19.9868 28.4423L14.3363 29.9622L12.8164 35.6126L16.954 39.7502L22.6115 38.2373L24.1244 32.5798Z" fill="#0065BD"/>
<path d="M54.8308 49.2216L48.146 52.0222L47.2383 59.2136L53.0083 63.6045L59.6932 60.7969L60.608 53.6054L54.8308 49.2216Z" fill="#0065BD"/>
<path d="M52.3963 17.9084V13.1093L48.2446 10.7098L44.0859 13.1093V17.9084L48.2446 20.3079L52.3963 17.9084Z" fill="#BADEFA"/>
</svg>
