<svg width="287" height="235" viewBox="0 0 287 235" fill="none" xmlns="http://www.w3.org/2000/svg">
<path d="M286.753 0.541992H140.434V220.741H286.753V0.541992Z" fill="#F5F6F9"/>
<path d="M280.698 8.25684H146.872V213.426H280.698V8.25684Z" fill="#FBFBFB"/>
<path d="M184.693 8.25684L146.872 178.667V86.4128L164.178 8.25684H184.693Z" fill="white"/>
<path d="M201.597 8.25684L161.71 213.426H154.187L194.074 8.25684H201.597Z" fill="white"/>
<path d="M280.697 57.2764V149.547L272.226 213.427H251.71L280.697 57.2764Z" fill="white"/>
<path d="M216.192 0.541992H210.995V220.741H216.192V0.541992Z" fill="#F5F6F9"/>
<path d="M283.946 33.395H142.974V38.5923H283.946V33.395Z" fill="#F5F6F9"/>
<path d="M91.0818 4.49707H16.8738V99.7067H91.0818V4.49707Z" fill="#E6E6E6"/>
<path d="M87.4401 4.49707H0.270752V99.7067H87.4401V4.49707Z" fill="#F5F6F9"/>
<path d="M79.0261 12.9546H8.30884V91.2506H79.0261V12.9546Z" fill="white"/>
<path d="M57.0637 37.9702H31.5369V66.2335H57.0637V37.9702Z" fill="#F5F6F9"/>
<path d="M93.0919 118.855H18.8838V214.065H93.0919V118.855Z" fill="#E6E6E6"/>
<path d="M89.4503 118.855H2.28101V214.065H89.4503V118.855Z" fill="#F5F6F9"/>
<path d="M81.0335 127.312H10.3171V205.609H81.0335V127.312Z" fill="white"/>
<path d="M59.0737 152.33H33.5469V180.593H59.0737V152.33Z" fill="#F5F6F9"/>
<path d="M216 229.5C216 226.458 174.36 224 123 224C71.6401 224 30 226.467 30 229.5C30 232.533 71.6401 235 123 235C174.36 235 216 232.533 216 229.5Z" fill="black" fill-opacity="0.08"/>
<path d="M65.4098 74.228H53.8535V78.2926H65.4098V74.228Z" fill="#0065BD"/>
<path d="M88.8011 75.5562H78.6262V78.7906H88.8011V75.5562Z" fill="#0065BD"/>
<path d="M91.2052 70.39H76.2219L77.5037 68.9688H89.9234L91.2052 70.39Z" fill="#0065BD"/>
<path d="M202.969 69.4409H99.421L91.0859 77.0521H44.0307C43.4635 77.0521 42.9195 77.2774 42.5185 77.6785C42.1174 78.0795 41.8921 78.6235 41.8921 79.1907V164.893C41.8921 165.46 42.1174 166.004 42.5185 166.405C42.9195 166.806 43.4635 167.032 44.0307 167.032H202.969C203.536 167.032 204.08 166.806 204.481 166.405C204.882 166.004 205.108 165.46 205.108 164.893V71.5861C205.108 71.0183 204.883 70.4737 204.482 70.0716C204.081 69.6695 203.537 69.4427 202.969 69.4409Z" fill="#0065BD"/>
<path opacity="0.6" d="M202.969 69.4409H99.421L91.0859 77.0521H44.0307C43.4635 77.0521 42.9195 77.2774 42.5185 77.6785C42.1174 78.0795 41.8921 78.6235 41.8921 79.1907V164.893C41.8921 165.46 42.1174 166.004 42.5185 166.405C42.9195 166.806 43.4635 167.032 44.0307 167.032H202.969C203.536 167.032 204.08 166.806 204.481 166.405C204.882 166.004 205.108 165.46 205.108 164.893V71.5861C205.108 71.0183 204.883 70.4737 204.482 70.0716C204.081 69.6695 203.537 69.4427 202.969 69.4409Z" fill="white"/>
<path d="M205.108 93.7417H41.8921V163.305H205.108V93.7417Z" fill="#0065BD"/>
<path opacity="0.2" d="M205.108 71.5861V164.893C205.106 165.46 204.88 166.003 204.479 166.403C204.079 166.804 203.536 167.03 202.969 167.032H177.333C177.899 167.03 178.442 166.804 178.843 166.403C179.244 166.003 179.47 165.46 179.471 164.893V71.5861C179.471 71.0183 179.246 70.4737 178.845 70.0716C178.444 69.6695 177.901 69.4427 177.333 69.4409H202.969C203.537 69.4427 204.081 69.6695 204.482 70.0716C204.883 70.4737 205.108 71.0183 205.108 71.5861Z" fill="black"/>
<path d="M167.484 73.2725H148.715C147.596 73.2725 146.689 74.1794 146.689 75.2981V88.7406C146.689 89.8593 147.596 90.7663 148.715 90.7663H167.484C168.602 90.7663 169.509 89.8593 169.509 88.7406V75.2981C169.509 74.1794 168.602 73.2725 167.484 73.2725Z" fill="#263238"/>
<path opacity="0.4" d="M166.401 74.228H149.764C148.77 74.228 147.964 75.0339 147.964 76.0279V87.9428C147.964 88.9368 148.77 89.7427 149.764 89.7427H166.401C167.395 89.7427 168.201 88.9368 168.201 87.9428V76.0279C168.201 75.0339 167.395 74.228 166.401 74.228Z" fill="black"/>
<path opacity="0.4" d="M166.108 76.5801H154.22C153.509 76.5801 152.932 77.1569 152.932 77.8685V86.383C152.932 87.0946 153.509 87.6714 154.22 87.6714H166.108C166.82 87.6714 167.397 87.0946 167.397 86.383V77.8685C167.397 77.1569 166.82 76.5801 166.108 76.5801Z" fill="black"/>
<path opacity="0.2" d="M153.809 84.7492V78.7187C153.809 78.4351 153.921 78.1631 154.122 77.9626C154.323 77.7621 154.595 77.6494 154.878 77.6494H162.184C162.184 77.6494 159.381 82.9161 153.809 84.7492Z" fill="white"/>
<path opacity="0.4" d="M125.422 73.2388H111.781C111.113 73.2388 110.572 73.78 110.572 74.4475V76.4134C110.572 77.081 111.113 77.6222 111.781 77.6222H125.422C126.09 77.6222 126.631 77.081 126.631 76.4134V74.4475C126.631 73.78 126.09 73.2388 125.422 73.2388Z" fill="black"/>
<path opacity="0.6" d="M125.635 74.2559H111.568V76.6003H125.635V74.2559Z" fill="white"/>
<path opacity="0.4" d="M102.496 77.6488C103.714 77.6488 104.701 76.6615 104.701 75.4438C104.701 74.226 103.714 73.2388 102.496 73.2388C101.278 73.2388 100.291 74.226 100.291 75.4438C100.291 76.6615 101.278 77.6488 102.496 77.6488Z" fill="black"/>
<path opacity="0.3" d="M83.415 92.5597C83.2511 92.5597 83.0851 92.5464 82.9169 92.5198C82.6964 92.5458 82.4747 92.5591 82.2527 92.5597H82.1199C80.669 92.5091 79.2881 91.9235 78.2433 90.9155C77.1985 89.9075 76.5637 88.5485 76.4613 87.1003C76.3698 85.7492 76.7531 84.4085 77.5449 83.3098C78.3368 82.2112 79.4874 81.4236 80.7982 81.0831V79.7548C80.7999 79.3608 80.9572 78.9834 81.2359 78.7047C81.5145 78.4261 81.8919 78.2688 82.2859 78.2671H83.5677C83.9617 78.2688 84.3391 78.4261 84.6178 78.7047C84.8964 78.9834 85.0537 79.3608 85.0554 79.7548V81.0831C86.4315 81.4391 87.6301 82.2855 88.426 83.4631C89.222 84.6407 89.5604 86.0685 89.3777 87.4781C89.1949 88.8877 88.5037 90.182 87.4338 91.1177C86.3639 92.0535 84.9891 92.5663 83.5677 92.5597H83.415Z" fill="black"/>
<path d="M84.4241 81.6011V79.7414C84.4241 79.5177 84.3352 79.3032 84.177 79.145C84.0188 78.9868 83.8043 78.8979 83.5806 78.8979H82.2988C82.075 78.8979 81.8605 78.9868 81.7023 79.145C81.5441 79.3032 81.4553 79.5177 81.4553 79.7414V81.6011C80.1821 81.808 79.0317 82.482 78.2286 83.4914C77.4255 84.5008 77.0273 85.7733 77.1117 87.0604C77.2072 88.347 77.7733 89.5534 78.702 90.449C79.6306 91.3446 80.8568 91.8666 82.146 91.9154C82.4057 91.9223 82.6655 91.909 82.9231 91.8755C83.0904 91.8989 83.2589 91.9122 83.4278 91.9154C84.7424 91.9506 86.0214 91.4859 87.0067 90.615C87.992 89.7441 88.6103 88.5318 88.7367 87.2229C88.8631 85.9139 88.4883 84.6057 87.6879 83.5623C86.8875 82.519 85.7211 81.818 84.4241 81.6011Z" fill="#0065BD"/>
<path opacity="0.4" d="M84.4241 81.6011V79.7414C84.4241 79.5177 84.3352 79.3032 84.177 79.145C84.0188 78.9868 83.8043 78.8979 83.5806 78.8979H82.2988C82.075 78.8979 81.8605 78.9868 81.7023 79.145C81.5441 79.3032 81.4553 79.5177 81.4553 79.7414V81.6011C80.1821 81.808 79.0317 82.482 78.2286 83.4914C77.4255 84.5008 77.0273 85.7733 77.1117 87.0604C77.2072 88.347 77.7733 89.5534 78.702 90.449C79.6306 91.3446 80.8568 91.8666 82.146 91.9154C82.4057 91.9223 82.6655 91.909 82.9231 91.8755C83.0904 91.8989 83.2589 91.9122 83.4278 91.9154C84.7424 91.9506 86.0214 91.4859 87.0067 90.615C87.992 89.7441 88.6103 88.5318 88.7367 87.2229C88.8631 85.9139 88.4883 84.6057 87.6879 83.5623C86.8875 82.519 85.7211 81.818 84.4241 81.6011Z" fill="white"/>
<path opacity="0.4" d="M83.1422 81.6011V79.7414C83.1422 79.6307 83.1204 79.521 83.078 79.4186C83.0356 79.3163 82.9735 79.2233 82.8952 79.145C82.8169 79.0667 82.7239 79.0045 82.6215 78.9622C82.5192 78.9198 82.4095 78.8979 82.2988 78.8979C82.075 78.8979 81.8605 78.9868 81.7023 79.145C81.5441 79.3032 81.4553 79.5177 81.4553 79.7414V81.6011C80.1821 81.808 79.0317 82.482 78.2286 83.4914C77.4255 84.5008 77.0273 85.7733 77.1117 87.0604C77.1566 88.4396 77.7476 89.7445 78.7546 90.688C79.7616 91.6315 81.1022 92.1363 82.4814 92.0914C83.8606 92.0465 85.1655 91.4555 86.109 90.4485C87.0525 89.4415 87.5573 88.1009 87.5124 86.7217C87.5106 85.4882 87.0699 84.2957 86.2692 83.3575C85.4685 82.4193 84.3601 81.7966 83.1422 81.6011Z" fill="white"/>
<path opacity="0.3" d="M74.3953 88.5747V84.5699C74.3953 84.2765 74.1574 84.0386 73.8639 84.0386H58.8541C58.5606 84.0386 58.3228 84.2765 58.3228 84.5699V88.5747C58.3228 88.8682 58.5606 89.1061 58.8541 89.1061H73.8639C74.1574 89.1061 74.3953 88.8682 74.3953 88.5747Z" fill="black"/>
<path d="M73.7582 84.6753H58.9675V88.461H73.7582V84.6753Z" fill="#0065BD"/>
<path opacity="0.4" d="M73.7582 84.6753H58.9675V88.461H73.7582V84.6753Z" fill="white"/>
<path opacity="0.6" d="M65.297 84.8687H62.5408V88.289H65.297V84.8687Z" fill="white"/>
<path opacity="0.6" d="M65.6756 88.2954H67.0703V84.875H65.6756V88.2954Z" fill="white"/>
<path opacity="0.6" d="M67.6015 88.2954H68.7837V84.875H67.6015V88.2954Z" fill="white"/>
<path opacity="0.6" d="M69.5274 88.2954H70.3311V84.875H69.5274V88.2954Z" fill="white"/>
<path opacity="0.6" d="M71.8451 88.2954H72.2502V84.875H71.8451V88.2954Z" fill="white"/>
<path opacity="0.6" d="M60.7408 88.2954H62.1355V84.875H60.7408V88.2954Z" fill="white"/>
<path opacity="0.6" d="M59.2665 88.2954H60.2561V84.875H59.2665V88.2954Z" fill="white"/>
<path d="M91.6107 70.0845H75.8237V76.1814H91.6107V70.0845Z" fill="#0065BD"/>
<path opacity="0.4" d="M91.6107 70.0845H75.8237V76.1814H91.6107V70.0845Z" fill="white"/>
<path opacity="0.6" d="M82.5784 70.3901H79.6362V75.896H82.5784V70.3901Z" fill="white"/>
<path opacity="0.6" d="M82.983 75.896H84.4707V70.3902H82.983V75.896Z" fill="white"/>
<path opacity="0.6" d="M85.0421 75.896H86.304V70.3902H85.0421V75.896Z" fill="white"/>
<path opacity="0.6" d="M87.0878 75.896H87.9512V70.3902H87.0878V75.896Z" fill="white"/>
<path opacity="0.6" d="M89.5717 75.896H90.0034V70.3902H89.5717V75.896Z" fill="white"/>
<path opacity="0.6" d="M77.71 75.896H79.1978V70.3902H77.71V75.896Z" fill="white"/>
<path opacity="0.6" d="M76.1422 75.896H77.1982V70.3902H76.1422V75.896Z" fill="white"/>
<path d="M67.522 71.2939H51.7351V76.1821H67.522V71.2939Z" fill="#0065BD"/>
<path opacity="0.4" d="M67.522 71.2939H51.7351V76.1821H67.522V71.2939Z" fill="white"/>
<path opacity="0.6" d="M58.4893 71.5386H55.5471V75.9552H58.4893V71.5386Z" fill="white"/>
<path opacity="0.6" d="M58.9012 75.9487H60.3889V71.5321H58.9012V75.9487Z" fill="white"/>
<path opacity="0.6" d="M60.9534 75.9487H62.2153V71.5321H60.9534V75.9487Z" fill="white"/>
<path opacity="0.6" d="M62.9989 75.9487H63.8623V71.5321H62.9989V75.9487Z" fill="white"/>
<path opacity="0.6" d="M65.4826 75.9487H65.9143V71.5321H65.4826V75.9487Z" fill="white"/>
<path opacity="0.6" d="M53.6275 75.9487H55.1152V71.5321H53.6275V75.9487Z" fill="white"/>
<path opacity="0.6" d="M52.0536 75.9487H53.1096V71.5321H52.0536V75.9487Z" fill="white"/>
<path d="M115.746 155.641C134.662 155.641 149.996 139.444 149.996 119.465C149.996 99.4848 134.662 83.2881 115.746 83.2881C96.8298 83.2881 81.4954 99.4848 81.4954 119.465C81.4954 139.444 96.8298 155.641 115.746 155.641Z" fill="#0065BD"/>
<path opacity="0.2" d="M115.746 155.641C134.662 155.641 149.996 139.444 149.996 119.465C149.996 99.4848 134.662 83.2881 115.746 83.2881C96.8298 83.2881 81.4954 99.4848 81.4954 119.465C81.4954 139.444 96.8298 155.641 115.746 155.641Z" fill="black"/>
<path d="M115.746 84.3511H102.928C84.5641 84.3511 69.6804 100.072 69.6804 119.465C69.6804 138.858 84.5641 154.579 102.928 154.579H115.746C134.11 154.579 148.994 138.858 148.994 119.465C148.994 100.072 134.11 84.3511 115.746 84.3511Z" fill="#0065BD"/>
<path opacity="0.3" d="M115.746 84.3511H102.928C84.5641 84.3511 69.6804 100.072 69.6804 119.465C69.6804 138.858 84.5641 154.579 102.928 154.579H115.746C134.11 154.579 148.994 138.858 148.994 119.465C148.994 100.072 134.11 84.3511 115.746 84.3511Z" fill="white"/>
<path opacity="0.6" d="M102.928 154.579C121.29 154.579 136.175 138.858 136.175 119.465C136.175 100.072 121.29 84.3511 102.928 84.3511C84.5658 84.3511 69.6804 100.072 69.6804 119.465C69.6804 138.858 84.5658 154.579 102.928 154.579Z" fill="white"/>
<path d="M102.688 86.7417H90.7337C73.6185 86.7417 59.751 101.393 59.751 119.465C59.751 137.536 73.6185 152.187 90.7337 152.187H102.688C119.797 152.187 133.671 137.536 133.671 119.465C133.671 101.393 119.797 86.7417 102.688 86.7417Z" fill="#0065BD"/>
<path opacity="0.3" d="M102.688 86.7417H90.7337C73.6185 86.7417 59.751 101.393 59.751 119.465C59.751 137.536 73.6185 152.187 90.7337 152.187H102.688C119.797 152.187 133.671 137.536 133.671 119.465C133.671 101.393 119.797 86.7417 102.688 86.7417Z" fill="white"/>
<path opacity="0.6" d="M90.7472 152.187C107.858 152.187 121.73 137.537 121.73 119.465C121.73 101.392 107.858 86.7417 90.7472 86.7417C73.6359 86.7417 59.7644 101.392 59.7644 119.465C59.7644 137.537 73.6359 152.187 90.7472 152.187Z" fill="white"/>
<path d="M90.7409 148.953C75.4255 148.953 62.9395 135.743 62.9395 119.465C62.9395 103.187 75.399 89.9434 90.7143 89.9434C106.03 89.9434 118.496 103.187 118.496 119.465C118.496 135.743 106.056 148.953 90.7409 148.953Z" fill="#263238"/>
<path opacity="0.4" d="M92.348 148.952C91.8166 148.952 91.2853 149.005 90.7474 149.005C75.432 149.005 62.9658 135.762 62.9658 119.484C62.9658 103.205 75.432 89.9619 90.7474 89.9619C91.2853 89.9619 91.8166 89.9619 92.348 90.0151C77.7764 90.8984 66.167 103.776 66.167 119.484C66.167 135.191 77.7764 148.049 92.348 148.952Z" fill="black"/>
<path opacity="0.4" d="M92.6666 144.496C79.8219 144.496 69.3748 133.265 69.3748 119.464C69.3748 105.663 79.8219 94.4321 92.6666 94.4321C105.511 94.4321 115.958 105.663 115.958 119.464C115.958 133.265 105.511 144.496 92.6666 144.496Z" fill="black"/>
<path d="M104.482 110.034H84.8431C83.794 110.034 82.9436 110.884 82.9436 111.933V125.714C82.9436 126.763 83.794 127.614 84.8431 127.614H104.482C105.531 127.614 106.382 126.763 106.382 125.714V111.933C106.382 110.884 105.531 110.034 104.482 110.034Z" fill="#263238"/>
<path opacity="0.4" d="M92.6668 139.369C82.6514 139.369 74.5022 130.436 74.5022 119.444C74.5022 108.452 82.6514 99.5195 92.6668 99.5195C102.682 99.5195 110.831 108.446 110.831 119.444C110.831 130.443 102.682 139.369 92.6668 139.369Z" fill="black"/>
<path opacity="0.2" d="M84.5044 121.105V113.514C84.5044 113.088 84.6737 112.679 84.9751 112.377C85.2766 112.076 85.6854 111.907 86.1116 111.907H98.3121C98.3121 111.907 95.2172 119.438 84.5044 121.105Z" fill="white"/>
<path d="M229.672 20.8565C214.211 27.0276 206.685 44.5673 212.856 60.028C219.027 75.4887 236.567 83.0151 252.028 76.844C267.488 70.6728 275.015 53.1332 268.844 37.6724C262.673 22.2117 245.133 14.6853 229.672 20.8565Z" fill="#0065BD"/>
<path d="M250.106 41.9585L237.77 55.1165L230.369 47.2217" stroke="white" stroke-width="5" stroke-linecap="round" stroke-linejoin="round"/>
<path d="M221.001 61.6597L219.448 69.2651L212.001 69.3835C210.883 69.3966 210.093 68.2782 210.488 67.2256L213.08 60.4229L221.001 61.6597Z" fill="#0065BD"/>
<path d="M211.264 33.3828C211.264 33.3828 211.172 33.3828 211.132 33.3565C210.961 33.2775 210.896 33.0933 210.961 32.9223C214.975 23.8958 223.869 17.1194 233.633 15.6457C233.83 15.6194 233.975 15.7379 234.001 15.9221C234.027 16.1063 233.909 16.2642 233.725 16.2905C224.185 17.7379 215.475 24.3695 211.567 33.1854C211.514 33.3038 211.396 33.3828 211.264 33.3828Z" fill="#0065BD"/>
<path d="M208.33 41.8168H208.304C208.119 41.8036 207.988 41.6457 208.001 41.4615C208.119 39.9352 208.567 38.4088 209.29 37.0536C209.382 36.8957 209.58 36.8299 209.738 36.922C209.896 37.0141 209.961 37.2115 209.869 37.3694C209.185 38.6457 208.764 40.0799 208.646 41.5141C208.646 41.6852 208.488 41.8168 208.317 41.8168H208.33Z" fill="#0065BD"/>
</svg>
