<svg width="86" height="84" viewBox="0 0 86 84" fill="none" xmlns="http://www.w3.org/2000/svg">
<ellipse opacity="0.7" cx="43.4658" cy="41.9824" rx="25" ry="24" fill="#FF6624"/>
<ellipse opacity="0.45" cx="43" cy="42" rx="43" ry="42" fill="#FF6624"/>
<g clip-path="url(#clip0_6595_8239)">
<path d="M49.4658 25.4824V28.4824H37.4658V25.4824H34.4658V28.4824H32.9658C31.3008 28.4824 29.9808 29.8324 29.9808 31.4824L29.9658 52.4824C29.9658 54.1324 31.3008 55.4824 32.9658 55.4824H53.9658C55.6158 55.4824 56.9658 54.1324 56.9658 52.4824V31.4824C56.9658 29.8324 55.6158 28.4824 53.9658 28.4824H52.4658V25.4824H49.4658ZM53.9658 52.4824H32.9658V35.9824H53.9658V52.4824Z" fill="white"/>
<path d="M43.6325 49.4827C44.2768 49.4827 44.7992 48.9604 44.7992 48.3161C44.7992 47.6717 44.2768 47.1494 43.6325 47.1494C42.9882 47.1494 42.4658 47.6717 42.4658 48.3161C42.4658 48.9604 42.9882 49.4827 43.6325 49.4827Z" fill="white"/>
<path d="M42.4658 38.9824H44.7992V45.9824H42.4658V38.9824Z" fill="white"/>
</g>
<defs>
<clipPath id="clip0_6595_8239">
<rect width="36" height="36" fill="white" transform="translate(25.4658 23.9824)"/>
</clipPath>
</defs>
</svg>
