<svg width="95" height="93" viewBox="0 0 95 93" fill="none" xmlns="http://www.w3.org/2000/svg">
<ellipse opacity="0.21" cx="47.5" cy="46.5" rx="47.5" ry="46.5" fill="#0065BD"/>
<ellipse opacity="0.4" cx="48" cy="47" rx="29" ry="28" fill="#0065BD"/>
<g clip-path="url(#clip0_6646_13205)">
<path d="M48.6495 45.1245C44.6358 44.0756 43.345 42.9912 43.345 41.3023C43.345 39.3645 45.1309 38.0134 48.1191 38.0134C51.2664 38.0134 52.4334 39.5245 52.5395 41.7467H56.4472C56.3234 38.689 54.4668 35.8801 50.7714 34.9734V31.0801H45.4668V34.9201C42.0366 35.6667 39.2782 37.9067 39.2782 41.3379C39.2782 45.4445 42.6554 47.489 47.5886 48.6801C52.0091 49.7467 52.8932 51.3112 52.8932 52.9645C52.8932 54.1912 52.0268 56.1467 48.1191 56.1467C44.4767 56.1467 43.0444 54.5112 42.8499 52.4134H38.96C39.1721 56.3067 42.0719 58.4934 45.4668 59.2223V63.0801H50.7714V59.2579C54.2193 58.6001 56.96 56.5912 56.96 52.9467C56.96 47.8979 52.6633 46.1734 48.6495 45.1245Z" fill="#0065BD"/>
</g>
<defs>
<clipPath id="clip0_6646_13205">
<rect width="36" height="36" fill="white" transform="translate(29.96 29.0801)"/>
</clipPath>
</defs>
</svg>
