<svg width="650" height="844" viewBox="0 0 650 844" fill="none" xmlns="http://www.w3.org/2000/svg">
<path opacity="0.5" fill-rule="evenodd" clip-rule="evenodd" d="M650 0H0V844H650V0ZM325 118.17C332.216 117.955 336.396 117.927 343.728 118.183C345 118.227 346.168 118.26 347.272 118.292C352.076 118.43 355.65 118.532 361.129 119.343C368.737 120.471 372.917 121.726 380.269 123.986C387.669 126.261 391.732 127.859 398.83 130.951C403.196 132.852 405.645 133.939 409.85 136.174C415.237 139.036 418.25 140.721 423.191 144.299C428.525 148.161 431.235 150.728 435.951 155.326C443.202 162.393 446.937 166.781 452.772 175.058C456.758 180.712 458.842 184.019 462.053 190.147C466.154 197.976 468.235 202.567 470.753 211.04C472.738 217.718 473.359 222.176 474.197 228.182C474.385 229.533 474.585 230.962 474.813 232.513C476.074 241.081 476.462 245.933 477.133 254.567C478.052 266.388 478.116 274.19 478.199 284.268C478.223 287.102 478.247 290.116 478.293 293.451C478.408 301.829 478.374 307.82 478.336 314.521C478.315 318.152 478.293 321.991 478.293 326.531C479.398 324.331 484.093 317.826 485.833 316.084C487.574 314.343 488.92 314.085 491.054 314.343C493.618 314.654 495.114 316.084 496.274 318.406C497.434 320.727 497.897 321.87 498.594 324.209C500.795 331.594 499.754 344.522 499.754 344.522C499.754 344.522 499.525 352.721 498.594 357.87C498.029 360.997 497.403 363.093 496.656 365.596C496.356 366.6 496.037 367.669 495.694 368.897C495.23 370.557 494.812 371.893 494.408 373.185C493.87 374.902 493.357 376.541 492.794 378.763C492.13 381.379 491.758 383.316 491.354 385.416C491.1 386.739 490.833 388.127 490.474 389.79C490.147 391.299 489.823 392.554 489.516 393.745C488.992 395.778 488.515 397.626 488.154 400.236C487.642 403.924 487.623 406.319 487.597 409.566C487.591 410.277 487.585 411.028 487.574 411.843C487.564 412.517 487.609 413.085 487.652 413.624C487.725 414.537 487.792 415.367 487.574 416.486C487.089 418.973 486.199 420.268 484.673 422.29C483.515 423.825 482.796 424.71 481.193 425.772C481.13 425.814 481.068 425.855 481.007 425.896C479.674 426.78 478.777 427.376 477.133 427.513C474.992 427.692 473.516 427.204 471.913 425.772C470.249 424.285 469.593 420.549 469.593 420.549C469.593 420.549 470.307 429.085 469.593 434.477C469.169 437.673 468.52 439.834 467.765 442.35C467.425 443.481 467.064 444.684 466.693 446.084C464.816 453.155 463.689 457.104 461.473 464.075C459.366 470.701 458.169 474.418 455.672 480.906C453.664 486.124 452.267 489.277 450.222 493.895C449.926 494.561 449.618 495.257 449.292 495.995C448.582 497.602 447.976 499.027 447.407 500.365C445.873 503.97 444.611 506.937 442.332 511.084C438.941 517.254 436.787 520.612 432.471 526.174C428.341 531.496 425.657 534.201 420.871 538.942C419.115 540.68 417.793 542.035 416.547 543.311C414.718 545.183 413.055 546.886 410.431 549.388C406.721 552.926 399.99 558.674 399.99 558.674C399.99 558.674 391.348 564.992 385.49 568.54C380.2 571.743 377.179 573.484 371.569 576.084C365.194 579.039 361.503 580.536 354.748 582.468C352.054 583.239 350.529 583.629 347.788 584.209L347.314 584.31C343.122 585.198 340.599 585.733 336.188 585.95C334.72 586.023 333.669 586.001 332.494 585.977C331.857 585.964 331.183 585.95 330.387 585.95H325.413H324.587H319.613C318.817 585.95 318.143 585.964 317.506 585.977C316.331 586.001 315.28 586.023 313.812 585.95C309.401 585.733 306.878 585.198 302.686 584.31L302.212 584.209C299.471 583.629 297.946 583.239 295.252 582.468C288.497 580.536 284.806 579.039 278.431 576.084C272.821 573.484 269.8 571.743 264.511 568.54C258.652 564.992 250.01 558.674 250.01 558.674C250.01 558.674 243.279 552.926 239.569 549.388C236.945 546.886 235.282 545.183 233.453 543.31C232.207 542.035 230.885 540.68 229.129 538.942C224.343 534.201 221.659 531.496 217.529 526.174C213.213 520.612 211.059 517.254 207.668 511.084C205.389 506.937 204.127 503.97 202.593 500.365C202.024 499.027 201.418 497.602 200.708 495.995C200.382 495.258 200.074 494.561 199.779 493.896C197.733 489.277 196.336 486.125 194.328 480.906C191.831 474.418 190.634 470.701 188.527 464.075C186.311 457.104 185.184 453.155 183.307 446.084C182.936 444.684 182.575 443.481 182.235 442.35C181.48 439.834 180.831 437.673 180.407 434.477C179.693 429.085 180.407 420.549 180.407 420.549C180.407 420.549 179.751 424.285 178.087 425.772C176.484 427.204 175.008 427.692 172.867 427.513C171.223 427.376 170.326 426.78 168.993 425.896C168.932 425.855 168.87 425.814 168.807 425.772C167.204 424.71 166.485 423.825 165.327 422.29C163.801 420.268 162.911 418.973 162.426 416.486C162.208 415.367 162.275 414.537 162.348 413.624C162.391 413.085 162.436 412.517 162.426 411.843C162.415 411.028 162.409 410.277 162.403 409.566C162.377 406.319 162.358 403.924 161.846 400.236C161.485 397.626 161.008 395.778 160.484 393.745C160.177 392.553 159.853 391.299 159.526 389.79C159.167 388.127 158.9 386.739 158.646 385.416C158.242 383.316 157.87 381.379 157.206 378.763C156.643 376.541 156.13 374.902 155.592 373.185C155.188 371.893 154.77 370.557 154.306 368.897C153.963 367.669 153.644 366.6 153.344 365.596C152.597 363.093 151.971 360.997 151.406 357.87C150.475 352.721 150.246 344.522 150.246 344.522C150.246 344.522 149.205 331.594 151.406 324.209C152.103 321.87 152.566 320.727 153.726 318.406C154.886 316.084 156.382 314.654 158.946 314.343C161.08 314.085 162.426 314.343 164.167 316.084C165.907 317.826 170.602 324.331 171.707 326.531C171.707 321.991 171.685 318.152 171.664 314.521C171.626 307.82 171.592 301.829 171.707 293.451C171.753 290.117 171.777 287.103 171.801 284.269C171.884 274.19 171.948 266.389 172.867 254.567C173.538 245.933 173.926 241.081 175.187 232.513C175.415 230.962 175.615 229.533 175.803 228.182C176.641 222.176 177.262 217.718 179.247 211.04C181.765 202.567 183.846 197.976 187.947 190.147C191.158 184.019 193.242 180.712 197.228 175.058C203.063 166.781 206.798 162.393 214.049 155.326C218.765 150.728 221.475 148.161 226.809 144.299C231.75 140.721 234.763 139.036 240.15 136.174C244.356 133.939 246.804 132.852 251.17 130.951C258.268 127.859 262.331 126.261 269.731 123.986C277.083 121.726 281.263 120.471 288.871 119.343C294.35 118.532 297.924 118.43 302.728 118.292C303.832 118.26 305 118.227 306.272 118.183C313.604 117.927 317.784 117.955 325 118.17Z" fill="black"/>
<path d="M324.587 118.183C332.059 117.957 336.257 117.922 343.728 118.183C350.534 118.42 354.391 118.345 361.129 119.343C368.737 120.471 372.917 121.726 380.269 123.986C387.669 126.261 391.732 127.859 398.83 130.951C403.196 132.852 405.644 133.939 409.85 136.174C415.237 139.036 418.25 140.721 423.191 144.299C428.525 148.161 431.235 150.728 435.951 155.326C443.202 162.393 446.937 166.781 452.772 175.058C456.758 180.712 458.842 184.019 462.053 190.147C466.154 197.976 468.235 202.567 470.753 211.04C473.184 219.22 473.57 224.07 474.813 232.513C476.074 241.081 476.462 245.933 477.133 254.567C478.311 269.713 478.085 278.26 478.293 293.451C478.47 306.368 478.293 313.612 478.293 326.531M478.293 326.531V342.2M478.293 326.531C479.398 324.331 484.093 317.826 485.833 316.084C487.574 314.343 488.92 314.085 491.054 314.343C493.618 314.654 495.114 316.084 496.274 318.406C497.434 320.727 497.897 321.87 498.594 324.209C500.795 331.594 499.754 344.522 499.754 344.522C499.754 344.522 499.525 352.721 498.594 357.87C497.802 362.252 496.891 364.608 495.694 368.897C494.614 372.765 493.781 374.87 492.794 378.763C491.712 383.028 491.404 385.489 490.474 389.79C489.59 393.874 488.727 396.097 488.154 400.236C487.53 404.732 487.638 407.305 487.574 411.843C487.548 413.656 487.921 414.707 487.574 416.486C487.089 418.973 486.199 420.268 484.673 422.29C483.515 423.825 482.796 424.71 481.193 425.772C479.755 426.725 478.852 427.37 477.133 427.513C474.992 427.692 473.516 427.204 471.913 425.772C470.249 424.285 469.593 420.549 469.593 420.549C469.593 420.549 470.307 429.085 469.593 434.477C468.979 439.109 467.891 441.569 466.693 446.084C464.816 453.155 463.689 457.104 461.472 464.075C459.366 470.701 458.169 474.418 455.672 480.906C453.374 486.877 451.877 490.143 449.292 495.995C446.67 501.931 445.457 505.397 442.332 511.084C438.941 517.254 436.787 520.613 432.471 526.174C428.341 531.496 425.657 534.201 420.871 538.942C416.54 543.232 414.843 545.181 410.431 549.388C406.721 552.926 399.99 558.674 399.99 558.674C399.99 558.674 391.348 564.992 385.489 568.54C380.2 571.743 377.179 573.484 371.569 576.084C365.194 579.039 361.503 580.536 354.748 582.468C352.054 583.239 350.529 583.629 347.788 584.209L347.314 584.31C343.122 585.198 340.599 585.733 336.188 585.95C333.925 586.062 332.652 585.95 330.387 585.95H324.587M325.413 118.183C317.941 117.957 313.743 117.922 306.272 118.183C299.466 118.42 295.609 118.345 288.871 119.343C281.263 120.471 277.083 121.726 269.731 123.986C262.331 126.261 258.268 127.859 251.17 130.951C246.804 132.852 244.356 133.939 240.15 136.174C234.763 139.036 231.75 140.721 226.809 144.299C221.475 148.161 218.765 150.728 214.049 155.326C206.798 162.393 203.063 166.781 197.228 175.058C193.242 180.712 191.158 184.019 187.947 190.147C183.846 197.976 181.765 202.567 179.247 211.04C176.816 219.22 176.43 224.07 175.187 232.513C173.926 241.081 173.538 245.933 172.867 254.567C171.689 269.713 171.915 278.26 171.707 293.451C171.53 306.368 171.707 313.612 171.707 326.531M171.707 326.531V342.2M171.707 326.531C170.602 324.331 165.907 317.826 164.167 316.084C162.426 314.343 161.08 314.085 158.946 314.343C156.382 314.654 154.886 316.084 153.726 318.406C152.566 320.727 152.103 321.87 151.406 324.209C149.205 331.594 150.246 344.522 150.246 344.522C150.246 344.522 150.475 352.721 151.406 357.87C152.198 362.252 153.109 364.608 154.306 368.897C155.386 372.765 156.219 374.87 157.206 378.763C158.288 383.028 158.596 385.489 159.526 389.79C160.41 393.874 161.273 396.097 161.846 400.236C162.47 404.732 162.362 407.305 162.426 411.843C162.452 413.656 162.079 414.707 162.426 416.486C162.911 418.973 163.801 420.268 165.327 422.29C166.485 423.825 167.204 424.71 168.807 425.772C170.245 426.725 171.148 427.37 172.867 427.513C175.008 427.692 176.484 427.204 178.087 425.772C179.751 424.285 180.407 420.549 180.407 420.549C180.407 420.549 179.693 429.085 180.407 434.477C181.021 439.109 182.109 441.569 183.307 446.084C185.184 453.155 186.311 457.104 188.528 464.075C190.634 470.701 191.831 474.418 194.328 480.906C196.626 486.877 198.123 490.143 200.708 495.995C203.33 501.931 204.543 505.397 207.668 511.084C211.059 517.254 213.213 520.613 217.529 526.174C221.659 531.496 224.343 534.201 229.129 538.942C233.46 543.232 235.157 545.181 239.569 549.388C243.279 552.926 250.01 558.674 250.01 558.674C250.01 558.674 258.652 564.992 264.511 568.54C269.8 571.743 272.821 573.484 278.431 576.084C284.806 579.039 288.497 580.536 295.252 582.468C297.946 583.239 299.471 583.629 302.212 584.209L302.686 584.31C306.878 585.198 309.401 585.733 313.812 585.95C316.075 586.062 317.348 585.95 319.613 585.95H325.413" stroke="white" stroke-width="4" stroke-linejoin="round"/>
</svg>
