<svg width="272" height="272" viewBox="0 0 272 272" fill="none" xmlns="http://www.w3.org/2000/svg">
<path d="M272 208.025H0V208.161H272V208.025Z" fill="#EBEBEB"/>
<path d="M244.746 216.778H226.729V216.914H244.746V216.778Z" fill="#EBEBEB"/>
<path d="M180.184 218.258H175.457V218.394H180.184V218.258Z" fill="#EBEBEB"/>
<path d="M226.184 211.73H215.745V211.866H226.184V211.73Z" fill="#EBEBEB"/>
<path d="M52.0334 212.644H28.5381V212.78H52.0334V212.644Z" fill="#EBEBEB"/>
<path d="M60.3244 212.644H56.8809V212.78H60.3244V212.644Z" fill="#EBEBEB"/>
<path d="M122.481 214.94H71.5195V215.076H122.481V214.94Z" fill="#EBEBEB"/>
<path d="M128.928 183.763H23.8869C23.0641 183.762 22.2754 183.434 21.694 182.851C21.1126 182.269 20.7861 181.48 20.7861 180.657V32.999C20.7933 32.1808 21.123 31.3985 21.7036 30.822C22.2841 30.2455 23.0687 29.9213 23.8869 29.9199H128.928C129.752 29.9199 130.542 30.2472 131.124 30.8297C131.707 31.4123 132.034 32.2023 132.034 33.0262V180.657C132.034 181.481 131.707 182.271 131.124 182.853C130.542 183.436 129.752 183.763 128.928 183.763ZM23.8869 30.0287C23.1001 30.0302 22.346 30.3437 21.7902 30.9006C21.2343 31.4575 20.9221 32.2121 20.9221 32.999V180.657C20.9221 181.444 21.2343 182.198 21.7902 182.755C22.346 183.312 23.1001 183.626 23.8869 183.627H128.928C129.715 183.626 130.47 183.312 131.027 182.756C131.583 182.199 131.897 181.444 131.898 180.657V32.999C131.897 32.2116 131.583 31.457 131.027 30.9003C130.47 30.3436 129.715 30.0302 128.928 30.0287H23.8869Z" fill="#EBEBEB"/>
<path d="M246.601 183.763H141.554C140.731 183.762 139.942 183.434 139.36 182.852C138.777 182.27 138.45 181.48 138.448 180.657V32.999C138.457 32.1803 138.788 31.398 139.369 30.8217C139.951 30.2453 140.736 29.9213 141.554 29.9199H246.601C247.418 29.9228 248.201 30.2475 248.781 30.8239C249.36 31.4003 249.689 32.1817 249.696 32.999V180.657C249.696 181.479 249.37 182.267 248.79 182.849C248.21 183.432 247.423 183.76 246.601 183.763ZM141.554 30.0287C140.767 30.0302 140.013 30.3436 139.456 30.9003C138.899 31.457 138.586 32.2116 138.584 32.999V180.657C138.586 181.444 138.899 182.199 139.456 182.756C140.013 183.312 140.767 183.626 141.554 183.627H246.601C247.388 183.626 248.143 183.312 248.7 182.756C249.256 182.199 249.57 181.444 249.571 180.657V32.999C249.57 32.2116 249.256 31.457 248.7 30.9003C248.143 30.3436 247.388 30.0302 246.601 30.0287H141.554Z" fill="#EBEBEB"/>
<path d="M193.359 39.1733H44.5371V125.99H193.359V39.1733Z" fill="#EBEBEB"/>
<path d="M189.279 43.7646H48.6118V121.399H189.279V43.7646Z" fill="#FAFAFA"/>
<path d="M72.4932 121.399H60.8462L71.8132 43.7646H83.4603L72.4932 121.399Z" fill="white"/>
<path d="M101.271 121.399H89.624L100.591 43.7646H112.238L101.271 121.399Z" fill="white"/>
<path d="M168.069 121.399H162.248L173.21 43.7646H179.036L168.069 121.399Z" fill="white"/>
<path d="M111.515 121.399H105.688L116.656 43.7646H122.482L111.515 121.399Z" fill="white"/>
<path d="M85.8161 43.7646H80.3271V121.399H85.8161V43.7646Z" fill="#EBEBEB"/>
<path d="M85.8107 121.399H87.0347L87.0347 43.7647H85.8107L85.8107 121.399Z" fill="#E0E0E0"/>
<path d="M193.365 125.99H194.241V39.1733H193.365V125.99Z" fill="#E0E0E0"/>
<path d="M223.258 157.493C221.811 141.456 220.799 115.437 221.582 106.733C221.595 106.586 221.638 106.443 221.708 106.313C221.779 106.183 221.874 106.068 221.99 105.977C222.146 105.861 222.331 105.793 222.524 105.781C222.717 105.769 222.91 105.813 223.079 105.908C223.247 106.003 223.385 106.144 223.475 106.316C223.564 106.488 223.602 106.682 223.584 106.874C223.448 111.188 223.29 121.965 224.128 140.564C224.552 149.812 225.173 156.155 224.748 157.493H223.258Z" fill="#F0F0F0"/>
<path d="M218.791 124.293C215.326 119.941 208.249 116.862 201.035 116.873C198.201 116.873 209.652 121.927 214.412 127.497C218.111 131.822 222.278 139.101 223.698 143.143C222.779 134.64 222.257 128.634 218.791 124.293Z" fill="#F0F0F0"/>
<path d="M226.038 124.249C229.47 119.473 237.385 115.796 245.953 115.382C249.315 115.219 236.52 121.214 231.744 127.35C228.034 132.126 224.232 140.031 223.187 144.366C222.937 135.374 222.61 129.026 226.038 124.249Z" fill="#F0F0F0"/>
<path d="M218.791 131.267C215.326 126.915 208.249 123.836 201.035 123.853C198.201 123.853 209.652 128.906 214.412 134.471C218.111 138.823 222.278 146.08 223.698 150.117C222.779 141.62 222.257 135.614 218.791 131.267Z" fill="#F0F0F0"/>
<path d="M226.038 131.615C229.47 126.839 237.385 123.161 245.953 122.748C249.315 122.585 236.52 128.58 231.744 134.716C228.034 139.492 224.232 147.397 223.187 151.732C222.937 142.74 222.61 136.391 226.038 131.615Z" fill="#F0F0F0"/>
<path d="M219.417 107.881C217.148 104.655 212.285 102.136 207.215 101.793C205.218 101.657 213.079 105.77 216.213 109.921C218.644 113.147 221.299 118.472 222.142 121.383C221.821 115.361 221.685 111.107 219.417 107.881Z" fill="#F0F0F0"/>
<path d="M223.932 109.246C226.347 105.879 231.929 103.289 237.967 103.001C240.339 102.881 231.319 107.108 227.952 111.438C225.341 114.8 222.659 120.376 221.919 123.406C221.745 117.091 221.517 112.608 223.932 109.246Z" fill="#F0F0F0"/>
<path d="M218.639 112.064C215.702 108.387 209.707 105.77 203.603 105.786C201.204 105.786 210.898 110.062 214.929 114.779C218.057 118.44 221.593 124.603 222.79 128.025C222.012 120.833 221.571 115.747 218.639 112.064Z" fill="#F0F0F0"/>
<path d="M224.601 114.028C227.506 109.98 234.208 106.869 241.465 106.52C244.31 106.379 233.474 111.46 229.432 116.661C226.293 120.703 223.067 127.394 222.186 131.066C221.952 123.45 221.696 118.048 224.601 114.028Z" fill="#F0F0F0"/>
<path d="M218.443 117.172C215.277 113.201 208.809 110.383 202.221 110.394C199.631 110.394 210.093 115.012 214.439 120.099C217.817 124.053 221.625 130.701 222.926 134.389C222.088 126.627 221.609 121.138 218.443 117.172Z" fill="#F0F0F0"/>
<path d="M225.058 119.342C228.279 114.854 235.726 111.4 243.783 111.008C246.943 110.856 234.91 116.492 230.422 122.269C226.935 126.757 223.35 134.188 222.371 138.263C222.137 129.809 221.832 123.836 225.058 119.342Z" fill="#F0F0F0"/>
<path d="M233 154.784L232.456 159.289C232.429 159.775 232.216 160.231 231.862 160.565C231.508 160.899 231.039 161.085 230.552 161.084H217.116C216.629 161.083 216.162 160.897 215.808 160.564C215.454 160.23 215.241 159.774 215.212 159.289L214.668 154.784C214.653 154.525 214.691 154.266 214.78 154.022C214.869 153.778 215.007 153.554 215.185 153.365C215.363 153.176 215.578 153.026 215.817 152.923C216.055 152.82 216.312 152.766 216.572 152.766H231.086C231.346 152.764 231.605 152.816 231.845 152.918C232.085 153.02 232.302 153.17 232.481 153.36C232.661 153.549 232.799 153.773 232.889 154.018C232.978 154.263 233.016 154.524 233 154.784Z" fill="#E6E6E6"/>
<path d="M233.806 155.736H213.874C213.737 155.729 213.607 155.674 213.508 155.581C213.408 155.487 213.345 155.361 213.33 155.225L212.856 150.938C212.847 150.86 212.854 150.781 212.877 150.706C212.9 150.631 212.938 150.561 212.99 150.501C213.041 150.442 213.103 150.393 213.174 150.359C213.245 150.324 213.322 150.305 213.4 150.302H234.279C234.358 150.305 234.435 150.324 234.505 150.359C234.576 150.393 234.639 150.442 234.69 150.501C234.741 150.561 234.779 150.631 234.802 150.706C234.825 150.781 234.832 150.86 234.823 150.938L234.35 155.225C234.336 155.361 234.273 155.488 234.173 155.582C234.073 155.676 233.943 155.731 233.806 155.736Z" fill="#F5F5F5"/>
<path d="M128.765 208.025H137.42V161.084H128.765V208.025Z" fill="#E6E6E6"/>
<path d="M131.36 208.025H128.765V199.044H134.08L131.36 208.025Z" fill="#F0F0F0"/>
<path d="M236.607 208.025H245.262V161.084H236.607V208.025Z" fill="#E6E6E6"/>
<path d="M128.765 202.515H238.871V161.089H128.765V202.515Z" fill="#F0F0F0"/>
<path d="M236.276 208.025H238.871V199.044H233.556L236.276 208.025Z" fill="#F0F0F0"/>
<path d="M130.777 180.575H236.857V164H130.777V180.575Z" fill="#E6E6E6"/>
<path d="M146.336 169.151H219.569C222.099 169.151 224.52 167.106 226.26 163.494H139.634C141.375 167.106 143.795 169.151 146.336 169.151Z" fill="#F0F0F0"/>
<path d="M130.777 199.833H236.857V183.257H130.777V199.833Z" fill="#E6E6E6"/>
<path d="M146.336 188.409H219.569C222.099 188.409 224.52 186.364 226.26 182.751H139.634C141.375 186.364 143.795 188.409 146.336 188.409Z" fill="#F0F0F0"/>
<path d="M154.855 150.084C154.855 150.084 155.328 161.084 173.471 161.084C191.613 161.084 192.092 150.084 192.092 150.084H154.855Z" fill="#F5F5F5"/>
<path d="M154.855 144.372C154.855 144.372 155.328 155.372 173.471 155.372C191.613 155.372 192.092 144.372 192.092 144.372H154.855Z" fill="#F5F5F5"/>
<path d="M104.116 172.328H86.0117V175.429H104.116V172.328Z" fill="#E6E6E6"/>
<path d="M51.8595 208.025H55.1997L55.1997 136.723H51.8595L51.8595 208.025Z" fill="#E6E6E6"/>
<path d="M40.2885 175.429H86.0117V172.328H40.2885V175.429Z" fill="#F5F5F5"/>
<path d="M104.116 189.285H86.0117V192.385H104.116V189.285Z" fill="#E6E6E6"/>
<path d="M40.2885 192.38H86.0117V189.279H40.2885V192.38Z" fill="#F5F5F5"/>
<path d="M104.116 138.421H86.0117V141.522H104.116V138.421Z" fill="#E6E6E6"/>
<path d="M40.2885 141.516H86.0117V138.415H40.2885V141.516Z" fill="#F5F5F5"/>
<path d="M104.116 155.372H86.0117V158.472H104.116V155.372Z" fill="#E6E6E6"/>
<path d="M40.2885 158.473H86.0117V155.372H40.2885V158.473Z" fill="#F5F5F5"/>
<path d="M97.5881 208.025H100.928L100.928 136.723H97.5881L97.5881 208.025Z" fill="#E6E6E6"/>
<path d="M82.6716 208.025H86.0117L86.0117 136.723H82.6716L82.6716 208.025Z" fill="#F5F5F5"/>
<path d="M40.2887 208.025H43.6289L43.6289 136.723H40.2887L40.2887 208.025Z" fill="#F5F5F5"/>
<path d="M136 232.593C194.253 232.593 241.476 229.835 241.476 226.434C241.476 223.033 194.253 220.276 136 220.276C77.7472 220.276 30.5239 223.033 30.5239 226.434C30.5239 229.835 77.7472 232.593 136 232.593Z" fill="#F5F5F5"/>
<path d="M118.686 41.9692C119.382 39.8092 125.637 34.3762 133.362 37.1192C141.088 39.8622 139.325 50.6686 138.49 53.4116C137.656 56.1546 132.706 64.4234 126.955 62.6875C121.204 60.9516 109.47 48.4026 118.686 41.9692Z" fill="#263238"/>
<path d="M135.588 50.3972C136.099 48.8004 140.71 44.7985 146.401 46.8194C152.093 48.8402 150.794 56.8042 150.178 58.825C149.562 60.8458 145.918 66.9348 141.677 65.6627C137.437 64.3905 128.797 55.1345 135.588 50.3972Z" fill="#263238"/>
<path d="M142.466 44.0361L138.537 49.3698C138.537 49.3698 136.595 44.977 142.466 44.0361Z" fill="#263238"/>
<path d="M131.792 59.3884C130.719 58.3548 125.405 57.1489 121.781 61.1376C118.156 65.1262 122.529 70.864 123.868 72.1891C125.206 73.5143 130.632 76.7741 133.435 73.9913C136.238 71.2085 139.127 60.263 131.792 59.3884Z" fill="#263238"/>
<path d="M130.162 78.814L130.016 79.1917L129.883 79.5164C129.791 79.7284 129.705 79.9404 129.612 80.1392C129.426 80.55 129.228 80.9342 129.029 81.3252C128.625 82.1004 128.207 82.8557 127.763 83.5978C126.867 85.066 125.876 86.4737 124.795 87.8117C124.272 88.4742 123.695 89.1368 123.139 89.7994C122.582 90.4619 121.972 91.0516 121.343 91.6347C120.114 92.8237 118.808 93.9303 117.434 94.9475C117.242 95.0866 117.175 95.1661 116.712 95.4709C116.25 95.762 115.737 95.9642 115.201 96.0672C114.596 96.1797 113.973 96.1548 113.379 95.9943C112.891 95.8536 112.432 95.6294 112.021 95.3318C111.46 94.9293 110.971 94.4341 110.576 93.8675C110.271 93.4477 109.998 93.0046 109.761 92.5424C108.989 90.9496 108.387 89.2795 107.966 87.5599C107.165 84.3591 106.635 81.0966 106.382 77.8069L109.397 77.2703C110.311 80.2584 111.292 83.2864 112.412 86.1155C112.918 87.456 113.544 88.7487 114.28 89.9782C114.43 90.2108 114.596 90.4322 114.777 90.6408C114.923 90.7998 115.069 90.8992 115.035 90.8462C114.956 90.7768 114.86 90.7289 114.757 90.7071C114.543 90.6378 114.315 90.6241 114.095 90.6673C113.952 90.6918 113.814 90.7364 113.684 90.7998C113.551 90.886 113.79 90.6938 113.909 90.5812C116.143 88.6273 118.168 86.4469 119.952 84.0748C120.838 82.8927 121.658 81.6629 122.41 80.391C122.785 79.7637 123.143 79.1277 123.483 78.4828L123.96 77.522L124.185 77.0516L124.364 76.6475L130.162 78.814Z" fill="#FFB573"/>
<path d="M129.831 69.638C124.643 72.0034 122.635 78.5893 122.457 78.9537L128.89 90.6479C128.89 90.6479 135.151 86.2154 135.642 82.1274C136.105 78.6754 133.243 68.081 129.831 69.638Z" fill="#0065BD"/>
<path d="M109.589 77.9597L111.219 73.0435L105.044 74.3686C105.044 74.3686 104.904 78.6355 106.886 80.1793L107.939 79.742C108.327 79.5825 108.675 79.3404 108.96 79.0326C109.245 78.7248 109.46 78.3587 109.589 77.9597Z" fill="#FFB573"/>
<path d="M109.695 67.7827L105.289 69.618L105.044 74.3553L111.219 73.0368L109.695 67.7827Z" fill="#FFB573"/>
<path d="M156.697 28.6249L152.411 23.7153L150.423 29.6784C150.423 29.6784 153.775 32.5672 156.505 30.0494L156.697 28.6249Z" fill="#FFB573"/>
<path d="M149.966 21.4028L146.931 25.5107L150.403 29.7048L152.411 23.7152L149.966 21.4028Z" fill="#FFB573"/>
<path d="M126.199 72.8514C126.199 72.8514 128.909 86.2352 142.452 98.0288C144.161 99.513 143.823 103.329 146.176 103.011C154.411 97.8168 162.846 92.7018 166.847 90.1708C166.947 85.6124 163.826 86.3478 163.091 83.8963C161.328 78.0591 156.498 71.4799 151.503 57.1089C148.219 58.3398 145.03 59.8103 141.962 61.5083C138.695 63.2891 135.548 65.281 132.54 67.4714C130.334 69.1523 128.217 70.9481 126.199 72.8514Z" fill="#0065BD"/>
<path d="M134.317 51.4834C135.642 54.889 138.55 60.8123 141.949 61.4947C141.949 61.4947 144.003 71.3139 139.962 76.7337C133.608 75.6802 132.534 67.4114 132.534 67.4114C135.403 64.4696 133.733 62.0182 131.66 60.0371L134.317 51.4834Z" fill="#FFB573"/>
<path d="M136.052 77.27C135.695 77.2566 135.344 77.171 135.021 77.0185C134.697 76.8659 134.408 76.6494 134.171 76.3822C132.938 75.1167 133.362 73.1886 133.813 71.1413C134.263 69.094 134.714 67.04 133.813 65.2114C133.791 65.1665 133.788 65.1148 133.804 65.0676C133.82 65.0204 133.854 64.9815 133.899 64.9596C133.944 64.9376 133.995 64.9343 134.043 64.9505C134.09 64.9666 134.129 65.0009 134.151 65.0457C135.125 66.987 134.634 69.2397 134.197 71.2208C133.76 73.2019 133.369 75.004 134.462 76.1171C134.645 76.339 134.871 76.5216 135.126 76.6537C135.382 76.7858 135.661 76.8648 135.948 76.8858C136.235 76.9069 136.523 76.8696 136.794 76.7762C137.066 76.6828 137.317 76.5352 137.53 76.3424C139.703 74.7324 141.088 70.1938 139.517 67.3978C138.08 64.7476 139.517 62.4551 140.18 61.342C140.303 61.1643 140.409 60.9758 140.498 60.7788C140.492 60.7553 140.491 60.7308 140.495 60.7069C140.499 60.683 140.508 60.6601 140.521 60.6396C140.534 60.6192 140.551 60.6016 140.571 60.5879C140.591 60.5743 140.613 60.5648 140.637 60.5602C140.662 60.5553 140.687 60.5555 140.712 60.5605C140.737 60.5656 140.761 60.5755 140.781 60.5896C140.802 60.6038 140.82 60.6219 140.834 60.643C140.848 60.6641 140.858 60.6877 140.862 60.7125C140.902 60.8914 140.77 61.1101 140.505 61.5407C139.796 62.6737 138.477 64.7939 139.842 67.2189C141.465 70.1673 140.008 74.9444 137.722 76.6472C137.247 77.0288 136.661 77.2472 136.052 77.27Z" fill="#263238"/>
<path opacity="0.2" d="M133.242 54.9624L131.666 60.0641C132.149 60.5227 132.592 61.0214 132.991 61.5549C134.163 60.5544 135.376 58.1692 134.66 56.7248C134.294 56.0592 133.814 55.4628 133.242 54.9624Z" fill="black"/>
<path d="M134.031 44.6264C135.866 50.3377 136.767 52.7097 135.071 56.6718C132.52 62.6349 125.133 63.6354 121.601 58.5933C118.448 54.0547 115.976 45.4811 120.568 41.1347C121.575 40.1714 122.811 39.4814 124.159 39.1301C125.508 38.7789 126.924 38.7782 128.273 39.128C129.622 39.4779 130.859 40.1666 131.866 41.1289C132.874 42.0913 133.619 43.2952 134.031 44.6264Z" fill="#FFB573"/>
<path d="M122.197 43.2277C122.588 46.3483 129.3 49.9328 135.522 48.4685C139.868 47.4416 136.489 39.8088 131.321 38.4704C126.153 37.1321 121.555 38.1193 122.197 43.2277Z" fill="#263238"/>
<path d="M125.073 43.2083L111.941 44.8448C111.941 44.8448 115.645 35.9863 125.073 43.2083Z" fill="#263238"/>
<path d="M124.238 43.0359L113.551 47.6738C113.551 47.6738 114.519 39.2593 124.238 43.0359Z" fill="#263238"/>
<path d="M123.139 43.0361L120.157 47.2633C120.157 47.2633 118.567 43.871 123.139 43.0361Z" fill="#263238"/>
<path d="M124.769 43.0356L113.777 40.4781C113.777 40.4781 119.376 34.4951 124.769 43.0356Z" fill="#263238"/>
<path d="M123.642 43.2872L118.494 36.9001C118.494 36.9001 124.377 35.9593 123.642 43.2872Z" fill="#263238"/>
<path d="M136.867 49.317C137.165 50.4349 137.01 51.6254 136.436 52.6298C135.667 53.9549 134.21 53.5243 133.534 52.2389C132.924 51.0794 132.593 48.9857 133.799 48.0979C134.068 47.9133 134.378 47.7977 134.702 47.7614C135.026 47.7251 135.355 47.7691 135.658 47.8895C135.961 48.01 136.23 48.2033 136.441 48.4522C136.651 48.7011 136.798 48.9981 136.867 49.317Z" fill="#FFB573"/>
<path opacity="0.2" d="M158.745 104.582C158.659 110.936 162.289 119.496 166.921 124.969C166.417 119.92 166.006 115.03 165.675 110.637C163.349 108.053 160.944 105.794 158.745 104.582Z" fill="black"/>
<path d="M166.928 88.9778L169.035 90.2433C169.2 90.336 169.121 90.5944 168.882 90.7468L147.13 104.482C146.945 104.601 146.726 104.608 146.64 104.482L145.315 102.739C145.222 102.62 145.315 102.408 145.52 102.282L166.523 89.0308C166.582 88.9908 166.649 88.9652 166.719 88.956C166.789 88.9468 166.861 88.9542 166.928 88.9778Z" fill="#0065BD"/>
<path opacity="0.4" d="M166.928 88.9778L169.035 90.2433C169.2 90.336 169.121 90.5944 168.882 90.7468L147.13 104.482C146.945 104.601 146.726 104.608 146.64 104.482L145.315 102.739C145.222 102.62 145.315 102.408 145.52 102.282L166.523 89.0308C166.582 88.9908 166.649 88.9652 166.719 88.956C166.789 88.9468 166.861 88.9542 166.928 88.9778Z" fill="black"/>
<path d="M165.589 93.1057L166.152 92.7479C166.265 92.6817 166.311 92.5691 166.258 92.5028L164.476 90.2567C164.423 90.1905 164.283 90.1971 164.177 90.2567L163.614 90.6145C163.502 90.6874 163.449 90.8 163.502 90.8596L165.291 93.1057C165.333 93.1396 165.385 93.1581 165.44 93.1581C165.494 93.1581 165.546 93.1396 165.589 93.1057Z" fill="#263238"/>
<path d="M148.839 103.687L149.395 103.329C149.508 103.263 149.561 103.151 149.508 103.084L147.719 100.838C147.666 100.772 147.534 100.779 147.421 100.838L146.858 101.196C146.745 101.269 146.699 101.382 146.752 101.448L148.534 103.687C148.578 103.722 148.631 103.74 148.687 103.74C148.742 103.74 148.796 103.722 148.839 103.687Z" fill="#263238"/>
<path d="M157.214 98.3997L157.778 98.0419C157.89 97.969 157.937 97.8564 157.884 97.7901L156.095 95.5507C156.048 95.4844 155.909 95.4844 155.797 95.5507L155.233 95.9085C155.121 95.9747 155.074 96.0873 155.127 96.1536L156.916 98.3997C156.969 98.4726 157.102 98.466 157.214 98.3997Z" fill="#263238"/>
<path d="M126.186 49.4895C126.365 49.94 126.266 50.4038 125.974 50.5231C125.683 50.6424 125.312 50.3641 125.113 49.9069C124.914 49.4497 125.034 48.9926 125.332 48.8799C125.63 48.7673 126.008 49.039 126.186 49.4895Z" fill="#263238"/>
<path d="M121.064 51.4973C121.243 51.9479 121.144 52.4117 120.846 52.5243C120.548 52.6369 120.183 52.3653 119.991 51.9147C119.799 51.4642 119.911 51.0004 120.21 50.8811C120.508 50.7619 120.879 51.0402 121.064 51.4973Z" fill="#263238"/>
<path d="M120.342 50.854L119.13 50.9666C119.13 50.9666 120.018 51.6027 120.342 50.854Z" fill="#263238"/>
<path d="M122.721 51.7417C122.722 52.9359 122.557 54.1243 122.231 55.2732C122.527 55.3483 122.836 55.3576 123.136 55.3003C123.436 55.2431 123.719 55.1207 123.967 54.9419L122.721 51.7417Z" fill="#ED893E"/>
<path d="M126.246 56.1151C126.213 56.1224 126.178 56.1178 126.148 56.1021C126.118 56.0863 126.094 56.0605 126.081 56.029C126.073 56.0117 126.069 55.993 126.069 55.9741C126.069 55.9552 126.073 55.9365 126.081 55.9192C126.088 55.9018 126.099 55.8861 126.113 55.8731C126.126 55.8601 126.142 55.85 126.16 55.8435C126.73 55.6326 127.242 55.2915 127.656 54.8474C128.07 54.4034 128.375 53.8687 128.545 53.286C128.553 53.25 128.575 53.2186 128.606 53.1987C128.637 53.1788 128.675 53.1721 128.711 53.18C128.729 53.1831 128.747 53.19 128.763 53.2001C128.779 53.2102 128.792 53.2234 128.803 53.2389C128.813 53.2543 128.82 53.2718 128.824 53.2901C128.828 53.3084 128.828 53.3273 128.824 53.3456C128.651 53.9776 128.328 54.5587 127.883 55.0396C127.437 55.5205 126.883 55.8871 126.266 56.1085L126.246 56.1151Z" fill="#263238"/>
<path d="M126.418 47.6738C126.354 47.6965 126.284 47.6965 126.22 47.6738C125.902 47.5062 125.549 47.4159 125.19 47.4101C124.831 47.4044 124.475 47.4834 124.152 47.6407C124.12 47.6596 124.084 47.6718 124.046 47.6767C124.009 47.6816 123.971 47.6791 123.935 47.6692C123.898 47.6594 123.864 47.6424 123.835 47.6193C123.805 47.5962 123.78 47.5674 123.761 47.5346C123.724 47.4692 123.714 47.3921 123.733 47.3192C123.751 47.2464 123.797 47.1835 123.861 47.1437C124.264 46.9357 124.712 46.8271 125.166 46.8271C125.62 46.8271 126.068 46.9357 126.471 47.1437C126.539 47.1779 126.591 47.2372 126.616 47.309C126.64 47.3807 126.636 47.4593 126.604 47.528C126.585 47.5642 126.559 47.5959 126.527 47.621C126.495 47.6462 126.458 47.6641 126.418 47.6738Z" fill="#263238"/>
<path d="M117.751 50.0523C117.708 50.0623 117.663 50.0623 117.619 50.0523C117.545 50.0365 117.481 49.992 117.44 49.9286C117.399 49.8653 117.385 49.7882 117.4 49.7144C117.492 49.2634 117.693 48.8416 117.985 48.4859C118.277 48.1303 118.652 47.8514 119.077 47.6737C119.111 47.66 119.148 47.6534 119.186 47.6544C119.223 47.6553 119.26 47.6638 119.294 47.6792C119.328 47.6947 119.358 47.7168 119.384 47.7444C119.409 47.7719 119.428 47.8042 119.441 47.8394C119.456 47.874 119.463 47.9113 119.463 47.949C119.462 47.9866 119.454 48.0237 119.438 48.058C119.423 48.0923 119.4 48.1229 119.372 48.148C119.344 48.1731 119.311 48.1921 119.275 48.2038C118.951 48.3578 118.668 48.5864 118.449 48.8709C118.231 49.1553 118.082 49.4875 118.016 49.8403C117.999 49.8984 117.964 49.9498 117.917 49.9877C117.87 50.0256 117.812 50.0482 117.751 50.0523Z" fill="#263238"/>
<path d="M154.147 56.2871L154.504 56.1148L154.981 55.8763C155.306 55.7106 155.644 55.5317 155.962 55.3396C156.625 54.9487 157.287 54.5246 157.897 54.0675C159.193 53.138 160.413 52.1078 161.547 50.9866C162.699 49.8567 163.787 48.6645 164.807 47.4153L165.556 46.448L165.927 45.9643L165.973 45.9047C165.973 45.9047 165.973 45.8649 166.013 45.8451C166.152 45.5802 166.187 45.2732 166.112 44.9837C165.999 44.3826 165.796 43.8019 165.51 43.2611C165.163 42.5938 164.773 41.9498 164.343 41.333C163.397 40.001 162.361 38.7349 161.243 37.5431C158.91 35.0607 156.439 32.7115 153.842 30.5067L155.591 27.9956C158.694 29.8425 161.627 31.9599 164.357 34.3231C165.773 35.5426 167.091 36.8718 168.299 38.2985C168.961 39.0553 169.562 39.864 170.094 40.7168C170.694 41.6872 171.141 42.7443 171.42 43.8507C171.583 44.5181 171.652 45.205 171.625 45.8914C171.588 46.6635 171.41 47.4223 171.102 48.1309C171.026 48.3126 170.94 48.4896 170.843 48.661L170.697 48.9127L170.572 49.1049L170.194 49.6946L169.432 50.8673C168.347 52.4144 167.156 53.8844 165.867 55.2667C164.537 56.6481 163.099 57.922 161.567 59.0765C160.782 59.6572 159.966 60.1947 159.122 60.6865C158.692 60.9383 158.254 61.1768 157.797 61.4087L157.088 61.74C156.823 61.8526 156.631 61.9387 156.24 62.0779L154.147 56.2871Z" fill="#FFB573"/>
<path d="M145.156 59.8249C148.071 56.6247 157.46 53.6167 157.46 53.6167L160.474 68.9617C160.474 68.9617 157.221 72.2016 153.279 71.0885C149.926 70.141 141.001 64.3834 145.156 59.8249Z" fill="#0065BD"/>
<path d="M125.471 48.853L124.258 48.9657C124.258 48.9657 125.153 49.5951 125.471 48.853Z" fill="#263238"/>
<path d="M175.991 9H102.652C92.4611 9 84.1997 17.2614 84.1997 27.4524V206.285C84.1997 216.476 92.4611 224.737 102.652 224.737H175.991C186.182 224.737 194.444 216.476 194.444 206.285V27.4524C194.444 17.2614 186.182 9 175.991 9Z" fill="#0065BD"/>
<path opacity="0.2" d="M175.991 9H102.652C92.4611 9 84.1997 17.2614 84.1997 27.4524V206.285C84.1997 216.476 92.4611 224.737 102.652 224.737H175.991C186.182 224.737 194.444 216.476 194.444 206.285V27.4524C194.444 17.2614 186.182 9 175.991 9Z" fill="black"/>
<path d="M190.793 43.7847H177.628C174.81 43.7847 172.526 46.0688 172.526 48.8864V67.4382C172.526 70.2558 174.81 72.5399 177.628 72.5399H190.793C193.611 72.5399 195.895 70.2558 195.895 67.4382V48.8864C195.895 46.0688 193.611 43.7847 190.793 43.7847Z" fill="#0065BD"/>
<path opacity="0.2" d="M190.793 43.7847H177.628C174.81 43.7847 172.526 46.0688 172.526 48.8864V67.4382C172.526 70.2558 174.81 72.5399 177.628 72.5399H190.793C193.611 72.5399 195.895 70.2558 195.895 67.4382V48.8864C195.895 46.0688 193.611 43.7847 190.793 43.7847Z" fill="black"/>
<path d="M100.267 43.7847H87.1017C84.2841 43.7847 82 46.0688 82 48.8864V76.6478C82 79.4654 84.2841 81.7495 87.1017 81.7495H100.267C103.084 81.7495 105.369 79.4654 105.369 76.6478V48.8864C105.369 46.0688 103.084 43.7847 100.267 43.7847Z" fill="#0065BD"/>
<path opacity="0.2" d="M100.267 43.7847H87.1017C84.2841 43.7847 82 46.0688 82 48.8864V76.6478C82 79.4654 84.2841 81.7495 87.1017 81.7495H100.267C103.084 81.7495 105.369 79.4654 105.369 76.6478V48.8864C105.369 46.0688 103.084 43.7847 100.267 43.7847Z" fill="black"/>
<path d="M190.793 74.6138H177.628C174.81 74.6138 172.526 76.8979 172.526 79.7155V98.2673C172.526 101.085 174.81 103.369 177.628 103.369H190.793C193.611 103.369 195.895 101.085 195.895 98.2673V79.7155C195.895 76.8979 193.611 74.6138 190.793 74.6138Z" fill="#0065BD"/>
<path opacity="0.2" d="M190.793 74.6138H177.628C174.81 74.6138 172.526 76.8979 172.526 79.7155V98.2673C172.526 101.085 174.81 103.369 177.628 103.369H190.793C193.611 103.369 195.895 101.085 195.895 98.2673V79.7155C195.895 76.8979 193.611 74.6138 190.793 74.6138Z" fill="black"/>
<path d="M174.951 9H101.612C91.4211 9 83.1597 17.2614 83.1597 27.4524V206.285C83.1597 216.476 91.4211 224.737 101.612 224.737H174.951C185.142 224.737 193.404 216.476 193.404 206.285V27.4524C193.404 17.2614 185.142 9 174.951 9Z" fill="#0065BD"/>
<path d="M191.204 206.278V27.4524C191.204 18.4763 183.928 11.1997 174.951 11.1997L101.612 11.1997C92.6362 11.1997 85.3596 18.4763 85.3596 27.4524L85.3596 206.278C85.3596 215.254 92.6362 222.531 101.612 222.531H174.951C183.928 222.531 191.204 215.254 191.204 206.278Z" fill="white"/>
<path d="M182.683 142.421H93.8994V148.384H182.683V142.421Z" fill="#E3F2FC"/>
<path d="M182.683 153.021H93.8994V158.985H182.683V153.021Z" fill="#E3F2FC"/>
<path d="M181.537 16.957H174.123C173.504 16.957 173.003 17.4584 173.003 18.0768V21.3101C173.003 21.9285 173.504 22.4298 174.123 22.4298H181.537C182.155 22.4298 182.656 21.9285 182.656 21.3101V18.0768C182.656 17.4584 182.155 16.957 181.537 16.957Z" fill="#0065BD"/>
<path opacity="0.2" d="M104.872 16.957H94.9467C94.2477 16.957 93.6812 17.5236 93.6812 18.2225V21.1643C93.6812 21.8632 94.2477 22.4298 94.9467 22.4298H104.872C105.571 22.4298 106.137 21.8632 106.137 21.1643V18.2225C106.137 17.5236 105.571 16.957 104.872 16.957Z" fill="#0065BD"/>
<path d="M173.394 17.8916H172.228C172.001 17.8916 171.817 18.0755 171.817 18.3024V21.0852C171.817 21.312 172.001 21.4959 172.228 21.4959H173.394C173.621 21.4959 173.805 21.312 173.805 21.0852V18.3024C173.805 18.0755 173.621 17.8916 173.394 17.8916Z" fill="#0065BD"/>
<path d="M181.319 17.8916H180.152C179.926 17.8916 179.742 18.0755 179.742 18.3024V21.0852C179.742 21.312 179.926 21.4959 180.152 21.4959H181.319C181.545 21.4959 181.729 21.312 181.729 21.0852V18.3024C181.729 18.0755 181.545 17.8916 181.319 17.8916Z" fill="white"/>
<path d="M178.807 17.8916H177.641C177.414 17.8916 177.23 18.0755 177.23 18.3024V21.0852C177.23 21.312 177.414 21.4959 177.641 21.4959H178.807C179.034 21.4959 179.218 21.312 179.218 21.0852V18.3024C179.218 18.0755 179.034 17.8916 178.807 17.8916Z" fill="white"/>
<path opacity="0.2" d="M96.7948 28.2539H179.768C180.534 28.2539 181.269 28.5583 181.81 29.1C182.352 29.6418 182.656 30.3765 182.656 31.1427V132.356C182.656 133.122 182.352 133.857 181.81 134.399C181.269 134.94 180.534 135.245 179.768 135.245H96.7948C96.0269 135.245 95.2904 134.94 94.7475 134.397C94.2045 133.854 93.8994 133.117 93.8994 132.349V31.1493C93.8994 30.3832 94.2038 29.6484 94.7455 29.1066C95.2873 28.5649 96.022 28.2605 96.7882 28.2605L96.7948 28.2539Z" fill="#0065BD"/>
<path d="M182.78 142.606H93.8701V148.696H182.78V142.606Z" fill="#E0E0E0"/>
<path d="M182.78 153.567H93.8701V159.657H182.78V153.567Z" fill="#E0E0E0"/>
<path d="M116.924 199.282H95.6226V201.766H116.924V199.282Z" fill="#E0E0E0"/>
<path d="M113.332 204.013H99.2065V206.497H113.332V204.013Z" fill="#E0E0E0"/>
<path d="M148.442 199.282H127.14V201.766H148.442V199.282Z" fill="#E0E0E0"/>
<path d="M144.857 204.013H130.731V206.497H144.857V204.013Z" fill="#E0E0E0"/>
<path d="M180.941 199.282H159.639V201.766H180.941V199.282Z" fill="#E0E0E0"/>
<path d="M177.356 204.013H163.23V206.497H177.356V204.013Z" fill="#E0E0E0"/>
<path d="M116.738 10.6768C116.744 12.0563 117.294 13.3779 118.269 14.3534C119.245 15.3289 120.566 15.8793 121.946 15.8845H154.617C155.997 15.8793 157.318 15.3289 158.294 14.3534C159.269 13.3779 159.82 12.0563 159.825 10.6768H116.738Z" fill="#0065BD"/>
<path d="M118.306 184.537C119.875 177.888 115.757 171.225 109.108 169.656C102.459 168.087 95.7966 172.205 94.2273 178.854C92.6579 185.503 96.7759 192.165 103.425 193.735C110.074 195.304 116.736 191.186 118.306 184.537Z" fill="#E0E0E0"/>
<path d="M182.32 184.532C183.89 177.883 179.772 171.221 173.123 169.652C166.474 168.082 159.811 172.2 158.242 178.849C156.673 185.499 160.791 192.161 167.44 193.73C174.089 195.3 180.751 191.182 182.32 184.532Z" fill="#E0E0E0"/>
<path d="M147.023 190.452C151.854 185.621 151.854 177.789 147.023 172.958C142.192 168.127 134.36 168.127 129.529 172.958C124.698 177.789 124.698 185.621 129.529 190.452C134.36 195.283 142.192 195.283 147.023 190.452Z" fill="#E0E0E0"/>
<g clip-path="url(#clip0_6551_20878)">
<path d="M177.947 295.003C177.758 294.219 177.05 293.696 176.36 293.291C174.871 292.426 173.249 291.804 171.751 290.939C169.645 289.732 167.833 288.074 166.13 286.353C165.547 285.768 164.982 285.173 164.427 284.56C164.66 284.425 164.911 284.299 165.144 284.146C164.104 281.425 163.279 278.623 162.669 275.776C162.427 274.632 162.221 273.433 162.49 272.298C162.768 271.127 163.521 270.127 163.916 268.982C164.471 267.343 164.238 265.559 164.059 263.838C163.18 255.459 163.754 247.008 164.337 238.602C164.444 237.07 164.552 235.52 165.054 234.07C165.413 233.052 165.969 232.016 165.753 230.961C165.61 230.25 165.135 229.655 164.794 229.015C163.736 227.051 163.916 224.673 164.122 222.438C165.359 209.104 166.605 195.769 167.842 182.435C169.349 181.083 170.64 179.399 171.841 177.768C171.267 176.858 170.747 175.921 170.254 174.975C171.213 174.155 171.796 172.939 172.038 171.695C172.065 171.551 172.074 171.407 172.092 171.254C172.89 171.632 173.742 171.912 174.665 172.047C173.016 170.443 173.876 167.019 173.822 164.713C173.688 158.685 173.545 152.667 173.41 146.639C173.392 145.702 173.374 144.729 173.769 143.882C173.921 143.558 174.118 143.27 174.235 142.927C174.477 142.188 174.208 141.387 173.966 140.648C173.15 138.152 172.549 135.584 172.182 132.98C172.002 131.71 171.877 130.404 172.209 129.169C172.397 128.467 172.72 127.8 172.791 127.079C172.881 126.196 173.078 114.945 172.791 114.107C169.492 104.242 166.632 104.447 165.233 94.1304C160.661 92.6348 156.187 90.8599 151.83 88.8237C148.791 87.4002 145.42 85.3099 145.115 81.9493C144.953 81.9313 144.792 81.9042 144.622 81.8862C144.649 80.769 144.586 79.4986 144.568 77.03C145.984 75.9398 146.998 74.336 147.365 72.5882C147.428 72.2908 147.473 71.9845 147.616 71.7232C147.769 71.4349 148.011 71.2097 148.235 70.9754C149.284 69.9033 150.064 68.5788 150.494 67.1373C150.772 66.2003 150.853 65.038 150.118 64.3893C150.118 61.7494 150.118 59.1186 150.118 56.4787C150.118 56.0102 150.118 55.5327 149.956 55.0912C149.759 54.5687 149.364 54.1632 149.024 53.7308C147.957 52.3613 147.428 50.5774 147.562 48.8475C146.818 48.9106 146.065 48.9736 145.339 48.8114C144.613 48.6493 143.904 48.2168 143.6 47.5321C143.51 47.3429 143.456 47.1266 143.295 47.0005C143.017 46.7752 142.604 46.9194 142.246 46.8924C141.484 46.8383 141.009 46.0184 140.309 45.7211C138.938 45.1535 137.127 46.6851 136.024 45.6851C135.862 45.5409 135.746 45.3607 135.576 45.2256C135.073 44.8382 134.356 45.0544 133.773 45.3247C130.887 46.6401 128.349 48.7123 126.476 51.2801C126.198 51.6675 125.929 52.073 125.848 52.5415C125.776 52.9739 125.875 53.4334 125.713 53.8389C125.516 54.3705 124.924 54.7128 124.853 55.2804C124.817 55.5958 124.96 55.9111 125.032 56.2175C125.301 57.3076 124.763 58.4158 124.548 59.524C124.225 61.1368 124.611 62.8847 125.597 64.2091C125.14 64.1731 124.709 64.5154 124.512 64.9389C124.315 65.3623 124.288 65.8399 124.279 66.2994C124.252 67.7229 124.297 69.1825 124.817 70.5159C125.337 71.8403 126.404 73.0296 127.784 73.345C128.027 73.399 128.233 76.4984 128.269 76.8498C128.376 77.8859 128.313 79.0481 128.6 80.0482C128.672 80.3095 128.798 80.5438 128.923 80.778C123.58 85.382 117.51 89.1481 111.01 91.86C108.84 92.761 106.608 93.5628 104.644 94.8602C104.259 95.1125 103.856 95.4279 103.757 95.8783C103.685 96.2207 103.793 96.5631 103.9 96.8964C104.465 98.5813 105.075 100.518 104.187 102.059C103.775 102.771 103.076 103.311 102.842 104.095C102.69 104.6 102.753 105.14 102.807 105.663C103.067 108.474 102.878 111.339 102.233 114.087C102.053 114.853 101.847 115.664 102.125 116.403C102.322 116.916 102.744 117.349 102.842 117.889C103.049 119.042 101.767 119.862 101.3 120.925C100.978 121.655 101.049 122.493 101.103 123.295C101.48 128.872 100.789 134.467 99.9824 140.008C100.61 140.107 101.139 140.648 101.238 141.269C101.336 141.891 100.996 142.576 100.431 142.864C99.9555 145.108 101.82 147.144 102.313 149.387C102.564 150.54 102.475 151.775 102.914 152.865C103.129 153.406 103.461 153.883 103.676 154.424C104.107 155.496 104.044 156.694 104.017 157.847C103.963 159.775 104.035 161.713 104.205 163.641C104.322 164.857 104.474 166.073 104.788 167.254C105.819 171.155 108.482 174.506 109.217 178.471C109.773 177.885 110.364 177.326 110.956 176.777C111.826 178.335 112.956 179.714 114.121 180.561C114.381 180.75 114.65 180.912 114.937 181.065C114.408 182.327 113.744 183.525 112.902 184.615C113.565 184.967 114.273 185.201 115 185.363C114.838 185.823 114.802 186.318 114.784 186.805C114.202 199.526 113.619 212.239 113.036 224.961C112.964 226.583 112.893 228.231 113.323 229.79C113.52 230.493 113.816 231.178 113.834 231.907C113.852 232.583 113.628 233.241 113.44 233.89C112.642 236.674 112.516 239.602 112.391 242.494C112.086 249.792 111.781 257.09 111.476 264.388C111.431 265.406 111.378 266.469 110.893 267.37C110.598 267.901 110.167 268.361 109.916 268.91C109.289 270.307 109.97 271.902 110.499 273.343C112.301 278.236 112.301 283.587 112.283 288.813C112.507 288.822 112.74 288.831 112.964 288.84C111.763 290.894 110.104 292.696 108.365 294.336C107.253 295.381 106.088 296.417 105.308 297.733C104.609 298.931 104.268 300.3 103.945 301.643C103.864 301.985 103.784 302.355 103.945 302.67C104.053 302.868 104.241 303.012 104.438 303.129C105.12 303.535 105.918 303.688 106.698 303.823C107.549 303.967 108.401 304.093 109.262 304.039C110.382 303.976 111.458 303.607 112.525 303.256C113.628 302.886 114.74 302.508 115.771 301.958C116.829 301.391 117.797 300.625 118.595 299.724C119.07 299.192 119.518 298.589 120.173 298.318C120.567 298.156 121.007 298.138 121.428 298.066C122.522 297.895 123.562 297.408 124.387 296.678C124.512 296.561 124.647 296.444 124.718 296.282C124.808 296.084 124.799 295.85 124.79 295.633C124.673 293.183 124.539 290.732 124.333 288.29C125.633 287.29 126.467 285.623 127.166 284.074C127.39 283.578 127.614 283.029 127.462 282.506C127.291 281.929 126.709 281.578 126.395 281.065C125.929 280.299 126.108 279.308 126.314 278.434C127.282 274.217 128.26 269.992 129.228 265.775C129.506 264.55 129.793 263.315 129.82 262.063C129.847 260.865 129.631 259.675 129.497 258.486C129.228 256.044 129.318 253.567 129.425 251.116C130.16 234.691 132.043 218.312 135.064 202.148C135.567 199.472 136.096 196.796 137.046 194.247C137.673 192.562 138.489 190.913 139.189 189.246C140.48 198.301 143.16 207.212 144.317 216.312C145.07 222.231 145.178 228.204 145.285 234.169C145.411 241.35 145.536 248.53 145.671 255.711C145.733 259.126 145.778 262.613 144.747 265.865C144.478 266.721 144.129 267.622 144.38 268.487C144.909 270.298 147.688 270.73 148.082 272.577C147.32 272.271 146.424 272.794 146.029 273.514C145.635 274.235 145.599 275.1 145.581 275.92C145.509 278.938 145.572 282.326 147.697 284.47C147.796 284.569 147.912 284.65 148.02 284.741C148.02 284.741 148.02 284.75 148.02 284.759C147.5 286.939 147.267 289.182 147.32 291.426C147.329 291.795 147.347 292.183 147.518 292.516C147.804 293.093 148.45 293.372 149.069 293.543C151.032 294.093 153.121 293.921 155.156 293.903C157.2 293.894 159.343 294.084 161.038 295.228C162.4 296.156 163.36 297.633 164.839 298.354C166.139 298.994 167.663 298.958 169.107 298.895C171.231 298.805 173.392 298.697 175.418 298.039C176.1 297.814 176.781 297.525 177.301 297.021C177.812 296.516 178.135 295.759 177.965 295.057L177.947 295.003ZM166.937 166.461C166.937 166.461 166.955 166.479 166.964 166.497C166.964 166.497 166.964 166.515 166.964 166.524C166.964 166.506 166.955 166.488 166.946 166.461H166.937Z" fill="#0065BD"/>
</g>
<path d="M158.956 53V40H145.956" stroke="#FC4E4E" stroke-width="2" stroke-linecap="round" stroke-linejoin="round"/>
<path d="M128.956 40H114.956V53" stroke="#FC4E4E" stroke-width="2" stroke-linecap="round" stroke-linejoin="round"/>
<path d="M114.956 70V83H128.956" stroke="#FC4E4E" stroke-width="2" stroke-linecap="round" stroke-linejoin="round"/>
<path d="M145.956 83H158.956V70" stroke="#FC4E4E" stroke-width="2" stroke-linecap="round" stroke-linejoin="round"/>
<path d="M212.945 73.5599L168.598 150.651C168.317 151.129 168.167 151.674 168.165 152.23C168.163 152.786 168.307 153.332 168.584 153.813C168.862 154.294 169.261 154.693 169.742 154.968C170.223 155.243 170.768 155.385 171.321 155.379H260.015C260.568 155.384 261.112 155.241 261.592 154.965C262.072 154.69 262.471 154.291 262.747 153.81C263.023 153.329 263.168 152.784 263.165 152.228C263.162 151.673 263.013 151.129 262.732 150.651L218.385 73.5599C218.113 73.0759 217.718 72.6731 217.24 72.3928C216.762 72.1125 216.219 71.9648 215.665 71.9648C215.111 71.9648 214.568 72.1125 214.09 72.3928C213.612 72.6731 213.217 73.0759 212.945 73.5599Z" fill="#FC4E4E"/>
<path d="M215.568 142.78C212.157 142.78 209.803 140.215 209.803 136.798C209.803 133.248 212.226 130.815 215.699 130.815C219.172 130.815 221.458 133.248 221.527 136.798C221.527 140.215 219.234 142.78 215.699 142.78H215.568ZM211.976 127.529L210.534 97.7476H220.883L219.44 127.529H211.976Z" fill="white"/>
<defs>
<clipPath id="clip0_6551_20878">
<rect width="78" height="90" fill="white" transform="translate(99.9556 45)"/>
</clipPath>
</defs>
</svg>
