<svg width="244" height="258" viewBox="0 0 244 258" fill="none" xmlns="http://www.w3.org/2000/svg">
<path d="M50.1883 253.415H13.8491V253.625H50.1883V253.415Z" fill="#EBEBEB"/>
<path d="M63.011 253.415H57.6851V253.625H63.011V253.415Z" fill="#EBEBEB"/>
<path d="M159.147 256.965H80.3267V257.175H159.147V256.965Z" fill="#EBEBEB"/>
<path d="M231.573 37.314H29.5156V207.584H231.573V37.314Z" fill="#EBEBEB"/>
<path d="M231.581 40.9912H32.772V203.562H231.581V40.9912Z" fill="#FAFAFA"/>
<path d="M231.581 98.2975H203.538V89.463H198.389V44.668H196.176V89.463H188.823V98.2975H185.878V142.461H170.413V129.21H175.571V127.005H170.413V123.328H155.697V89.463H152.012V84.3138H134.352V89.463H132.139V136.572H124.045V157.918H119.628V140.989H115.951V136.572H107.848V121.116H103.439V110.809H98.2817V95.3526H96.0773V110.809H90.9197V121.116H86.5024V136.572H78.4084V140.989H74.7315V157.918H69.5739V113.022H67.3695V128.478H60.7394V157.918H57.803V101.242H55.5902V79.8965H53.3858V87.5615L40.134 93.754V101.242H34.2444V157.918H32.772V203.554H231.581V98.2975Z" fill="#F0F0F0"/>
<path d="M216.899 100.603H214.812V102.689H216.899V100.603Z" fill="#F5F5F5"/>
<path d="M216.899 104.103H214.812V106.19H216.899V104.103Z" fill="#F5F5F5"/>
<path d="M216.899 118.086H214.812V120.173H216.899V118.086Z" fill="#F5F5F5"/>
<path d="M216.899 121.587H214.812V123.674H216.899V121.587Z" fill="#F5F5F5"/>
<path d="M216.899 125.079H214.812V127.165H216.899V125.079Z" fill="#F5F5F5"/>
<path d="M216.899 135.571H214.812V137.657H216.899V135.571Z" fill="#F5F5F5"/>
<path d="M216.899 139.062H214.812V141.149H216.899V139.062Z" fill="#F5F5F5"/>
<path d="M213.584 114.595H211.498V116.682H213.584V114.595Z" fill="#F5F5F5"/>
<path d="M213.584 118.086H211.498V120.173H213.584V118.086Z" fill="#F5F5F5"/>
<path d="M213.584 121.587H211.498V123.674H213.584V121.587Z" fill="#F5F5F5"/>
<path d="M213.584 125.079H211.498V127.165H213.584V125.079Z" fill="#F5F5F5"/>
<path d="M213.584 128.579H211.498V130.666H213.584V128.579Z" fill="#F5F5F5"/>
<path d="M213.584 135.571H211.498V137.657H213.584V135.571Z" fill="#F5F5F5"/>
<path d="M213.584 139.062H211.498V141.149H213.584V139.062Z" fill="#F5F5F5"/>
<path d="M210.269 100.603H208.183V102.689H210.269V100.603Z" fill="#F5F5F5"/>
<path d="M210.269 104.103H208.183V106.19H210.269V104.103Z" fill="#F5F5F5"/>
<path d="M210.269 107.595H208.183V109.681H210.269V107.595Z" fill="#F5F5F5"/>
<path d="M210.269 111.095H208.183V113.182H210.269V111.095Z" fill="#F5F5F5"/>
<path d="M210.269 114.595H208.183V116.682H210.269V114.595Z" fill="#F5F5F5"/>
<path d="M210.269 118.086H208.183V120.173H210.269V118.086Z" fill="#F5F5F5"/>
<path d="M210.269 121.587H208.183V123.674H210.269V121.587Z" fill="#F5F5F5"/>
<path d="M210.269 125.079H208.183V127.165H210.269V125.079Z" fill="#F5F5F5"/>
<path d="M210.269 128.579H208.183V130.666H210.269V128.579Z" fill="#F5F5F5"/>
<path d="M210.269 132.071H208.183V134.157H210.269V132.071Z" fill="#F5F5F5"/>
<path d="M210.269 139.062H208.183V141.149H210.269V139.062Z" fill="#F5F5F5"/>
<path d="M206.963 100.603H204.876V102.689H206.963V100.603Z" fill="#F5F5F5"/>
<path d="M206.963 104.103H204.876V106.19H206.963V104.103Z" fill="#F5F5F5"/>
<path d="M206.963 107.595H204.876V109.681H206.963V107.595Z" fill="#F5F5F5"/>
<path d="M206.963 111.095H204.876V113.182H206.963V111.095Z" fill="#F5F5F5"/>
<path d="M206.963 114.595H204.876V116.682H206.963V114.595Z" fill="#F5F5F5"/>
<path d="M206.963 118.086H204.876V120.173H206.963V118.086Z" fill="#F5F5F5"/>
<path d="M206.963 121.587H204.876V123.674H206.963V121.587Z" fill="#F5F5F5"/>
<path d="M206.963 153.055H204.876V155.141H206.963V153.055Z" fill="#F5F5F5"/>
<path d="M203.648 100.603H201.561V102.689H203.648V100.603Z" fill="#F5F5F5"/>
<path d="M203.648 104.103H201.561V106.19H203.648V104.103Z" fill="#F5F5F5"/>
<path d="M203.648 107.595H201.561V109.681H203.648V107.595Z" fill="#F5F5F5"/>
<path d="M203.648 111.095H201.561V113.182H203.648V111.095Z" fill="#F5F5F5"/>
<path d="M203.648 114.595H201.561V116.682H203.648V114.595Z" fill="#F5F5F5"/>
<path d="M203.648 118.086H201.561V120.173H203.648V118.086Z" fill="#F5F5F5"/>
<path d="M203.648 121.587H201.561V123.674H203.648V121.587Z" fill="#F5F5F5"/>
<path d="M203.648 125.079H201.561V127.165H203.648V125.079Z" fill="#F5F5F5"/>
<path d="M203.648 146.055H201.561V148.141H203.648V146.055Z" fill="#F5F5F5"/>
<path d="M203.648 149.555H201.561V151.641H203.648V149.555Z" fill="#F5F5F5"/>
<path d="M203.648 153.055H201.561V155.141H203.648V153.055Z" fill="#F5F5F5"/>
<path d="M203.648 156.546H201.561V158.633H203.648V156.546Z" fill="#F5F5F5"/>
<path d="M203.648 170.53H201.561V172.616H203.648V170.53Z" fill="#F5F5F5"/>
<path d="M200.333 100.603H198.246V102.689H200.333V100.603Z" fill="#F5F5F5"/>
<path d="M200.333 104.103H198.246V106.19H200.333V104.103Z" fill="#F5F5F5"/>
<path d="M200.333 107.595H198.246V109.681H200.333V107.595Z" fill="#F5F5F5"/>
<path d="M200.333 111.095H198.246V113.182H200.333V111.095Z" fill="#F5F5F5"/>
<path d="M200.333 114.595H198.246V116.682H200.333V114.595Z" fill="#F5F5F5"/>
<path d="M200.333 118.086H198.246V120.173H200.333V118.086Z" fill="#F5F5F5"/>
<path d="M200.333 121.587H198.246V123.674H200.333V121.587Z" fill="#F5F5F5"/>
<path d="M200.333 125.079H198.246V127.165H200.333V125.079Z" fill="#F5F5F5"/>
<path d="M200.333 128.579H198.246V130.666H200.333V128.579Z" fill="#F5F5F5"/>
<path d="M200.333 132.071H198.246V134.157H200.333V132.071Z" fill="#F5F5F5"/>
<path d="M200.333 142.562H198.246V144.649H200.333V142.562Z" fill="#F5F5F5"/>
<path d="M200.333 146.055H198.246V148.141H200.333V146.055Z" fill="#F5F5F5"/>
<path d="M200.333 149.555H198.246V151.641H200.333V149.555Z" fill="#F5F5F5"/>
<path d="M200.333 153.055H198.246V155.141H200.333V153.055Z" fill="#F5F5F5"/>
<path d="M200.333 156.546H198.246V158.633H200.333V156.546Z" fill="#F5F5F5"/>
<path d="M200.333 170.53H198.246V172.616H200.333V170.53Z" fill="#F5F5F5"/>
<path d="M197.026 100.603H194.939V102.689H197.026V100.603Z" fill="#F5F5F5"/>
<path d="M197.026 104.103H194.939V106.19H197.026V104.103Z" fill="#F5F5F5"/>
<path d="M197.026 107.595H194.939V109.681H197.026V107.595Z" fill="#F5F5F5"/>
<path d="M197.026 111.095H194.939V113.182H197.026V111.095Z" fill="#F5F5F5"/>
<path d="M197.026 114.595H194.939V116.682H197.026V114.595Z" fill="#F5F5F5"/>
<path d="M197.026 118.086H194.939V120.173H197.026V118.086Z" fill="#F5F5F5"/>
<path d="M197.026 121.587H194.939V123.674H197.026V121.587Z" fill="#F5F5F5"/>
<path d="M197.026 125.079H194.939V127.165H197.026V125.079Z" fill="#F5F5F5"/>
<path d="M197.026 128.579H194.939V130.666H197.026V128.579Z" fill="#F5F5F5"/>
<path d="M197.026 132.071H194.939V134.157H197.026V132.071Z" fill="#F5F5F5"/>
<path d="M197.026 135.571H194.939V137.657H197.026V135.571Z" fill="#F5F5F5"/>
<path d="M197.026 139.062H194.939V141.149H197.026V139.062Z" fill="#F5F5F5"/>
<path d="M197.026 142.562H194.939V144.649H197.026V142.562Z" fill="#F5F5F5"/>
<path d="M197.026 146.055H194.939V148.141H197.026V146.055Z" fill="#F5F5F5"/>
<path d="M197.026 149.555H194.939V151.641H197.026V149.555Z" fill="#F5F5F5"/>
<path d="M197.026 153.055H194.939V155.141H197.026V153.055Z" fill="#F5F5F5"/>
<path d="M197.026 156.546H194.939V158.633H197.026V156.546Z" fill="#F5F5F5"/>
<path d="M197.026 160.046H194.939V162.133H197.026V160.046Z" fill="#F5F5F5"/>
<path d="M193.711 100.603H191.624V102.689H193.711V100.603Z" fill="#F5F5F5"/>
<path d="M193.711 104.103H191.624V106.19H193.711V104.103Z" fill="#F5F5F5"/>
<path d="M193.711 107.595H191.624V109.681H193.711V107.595Z" fill="#F5F5F5"/>
<path d="M193.711 111.095H191.624V113.182H193.711V111.095Z" fill="#F5F5F5"/>
<path d="M193.711 114.595H191.624V116.682H193.711V114.595Z" fill="#F5F5F5"/>
<path d="M193.711 118.086H191.624V120.173H193.711V118.086Z" fill="#F5F5F5"/>
<path d="M193.711 121.587H191.624V123.674H193.711V121.587Z" fill="#F5F5F5"/>
<path d="M193.711 125.079H191.624V127.165H193.711V125.079Z" fill="#F5F5F5"/>
<path d="M193.711 128.579H191.624V130.666H193.711V128.579Z" fill="#F5F5F5"/>
<path d="M193.711 132.071H191.624V134.157H193.711V132.071Z" fill="#F5F5F5"/>
<path d="M193.711 142.562H191.624V144.649H193.711V142.562Z" fill="#F5F5F5"/>
<path d="M193.711 146.055H191.624V148.141H193.711V146.055Z" fill="#F5F5F5"/>
<path d="M193.711 149.555H191.624V151.641H193.711V149.555Z" fill="#F5F5F5"/>
<path d="M193.711 153.055H191.624V155.141H193.711V153.055Z" fill="#F5F5F5"/>
<path d="M190.396 100.603H188.309V102.689H190.396V100.603Z" fill="#F5F5F5"/>
<path d="M190.396 104.103H188.309V106.19H190.396V104.103Z" fill="#F5F5F5"/>
<path d="M190.396 107.595H188.309V109.681H190.396V107.595Z" fill="#F5F5F5"/>
<path d="M190.396 111.095H188.309V113.182H190.396V111.095Z" fill="#F5F5F5"/>
<path d="M190.396 114.595H188.309V116.682H190.396V114.595Z" fill="#F5F5F5"/>
<path d="M190.396 118.086H188.309V120.173H190.396V118.086Z" fill="#F5F5F5"/>
<path d="M190.396 121.587H188.309V123.674H190.396V121.587Z" fill="#F5F5F5"/>
<path d="M190.396 125.079H188.309V127.165H190.396V125.079Z" fill="#F5F5F5"/>
<path d="M190.396 128.579H188.309V130.666H190.396V128.579Z" fill="#F5F5F5"/>
<path d="M190.396 132.071H188.309V134.157H190.396V132.071Z" fill="#F5F5F5"/>
<path d="M190.396 142.562H188.309V144.649H190.396V142.562Z" fill="#F5F5F5"/>
<path d="M190.396 146.055H188.309V148.141H190.396V146.055Z" fill="#F5F5F5"/>
<path d="M190.396 149.555H188.309V151.641H190.396V149.555Z" fill="#F5F5F5"/>
<path d="M153.106 91.5244H151.02V93.611H153.106V91.5244Z" fill="#F5F5F5"/>
<path d="M153.106 95.0244H151.02V97.111H153.106V95.0244Z" fill="#F5F5F5"/>
<path d="M153.106 98.5244H151.02V100.611H153.106V98.5244Z" fill="#F5F5F5"/>
<path d="M153.106 102.017H151.02V104.103H153.106V102.017Z" fill="#F5F5F5"/>
<path d="M153.106 105.517H151.02V107.603H153.106V105.517Z" fill="#F5F5F5"/>
<path d="M153.106 109.008H151.02V111.094H153.106V109.008Z" fill="#F5F5F5"/>
<path d="M153.106 112.508H151.02V114.595H153.106V112.508Z" fill="#F5F5F5"/>
<path d="M153.106 116H151.02V118.087H153.106V116Z" fill="#F5F5F5"/>
<path d="M153.106 126.492H151.02V128.579H153.106V126.492Z" fill="#F5F5F5"/>
<path d="M153.106 129.984H151.02V132.071H153.106V129.984Z" fill="#F5F5F5"/>
<path d="M149.791 91.5244H147.704V93.611H149.791V91.5244Z" fill="#F5F5F5"/>
<path d="M149.791 95.0244H147.704V97.111H149.791V95.0244Z" fill="#F5F5F5"/>
<path d="M149.791 98.5244H147.704V100.611H149.791V98.5244Z" fill="#F5F5F5"/>
<path d="M149.791 102.017H147.704V104.103H149.791V102.017Z" fill="#F5F5F5"/>
<path d="M149.791 105.517H147.704V107.603H149.791V105.517Z" fill="#F5F5F5"/>
<path d="M149.791 109.008H147.704V111.094H149.791V109.008Z" fill="#F5F5F5"/>
<path d="M149.791 112.508H147.704V114.595H149.791V112.508Z" fill="#F5F5F5"/>
<path d="M149.791 116H147.704V118.087H149.791V116Z" fill="#F5F5F5"/>
<path d="M149.791 129.984H147.704V132.071H149.791V129.984Z" fill="#F5F5F5"/>
<path d="M146.484 91.5244H144.397V93.611H146.484V91.5244Z" fill="#F5F5F5"/>
<path d="M146.484 95.0244H144.397V97.111H146.484V95.0244Z" fill="#F5F5F5"/>
<path d="M146.484 98.5244H144.397V100.611H146.484V98.5244Z" fill="#F5F5F5"/>
<path d="M146.484 102.017H144.397V104.103H146.484V102.017Z" fill="#F5F5F5"/>
<path d="M146.484 105.517H144.397V107.603H146.484V105.517Z" fill="#F5F5F5"/>
<path d="M146.484 109.008H144.397V111.094H146.484V109.008Z" fill="#F5F5F5"/>
<path d="M146.484 112.508H144.397V114.595H146.484V112.508Z" fill="#F5F5F5"/>
<path d="M146.484 116H144.397V118.087H146.484V116Z" fill="#F5F5F5"/>
<path d="M143.169 91.5244H141.083V93.611H143.169V91.5244Z" fill="#F5F5F5"/>
<path d="M143.169 95.0244H141.083V97.111H143.169V95.0244Z" fill="#F5F5F5"/>
<path d="M143.169 98.5244H141.083V100.611H143.169V98.5244Z" fill="#F5F5F5"/>
<path d="M143.169 102.017H141.083V104.103H143.169V102.017Z" fill="#F5F5F5"/>
<path d="M143.169 105.517H141.083V107.603H143.169V105.517Z" fill="#F5F5F5"/>
<path d="M143.169 109.008H141.083V111.094H143.169V109.008Z" fill="#F5F5F5"/>
<path d="M143.169 116H141.083V118.087H143.169V116Z" fill="#F5F5F5"/>
<path d="M143.169 119.5H141.083V121.587H143.169V119.5Z" fill="#F5F5F5"/>
<path d="M143.17 129.984H141.083V132.071H143.17V129.984Z" fill="#F5F5F5"/>
<path d="M143.17 133.484H141.083V135.571H143.17V133.484Z" fill="#F5F5F5"/>
<path d="M143.17 136.984H141.083V139.071H143.17V136.984Z" fill="#F5F5F5"/>
<path d="M143.17 140.477H141.083V142.563H143.17V140.477Z" fill="#F5F5F5"/>
<path d="M143.17 143.976H141.083V146.063H143.17V143.976Z" fill="#F5F5F5"/>
<path d="M143.17 147.468H141.083V149.555H143.17V147.468Z" fill="#F5F5F5"/>
<path d="M143.17 150.968H141.083V153.054H143.17V150.968Z" fill="#F5F5F5"/>
<path d="M139.855 91.5244H137.768V93.611H139.855V91.5244Z" fill="#F5F5F5"/>
<path d="M139.855 95.0244H137.768V97.111H139.855V95.0244Z" fill="#F5F5F5"/>
<path d="M139.855 98.5244H137.768V100.611H139.855V98.5244Z" fill="#F5F5F5"/>
<path d="M139.855 102.017H137.768V104.103H139.855V102.017Z" fill="#F5F5F5"/>
<path d="M139.855 105.517H137.768V107.603H139.855V105.517Z" fill="#F5F5F5"/>
<path d="M139.855 109.008H137.768V111.094H139.855V109.008Z" fill="#F5F5F5"/>
<path d="M139.855 119.5H137.768V121.587H139.855V119.5Z" fill="#F5F5F5"/>
<path d="M139.855 122.992H137.768V125.078H139.855V122.992Z" fill="#F5F5F5"/>
<path d="M139.855 126.492H137.768V128.579H139.855V126.492Z" fill="#F5F5F5"/>
<path d="M139.855 129.984H137.768V132.071H139.855V129.984Z" fill="#F5F5F5"/>
<path d="M139.855 133.484H137.768V135.571H139.855V133.484Z" fill="#F5F5F5"/>
<path d="M139.855 136.984H137.768V139.071H139.855V136.984Z" fill="#F5F5F5"/>
<path d="M139.855 140.477H137.768V142.563H139.855V140.477Z" fill="#F5F5F5"/>
<path d="M139.855 143.976H137.768V146.063H139.855V143.976Z" fill="#F5F5F5"/>
<path d="M139.855 147.468H137.768V149.555H139.855V147.468Z" fill="#F5F5F5"/>
<path d="M139.855 150.968H137.768V153.054H139.855V150.968Z" fill="#F5F5F5"/>
<path d="M139.855 154.46H137.768V156.547H139.855V154.46Z" fill="#F5F5F5"/>
<path d="M139.855 161.452H137.768V163.538H139.855V161.452Z" fill="#F5F5F5"/>
<path d="M136.548 91.5244H134.461V93.611H136.548V91.5244Z" fill="#F5F5F5"/>
<path d="M136.548 95.0244H134.461V97.111H136.548V95.0244Z" fill="#F5F5F5"/>
<path d="M136.548 98.5244H134.461V100.611H136.548V98.5244Z" fill="#F5F5F5"/>
<path d="M136.548 102.017H134.461V104.103H136.548V102.017Z" fill="#F5F5F5"/>
<path d="M136.548 105.517H134.461V107.603H136.548V105.517Z" fill="#F5F5F5"/>
<path d="M136.548 109.008H134.461V111.094H136.548V109.008Z" fill="#F5F5F5"/>
<path d="M136.548 119.5H134.461V121.587H136.548V119.5Z" fill="#F5F5F5"/>
<path d="M136.548 122.992H134.461V125.078H136.548V122.992Z" fill="#F5F5F5"/>
<path d="M136.548 126.492H134.461V128.579H136.548V126.492Z" fill="#F5F5F5"/>
<path d="M136.548 129.984H134.461V132.071H136.548V129.984Z" fill="#F5F5F5"/>
<path d="M136.548 140.477H134.461V142.563H136.548V140.477Z" fill="#F5F5F5"/>
<path d="M136.548 143.976H134.461V146.063H136.548V143.976Z" fill="#F5F5F5"/>
<path d="M136.548 147.468H134.461V149.555H136.548V147.468Z" fill="#F5F5F5"/>
<path d="M136.548 150.968H134.461V153.054H136.548V150.968Z" fill="#F5F5F5"/>
<path d="M136.548 154.46H134.461V156.547H136.548V154.46Z" fill="#F5F5F5"/>
<path d="M136.548 161.452H134.461V163.538H136.548V161.452Z" fill="#F5F5F5"/>
<path d="M136.548 164.952H134.461V167.038H136.548V164.952Z" fill="#F5F5F5"/>
<path d="M106.485 124.036H104.398V126.122H106.485V124.036Z" fill="#F5F5F5"/>
<path d="M106.485 127.536H104.398V129.622H106.485V127.536Z" fill="#F5F5F5"/>
<path d="M106.485 131.028H104.398V133.114H106.485V131.028Z" fill="#F5F5F5"/>
<path d="M106.485 134.528H104.398V136.614H106.485V134.528Z" fill="#F5F5F5"/>
<path d="M106.485 138.02H104.398V140.106H106.485V138.02Z" fill="#F5F5F5"/>
<path d="M106.485 141.52H104.398V143.606H106.485V141.52Z" fill="#F5F5F5"/>
<path d="M106.485 145.02H104.398V147.106H106.485V145.02Z" fill="#F5F5F5"/>
<path d="M106.485 155.503H104.398V157.59H106.485V155.503Z" fill="#F5F5F5"/>
<path d="M106.485 159.003H104.398V161.09H106.485V159.003Z" fill="#F5F5F5"/>
<path d="M106.485 162.495H104.398V164.582H106.485V162.495Z" fill="#F5F5F5"/>
<path d="M103.178 124.036H101.092V126.122H103.178V124.036Z" fill="#F5F5F5"/>
<path d="M103.178 127.536H101.092V129.622H103.178V127.536Z" fill="#F5F5F5"/>
<path d="M103.178 131.028H101.092V133.114H103.178V131.028Z" fill="#F5F5F5"/>
<path d="M103.178 134.528H101.092V136.614H103.178V134.528Z" fill="#F5F5F5"/>
<path d="M103.178 138.02H101.092V140.106H103.178V138.02Z" fill="#F5F5F5"/>
<path d="M103.178 141.52H101.092V143.606H103.178V141.52Z" fill="#F5F5F5"/>
<path d="M103.178 145.02H101.092V147.106H103.178V145.02Z" fill="#F5F5F5"/>
<path d="M99.8635 124.036H97.7769V126.122H99.8635V124.036Z" fill="#F5F5F5"/>
<path d="M99.8635 127.536H97.7769V129.622H99.8635V127.536Z" fill="#F5F5F5"/>
<path d="M99.8635 131.028H97.7769V133.114H99.8635V131.028Z" fill="#F5F5F5"/>
<path d="M99.8635 134.528H97.7769V136.614H99.8635V134.528Z" fill="#F5F5F5"/>
<path d="M99.8635 138.02H97.7769V140.106H99.8635V138.02Z" fill="#F5F5F5"/>
<path d="M99.8635 141.52H97.7769V143.606H99.8635V141.52Z" fill="#F5F5F5"/>
<path d="M99.8635 145.02H97.7769V147.106H99.8635V145.02Z" fill="#F5F5F5"/>
<path d="M96.5485 124.036H94.4619V126.122H96.5485V124.036Z" fill="#F5F5F5"/>
<path d="M96.5485 127.536H94.4619V129.622H96.5485V127.536Z" fill="#F5F5F5"/>
<path d="M96.5485 131.028H94.4619V133.114H96.5485V131.028Z" fill="#F5F5F5"/>
<path d="M96.5485 134.528H94.4619V136.614H96.5485V134.528Z" fill="#F5F5F5"/>
<path d="M96.5485 138.02H94.4619V140.106H96.5485V138.02Z" fill="#F5F5F5"/>
<path d="M96.5485 141.52H94.4619V143.606H96.5485V141.52Z" fill="#F5F5F5"/>
<path d="M96.5485 145.02H94.4619V147.106H96.5485V145.02Z" fill="#F5F5F5"/>
<path d="M96.5485 148.512H94.4619V150.598H96.5485V148.512Z" fill="#F5F5F5"/>
<path d="M96.5485 152.012H94.4619V154.098H96.5485V152.012Z" fill="#F5F5F5"/>
<path d="M96.5485 155.503H94.4619V157.59H96.5485V155.503Z" fill="#F5F5F5"/>
<path d="M96.5485 159.003H94.4619V161.09H96.5485V159.003Z" fill="#F5F5F5"/>
<path d="M93.2414 124.036H91.1548V126.122H93.2414V124.036Z" fill="#F5F5F5"/>
<path d="M93.2414 127.536H91.1548V129.622H93.2414V127.536Z" fill="#F5F5F5"/>
<path d="M93.2414 131.028H91.1548V133.114H93.2414V131.028Z" fill="#F5F5F5"/>
<path d="M93.2414 134.528H91.1548V136.614H93.2414V134.528Z" fill="#F5F5F5"/>
<path d="M93.2414 138.02H91.1548V140.106H93.2414V138.02Z" fill="#F5F5F5"/>
<path d="M93.2414 141.52H91.1548V143.606H93.2414V141.52Z" fill="#F5F5F5"/>
<path d="M93.2414 145.02H91.1548V147.106H93.2414V145.02Z" fill="#F5F5F5"/>
<path d="M93.2414 148.512H91.1548V150.598H93.2414V148.512Z" fill="#F5F5F5"/>
<path d="M93.2414 152.012H91.1548V154.098H93.2414V152.012Z" fill="#F5F5F5"/>
<path d="M93.2414 155.503H91.1548V157.59H93.2414V155.503Z" fill="#F5F5F5"/>
<path d="M93.2414 159.003H91.1548V161.09H93.2414V159.003Z" fill="#F5F5F5"/>
<path d="M93.2414 162.495H91.1548V164.582H93.2414V162.495Z" fill="#F5F5F5"/>
<path d="M93.2414 172.987H91.1548V175.073H93.2414V172.987Z" fill="#F5F5F5"/>
<path d="M93.2414 176.479H91.1548V178.566H93.2414V176.479Z" fill="#F5F5F5"/>
<path d="M89.9265 124.036H87.8398V126.122H89.9265V124.036Z" fill="#F5F5F5"/>
<path d="M89.9265 127.536H87.8398V129.622H89.9265V127.536Z" fill="#F5F5F5"/>
<path d="M89.9265 131.028H87.8398V133.114H89.9265V131.028Z" fill="#F5F5F5"/>
<path d="M89.9265 141.52H87.8398V143.606H89.9265V141.52Z" fill="#F5F5F5"/>
<path d="M89.9265 145.02H87.8398V147.106H89.9265V145.02Z" fill="#F5F5F5"/>
<path d="M89.9265 148.512H87.8398V150.598H89.9265V148.512Z" fill="#F5F5F5"/>
<path d="M89.9265 152.012H87.8398V154.098H89.9265V152.012Z" fill="#F5F5F5"/>
<path d="M89.9265 155.503H87.8398V157.59H89.9265V155.503Z" fill="#F5F5F5"/>
<path d="M89.9265 159.003H87.8398V161.09H89.9265V159.003Z" fill="#F5F5F5"/>
<path d="M89.9265 162.495H87.8398V164.582H89.9265V162.495Z" fill="#F5F5F5"/>
<path d="M89.9265 172.987H87.8398V175.073H89.9265V172.987Z" fill="#F5F5F5"/>
<path d="M89.9265 176.479H87.8398V178.566H89.9265V176.479Z" fill="#F5F5F5"/>
<path d="M89.9265 179.979H87.8398V182.065H89.9265V179.979Z" fill="#F5F5F5"/>
<path d="M55.2111 103.06H53.1245V105.146H55.2111V103.06Z" fill="#F5F5F5"/>
<path d="M55.2111 106.56H53.1245V108.647H55.2111V106.56Z" fill="#F5F5F5"/>
<path d="M55.2111 110.052H53.1245V112.138H55.2111V110.052Z" fill="#F5F5F5"/>
<path d="M55.2111 113.552H53.1245V115.639H55.2111V113.552Z" fill="#F5F5F5"/>
<path d="M55.2111 117.043H53.1245V119.13H55.2111V117.043Z" fill="#F5F5F5"/>
<path d="M55.2111 120.544H53.1245V122.631H55.2111V120.544Z" fill="#F5F5F5"/>
<path d="M55.2111 124.036H53.1245V126.122H55.2111V124.036Z" fill="#F5F5F5"/>
<path d="M55.2111 127.536H53.1245V129.622H55.2111V127.536Z" fill="#F5F5F5"/>
<path d="M55.2111 131.028H53.1245V133.114H55.2111V131.028Z" fill="#F5F5F5"/>
<path d="M55.2111 134.528H53.1245V136.614H55.2111V134.528Z" fill="#F5F5F5"/>
<path d="M55.2111 138.02H53.1245V140.106H55.2111V138.02Z" fill="#F5F5F5"/>
<path d="M55.2111 141.52H53.1245V143.606H55.2111V141.52Z" fill="#F5F5F5"/>
<path d="M55.2111 145.02H53.1245V147.106H55.2111V145.02Z" fill="#F5F5F5"/>
<path d="M55.2111 148.512H53.1245V150.598H55.2111V148.512Z" fill="#F5F5F5"/>
<path d="M55.2111 152.012H53.1245V154.098H55.2111V152.012Z" fill="#F5F5F5"/>
<path d="M55.2111 155.503H53.1245V157.59H55.2111V155.503Z" fill="#F5F5F5"/>
<path d="M55.2111 159.003H53.1245V161.09H55.2111V159.003Z" fill="#F5F5F5"/>
<path d="M55.2111 162.495H53.1245V164.582H55.2111V162.495Z" fill="#F5F5F5"/>
<path d="M55.2111 165.996H53.1245V168.082H55.2111V165.996Z" fill="#F5F5F5"/>
<path d="M55.2111 169.487H53.1245V171.573H55.2111V169.487Z" fill="#F5F5F5"/>
<path d="M55.2111 172.987H53.1245V175.073H55.2111V172.987Z" fill="#F5F5F5"/>
<path d="M55.2111 176.479H53.1245V178.566H55.2111V176.479Z" fill="#F5F5F5"/>
<path d="M55.2111 179.979H53.1245V182.065H55.2111V179.979Z" fill="#F5F5F5"/>
<path d="M51.8962 103.06H49.8096V105.146H51.8962V103.06Z" fill="#F5F5F5"/>
<path d="M51.8962 106.56H49.8096V108.647H51.8962V106.56Z" fill="#F5F5F5"/>
<path d="M51.8962 110.052H49.8096V112.138H51.8962V110.052Z" fill="#F5F5F5"/>
<path d="M51.8962 113.552H49.8096V115.639H51.8962V113.552Z" fill="#F5F5F5"/>
<path d="M51.8962 117.043H49.8096V119.13H51.8962V117.043Z" fill="#F5F5F5"/>
<path d="M51.8962 120.544H49.8096V122.631H51.8962V120.544Z" fill="#F5F5F5"/>
<path d="M51.8962 124.036H49.8096V126.122H51.8962V124.036Z" fill="#F5F5F5"/>
<path d="M51.8962 127.536H49.8096V129.622H51.8962V127.536Z" fill="#F5F5F5"/>
<path d="M51.8962 131.028H49.8096V133.114H51.8962V131.028Z" fill="#F5F5F5"/>
<path d="M51.8962 134.528H49.8096V136.614H51.8962V134.528Z" fill="#F5F5F5"/>
<path d="M51.8962 138.02H49.8096V140.106H51.8962V138.02Z" fill="#F5F5F5"/>
<path d="M51.8962 141.52H49.8096V143.606H51.8962V141.52Z" fill="#F5F5F5"/>
<path d="M51.8962 145.02H49.8096V147.106H51.8962V145.02Z" fill="#F5F5F5"/>
<path d="M51.8962 148.512H49.8096V150.598H51.8962V148.512Z" fill="#F5F5F5"/>
<path d="M51.8962 152.012H49.8096V154.098H51.8962V152.012Z" fill="#F5F5F5"/>
<path d="M51.8962 155.503H49.8096V157.59H51.8962V155.503Z" fill="#F5F5F5"/>
<path d="M51.8962 159.003H49.8096V161.09H51.8962V159.003Z" fill="#F5F5F5"/>
<path d="M51.8962 162.495H49.8096V164.582H51.8962V162.495Z" fill="#F5F5F5"/>
<path d="M51.8962 165.996H49.8096V168.082H51.8962V165.996Z" fill="#F5F5F5"/>
<path d="M48.5808 103.06H46.4941V105.146H48.5808V103.06Z" fill="#F5F5F5"/>
<path d="M48.5808 106.56H46.4941V108.647H48.5808V106.56Z" fill="#F5F5F5"/>
<path d="M48.5808 110.052H46.4941V112.138H48.5808V110.052Z" fill="#F5F5F5"/>
<path d="M48.5808 113.552H46.4941V115.639H48.5808V113.552Z" fill="#F5F5F5"/>
<path d="M48.5808 117.043H46.4941V119.13H48.5808V117.043Z" fill="#F5F5F5"/>
<path d="M48.5808 120.544H46.4941V122.631H48.5808V120.544Z" fill="#F5F5F5"/>
<path d="M48.5808 124.036H46.4941V126.122H48.5808V124.036Z" fill="#F5F5F5"/>
<path d="M48.5808 127.536H46.4941V129.622H48.5808V127.536Z" fill="#F5F5F5"/>
<path d="M48.5808 131.028H46.4941V133.114H48.5808V131.028Z" fill="#F5F5F5"/>
<path d="M48.5808 134.528H46.4941V136.614H48.5808V134.528Z" fill="#F5F5F5"/>
<path d="M48.5808 138.02H46.4941V140.106H48.5808V138.02Z" fill="#F5F5F5"/>
<path d="M48.5808 141.52H46.4941V143.606H48.5808V141.52Z" fill="#F5F5F5"/>
<path d="M48.5808 145.02H46.4941V147.106H48.5808V145.02Z" fill="#F5F5F5"/>
<path d="M48.5808 148.512H46.4941V150.598H48.5808V148.512Z" fill="#F5F5F5"/>
<path d="M48.5808 152.012H46.4941V154.098H48.5808V152.012Z" fill="#F5F5F5"/>
<path d="M48.5808 155.503H46.4941V157.59H48.5808V155.503Z" fill="#F5F5F5"/>
<path d="M48.5808 159.003H46.4941V161.09H48.5808V159.003Z" fill="#F5F5F5"/>
<path d="M48.5808 162.495H46.4941V164.582H48.5808V162.495Z" fill="#F5F5F5"/>
<path d="M48.5808 165.996H46.4941V168.082H48.5808V165.996Z" fill="#F5F5F5"/>
<path d="M45.2746 103.06H43.188V105.146H45.2746V103.06Z" fill="#F5F5F5"/>
<path d="M45.2746 106.56H43.188V108.647H45.2746V106.56Z" fill="#F5F5F5"/>
<path d="M45.2746 110.052H43.188V112.138H45.2746V110.052Z" fill="#F5F5F5"/>
<path d="M45.2746 113.552H43.188V115.639H45.2746V113.552Z" fill="#F5F5F5"/>
<path d="M45.2746 117.043H43.188V119.13H45.2746V117.043Z" fill="#F5F5F5"/>
<path d="M45.2746 120.544H43.188V122.631H45.2746V120.544Z" fill="#F5F5F5"/>
<path d="M45.2746 124.036H43.188V126.122H45.2746V124.036Z" fill="#F5F5F5"/>
<path d="M45.2746 127.536H43.188V129.622H45.2746V127.536Z" fill="#F5F5F5"/>
<path d="M45.2746 131.028H43.188V133.114H45.2746V131.028Z" fill="#F5F5F5"/>
<path d="M45.2746 134.528H43.188V136.614H45.2746V134.528Z" fill="#F5F5F5"/>
<path d="M45.2746 138.02H43.188V140.106H45.2746V138.02Z" fill="#F5F5F5"/>
<path d="M45.2746 141.52H43.188V143.606H45.2746V141.52Z" fill="#F5F5F5"/>
<path d="M45.2746 145.02H43.188V147.106H45.2746V145.02Z" fill="#F5F5F5"/>
<path d="M45.2746 148.512H43.188V150.598H45.2746V148.512Z" fill="#F5F5F5"/>
<path d="M45.2746 152.012H43.188V154.098H45.2746V152.012Z" fill="#F5F5F5"/>
<path d="M41.9597 103.06H39.873V105.146H41.9597V103.06Z" fill="#F5F5F5"/>
<path d="M41.9597 106.56H39.873V108.647H41.9597V106.56Z" fill="#F5F5F5"/>
<path d="M41.9597 110.052H39.873V112.138H41.9597V110.052Z" fill="#F5F5F5"/>
<path d="M41.9597 113.552H39.873V115.639H41.9597V113.552Z" fill="#F5F5F5"/>
<path d="M41.9597 117.043H39.873V119.13H41.9597V117.043Z" fill="#F5F5F5"/>
<path d="M41.9597 120.544H39.873V122.631H41.9597V120.544Z" fill="#F5F5F5"/>
<path d="M41.9597 124.036H39.873V126.122H41.9597V124.036Z" fill="#F5F5F5"/>
<path d="M41.9597 127.536H39.873V129.622H41.9597V127.536Z" fill="#F5F5F5"/>
<path d="M41.9597 131.028H39.873V133.114H41.9597V131.028Z" fill="#F5F5F5"/>
<path d="M41.9597 134.528H39.873V136.614H41.9597V134.528Z" fill="#F5F5F5"/>
<path d="M41.9597 138.02H39.873V140.106H41.9597V138.02Z" fill="#F5F5F5"/>
<path d="M41.9597 141.52H39.873V143.606H41.9597V141.52Z" fill="#F5F5F5"/>
<path d="M41.9597 145.02H39.873V147.106H41.9597V145.02Z" fill="#F5F5F5"/>
<path d="M38.6447 103.06H36.5581V105.146H38.6447V103.06Z" fill="#F5F5F5"/>
<path d="M38.6447 106.56H36.5581V108.647H38.6447V106.56Z" fill="#F5F5F5"/>
<path d="M38.6447 110.052H36.5581V112.138H38.6447V110.052Z" fill="#F5F5F5"/>
<path d="M38.6447 113.552H36.5581V115.639H38.6447V113.552Z" fill="#F5F5F5"/>
<path d="M38.6447 117.043H36.5581V119.13H38.6447V117.043Z" fill="#F5F5F5"/>
<path d="M38.6447 120.544H36.5581V122.631H38.6447V120.544Z" fill="#F5F5F5"/>
<path d="M38.6447 124.036H36.5581V126.122H38.6447V124.036Z" fill="#F5F5F5"/>
<path d="M38.6447 127.536H36.5581V129.622H38.6447V127.536Z" fill="#F5F5F5"/>
<path d="M38.6447 131.028H36.5581V133.114H38.6447V131.028Z" fill="#F5F5F5"/>
<path d="M38.6447 134.528H36.5581V136.614H38.6447V134.528Z" fill="#F5F5F5"/>
<path d="M38.6447 138.02H36.5581V140.106H38.6447V138.02Z" fill="#F5F5F5"/>
<path d="M38.6447 141.52H36.5581V143.606H38.6447V141.52Z" fill="#F5F5F5"/>
<path d="M228.67 102.017H226.583V104.103H228.67V102.017Z" fill="#F5F5F5"/>
<path d="M228.67 105.517H226.583V107.603H228.67V105.517Z" fill="#F5F5F5"/>
<path d="M228.67 109.008H226.583V111.094H228.67V109.008Z" fill="#F5F5F5"/>
<path d="M228.67 112.508H226.583V114.595H228.67V112.508Z" fill="#F5F5F5"/>
<path d="M228.67 116H226.583V118.087H228.67V116Z" fill="#F5F5F5"/>
<path d="M228.67 119.5H226.583V121.587H228.67V119.5Z" fill="#F5F5F5"/>
<path d="M228.67 122.992H226.583V125.078H228.67V122.992Z" fill="#F5F5F5"/>
<path d="M228.67 126.492H226.583V128.579H228.67V126.492Z" fill="#F5F5F5"/>
<path d="M228.67 129.984H226.583V132.071H228.67V129.984Z" fill="#F5F5F5"/>
<path d="M228.67 133.484H226.583V135.571H228.67V133.484Z" fill="#F5F5F5"/>
<path d="M228.67 136.984H226.583V139.071H228.67V136.984Z" fill="#F5F5F5"/>
<path d="M228.67 140.477H226.583V142.563H228.67V140.477Z" fill="#F5F5F5"/>
<path d="M228.67 143.976H226.583V146.063H228.67V143.976Z" fill="#F5F5F5"/>
<path d="M228.67 147.468H226.583V149.555H228.67V147.468Z" fill="#F5F5F5"/>
<path d="M228.67 150.968H226.583V153.054H228.67V150.968Z" fill="#F5F5F5"/>
<path d="M228.67 154.46H226.583V156.547H228.67V154.46Z" fill="#F5F5F5"/>
<path d="M228.67 175.435H226.583V177.522H228.67V175.435Z" fill="#F5F5F5"/>
<path d="M228.67 178.936H226.583V181.022H228.67V178.936Z" fill="#F5F5F5"/>
<path d="M225.363 102.017H223.277V104.103H225.363V102.017Z" fill="#F5F5F5"/>
<path d="M225.363 105.517H223.277V107.603H225.363V105.517Z" fill="#F5F5F5"/>
<path d="M225.363 109.008H223.277V111.094H225.363V109.008Z" fill="#F5F5F5"/>
<path d="M225.363 112.508H223.277V114.595H225.363V112.508Z" fill="#F5F5F5"/>
<path d="M225.363 116H223.277V118.087H225.363V116Z" fill="#F5F5F5"/>
<path d="M225.363 119.5H223.277V121.587H225.363V119.5Z" fill="#F5F5F5"/>
<path d="M225.363 122.992H223.277V125.078H225.363V122.992Z" fill="#F5F5F5"/>
<path d="M225.363 126.492H223.277V128.579H225.363V126.492Z" fill="#F5F5F5"/>
<path d="M225.363 129.984H223.277V132.071H225.363V129.984Z" fill="#F5F5F5"/>
<path d="M225.363 133.484H223.277V135.571H225.363V133.484Z" fill="#F5F5F5"/>
<path d="M225.363 136.984H223.277V139.071H225.363V136.984Z" fill="#F5F5F5"/>
<path d="M225.363 140.477H223.277V142.563H225.363V140.477Z" fill="#F5F5F5"/>
<path d="M225.363 143.976H223.277V146.063H225.363V143.976Z" fill="#F5F5F5"/>
<path d="M225.363 147.468H223.277V149.555H225.363V147.468Z" fill="#F5F5F5"/>
<path d="M225.363 150.968H223.277V153.054H225.363V150.968Z" fill="#F5F5F5"/>
<path d="M225.363 154.46H223.277V156.547H225.363V154.46Z" fill="#F5F5F5"/>
<path d="M225.363 161.452H223.277V163.538H225.363V161.452Z" fill="#F5F5F5"/>
<path d="M225.363 164.952H223.277V167.038H225.363V164.952Z" fill="#F5F5F5"/>
<path d="M225.363 168.444H223.277V170.53H225.363V168.444Z" fill="#F5F5F5"/>
<path d="M225.363 171.944H223.277V174.03H225.363V171.944Z" fill="#F5F5F5"/>
<path d="M225.363 178.936H223.277V181.022H225.363V178.936Z" fill="#F5F5F5"/>
<path d="M167.577 126.492H165.491V128.579H167.577V126.492Z" fill="#F5F5F5"/>
<path d="M167.577 129.984H165.491V132.071H167.577V129.984Z" fill="#F5F5F5"/>
<path d="M167.577 133.484H165.491V135.571H167.577V133.484Z" fill="#F5F5F5"/>
<path d="M167.577 136.984H165.491V139.071H167.577V136.984Z" fill="#F5F5F5"/>
<path d="M167.577 140.477H165.491V142.563H167.577V140.477Z" fill="#F5F5F5"/>
<path d="M167.577 143.976H165.491V146.063H167.577V143.976Z" fill="#F5F5F5"/>
<path d="M167.577 147.468H165.491V149.555H167.577V147.468Z" fill="#F5F5F5"/>
<path d="M167.577 150.968H165.491V153.054H167.577V150.968Z" fill="#F5F5F5"/>
<path d="M167.577 154.46H165.491V156.547H167.577V154.46Z" fill="#F5F5F5"/>
<path d="M167.577 157.96H165.491V160.047H167.577V157.96Z" fill="#F5F5F5"/>
<path d="M167.577 161.452H165.491V163.538H167.577V161.452Z" fill="#F5F5F5"/>
<path d="M167.577 164.952H165.491V167.038H167.577V164.952Z" fill="#F5F5F5"/>
<path d="M167.577 168.444H165.491V170.53H167.577V168.444Z" fill="#F5F5F5"/>
<path d="M167.577 175.435H165.491V177.522H167.577V175.435Z" fill="#F5F5F5"/>
<path d="M167.577 178.936H165.491V181.022H167.577V178.936Z" fill="#F5F5F5"/>
<path d="M167.577 182.436H165.491V184.522H167.577V182.436Z" fill="#F5F5F5"/>
<path d="M167.577 185.928H165.491V188.014H167.577V185.928Z" fill="#F5F5F5"/>
<path d="M167.577 192.919H165.491V195.006H167.577V192.919Z" fill="#F5F5F5"/>
<path d="M167.577 196.419H165.491V198.506H167.577V196.419Z" fill="#F5F5F5"/>
<path d="M167.577 199.911H165.491V201.998H167.577V199.911Z" fill="#F5F5F5"/>
<path d="M164.271 126.492H162.184V128.579H164.271V126.492Z" fill="#F5F5F5"/>
<path d="M164.271 129.984H162.184V132.071H164.271V129.984Z" fill="#F5F5F5"/>
<path d="M164.271 133.484H162.184V135.571H164.271V133.484Z" fill="#F5F5F5"/>
<path d="M164.271 136.984H162.184V139.071H164.271V136.984Z" fill="#F5F5F5"/>
<path d="M164.271 140.477H162.184V142.563H164.271V140.477Z" fill="#F5F5F5"/>
<path d="M164.271 143.976H162.184V146.063H164.271V143.976Z" fill="#F5F5F5"/>
<path d="M164.271 147.468H162.184V149.555H164.271V147.468Z" fill="#F5F5F5"/>
<path d="M164.271 150.968H162.184V153.054H164.271V150.968Z" fill="#F5F5F5"/>
<path d="M164.271 154.46H162.184V156.547H164.271V154.46Z" fill="#F5F5F5"/>
<path d="M164.271 157.96H162.184V160.047H164.271V157.96Z" fill="#F5F5F5"/>
<path d="M164.271 161.452H162.184V163.538H164.271V161.452Z" fill="#F5F5F5"/>
<path d="M164.271 164.952H162.184V167.038H164.271V164.952Z" fill="#F5F5F5"/>
<path d="M164.271 168.444H162.184V170.53H164.271V168.444Z" fill="#F5F5F5"/>
<path d="M164.271 178.936H162.184V181.022H164.271V178.936Z" fill="#F5F5F5"/>
<path d="M164.271 182.436H162.184V184.522H164.271V182.436Z" fill="#F5F5F5"/>
<path d="M164.271 189.428H162.184V191.514H164.271V189.428Z" fill="#F5F5F5"/>
<path d="M164.271 192.919H162.184V195.006H164.271V192.919Z" fill="#F5F5F5"/>
<path d="M164.271 196.419H162.184V198.506H164.271V196.419Z" fill="#F5F5F5"/>
<path d="M164.271 199.911H162.184V201.998H164.271V199.911Z" fill="#F5F5F5"/>
<path d="M160.955 126.492H158.869V128.579H160.955V126.492Z" fill="#F5F5F5"/>
<path d="M160.955 129.984H158.869V132.071H160.955V129.984Z" fill="#F5F5F5"/>
<path d="M160.955 133.484H158.869V135.571H160.955V133.484Z" fill="#F5F5F5"/>
<path d="M160.955 136.984H158.869V139.071H160.955V136.984Z" fill="#F5F5F5"/>
<path d="M160.955 140.477H158.869V142.563H160.955V140.477Z" fill="#F5F5F5"/>
<path d="M160.955 143.976H158.869V146.063H160.955V143.976Z" fill="#F5F5F5"/>
<path d="M160.955 147.468H158.869V149.555H160.955V147.468Z" fill="#F5F5F5"/>
<path d="M160.955 150.968H158.869V153.054H160.955V150.968Z" fill="#F5F5F5"/>
<path d="M160.955 154.46H158.869V156.547H160.955V154.46Z" fill="#F5F5F5"/>
<path d="M160.955 157.96H158.869V160.047H160.955V157.96Z" fill="#F5F5F5"/>
<path d="M160.955 161.452H158.869V163.538H160.955V161.452Z" fill="#F5F5F5"/>
<path d="M160.955 164.952H158.869V167.038H160.955V164.952Z" fill="#F5F5F5"/>
<path d="M160.955 168.444H158.869V170.53H160.955V168.444Z" fill="#F5F5F5"/>
<path d="M160.955 171.944H158.869V174.03H160.955V171.944Z" fill="#F5F5F5"/>
<path d="M160.955 178.936H158.869V181.022H160.955V178.936Z" fill="#F5F5F5"/>
<path d="M160.955 185.928H158.869V188.014H160.955V185.928Z" fill="#F5F5F5"/>
<path d="M160.955 189.428H158.869V191.514H160.955V189.428Z" fill="#F5F5F5"/>
<path d="M160.955 192.919H158.869V195.006H160.955V192.919Z" fill="#F5F5F5"/>
<path d="M160.955 196.419H158.869V198.506H160.955V196.419Z" fill="#F5F5F5"/>
<path d="M160.955 199.911H158.869V201.998H160.955V199.911Z" fill="#F5F5F5"/>
<path d="M181.073 146.425H178.987V148.511H181.073V146.425Z" fill="#F5F5F5"/>
<path d="M181.073 149.925H178.987V152.011H181.073V149.925Z" fill="#F5F5F5"/>
<path d="M181.073 153.417H178.987V155.504H181.073V153.417Z" fill="#F5F5F5"/>
<path d="M181.073 156.917H178.987V159.003H181.073V156.917Z" fill="#F5F5F5"/>
<path d="M181.073 160.409H178.987V162.495H181.073V160.409Z" fill="#F5F5F5"/>
<path d="M181.073 163.908H178.987V165.995H181.073V163.908Z" fill="#F5F5F5"/>
<path d="M181.073 174.4H178.987V176.487H181.073V174.4Z" fill="#F5F5F5"/>
<path d="M181.073 177.892H178.987V179.979H181.073V177.892Z" fill="#F5F5F5"/>
<path d="M181.073 181.393H178.987V183.479H181.073V181.393Z" fill="#F5F5F5"/>
<path d="M181.073 184.884H178.987V186.97H181.073V184.884Z" fill="#F5F5F5"/>
<path d="M181.073 188.384H178.987V190.471H181.073V188.384Z" fill="#F5F5F5"/>
<path d="M181.073 191.876H178.987V193.963H181.073V191.876Z" fill="#F5F5F5"/>
<path d="M181.073 195.376H178.987V197.463H181.073V195.376Z" fill="#F5F5F5"/>
<path d="M177.766 146.425H175.68V148.511H177.766V146.425Z" fill="#F5F5F5"/>
<path d="M177.766 149.925H175.68V152.011H177.766V149.925Z" fill="#F5F5F5"/>
<path d="M177.766 153.417H175.68V155.504H177.766V153.417Z" fill="#F5F5F5"/>
<path d="M177.766 156.917H175.68V159.003H177.766V156.917Z" fill="#F5F5F5"/>
<path d="M177.766 160.409H175.68V162.495H177.766V160.409Z" fill="#F5F5F5"/>
<path d="M177.766 163.908H175.68V165.995H177.766V163.908Z" fill="#F5F5F5"/>
<path d="M177.766 174.4H175.68V176.487H177.766V174.4Z" fill="#F5F5F5"/>
<path d="M177.766 177.892H175.68V179.979H177.766V177.892Z" fill="#F5F5F5"/>
<path d="M177.766 181.393H175.68V183.479H177.766V181.393Z" fill="#F5F5F5"/>
<path d="M177.766 184.884H175.68V186.97H177.766V184.884Z" fill="#F5F5F5"/>
<path d="M177.766 188.384H175.68V190.471H177.766V188.384Z" fill="#F5F5F5"/>
<path d="M177.766 191.876H175.68V193.963H177.766V191.876Z" fill="#F5F5F5"/>
<path d="M177.766 198.868H175.68V200.954H177.766V198.868Z" fill="#F5F5F5"/>
<path d="M67.7224 131.028H65.6357V133.114H67.7224V131.028Z" fill="#F5F5F5"/>
<path d="M67.7224 134.528H65.6357V136.614H67.7224V134.528Z" fill="#F5F5F5"/>
<path d="M67.7224 138.02H65.6357V140.106H67.7224V138.02Z" fill="#F5F5F5"/>
<path d="M67.7224 141.52H65.6357V143.606H67.7224V141.52Z" fill="#F5F5F5"/>
<path d="M67.7224 145.02H65.6357V147.106H67.7224V145.02Z" fill="#F5F5F5"/>
<path d="M67.7224 148.512H65.6357V150.598H67.7224V148.512Z" fill="#F5F5F5"/>
<path d="M67.7224 152.012H65.6357V154.098H67.7224V152.012Z" fill="#F5F5F5"/>
<path d="M67.7224 155.503H65.6357V157.59H67.7224V155.503Z" fill="#F5F5F5"/>
<path d="M67.7224 159.003H65.6357V161.09H67.7224V159.003Z" fill="#F5F5F5"/>
<path d="M67.7224 162.495H65.6357V164.582H67.7224V162.495Z" fill="#F5F5F5"/>
<path d="M67.7224 165.996H65.6357V168.082H67.7224V165.996Z" fill="#F5F5F5"/>
<path d="M67.7224 172.987H65.6357V175.073H67.7224V172.987Z" fill="#F5F5F5"/>
<path d="M67.7224 176.479H65.6357V178.566H67.7224V176.479Z" fill="#F5F5F5"/>
<path d="M67.7224 179.979H65.6357V182.065H67.7224V179.979Z" fill="#F5F5F5"/>
<path d="M67.7224 183.479H65.6357V185.566H67.7224V183.479Z" fill="#F5F5F5"/>
<path d="M67.7224 186.971H65.6357V189.057H67.7224V186.971Z" fill="#F5F5F5"/>
<path d="M67.7224 190.471H65.6357V192.557H67.7224V190.471Z" fill="#F5F5F5"/>
<path d="M67.7224 193.963H65.6357V196.049H67.7224V193.963Z" fill="#F5F5F5"/>
<path d="M67.7224 197.462H65.6357V199.549H67.7224V197.462Z" fill="#F5F5F5"/>
<path d="M64.4079 131.028H62.3213V133.114H64.4079V131.028Z" fill="#F5F5F5"/>
<path d="M64.4079 134.528H62.3213V136.614H64.4079V134.528Z" fill="#F5F5F5"/>
<path d="M64.4079 138.02H62.3213V140.106H64.4079V138.02Z" fill="#F5F5F5"/>
<path d="M64.4079 141.52H62.3213V143.606H64.4079V141.52Z" fill="#F5F5F5"/>
<path d="M64.4079 145.02H62.3213V147.106H64.4079V145.02Z" fill="#F5F5F5"/>
<path d="M64.4079 148.512H62.3213V150.598H64.4079V148.512Z" fill="#F5F5F5"/>
<path d="M64.4079 152.012H62.3213V154.098H64.4079V152.012Z" fill="#F5F5F5"/>
<path d="M64.4079 155.503H62.3213V157.59H64.4079V155.503Z" fill="#F5F5F5"/>
<path d="M64.4079 159.003H62.3213V161.09H64.4079V159.003Z" fill="#F5F5F5"/>
<path d="M64.4079 162.495H62.3213V164.582H64.4079V162.495Z" fill="#F5F5F5"/>
<path d="M64.4079 165.996H62.3213V168.082H64.4079V165.996Z" fill="#F5F5F5"/>
<path d="M64.4079 169.487H62.3213V171.573H64.4079V169.487Z" fill="#F5F5F5"/>
<path d="M64.4079 172.987H62.3213V175.073H64.4079V172.987Z" fill="#F5F5F5"/>
<path d="M64.4079 176.479H62.3213V178.566H64.4079V176.479Z" fill="#F5F5F5"/>
<path d="M64.4079 179.979H62.3213V182.065H64.4079V179.979Z" fill="#F5F5F5"/>
<path d="M64.4079 183.479H62.3213V185.566H64.4079V183.479Z" fill="#F5F5F5"/>
<path d="M64.4079 186.971H62.3213V189.057H64.4079V186.971Z" fill="#F5F5F5"/>
<path d="M64.4079 190.471H62.3213V192.557H64.4079V190.471Z" fill="#F5F5F5"/>
<path d="M64.4079 193.963H62.3213V196.049H64.4079V193.963Z" fill="#F5F5F5"/>
<path d="M64.4079 197.462H62.3213V199.549H64.4079V197.462Z" fill="#F5F5F5"/>
<path d="M84.0373 144.649H81.9507V146.736H84.0373V144.649Z" fill="#F5F5F5"/>
<path d="M84.0373 148.142H81.9507V150.228H84.0373V148.142Z" fill="#F5F5F5"/>
<path d="M84.0373 151.641H81.9507V153.728H84.0373V151.641Z" fill="#F5F5F5"/>
<path d="M84.0373 155.133H81.9507V157.219H84.0373V155.133Z" fill="#F5F5F5"/>
<path d="M84.0373 158.633H81.9507V160.72H84.0373V158.633Z" fill="#F5F5F5"/>
<path d="M84.0373 162.133H81.9507V164.22H84.0373V162.133Z" fill="#F5F5F5"/>
<path d="M84.0373 165.625H81.9507V167.711H84.0373V165.625Z" fill="#F5F5F5"/>
<path d="M84.0373 169.125H81.9507V171.212H84.0373V169.125Z" fill="#F5F5F5"/>
<path d="M84.0373 172.617H81.9507V174.703H84.0373V172.617Z" fill="#F5F5F5"/>
<path d="M84.0373 176.117H81.9507V178.204H84.0373V176.117Z" fill="#F5F5F5"/>
<path d="M80.7219 144.649H78.6353V146.736H80.7219V144.649Z" fill="#F5F5F5"/>
<path d="M80.7219 148.142H78.6353V150.228H80.7219V148.142Z" fill="#F5F5F5"/>
<path d="M80.7219 151.641H78.6353V153.728H80.7219V151.641Z" fill="#F5F5F5"/>
<path d="M80.7219 155.133H78.6353V157.219H80.7219V155.133Z" fill="#F5F5F5"/>
<path d="M80.7219 158.633H78.6353V160.72H80.7219V158.633Z" fill="#F5F5F5"/>
<path d="M80.7219 162.133H78.6353V164.22H80.7219V162.133Z" fill="#F5F5F5"/>
<path d="M80.7219 165.625H78.6353V167.711H80.7219V165.625Z" fill="#F5F5F5"/>
<path d="M80.7219 169.125H78.6353V171.212H80.7219V169.125Z" fill="#F5F5F5"/>
<path d="M80.7219 172.617H78.6353V174.703H80.7219V172.617Z" fill="#F5F5F5"/>
<path d="M100.427 37.8276H96.9272V207.584H100.427V37.8276Z" fill="#EBEBEB"/>
<path d="M166.274 37.8276H162.773V207.584H166.274V37.8276Z" fill="#EBEBEB"/>
<path d="M232.364 37.8276H228.628V207.584H232.364V37.8276Z" fill="#EBEBEB"/>
<path d="M130.515 26.3517C137.564 26.3517 143.278 20.6371 143.278 13.5879C143.278 6.53873 137.564 0.824219 130.515 0.824219C123.465 0.824219 117.751 6.53873 117.751 13.5879C117.751 20.6371 123.465 26.3517 130.515 26.3517Z" fill="#F0F0F0"/>
<path d="M141.233 15.3261C142.193 9.40914 138.175 3.83391 132.258 2.87345C126.341 1.913 120.766 5.93103 119.805 11.848C118.845 17.7649 122.863 23.3401 128.78 24.3006C134.697 25.261 140.272 21.243 141.233 15.3261Z" fill="#FAFAFA"/>
<path d="M130.001 6.14111V13.7303L124.97 10.8865" stroke="#E0E0E0" stroke-width="2" stroke-linecap="round" stroke-linejoin="round"/>
<path d="M122 245.665C54.6214 245.665 0.00012207 242.275 0.00012207 238.093C0.00012207 233.911 54.6214 230.521 122 230.521C189.379 230.521 244 233.911 244 238.093C244 242.275 189.379 245.665 122 245.665Z" fill="#F5F5F5"/>
<path d="M187.248 222.143C187.248 222.143 184 215.067 187.705 208.1C191.411 201.133 192.482 199.482 190.121 198.056C187.76 196.629 186.709 203.631 186.709 203.631C185.536 200.467 185.414 197.009 186.361 193.77C188.006 188.728 189.036 180.512 186.791 179.632C184.546 178.752 186.361 189.867 184.416 193.675C183.423 191.01 182.781 188.228 182.506 185.398C182.192 181.351 182.635 174.876 180.827 173.218C179.019 171.559 177.92 172.706 179.66 181.645C180.706 186.989 181.284 192.413 181.387 197.858C181.387 197.858 177.545 186.128 174.959 185.787C172.373 185.446 172.386 189.239 174.59 192.535C176.794 195.831 181.066 201.734 181.762 204.77C181.762 204.77 177.538 195.94 173.744 198.629C169.95 201.317 177.047 206.66 180.213 208.585C183.379 210.509 185.604 222.607 185.604 222.607L187.248 222.143Z" fill="#0065BD"/>
<path opacity="0.2" d="M187.248 222.143C187.248 222.143 184 215.067 187.705 208.1C191.411 201.133 192.482 199.482 190.121 198.056C187.76 196.629 186.709 203.631 186.709 203.631C185.536 200.467 185.414 197.009 186.361 193.77C188.006 188.728 189.036 180.512 186.791 179.632C184.546 178.752 186.361 189.867 184.416 193.675C183.423 191.01 182.781 188.228 182.506 185.398C182.192 181.351 182.635 174.876 180.827 173.218C179.019 171.559 177.92 172.706 179.66 181.645C180.706 186.989 181.284 192.413 181.387 197.858C181.387 197.858 177.545 186.128 174.959 185.787C172.373 185.446 172.386 189.239 174.59 192.535C176.794 195.831 181.066 201.734 181.762 204.77C181.762 204.77 177.538 195.94 173.744 198.629C169.95 201.317 177.047 206.66 180.213 208.585C183.379 210.509 185.604 222.607 185.604 222.607L187.248 222.143Z" fill="black"/>
<path d="M184.689 225.023C184.689 225.023 187.841 217.899 184.054 210.986C180.267 204.074 179.175 202.443 181.516 200.983C183.856 199.523 185.03 206.503 185.03 206.503C186.161 203.323 186.24 199.864 185.255 196.636C183.556 191.621 182.423 183.419 184.661 182.504C186.9 181.59 185.207 192.74 187.2 196.513C188.163 193.843 188.773 191.058 189.015 188.229C189.233 184.176 188.735 177.714 190.489 176.029C192.242 174.343 193.389 175.476 191.758 184.435C190.773 189.791 190.26 195.223 190.223 200.669C190.223 200.669 193.921 188.857 196.521 188.502C199.121 188.148 199.134 191.914 196.964 195.251C194.794 198.588 190.584 204.552 189.922 207.588C189.922 207.588 194.017 198.717 197.872 201.344C201.727 203.972 194.658 209.43 191.519 211.403C188.38 213.375 186.285 225.487 186.285 225.487L184.689 225.023Z" fill="#0065BD"/>
<path d="M199.244 219.966H173.171L175.279 238.629H197.135L199.244 219.966Z" fill="#263238"/>
<path d="M161.994 238.622H45.2615C44.8076 238.631 44.3571 238.543 43.9406 238.362C43.524 238.182 43.1512 237.914 42.8475 237.577C42.5438 237.239 42.3163 236.841 42.1807 236.407C42.045 235.974 42.0042 235.517 42.0612 235.067L59.8027 58.9074C59.9162 57.9417 60.3753 57.0498 61.0953 56.3963C61.8152 55.7428 62.7473 55.372 63.7194 55.3523H180.465C180.919 55.3428 181.37 55.4312 181.786 55.6115C182.203 55.7918 182.575 56.0598 182.879 56.3972C183.183 56.7345 183.41 57.1334 183.546 57.5665C183.682 57.9997 183.722 58.457 183.665 58.9074L165.924 235.067C165.81 236.035 165.349 236.928 164.626 237.582C163.903 238.236 162.968 238.605 161.994 238.622Z" fill="#0065BD"/>
<path d="M160.765 238.622H44.033C43.5791 238.632 43.1286 238.543 42.712 238.363C42.2955 238.182 41.9227 237.914 41.619 237.577C41.3153 237.24 41.0878 236.841 40.9521 236.408C40.8165 235.975 40.7757 235.517 40.8327 235.067L58.5742 58.9077C58.6877 57.9421 59.1468 57.0501 59.8668 56.3966C60.5867 55.7432 61.5188 55.3723 62.4909 55.3526H179.237C179.69 55.3441 180.14 55.4333 180.555 55.614C180.971 55.7948 181.343 56.0629 181.646 56.4001C181.949 56.7374 182.176 57.1359 182.311 57.5686C182.446 58.0012 182.487 58.458 182.43 58.9077L164.689 235.067C164.575 236.034 164.115 236.927 163.393 237.58C162.672 238.234 161.738 238.604 160.765 238.622Z" fill="#0065BD"/>
<path opacity="0.4" d="M160.765 238.622H44.033C43.5791 238.632 43.1286 238.543 42.712 238.363C42.2955 238.182 41.9227 237.914 41.619 237.577C41.3153 237.24 41.0878 236.841 40.9521 236.408C40.8165 235.975 40.7757 235.517 40.8327 235.067L58.5742 58.9077C58.6877 57.9421 59.1468 57.0501 59.8668 56.3966C60.5867 55.7432 61.5188 55.3723 62.4909 55.3526H179.237C179.69 55.3441 180.14 55.4333 180.555 55.614C180.971 55.7948 181.343 56.0629 181.646 56.4001C181.949 56.7374 182.176 57.1359 182.311 57.5686C182.446 58.0012 182.487 58.458 182.43 58.9077L164.689 235.067C164.575 236.034 164.115 236.927 163.393 237.58C162.672 238.234 161.738 238.604 160.765 238.622Z" fill="white"/>
<path d="M138.643 68.7001H100.431C100.067 68.7079 99.705 68.6371 99.3708 68.4925C99.0365 68.3479 98.7374 68.1329 98.4939 67.8621C98.2503 67.5914 98.068 67.2712 97.9595 66.9236C97.851 66.576 97.8187 66.209 97.8649 65.8478L98.9362 55.2507C98.9512 55.1118 99.0163 54.9833 99.1193 54.889C99.2223 54.7948 99.3562 54.7414 99.4958 54.7389H142.417C142.482 54.7374 142.547 54.7501 142.607 54.776C142.667 54.8018 142.721 54.8403 142.765 54.8889C142.809 54.9374 142.842 54.9948 142.862 55.0572C142.882 55.1197 142.888 55.1856 142.881 55.2507L141.809 65.8478C141.718 66.6267 141.346 67.3458 140.764 67.8707C140.181 68.3956 139.427 68.6905 138.643 68.7001Z" fill="#263238"/>
<path d="M123.992 52.7531L123.542 57.1953H117.824L118.274 52.7531C118.365 51.9769 118.733 51.2598 119.311 50.7342C119.889 50.2086 120.638 49.9102 121.42 49.894C121.784 49.8873 122.146 49.959 122.481 50.1044C122.815 50.2497 123.115 50.4652 123.359 50.7364C123.603 51.0075 123.785 51.3279 123.895 51.6758C124.004 52.0238 124.037 52.3912 123.992 52.7531ZM122.259 52.9987C122.279 52.8522 122.267 52.7031 122.223 52.5617C122.18 52.4203 122.106 52.29 122.008 52.1798C121.909 52.0695 121.788 51.982 121.652 51.9231C121.516 51.8642 121.37 51.8354 121.222 51.8387C120.906 51.8465 120.604 51.9682 120.37 52.1814C120.137 52.3946 119.989 52.6848 119.953 52.9987C119.934 53.1448 119.947 53.2931 119.991 53.4337C120.035 53.5742 120.108 53.7036 120.207 53.8131C120.305 53.9226 120.426 54.0095 120.561 54.068C120.696 54.1264 120.843 54.1551 120.99 54.1519C121.305 54.1458 121.607 54.0255 121.841 53.8135C122.074 53.6014 122.223 53.312 122.259 52.9987Z" fill="#263238"/>
<path opacity="0.2" d="M138.643 68.7001H100.431C100.067 68.7079 99.705 68.6371 99.3708 68.4925C99.0365 68.3479 98.7374 68.1329 98.4939 67.8621C98.2503 67.5914 98.068 67.2712 97.9595 66.9236C97.851 66.576 97.8187 66.209 97.8649 65.8478L98.9362 55.2507C98.9512 55.1118 99.0163 54.9833 99.1193 54.889C99.2223 54.7948 99.3562 54.7414 99.4958 54.7389H142.417C142.482 54.7374 142.547 54.7501 142.607 54.776C142.667 54.8018 142.721 54.8403 142.765 54.8889C142.809 54.9374 142.842 54.9948 142.862 55.0572C142.882 55.1197 142.888 55.1856 142.881 55.2507L141.809 65.8478C141.718 66.6267 141.346 67.3458 140.764 67.8707C140.181 68.3956 139.427 68.6905 138.643 68.7001Z" fill="white"/>
<path d="M61.1261 61.0908H176.958L160.185 233.422H44.3536L61.1261 61.0908Z" fill="white"/>
<path d="M118.07 88.0027C123.436 88.0048 127.788 83.8302 127.79 78.6784C127.792 73.5267 123.444 69.3487 118.077 69.3466C112.711 69.3445 108.359 73.5191 108.357 78.6709C108.355 83.8226 112.703 88.0006 118.07 88.0027Z" fill="#0065BD"/>
<path opacity="0.2" d="M123.721 84.4497C126.827 81.3463 126.829 76.3128 123.726 73.207C120.622 70.1012 115.589 70.0992 112.483 73.2026C109.377 76.306 109.375 81.3395 112.479 84.4454C115.582 87.5512 120.615 87.5531 123.721 84.4497Z" fill="#E3F2FC"/>
<path d="M118.56 82.4593L118.56 83.5846L117.735 83.5843L117.736 82.4705C116.752 82.4094 115.797 82.0879 115.274 81.6335L115.726 80.6212C116.311 81.0588 117.008 81.3237 117.736 81.3857L117.737 79.3838C116.623 79.1114 115.423 78.7493 115.423 77.3578C115.424 76.3337 116.167 75.4401 117.738 75.2902L117.739 74.1533L118.563 74.1536L118.563 75.2703C119.283 75.3008 119.985 75.512 120.602 75.8844L120.188 76.8997C119.69 76.6069 119.136 76.4214 118.562 76.3552L118.562 78.3802C119.675 78.6497 120.893 79.0031 120.893 80.4062C120.892 81.4101 120.137 82.3008 118.56 82.4593ZM117.737 78.16L117.738 76.3693C117.023 76.4818 116.722 76.8434 116.722 77.286C116.722 77.7286 117.156 77.9891 117.737 78.16ZM119.605 80.4751C119.605 79.9833 119.163 79.7517 118.561 79.5808L118.56 81.36C119.292 81.2532 119.605 80.912 119.605 80.4809L119.605 80.4751Z" fill="white"/>
<path opacity="0.2" d="M123.906 73.3562C122.364 71.8874 120.309 71.0796 118.179 71.1052C116.05 71.1308 114.015 71.9878 112.508 73.4932C111.002 74.9987 110.144 77.0334 110.117 79.1628C110.091 81.2922 110.897 83.3478 112.365 84.8905C111.594 84.136 110.98 83.2358 110.558 82.2422C110.137 81.2486 109.917 80.1813 109.911 79.1022C109.906 78.023 110.114 76.9534 110.525 75.9553C110.935 74.9572 111.54 74.0505 112.303 73.2877C113.066 72.5249 113.974 71.9211 114.972 71.5114C115.97 71.1017 117.04 70.8942 118.119 70.9008C119.198 70.9074 120.266 71.1282 121.259 71.5502C122.252 71.9722 123.152 72.587 123.906 73.3592L123.906 73.3562Z" fill="black"/>
<path opacity="0.2" d="M118.08 69.3466C116.158 69.3452 114.279 69.8911 112.68 70.9151C111.082 71.9391 109.835 73.3953 109.099 75.0994C108.362 76.8036 108.168 78.6792 108.542 80.489C108.916 82.2988 109.841 83.9615 111.199 85.2669C112.557 86.5723 114.288 87.4616 116.173 87.8225C118.058 88.1834 120.012 87.9996 121.788 87.2944C123.564 86.5892 125.082 85.3941 126.15 83.8605C127.219 82.3269 127.789 80.5235 127.79 78.6784C127.791 76.205 126.769 73.8324 124.948 72.0824C123.127 70.3324 120.657 69.3483 118.08 69.3466ZM118.073 87.5069C116.256 87.5068 114.48 86.9894 112.97 86.0203C111.459 85.0511 110.282 83.6737 109.587 82.0622C108.892 80.4507 108.71 78.6776 109.065 76.967C109.42 75.2565 110.295 73.6854 111.58 72.4524C112.865 71.2194 114.502 70.3799 116.284 70.0401C118.066 69.7004 119.913 69.8755 121.591 70.5435C123.269 71.2115 124.704 72.3423 125.712 73.7928C126.721 75.2434 127.259 76.9485 127.259 78.6926C127.254 81.0283 126.284 83.2666 124.562 84.9164C122.84 86.5662 120.506 87.4927 118.073 87.4925L118.073 87.5069Z" fill="black"/>
<path opacity="0.7" d="M54.7266 211.491C53.0233 204.274 57.4928 197.043 64.7095 195.34C71.9263 193.636 79.1574 198.106 80.8607 205.323C82.564 212.539 78.0945 219.77 70.8777 221.474C63.661 223.177 56.4299 218.708 54.7266 211.491Z" fill="#BADEFA"/>
<path opacity="0.3" d="M171.71 92.855H60.1911" stroke="black" stroke-miterlimit="10"/>
<path opacity="0.3" d="M67.3626 105.103H162.15L162.655 99.958H67.8607L67.3626 105.103Z" fill="black"/>
<g opacity="0.3">
<path d="M66.674 113.176H152.167C152.305 113.187 152.443 113.17 152.573 113.125C152.704 113.08 152.823 113.009 152.925 112.916C153.026 112.822 153.107 112.709 153.162 112.583C153.218 112.457 153.246 112.321 153.246 112.183C153.246 112.045 153.218 111.909 153.162 111.783C153.107 111.656 153.026 111.543 152.925 111.45C152.823 111.356 152.704 111.285 152.573 111.24C152.443 111.196 152.305 111.179 152.167 111.19H66.674C66.5367 111.179 66.3985 111.196 66.2682 111.24C66.1379 111.285 66.0183 111.356 65.9169 111.45C65.8156 111.543 65.7346 111.656 65.6793 111.783C65.624 111.909 65.5954 112.045 65.5954 112.183C65.5954 112.321 65.624 112.457 65.6793 112.583C65.7346 112.709 65.8156 112.822 65.9169 112.916C66.0183 113.009 66.1379 113.08 66.2682 113.125C66.3985 113.17 66.5367 113.187 66.674 113.176Z" fill="black"/>
</g>
<g opacity="0.3">
<path d="M66.1897 118.137H160.984C161.248 118.137 161.501 118.032 161.688 117.845C161.875 117.658 161.98 117.405 161.98 117.141C161.98 116.877 161.875 116.623 161.688 116.436C161.501 116.249 161.248 116.145 160.984 116.145H66.1897C65.9254 116.145 65.672 116.249 65.4852 116.436C65.2984 116.623 65.1934 116.877 65.1934 117.141C65.1934 117.405 65.2984 117.658 65.4852 117.845C65.672 118.032 65.9254 118.137 66.1897 118.137Z" fill="black"/>
</g>
<g opacity="0.3">
<path d="M65.7126 123.091H160.5C160.631 123.091 160.76 123.065 160.881 123.015C161.002 122.965 161.112 122.891 161.204 122.799C161.297 122.706 161.37 122.597 161.42 122.476C161.47 122.355 161.496 122.225 161.496 122.094C161.496 121.964 161.47 121.834 161.42 121.713C161.37 121.592 161.297 121.482 161.204 121.39C161.112 121.297 161.002 121.224 160.881 121.174C160.76 121.124 160.631 121.098 160.5 121.098H65.7126C65.5818 121.098 65.4522 121.124 65.3313 121.174C65.2105 121.224 65.1007 121.297 65.0082 121.39C64.9156 121.482 64.8423 121.592 64.7922 121.713C64.7421 121.834 64.7163 121.964 64.7163 122.094C64.7163 122.225 64.7421 122.355 64.7922 122.476C64.8423 122.597 64.9156 122.706 65.0082 122.799C65.1007 122.891 65.2105 122.965 65.3313 123.015C65.4522 123.065 65.5818 123.091 65.7126 123.091Z" fill="black"/>
</g>
<g opacity="0.3">
<path d="M65.2272 128.045H160.014C160.279 128.045 160.532 127.94 160.719 127.753C160.906 127.567 161.011 127.313 161.011 127.049C161.011 126.785 160.906 126.531 160.719 126.345C160.532 126.158 160.279 126.053 160.014 126.053H65.2272C64.963 126.053 64.7096 126.158 64.5228 126.345C64.336 126.531 64.231 126.785 64.231 127.049C64.231 127.313 64.336 127.567 64.5228 127.753C64.7096 127.94 64.963 128.045 65.2272 128.045Z" fill="black"/>
</g>
<g opacity="0.3">
<path d="M64.7427 132.999H159.537C159.786 132.979 160.018 132.865 160.187 132.681C160.357 132.497 160.451 132.256 160.451 132.007C160.451 131.757 160.357 131.516 160.187 131.332C160.018 131.148 159.786 131.034 159.537 131.014H64.7427C64.4936 131.034 64.2614 131.148 64.0921 131.332C63.9228 131.516 63.8289 131.757 63.8289 132.007C63.8289 132.256 63.9228 132.497 64.0921 132.681C64.2614 132.865 64.4936 132.979 64.7427 132.999Z" fill="black"/>
</g>
<g opacity="0.3">
<path d="M64.265 137.953H159.052C159.19 137.964 159.328 137.947 159.458 137.902C159.588 137.858 159.708 137.786 159.809 137.693C159.911 137.6 159.992 137.487 160.047 137.36C160.102 137.234 160.131 137.098 160.131 136.96C160.131 136.822 160.102 136.686 160.047 136.56C159.992 136.434 159.911 136.32 159.809 136.227C159.708 136.134 159.588 136.063 159.458 136.018C159.328 135.973 159.19 135.956 159.052 135.967H64.265C64.1277 135.956 63.9895 135.973 63.8592 136.018C63.7289 136.063 63.6093 136.134 63.5079 136.227C63.4065 136.32 63.3256 136.434 63.2703 136.56C63.2149 136.686 63.1863 136.822 63.1863 136.96C63.1863 137.098 63.2149 137.234 63.2703 137.36C63.3256 137.487 63.4065 137.6 63.5079 137.693C63.6093 137.786 63.7289 137.858 63.8592 137.902C63.9895 137.947 64.1277 137.964 64.265 137.953Z" fill="black"/>
</g>
<g opacity="0.3">
<path d="M73.0608 142.907H158.568C158.705 142.918 158.843 142.901 158.974 142.856C159.104 142.811 159.224 142.74 159.325 142.647C159.426 142.553 159.507 142.44 159.563 142.314C159.618 142.188 159.646 142.051 159.646 141.914C159.646 141.776 159.618 141.64 159.563 141.514C159.507 141.387 159.426 141.274 159.325 141.181C159.224 141.087 159.104 141.016 158.974 140.971C158.843 140.927 158.705 140.91 158.568 140.921H73.0608C72.9235 140.91 72.7853 140.927 72.655 140.971C72.5247 141.016 72.4051 141.087 72.3037 141.181C72.2023 141.274 72.1214 141.387 72.0661 141.514C72.0107 141.64 71.9821 141.776 71.9821 141.914C71.9821 142.051 72.0107 142.188 72.0661 142.314C72.1214 142.44 72.2023 142.553 72.3037 142.647C72.4051 142.74 72.5247 142.811 72.655 142.856C72.7853 142.901 72.9235 142.918 73.0608 142.907Z" fill="black"/>
</g>
<path opacity="0.3" d="M62.2112 158.069H156.998L157.497 152.924H62.7093L62.2112 158.069Z" fill="black"/>
<g opacity="0.3">
<path d="M61.5217 166.148H147.029C147.166 166.159 147.304 166.142 147.435 166.097C147.565 166.053 147.685 165.981 147.786 165.888C147.887 165.795 147.968 165.681 148.024 165.555C148.079 165.429 148.107 165.293 148.107 165.155C148.107 165.017 148.079 164.881 148.024 164.755C147.968 164.629 147.887 164.515 147.786 164.422C147.685 164.329 147.565 164.257 147.435 164.213C147.304 164.168 147.166 164.151 147.029 164.162H61.5217C61.3844 164.151 61.2463 164.168 61.1159 164.213C60.9856 164.257 60.866 164.329 60.7646 164.422C60.6633 164.515 60.5824 164.629 60.527 164.755C60.4717 164.881 60.4431 165.017 60.4431 165.155C60.4431 165.293 60.4717 165.429 60.527 165.555C60.5824 165.681 60.6633 165.795 60.7646 165.888C60.866 165.981 60.9856 166.053 61.1159 166.097C61.2463 166.142 61.3844 166.159 61.5217 166.148Z" fill="black"/>
</g>
<g opacity="0.3">
<path d="M61.0375 171.116H155.825C155.962 171.127 156.1 171.11 156.23 171.065C156.361 171.02 156.48 170.949 156.582 170.856C156.683 170.762 156.764 170.649 156.819 170.523C156.875 170.397 156.903 170.261 156.903 170.123C156.903 169.985 156.875 169.849 156.819 169.723C156.764 169.596 156.683 169.483 156.582 169.39C156.48 169.296 156.361 169.225 156.23 169.18C156.1 169.136 155.962 169.118 155.825 169.13H61.0375C60.9002 169.118 60.762 169.136 60.6317 169.18C60.5013 169.225 60.3817 169.296 60.2804 169.39C60.179 169.483 60.0981 169.596 60.0427 169.723C59.9874 169.849 59.9588 169.985 59.9588 170.123C59.9588 170.261 59.9874 170.397 60.0427 170.523C60.0981 170.649 60.179 170.762 60.2804 170.856C60.3817 170.949 60.5013 171.02 60.6317 171.065C60.762 171.11 60.9002 171.127 61.0375 171.116Z" fill="black"/>
</g>
<g opacity="0.3">
<path d="M60.5533 176.056H155.347C155.596 176.035 155.829 175.922 155.998 175.738C156.167 175.554 156.261 175.313 156.261 175.063C156.261 174.813 156.167 174.572 155.998 174.388C155.829 174.205 155.596 174.091 155.347 174.07H60.5533C60.3042 174.091 60.072 174.205 59.9027 174.388C59.7334 174.572 59.6394 174.813 59.6394 175.063C59.6394 175.313 59.7334 175.554 59.9027 175.738C60.072 175.922 60.3042 176.035 60.5533 176.056Z" fill="black"/>
</g>
<g opacity="0.3">
<path d="M60.0484 181.011H154.863C155.112 180.99 155.344 180.876 155.514 180.692C155.683 180.509 155.777 180.268 155.777 180.018C155.777 179.768 155.683 179.527 155.514 179.343C155.344 179.159 155.112 179.046 154.863 179.025H60.0484C59.9111 179.014 59.773 179.031 59.6427 179.075C59.5124 179.12 59.3927 179.191 59.2914 179.285C59.19 179.378 59.1091 179.491 59.0537 179.618C58.9984 179.744 58.9698 179.88 58.9698 180.018C58.9698 180.156 58.9984 180.292 59.0537 180.418C59.1091 180.544 59.19 180.657 59.2914 180.751C59.3927 180.844 59.5124 180.915 59.6427 180.96C59.773 181.005 59.9111 181.022 60.0484 181.011Z" fill="black"/>
</g>
<g opacity="0.3">
<path d="M108.639 185.964H154.358C154.495 185.976 154.633 185.958 154.764 185.914C154.894 185.869 155.014 185.798 155.115 185.704C155.216 185.611 155.297 185.498 155.353 185.372C155.408 185.245 155.437 185.109 155.437 184.971C155.437 184.834 155.408 184.697 155.353 184.571C155.297 184.445 155.216 184.332 155.115 184.238C155.014 184.145 154.894 184.074 154.764 184.029C154.633 183.984 154.495 183.967 154.358 183.979H108.639C108.502 183.967 108.364 183.984 108.234 184.029C108.103 184.074 107.984 184.145 107.882 184.238C107.781 184.332 107.7 184.445 107.645 184.571C107.589 184.697 107.561 184.834 107.561 184.971C107.561 185.109 107.589 185.245 107.645 185.372C107.7 185.498 107.781 185.611 107.882 185.704C107.984 185.798 108.103 185.869 108.234 185.914C108.364 185.958 108.502 185.976 108.639 185.964Z" fill="black"/>
</g>
<g opacity="0.3">
<path d="M89.1514 214.61H124.129V215.272H89.1514V214.61Z" fill="black"/>
</g>
<path d="M103.78 207.554C107.629 205.329 110.604 214.664 104.026 220.137C97.4481 225.609 88.3317 221.167 93.1765 210.304C98.0213 199.441 107.8 199.045 111.136 202.32C114.473 205.595 113.675 213.586 111.273 213.183C108.871 212.781 113.381 205.2 116.732 205.725C120.082 206.251 119.366 213.913 117.414 213.081C115.462 212.249 119.263 207.813 121.897 207.95C124.531 208.086 123.849 213.238 122.395 213.081C120.942 212.924 123.555 208.864 129.219 209.123" stroke="black" stroke-miterlimit="10"/>
<path d="M101.515 66.086H116.998C117.145 66.0861 117.286 66.034 117.398 65.9389C117.509 65.8438 117.583 65.712 117.606 65.5674C117.71 64.9703 118.017 64.4277 118.476 64.0321C118.936 63.6364 119.518 63.4122 120.124 63.3975C120.39 63.3912 120.655 63.4405 120.901 63.5423C121.148 63.6442 121.37 63.7963 121.554 63.9889C121.739 64.1815 121.881 64.4105 121.972 64.6611C122.062 64.9118 122.1 65.1786 122.082 65.4446C122.078 65.5263 122.092 65.6078 122.121 65.6842C122.15 65.7605 122.195 65.8299 122.253 65.8881C122.31 65.9483 122.379 65.9962 122.455 66.0291C122.531 66.0619 122.613 66.079 122.696 66.0792H138.179C138.331 66.0784 138.478 66.0217 138.591 65.9198C138.704 65.8179 138.776 65.6779 138.793 65.5264L139.564 57.843C139.573 57.7579 139.564 57.6718 139.537 57.5906C139.51 57.5094 139.465 57.435 139.407 57.3722C139.35 57.3075 139.28 57.2558 139.201 57.2205C139.122 57.1852 139.036 57.1671 138.95 57.1675H102.287C102.135 57.1669 101.988 57.2233 101.875 57.3256C101.763 57.428 101.693 57.5688 101.679 57.7202L100.901 65.39C100.891 65.4764 100.899 65.5641 100.925 65.6471C100.951 65.7302 100.994 65.8067 101.053 65.8714C101.111 65.9361 101.182 65.9876 101.262 66.0222C101.342 66.0569 101.428 66.074 101.515 66.0723V66.086ZM116.528 64.8577H102.198L102.846 58.4162H138.274L137.626 64.8577H123.297C123.205 64.2085 122.911 63.6045 122.457 63.1314C122.157 62.8227 121.797 62.5783 121.399 62.4129C121.002 62.2475 120.575 62.1646 120.144 62.1692C119.334 62.1837 118.549 62.4505 117.899 62.9325C117.248 63.4144 116.764 64.0875 116.514 64.8577H116.528Z" fill="#263238"/>
<g opacity="0.6">
<path d="M101.515 66.086H116.998C117.145 66.0861 117.286 66.034 117.398 65.9389C117.509 65.8438 117.583 65.712 117.606 65.5674C117.71 64.9703 118.017 64.4277 118.476 64.0321C118.936 63.6364 119.518 63.4122 120.124 63.3975C120.39 63.3912 120.655 63.4405 120.901 63.5423C121.148 63.6442 121.37 63.7963 121.554 63.9889C121.739 64.1815 121.881 64.4105 121.972 64.6611C122.062 64.9118 122.1 65.1786 122.082 65.4446C122.078 65.5263 122.092 65.6078 122.121 65.6842C122.15 65.7605 122.195 65.8299 122.253 65.8881C122.31 65.9483 122.379 65.9962 122.455 66.0291C122.531 66.0619 122.613 66.079 122.696 66.0792H138.179C138.331 66.0784 138.478 66.0217 138.591 65.9198C138.704 65.8179 138.776 65.6779 138.793 65.5264L139.564 57.843C139.573 57.7579 139.564 57.6718 139.537 57.5906C139.51 57.5094 139.465 57.435 139.407 57.3722C139.35 57.3075 139.28 57.2558 139.201 57.2205C139.122 57.1852 139.036 57.1671 138.95 57.1675H102.287C102.135 57.1669 101.988 57.2233 101.875 57.3256C101.763 57.428 101.693 57.5688 101.679 57.7202L100.901 65.39C100.891 65.4764 100.899 65.5641 100.925 65.6471C100.951 65.7302 100.994 65.8067 101.053 65.8714C101.111 65.9361 101.182 65.9876 101.262 66.0222C101.342 66.0569 101.428 66.074 101.515 66.0723V66.086ZM116.528 64.8577H102.198L102.846 58.4162H138.274L137.626 64.8577H123.297C123.205 64.2085 122.911 63.6045 122.457 63.1314C122.157 62.8227 121.797 62.5783 121.399 62.4129C121.002 62.2475 120.575 62.1646 120.144 62.1692C119.334 62.1837 118.549 62.4505 117.899 62.9325C117.248 63.4144 116.764 64.0875 116.514 64.8577H116.528Z" fill="white"/>
</g>
<path d="M136.056 57.8427C136.06 57.6745 136.107 57.51 136.192 57.3645C136.276 57.2191 136.396 57.0972 136.541 57.0103H104.558C104.414 57.0972 104.294 57.2191 104.209 57.3645C104.125 57.51 104.078 57.6745 104.074 57.8427C104.012 58.5251 104.394 58.682 104.394 58.682H136.377C136.377 58.682 135.995 58.5251 136.056 57.8427Z" fill="#263238"/>
<path opacity="0.3" d="M136.056 57.8427C136.06 57.6745 136.107 57.51 136.192 57.3645C136.276 57.2191 136.396 57.0972 136.541 57.0103H104.558C104.414 57.0972 104.294 57.2191 104.209 57.3645C104.125 57.51 104.078 57.6745 104.074 57.8427C104.012 58.5251 104.394 58.682 104.394 58.682H136.377C136.377 58.682 135.995 58.5251 136.056 57.8427Z" fill="white"/>
<path d="M67.9127 215.038C67.5638 215.041 67.2227 214.935 66.9367 214.735L57.875 208.551C57.5291 208.278 57.2997 207.883 57.2333 207.447C57.1668 207.011 57.2682 206.566 57.517 206.202C57.7658 205.838 58.1435 205.582 58.5738 205.485C59.004 205.389 59.4549 205.459 59.8354 205.682L67.5761 210.974C70.4031 207.567 78.4636 198.354 85.1693 195.333C85.3776 195.24 85.6021 195.189 85.8301 195.183C86.058 195.177 86.2849 195.216 86.4978 195.298C86.7107 195.379 86.9055 195.502 87.0709 195.659C87.2364 195.816 87.3693 196.004 87.4621 196.212C87.5549 196.42 87.6058 196.645 87.6118 196.873C87.6179 197.101 87.579 197.328 87.4973 197.541C87.4157 197.754 87.2929 197.948 87.136 198.114C86.9791 198.279 86.7911 198.412 86.5828 198.505C79.2629 201.761 69.3767 214.256 69.2841 214.382C69.1196 214.587 68.9108 214.753 68.6734 214.867C68.4359 214.98 68.1759 215.039 67.9127 215.038Z" fill="#0065BD"/>
</svg>
