<svg width="194" height="207" viewBox="0 0 194 207" fill="none" xmlns="http://www.w3.org/2000/svg">
<g clip-path="url(#clip0_12479_9662)">
<path d="M193.933 188.024H171.853V188.19H193.933V188.024Z" fill="#EBEBEB"/>
<path d="M94.9601 188.11H89.1667V188.277H94.9601V188.11Z" fill="#EBEBEB"/>
<path d="M171.18 181.847H130.22V182.014H171.18V181.847Z" fill="#EBEBEB"/>
<path d="M44.0934 185.774H35.6334V185.941H44.0934V185.774Z" fill="#EBEBEB"/>
<path d="M29.7001 185.774H5.14673V185.941H29.7001V185.774Z" fill="#EBEBEB"/>
<path d="M127.587 121.138H62.9867C62.5282 121.138 62.0883 120.957 61.7634 120.634C61.4386 120.311 61.2552 119.872 61.2534 119.414V118.15C61.2552 117.692 61.4386 117.253 61.7634 116.93C62.0883 116.607 62.5282 116.426 62.9867 116.426H127.587C128.045 116.426 128.485 116.607 128.81 116.93C129.135 117.253 129.318 117.692 129.32 118.15V119.414C129.318 119.872 129.135 120.311 128.81 120.634C128.485 120.957 128.045 121.138 127.587 121.138ZM62.9867 117.81C62.8823 117.812 62.7825 117.854 62.7081 117.927C62.6336 118 62.5902 118.099 62.5868 118.203V119.468C62.5902 119.572 62.6336 119.671 62.7081 119.744C62.7825 119.817 62.8823 119.859 62.9867 119.86H127.587C127.692 119.86 127.792 119.819 127.867 119.746C127.942 119.672 127.985 119.572 127.987 119.468V118.203C127.985 118.098 127.942 117.998 127.867 117.925C127.792 117.851 127.692 117.81 127.587 117.81H62.9867Z" fill="white"/>
<path d="M127.587 153.213H62.9867C62.5282 153.213 62.0883 153.032 61.7634 152.709C61.4386 152.386 61.2552 151.947 61.2534 151.489V150.225C61.2552 149.767 61.4386 149.328 61.7634 149.005C62.0883 148.682 62.5282 148.501 62.9867 148.501H127.587C128.045 148.501 128.485 148.682 128.81 149.005C129.135 149.328 129.318 149.767 129.32 150.225V151.489C129.318 151.947 129.135 152.386 128.81 152.709C128.485 153.032 128.045 153.213 127.587 153.213ZM62.9867 149.832C62.8823 149.834 62.7825 149.875 62.7081 149.948C62.6336 150.022 62.5902 150.12 62.5868 150.225V151.489C62.5902 151.593 62.6336 151.692 62.7081 151.765C62.7825 151.839 62.8823 151.88 62.9867 151.882H127.587C127.692 151.882 127.792 151.841 127.867 151.767C127.942 151.694 127.985 151.594 127.987 151.489V150.225C127.985 150.12 127.942 150.02 127.867 149.947C127.792 149.873 127.692 149.832 127.587 149.832H62.9867Z" fill="white"/>
<path d="M97.2967 207C146.614 207 186.593 203.71 186.593 199.652C186.593 195.594 146.614 192.304 97.2967 192.304C47.9795 192.304 8 195.594 8 199.652C8 203.71 47.9795 207 97.2967 207Z" fill="#F5F5F5"/>
<path d="M143.86 34.4464L143.606 38.3652L144.272 38.4082L144.526 34.4894L143.86 34.4464Z" fill="#0065BD"/>
<path d="M144.872 18.5303L144.04 31.4094L144.705 31.4523L145.537 18.5731L144.872 18.5303Z" fill="#0065BD"/>
<path d="M136.96 -0.172946H58.5933C56.581 -0.137705 54.6541 0.644807 53.1885 2.0219C51.7229 3.39899 50.8238 5.27186 50.6666 7.27506L40.54 163.357C40.466 164.314 40.5921 165.275 40.9102 166.181C41.2283 167.086 41.7315 167.916 42.3879 168.617C43.0442 169.318 43.8394 169.875 44.7229 170.253C45.6064 170.631 46.5589 170.821 47.52 170.812H125.873C127.889 170.778 129.82 169.996 131.29 168.618C132.759 167.239 133.661 165.364 133.82 163.357L143.94 7.27506C144.014 6.31863 143.888 5.35729 143.57 4.45213C143.252 3.54698 142.748 2.71781 142.092 2.01733C141.435 1.31686 140.64 0.7604 139.757 0.383328C138.873 0.00625575 137.921 -0.183184 136.96 -0.172946Z" fill="#0065BD"/>
<path opacity="0.7" d="M134.473 -0.172946H58.5933C56.581 -0.137705 54.6541 0.644807 53.1885 2.0219C51.7229 3.39899 50.8238 5.27186 50.6666 7.27506L40.54 163.357C40.466 164.314 40.5921 165.275 40.9102 166.181C41.2283 167.086 41.7315 167.916 42.3879 168.617C43.0442 169.318 43.8394 169.875 44.7229 170.253C45.6064 170.631 46.5589 170.821 47.52 170.812H123.387C125.403 170.778 127.334 169.996 128.803 168.618C130.272 167.239 131.174 165.364 131.333 163.357L141.453 7.27506C141.527 6.31863 141.401 5.35729 141.083 4.45213C140.765 3.54698 140.262 2.71781 139.605 2.01733C138.949 1.31686 138.153 0.7604 137.27 0.383328C136.386 0.00625575 135.434 -0.183184 134.473 -0.172946Z" fill="white"/>
<path d="M128.073 159.277H44.6066C44.2945 159.278 43.9855 159.214 43.6988 159.091C43.4122 158.967 43.154 158.787 42.9403 158.559C42.7265 158.332 42.5618 158.064 42.4562 157.77C42.3506 157.477 42.3065 157.165 42.3266 156.854L51.4866 15.615C51.5239 15.0382 51.7795 14.4971 52.2017 14.1015C52.6239 13.706 53.181 13.4856 53.76 13.4851H137.233C137.546 13.4854 137.855 13.5496 138.142 13.6738C138.428 13.7979 138.686 13.9795 138.9 14.2071C139.114 14.4348 139.278 14.7037 139.384 14.9974C139.489 15.2911 139.533 15.6032 139.513 15.9145L130.353 157.147C130.316 157.725 130.059 158.267 129.636 158.663C129.212 159.059 128.653 159.278 128.073 159.277Z" fill="white"/>
<path d="M109.527 8.86594H79.1866C79.0305 8.86733 78.8758 8.83631 78.7324 8.77485C78.5889 8.7134 78.4598 8.62285 78.3533 8.50895C78.2467 8.39506 78.165 8.2603 78.1134 8.11322C78.0617 7.96614 78.0413 7.80995 78.0533 7.65456C78.084 7.33174 78.2316 7.03122 78.4686 6.80941C78.7055 6.58759 79.0153 6.45973 79.3399 6.44983H109.68C109.836 6.44751 109.99 6.47767 110.134 6.53837C110.277 6.59908 110.406 6.68899 110.513 6.80237C110.62 6.91575 110.701 7.05011 110.753 7.19684C110.805 7.34358 110.825 7.49947 110.813 7.65456C110.784 7.97856 110.637 8.28069 110.4 8.50388C110.163 8.72706 109.852 8.85586 109.527 8.86594Z" fill="white"/>
<path d="M85.8467 165.207C85.7979 166.005 85.4482 166.755 84.8681 167.306C84.288 167.856 83.5205 168.167 82.72 168.176C82.3356 168.179 81.9546 168.104 81.6007 167.954C81.2468 167.804 80.9276 167.583 80.6631 167.304C80.3985 167.026 80.1942 166.696 80.063 166.335C79.9317 165.974 79.8762 165.591 79.9 165.207C79.9505 164.411 80.3008 163.663 80.8808 163.113C81.4607 162.564 82.2273 162.254 83.0267 162.246C83.4108 162.241 83.7917 162.316 84.1456 162.465C84.4994 162.614 84.8187 162.835 85.0834 163.113C85.348 163.391 85.5524 163.72 85.6837 164.081C85.8151 164.441 85.8705 164.825 85.8467 165.207Z" fill="white"/>
<path opacity="0.2" d="M118.98 52.582H47.7067L43.1733 122.403H118.98C120.958 122.399 122.854 121.614 124.254 120.218C125.653 118.822 126.441 116.93 126.447 114.955V60.0567C126.448 58.0772 125.663 56.178 124.263 54.7764C122.863 53.3748 120.963 52.5856 118.98 52.582Z" fill="#0065BD"/>
<path d="M112.34 46.3987H24.9933C20.8696 46.3987 17.5266 49.7362 17.5266 53.8533V108.772C17.5266 112.889 20.8696 116.226 24.9933 116.226H112.34C116.464 116.226 119.807 112.889 119.807 108.772V53.8533C119.807 49.7362 116.464 46.3987 112.34 46.3987Z" fill="#0065BD"/>
<path d="M15.14 45.5932C14.9651 45.5925 14.7975 45.5231 14.6733 45.4002L13.4733 44.2088C13.3478 44.0834 13.2772 43.9134 13.2772 43.7362C13.2772 43.5589 13.3478 43.389 13.4733 43.2636C13.5988 43.1383 13.7691 43.0679 13.9466 43.0679C14.1241 43.0679 14.2944 43.1383 14.42 43.2636L15.6133 44.4617C15.7374 44.5864 15.8071 44.7551 15.8071 44.9309C15.8071 45.1068 15.7374 45.2755 15.6133 45.4002C15.551 45.4619 15.4771 45.5107 15.3959 45.5438C15.3147 45.5769 15.2277 45.5937 15.14 45.5932Z" fill="#0065BD"/>
<path d="M13.3333 49.7733H11.6466C11.4698 49.7733 11.3003 49.7032 11.1752 49.5784C11.0502 49.4536 10.98 49.2843 10.98 49.1077C10.98 48.9312 11.0502 48.7619 11.1752 48.6371C11.3003 48.5123 11.4698 48.4421 11.6466 48.4421H13.3333C13.5101 48.4421 13.6797 48.5123 13.8047 48.6371C13.9297 48.7619 14 48.9312 14 49.1077C14 49.2843 13.9297 49.4536 13.8047 49.5784C13.6797 49.7032 13.5101 49.7733 13.3333 49.7733Z" fill="#0065BD"/>
<path d="M19.3867 43.7962C19.2177 43.7966 19.0548 43.7329 18.931 43.618C18.8073 43.5031 18.7318 43.3455 18.72 43.1772L18.6 41.4933C18.5937 41.4058 18.6047 41.318 18.6324 41.2348C18.6602 41.1516 18.7042 41.0747 18.7618 41.0085C18.8194 40.9423 18.8895 40.8882 18.9682 40.8492C19.0468 40.8101 19.1324 40.787 19.22 40.7811C19.3958 40.7701 19.5688 40.8291 19.7012 40.9451C19.8336 41.061 19.9147 41.2246 19.9267 41.4001L20.0533 43.084C20.0597 43.1715 20.0487 43.2593 20.0209 43.3425C19.9932 43.4257 19.9492 43.5026 19.8916 43.5688C19.834 43.635 19.7638 43.6891 19.6852 43.7281C19.6066 43.7672 19.521 43.7903 19.4333 43.7962H19.3867Z" fill="#0065BD"/>
<path d="M76.1267 109.044L102.947 135.815V109.044H76.1267Z" fill="#0065BD"/>
<path d="M83.48 97.3166L82.1467 91.6657C81.81 90.1803 81.81 88.6385 82.1467 87.153L84 79.106C84.7583 75.6744 84.3477 72.0883 82.8333 68.9162C81.3189 65.744 78.7874 63.1672 75.64 61.5942C75.6991 61.4461 75.7502 61.295 75.7933 61.1416C75.9028 60.6534 75.9148 60.1485 75.8288 59.6557C75.7428 59.1628 75.5604 58.6918 75.292 58.2693C75.0237 57.8469 74.6746 57.4813 74.2647 57.1936C73.8549 56.9058 73.3923 56.7015 72.9033 56.5922C72.4144 56.483 71.9086 56.4709 71.415 56.5568C70.9214 56.6427 70.4496 56.8248 70.0265 57.0927C69.6033 57.3606 69.2372 57.7091 68.949 58.1183C68.6608 58.5275 68.4561 58.9894 68.3466 59.4776C68.3136 59.6332 68.2935 59.7912 68.2866 59.9501C64.7682 60.0326 61.3779 61.2844 58.6525 63.5076C55.9271 65.7307 54.0224 68.7979 53.24 72.2237L51.4333 80.2774C51.1014 81.7602 50.4408 83.1499 49.5 84.3442L45.9067 88.9035C45.5552 89.3508 45.3228 89.8795 45.2312 90.4406C45.1396 91.0016 45.1917 91.5767 45.3827 92.1122C45.5737 92.6478 45.8974 93.1263 46.3235 93.5033C46.7497 93.8803 47.2645 94.1434 47.82 94.2682L79.4867 101.35C80.0402 101.47 80.615 101.448 81.1579 101.286C81.7007 101.125 82.194 100.83 82.5921 100.428C82.9903 100.026 83.2804 99.5296 83.4356 98.9858C83.5907 98.442 83.606 97.8679 83.48 97.3166Z" fill="white"/>
<path d="M59.5667 99.0605C59.3258 99.0075 59.0756 99.0146 58.8381 99.0812C58.6006 99.1477 58.3833 99.2718 58.2053 99.4422C58.0273 99.6127 57.8941 99.8244 57.8176 100.058C57.7411 100.293 57.7236 100.542 57.7667 100.784C57.9485 101.854 58.4451 102.845 59.1931 103.632C59.9412 104.419 60.9068 104.965 61.9671 105.202C63.0274 105.439 64.1344 105.356 65.147 104.963C66.1597 104.569 67.0321 103.884 67.6534 102.994C67.7953 102.794 67.8856 102.561 67.9164 102.318C67.9471 102.074 67.9174 101.826 67.8298 101.597C67.7422 101.367 67.5994 101.163 67.414 101.002C67.2287 100.84 67.0063 100.727 66.7667 100.671L59.5667 99.0605Z" fill="white"/>
<path d="M35.2467 87.8585C35.0815 87.8598 34.9186 87.8196 34.773 87.7417C34.6274 87.6638 34.5038 87.5506 34.4133 87.4126C31.2646 82.7028 30.1187 76.9371 31.2277 71.3838C32.3366 65.8305 35.6096 60.9444 40.3267 57.8003C40.5477 57.6537 40.818 57.6009 41.078 57.6533C41.3381 57.7057 41.5666 57.8591 41.7134 58.0798C41.8601 58.3005 41.913 58.5703 41.8605 58.8299C41.808 59.0896 41.6544 59.3177 41.4333 59.4642C37.1631 62.3197 34.2028 66.7508 33.2028 71.7841C32.2028 76.8173 33.2448 82.041 36.1 86.3077C36.2475 86.5275 36.3015 86.7968 36.2503 87.0564C36.199 87.316 36.0467 87.5446 35.8267 87.6921C35.6548 87.8051 35.4525 87.8631 35.2467 87.8585Z" fill="white"/>
<path d="M39.48 85.0231C39.3161 85.022 39.1551 84.9808 39.0109 84.9031C38.8668 84.8253 38.744 84.7134 38.6533 84.5771C36.2567 80.9893 35.3845 76.5984 36.2283 72.369C37.072 68.1395 39.5627 64.4174 43.1533 62.0201C43.2627 61.9471 43.3855 61.8964 43.5146 61.8708C43.6437 61.8451 43.7765 61.8452 43.9056 61.8708C44.0347 61.8965 44.1574 61.9472 44.2668 62.0203C44.3763 62.0933 44.4702 62.1871 44.5433 62.2963C44.6164 62.4056 44.6672 62.5282 44.6929 62.657C44.7185 62.7859 44.7185 62.9186 44.6929 63.0474C44.6672 63.1763 44.6163 63.2988 44.5432 63.4081C44.47 63.5173 44.3761 63.6111 44.2666 63.6841C41.1151 65.7839 38.928 69.0477 38.1866 72.7574C37.4453 76.4671 38.2102 80.319 40.3133 83.4656C40.4608 83.6854 40.5148 83.9547 40.4636 84.2143C40.4123 84.4739 40.26 84.7025 40.04 84.85C39.8741 84.9608 39.6795 85.021 39.48 85.0231Z" fill="white"/>
<path d="M43.72 82.1943C43.5565 82.1952 43.3954 82.1555 43.2511 82.0788C43.1068 82.0021 42.9839 81.8909 42.8933 81.755C42.0765 80.5339 41.5089 79.164 41.223 77.7237C40.937 76.2833 40.9384 74.8008 41.2269 73.361C41.5155 71.9212 42.0856 70.5523 42.9046 69.3327C43.7236 68.113 44.7755 67.0666 46 66.2533C46.2202 66.1168 46.4848 66.0709 46.7381 66.1254C46.9915 66.1799 47.2138 66.3304 47.3581 66.5453C47.5025 66.7602 47.5577 67.0227 47.512 67.2773C47.4663 67.532 47.3234 67.7591 47.1133 67.9106C46.109 68.58 45.2466 69.4404 44.5753 70.4426C43.9041 71.4449 43.4372 72.5693 43.2013 73.7517C42.9655 74.9341 42.9652 76.1514 43.2006 77.3339C43.436 78.5164 43.9025 79.641 44.5733 80.6435C44.7191 80.8638 44.7721 81.1326 44.7209 81.3916C44.6698 81.6507 44.5186 81.8793 44.3 82.0279C44.1281 82.1409 43.9258 82.1989 43.72 82.1943Z" fill="white"/>
<path d="M92.8999 101.896C92.6763 101.895 92.4594 101.82 92.2837 101.682C92.108 101.544 91.9838 101.351 91.9308 101.134C91.8778 100.917 91.8992 100.689 91.9915 100.485C92.0838 100.282 92.2417 100.116 92.4399 100.012C97.0075 97.6562 100.451 93.5857 102.014 88.6956C103.576 83.8056 103.13 78.4961 100.773 73.9343C100.702 73.8172 100.655 73.6866 100.636 73.5507C100.617 73.4148 100.627 73.2764 100.664 73.1443C100.701 73.0122 100.765 72.8891 100.852 72.7828C100.939 72.6765 101.047 72.5892 101.169 72.5263C101.291 72.4635 101.425 72.4265 101.562 72.4176C101.699 72.4087 101.837 72.4282 101.966 72.4747C102.095 72.5213 102.214 72.594 102.313 72.6882C102.413 72.7824 102.493 72.8962 102.547 73.0225C103.834 75.5152 104.617 78.2368 104.851 81.0317C105.084 83.8266 104.764 86.6401 103.909 89.3115C103.053 91.9829 101.679 94.4598 99.8643 96.6008C98.0498 98.7418 95.8305 100.505 93.3333 101.789C93.1981 101.855 93.0503 101.892 92.8999 101.896Z" fill="white"/>
<path d="M90.56 97.3765C90.3364 97.376 90.1194 97.3007 89.9437 97.1626C89.768 97.0245 89.6438 96.8316 89.5908 96.6147C89.5379 96.3978 89.5592 96.1694 89.6515 95.9661C89.7438 95.7627 89.9017 95.5961 90.1 95.4929C91.7682 94.6342 93.2506 93.4556 94.4622 92.0245C95.6739 90.5934 96.591 88.9378 97.1613 87.1525C97.7316 85.3672 97.9437 83.4872 97.7856 81.62C97.6275 79.7527 97.1023 77.9349 96.24 76.2705C96.118 76.0349 96.0948 75.7605 96.1754 75.5077C96.256 75.2549 96.4339 75.0445 96.67 74.9227C96.906 74.8009 97.1809 74.7777 97.434 74.8582C97.6872 74.9387 97.898 75.1164 98.02 75.352C99.0026 77.2494 99.601 79.3215 99.7809 81.4499C99.9609 83.5783 99.7189 85.7213 99.0688 87.7562C98.4187 89.7912 97.3732 91.6783 95.9921 93.3096C94.6111 94.9409 92.9215 96.2844 91.02 97.2634C90.8785 97.3389 90.7204 97.3778 90.56 97.3765Z" fill="white"/>
<path d="M88.22 92.8571C87.9972 92.8535 87.7819 92.7761 87.6078 92.6372C87.4338 92.4983 87.3108 92.3057 87.2582 92.0895C87.2056 91.8733 87.2263 91.6458 87.3171 91.4426C87.4079 91.2394 87.5637 91.0721 87.76 90.9668C88.8334 90.4153 89.7872 89.6579 90.567 88.738C91.3468 87.818 91.9372 86.7535 92.3044 85.6054C92.6716 84.4573 92.8084 83.2482 92.707 82.0473C92.6056 80.8464 92.2679 79.6772 91.7133 78.6067C91.5913 78.3711 91.5681 78.0967 91.6487 77.8439C91.7294 77.5911 91.9073 77.3807 92.1433 77.2589C92.3794 77.1371 92.6542 77.1139 92.9074 77.1944C93.1606 77.2749 93.3713 77.4525 93.4933 77.6882C94.8501 80.3243 95.1039 83.3901 94.199 86.2128C93.2941 89.0355 91.3044 91.3844 88.6667 92.744C88.5284 92.8152 88.3756 92.8539 88.22 92.8571Z" fill="white"/>
<path d="M151.853 180.722C146.92 169.101 144.927 155.43 150.573 155.996C156.367 156.555 155.687 177.161 156.627 179.424C154.82 180.975 151.853 180.722 151.853 180.722Z" fill="#0065BD"/>
<path d="M153.453 158.671C152.24 163.104 150.953 169.953 149.973 175.757C150.533 177.421 151.167 179.085 151.853 180.722C151.853 180.722 154.813 180.975 156.633 179.424C155.887 177.641 156.153 164.435 153.453 158.671Z" fill="#263238"/>
<path d="M153.48 178.592C151.933 153.899 156.147 131.009 167.24 132.041C176.76 132.933 162.88 174.506 163.147 179.298C158.787 180.989 153.48 178.592 153.48 178.592Z" fill="#0065BD"/>
<path d="M160.667 178.433C162.407 160.681 171.787 139.968 175.813 146.89C180.927 155.676 167.813 176.602 167.46 180.043C164.18 180.749 160.667 178.433 160.667 178.433Z" fill="#0065BD"/>
<path d="M158.913 138.637C157.787 138.45 157.16 137.751 157.233 136.76C157.313 135.641 158.233 134.53 159.087 134.517C159.5 134.517 160.193 134.73 160.367 136.267L159.7 136.347C159.62 135.615 159.4 135.182 159.107 135.182C158.653 135.182 157.96 136.008 157.907 136.806C157.86 137.472 158.233 137.845 159.027 137.978L158.913 138.637Z" fill="#0065BD"/>
<path d="M170.887 143.103C170.402 143.064 169.939 142.886 169.553 142.59L169.913 142.038C170.533 142.437 171.013 142.544 171.2 142.318C171.48 141.958 171.287 140.906 170.707 140.354C170.24 139.908 169.693 139.941 169.087 140.474L168.653 139.968C168.809 139.793 168.999 139.65 169.212 139.55C169.424 139.45 169.655 139.394 169.89 139.385C170.125 139.377 170.359 139.415 170.579 139.5C170.798 139.584 170.998 139.711 171.167 139.875C171.98 140.647 172.253 142.058 171.72 142.73C171.621 142.855 171.494 142.954 171.349 143.019C171.204 143.084 171.045 143.112 170.887 143.103Z" fill="#0065BD"/>
<path d="M154.547 153.153C154.143 153.182 153.743 153.063 153.421 152.818C153.099 152.573 152.879 152.219 152.8 151.822C152.533 150.737 153.067 149.4 153.88 149.12C154.26 148.993 154.993 148.98 155.633 150.398L155.02 150.677C154.72 150.012 154.353 149.652 154.093 149.752C153.667 149.899 153.26 150.89 153.427 151.663C153.58 152.328 154.093 152.554 154.853 152.435L154.953 153.1C154.82 153.13 154.684 153.147 154.547 153.153Z" fill="#0065BD"/>
<path d="M147.447 166.938C147.122 166.945 146.802 166.855 146.53 166.678C146.257 166.501 146.045 166.246 145.92 165.946C145.453 164.928 145.727 163.51 146.467 163.084C146.82 162.884 147.54 162.738 148.433 164.016L147.887 164.395C147.46 163.79 147.053 163.517 146.8 163.663C146.407 163.889 146.193 164.941 146.527 165.66C146.8 166.252 147.32 166.412 148.073 166.146L148.293 166.778C148.023 166.88 147.736 166.934 147.447 166.938Z" fill="#0065BD"/>
<path d="M159.26 146.844C159.191 146.843 159.124 146.822 159.067 146.784C158.653 146.555 158.335 146.184 158.174 145.74C158.012 145.296 158.016 144.809 158.187 144.368C158.38 143.925 158.71 143.557 159.129 143.317C159.548 143.078 160.034 142.979 160.513 143.036C160.927 143.11 161.893 143.476 161.96 145.246C161.96 145.334 161.925 145.419 161.862 145.482C161.8 145.544 161.715 145.579 161.627 145.579C161.538 145.579 161.454 145.544 161.391 145.482C161.329 145.419 161.293 145.334 161.293 145.246C161.253 144.321 160.94 143.762 160.393 143.662C160.062 143.636 159.73 143.713 159.444 143.884C159.159 144.054 158.934 144.309 158.8 144.614C158.56 145.18 158.8 145.752 159.467 146.225C159.525 146.265 159.569 146.324 159.592 146.391C159.614 146.458 159.615 146.531 159.594 146.599C159.572 146.666 159.529 146.725 159.472 146.767C159.414 146.809 159.345 146.831 159.273 146.83L159.26 146.844Z" fill="white"/>
<path d="M167.16 164.808C167.084 164.809 167.009 164.783 166.951 164.734C166.892 164.685 166.853 164.617 166.84 164.542C166.83 164.499 166.829 164.455 166.837 164.412C166.844 164.37 166.86 164.329 166.884 164.292C166.907 164.255 166.938 164.224 166.974 164.199C167.01 164.175 167.051 164.158 167.093 164.149C168 163.963 168.5 163.557 168.513 163.004C168.483 162.673 168.351 162.36 168.135 162.107C167.919 161.854 167.629 161.675 167.307 161.593C166.707 161.447 166.173 161.773 165.82 162.505C165.801 162.544 165.774 162.579 165.741 162.608C165.708 162.637 165.67 162.66 165.628 162.674C165.587 162.688 165.543 162.694 165.499 162.691C165.456 162.689 165.413 162.677 165.373 162.658C165.334 162.639 165.299 162.612 165.27 162.579C165.241 162.546 165.218 162.508 165.204 162.467C165.19 162.425 165.184 162.382 165.187 162.338C165.189 162.294 165.201 162.251 165.22 162.212C165.383 161.771 165.698 161.401 166.108 161.168C166.517 160.936 166.996 160.855 167.46 160.941C167.931 161.057 168.352 161.32 168.661 161.693C168.971 162.066 169.153 162.528 169.18 163.011C169.18 163.43 168.967 164.442 167.233 164.801L167.16 164.808Z" fill="white"/>
<path d="M176.533 159.197C176.147 159.197 175.633 158.971 175.06 158.112L175.613 157.739C176.027 158.352 176.42 158.631 176.68 158.492C177.08 158.279 177.347 157.227 176.993 156.495C176.74 155.902 176.22 155.729 175.46 155.976L175.253 155.343C176.333 154.99 177.213 155.343 177.607 156.235C178.053 157.26 177.753 158.671 177 159.077C176.858 159.158 176.697 159.199 176.533 159.197Z" fill="#0065BD"/>
<path d="M174.547 184.949C174.551 181.397 173.276 177.962 170.953 175.271C171.181 175.238 171.39 175.124 171.542 174.951C171.693 174.778 171.778 174.556 171.78 174.326C171.778 174.066 171.674 173.817 171.489 173.634C171.304 173.45 171.054 173.347 170.793 173.347H148.473C148.23 173.351 147.997 173.445 147.82 173.611C147.643 173.777 147.535 174.004 147.516 174.246C147.498 174.488 147.571 174.728 147.721 174.919C147.871 175.11 148.087 175.238 148.327 175.278C146.867 176.97 145.808 178.97 145.229 181.128C144.651 183.285 144.567 185.546 144.984 187.74C145.401 189.935 146.308 192.007 147.638 193.803C148.969 195.599 150.687 197.073 152.667 198.114C152.451 198.225 152.279 198.405 152.179 198.626C152.078 198.846 152.055 199.094 152.113 199.329C152.17 199.565 152.306 199.774 152.497 199.923C152.688 200.072 152.924 200.152 153.167 200.151H166.093C166.379 200.149 166.653 200.035 166.855 199.833C167.057 199.631 167.172 199.358 167.173 199.073C167.172 198.875 167.118 198.682 167.016 198.514C166.914 198.345 166.768 198.207 166.593 198.114C168.994 196.85 171.003 194.956 172.405 192.636C173.806 190.316 174.547 187.658 174.547 184.949Z" fill="#263238"/>
</g>
<defs>
<clipPath id="clip0_12479_9662">
<rect width="194" height="207" fill="white"/>
</clipPath>
</defs>
</svg>
