<svg width="32" height="32" viewBox="0 0 32 32" fill="none" xmlns="http://www.w3.org/2000/svg">
<path d="M7.99999 14.6L6.66666 15.3333C6.35555 15.5111 6.02222 15.5556 5.66666 15.4667C5.31111 15.3778 5.04444 15.1778 4.86666 14.8667L2.19999 10.2C2.02222 9.88889 1.97777 9.55556 2.06666 9.2C2.15555 8.84444 2.35555 8.57778 2.66666 8.4L10.3333 4H12.6667C12.8667 4 13.0278 4.06111 13.15 4.18333C13.2722 4.30556 13.3333 4.46667 13.3333 4.66667V5.33333C13.3333 6.06667 13.5944 6.69444 14.1167 7.21667C14.6389 7.73889 15.2667 8 16 8C16.7333 8 17.3611 7.73889 17.8833 7.21667C18.4056 6.69444 18.6667 6.06667 18.6667 5.33333V4.66667C18.6667 4.46667 18.7278 4.30556 18.85 4.18333C18.9722 4.06111 19.1333 4 19.3333 4H21.6667L29.3333 8.4C29.6444 8.57778 29.8444 8.84444 29.9333 9.2C30.0222 9.55556 29.9778 9.88889 29.8 10.2L27.1333 14.8667C26.9556 15.1778 26.6944 15.3722 26.35 15.45C26.0056 15.5278 25.6667 15.4778 25.3333 15.3L24 14.6333V26.6667C24 27.0444 23.8722 27.3611 23.6167 27.6167C23.3611 27.8722 23.0444 28 22.6667 28H9.33333C8.95555 28 8.63888 27.8722 8.38333 27.6167C8.12777 27.3611 7.99999 27.0444 7.99999 26.6667V14.6ZM10.6667 10.1333V25.3333H21.3333V10.1333L25.4667 12.4L26.8667 10.0667L21.1333 6.73333C20.8 7.86667 20.1722 8.80556 19.25 9.55C18.3278 10.2944 17.2444 10.6667 16 10.6667C14.7556 10.6667 13.6722 10.2944 12.75 9.55C11.8278 8.80556 11.2 7.86667 10.8667 6.73333L5.13333 10.0667L6.53333 12.4L10.6667 10.1333Z" fill="white"/>
</svg>
