<svg width="32" height="32" viewBox="0 0 32 32" fill="none" xmlns="http://www.w3.org/2000/svg">
<path d="M9.13325 19.9997C9.82214 19.9997 10.4388 19.7997 10.9833 19.3997C11.5277 18.9997 11.911 18.4775 12.1333 17.833L12.6333 16.2997C12.9888 15.233 12.8999 14.2497 12.3666 13.3497C11.8333 12.4497 11.0666 11.9997 10.0666 11.9997H5.36659L5.99992 17.233C6.11103 18.0108 6.46103 18.6663 7.04992 19.1997C7.63881 19.733 8.33325 19.9997 9.13325 19.9997ZM22.8666 19.9997C23.6666 19.9997 24.361 19.733 24.9499 19.1997C25.5388 18.6663 25.8888 18.0108 25.9999 17.233L26.6333 11.9997H21.9666C20.9666 11.9997 20.1999 12.4552 19.6666 13.3663C19.1333 14.2775 19.0444 15.2663 19.3999 16.333L19.8666 17.833C20.0888 18.4775 20.4721 18.9997 21.0166 19.3997C21.561 19.7997 22.1777 19.9997 22.8666 19.9997ZM9.13325 22.6663C7.66659 22.6663 6.38325 22.183 5.28325 21.2163C4.18325 20.2497 3.54436 19.033 3.36659 17.5663L2.66659 11.9997H1.33325V9.33301H10.0666C11.0444 9.33301 11.9388 9.5719 12.7499 10.0497C13.561 10.5275 14.1999 11.1775 14.6666 11.9997H17.3666C17.8333 11.1775 18.4721 10.5275 19.2833 10.0497C20.0944 9.5719 20.9888 9.33301 21.9666 9.33301H30.6666V11.9997H29.3333L28.6333 17.5663C28.4555 19.033 27.8166 20.2497 26.7166 21.2163C25.6166 22.183 24.3333 22.6663 22.8666 22.6663C21.5999 22.6663 20.461 22.3052 19.4499 21.583C18.4388 20.8608 17.7333 19.8997 17.3333 18.6997L16.8333 17.1997C16.7888 17.0441 16.7444 16.883 16.6999 16.7163C16.6555 16.5497 16.611 16.3108 16.5666 15.9997H15.4333C15.3888 16.2663 15.3444 16.483 15.2999 16.6497C15.2555 16.8163 15.211 16.9775 15.1666 17.133L14.6666 18.6663C14.2666 19.8663 13.561 20.833 12.5499 21.5663C11.5388 22.2997 10.3999 22.6663 9.13325 22.6663Z" fill="white"/>
<line x1="6.30835" y1="26.3229" x2="27.3578" y2="3.38287" stroke="white" stroke-width="2"/>
</svg>
