<svg width="24" height="25" viewBox="0 0 24 25" fill="none" xmlns="http://www.w3.org/2000/svg">
<path d="M4.81598 17.4363C6.46198 19.6223 9.06898 21.0483 12 21.0483C16.95 21.0483 21 16.9983 21 12.0483C21 7.09834 16.95 3.04834 12 3.04834" stroke="#2261AA" stroke-width="1.5" stroke-linecap="round" stroke-linejoin="round"/>
<path d="M4.816 17.4363C3.682 15.9303 3 14.0673 3 12.0483C3 7.09834 7.05 3.04834 12 3.04834" stroke="#2261AA" stroke-width="1.5" stroke-linecap="round" stroke-linejoin="round"/>
<path d="M11.75 7.04834V8.29834" stroke="#2261AA" stroke-width="1.5" stroke-linecap="round" stroke-linejoin="round"/>
<path d="M11.75 17.0483V15.7983" stroke="#2261AA" stroke-width="1.5" stroke-linecap="round" stroke-linejoin="round"/>
<path d="M14.237 10.0483C14.172 9.07234 13.367 8.29834 12.375 8.29834H11.005C10.035 8.29834 9.25 9.08434 9.25 10.0533C9.25 10.8583 9.798 11.5603 10.578 11.7563L12.921 12.3443C13.702 12.5403 14.249 13.2423 14.249 14.0473C14.249 15.0173 13.463 15.8023 12.494 15.8023H11.124C10.13 15.8023 9.325 15.0263 9.261 14.0483" stroke="#2261AA" stroke-width="1.5" stroke-linecap="round" stroke-linejoin="round"/>
</svg>
