<svg width="19" height="19" viewBox="0 0 19 19" fill="none" xmlns="http://www.w3.org/2000/svg">
<g clip-path="url(#clip0_4881_15142)">
<path d="M15.8633 4.80946H7.17969V4.4579H6.25023C6.43213 4.26106 6.59177 4.04049 6.72346 3.79868L5.79724 3.29422C5.40634 4.01201 4.65635 4.4579 3.83995 4.4579C3.02257 4.4579 2.27212 4.0112 1.8815 3.29211L0.954746 3.79555C1.08676 4.03859 1.247 4.26021 1.42967 4.4579H0.5V4.98524C0.5 5.4505 0.878527 5.82899 1.34375 5.82899H1.73462L2.1965 8.36942C2.30295 8.95484 2.81212 9.37977 3.40714 9.37977H3.81488C4.39591 10.1281 5.12217 10.7603 5.94539 11.232L6.38523 15.7079H7.98898L8.7833 12.1509C9.03991 12.1784 9.29743 12.1923 9.55323 12.1923H14.2746L14.5172 12.9584L14.1768 15.7079H15.8549L17.4453 11.004V12.7196H18.5V7.44618C18.5 5.99229 17.3172 4.80946 15.8633 4.80946ZM4.44555 8.18073C4.43033 8.26437 4.35759 8.32508 4.27258 8.32508H3.40711C3.3221 8.32508 3.24936 8.26437 3.23414 8.18077L2.74909 5.51258H4.93064L4.44555 8.18073ZM17.4453 7.71101L15.5272 13.3843L15.5922 12.8595L14.3621 8.97452L13.3566 9.2929L13.9407 11.1376H9.55323C9.19214 11.1376 8.82669 11.1052 8.46707 11.0413L7.97011 10.953L7.28097 14.039L6.93982 10.5673L6.68648 10.4354C6.053 10.1055 5.4803 9.6664 4.99655 9.14412C5.245 8.96324 5.42476 8.6906 5.48315 8.36945L5.93867 5.86415H6.09723C6.17021 6.8179 6.83083 7.60983 7.71691 7.87691C8.01802 7.96768 8.26897 8.18189 8.3847 8.47432C8.62693 9.08636 9.22466 9.5204 9.92188 9.5204C10.6125 9.5204 11.2055 9.09455 11.4521 8.49165C11.5753 8.1904 11.8332 7.96846 12.146 7.87874C13.0652 7.61517 13.7657 6.82915 13.9044 5.86415H15.8633C16.737 5.86415 17.4453 6.57244 17.4453 7.44618V7.71101Z" fill="#263357"/>
<path d="M15.3008 8.2196C15.6891 8.2196 16.0039 7.9048 16.0039 7.51648C16.0039 7.12815 15.6891 6.81335 15.3008 6.81335C14.9125 6.81335 14.5977 7.12815 14.5977 7.51648C14.5977 7.9048 14.9125 8.2196 15.3008 8.2196Z" fill="#263357"/>
</g>
<defs>
<clipPath id="clip0_4881_15142">
<rect width="18" height="18" fill="white" transform="translate(0.5 0.5)"/>
</clipPath>
</defs>
</svg>
