<svg width="18" height="18" viewBox="0 0 18 18" fill="none" xmlns="http://www.w3.org/2000/svg">
<path d="M12.8729 1.56348C12.8078 3.52182 11.5904 3.59852 11.5791 5.5405C11.6025 7.57507 12.9009 7.58525 12.8785 9.72C12.8844 10.0868 12.8371 10.4525 12.7379 10.8057C12.9846 11.8041 12.9632 12.85 12.676 13.8376C15.0639 13.3904 16.8752 10.7888 16.8752 7.67806C16.8752 4.64328 15.1483 2.11195 12.8729 1.56348Z" fill="#0065BD"/>
<path d="M6.64029 11.1741C5.13757 10.9689 3.67912 9.51892 3.47607 8.01001C3.36979 7.35986 3.06643 6.75802 2.60699 6.28589C2.51418 6.36464 2.42135 6.44339 2.33416 6.53058C0.413156 8.4516 0.826619 11.9898 3.25389 14.4199C5.39989 16.5631 8.40655 17.1341 10.4063 15.9134C9.86919 15.3709 9.51347 14.6752 9.38809 13.9221C9.26221 13.2397 8.93211 12.6116 8.44144 12.1209C7.95078 11.6302 7.32269 11.3 6.64029 11.1741Z" fill="#0065BD"/>
<path d="M5.44208 5.32109C4.60685 5.30923 3.78483 5.53031 3.06824 5.95955C4.40655 7.38614 3.599 8.30423 4.96394 9.68345C6.41919 11.1093 7.34753 10.1933 8.84251 11.7197C9.42085 12.2745 9.80375 13.0018 9.93379 13.7926C10.044 14.4742 10.3704 15.1023 10.8648 15.5842C10.9604 15.5055 11.0532 15.4267 11.1432 15.3395C14.5562 11.7473 10.2421 5.23852 5.44208 5.32109Z" fill="#0065BD"/>
<path d="M12.3104 9.51759C12.2825 8.89211 12.0734 8.28822 11.7086 7.77942C11.2596 7.11963 11.0195 6.34005 11.0195 5.54201C11.0195 4.74397 11.2596 3.96438 11.7086 3.3046C12.0936 2.76989 12.3047 2.12963 12.3133 1.47077C10.1875 1.2783 8.32227 2.74354 7.46716 5.09903C8.65765 5.4927 9.73807 6.16254 10.6201 7.05377C11.3313 7.76322 11.9045 8.59868 12.3104 9.51759Z" fill="#0065BD"/>
</svg>
