<svg width="21" height="20" viewBox="0 0 21 20" fill="none" xmlns="http://www.w3.org/2000/svg">
<path d="M11.6387 10.9935C11.3136 9.38865 9.17088 9.10277 7.40567 8.55C6.48861 8.34102 5.59462 8.0413 4.73691 7.65527C4.65484 11.3619 6.27603 13.8531 9.54256 13.9C9.88082 13.9043 10.2038 14.0417 10.4415 14.2824C10.6792 14.523 10.8126 14.8476 10.8127 15.1859V18.3959C10.8151 18.4906 10.8543 18.5807 10.9222 18.6468C10.99 18.713 11.0809 18.75 11.1757 18.75C11.2704 18.75 11.3614 18.713 11.4292 18.6468C11.497 18.5806 11.5362 18.4906 11.5386 18.3959V15.1202C11.5387 14.7871 11.6666 14.4668 11.896 14.2252C12.1253 13.9836 12.4386 13.8392 12.7713 13.8218C14.5885 13.6967 15.5688 12.3896 15.5839 10.0737C14.6537 10.4934 12.9991 10.7519 12.083 11.2157C12.0398 11.237 11.9923 11.248 11.9442 11.2479C11.8961 11.2477 11.8487 11.2365 11.8056 11.215C11.7626 11.1934 11.7251 11.1623 11.6962 11.1238C11.6672 11.0854 11.6475 11.0408 11.6387 10.9935ZM9.83346 13.0272C8.77847 13.057 7.751 12.6881 6.95598 11.9939C6.16096 11.2998 5.65682 10.3315 5.54412 9.28211C5.53624 9.20019 5.56092 9.11846 5.61283 9.05459C5.66474 8.99072 5.7397 8.94985 5.8215 8.94082C5.90331 8.93179 5.98538 8.95531 6.04997 9.00632C6.11457 9.05732 6.15649 9.1317 6.16668 9.21336C6.26226 10.1062 6.69085 10.9302 7.36699 11.5211C8.04312 12.112 8.91713 12.4263 9.81472 12.4014C9.89684 12.4003 9.97609 12.4315 10.0354 12.4883C10.0947 12.5451 10.1293 12.623 10.1318 12.7051C10.1342 12.7871 10.1043 12.8669 10.0485 12.9272C9.99273 12.9874 9.91549 13.0233 9.83346 13.0272Z" fill="#0065BD"/>
<path d="M14.0602 3.2908C14.0997 3.56242 14.1921 4.05349 13.7849 4.0667C13.702 4.06646 13.6226 4.03343 13.564 3.97482C13.5054 3.91621 13.4723 3.83678 13.4721 3.75389C13.4254 0.877098 9.45571 0.286717 8.55075 2.9967C8.89269 3.16173 10.109 3.86489 9.63321 4.30449C9.6017 4.33066 9.56531 4.3503 9.52614 4.36227C9.48697 4.37425 9.44582 4.37832 9.40507 4.37425C9.36431 4.37018 9.32478 4.35805 9.28875 4.33856C9.25273 4.31907 9.22094 4.29262 9.19523 4.26074C7.99523 2.71601 5.41775 3.19988 4.84639 5.06475C4.82906 5.10685 4.80272 5.14464 4.7692 5.17545C4.73569 5.20626 4.69582 5.22935 4.65241 5.24308C4.17942 5.36736 3.75635 5.63467 3.44102 6.00848C3.12569 6.38229 2.9335 6.84436 2.8907 7.33153C2.84791 7.8187 2.9566 8.3072 3.20193 8.73026C3.44726 9.15332 3.81725 9.4903 4.26133 9.69514C4.12407 8.82209 4.08002 7.93692 4.12994 7.05456C4.13183 6.99431 4.15158 6.93598 4.18667 6.88697C4.22176 6.83795 4.27062 6.80046 4.32704 6.77925C4.38275 6.75692 4.44374 6.75124 4.50261 6.7629C4.56148 6.77457 4.6157 6.80307 4.65868 6.84496C5.09981 7.27671 6.3544 7.61772 7.56836 7.94617C9.56211 8.55874 11.4731 8.81199 12.1518 10.4992C12.6993 10.2942 13.2582 10.1208 13.8256 9.97985C14.6015 9.77021 15.4056 9.55434 15.6715 9.29154C15.7154 9.25014 15.7701 9.222 15.8294 9.21037C15.8886 9.19874 15.9499 9.2041 16.0062 9.22583C16.0784 9.26024 16.1372 9.31756 16.1734 9.38886C16.2097 9.46017 16.2213 9.54145 16.2065 9.62004C16.9487 9.26448 17.5349 8.6493 17.8543 7.89083C18.1737 7.13235 18.2041 6.28315 17.9398 5.50376C17.6755 4.72438 17.1348 4.06883 16.42 3.66107C15.7051 3.25331 14.8656 3.12158 14.0602 3.2908Z" fill="#0065BD"/>
</svg>
