<svg width="21" height="20" viewBox="0 0 21 20" fill="none" xmlns="http://www.w3.org/2000/svg">
<path d="M5.83335 13.6667C5.83543 14.7402 6.20654 15.7803 6.88445 16.6126C7.56237 17.4449 8.50586 18.0188 9.55669 18.2381C9.63373 18.2523 9.70342 18.2929 9.75388 18.3528C9.80434 18.4128 9.83243 18.4884 9.83335 18.5667V19.0001C9.83335 19.0885 9.86847 19.1732 9.93098 19.2358C9.9935 19.2983 10.0783 19.3334 10.1667 19.3334H10.8334C10.9218 19.3334 11.0065 19.2983 11.0691 19.2358C11.1316 19.1732 11.1667 19.0885 11.1667 19.0001V18.5691C11.1656 18.4912 11.1916 18.4153 11.2402 18.3545C11.2889 18.2937 11.3571 18.2517 11.4334 18.2357C11.6961 18.1844 11.9537 18.1094 12.203 18.0117C11.2567 17.2934 10.592 16.2221 10.1807 14.7557C9.53135 12.4351 7.97335 8.55572 4.57002 6.83905C4.52691 6.81616 4.47743 6.80818 4.42931 6.81636C4.38119 6.82454 4.33713 6.84843 4.30401 6.88429C4.27089 6.92015 4.25058 6.96596 4.24624 7.01458C4.2419 7.0632 4.25378 7.11189 4.28002 7.15305C5.31069 8.83338 5.83335 11.0181 5.83335 13.6667Z" fill="#0065BD"/>
<path d="M10.5 0.666748C8.77768 0.666748 7.24668 3.66675 6.90735 7.66675C8.77402 9.37775 9.87402 11.7034 10.5 13.5437C11.1257 11.7037 12.2267 9.37708 14.0927 7.66708C13.7533 3.66675 12.2223 0.666748 10.5 0.666748ZM8.86368 8.00008H8.50002C8.41161 8.00008 8.32682 7.96496 8.26431 7.90245C8.2018 7.83994 8.16668 7.75515 8.16668 7.66675C8.16668 7.57834 8.2018 7.49356 8.26431 7.43105C8.32682 7.36853 8.41161 7.33342 8.50002 7.33342H8.86368C8.95209 7.33342 9.03687 7.36853 9.09938 7.43105C9.1619 7.49356 9.19702 7.57834 9.19702 7.66675C9.19702 7.75515 9.1619 7.83994 9.09938 7.90245C9.03687 7.96496 8.95209 8.00008 8.86368 8.00008ZM8.86368 6.33342H8.50002C8.41161 6.33342 8.32682 6.2983 8.26431 6.23578C8.2018 6.17327 8.16668 6.08849 8.16668 6.00008C8.16668 5.91168 8.2018 5.82689 8.26431 5.76438C8.32682 5.70187 8.41161 5.66675 8.50002 5.66675H8.86368C8.95209 5.66675 9.03687 5.70187 9.09938 5.76438C9.1619 5.82689 9.19702 5.91168 9.19702 6.00008C9.19702 6.08849 9.1619 6.17327 9.09938 6.23578C9.03687 6.2983 8.95209 6.33342 8.86368 6.33342ZM8.86368 4.66675H8.50002C8.41161 4.66675 8.32682 4.63163 8.26431 4.56912C8.2018 4.5066 8.16668 4.42182 8.16668 4.33341C8.16668 4.24501 8.2018 4.16022 8.26431 4.09771C8.32682 4.0352 8.41161 4.00008 8.50002 4.00008H8.86368C8.95209 4.00008 9.03687 4.0352 9.09938 4.09771C9.1619 4.16022 9.19702 4.24501 9.19702 4.33341C9.19702 4.42182 9.1619 4.5066 9.09938 4.56912C9.03687 4.63163 8.95209 4.66675 8.86368 4.66675ZM9.50002 3.00008H9.16668C9.07828 3.00008 8.99349 2.96496 8.93098 2.90245C8.86847 2.83994 8.83335 2.75515 8.83335 2.66675C8.83335 2.57834 8.86847 2.49356 8.93098 2.43105C8.99349 2.36853 9.07828 2.33341 9.16668 2.33341H9.50002C9.58842 2.33341 9.67321 2.36853 9.73572 2.43105C9.79823 2.49356 9.83335 2.57834 9.83335 2.66675C9.83335 2.75515 9.79823 2.83994 9.73572 2.90245C9.67321 2.96496 9.58842 3.00008 9.50002 3.00008ZM10.682 9.66675H10.318C10.2296 9.66675 10.1448 9.63163 10.0823 9.56912C10.0198 9.50661 9.98468 9.42182 9.98468 9.33342C9.98468 9.24501 10.0198 9.16022 10.0823 9.09771C10.1448 9.0352 10.2296 9.00008 10.318 9.00008H10.682C10.7704 9.00008 10.8552 9.0352 10.9177 9.09771C10.9802 9.16022 11.0153 9.24501 11.0153 9.33342C11.0153 9.42182 10.9802 9.50661 10.9177 9.56912C10.8552 9.63163 10.7704 9.66675 10.682 9.66675ZM10.682 8.00008H10.318C10.2296 8.00008 10.1448 7.96496 10.0823 7.90245C10.0198 7.83994 9.98468 7.75515 9.98468 7.66675C9.98468 7.57834 10.0198 7.49356 10.0823 7.43105C10.1448 7.36853 10.2296 7.33342 10.318 7.33342H10.682C10.7704 7.33342 10.8552 7.36853 10.9177 7.43105C10.9802 7.49356 11.0153 7.57834 11.0153 7.66675C11.0153 7.75515 10.9802 7.83994 10.9177 7.90245C10.8552 7.96496 10.7704 8.00008 10.682 8.00008ZM10.682 6.33342H10.318C10.2296 6.33342 10.1448 6.2983 10.0823 6.23578C10.0198 6.17327 9.98468 6.08849 9.98468 6.00008C9.98468 5.91168 10.0198 5.82689 10.0823 5.76438C10.1448 5.70187 10.2296 5.66675 10.318 5.66675H10.682C10.7704 5.66675 10.8552 5.70187 10.9177 5.76438C10.9802 5.82689 11.0153 5.91168 11.0153 6.00008C11.0153 6.08849 10.9802 6.17327 10.9177 6.23578C10.8552 6.2983 10.7704 6.33342 10.682 6.33342ZM10.682 4.66675H10.318C10.2296 4.66675 10.1448 4.63163 10.0823 4.56912C10.0198 4.5066 9.98468 4.42182 9.98468 4.33341C9.98468 4.24501 10.0198 4.16022 10.0823 4.09771C10.1448 4.0352 10.2296 4.00008 10.318 4.00008H10.682C10.7704 4.00008 10.8552 4.0352 10.9177 4.09771C10.9802 4.16022 11.0153 4.24501 11.0153 4.33341C11.0153 4.42182 10.9802 4.5066 10.9177 4.56912C10.8552 4.63163 10.7704 4.66675 10.682 4.66675ZM12.5 8.00008H12.1363C12.0479 8.00008 11.9632 7.96496 11.9006 7.90245C11.8381 7.83994 11.803 7.75515 11.803 7.66675C11.803 7.57834 11.8381 7.49356 11.9006 7.43105C11.9632 7.36853 12.0479 7.33342 12.1363 7.33342H12.5C12.5884 7.33342 12.6732 7.36853 12.7357 7.43105C12.7982 7.49356 12.8333 7.57834 12.8333 7.66675C12.8333 7.75515 12.7982 7.83994 12.7357 7.90245C12.6732 7.96496 12.5884 8.00008 12.5 8.00008ZM12.5 6.33342H12.1363C12.0479 6.33342 11.9632 6.2983 11.9006 6.23578C11.8381 6.17327 11.803 6.08849 11.803 6.00008C11.803 5.91168 11.8381 5.82689 11.9006 5.76438C11.9632 5.70187 12.0479 5.66675 12.1363 5.66675H12.5C12.5884 5.66675 12.6732 5.70187 12.7357 5.76438C12.7982 5.82689 12.8333 5.91168 12.8333 6.00008C12.8333 6.08849 12.7982 6.17327 12.7357 6.23578C12.6732 6.2983 12.5884 6.33342 12.5 6.33342ZM12.8333 4.33341C12.8333 4.42182 12.7982 4.5066 12.7357 4.56912C12.6732 4.63163 12.5884 4.66675 12.5 4.66675H12.1363C12.0479 4.66675 11.9632 4.63163 11.9006 4.56912C11.8381 4.5066 11.803 4.42182 11.803 4.33341C11.803 4.24501 11.8381 4.16022 11.9006 4.09771C11.9632 4.0352 12.0479 4.00008 12.1363 4.00008H12.5C12.5884 4.00008 12.6732 4.0352 12.7357 4.09771C12.7982 4.16022 12.8333 4.24501 12.8333 4.33341ZM12.1667 2.66675C12.1667 2.75515 12.1316 2.83994 12.0691 2.90245C12.0065 2.96496 11.9218 3.00008 11.8333 3.00008H11.5C11.4116 3.00008 11.3268 2.96496 11.2643 2.90245C11.2018 2.83994 11.1667 2.75515 11.1667 2.66675C11.1667 2.57834 11.2018 2.49356 11.2643 2.43105C11.3268 2.36853 11.4116 2.33341 11.5 2.33341H11.8333C11.9218 2.33341 12.0065 2.36853 12.0691 2.43105C12.1316 2.49356 12.1667 2.57834 12.1667 2.66675Z" fill="#0065BD"/>
<path d="M16.4377 6.83777C13.0733 8.5311 11.513 12.3334 10.8483 14.6634C11.2613 16.0788 11.932 17.0634 12.89 17.6731C13.5837 17.2594 14.1582 16.6728 14.5573 15.9705C14.9564 15.2683 15.1663 14.4745 15.1667 13.6668C15.1667 11.0204 15.6887 8.83777 16.7207 7.1571C16.7468 7.11646 16.7589 7.0684 16.7551 7.02025C16.7514 6.97209 16.7321 6.92647 16.7 6.89032C16.668 6.85417 16.625 6.82948 16.5777 6.81999C16.5303 6.81051 16.4811 6.81675 16.4377 6.83777Z" fill="#0065BD"/>
</svg>
