<svg width="17" height="12" viewBox="0 0 17 12" fill="none" xmlns="http://www.w3.org/2000/svg">
<path fill-rule="evenodd" clip-rule="evenodd" d="M8.99243 7.46631C8.80496 7.46631 8.61749 7.46631 8.43002 7.46631C7.49266 7.37257 7.36768 7.59129 7.02399 7.59129C6.99274 7.59129 5.9929 7.5288 5.24301 6.71642C4.9618 6.43521 4.86807 6.12276 4.77433 5.84156C4.61811 5.43537 4.49313 5.02918 3.712 4.62299C3.30581 4.68548 2.7434 4.71673 2.11849 4.52926C1.93102 4.52926 1.39985 4.62299 1.0874 4.49801C1.05616 4.49801 1.05616 4.49801 1.05616 4.49801C0.993666 4.46677 0.368762 4.15432 0.524988 3.71688C0.524988 3.65439 0.524988 3.62315 0.556233 3.5919C0.556233 3.5919 0.962421 3.21696 1.18114 2.87326C1.36861 2.65455 1.4311 2.46708 1.46234 2.24836C1.52483 1.96715 1.58732 1.68595 1.96227 1.37349C2.11849 1.21727 2.61842 0.811081 3.05585 0.811081C3.21207 0.62361 3.61826 0.279913 4.43064 0.404893C4.52437 0.436139 4.58686 0.498629 4.61811 0.561119C4.64935 0.654855 4.61811 0.717345 4.55562 0.779836C4.39939 0.967307 4.24317 1.18602 4.14943 1.27976C4.6806 1.46723 6.6178 1.9984 9.1799 1.6547C10.7734 1.27976 13.5855 0.811081 14.5541 1.84217C14.929 2.21711 15.0228 2.74828 14.8353 3.43568C14.3041 5.21665 14.2104 6.52895 14.5541 7.12261C14.5541 7.12261 14.5541 7.15385 14.5853 7.15385C14.5853 7.1851 15.0228 8.05996 14.8353 8.99732L14.7415 11.4032C14.7415 11.4969 14.6478 11.6219 14.5228 11.6219H13.8354C13.8042 11.6219 13.8042 11.6219 13.7729 11.6219C13.7417 11.5907 13.7105 11.5907 13.7105 11.5907C13.4292 11.5907 13.3668 11.4344 13.3668 11.247C13.3355 11.1532 13.398 11.0595 13.4292 10.997C13.4605 10.9345 13.4917 10.872 13.4917 10.7471L13.523 9.15355C13.4605 8.93483 12.9918 7.1851 12.0232 6.62269C11.7108 6.81016 10.4922 7.46631 8.99243 7.46631ZM3.05585 2.09213C3.14958 2.09213 3.24332 2.21711 3.24332 2.31085C3.24332 2.43583 3.18083 2.52957 3.05585 2.52957C2.89962 2.52957 2.83713 2.46708 2.83713 2.31085C2.83713 2.21711 2.89962 2.09213 3.05585 2.09213Z" fill="white"/>
<path fill-rule="evenodd" clip-rule="evenodd" d="M11.6171 7.74742C10.7734 7.74742 10.2735 7.24749 10.2423 7.21625C10.1485 7.12251 10.1798 6.96629 10.2735 6.9038C10.3672 6.81006 10.4922 6.81006 10.586 6.9038C10.6172 6.93504 11.3983 7.71617 12.8044 6.96629C12.8981 6.9038 13.0231 6.96629 13.0856 7.06002C13.1481 7.185 13.1168 7.30999 13.0231 7.37248C12.4607 7.65368 12.0232 7.74742 11.6171 7.74742Z" fill="white"/>
<path fill-rule="evenodd" clip-rule="evenodd" d="M12.6794 11.5907H11.9607C11.9295 11.5907 11.8983 11.5907 11.8358 11.5594C11.5233 11.3719 11.6483 11.0595 11.742 10.872C11.8045 10.7783 11.867 10.6533 11.867 10.5283L11.8358 9.27852C11.742 8.52864 10.9297 7.59128 10.9297 7.59128C11.0859 7.52879 11.2734 7.4663 11.4296 7.40381H12.2732C12.6169 7.87249 12.8981 8.55988 13.0543 9.0598C13.0543 9.12229 13.0231 9.18478 13.0231 9.21603L12.8981 11.4032C12.8981 11.4969 12.8044 11.5907 12.6794 11.5907Z" fill="white"/>
<path fill-rule="evenodd" clip-rule="evenodd" d="M7.39898 11.5907C7.14901 11.5907 7.08652 11.4345 7.05528 11.3095C7.02403 11.0908 7.18026 10.9971 7.24275 10.9346C7.30524 10.9033 7.33649 10.8721 7.33649 10.6846L7.30524 9.93474C7.27399 9.77851 7.08652 8.93489 6.9303 7.99754H6.96154H6.99279H7.02403H7.05528C7.14901 7.99754 7.24275 7.99754 7.30524 7.96629C7.46147 7.96629 7.58645 7.9038 7.71143 7.9038C7.93014 7.84131 8.14886 7.87256 8.39882 7.87256H8.43007H8.46131V7.9038H8.49256H8.5238H8.55505H8.58629H8.61754C8.49256 8.90365 8.33633 10.3097 8.36758 11.3408C8.36758 11.4033 8.33633 11.4345 8.30509 11.497C8.27384 11.5595 8.21135 11.5595 8.11761 11.5595H7.49271C7.49271 11.5595 7.46147 11.5595 7.43022 11.5595C7.43022 11.5907 7.39898 11.5907 7.39898 11.5907Z" fill="white"/>
<path fill-rule="evenodd" clip-rule="evenodd" d="M6.68026 11.5907H6.02411C5.96162 11.5907 5.89913 11.5907 5.86788 11.5282C5.61792 11.3095 5.7429 11.0907 5.80539 10.997C5.83664 10.9033 5.86788 10.872 5.86788 10.747V10.5908C5.83664 10.1846 5.83664 9.87218 5.71166 9.466C5.58668 8.96607 5.49294 8.05996 5.43045 7.43506C5.68041 7.59128 5.96162 7.74751 6.27407 7.84125C6.46154 7.93498 6.80524 7.99747 7.02395 7.99747H7.0552C7.0552 8.62238 6.93022 9.37226 6.89897 9.52849L6.83648 11.372C6.86773 11.4969 6.77399 11.5907 6.68026 11.5907Z" fill="white"/>
<path fill-rule="evenodd" clip-rule="evenodd" d="M15.8351 8.30983H15.8039C15.6789 8.27859 15.5852 8.15361 15.6164 8.02863C15.6477 7.68493 15.4602 7.18501 15.4602 7.18501V7.15376C15.179 6.34139 15.3977 5.3103 15.5852 4.74788C15.8039 3.96675 15.8039 3.43558 15.6164 3.12313C15.4914 2.90442 14.8353 2.62321 14.4604 2.52947C14.3666 2.49823 14.2729 2.40449 14.3041 2.27951C14.3354 2.15453 14.4604 2.09204 14.5541 2.09204C15.054 2.21702 15.8039 2.56072 15.9914 2.87317C16.3663 3.46683 16.1788 4.31045 15.9914 4.87286C15.8664 5.27905 15.6164 6.2789 15.8664 6.99754C15.8976 7.09127 16.1476 7.65368 16.0851 8.12236C16.0539 8.2161 15.9289 8.30983 15.8351 8.30983Z" fill="white"/>
<path fill-rule="evenodd" clip-rule="evenodd" d="M15.8976 9.99723C15.8664 9.99723 15.8351 9.99723 15.8039 9.99723C15.7101 9.96598 15.6476 9.841 15.6476 9.74727C15.7101 9.52855 15.6476 9.4973 15.5539 9.37232C15.4602 9.27859 15.3352 9.15361 15.2727 8.8724C15.179 8.15376 15.7101 7.87255 15.7414 7.87255C15.8039 7.84131 15.8664 7.84131 15.9289 7.87255C16.2101 7.99754 16.3663 8.21625 16.46 8.46621C16.6475 9.09112 16.1163 9.841 16.0851 9.90349C16.0226 9.96598 15.9601 9.99723 15.8976 9.99723Z" fill="white"/>
<path fill-rule="evenodd" clip-rule="evenodd" d="M15.304 11.5908H4.77435C4.64937 11.5908 4.55563 11.497 4.55563 11.372C4.55563 11.2471 4.64937 11.1533 4.77435 11.1533H15.304C15.4602 11.1533 15.5539 11.2471 15.5539 11.372C15.5539 11.497 15.4602 11.5908 15.304 11.5908Z" fill="white"/>
</svg>
