<svg width="22" height="14" viewBox="0 0 22 14" fill="none" xmlns="http://www.w3.org/2000/svg">
<path d="M5.38681 12.5312C5.32171 11.9128 5.38681 11.2943 5.517 10.6434C5.28916 10.4481 5.12642 10.1877 5.12642 9.86222V9.53673C4.99623 9.50418 4.67074 9.30889 4.37781 9.08105V9.2438C4.5731 10.4155 4.54055 11.392 4.47545 12.2708C4.4429 12.6614 4.508 13.0194 4.67074 13.3774C4.89858 13.8006 4.80094 14.1912 6.16797 13.8982C5.74484 13.5727 5.48445 13.1171 5.38681 12.5312Z" fill="#0DB5B5"/>
<path d="M20.7497 2.05055C20.7497 1.98545 20.7497 1.95291 20.7497 1.88781C20.7497 1.88781 20.7823 1.88781 20.7823 1.85526C21.238 1.62742 21.5635 1.23684 21.7262 0.716065C21.1403 0.520775 20.5544 0.61842 20.0662 0.943905L20.0011 0.84626C19.8709 0.683517 19.7082 0.61842 19.5129 0.61842C19.4153 0.61842 19.3176 0.618421 19.22 0.683517H19.1874C18.8945 0.813711 18.6015 0.911357 18.2435 1.009C18.2435 0.650969 18.1459 0.325484 17.9506 0C17.4949 0.292936 17.202 0.716066 17.1043 1.17174C16.193 1.23684 15.1514 1.20429 13.9797 1.009C13.7844 0.976453 13.5891 0.976453 13.3938 0.976453C10.3342 1.17174 7.56762 1.1392 5.32178 0.650969C4.70336 0.520775 4.05239 0.61842 3.46652 0.943905L2.62026 1.39958C2.29477 1.59487 2.06693 1.88781 2.00184 2.24584C1.87164 2.24584 1.74145 2.34349 1.7089 2.47368C1.61126 2.79917 1.44851 3.12465 1.35087 3.45013C1.09048 4.2313 0.89519 4.78462 0.699899 5.50069C0.602254 5.85872 0.504608 6.1842 0.341866 6.57479L0.309318 6.63988C0.244221 6.80262 0.276769 6.96537 0.341866 7.12811C0.504608 7.45359 0.862641 7.58379 1.18813 7.42105C1.51361 7.2583 1.6438 6.90027 1.48106 6.57479C1.35087 6.28185 1.31832 5.95637 1.35087 5.63088C1.41596 4.97991 1.61126 4.32894 1.87164 3.71052C1.93674 3.51523 2.03438 3.31994 2.13203 3.1572C2.65281 5.40304 2.75045 7.29085 1.93674 8.3324C1.87164 8.43005 1.80655 8.52769 1.774 8.62534L1.74145 8.72298C1.7089 8.82063 1.7089 8.95082 1.7089 9.08102C1.96929 10.6108 2.09948 12.0104 1.96929 13.0519C2.68535 13.5076 1.87164 14.2562 3.59671 13.8656C3.14103 13.5727 2.88064 13.117 2.783 12.5312C2.68535 11.3269 2.97829 10.09 3.53161 8.75553C4.60571 6.50969 5.58217 5.69598 7.20959 7.16066C7.56762 7.48614 7.99075 7.77908 8.47898 7.94182C9.35779 8.23476 10.204 8.16966 11.7664 7.84417C12.0268 8.36495 12.0593 9.08102 12.0593 9.86218C12.0593 10.1226 12.0593 10.3504 12.0919 10.6108C12.222 11.4571 12.0919 12.2382 11.864 13.0194L12.1244 12.9543C12.3522 13.768 13.1009 14.0284 13.7844 13.7354C13.4589 13.3774 13.2636 12.9868 13.1334 12.4335C13.0683 11.4896 13.231 10.8712 13.4914 10.383C13.3938 11.2292 13.9471 12.0429 14.0773 12.5312C14.2726 13.3449 14.6632 13.4425 15.2165 13.2147C14.5655 12.3033 14.6957 10.6433 14.9887 8.78808C15.8675 8.88572 17.0718 7.35595 18.4388 5.33794C18.6666 4.97991 19.1223 4.84972 19.5129 5.01246C20.0988 5.27285 20.6521 5.43559 20.9776 5.3054C21.2705 5.27285 21.4333 5.1752 21.5309 4.97991C21.6936 4.71952 21.6611 4.36149 21.4333 4.13365C20.8799 3.61288 20.7172 2.89681 20.7497 2.05055Z" fill="#0DB5B5"/>
<path d="M9.61822 8.78798C9.13 8.78798 8.70687 8.69033 8.28374 8.56014C7.76296 8.3974 7.27474 8.07191 6.78651 7.64878C6.36338 7.29075 6.00535 7.09546 5.74496 7.09546C5.38693 7.09546 4.9638 7.51859 4.50812 8.3323C4.99634 8.78798 5.54967 9.04836 5.81006 9.17856V9.89462C5.81006 10.0574 5.94025 10.2201 6.13554 10.2201C6.33083 10.2201 6.46102 10.0574 6.46102 9.89462V9.4064C6.59122 9.43895 6.75396 9.47149 6.9167 9.50404V10.0574C6.9167 10.2201 7.0469 10.3829 7.24219 10.3829C7.40493 10.3829 7.56767 10.2201 7.56767 10.0574V9.50404C7.73041 9.50404 7.86061 9.47149 8.02335 9.43895L8.08845 9.79698C8.121 9.95972 8.25119 10.0574 8.41393 10.0574H8.47903C8.64177 10.0248 8.77196 9.86208 8.73942 9.66679L8.64177 9.24366C8.77196 9.17856 8.90216 9.11346 9.03235 9.04837L9.09745 9.37385C9.13 9.53659 9.26019 9.63424 9.42293 9.63424H9.48803C9.65077 9.60169 9.78097 9.43895 9.74842 9.24366L9.61822 8.78798Z" fill="#0DB5B5"/>
</svg>
