<svg width="25" height="16" viewBox="0 0 25 16" fill="none" xmlns="http://www.w3.org/2000/svg">
<path d="M3.03256 6.35022L3.85566 7.02688L3.67892 7.09758C3.84556 7.19857 4.03745 7.17332 4.18389 7.12788C4.32024 7.08748 4.46668 7.11778 4.57777 7.20362C4.75451 7.34501 4.9565 7.43591 5.12819 7.49145C5.35542 7.56215 5.54226 7.71869 5.65841 7.93078C6.15328 8.80943 7.04202 9.99106 7.04202 9.99106C7.72373 10.6122 8.82457 10.1779 8.82457 10.1779L9.02655 11.3595C9.0922 11.7282 8.83971 11.5868 9.24874 12.8896C9.37498 13.2835 9.18814 13.7935 9.10735 13.9803C9.0821 14.0359 9.06695 14.0965 9.05685 14.1571C8.89526 15.0054 8.62258 15.0307 8.62258 15.0307L8.63288 15.0356C8.62985 15.0345 8.62702 15.0333 8.62399 15.0322C8.62399 15.0322 8.57698 15.3591 8.37868 15.5678C8.37868 15.5678 8.03656 15.7897 8.23966 15.8973C8.23865 15.8978 8.23799 15.8985 8.23703 15.899C8.24481 15.9043 8.25274 15.9094 8.26309 15.912C8.26476 15.9141 8.41776 16.0997 9.06377 15.9255C9.06377 15.9255 9.50688 15.7848 9.5855 15.4974C9.5855 15.4974 9.57737 15.4923 9.56334 15.4838L9.58712 15.4952V15.2831C9.58712 15.1518 9.61237 15.0206 9.68306 14.9145C9.88 14.6115 9.88 13.945 9.88 13.945C9.89515 13.3592 10.2385 11.6221 10.2385 11.6221C10.3143 10.9404 10.8748 9.77392 10.8748 9.77392C11.2081 9.77392 11.8847 9.65777 12.4352 9.55173C12.9654 9.44569 13.5158 9.44569 14.046 9.54668C15.465 9.82442 16.4547 9.70322 16.99 9.57698C17.3334 9.49619 17.6818 9.45579 18.0302 9.47094C19.8532 9.56183 20.7217 8.73368 20.7217 8.73368C20.9237 9.94561 21.6357 10.9555 21.6357 10.9555C21.9286 11.3545 21.9134 12.9098 21.9134 12.9098C21.8377 14.1924 21.4792 14.3641 21.4792 14.3641L21.4826 14.3672C21.4816 14.3666 21.4807 14.366 21.4797 14.3654C21.4797 14.3654 21.3754 14.6491 21.1595 14.8132C21.1595 14.8132 20.9246 14.9167 20.9317 15.0259C20.9308 15.0262 20.9299 15.0264 20.929 15.0267C20.93 15.0269 20.931 15.0267 20.932 15.0269C20.9343 15.0567 20.951 15.0868 20.9998 15.1153C20.9998 15.1153 21.112 15.3138 21.7423 15.2491C21.7423 15.2491 22.092 15.2718 22.2085 15.0166L22.2069 15.0143C22.3169 14.8433 22.272 14.7226 22.272 14.7226C22.2568 14.1924 22.5951 14.364 22.5951 14.364C22.5598 14.0661 22.6002 12.1876 22.6204 11.4504C22.6254 11.2686 22.6759 11.0918 22.7567 10.9302C23.2769 9.94051 22.4689 10.0718 22.6052 8.77908C22.6305 8.55689 22.7163 8.3448 22.8375 8.15796C22.9347 8.00486 23.0198 7.85271 23.0981 7.70142C23.1989 8.19771 23.3112 8.69146 23.4388 9.15124C23.6592 9.93702 23.9928 10.9212 24.4775 11.5779C24.4923 11.5976 24.5072 11.6176 24.5227 11.6373C24.5639 11.6904 24.6445 11.6337 24.6107 11.5757C24.5989 11.5556 24.5874 11.535 24.5759 11.5144C23.9942 10.4517 23.8047 8.55982 23.7399 7.3485C23.71 6.78889 23.6961 6.21949 23.7044 5.66973C23.8096 4.62444 23.5899 3.89607 23.5899 3.89607C23.4384 1.6944 21.2823 1.6742 20.5399 1.45706C17.9343 0.68951 13.8945 1.755 13.0916 1.98223C12.9957 2.00748 12.8947 2.02263 12.7937 2.01758C12.1776 1.99233 11.4808 1.90144 11.5515 1.22978C11.6474 0.260236 10.9051 0.0986452 10.9051 0.0986452C8.78422 -0.426523 8.06211 1.28027 7.85002 2.03773C7.73893 2.43161 7.4915 2.30536 6.43611 2.57805C6.03718 2.63359 5.46657 2.62854 4.8909 2.59825L4.88585 2.62854C4.87565 2.73974 4.56762 5.03225 3.03256 6.35022Z" fill="#0DB5B5"/>
<path d="M0.419005 7.34734C0.436376 7.38849 0.457585 7.42667 0.484196 7.46081C0.491014 7.46964 0.498891 7.47691 0.506213 7.4853C0.531714 7.51438 0.557821 7.5415 0.586958 7.56528C0.597663 7.57417 0.608217 7.58154 0.619175 7.58967C0.645938 7.60942 0.671692 7.6275 0.698405 7.6432C0.713251 7.65204 0.72638 7.65941 0.740721 7.66709C0.760869 7.67774 0.778846 7.68713 0.797126 7.69547C0.819143 7.70567 0.836665 7.71369 0.85444 7.72076C0.857066 7.72182 0.859086 7.72258 0.861611 7.72359C0.901604 7.73915 0.931903 7.74919 0.931903 7.74919C1.95699 7.91078 1.86105 7.27957 1.86105 7.27957C1.8863 7.27957 1.91659 7.27957 1.93679 7.26947L0.689517 6.24438C0.573374 6.62811 0.421883 6.96649 0.421883 6.96649C0.419712 6.97225 0.420621 6.97669 0.418651 6.98235C0.417641 6.98245 0.416783 6.98215 0.415773 6.9823C0.367346 7.11849 0.374113 7.23231 0.40941 7.32845C0.411885 7.33522 0.416228 7.34072 0.419005 7.34734Z" fill="#0DB5B5"/>
<path d="M3.48198 2.49724C3.0275 2.45179 2.71442 2.41139 2.71442 2.41139C2.65383 2.40129 2.59828 2.39119 2.54273 2.38615H2.54187C2.53708 2.1931 2.50168 2.00383 2.42815 1.83421C2.32433 1.5839 2.16108 1.36979 1.96333 1.20972C2.20531 1.54234 2.25293 1.83916 2.23945 2.08594C2.11507 1.8888 1.95237 1.72322 1.76346 1.60178C2.02423 1.88855 2.11124 2.18077 2.13229 2.42371C1.24445 2.6555 1.08837 3.89606 1.08837 3.89606C1.08337 3.9415 1.01767 4.28993 0.952026 4.63836L1.91652 5.43116C3.1285 4.59291 3.45168 2.69928 3.48198 2.49724ZM1.38635 4.59796C1.36615 4.39093 1.4015 4.28488 1.4318 4.23944C1.4419 4.21924 1.4621 4.20409 1.47725 4.19399C1.69943 4.0627 1.90647 4.10304 1.90647 4.10304C1.98726 4.26968 1.90647 4.40602 1.90647 4.40602C1.55299 4.65346 1.38635 4.59796 1.38635 4.59796Z" fill="#0DB5B5"/>
<path d="M10.2397 14.2943C10.2397 14.2943 9.85119 14.4626 10.08 14.5965C10.08 14.5965 10.1922 14.795 10.8225 14.7303C10.8225 14.7303 11.1722 14.753 11.2888 14.4978C11.2888 14.4978 11.269 14.4849 11.237 14.4644L11.2887 14.4954C11.7836 14.0156 11.6574 13.3087 11.5766 13.0158C11.5362 12.8744 11.516 12.7229 11.5109 12.5765C11.4958 11.9958 11.5311 10.9202 11.5614 10.2183C11.4301 10.2334 11.3139 10.2486 11.2079 10.2587C11.0312 10.6626 10.7838 11.2938 10.7383 11.6776C10.7333 11.6978 10.7282 11.7231 10.7232 11.7483C10.8393 11.9655 10.8999 12.2078 10.8949 12.4553L10.8797 13.4804C10.8191 13.8692 10.4808 14.0106 10.4808 14.0106L10.5294 14.0397C10.5124 14.0302 10.4965 14.0209 10.4792 14.0113C10.4792 14.0113 10.4555 14.1303 10.2397 14.2943Z" fill="#0DB5B5"/>
<path d="M17.9968 14.3648C17.9968 14.3648 17.7619 14.4684 17.769 14.5775C17.7681 14.5778 17.7672 14.578 17.7663 14.5783C17.7672 14.5785 17.7683 14.5783 17.7692 14.5785C17.7716 14.6083 17.7882 14.6384 17.8371 14.6669C17.8371 14.6669 17.9493 14.8655 18.5795 14.8007C18.5795 14.8007 18.9293 14.8235 19.0458 14.5682C19.0458 14.5682 19.0442 14.5661 19.0441 14.5659L19.0449 14.5661C19.0449 14.5661 19.3681 13.8794 19.5146 13.6319C19.5146 13.6319 20.4538 10.9455 20.5094 10.5971C20.5094 10.5971 20.5649 10.3143 20.5346 9.93555C20.4841 9.8093 20.4387 9.67801 20.3932 9.53662C20.0599 9.69821 19.6004 9.86485 19.0147 9.93555C19.0601 10.0365 19.1056 10.1325 19.151 10.2234C19.3075 10.5314 19.3732 10.8748 19.3227 11.2182C19.2469 11.7686 19.1005 12.5311 18.8884 12.7937C18.8884 12.7937 18.5652 13.7228 18.3178 13.9147L18.3201 13.9189C18.319 13.9182 18.318 13.9175 18.317 13.9169C18.317 13.9169 18.2127 14.2007 17.9968 14.3648Z" fill="#0DB5B5"/>
<path d="M2.8757 6.87295L2.20182 6.31915C4.01926 5.27896 4.37173 2.68327 4.38637 2.56768L3.98749 2.53955C3.98416 2.56626 3.6326 5.16085 1.86814 6.04495L0.846633 5.20549C0.827999 5.31456 0.817344 5.42358 0.820021 5.53528C0.820021 5.58578 0.817395 5.63633 0.812042 5.69218L2.38108 6.98197C2.56797 6.9237 2.54591 7.00495 2.8757 6.87295Z" fill="#0DB5B5"/>
</svg>
