<svg width="12" height="18" viewBox="0 0 12 18" fill="none" xmlns="http://www.w3.org/2000/svg">
<path d="M1.92567 4.1637L2.71995 2.92064C2.68427 2.89097 2.64693 2.86295 2.61396 2.82945L2.61448 2.83025C2.35633 2.57344 2.19595 2.21365 2.19595 1.82148V1.42654C2.19595 1.03489 2.35577 0.677285 2.61202 0.420187L2.60077 0.430664L2.61339 0.418008C2.61396 0.418008 2.61396 0.417762 2.61396 0.417762C2.86828 0.16316 3.22202 0.00414844 3.60983 0.0005625C3.61039 0.0005625 3.61422 0.0005625 3.6164 0.0005625C3.61749 0.00028125 3.61914 0 3.6208 0V0.00028125C3.62354 0 3.62491 0.0005625 3.62846 0.0005625H5.99979H8.37663C8.37772 0.0005625 8.37828 0.00028125 8.37909 0.00028125C8.77045 0.0005625 9.12887 0.159855 9.3854 0.416918L9.37468 0.405949L9.38625 0.417762C9.38625 0.417762 9.38625 0.417762 9.38677 0.418008V0.418289C9.64384 0.675352 9.80369 1.0338 9.80425 1.42654V1.82148C9.80369 2.21368 9.64387 2.57291 9.38625 2.82997L9.38649 2.82945C9.35327 2.86295 9.31593 2.89097 9.27969 2.92064L10.0743 4.1637C10.6853 5.12002 11.0103 6.23208 11.0103 7.3672V14.9959C11.0097 16.655 9.66584 17.9994 8.00587 18H3.99377C2.33432 17.9994 0.990195 16.655 0.989668 14.9959V7.3672C0.989668 6.23208 1.3143 5.12002 1.92567 4.1637ZM2.19595 14.9959C2.19595 15.4938 2.39641 15.9401 2.7227 16.2672C3.04954 16.5932 3.49613 16.7932 3.99377 16.7937H8.00587C8.50407 16.7932 8.95066 16.5932 9.27747 16.2672C9.60376 15.9401 9.80369 15.4938 9.80425 14.9959V7.3672C9.80425 6.46196 9.54554 5.57568 9.05775 4.81296L7.74329 2.75502C7.65153 2.61193 7.64548 2.43176 7.72733 2.28234C7.80893 2.13293 7.96379 2.04177 8.13381 2.04177H8.37772C8.44037 2.04121 8.49226 2.01758 8.53371 1.97694C8.57382 1.93574 8.59773 1.88381 8.59797 1.82148V1.42654C8.59773 1.36445 8.57382 1.31228 8.53371 1.27107C8.49226 1.23043 8.44033 1.20681 8.37772 1.20681H5.99979H3.62189C3.55984 1.20681 3.50763 1.23043 3.46671 1.27107C3.42579 1.31228 3.40216 1.36448 3.40216 1.42654V1.82148C3.40216 1.88381 3.42579 1.93574 3.46671 1.97694C3.50763 2.01758 3.55984 2.04121 3.62189 2.04177H3.86605C4.03606 2.04177 4.19096 2.13296 4.27281 2.28234C4.35465 2.43176 4.34864 2.61193 4.25688 2.75502L2.94186 4.81296C2.45516 5.57568 2.19591 6.46196 2.19591 7.3672V14.9959H2.19595Z" fill="white"/>
<path d="M8.50513 8.24463V14.9955C8.50513 15.1663 8.42494 15.2828 8.36011 15.3482C8.29254 15.4149 8.17666 15.4948 8.0058 15.4951H3.99483C3.82348 15.4948 3.707 15.4146 3.64246 15.3503C3.57517 15.2828 3.49498 15.1663 3.49498 14.996V7.95568C5.92009 9.30477 6.0393 6.77412 8.50513 8.24463Z" fill="white"/>
</svg>
