<svg width="21" height="20" viewBox="0 0 21 20" fill="none" xmlns="http://www.w3.org/2000/svg">
<path d="M8.92859 9.71862C8.76913 9.88653 8.6753 10.1061 8.6642 10.3374C8.65309 10.5687 8.72545 10.7963 8.86809 10.9787C9.01073 11.1612 9.21416 11.2863 9.44131 11.3312C9.66846 11.3762 9.90421 11.3381 10.1056 11.2239C10.0198 10.6955 10.0631 10.1541 10.2318 9.64606C10.0448 9.49315 9.80732 9.4158 9.56612 9.42923C9.32492 9.44266 9.09748 9.5459 8.92859 9.71862Z" fill="white"/>
<path d="M8.72346 13.7862C8.85162 13.3914 9.06025 13.0274 9.33616 12.7173C9.61207 12.4071 9.94928 12.1576 10.3265 11.9843C10.3044 11.937 10.2918 11.8896 10.2729 11.8423C8.7151 12.597 7.25895 10.4956 8.47423 9.27988C8.73316 9.01388 9.07646 8.84611 9.44541 8.80526C9.81437 8.7644 10.1861 8.853 10.4969 9.0559C10.811 8.50682 11.2766 8.05984 11.838 7.7684C11.6114 7.22324 11.5354 6.62717 11.6181 6.04259C11.7008 5.45801 11.9392 4.90641 12.3083 4.44556C11.6152 4.51371 10.9762 4.85031 10.5281 5.38339C10.0799 5.91648 9.85806 6.60374 9.91 7.29825C9.91346 7.34308 9.90733 7.38813 9.89203 7.43042C9.87673 7.4727 9.85261 7.51124 9.82126 7.54348C9.78991 7.57571 9.75206 7.60091 9.71022 7.61739C9.66838 7.63386 9.62352 7.64124 9.57861 7.63904C9.20106 7.62492 8.82481 7.69106 8.47472 7.83311C8.12462 7.97516 7.80866 8.18988 7.54769 8.46308C7.28672 8.73628 7.0867 9.06175 6.96083 9.41798C6.83496 9.77421 6.7861 10.1531 6.8175 10.5296C6.82127 10.5744 6.81549 10.6194 6.80055 10.6618C6.78561 10.7042 6.76184 10.7429 6.73081 10.7754C6.69979 10.808 6.66222 10.8335 6.62058 10.8504C6.57894 10.8673 6.53419 10.8752 6.48929 10.8735C5.67197 10.842 4.8452 11.1481 4.47916 11.6277C4.25826 11.9117 4.25826 12.2115 4.25826 12.7101C4.28033 13.3838 4.1962 14.0569 4.00898 14.7045C3.8374 15.2855 3.58794 15.8407 3.2674 16.3549C5.16333 16.3293 8.04976 16.3682 8.755 14.6445C8.66651 14.3666 8.65561 14.0698 8.72346 13.7862ZM5.45736 14.7013C5.26852 14.5187 5.1276 14.2924 5.04708 14.0424C4.96656 13.7924 4.94892 13.5264 4.99574 13.268C5.04255 13.0095 5.15236 12.7666 5.31546 12.5607C5.47855 12.3548 5.68989 12.1924 5.93077 12.0876C6.17165 11.9829 6.43463 11.9392 6.69642 11.9604C6.95822 11.9816 7.21076 12.067 7.43168 12.209C7.6526 12.3511 7.83509 12.5454 7.96298 12.7748C8.09087 13.0042 8.16023 13.2616 8.1649 13.5243C8.16841 13.8394 8.0789 14.1485 7.90757 14.413C7.73624 14.6775 7.49071 14.8856 7.20171 15.0112C6.9127 15.1369 6.59306 15.1745 6.28279 15.1193C5.97252 15.0642 5.68539 14.9188 5.45736 14.7013Z" fill="white"/>
<path d="M16.7356 3.08877L16.9123 2.72905C17.0595 2.42046 17.4403 2.31936 17.6539 2.12316C17.6932 2.04987 17.7166 1.96913 17.7226 1.88619C17.7286 1.80326 17.7171 1.71998 17.6888 1.64179C17.6605 1.5636 17.6161 1.49224 17.5584 1.43235C17.5007 1.37247 17.4311 1.3254 17.354 1.29422C17.2769 1.26303 17.1941 1.24842 17.111 1.25134C17.0279 1.25426 16.9463 1.27465 16.8716 1.31117C16.7969 1.34769 16.7308 1.39954 16.6774 1.46332C16.6241 1.52711 16.5848 1.60142 16.562 1.6814L15.4323 3.69781C15.4027 3.75164 15.3578 3.79558 15.3034 3.82419C15.249 3.85279 15.1874 3.86481 15.1262 3.85874C13.056 3.61992 11.5032 5.9514 12.5387 7.77174C12.5599 7.81105 12.5725 7.8544 12.5758 7.89894C12.5791 7.94348 12.5729 7.98822 12.5577 8.03021C12.5425 8.07221 12.5186 8.11053 12.4876 8.14265C12.4566 8.17478 12.4191 8.2 12.3777 8.21665C12.0266 8.35701 11.7094 8.57028 11.4469 8.84236C11.1844 9.11445 10.9827 9.43914 10.8551 9.79499C10.7274 10.1508 10.6767 10.5297 10.7064 10.9066C10.736 11.2835 10.8454 11.6498 11.0271 11.9813C11.0494 12.0208 11.0628 12.0647 11.0666 12.1099C11.0704 12.1551 11.0645 12.2005 11.0492 12.2432C11.035 12.2857 11.0114 12.3245 10.9803 12.3567C10.9492 12.3889 10.9113 12.4137 10.8693 12.4294C9.92907 12.8448 9.07851 13.6107 9.38294 14.5405C9.67851 15.3212 10.0044 15.7875 10.1593 16.9388C10.2387 17.54 10.2376 18.1492 10.1561 18.7501C11.5347 18.1822 13.9732 16.8986 14.3184 15.7839C14.4463 15.4299 14.4978 15.0529 14.4695 14.6776C14.4412 14.3023 14.3338 13.9373 14.1543 13.6065C14.1329 13.5672 14.1198 13.5239 14.116 13.4794C14.1122 13.4349 14.1177 13.39 14.1322 13.3477C14.1475 13.3053 14.1718 13.2668 14.2034 13.2347C14.235 13.2025 14.2731 13.1776 14.3152 13.1615C14.6661 13.0242 14.9837 12.8137 15.2469 12.5442C15.5101 12.2746 15.713 11.9521 15.8419 11.5981C15.9709 11.244 16.023 10.8666 15.9948 10.4909C15.9666 10.1152 15.8588 9.74976 15.6785 9.41894C15.6569 9.37971 15.6439 9.33633 15.6404 9.29168C15.6369 9.24703 15.6429 9.20215 15.6582 9.16003C15.6734 9.11792 15.6975 9.07954 15.7287 9.04746C15.76 9.01538 15.7977 8.99034 15.8394 8.97401C17.7683 8.27276 18.1143 5.5067 16.4231 4.34784C16.3638 4.30571 16.3208 4.24446 16.3012 4.17437C16.2817 4.10428 16.2869 4.02961 16.3159 3.96289C16.4453 3.67257 16.5873 3.38856 16.7356 3.08877ZM16.2938 5.04842C16.6725 5.52716 16.8521 6.1335 16.795 6.74127C16.738 7.34903 16.4488 7.91139 15.9877 8.31134C15.9241 8.36573 15.8415 8.39263 15.758 8.38612C15.6746 8.37961 15.5971 8.34021 15.5427 8.27661C15.4883 8.213 15.4614 8.13039 15.468 8.04694C15.4745 7.9635 15.5139 7.88607 15.5775 7.83167C15.8006 7.63737 15.971 7.38989 16.0729 7.11218C16.1759 6.83422 16.205 6.5343 16.1575 6.24171C16.1099 5.94913 15.9873 5.67389 15.8015 5.44286C15.7511 5.37741 15.7283 5.29478 15.7382 5.21273C15.748 5.13067 15.7896 5.05576 15.8541 5.00408C15.9186 4.95241 16.0008 4.92811 16.083 4.9364C16.1652 4.94469 16.2409 4.98491 16.2938 5.04842Z" fill="white"/>
<path d="M5.87389 12.8804C5.76326 12.9947 5.68253 13.1344 5.63887 13.2874C5.59521 13.4403 5.58997 13.6016 5.62362 13.757C5.65727 13.9124 5.72877 14.0572 5.83177 14.1783C5.93477 14.2995 6.06608 14.3933 6.21406 14.4516C6.36204 14.5098 6.5221 14.5306 6.68005 14.5121C6.838 14.4937 6.98894 14.4365 7.11949 14.3457C7.25004 14.2549 7.35616 14.1333 7.42842 13.9916C7.50069 13.85 7.53687 13.6926 7.53375 13.5337C7.52842 13.3437 7.46737 13.1594 7.35818 13.0039C7.24899 12.8483 7.09649 12.7283 6.91964 12.6587C6.74278 12.5891 6.54936 12.573 6.36344 12.6124C6.17751 12.6518 6.00728 12.745 5.87389 12.8804Z" fill="white"/>
</svg>
