<svg width="21" height="14" viewBox="0 0 21 14" fill="none" xmlns="http://www.w3.org/2000/svg">
<path d="M0.877365 5.47631C0.956608 5.43818 1.02946 5.40855 1.08953 5.38416C1.25992 5.31563 1.43924 5.27184 1.62203 5.25414C1.41403 4.67443 1.59236 3.7954 1.76984 3.18164C1.11938 3.88515 0.931553 4.91901 0.877365 5.47631Z" fill="#0DB5B5"/>
<path d="M9.56127 7.8446C9.88892 8.67116 10.0477 9.2697 10.0329 9.62463C10.0232 9.86038 10.0634 10.1003 10.1023 10.3323C10.1909 10.8612 10.2826 11.4082 9.83343 11.9645C9.63292 12.2105 9.44686 12.468 9.27617 12.7356L10.5336 12.5461C10.5622 12.542 10.5894 12.5312 10.613 12.5144C10.6366 12.4976 10.6558 12.4755 10.669 12.4498C10.6822 12.4247 10.6893 12.3968 10.6895 12.3684C10.6897 12.34 10.6832 12.312 10.6704 12.2866L10.6279 12.2013C10.5229 11.9935 10.4726 11.7624 10.4817 11.5297C10.4923 11.2958 10.5534 11.0988 10.6181 10.8902C10.7265 10.5405 10.8493 10.1442 10.7466 9.43765C10.6931 9.06964 10.7932 8.62983 10.9091 8.12062C10.9317 8.02116 10.9544 7.91938 10.9767 7.81672C10.5062 7.75446 10.029 7.76386 9.56127 7.8446Z" fill="#0DB5B5"/>
<path d="M20.3042 3.00319C20.0251 2.30114 19.6399 2.09314 19.6362 2.09125C19.6333 2.08978 19.6304 2.08822 19.6275 2.08662C19.0504 1.76389 18.648 1.40085 18.2932 1.08052C17.6648 0.513291 17.2109 0.103457 16.1381 0.231338C13.7855 0.512197 10.9254 0.11031 10.8967 0.106232C10.8911 0.105433 10.8856 0.104424 10.8801 0.103205C9.9441 -0.108374 9.2017 0.00361601 8.54376 0.455319C7.94841 0.86406 7.49902 1.49157 7.02327 2.1559C6.32909 3.12523 5.61204 4.12545 4.3801 4.4768C4.40188 4.66537 4.39359 4.85621 4.35555 5.04218C4.19816 5.79643 3.54232 6.39456 2.40631 6.81986C2.38041 6.82976 2.35281 6.83444 2.3251 6.83362C2.29739 6.83281 2.27011 6.82653 2.24484 6.81513C2.21956 6.80373 2.1968 6.78744 2.17785 6.7672C2.15889 6.74697 2.14413 6.72318 2.13441 6.69722C2.12469 6.67125 2.1202 6.64362 2.12121 6.61592C2.12221 6.58821 2.12869 6.56098 2.14026 6.53578C2.15183 6.51059 2.16827 6.48793 2.18864 6.46912C2.20901 6.45031 2.23289 6.43571 2.25892 6.42617C3.25103 6.05472 3.818 5.56018 3.94404 4.95634C4.0609 4.3963 3.78362 3.83345 3.52151 3.45094C3.52807 4.30533 3.35003 4.92388 2.98997 5.29407C2.85855 5.42769 2.69916 5.53054 2.52326 5.59523C2.34736 5.65992 2.15932 5.68484 1.97264 5.66822C1.72617 5.64731 1.4782 5.68343 1.24794 5.77378C0.760546 5.97173 0.296441 6.24881 0.436598 7.24996C0.728765 9.33506 0.594494 9.84907 0.486623 10.2622C0.460646 10.3535 0.440594 10.4464 0.426593 10.5403C0.41105 10.6549 0.415087 10.7713 0.438532 10.8845C0.484774 11.1059 0.602482 11.4967 0.8693 11.6257C1.03035 11.7037 1.24285 11.6781 1.50076 11.5494C1.71986 11.4401 1.84363 11.3055 1.87911 11.1376C1.94216 10.8392 1.70994 10.4762 1.6151 10.3614C1.58077 10.3185 1.56465 10.2638 1.5702 10.209C1.57574 10.1543 1.60251 10.104 1.64477 10.0687C1.68702 10.0335 1.74139 10.0163 1.79621 10.0207C1.85103 10.0251 1.90193 10.0509 1.938 10.0924C2.03649 10.216 2.11908 10.3514 2.18384 10.4956C2.34708 10.2744 2.56341 10.0225 2.77083 9.90784C3.35554 9.58461 3.94731 8.1711 4.00676 7.69451C4.01165 7.65425 4.02508 7.61548 4.04613 7.58081C4.06718 7.54614 4.09538 7.51635 4.12885 7.49343C4.16232 7.47051 4.20029 7.45499 4.24022 7.44789C4.28016 7.4408 4.32116 7.4423 4.36047 7.45229C4.50161 7.48986 4.65011 7.48993 4.79128 7.45249C4.93246 7.41505 5.06141 7.34139 5.16538 7.23882C5.37738 7.04002 5.6561 6.94728 5.97054 6.97107C6.33724 6.99852 6.73699 7.18631 7.10979 7.49437C7.02802 7.16247 6.94638 6.8698 6.89035 6.68391C6.88238 6.65748 6.8797 6.62974 6.88246 6.60227C6.88522 6.57481 6.89336 6.54815 6.90641 6.52384C6.91947 6.49952 6.93719 6.47801 6.95856 6.46053C6.97993 6.44306 7.00453 6.42997 7.03096 6.42201C7.05739 6.41405 7.08513 6.41137 7.1126 6.41412C7.14006 6.41688 7.16672 6.42502 7.19104 6.43808C7.21536 6.45113 7.23687 6.46885 7.25434 6.49022C7.27181 6.5116 7.2849 6.5362 7.29286 6.56263C7.29963 6.58503 7.45992 7.11888 7.60395 7.75728C7.80132 8.63353 7.86576 9.25528 7.79539 9.6052C7.7489 9.83642 7.75112 10.0797 7.75335 10.3149C7.75831 10.8511 7.7634 11.4056 7.23283 11.8855C6.99643 12.0975 6.77246 12.323 6.56207 12.5609L7.83323 12.5683H7.83432C7.86314 12.5685 7.8916 12.5618 7.91735 12.5489C7.94309 12.5359 7.9654 12.5171 7.98242 12.4938C7.99939 12.471 8.01068 12.4446 8.01536 12.4166C8.02004 12.3886 8.01797 12.3599 8.00933 12.3329L7.98061 12.242C7.90942 12.0204 7.89582 11.7842 7.9411 11.5558C7.98818 11.3265 8.07932 11.1413 8.1758 10.9453C8.33752 10.6166 8.52089 10.2441 8.52972 9.53021C8.53434 9.15838 8.70208 8.73938 8.896 8.25426C9.23231 7.41349 9.61339 6.46077 9.16925 5.5952C9.1438 5.54558 9.1391 5.48789 9.15618 5.43481C9.17326 5.38172 9.21073 5.3376 9.26035 5.31215C9.30996 5.2867 9.36766 5.282 9.42074 5.29908C9.47382 5.31616 9.51794 5.35363 9.54339 5.40325C9.8858 6.07044 9.82606 6.76109 9.64647 7.40323C10.1551 7.32844 11.1467 7.28031 12.3481 7.72075C13.3711 8.09581 14.3984 8.09375 15.4014 7.71461C15.7846 7.57032 16.1465 7.37472 16.4772 7.13317C16.1865 6.72425 15.7784 6.41335 15.3069 6.24171C15.2534 6.22588 15.2085 6.18947 15.1818 6.14049C15.1552 6.0915 15.1492 6.03394 15.165 5.98048C15.1808 5.92702 15.2172 5.88203 15.2662 5.85542C15.3152 5.8288 15.3728 5.82274 15.4262 5.83856C15.4931 5.8584 17.0679 6.34487 17.33 8.19923C17.4429 8.9985 17.618 9.28752 17.7588 9.51974C17.9448 9.82687 18.0539 10.0494 17.9571 10.7273C17.8992 11.1324 17.873 11.5278 17.8498 11.8766C17.7903 12.7715 17.7434 13.4785 17.2066 13.7213C17.0729 13.7757 16.9617 13.874 16.8913 14H18.285C18.3069 13.8576 18.3186 13.7139 18.3199 13.5699L18.2863 13.4652C18.1692 13.1028 18.1862 12.8341 18.3488 12.4739C18.4212 12.3133 18.5038 12.161 18.5836 12.0137C18.8022 11.6101 19.0089 11.2292 19.0089 10.6975C19.013 10.4923 19.0321 10.2876 19.066 10.0851C19.1282 9.65082 19.1987 9.15863 19.0333 8.26699C18.7902 6.95644 19.2444 6.20551 19.2638 6.17419C19.2653 6.1718 19.2669 6.1694 19.2684 6.16713C19.2762 6.15553 20.0658 4.95411 19.7452 3.22242C19.7355 3.16907 19.7468 3.11404 19.7767 3.06881C19.8066 3.02359 19.8529 2.99167 19.9058 2.97973C19.9587 2.96779 20.0141 2.97675 20.0605 3.00474C20.107 3.03274 20.1408 3.07759 20.155 3.12993C20.1722 3.19417 20.5722 4.73374 20.212 7.39491C20.2046 7.44835 20.1918 7.50089 20.1737 7.55171C20.0346 7.96992 20.0411 8.42289 20.1921 8.83695C20.2423 8.97337 20.2817 9.09961 20.3124 9.2153C20.4211 8.78983 20.4739 8.25337 20.2803 7.75337C20.2253 7.61555 20.2137 7.46424 20.2471 7.31966C20.5503 6.04871 20.8071 4.26825 20.3042 3.00319Z" fill="#0DB5B5"/>
<path d="M16.5639 11.3859C16.7263 11.0576 16.9103 10.6854 16.9206 9.97157C16.9229 9.81208 17.0579 9.30787 17.1075 9.12782C17.0161 8.84449 16.9511 8.55331 16.9134 8.258C16.8777 7.99506 16.8024 7.73902 16.6903 7.49854C16.4348 7.682 16.162 7.84026 15.876 7.97109L15.8941 8.0476C16.0997 8.91494 16.2635 9.66394 16.1861 10.0452C16.1392 10.2764 16.141 10.5196 16.1427 10.7548C16.1466 11.291 16.1507 11.8455 15.6192 12.3244C15.3824 12.536 15.158 12.761 14.9471 12.9985L16.2182 13.0083C16.2472 13.0089 16.276 13.0024 16.302 12.9895C16.328 12.9766 16.3505 12.9576 16.3675 12.9341C16.3846 12.9114 16.3959 12.8849 16.4007 12.8569C16.4054 12.8289 16.4034 12.8002 16.3948 12.7731L16.3662 12.6823C16.2955 12.4605 16.2823 12.2243 16.3281 11.9961C16.3756 11.7668 16.467 11.5817 16.5639 11.3859Z" fill="#0DB5B5"/>
</svg>
