<svg width="18" height="19" viewBox="0 0 18 19" fill="none" xmlns="http://www.w3.org/2000/svg">
<mask id="mask0_4881_15114" style="mask-type:luminance" maskUnits="userSpaceOnUse" x="1" y="2" width="16" height="15">
<path d="M1.6875 2.1875H16.3125V16.8125H1.6875V2.1875Z" fill="white"/>
<path fill-rule="evenodd" clip-rule="evenodd" d="M16.3125 2.1875H1.6875V16.8125H16.3125V2.1875ZM16.0875 16.5875H1.9125V2.4125H16.0875V16.5875Z" fill="white"/>
</mask>
<g mask="url(#mask0_4881_15114)">
<path fill-rule="evenodd" clip-rule="evenodd" d="M4.1683 9.40795C4.1683 12.0764 6.33151 14.2396 8.99998 14.2396C11.6685 14.2396 13.8317 12.0764 13.8317 9.40795C13.8317 7.19275 12.6486 5.41142 11.5131 4.20871C10.9419 3.60361 10.3718 3.13315 9.94453 2.81376C9.73056 2.65381 9.55152 2.53107 9.42483 2.44765C9.36146 2.40592 9.31111 2.37398 9.27597 2.35208C9.25839 2.34114 9.24461 2.3327 9.23489 2.3268C9.23217 2.32515 9.22978 2.3237 9.2277 2.32245C9.22606 2.32146 9.22462 2.3206 9.22338 2.31986L9.21998 2.31783L9.21848 2.31693C9.21832 2.31684 9.21818 2.31675 8.99998 2.6855C8.78179 2.31675 8.78165 2.31684 8.78149 2.31693L8.77998 2.31783L8.77658 2.31986C8.77378 2.32153 8.76994 2.32385 8.76508 2.3268C8.75536 2.3327 8.74158 2.34114 8.724 2.35208C8.68885 2.37398 8.63851 2.40592 8.57514 2.44765C8.44845 2.53107 8.2694 2.65381 8.05544 2.81376C7.62819 3.13315 7.0581 3.60361 6.48682 4.20871C5.35136 5.41142 4.1683 7.19275 4.1683 9.40795ZM8.99998 2.6855L8.78179 2.31675L8.99998 2.18764L9.21818 2.31675L8.99998 2.6855ZM8.99998 3.19416C9.11058 3.26809 9.25814 3.37056 9.43144 3.50011C9.82979 3.7979 10.3605 4.23611 10.89 4.79699C11.9562 5.92626 12.9747 7.50614 12.9747 9.40795C12.9747 11.6031 11.1952 13.3827 8.99998 13.3827C6.80478 13.3827 5.02524 11.6031 5.02524 9.40795C5.02524 7.50614 6.04379 5.92626 7.10993 4.79699C7.63946 4.23611 8.17017 3.7979 8.56852 3.50011C8.74182 3.37056 8.88939 3.26809 8.99998 3.19416Z" fill="#263357"/>
<path fill-rule="evenodd" clip-rule="evenodd" d="M4.05582 9.408C4.05582 12.1386 6.26939 14.3522 8.99999 14.3522C11.7306 14.3522 13.9442 12.1386 13.9442 9.408C13.9442 7.15164 12.7395 5.34386 11.595 4.13153C11.0182 3.52062 10.4429 3.04592 10.0119 2.7237C9.79595 2.56226 9.61505 2.43825 9.48671 2.35374C9.44148 2.32395 9.40273 2.29904 9.37122 2.2791L9.3723 2.27727L9.27769 2.2213L9.27602 2.2203L8.99999 2.05697L8.72483 2.21979L8.72252 2.22116L8.62769 2.27727L8.62877 2.2791C8.59726 2.29904 8.55851 2.32395 8.51328 2.35374C8.38494 2.43825 8.20404 2.56226 7.98809 2.7237C7.55705 3.04592 6.98179 3.52062 6.40503 4.13153C5.26048 5.34386 4.05582 7.15164 4.05582 9.408ZM8.99999 2.90647L9.25666 2.47288C9.28601 2.4915 9.32165 2.51445 9.36297 2.54165C9.48801 2.62399 9.6652 2.74545 9.87718 2.90391C10.3006 3.22046 10.8656 3.68669 11.4314 4.28599C12.5577 5.47907 13.7192 7.23396 13.7192 9.408C13.7192 12.0143 11.6063 14.1272 8.99999 14.1272C6.39365 14.1272 4.28082 12.0143 4.28082 9.408C4.28082 7.23396 5.44225 5.47907 6.56864 4.28599C7.13443 3.68669 7.69935 3.22046 8.12281 2.90391C8.33479 2.74545 8.51198 2.62399 8.63702 2.54165C8.67834 2.51445 8.71398 2.4915 8.74333 2.47288L8.99999 2.90647ZM8.93591 2.35633L8.99999 2.31841L9.06408 2.35633L8.99999 2.46463L8.93591 2.35633ZM8.99999 13.2702C6.86693 13.2702 5.13775 11.541 5.13775 9.408C5.13775 7.54731 6.13473 5.99388 7.19175 4.87427C7.71579 4.31919 8.24133 3.88521 8.63589 3.59026C8.77654 3.48512 8.89996 3.39808 9 3.32994C9.10003 3.39808 9.22345 3.48512 9.3641 3.59026C9.75866 3.88521 10.2842 4.31919 10.8082 4.87427C11.8653 5.99388 12.8622 7.54731 12.8622 9.408C12.8622 11.541 11.1331 13.2702 8.99999 13.2702ZM4.91275 9.408C4.91275 11.6653 6.74266 13.4952 8.99999 13.4952C11.2573 13.4952 13.0872 11.6653 13.0872 9.408C13.0872 7.46507 12.0471 5.85874 10.9718 4.71981C10.4368 4.15312 9.90096 3.71068 9.49881 3.41005C9.32378 3.2792 9.17459 3.1756 9.06252 3.10068L8.99999 3.05889L8.93747 3.10068C8.8254 3.1756 8.67621 3.2792 8.50118 3.41005C8.09903 3.71068 7.56315 4.15312 7.02814 4.71981C5.95288 5.85874 4.91275 7.46507 4.91275 9.408Z" fill="#263357"/>
<path fill-rule="evenodd" clip-rule="evenodd" d="M9.42847 16.8125V2.68552H8.57153V16.8125H9.42847Z" fill="#263357"/>
<path fill-rule="evenodd" clip-rule="evenodd" d="M8.45905 16.925H9.54098V2.57307H8.45905V16.925ZM8.68405 16.7V2.79807H9.31598V16.7H8.68405Z" fill="#263357"/>
<path fill-rule="evenodd" clip-rule="evenodd" d="M6.33087 4.98445L8.69701 7.35059L9.30295 6.74464L6.93682 4.37851L6.33087 4.98445Z" fill="#263357"/>
<path fill-rule="evenodd" clip-rule="evenodd" d="M8.69702 7.50964L9.46206 6.7446L6.93683 4.21937L6.17178 4.98441L8.69702 7.50964ZM6.48998 4.98441L6.93683 4.53756L9.14386 6.7446L8.69702 7.19145L6.48998 4.98441Z" fill="#263357"/>
<path fill-rule="evenodd" clip-rule="evenodd" d="M4.69162 7.58457L8.69701 11.59L9.30296 10.984L5.29756 6.97863L4.69162 7.58457Z" fill="#263357"/>
<path fill-rule="evenodd" clip-rule="evenodd" d="M8.69702 11.749L9.46207 10.984L5.29757 6.81949L4.53253 7.58453L8.69702 11.749ZM4.85073 7.58453L5.29757 7.13769L9.14387 10.984L8.69702 11.4308L4.85073 7.58453Z" fill="#263357"/>
<path fill-rule="evenodd" clip-rule="evenodd" d="M11.0631 4.37851L8.69699 6.74464L9.30293 7.35059L11.6691 4.98445L11.0631 4.37851Z" fill="#263357"/>
<path fill-rule="evenodd" clip-rule="evenodd" d="M9.30295 7.50964L11.8282 4.98441L11.0631 4.21937L8.5379 6.7446L9.30295 7.50964ZM8.8561 6.7446L11.0631 4.53756L11.51 4.98441L9.30295 7.19145L8.8561 6.7446Z" fill="#263357"/>
<path fill-rule="evenodd" clip-rule="evenodd" d="M12.7024 6.97863L8.69699 10.984L9.30293 11.59L13.3083 7.58457L12.7024 6.97863Z" fill="#263357"/>
<path fill-rule="evenodd" clip-rule="evenodd" d="M9.30295 11.749L13.4674 7.58453L12.7024 6.81949L8.5379 10.984L9.30295 11.749ZM8.8561 10.984L12.7024 7.13769L13.1492 7.58453L9.30295 11.4308L8.8561 10.984Z" fill="#263357"/>
</g>
</svg>
