<svg width="24" height="18" viewBox="0 0 24 18" fill="none" xmlns="http://www.w3.org/2000/svg">
<path d="M3.02506 17.75C2.4357 17.75 1.93685 17.5458 1.52852 17.1375C1.12018 16.7292 0.916016 16.2303 0.916016 15.641V2.35904C0.916016 1.76968 1.12018 1.27083 1.52852 0.8625C1.93685 0.454167 2.4357 0.25 3.02506 0.25H20.9736C21.563 0.25 22.0618 0.454167 22.4702 0.8625C22.8785 1.27083 23.0827 1.76968 23.0827 2.35904V15.641C23.0827 16.2303 22.8785 16.7292 22.4702 17.1375C22.0618 17.5458 21.563 17.75 20.9736 17.75H3.02506ZM11.9993 9.65071L2.66602 3.68262V15.641C2.66602 15.7458 2.69965 15.8318 2.76693 15.8991C2.83421 15.9664 2.92025 16 3.02506 16H20.9736C21.0784 16 21.1645 15.9664 21.2318 15.8991C21.299 15.8318 21.3327 15.7458 21.3327 15.641V3.68262L11.9993 9.65071ZM11.9993 7.83333L21.1533 2H2.84539L11.9993 7.83333ZM2.66602 3.68262V2V15.641C2.66602 15.7458 2.69965 15.8318 2.76693 15.8991C2.83421 15.9664 2.92025 16 3.02506 16H2.66602V3.68262Z" fill="#0065BD"/>
</svg>
