<svg width="22" height="22" viewBox="0 0 22 22" fill="none" xmlns="http://www.w3.org/2000/svg">
<path fill-rule="evenodd" clip-rule="evenodd" d="M18.4702 3.57187C17.4999 2.59523 16.3455 1.82084 15.0738 1.29354C13.8022 0.766245 12.4385 0.496535 11.0618 0.500034C5.28917 0.500034 0.589833 5.1982 0.5875 10.9732C0.5875 12.8189 1.06933 14.6202 1.98517 16.2092L0.5 21.6354L6.05217 20.1782C7.58796 21.0142 9.30857 21.4526 11.0572 21.4534H11.0618C16.8333 21.4534 21.5327 16.7552 21.535 10.9802C21.539 9.6041 21.2701 8.24086 20.7441 6.96927C20.218 5.69768 19.4452 4.54297 18.4702 3.57187ZM11.0618 19.6859H11.0583C9.4991 19.686 7.96857 19.2665 6.62733 18.4714L6.31 18.2824L3.01533 19.1469L3.89383 15.935L3.68733 15.606C2.81559 14.2182 2.35411 12.6121 2.35617 10.9732C2.3585 6.17353 6.26333 2.2687 11.0653 2.2687C12.209 2.26616 13.3417 2.49046 14.3981 2.92863C15.4545 3.36679 16.4134 4.01012 17.2195 4.82137C18.0299 5.62875 18.6722 6.58874 19.1094 7.64586C19.5465 8.70298 19.7698 9.83626 19.7663 10.9802C19.764 15.7799 15.8592 19.6859 11.0618 19.6859ZM15.837 13.1654C15.5745 13.0335 14.2888 12.4012 14.0485 12.3137C13.8093 12.2262 13.6355 12.183 13.4605 12.4444C13.2855 12.7057 12.7838 13.2949 12.631 13.4699C12.4782 13.6449 12.3253 13.6659 12.064 13.5352C11.8027 13.4045 10.9592 13.128 9.95933 12.2367C9.18117 11.5425 8.65617 10.6862 8.50333 10.4237C8.3505 10.1612 8.487 10.02 8.61883 9.88937C8.73667 9.7727 8.88017 9.5837 9.01083 9.43087C9.1415 9.27803 9.18467 9.16953 9.27217 8.99453C9.35967 8.81953 9.3165 8.6667 9.25 8.53603C9.18467 8.4042 8.66083 7.1162 8.44267 6.59237C8.2315 6.08487 8.01567 6.15253 7.85467 6.14553C7.68792 6.13871 7.52105 6.1356 7.35417 6.1362C7.22146 6.13958 7.09089 6.17034 6.97064 6.22656C6.85038 6.28277 6.74304 6.36322 6.65533 6.46287C6.415 6.72537 5.7395 7.3577 5.7395 8.6457C5.7395 9.9337 6.6775 11.1785 6.80817 11.3535C6.93883 11.5285 8.65383 14.171 11.2788 15.305C11.9042 15.5745 12.3918 15.7355 12.771 15.8569C13.3975 16.0564 13.968 16.0272 14.4195 15.9607C14.9223 15.886 15.9677 15.3284 16.1858 14.717C16.404 14.1057 16.404 13.5819 16.3387 13.4722C16.2733 13.3625 16.0972 13.296 15.837 13.1654Z" fill="#0065BD"/>
</svg>
