<svg width="177" height="34" viewBox="0 0 177 34" fill="none" xmlns="http://www.w3.org/2000/svg">
<rect x="0.5" y="0.5" width="176" height="33" rx="5.5" fill="white"/>
<rect x="0.5" y="0.5" width="176" height="33" rx="5.5" stroke="#DCE1ED"/>
<path d="M18.732 15.144C18.732 15.568 18.632 15.968 18.432 16.344C18.232 16.72 17.912 17.028 17.472 17.268C17.032 17.5 16.468 17.616 15.78 17.616H14.268V21H12.9V12.66H15.78C16.42 12.66 16.96 12.772 17.4 12.996C17.848 13.212 18.18 13.508 18.396 13.884C18.62 14.26 18.732 14.68 18.732 15.144ZM15.78 16.5C16.3 16.5 16.688 16.384 16.944 16.152C17.2 15.912 17.328 15.576 17.328 15.144C17.328 14.232 16.812 13.776 15.78 13.776H14.268V16.5H15.78ZM21.4047 15.348C21.6047 15.012 21.8687 14.752 22.1967 14.568C22.5327 14.376 22.9287 14.28 23.3847 14.28V15.696H23.0367C22.5007 15.696 22.0927 15.832 21.8127 16.104C21.5407 16.376 21.4047 16.848 21.4047 17.52V21H20.0367V14.388H21.4047V15.348ZM30.7022 17.532C30.7022 17.78 30.6862 18.004 30.6542 18.204H25.6022C25.6422 18.732 25.8382 19.156 26.1902 19.476C26.5422 19.796 26.9742 19.956 27.4862 19.956C28.2222 19.956 28.7422 19.648 29.0462 19.032H30.5222C30.3222 19.64 29.9582 20.14 29.4302 20.532C28.9102 20.916 28.2622 21.108 27.4862 21.108C26.8542 21.108 26.2862 20.968 25.7822 20.688C25.2862 20.4 24.8942 20 24.6062 19.488C24.3262 18.968 24.1862 18.368 24.1862 17.688C24.1862 17.008 24.3222 16.412 24.5942 15.9C24.8742 15.38 25.2622 14.98 25.7582 14.7C26.2622 14.42 26.8382 14.28 27.4862 14.28C28.1102 14.28 28.6662 14.416 29.1542 14.688C29.6422 14.96 30.0222 15.344 30.2942 15.84C30.5662 16.328 30.7022 16.892 30.7022 17.532ZM29.2742 17.1C29.2662 16.596 29.0862 16.192 28.7342 15.888C28.3822 15.584 27.9462 15.432 27.4262 15.432C26.9542 15.432 26.5502 15.584 26.2142 15.888C25.8782 16.184 25.6782 16.588 25.6142 17.1H29.2742ZM31.5924 17.688C31.5924 17.008 31.7284 16.412 32.0004 15.9C32.2804 15.38 32.6644 14.98 33.1524 14.7C33.6404 14.42 34.2004 14.28 34.8324 14.28C35.6324 14.28 36.2924 14.472 36.8124 14.856C37.3404 15.232 37.6964 15.772 37.8804 16.476H36.4044C36.2844 16.148 36.0924 15.892 35.8284 15.708C35.5644 15.524 35.2324 15.432 34.8324 15.432C34.2724 15.432 33.8244 15.632 33.4884 16.032C33.1604 16.424 32.9964 16.976 32.9964 17.688C32.9964 18.4 33.1604 18.956 33.4884 19.356C33.8244 19.756 34.2724 19.956 34.8324 19.956C35.6244 19.956 36.1484 19.608 36.4044 18.912H37.8804C37.6884 19.584 37.3284 20.12 36.8004 20.52C36.2724 20.912 35.6164 21.108 34.8324 21.108C34.2004 21.108 33.6404 20.968 33.1524 20.688C32.6644 20.4 32.2804 20 32.0004 19.488C31.7284 18.968 31.5924 18.368 31.5924 17.688ZM39.9398 13.512C39.6918 13.512 39.4838 13.428 39.3158 13.26C39.1478 13.092 39.0638 12.884 39.0638 12.636C39.0638 12.388 39.1478 12.18 39.3158 12.012C39.4838 11.844 39.6918 11.76 39.9398 11.76C40.1798 11.76 40.3838 11.844 40.5518 12.012C40.7198 12.18 40.8038 12.388 40.8038 12.636C40.8038 12.884 40.7198 13.092 40.5518 13.26C40.3838 13.428 40.1798 13.512 39.9398 13.512ZM40.6118 14.388V21H39.2438V14.388H40.6118ZM44.8078 21.108C44.2878 21.108 43.8198 21.016 43.4038 20.832C42.9958 20.64 42.6718 20.384 42.4318 20.064C42.1918 19.736 42.0638 19.372 42.0478 18.972H43.4638C43.4878 19.252 43.6198 19.488 43.8598 19.68C44.1078 19.864 44.4158 19.956 44.7838 19.956C45.1678 19.956 45.4638 19.884 45.6718 19.74C45.8878 19.588 45.9958 19.396 45.9958 19.164C45.9958 18.916 45.8758 18.732 45.6358 18.612C45.4038 18.492 45.0318 18.36 44.5198 18.216C44.0238 18.08 43.6198 17.948 43.3078 17.82C42.9958 17.692 42.7238 17.496 42.4918 17.232C42.2678 16.968 42.1558 16.62 42.1558 16.188C42.1558 15.836 42.2598 15.516 42.4678 15.228C42.6758 14.932 42.9718 14.7 43.3558 14.532C43.7478 14.364 44.1958 14.28 44.6998 14.28C45.4518 14.28 46.0558 14.472 46.5118 14.856C46.9758 15.232 47.2238 15.748 47.2558 16.404H45.8878C45.8638 16.108 45.7438 15.872 45.5278 15.696C45.3118 15.52 45.0198 15.432 44.6518 15.432C44.2918 15.432 44.0158 15.5 43.8238 15.636C43.6318 15.772 43.5358 15.952 43.5358 16.176C43.5358 16.352 43.5998 16.5 43.7278 16.62C43.8558 16.74 44.0118 16.836 44.1958 16.908C44.3798 16.972 44.6518 17.056 45.0118 17.16C45.4918 17.288 45.8838 17.42 46.1878 17.556C46.4998 17.684 46.7678 17.876 46.9918 18.132C47.2158 18.388 47.3318 18.728 47.3398 19.152C47.3398 19.528 47.2358 19.864 47.0278 20.16C46.8198 20.456 46.5238 20.688 46.1398 20.856C45.7638 21.024 45.3198 21.108 44.8078 21.108ZM51.686 21.108C51.062 21.108 50.498 20.968 49.994 20.688C49.49 20.4 49.094 20 48.806 19.488C48.518 18.968 48.374 18.368 48.374 17.688C48.374 17.016 48.522 16.42 48.818 15.9C49.114 15.38 49.518 14.98 50.03 14.7C50.542 14.42 51.114 14.28 51.746 14.28C52.378 14.28 52.95 14.42 53.462 14.7C53.974 14.98 54.378 15.38 54.674 15.9C54.97 16.42 55.118 17.016 55.118 17.688C55.118 18.36 54.966 18.956 54.662 19.476C54.358 19.996 53.942 20.4 53.414 20.688C52.894 20.968 52.318 21.108 51.686 21.108ZM51.686 19.92C52.038 19.92 52.366 19.836 52.67 19.668C52.982 19.5 53.234 19.248 53.426 18.912C53.618 18.576 53.714 18.168 53.714 17.688C53.714 17.208 53.622 16.804 53.438 16.476C53.254 16.14 53.01 15.888 52.706 15.72C52.402 15.552 52.074 15.468 51.722 15.468C51.37 15.468 51.042 15.552 50.738 15.72C50.442 15.888 50.206 16.14 50.03 16.476C49.854 16.804 49.766 17.208 49.766 17.688C49.766 18.4 49.946 18.952 50.306 19.344C50.674 19.728 51.134 19.92 51.686 19.92ZM59.1315 17.664C59.1315 17 59.2675 16.412 59.5395 15.9C59.8195 15.388 60.1955 14.992 60.6675 14.712C61.1475 14.424 61.6795 14.28 62.2635 14.28C62.6955 14.28 63.1195 14.376 63.5355 14.568C63.9595 14.752 64.2955 15 64.5435 15.312V12.12H65.9235V21H64.5435V20.004C64.3195 20.324 64.0075 20.588 63.6075 20.796C63.2155 21.004 62.7635 21.108 62.2515 21.108C61.6755 21.108 61.1475 20.964 60.6675 20.676C60.1955 20.38 59.8195 19.972 59.5395 19.452C59.2675 18.924 59.1315 18.328 59.1315 17.664ZM64.5435 17.688C64.5435 17.232 64.4475 16.836 64.2555 16.5C64.0715 16.164 63.8275 15.908 63.5235 15.732C63.2195 15.556 62.8915 15.468 62.5395 15.468C62.1875 15.468 61.8595 15.556 61.5555 15.732C61.2515 15.9 61.0035 16.152 60.8115 16.488C60.6275 16.816 60.5355 17.208 60.5355 17.664C60.5355 18.12 60.6275 18.52 60.8115 18.864C61.0035 19.208 61.2515 19.472 61.5555 19.656C61.8675 19.832 62.1955 19.92 62.5395 19.92C62.8915 19.92 63.2195 19.832 63.5235 19.656C63.8275 19.48 64.0715 19.224 64.2555 18.888C64.4475 18.544 64.5435 18.144 64.5435 17.688ZM73.7803 17.532C73.7803 17.78 73.7643 18.004 73.7323 18.204H68.6803C68.7203 18.732 68.9163 19.156 69.2683 19.476C69.6203 19.796 70.0523 19.956 70.5643 19.956C71.3003 19.956 71.8203 19.648 72.1243 19.032H73.6003C73.4003 19.64 73.0363 20.14 72.5083 20.532C71.9883 20.916 71.3403 21.108 70.5643 21.108C69.9323 21.108 69.3643 20.968 68.8603 20.688C68.3643 20.4 67.9723 20 67.6843 19.488C67.4043 18.968 67.2643 18.368 67.2643 17.688C67.2643 17.008 67.4003 16.412 67.6723 15.9C67.9523 15.38 68.3403 14.98 68.8363 14.7C69.3403 14.42 69.9163 14.28 70.5643 14.28C71.1883 14.28 71.7443 14.416 72.2323 14.688C72.7203 14.96 73.1003 15.344 73.3723 15.84C73.6443 16.328 73.7803 16.892 73.7803 17.532ZM72.3523 17.1C72.3443 16.596 72.1643 16.192 71.8123 15.888C71.4603 15.584 71.0243 15.432 70.5043 15.432C70.0323 15.432 69.6283 15.584 69.2923 15.888C68.9563 16.184 68.7563 16.588 68.6923 17.1H72.3523ZM77.7878 17.664C77.7878 17 77.9238 16.412 78.1958 15.9C78.4758 15.388 78.8518 14.992 79.3238 14.712C79.8038 14.424 80.3318 14.28 80.9078 14.28C81.4278 14.28 81.8798 14.384 82.2638 14.592C82.6558 14.792 82.9678 15.044 83.1998 15.348V14.388H84.5798V21H83.1998V20.016C82.9678 20.328 82.6518 20.588 82.2518 20.796C81.8518 21.004 81.3958 21.108 80.8838 21.108C80.3158 21.108 79.7958 20.964 79.3238 20.676C78.8518 20.38 78.4758 19.972 78.1958 19.452C77.9238 18.924 77.7878 18.328 77.7878 17.664ZM83.1998 17.688C83.1998 17.232 83.1038 16.836 82.9118 16.5C82.7278 16.164 82.4838 15.908 82.1798 15.732C81.8758 15.556 81.5478 15.468 81.1958 15.468C80.8438 15.468 80.5158 15.556 80.2118 15.732C79.9078 15.9 79.6598 16.152 79.4678 16.488C79.2838 16.816 79.1918 17.208 79.1918 17.664C79.1918 18.12 79.2838 18.52 79.4678 18.864C79.6598 19.208 79.9078 19.472 80.2118 19.656C80.5238 19.832 80.8518 19.92 81.1958 19.92C81.5478 19.92 81.8758 19.832 82.1798 19.656C82.4838 19.48 82.7278 19.224 82.9118 18.888C83.1038 18.544 83.1998 18.144 83.1998 17.688ZM87.0726 13.512C86.8246 13.512 86.6166 13.428 86.4486 13.26C86.2806 13.092 86.1966 12.884 86.1966 12.636C86.1966 12.388 86.2806 12.18 86.4486 12.012C86.6166 11.844 86.8246 11.76 87.0726 11.76C87.3126 11.76 87.5166 11.844 87.6846 12.012C87.8526 12.18 87.9366 12.388 87.9366 12.636C87.9366 12.884 87.8526 13.092 87.6846 13.26C87.5166 13.428 87.3126 13.512 87.0726 13.512ZM87.7446 22.296C87.7446 22.944 87.5806 23.412 87.2526 23.7C86.9326 23.996 86.4646 24.144 85.8486 24.144H85.1406V22.992H85.6086C85.8886 22.992 86.0846 22.936 86.1966 22.824C86.3166 22.72 86.3766 22.544 86.3766 22.296V14.388H87.7446V22.296ZM95.5286 14.388V21H94.1606V20.22C93.9446 20.492 93.6606 20.708 93.3086 20.868C92.9646 21.02 92.5966 21.096 92.2046 21.096C91.6846 21.096 91.2166 20.988 90.8006 20.772C90.3926 20.556 90.0686 20.236 89.8286 19.812C89.5966 19.388 89.4806 18.876 89.4806 18.276V14.388H90.8366V18.072C90.8366 18.664 90.9846 19.12 91.2806 19.44C91.5766 19.752 91.9806 19.908 92.4926 19.908C93.0046 19.908 93.4086 19.752 93.7046 19.44C94.0086 19.12 94.1606 18.664 94.1606 18.072V14.388H95.5286ZM96.8776 17.664C96.8776 17 97.0136 16.412 97.2856 15.9C97.5656 15.388 97.9416 14.992 98.4136 14.712C98.8936 14.424 99.4256 14.28 100.01 14.28C100.442 14.28 100.866 14.376 101.282 14.568C101.706 14.752 102.042 15 102.29 15.312V12.12H103.67V21H102.29V20.004C102.066 20.324 101.754 20.588 101.354 20.796C100.962 21.004 100.51 21.108 99.9976 21.108C99.4216 21.108 98.8936 20.964 98.4136 20.676C97.9416 20.38 97.5656 19.972 97.2856 19.452C97.0136 18.924 96.8776 18.328 96.8776 17.664ZM102.29 17.688C102.29 17.232 102.194 16.836 102.002 16.5C101.818 16.164 101.574 15.908 101.27 15.732C100.966 15.556 100.638 15.468 100.286 15.468C99.9336 15.468 99.6056 15.556 99.3016 15.732C98.9976 15.9 98.7496 16.152 98.5576 16.488C98.3736 16.816 98.2816 17.208 98.2816 17.664C98.2816 18.12 98.3736 18.52 98.5576 18.864C98.7496 19.208 98.9976 19.472 99.3016 19.656C99.6136 19.832 99.9416 19.92 100.286 19.92C100.638 19.92 100.966 19.832 101.27 19.656C101.574 19.48 101.818 19.224 102.002 18.888C102.194 18.544 102.29 18.144 102.29 17.688ZM105.01 17.664C105.01 17 105.146 16.412 105.418 15.9C105.698 15.388 106.074 14.992 106.546 14.712C107.026 14.424 107.554 14.28 108.13 14.28C108.65 14.28 109.102 14.384 109.486 14.592C109.878 14.792 110.19 15.044 110.422 15.348V14.388H111.802V21H110.422V20.016C110.19 20.328 109.874 20.588 109.474 20.796C109.074 21.004 108.618 21.108 108.106 21.108C107.538 21.108 107.018 20.964 106.546 20.676C106.074 20.38 105.698 19.972 105.418 19.452C105.146 18.924 105.01 18.328 105.01 17.664ZM110.422 17.688C110.422 17.232 110.326 16.836 110.134 16.5C109.95 16.164 109.706 15.908 109.402 15.732C109.098 15.556 108.77 15.468 108.418 15.468C108.066 15.468 107.738 15.556 107.434 15.732C107.13 15.9 106.882 16.152 106.69 16.488C106.506 16.816 106.414 17.208 106.414 17.664C106.414 18.12 106.506 18.52 106.69 18.864C106.882 19.208 107.13 19.472 107.434 19.656C107.746 19.832 108.074 19.92 108.418 19.92C108.77 19.92 109.098 19.832 109.402 19.656C109.706 19.48 109.95 19.224 110.134 18.888C110.326 18.544 110.422 18.144 110.422 17.688Z" fill="#576078"/>
<g clip-path="url(#clip0_9671_21834)">
<circle cx="158" cy="17" r="27" fill="#25D366"/>
<path fill-rule="evenodd" clip-rule="evenodd" d="M162.47 9.57187C161.5 8.59523 160.346 7.82084 159.074 7.29354C157.802 6.76625 156.438 6.49653 155.062 6.50003C149.289 6.50003 144.59 11.1982 144.588 16.9732C144.588 18.8189 145.069 20.6202 145.985 22.2092L144.5 27.6354L150.052 26.1782C151.588 27.0142 153.309 27.4526 155.057 27.4534H155.062C160.833 27.4534 165.533 22.7552 165.535 16.9802C165.539 15.6041 165.27 14.2409 164.744 12.9693C164.218 11.6977 163.445 10.543 162.47 9.57187ZM155.062 25.6859H155.058C153.499 25.686 151.969 25.2665 150.627 24.4714L150.31 24.2824L147.015 25.1469L147.894 21.935L147.687 21.606C146.816 20.2182 146.354 18.6121 146.356 16.9732C146.359 12.1735 150.263 8.2687 155.065 8.2687C156.209 8.26616 157.342 8.49046 158.398 8.92863C159.454 9.36679 160.413 10.0101 161.22 10.8214C162.03 11.6287 162.672 12.5887 163.109 13.6459C163.547 14.703 163.77 15.8363 163.766 16.9802C163.764 21.7799 159.859 25.6859 155.062 25.6859ZM159.837 19.1654C159.575 19.0335 158.289 18.4012 158.049 18.3137C157.809 18.2262 157.636 18.183 157.461 18.4444C157.286 18.7057 156.784 19.2949 156.631 19.4699C156.478 19.6449 156.325 19.6659 156.064 19.5352C155.803 19.4045 154.959 19.128 153.959 18.2367C153.181 17.5425 152.656 16.6862 152.503 16.4237C152.351 16.1612 152.487 16.02 152.619 15.8894C152.737 15.7727 152.88 15.5837 153.011 15.4309C153.142 15.278 153.185 15.1695 153.272 14.9945C153.36 14.8195 153.317 14.6667 153.25 14.536C153.185 14.4042 152.661 13.1162 152.443 12.5924C152.232 12.0849 152.016 12.1525 151.855 12.1455C151.688 12.1387 151.521 12.1356 151.354 12.1362C151.221 12.1396 151.091 12.1703 150.971 12.2266C150.85 12.2828 150.743 12.3632 150.655 12.4629C150.415 12.7254 149.74 13.3577 149.74 14.6457C149.74 15.9337 150.678 17.1785 150.808 17.3535C150.939 17.5285 152.654 20.171 155.279 21.305C155.904 21.5745 156.392 21.7355 156.771 21.8569C157.398 22.0564 157.968 22.0272 158.42 21.9607C158.922 21.886 159.968 21.3284 160.186 20.717C160.404 20.1057 160.404 19.5819 160.339 19.4722C160.273 19.3625 160.097 19.296 159.837 19.1654Z" fill="white"/>
</g>
<defs>
<clipPath id="clip0_9671_21834">
<path d="M122 0H171C174.314 0 177 2.68629 177 6V28C177 31.3137 174.314 34 171 34H122V0Z" fill="white"/>
</clipPath>
</defs>
</svg>
