<svg width="123" height="190" viewBox="0 0 123 190" fill="none" xmlns="http://www.w3.org/2000/svg">
<g opacity="0.2">
<path d="M152.496 19.9752C149.904 20.183 147.302 20.2457 144.703 20.1629C143.783 19.9678 142.84 19.9046 141.902 19.9752H141.601C134.262 19.4423 127 18.1299 119.938 16.0603C111.083 13.3073 102.922 8.68335 96.0102 2.50172C94.3312 0.884677 92.0872 -0.012915 89.7562 0.000140446H79.1495C76.7723 0.0174349 74.4843 0.907717 72.7205 2.50172C65.3835 8.66478 56.8736 13.2771 47.7047 16.0603C40.5384 18.1207 33.1777 19.4327 25.7408 19.9752H25.4407C24.4984 19.9046 23.5509 19.9678 22.6264 20.1629C20.0316 20.2458 17.4342 20.1832 14.8465 19.9752C13.5138 19.8734 12.1743 20.0395 10.9069 20.4638C9.63953 20.8881 8.47 21.562 7.46734 22.4458C6.46469 23.3295 5.64923 24.4051 5.06911 25.6092C4.48899 26.8133 4.15596 28.1213 4.08968 29.4562L0.0121152 134.723C-0.0807724 136.854 0.361642 138.974 1.29896 140.89C2.23627 142.806 3.63862 144.457 5.37799 145.692L64.3527 187.168C66.5251 188.692 69.1164 189.505 71.7699 189.495H82.3641C85.0727 189.485 87.7182 188.675 89.9689 187.168L152.146 145.692C153.977 144.484 155.497 142.861 156.584 140.955C157.67 139.049 158.292 136.914 158.4 134.723L162.465 29.4562C162.518 28.1547 162.293 26.8567 161.804 25.6493C161.315 24.4419 160.574 23.3528 159.63 22.4551C158.686 21.5574 157.561 20.8718 156.331 20.4441C155.101 20.0164 153.793 19.8565 152.496 19.9752Z" fill="#407BFF"/>
<path d="M152.496 19.9752C149.904 20.183 147.302 20.2457 144.703 20.1629C143.783 19.9678 142.84 19.9046 141.902 19.9752H141.601C134.262 19.4423 127 18.1299 119.938 16.0603C111.083 13.3073 102.922 8.68335 96.0102 2.50172C94.3312 0.884677 92.0872 -0.012915 89.7562 0.000140446H79.1495C76.7723 0.0174349 74.4843 0.907717 72.7205 2.50172C65.3835 8.66478 56.8736 13.2771 47.7047 16.0603C40.5384 18.1207 33.1777 19.4327 25.7408 19.9752H25.4407C24.4984 19.9046 23.5509 19.9678 22.6264 20.1629C20.0316 20.2458 17.4342 20.1832 14.8465 19.9752C13.5138 19.8734 12.1743 20.0395 10.9069 20.4638C9.63953 20.8881 8.47 21.562 7.46734 22.4458C6.46469 23.3295 5.64923 24.4051 5.06911 25.6092C4.48899 26.8133 4.15596 28.1213 4.08968 29.4562L0.0121152 134.723C-0.0807724 136.854 0.361642 138.974 1.29896 140.89C2.23627 142.806 3.63862 144.457 5.37799 145.692L64.3527 187.168C66.5251 188.692 69.1164 189.505 71.7699 189.495H82.3641C85.0727 189.485 87.7182 188.675 89.9689 187.168L152.146 145.692C153.977 144.484 155.497 142.861 156.584 140.955C157.67 139.049 158.292 136.914 158.4 134.723L162.465 29.4562C162.518 28.1547 162.293 26.8567 161.804 25.6493C161.315 24.4419 160.574 23.3528 159.63 22.4551C158.686 21.5574 157.561 20.8718 156.331 20.4441C155.101 20.0164 153.793 19.8565 152.496 19.9752Z" fill="#00479E"/>
<path d="M6.90402 134.523L10.794 33.8717C10.8802 32.0264 11.6696 30.284 13.0001 29.0024C14.3306 27.7207 16.1012 26.9971 17.9485 26.9799H20.2374C30.1348 26.8569 39.9692 25.384 49.4684 22.6021C58.5037 19.8638 66.9759 15.5302 74.4842 9.80654C75.7206 8.79882 77.2668 8.24854 78.8619 8.24854C80.457 8.24854 82.0032 8.79882 83.2397 9.80654C90.3652 15.5665 98.5246 19.9136 107.28 22.6146C116.665 25.4106 126.394 26.8841 136.186 26.9924H138.299C139.21 26.9845 140.114 27.1627 140.953 27.5161C141.793 27.8695 142.552 28.3907 143.183 29.0477C143.814 29.7046 144.304 30.4836 144.624 31.3367C144.944 32.1899 145.085 33.0993 145.041 34.0093L141.151 134.535C141.099 135.668 140.781 136.772 140.222 137.759C139.664 138.745 138.881 139.586 137.937 140.214L76.1477 181.49C75.0011 182.272 73.6456 182.69 72.2578 182.69C70.87 182.69 69.5144 182.272 68.3678 181.49L9.75582 140.214C8.83947 139.582 8.09755 138.729 7.59899 137.735C7.10042 136.74 6.86137 135.635 6.90402 134.523Z" fill="#2B93EE"/>
<path d="M17.511 133.463L21.2198 37.4269C31.1517 36.6418 40.9792 34.8593 50.5536 32.1064C60.3206 29.1711 69.6307 24.8904 78.2155 19.3877C86.4386 24.916 95.433 29.2017 104.908 32.1064C114.341 34.8713 124.035 36.6543 133.834 37.4269L130.111 133.463L72.315 171.984L17.511 133.463Z" fill="#4BA9FA"/>
<g opacity="0.9">
<path d="M86.4678 83.9694C91.0616 66.7545 75.728 52.5688 75.728 52.5688C75.728 52.5688 59.2115 68.7417 65.4101 84.9228C65.4101 84.9228 70.7728 96.8176 75.3156 99.6725C82.3343 95.3917 84.8119 90.1572 86.4678 83.9694Z" fill="white"/>
<path d="M64.5592 95.7835C53.4874 83.8807 36.2728 93.2751 36.2728 93.2751C36.2728 93.2751 41.5203 116.699 56.3738 117.328C56.3738 117.328 67.6335 116.973 71.7167 113.622C71.4487 104.756 68.5344 100.059 64.5592 95.7835Z" fill="white"/>
<path d="M86.7861 95.7835C82.8111 100.059 79.8954 104.756 79.6285 113.622C83.7094 116.973 94.9763 117.328 94.9763 117.328C109.823 116.699 115.073 93.2751 115.073 93.2751C115.073 93.2751 97.8569 83.8807 86.7861 95.7835Z" fill="white"/>
<path d="M75.7735 113.606C75.7735 113.606 75.5799 109.564 73.2386 105.742C74.0219 107.542 74.4076 112.47 74.2165 114.833V138.803H76.9888V114.833C76.9888 114.833 76.7511 110.458 78.3069 105.968C77.1391 108.213 75.7735 113.606 75.7735 113.606Z" fill="white"/>
</g>
</g>
</svg>
