<svg width="353" height="291" viewBox="0 0 353 291" fill="none" xmlns="http://www.w3.org/2000/svg">
<path opacity="0.05" d="M31.8146 0H147.423C152.139 0.0168778 156.657 2.33074 159.992 6.43616C163.326 10.5416 165.205 16.1049 165.219 21.9108V36.5127C165.205 42.3186 163.326 47.8819 159.992 51.9873C156.657 56.0927 152.139 58.4066 147.423 58.4234H31.8146L14.0186 71.41V21.8308C14.046 16.0375 15.9318 10.4922 19.2651 6.40317C22.5984 2.31409 27.1092 0.0125603 31.8146 0Z" fill="white"/>
<path opacity="0.5" d="M144.267 20.9192H35.036V24.5657H144.267V20.9192Z" fill="white"/>
<path opacity="0.5" d="M85.696 33.8577H35.036V37.5041H85.696V33.8577Z" fill="white"/>
<path opacity="0.5" d="M114.208 33.8577H93.6067V37.5041H114.208V33.8577Z" fill="white"/>
<path opacity="0.1" d="M310.468 37.7646H214.099C210.168 37.7787 206.401 39.7075 203.622 43.1297C200.842 46.5519 199.276 51.1893 199.264 56.029V68.2142C199.276 73.0539 200.842 77.6913 203.622 81.1135C206.401 84.5357 210.168 86.4645 214.099 86.4786H310.468L325.302 97.3039V55.9757C325.276 51.1464 323.704 46.5246 320.926 43.1146C318.148 39.7047 314.39 37.7821 310.468 37.7646Z" fill="white"/>
<path opacity="0.3" d="M307.782 55.2161H216.73V58.2557H307.782V55.2161Z" fill="white"/>
<path opacity="0.3" d="M307.782 65.988H234.249V69.0277H307.782V65.988Z" fill="white"/>
<rect x="135.544" y="137.325" width="217" height="153" rx="24" fill="#3795E6"/>
<rect x="147.544" y="149.325" width="154" height="28" rx="6" fill="#88BBE8"/>
<path d="M160.012 163.176C160.012 162.696 160.12 162.266 160.334 161.888C160.554 161.506 160.85 161.209 161.223 160.999C161.601 160.785 162.024 160.677 162.49 160.677C163.036 160.677 163.515 160.817 163.925 161.097C164.336 161.377 164.623 161.765 164.786 162.259H163.659C163.547 162.026 163.389 161.851 163.183 161.734C162.983 161.618 162.749 161.559 162.483 161.559C162.199 161.559 161.944 161.627 161.72 161.762C161.501 161.893 161.328 162.08 161.202 162.322C161.081 162.565 161.02 162.85 161.02 163.176C161.02 163.498 161.081 163.783 161.202 164.03C161.328 164.273 161.501 164.462 161.72 164.597C161.944 164.728 162.199 164.793 162.483 164.793C162.749 164.793 162.983 164.735 163.183 164.618C163.389 164.497 163.547 164.32 163.659 164.086H164.786C164.623 164.586 164.336 164.975 163.925 165.255C163.519 165.531 163.041 165.668 162.49 165.668C162.024 165.668 161.601 165.563 161.223 165.353C160.85 165.139 160.554 164.842 160.334 164.464C160.12 164.086 160.012 163.657 160.012 163.176Z" fill="#0E74CD"/>
<path d="M167.807 161.692C168.101 161.692 168.363 161.758 168.591 161.888C168.82 162.014 168.997 162.203 169.123 162.455C169.254 162.703 169.319 163.001 169.319 163.351V165.626H168.339V163.484C168.339 163.176 168.262 162.941 168.108 162.777C167.954 162.609 167.744 162.525 167.478 162.525C167.208 162.525 166.993 162.609 166.834 162.777C166.68 162.941 166.603 163.176 166.603 163.484V165.626H165.623V160.446H166.603V162.231C166.729 162.063 166.897 161.933 167.107 161.839C167.317 161.741 167.551 161.692 167.807 161.692Z" fill="#0E74CD"/>
<path d="M173.856 163.603C173.856 163.743 173.847 163.869 173.828 163.981H170.993C171.017 164.261 171.115 164.481 171.287 164.639C171.46 164.798 171.672 164.877 171.924 164.877C172.288 164.877 172.547 164.721 172.701 164.408H173.758C173.646 164.782 173.432 165.09 173.114 165.332C172.797 165.57 172.407 165.689 171.945 165.689C171.572 165.689 171.236 165.608 170.937 165.444C170.643 165.276 170.412 165.041 170.244 164.737C170.081 164.434 169.999 164.084 169.999 163.687C169.999 163.286 170.081 162.934 170.244 162.63C170.408 162.327 170.636 162.094 170.93 161.93C171.224 161.767 171.563 161.685 171.945 161.685C172.314 161.685 172.643 161.765 172.932 161.923C173.226 162.082 173.453 162.308 173.611 162.602C173.775 162.892 173.856 163.225 173.856 163.603ZM172.841 163.323C172.837 163.071 172.746 162.871 172.568 162.721C172.391 162.567 172.174 162.49 171.917 162.49C171.675 162.49 171.469 162.565 171.301 162.714C171.138 162.859 171.038 163.062 171 163.323H172.841Z" fill="#0E74CD"/>
<path d="M174.32 163.68C174.32 163.293 174.399 162.95 174.558 162.651C174.721 162.348 174.94 162.112 175.216 161.944C175.491 161.776 175.794 161.692 176.126 161.692C176.401 161.692 176.644 161.746 176.854 161.853C177.068 161.956 177.241 162.089 177.372 162.252V161.748H178.359V167.474H177.372V165.094C177.241 165.262 177.066 165.402 176.847 165.514C176.627 165.626 176.38 165.682 176.105 165.682C175.778 165.682 175.477 165.598 175.202 165.43C174.931 165.258 174.716 165.02 174.558 164.716C174.399 164.413 174.32 164.068 174.32 163.68ZM177.372 163.687C177.372 163.449 177.323 163.244 177.225 163.071C177.127 162.899 176.998 162.768 176.84 162.679C176.686 162.591 176.52 162.546 176.343 162.546C176.17 162.546 176.004 162.591 175.846 162.679C175.692 162.768 175.566 162.899 175.468 163.071C175.37 163.239 175.321 163.442 175.321 163.68C175.321 163.918 175.37 164.126 175.468 164.303C175.566 164.476 175.692 164.607 175.846 164.695C176.004 164.784 176.17 164.828 176.343 164.828C176.52 164.828 176.686 164.784 176.84 164.695C176.998 164.607 177.127 164.476 177.225 164.303C177.323 164.131 177.372 163.925 177.372 163.687Z" fill="#0E74CD"/>
<path d="M182.977 161.748V165.626H181.99V165.136C181.864 165.304 181.698 165.437 181.493 165.535C181.292 165.629 181.073 165.675 180.835 165.675C180.531 165.675 180.263 165.612 180.03 165.486C179.796 165.356 179.612 165.167 179.477 164.919C179.346 164.667 179.281 164.369 179.281 164.023V161.748H180.261V163.883C180.261 164.191 180.338 164.429 180.492 164.597C180.646 164.761 180.856 164.842 181.122 164.842C181.392 164.842 181.605 164.761 181.759 164.597C181.913 164.429 181.99 164.191 181.99 163.883V161.748H182.977Z" fill="#0E74CD"/>
<path d="M187.549 163.603C187.549 163.743 187.539 163.869 187.521 163.981H184.686C184.709 164.261 184.807 164.481 184.98 164.639C185.152 164.798 185.365 164.877 185.617 164.877C185.981 164.877 186.24 164.721 186.394 164.408H187.451C187.339 164.782 187.124 165.09 186.807 165.332C186.489 165.57 186.1 165.689 185.638 165.689C185.264 165.689 184.928 165.608 184.63 165.444C184.336 165.276 184.105 165.041 183.937 164.737C183.773 164.434 183.692 164.084 183.692 163.687C183.692 163.286 183.773 162.934 183.937 162.63C184.1 162.327 184.329 162.094 184.623 161.93C184.917 161.767 185.255 161.685 185.638 161.685C186.006 161.685 186.335 161.765 186.625 161.923C186.919 162.082 187.145 162.308 187.304 162.602C187.467 162.892 187.549 163.225 187.549 163.603ZM186.534 163.323C186.529 163.071 186.438 162.871 186.261 162.721C186.083 162.567 185.866 162.49 185.61 162.49C185.367 162.49 185.162 162.565 184.994 162.714C184.83 162.859 184.73 163.062 184.693 163.323H186.534Z" fill="#0E74CD"/>
<path d="M191.416 165.689C191.099 165.689 190.814 165.633 190.562 165.521C190.31 165.405 190.109 165.248 189.96 165.052C189.815 164.856 189.736 164.639 189.722 164.401H190.709C190.728 164.551 190.8 164.674 190.926 164.772C191.057 164.87 191.218 164.919 191.409 164.919C191.596 164.919 191.74 164.882 191.843 164.807C191.95 164.733 192.004 164.637 192.004 164.52C192.004 164.394 191.939 164.301 191.808 164.24C191.682 164.175 191.479 164.105 191.199 164.03C190.91 163.96 190.672 163.888 190.485 163.813C190.303 163.739 190.144 163.624 190.009 163.47C189.878 163.316 189.813 163.109 189.813 162.847C189.813 162.633 189.874 162.437 189.995 162.259C190.121 162.082 190.298 161.942 190.527 161.839C190.76 161.737 191.033 161.685 191.346 161.685C191.808 161.685 192.177 161.802 192.452 162.035C192.727 162.264 192.879 162.574 192.907 162.966H191.969C191.955 162.812 191.89 162.691 191.773 162.602C191.661 162.509 191.509 162.462 191.318 162.462C191.141 162.462 191.003 162.495 190.905 162.56C190.812 162.626 190.765 162.717 190.765 162.833C190.765 162.964 190.83 163.064 190.961 163.134C191.092 163.2 191.295 163.267 191.57 163.337C191.85 163.407 192.081 163.48 192.263 163.554C192.445 163.629 192.601 163.746 192.732 163.904C192.867 164.058 192.937 164.264 192.942 164.52C192.942 164.744 192.879 164.945 192.753 165.122C192.632 165.3 192.454 165.44 192.221 165.542C191.992 165.64 191.724 165.689 191.416 165.689Z" fill="#0E74CD"/>
<path d="M197.351 163.603C197.351 163.743 197.342 163.869 197.323 163.981H194.488C194.512 164.261 194.61 164.481 194.782 164.639C194.955 164.798 195.167 164.877 195.419 164.877C195.783 164.877 196.042 164.721 196.196 164.408H197.253C197.141 164.782 196.927 165.09 196.609 165.332C196.292 165.57 195.902 165.689 195.44 165.689C195.067 165.689 194.731 165.608 194.432 165.444C194.138 165.276 193.907 165.041 193.739 164.737C193.576 164.434 193.494 164.084 193.494 163.687C193.494 163.286 193.576 162.934 193.739 162.63C193.903 162.327 194.131 162.094 194.425 161.93C194.719 161.767 195.058 161.685 195.44 161.685C195.809 161.685 196.138 161.765 196.427 161.923C196.721 162.082 196.948 162.308 197.106 162.602C197.27 162.892 197.351 163.225 197.351 163.603ZM196.336 163.323C196.332 163.071 196.241 162.871 196.063 162.721C195.886 162.567 195.669 162.49 195.412 162.49C195.17 162.49 194.964 162.565 194.796 162.714C194.633 162.859 194.533 163.062 194.495 163.323H196.336Z" fill="#0E74CD"/>
<path d="M202.883 161.692C203.359 161.692 203.741 161.839 204.031 162.133C204.325 162.423 204.472 162.829 204.472 163.351V165.626H203.492V163.484C203.492 163.181 203.415 162.95 203.261 162.791C203.107 162.628 202.897 162.546 202.631 162.546C202.365 162.546 202.152 162.628 201.994 162.791C201.84 162.95 201.763 163.181 201.763 163.484V165.626H200.783V163.484C200.783 163.181 200.706 162.95 200.552 162.791C200.398 162.628 200.188 162.546 199.922 162.546C199.651 162.546 199.436 162.628 199.278 162.791C199.124 162.95 199.047 163.181 199.047 163.484V165.626H198.067V161.748H199.047V162.217C199.173 162.054 199.334 161.926 199.53 161.832C199.73 161.739 199.95 161.692 200.188 161.692C200.491 161.692 200.762 161.758 201 161.888C201.238 162.014 201.422 162.196 201.553 162.434C201.679 162.21 201.861 162.031 202.099 161.895C202.341 161.76 202.603 161.692 202.883 161.692Z" fill="#0E74CD"/>
<path d="M208.848 162.553H208.169V165.626H207.175V162.553H206.734V161.748H207.175V161.552C207.175 161.076 207.31 160.726 207.581 160.502C207.851 160.278 208.26 160.173 208.806 160.187V161.013C208.568 161.009 208.402 161.048 208.309 161.132C208.215 161.216 208.169 161.368 208.169 161.587V161.748H208.848V162.553Z" fill="#0E74CD"/>
<path d="M213.144 161.748V165.626H212.157V165.136C212.031 165.304 211.865 165.437 211.66 165.535C211.459 165.629 211.24 165.675 211.002 165.675C210.698 165.675 210.43 165.612 210.197 165.486C209.963 165.356 209.779 165.167 209.644 164.919C209.513 164.667 209.448 164.369 209.448 164.023V161.748H210.428V163.883C210.428 164.191 210.505 164.429 210.659 164.597C210.813 164.761 211.023 164.842 211.289 164.842C211.559 164.842 211.772 164.761 211.926 164.597C212.08 164.429 212.157 164.191 212.157 163.883V161.748H213.144Z" fill="#0E74CD"/>
<path d="M216.26 161.692C216.722 161.692 217.095 161.839 217.38 162.133C217.664 162.423 217.807 162.829 217.807 163.351V165.626H216.827V163.484C216.827 163.176 216.75 162.941 216.596 162.777C216.442 162.609 216.232 162.525 215.966 162.525C215.695 162.525 215.48 162.609 215.322 162.777C215.168 162.941 215.091 163.176 215.091 163.484V165.626H214.111V161.748H215.091V162.231C215.221 162.063 215.387 161.933 215.588 161.839C215.793 161.741 216.017 161.692 216.26 161.692Z" fill="#0E74CD"/>
<path d="M218.487 163.673C218.487 163.281 218.564 162.934 218.718 162.63C218.876 162.327 219.091 162.094 219.362 161.93C219.632 161.767 219.933 161.685 220.265 161.685C220.517 161.685 220.757 161.741 220.986 161.853C221.214 161.961 221.396 162.105 221.532 162.287V160.446H222.526V165.626H221.532V165.052C221.41 165.244 221.24 165.398 221.021 165.514C220.801 165.631 220.547 165.689 220.258 165.689C219.931 165.689 219.632 165.605 219.362 165.437C219.091 165.269 218.876 165.034 218.718 164.73C218.564 164.422 218.487 164.07 218.487 163.673ZM221.539 163.687C221.539 163.449 221.492 163.246 221.399 163.078C221.305 162.906 221.179 162.775 221.021 162.686C220.862 162.593 220.692 162.546 220.51 162.546C220.328 162.546 220.16 162.591 220.006 162.679C219.852 162.768 219.726 162.899 219.628 163.071C219.534 163.239 219.488 163.44 219.488 163.673C219.488 163.907 219.534 164.112 219.628 164.289C219.726 164.462 219.852 164.595 220.006 164.688C220.164 164.782 220.332 164.828 220.51 164.828C220.692 164.828 220.862 164.784 221.021 164.695C221.179 164.602 221.305 164.471 221.399 164.303C221.492 164.131 221.539 163.925 221.539 163.687Z" fill="#0E74CD"/>
<path d="M225.205 165.689C224.831 165.689 224.495 165.608 224.197 165.444C223.898 165.276 223.662 165.041 223.49 164.737C223.322 164.434 223.238 164.084 223.238 163.687C223.238 163.291 223.324 162.941 223.497 162.637C223.674 162.334 223.914 162.101 224.218 161.937C224.521 161.769 224.859 161.685 225.233 161.685C225.606 161.685 225.944 161.769 226.248 161.937C226.551 162.101 226.789 162.334 226.962 162.637C227.139 162.941 227.228 163.291 227.228 163.687C227.228 164.084 227.137 164.434 226.955 164.737C226.777 165.041 226.535 165.276 226.227 165.444C225.923 165.608 225.583 165.689 225.205 165.689ZM225.205 164.835C225.382 164.835 225.548 164.793 225.702 164.709C225.86 164.621 225.986 164.49 226.08 164.317C226.173 164.145 226.22 163.935 226.22 163.687C226.22 163.319 226.122 163.036 225.926 162.84C225.734 162.64 225.499 162.539 225.219 162.539C224.939 162.539 224.703 162.64 224.512 162.84C224.325 163.036 224.232 163.319 224.232 163.687C224.232 164.056 224.323 164.341 224.505 164.541C224.691 164.737 224.925 164.835 225.205 164.835Z" fill="#0E74CD"/>
<path d="M283.456 162.876C283.456 161.73 283.676 160.826 284.116 160.166C284.562 159.506 285.279 159.176 286.266 159.176C287.252 159.176 287.966 159.506 288.406 160.166C288.852 160.826 289.076 161.73 289.076 162.876C289.076 164.036 288.852 164.946 288.406 165.606C287.966 166.266 287.252 166.596 286.266 166.596C285.279 166.596 284.562 166.266 284.116 165.606C283.676 164.946 283.456 164.036 283.456 162.876ZM287.396 162.876C287.396 162.203 287.322 161.686 287.176 161.326C287.029 160.96 286.726 160.776 286.266 160.776C285.806 160.776 285.502 160.96 285.356 161.326C285.209 161.686 285.136 162.203 285.136 162.876C285.136 163.33 285.162 163.706 285.216 164.006C285.269 164.3 285.376 164.54 285.536 164.726C285.702 164.906 285.946 164.996 286.266 164.996C286.586 164.996 286.826 164.906 286.986 164.726C287.152 164.54 287.262 164.3 287.316 164.006C287.369 163.706 287.396 163.33 287.396 162.876Z" fill="#147BD4"/>
<rect x="156.544" y="173.325" width="155" height="28" rx="6" fill="#BCD3E7"/>
<path d="M173.31 189.595H172.33L170.111 186.242V189.595H169.131V184.702H170.111L172.33 188.062V184.702H173.31V189.595Z" fill="#0E74CD"/>
<path d="M177.884 187.572C177.884 187.712 177.874 187.838 177.856 187.95H175.021C175.044 188.23 175.142 188.449 175.315 188.608C175.487 188.766 175.7 188.846 175.952 188.846C176.316 188.846 176.575 188.689 176.729 188.377H177.786C177.674 188.75 177.459 189.058 177.142 189.301C176.824 189.539 176.435 189.658 175.973 189.658C175.599 189.658 175.263 189.576 174.965 189.413C174.671 189.245 174.44 189.009 174.272 188.706C174.108 188.402 174.027 188.052 174.027 187.656C174.027 187.254 174.108 186.902 174.272 186.599C174.435 186.295 174.664 186.062 174.958 185.899C175.252 185.735 175.59 185.654 175.973 185.654C176.341 185.654 176.67 185.733 176.96 185.892C177.254 186.05 177.48 186.277 177.639 186.571C177.802 186.86 177.884 187.194 177.884 187.572ZM176.869 187.292C176.864 187.04 176.773 186.839 176.596 186.69C176.418 186.536 176.201 186.459 175.945 186.459C175.702 186.459 175.497 186.533 175.329 186.683C175.165 186.827 175.065 187.03 175.028 187.292H176.869Z" fill="#0E74CD"/>
<path d="M180.118 185.654C180.407 185.654 180.662 185.712 180.881 185.829C181.1 185.941 181.273 186.088 181.399 186.27V185.717H182.386V189.623C182.386 189.982 182.314 190.302 182.169 190.582C182.024 190.866 181.807 191.09 181.518 191.254C181.229 191.422 180.879 191.506 180.468 191.506C179.917 191.506 179.465 191.377 179.11 191.121C178.76 190.864 178.562 190.514 178.515 190.071H179.488C179.539 190.248 179.649 190.388 179.817 190.491C179.99 190.598 180.197 190.652 180.44 190.652C180.725 190.652 180.956 190.565 181.133 190.393C181.31 190.225 181.399 189.968 181.399 189.623V189.021C181.273 189.203 181.098 189.354 180.874 189.476C180.655 189.597 180.403 189.658 180.118 189.658C179.791 189.658 179.493 189.574 179.222 189.406C178.951 189.238 178.737 189.002 178.578 188.699C178.424 188.391 178.347 188.038 178.347 187.642C178.347 187.25 178.424 186.902 178.578 186.599C178.737 186.295 178.949 186.062 179.215 185.899C179.486 185.735 179.787 185.654 180.118 185.654ZM181.399 187.656C181.399 187.418 181.352 187.215 181.259 187.047C181.166 186.874 181.04 186.743 180.881 186.655C180.722 186.561 180.552 186.515 180.37 186.515C180.188 186.515 180.02 186.559 179.866 186.648C179.712 186.736 179.586 186.867 179.488 187.04C179.395 187.208 179.348 187.408 179.348 187.642C179.348 187.875 179.395 188.08 179.488 188.258C179.586 188.43 179.712 188.563 179.866 188.657C180.025 188.75 180.193 188.797 180.37 188.797C180.552 188.797 180.722 188.752 180.881 188.664C181.04 188.57 181.166 188.44 181.259 188.272C181.352 188.099 181.399 187.894 181.399 187.656Z" fill="#0E74CD"/>
<path d="M183.091 187.642C183.091 187.25 183.168 186.902 183.322 186.599C183.481 186.295 183.693 186.062 183.959 185.899C184.23 185.735 184.531 185.654 184.862 185.654C185.151 185.654 185.403 185.712 185.618 185.829C185.837 185.945 186.012 186.092 186.143 186.27V185.717H187.13V189.595H186.143V189.028C186.017 189.21 185.842 189.361 185.618 189.483C185.399 189.599 185.144 189.658 184.855 189.658C184.528 189.658 184.23 189.574 183.959 189.406C183.693 189.238 183.481 189.002 183.322 188.699C183.168 188.391 183.091 188.038 183.091 187.642ZM186.143 187.656C186.143 187.418 186.096 187.215 186.003 187.047C185.91 186.874 185.784 186.743 185.625 186.655C185.466 186.561 185.296 186.515 185.114 186.515C184.932 186.515 184.764 186.559 184.61 186.648C184.456 186.736 184.33 186.867 184.232 187.04C184.139 187.208 184.092 187.408 184.092 187.642C184.092 187.875 184.139 188.08 184.232 188.258C184.33 188.43 184.456 188.563 184.61 188.657C184.769 188.75 184.937 188.797 185.114 188.797C185.296 188.797 185.466 188.752 185.625 188.664C185.784 188.57 185.91 188.44 186.003 188.272C186.096 188.099 186.143 187.894 186.143 187.656Z" fill="#0E74CD"/>
<path d="M189.228 186.522V188.398C189.228 188.528 189.259 188.624 189.319 188.685C189.385 188.741 189.492 188.769 189.641 188.769H190.096V189.595H189.48C188.654 189.595 188.241 189.193 188.241 188.391V186.522H187.779V185.717H188.241V184.758H189.228V185.717H190.096V186.522H189.228Z" fill="#0E74CD"/>
<path d="M191.298 185.255C191.125 185.255 190.981 185.201 190.864 185.094C190.752 184.982 190.696 184.844 190.696 184.681C190.696 184.517 190.752 184.382 190.864 184.275C190.981 184.163 191.125 184.107 191.298 184.107C191.471 184.107 191.613 184.163 191.725 184.275C191.842 184.382 191.9 184.517 191.9 184.681C191.9 184.844 191.842 184.982 191.725 185.094C191.613 185.201 191.471 185.255 191.298 185.255ZM191.781 185.717V189.595H190.801V185.717H191.781Z" fill="#0E74CD"/>
<path d="M194.366 188.692L195.346 185.717H196.389L194.954 189.595H193.764L192.336 185.717H193.386L194.366 188.692Z" fill="#0E74CD"/>
<path d="M196.688 187.642C196.688 187.25 196.765 186.902 196.919 186.599C197.077 186.295 197.29 186.062 197.556 185.899C197.826 185.735 198.127 185.654 198.459 185.654C198.748 185.654 199 185.712 199.215 185.829C199.434 185.945 199.609 186.092 199.74 186.27V185.717H200.727V189.595H199.74V189.028C199.614 189.21 199.439 189.361 199.215 189.483C198.995 189.599 198.741 189.658 198.452 189.658C198.125 189.658 197.826 189.574 197.556 189.406C197.29 189.238 197.077 189.002 196.919 188.699C196.765 188.391 196.688 188.038 196.688 187.642ZM199.74 187.656C199.74 187.418 199.693 187.215 199.6 187.047C199.506 186.874 199.38 186.743 199.222 186.655C199.063 186.561 198.893 186.515 198.711 186.515C198.529 186.515 198.361 186.559 198.207 186.648C198.053 186.736 197.927 186.867 197.829 187.04C197.735 187.208 197.689 187.408 197.689 187.642C197.689 187.875 197.735 188.08 197.829 188.258C197.927 188.43 198.053 188.563 198.207 188.657C198.365 188.75 198.533 188.797 198.711 188.797C198.893 188.797 199.063 188.752 199.222 188.664C199.38 188.57 199.506 188.44 199.6 188.272C199.693 188.099 199.74 187.894 199.74 187.656Z" fill="#0E74CD"/>
<path d="M203.343 188.818C203.74 188.818 203.999 188.64 204.12 188.286H205.177C205.079 188.664 204.897 188.972 204.631 189.21C204.37 189.448 204.041 189.59 203.644 189.637V189.91C203.901 189.91 204.115 189.975 204.288 190.106C204.465 190.236 204.554 190.425 204.554 190.673C204.554 190.925 204.463 191.118 204.281 191.254C204.104 191.389 203.884 191.457 203.623 191.457H202.629V190.883H203.462C203.574 190.883 203.658 190.866 203.714 190.834C203.775 190.801 203.805 190.743 203.805 190.659C203.805 190.575 203.775 190.516 203.714 190.484C203.658 190.456 203.574 190.442 203.462 190.442H203.028V189.637C202.711 189.59 202.431 189.48 202.188 189.308C201.95 189.13 201.763 188.902 201.628 188.622C201.497 188.337 201.432 188.015 201.432 187.656C201.432 187.254 201.514 186.904 201.677 186.606C201.84 186.302 202.067 186.069 202.356 185.906C202.645 185.738 202.977 185.654 203.35 185.654C203.831 185.654 204.227 185.775 204.54 186.018C204.857 186.256 205.07 186.592 205.177 187.026H204.12C204.064 186.858 203.968 186.727 203.833 186.634C203.702 186.536 203.539 186.487 203.343 186.487C203.063 186.487 202.841 186.589 202.678 186.795C202.515 186.995 202.433 187.282 202.433 187.656C202.433 188.024 202.515 188.311 202.678 188.517C202.841 188.717 203.063 188.818 203.343 188.818Z" fill="#0E74CD"/>
<path d="M207.617 189.658C207.244 189.658 206.908 189.576 206.609 189.413C206.31 189.245 206.075 189.009 205.902 188.706C205.734 188.402 205.65 188.052 205.65 187.656C205.65 187.259 205.736 186.909 205.909 186.606C206.086 186.302 206.327 186.069 206.63 185.906C206.933 185.738 207.272 185.654 207.645 185.654C208.018 185.654 208.357 185.738 208.66 185.906C208.963 186.069 209.201 186.302 209.374 186.606C209.551 186.909 209.64 187.259 209.64 187.656C209.64 188.052 209.549 188.402 209.367 188.706C209.19 189.009 208.947 189.245 208.639 189.413C208.336 189.576 207.995 189.658 207.617 189.658ZM207.617 188.804C207.794 188.804 207.96 188.762 208.114 188.678C208.273 188.589 208.399 188.458 208.492 188.286C208.585 188.113 208.632 187.903 208.632 187.656C208.632 187.287 208.534 187.005 208.338 186.809C208.147 186.608 207.911 186.508 207.631 186.508C207.351 186.508 207.115 186.608 206.924 186.809C206.737 187.005 206.644 187.287 206.644 187.656C206.644 188.024 206.735 188.309 206.917 188.51C207.104 188.706 207.337 188.804 207.617 188.804ZM206.427 185.297C206.469 184.989 206.565 184.76 206.714 184.611C206.868 184.457 207.062 184.38 207.295 184.38C207.393 184.38 207.479 184.396 207.554 184.429C207.629 184.457 207.713 184.499 207.806 184.555C207.946 184.643 208.063 184.688 208.156 184.688C208.329 184.688 208.429 184.587 208.457 184.387H208.982C208.94 184.695 208.842 184.926 208.688 185.08C208.539 185.229 208.347 185.304 208.114 185.304C208.016 185.304 207.93 185.29 207.855 185.262C207.78 185.229 207.696 185.185 207.603 185.129C207.468 185.035 207.351 184.989 207.253 184.989C207.08 184.989 206.978 185.091 206.945 185.297H206.427Z" fill="#0E74CD"/>
<path d="M213.964 187.572C213.964 187.712 213.954 187.838 213.936 187.95H211.101C211.124 188.23 211.222 188.449 211.395 188.608C211.567 188.766 211.78 188.846 212.032 188.846C212.396 188.846 212.655 188.689 212.809 188.377H213.866C213.754 188.75 213.539 189.058 213.222 189.301C212.904 189.539 212.515 189.658 212.053 189.658C211.679 189.658 211.343 189.576 211.045 189.413C210.751 189.245 210.52 189.009 210.352 188.706C210.188 188.402 210.107 188.052 210.107 187.656C210.107 187.254 210.188 186.902 210.352 186.599C210.515 186.295 210.744 186.062 211.038 185.899C211.332 185.735 211.67 185.654 212.053 185.654C212.421 185.654 212.75 185.733 213.04 185.892C213.334 186.05 213.56 186.277 213.719 186.571C213.882 186.86 213.964 187.194 213.964 187.572ZM212.949 187.292C212.944 187.04 212.853 186.839 212.676 186.69C212.498 186.536 212.281 186.459 212.025 186.459C211.782 186.459 211.577 186.533 211.409 186.683C211.245 186.827 211.145 187.03 211.108 187.292H212.949Z" fill="#0E74CD"/>
<path d="M216.163 189.658C215.846 189.658 215.561 189.602 215.309 189.49C215.057 189.373 214.856 189.217 214.707 189.021C214.562 188.825 214.483 188.608 214.469 188.37H215.456C215.475 188.519 215.547 188.643 215.673 188.741C215.804 188.839 215.965 188.888 216.156 188.888C216.343 188.888 216.487 188.85 216.59 188.776C216.697 188.701 216.751 188.605 216.751 188.489C216.751 188.363 216.686 188.269 216.555 188.209C216.429 188.143 216.226 188.073 215.946 187.999C215.657 187.929 215.419 187.856 215.232 187.782C215.05 187.707 214.891 187.593 214.756 187.439C214.625 187.285 214.56 187.077 214.56 186.816C214.56 186.601 214.621 186.405 214.742 186.228C214.868 186.05 215.045 185.91 215.274 185.808C215.507 185.705 215.78 185.654 216.093 185.654C216.555 185.654 216.924 185.77 217.199 186.004C217.474 186.232 217.626 186.543 217.654 186.935H216.716C216.702 186.781 216.637 186.659 216.52 186.571C216.408 186.477 216.256 186.431 216.065 186.431C215.888 186.431 215.75 186.463 215.652 186.529C215.559 186.594 215.512 186.685 215.512 186.802C215.512 186.932 215.577 187.033 215.708 187.103C215.839 187.168 216.042 187.236 216.317 187.306C216.597 187.376 216.828 187.448 217.01 187.523C217.192 187.597 217.348 187.714 217.479 187.873C217.614 188.027 217.684 188.232 217.689 188.489C217.689 188.713 217.626 188.913 217.5 189.091C217.379 189.268 217.201 189.408 216.968 189.511C216.739 189.609 216.471 189.658 216.163 189.658Z" fill="#0E74CD"/>
<path d="M293.337 186.845C293.337 185.698 293.557 184.795 293.997 184.135C294.443 183.475 295.16 183.145 296.147 183.145C297.133 183.145 297.847 183.475 298.287 184.135C298.733 184.795 298.957 185.698 298.957 186.845C298.957 188.005 298.733 188.915 298.287 189.575C297.847 190.235 297.133 190.565 296.147 190.565C295.16 190.565 294.443 190.235 293.997 189.575C293.557 188.915 293.337 188.005 293.337 186.845ZM297.277 186.845C297.277 186.171 297.203 185.655 297.057 185.295C296.91 184.928 296.607 184.745 296.147 184.745C295.687 184.745 295.383 184.928 295.237 185.295C295.09 185.655 295.017 186.171 295.017 186.845C295.017 187.298 295.043 187.675 295.097 187.975C295.15 188.268 295.257 188.508 295.417 188.695C295.583 188.875 295.827 188.965 296.147 188.965C296.467 188.965 296.707 188.875 296.867 188.695C297.033 188.508 297.143 188.268 297.197 187.975C297.25 187.675 297.277 187.298 297.277 186.845Z" fill="#147BD4"/>
<rect x="166.544" y="197.325" width="154" height="29" rx="6" fill="#DDE6EE"/>
<path d="M182.703 210.682C182.703 210.943 182.64 211.188 182.514 211.417C182.392 211.646 182.199 211.83 181.933 211.97C181.671 212.11 181.34 212.18 180.939 212.18H180.12V214.056H179.14V209.17H180.939C181.317 209.17 181.639 209.235 181.905 209.366C182.171 209.497 182.369 209.676 182.5 209.905C182.635 210.134 182.703 210.393 182.703 210.682ZM180.897 211.389C181.167 211.389 181.368 211.328 181.499 211.207C181.629 211.081 181.695 210.906 181.695 210.682C181.695 210.206 181.429 209.968 180.897 209.968H180.12V211.389H180.897Z" fill="#0E74CD"/>
<path d="M184.378 210.78C184.504 210.575 184.668 210.414 184.868 210.297C185.074 210.18 185.307 210.122 185.568 210.122V211.151H185.309C185.001 211.151 184.768 211.223 184.609 211.368C184.455 211.513 184.378 211.765 184.378 212.124V214.056H183.398V210.178H184.378V210.78Z" fill="#0E74CD"/>
<path d="M187.951 214.119C187.577 214.119 187.241 214.037 186.943 213.874C186.644 213.706 186.408 213.47 186.236 213.167C186.068 212.864 185.984 212.514 185.984 212.117C185.984 211.72 186.07 211.37 186.243 211.067C186.42 210.764 186.66 210.53 186.964 210.367C187.267 210.199 187.605 210.115 187.979 210.115C188.352 210.115 188.69 210.199 188.994 210.367C189.297 210.53 189.535 210.764 189.708 211.067C189.885 211.37 189.974 211.72 189.974 212.117C189.974 212.514 189.883 212.864 189.701 213.167C189.523 213.47 189.281 213.706 188.973 213.874C188.669 214.037 188.329 214.119 187.951 214.119ZM187.951 213.265C188.128 213.265 188.294 213.223 188.448 213.139C188.606 213.05 188.732 212.92 188.826 212.747C188.919 212.574 188.966 212.364 188.966 212.117C188.966 211.748 188.868 211.466 188.672 211.27C188.48 211.069 188.245 210.969 187.965 210.969C187.685 210.969 187.449 211.069 187.258 211.27C187.071 211.466 186.978 211.748 186.978 212.117C186.978 212.486 187.069 212.77 187.251 212.971C187.437 213.167 187.671 213.265 187.951 213.265Z" fill="#0E74CD"/>
<path d="M191.672 210.745C191.798 210.558 191.971 210.407 192.19 210.29C192.414 210.173 192.669 210.115 192.953 210.115C193.285 210.115 193.583 210.197 193.849 210.36C194.12 210.523 194.332 210.757 194.486 211.06C194.645 211.359 194.724 211.706 194.724 212.103C194.724 212.5 194.645 212.852 194.486 213.16C194.332 213.463 194.12 213.699 193.849 213.867C193.583 214.035 193.285 214.119 192.953 214.119C192.664 214.119 192.41 214.063 192.19 213.951C191.976 213.834 191.803 213.685 191.672 213.503V214.056H190.692V208.876H191.672V210.745ZM193.723 212.103C193.723 211.87 193.674 211.669 193.576 211.501C193.483 211.328 193.357 211.198 193.198 211.109C193.044 211.02 192.876 210.976 192.694 210.976C192.517 210.976 192.349 211.023 192.19 211.116C192.036 211.205 191.91 211.335 191.812 211.508C191.719 211.681 191.672 211.884 191.672 212.117C191.672 212.35 191.719 212.553 191.812 212.726C191.91 212.899 192.036 213.032 192.19 213.125C192.349 213.214 192.517 213.258 192.694 213.258C192.876 213.258 193.044 213.211 193.198 213.118C193.357 213.025 193.483 212.892 193.576 212.719C193.674 212.546 193.723 212.341 193.723 212.103Z" fill="#0E74CD"/>
<path d="M195.871 214.105C195.693 214.105 195.546 214.051 195.43 213.944C195.318 213.832 195.262 213.694 195.262 213.531C195.262 213.368 195.318 213.232 195.43 213.125C195.546 213.013 195.693 212.957 195.871 212.957C196.043 212.957 196.186 213.013 196.298 213.125C196.41 213.232 196.466 213.368 196.466 213.531C196.466 213.694 196.41 213.832 196.298 213.944C196.186 214.051 196.043 214.105 195.871 214.105Z" fill="#0E74CD"/>
<path d="M199.903 209.17V214.056H198.923V209.17H199.903Z" fill="#0E74CD"/>
<path d="M203.02 210.122C203.482 210.122 203.855 210.269 204.14 210.563C204.425 210.852 204.567 211.258 204.567 211.781V214.056H203.587V211.914C203.587 211.606 203.51 211.37 203.356 211.207C203.202 211.039 202.992 210.955 202.726 210.955C202.455 210.955 202.241 211.039 202.082 211.207C201.928 211.37 201.851 211.606 201.851 211.914V214.056H200.871V210.178H201.851V210.661C201.982 210.493 202.147 210.362 202.348 210.269C202.553 210.171 202.777 210.122 203.02 210.122Z" fill="#0E74CD"/>
<path d="M205.247 212.103C205.247 211.711 205.324 211.363 205.478 211.06C205.637 210.757 205.849 210.523 206.115 210.36C206.386 210.197 206.687 210.115 207.018 210.115C207.307 210.115 207.559 210.173 207.774 210.29C207.993 210.407 208.168 210.554 208.299 210.731V210.178H209.286V214.056H208.299V213.489C208.173 213.671 207.998 213.823 207.774 213.944C207.555 214.061 207.3 214.119 207.011 214.119C206.684 214.119 206.386 214.035 206.115 213.867C205.849 213.699 205.637 213.463 205.478 213.16C205.324 212.852 205.247 212.5 205.247 212.103ZM208.299 212.117C208.299 211.879 208.252 211.676 208.159 211.508C208.066 211.335 207.94 211.205 207.781 211.116C207.622 211.023 207.452 210.976 207.27 210.976C207.088 210.976 206.92 211.02 206.766 211.109C206.612 211.198 206.486 211.328 206.388 211.501C206.295 211.669 206.248 211.87 206.248 212.103C206.248 212.336 206.295 212.542 206.388 212.719C206.486 212.892 206.612 213.025 206.766 213.118C206.925 213.211 207.093 213.258 207.27 213.258C207.452 213.258 207.622 213.214 207.781 213.125C207.94 213.032 208.066 212.901 208.159 212.733C208.252 212.56 208.299 212.355 208.299 212.117Z" fill="#0E74CD"/>
<path d="M209.991 212.103C209.991 211.711 210.068 211.363 210.222 211.06C210.381 210.757 210.596 210.523 210.866 210.36C211.137 210.197 211.438 210.115 211.769 210.115C212.021 210.115 212.262 210.171 212.49 210.283C212.719 210.39 212.901 210.535 213.036 210.717V208.876H214.03V214.056H213.036V213.482C212.915 213.673 212.745 213.827 212.525 213.944C212.306 214.061 212.052 214.119 211.762 214.119C211.436 214.119 211.137 214.035 210.866 213.867C210.596 213.699 210.381 213.463 210.222 213.16C210.068 212.852 209.991 212.5 209.991 212.103ZM213.043 212.117C213.043 211.879 212.997 211.676 212.903 211.508C212.81 211.335 212.684 211.205 212.525 211.116C212.367 211.023 212.196 210.976 212.014 210.976C211.832 210.976 211.664 211.02 211.51 211.109C211.356 211.198 211.23 211.328 211.132 211.501C211.039 211.669 210.992 211.87 210.992 212.103C210.992 212.336 211.039 212.542 211.132 212.719C211.23 212.892 211.356 213.025 211.51 213.118C211.669 213.211 211.837 213.258 212.014 213.258C212.196 213.258 212.367 213.214 212.525 213.125C212.684 213.032 212.81 212.901 212.903 212.733C212.997 212.56 213.043 212.355 213.043 212.117Z" fill="#0E74CD"/>
<path d="M215.484 209.716C215.312 209.716 215.167 209.662 215.05 209.555C214.938 209.443 214.882 209.305 214.882 209.142C214.882 208.979 214.938 208.843 215.05 208.736C215.167 208.624 215.312 208.568 215.484 208.568C215.657 208.568 215.799 208.624 215.911 208.736C216.028 208.843 216.086 208.979 216.086 209.142C216.086 209.305 216.028 209.443 215.911 209.555C215.799 209.662 215.657 209.716 215.484 209.716ZM215.967 210.178V214.056H214.987V210.178H215.967Z" fill="#0E74CD"/>
<path d="M221.752 210.122C222.228 210.122 222.61 210.269 222.9 210.563C223.194 210.852 223.341 211.258 223.341 211.781V214.056H222.361V211.914C222.361 211.611 222.284 211.38 222.13 211.221C221.976 211.058 221.766 210.976 221.5 210.976C221.234 210.976 221.021 211.058 220.863 211.221C220.709 211.38 220.632 211.611 220.632 211.914V214.056H219.652V211.914C219.652 211.611 219.575 211.38 219.421 211.221C219.267 211.058 219.057 210.976 218.791 210.976C218.52 210.976 218.305 211.058 218.147 211.221C217.993 211.38 217.916 211.611 217.916 211.914V214.056H216.936V210.178H217.916V210.647C218.042 210.484 218.203 210.355 218.399 210.262C218.599 210.169 218.819 210.122 219.057 210.122C219.36 210.122 219.631 210.187 219.869 210.318C220.107 210.444 220.291 210.626 220.422 210.864C220.548 210.64 220.73 210.46 220.968 210.325C221.21 210.19 221.472 210.122 221.752 210.122Z" fill="#0E74CD"/>
<path d="M225.251 210.738C225.377 210.561 225.549 210.414 225.769 210.297C225.993 210.176 226.247 210.115 226.532 210.115C226.863 210.115 227.162 210.197 227.428 210.36C227.698 210.523 227.911 210.757 228.065 211.06C228.223 211.359 228.303 211.706 228.303 212.103C228.303 212.5 228.223 212.852 228.065 213.16C227.911 213.463 227.698 213.699 227.428 213.867C227.162 214.035 226.863 214.119 226.532 214.119C226.247 214.119 225.995 214.061 225.776 213.944C225.561 213.827 225.386 213.68 225.251 213.503V215.904H224.271V210.178H225.251V210.738ZM227.302 212.103C227.302 211.87 227.253 211.669 227.155 211.501C227.061 211.328 226.935 211.198 226.777 211.109C226.623 211.02 226.455 210.976 226.273 210.976C226.095 210.976 225.927 211.023 225.769 211.116C225.615 211.205 225.489 211.335 225.391 211.508C225.297 211.681 225.251 211.884 225.251 212.117C225.251 212.35 225.297 212.553 225.391 212.726C225.489 212.899 225.615 213.032 225.769 213.125C225.927 213.214 226.095 213.258 226.273 213.258C226.455 213.258 226.623 213.211 226.777 213.118C226.935 213.025 227.061 212.892 227.155 212.719C227.253 212.546 227.302 212.341 227.302 212.103Z" fill="#0E74CD"/>
<path d="M229.995 208.876V214.056H229.015V208.876H229.995Z" fill="#0E74CD"/>
<path d="M234.568 212.033C234.568 212.173 234.559 212.299 234.54 212.411H231.705C231.728 212.691 231.826 212.91 231.999 213.069C232.172 213.228 232.384 213.307 232.636 213.307C233 213.307 233.259 213.151 233.413 212.838H234.47C234.358 213.211 234.143 213.519 233.826 213.762C233.509 214 233.119 214.119 232.657 214.119C232.284 214.119 231.948 214.037 231.649 213.874C231.355 213.706 231.124 213.47 230.956 213.167C230.793 212.864 230.711 212.514 230.711 212.117C230.711 211.716 230.793 211.363 230.956 211.06C231.119 210.757 231.348 210.523 231.642 210.36C231.936 210.197 232.274 210.115 232.657 210.115C233.026 210.115 233.355 210.194 233.644 210.353C233.938 210.512 234.164 210.738 234.323 211.032C234.486 211.321 234.568 211.655 234.568 212.033ZM233.553 211.753C233.548 211.501 233.457 211.3 233.28 211.151C233.103 210.997 232.886 210.92 232.629 210.92C232.386 210.92 232.181 210.995 232.013 211.144C231.85 211.289 231.749 211.492 231.712 211.753H233.553ZM232.643 209.303L231.6 209.891V209.177L232.643 208.61L233.679 209.177V209.891L232.643 209.303Z" fill="#0E74CD"/>
<path d="M237.432 210.122C237.894 210.122 238.268 210.269 238.552 210.563C238.837 210.852 238.979 211.258 238.979 211.781V214.056H237.999V211.914C237.999 211.606 237.922 211.37 237.768 211.207C237.614 211.039 237.404 210.955 237.138 210.955C236.868 210.955 236.653 211.039 236.494 211.207C236.34 211.37 236.263 211.606 236.263 211.914V214.056H235.283V210.178H236.263V210.661C236.394 210.493 236.56 210.362 236.76 210.269C236.966 210.171 237.19 210.122 237.432 210.122Z" fill="#0E74CD"/>
<path d="M239.659 212.117C239.659 211.716 239.741 211.366 239.904 211.067C240.068 210.764 240.294 210.53 240.583 210.367C240.873 210.199 241.204 210.115 241.577 210.115C242.058 210.115 242.455 210.236 242.767 210.479C243.085 210.717 243.297 211.053 243.404 211.487H242.347C242.291 211.319 242.196 211.188 242.06 211.095C241.93 210.997 241.766 210.948 241.57 210.948C241.29 210.948 241.069 211.051 240.905 211.256C240.742 211.457 240.66 211.744 240.66 212.117C240.66 212.486 240.742 212.773 240.905 212.978C241.069 213.179 241.29 213.279 241.57 213.279C241.967 213.279 242.226 213.102 242.347 212.747H243.404C243.297 213.167 243.085 213.501 242.767 213.748C242.45 213.995 242.053 214.119 241.577 214.119C241.204 214.119 240.873 214.037 240.583 213.874C240.294 213.706 240.068 213.473 239.904 213.174C239.741 212.871 239.659 212.518 239.659 212.117Z" fill="#0E74CD"/>
<path d="M244.619 209.716C244.446 209.716 244.302 209.662 244.185 209.555C244.073 209.443 244.017 209.305 244.017 209.142C244.017 208.979 244.073 208.843 244.185 208.736C244.302 208.624 244.446 208.568 244.619 208.568C244.792 208.568 244.934 208.624 245.046 208.736C245.163 208.843 245.221 208.979 245.221 209.142C245.221 209.305 245.163 209.443 245.046 209.555C244.934 209.662 244.792 209.716 244.619 209.716ZM245.102 210.178V214.056H244.122V210.178H245.102Z" fill="#0E74CD"/>
<path d="M245.818 212.103C245.818 211.711 245.895 211.363 246.049 211.06C246.208 210.757 246.42 210.523 246.686 210.36C246.957 210.197 247.258 210.115 247.589 210.115C247.879 210.115 248.131 210.173 248.345 210.29C248.565 210.407 248.74 210.554 248.87 210.731V210.178H249.857V214.056H248.87V213.489C248.744 213.671 248.569 213.823 248.345 213.944C248.126 214.061 247.872 214.119 247.582 214.119C247.256 214.119 246.957 214.035 246.686 213.867C246.42 213.699 246.208 213.463 246.049 213.16C245.895 212.852 245.818 212.5 245.818 212.103ZM248.87 212.117C248.87 211.879 248.824 211.676 248.73 211.508C248.637 211.335 248.511 211.205 248.352 211.116C248.194 211.023 248.023 210.976 247.841 210.976C247.659 210.976 247.491 211.02 247.337 211.109C247.183 211.198 247.057 211.328 246.959 211.501C246.866 211.669 246.819 211.87 246.819 212.103C246.819 212.336 246.866 212.542 246.959 212.719C247.057 212.892 247.183 213.025 247.337 213.118C247.496 213.211 247.664 213.258 247.841 213.258C248.023 213.258 248.194 213.214 248.352 213.125C248.511 213.032 248.637 212.901 248.73 212.733C248.824 212.56 248.87 212.355 248.87 212.117Z" fill="#0E74CD"/>
<path d="M298.644 209.246H295.524V210.626C295.658 210.479 295.844 210.359 296.084 210.266C296.324 210.173 296.584 210.126 296.864 210.126C297.364 210.126 297.778 210.239 298.104 210.466C298.438 210.693 298.681 210.986 298.834 211.346C298.988 211.706 299.064 212.096 299.064 212.516C299.064 213.296 298.844 213.916 298.404 214.376C297.964 214.829 297.344 215.056 296.544 215.056C296.011 215.056 295.548 214.966 295.154 214.786C294.761 214.599 294.458 214.343 294.244 214.016C294.031 213.689 293.914 213.313 293.894 212.886H295.564C295.604 213.093 295.701 213.266 295.854 213.406C296.008 213.539 296.218 213.606 296.484 213.606C296.798 213.606 297.031 213.506 297.184 213.306C297.338 213.106 297.414 212.839 297.414 212.506C297.414 212.179 297.334 211.929 297.174 211.756C297.014 211.583 296.781 211.496 296.474 211.496C296.248 211.496 296.061 211.553 295.914 211.666C295.768 211.773 295.671 211.916 295.624 212.096H293.974V207.746H298.644V209.246Z" fill="#147BD4"/>
<path d="M299.868 209.596C299.868 209.056 300.021 208.639 300.328 208.346C300.641 208.053 301.045 207.906 301.538 207.906C302.031 207.906 302.431 208.053 302.738 208.346C303.045 208.639 303.198 209.056 303.198 209.596C303.198 210.136 303.045 210.553 302.738 210.846C302.431 211.139 302.031 211.286 301.538 211.286C301.045 211.286 300.641 211.139 300.328 210.846C300.021 210.553 299.868 210.136 299.868 209.596ZM306.658 208.016L302.808 215.056H301.158L305.008 208.016H306.658ZM301.528 208.906C301.208 208.906 301.048 209.136 301.048 209.596C301.048 210.049 301.208 210.276 301.528 210.276C301.681 210.276 301.801 210.219 301.888 210.106C301.975 209.993 302.018 209.823 302.018 209.596C302.018 209.136 301.855 208.906 301.528 208.906ZM304.628 213.476C304.628 212.936 304.781 212.519 305.088 212.226C305.395 211.933 305.795 211.786 306.288 211.786C306.781 211.786 307.181 211.933 307.488 212.226C307.795 212.519 307.948 212.936 307.948 213.476C307.948 214.016 307.795 214.433 307.488 214.726C307.181 215.019 306.781 215.166 306.288 215.166C305.795 215.166 305.395 215.019 305.088 214.726C304.781 214.433 304.628 214.016 304.628 213.476ZM306.278 212.786C306.125 212.786 306.005 212.843 305.918 212.956C305.838 213.069 305.798 213.243 305.798 213.476C305.798 213.929 305.958 214.156 306.278 214.156C306.431 214.156 306.551 214.099 306.638 213.986C306.725 213.873 306.768 213.703 306.768 213.476C306.768 213.249 306.725 213.079 306.638 212.966C306.551 212.846 306.431 212.786 306.278 212.786Z" fill="#147BD4"/>
<rect x="176.544" y="222.325" width="154" height="28" rx="6" fill="white"/>
<path d="M191.555 239.29L190.477 237.386H190.015V239.29H189.035V234.404H190.869C191.247 234.404 191.569 234.472 191.835 234.607C192.101 234.738 192.3 234.918 192.43 235.146C192.566 235.37 192.633 235.622 192.633 235.902C192.633 236.224 192.54 236.516 192.353 236.777C192.167 237.034 191.889 237.211 191.52 237.309L192.689 239.29H191.555ZM190.015 236.651H190.834C191.1 236.651 191.299 236.588 191.429 236.462C191.56 236.332 191.625 236.152 191.625 235.923C191.625 235.699 191.56 235.527 191.429 235.405C191.299 235.279 191.1 235.216 190.834 235.216H190.015V236.651Z" fill="#0E74CD"/>
<path d="M194.017 234.95C193.844 234.95 193.699 234.897 193.583 234.789C193.471 234.677 193.415 234.54 193.415 234.376C193.415 234.213 193.471 234.078 193.583 233.97C193.699 233.858 193.844 233.802 194.017 233.802C194.189 233.802 194.332 233.858 194.444 233.97C194.56 234.078 194.619 234.213 194.619 234.376C194.619 234.54 194.56 234.677 194.444 234.789C194.332 234.897 194.189 234.95 194.017 234.95ZM194.5 235.412V239.29H193.52V235.412H194.5Z" fill="#0E74CD"/>
<path d="M196.952 239.353C196.635 239.353 196.35 239.297 196.098 239.185C195.846 239.069 195.645 238.912 195.496 238.716C195.351 238.52 195.272 238.303 195.258 238.065H196.245C196.264 238.215 196.336 238.338 196.462 238.436C196.593 238.534 196.754 238.583 196.945 238.583C197.132 238.583 197.276 238.546 197.379 238.471C197.486 238.397 197.54 238.301 197.54 238.184C197.54 238.058 197.475 237.965 197.344 237.904C197.218 237.839 197.015 237.769 196.735 237.694C196.446 237.624 196.208 237.552 196.021 237.477C195.839 237.403 195.68 237.288 195.545 237.134C195.414 236.98 195.349 236.773 195.349 236.511C195.349 236.297 195.41 236.101 195.531 235.923C195.657 235.746 195.834 235.606 196.063 235.503C196.296 235.401 196.569 235.349 196.882 235.349C197.344 235.349 197.713 235.466 197.988 235.699C198.263 235.928 198.415 236.238 198.443 236.63H197.505C197.491 236.476 197.426 236.355 197.309 236.266C197.197 236.173 197.045 236.126 196.854 236.126C196.677 236.126 196.539 236.159 196.441 236.224C196.348 236.29 196.301 236.381 196.301 236.497C196.301 236.628 196.366 236.728 196.497 236.798C196.628 236.864 196.831 236.931 197.106 237.001C197.386 237.071 197.617 237.144 197.799 237.218C197.981 237.293 198.137 237.41 198.268 237.568C198.403 237.722 198.473 237.928 198.478 238.184C198.478 238.408 198.415 238.609 198.289 238.786C198.168 238.964 197.99 239.104 197.757 239.206C197.528 239.304 197.26 239.353 196.952 239.353Z" fill="#0E74CD"/>
<path d="M199.031 237.351C199.031 236.95 199.112 236.6 199.276 236.301C199.439 235.998 199.665 235.765 199.955 235.601C200.244 235.433 200.575 235.349 200.949 235.349C201.429 235.349 201.826 235.471 202.139 235.713C202.456 235.951 202.668 236.287 202.776 236.721H201.719C201.663 236.553 201.567 236.423 201.432 236.329C201.301 236.231 201.138 236.182 200.942 236.182C200.662 236.182 200.44 236.285 200.277 236.49C200.113 236.691 200.032 236.978 200.032 237.351C200.032 237.72 200.113 238.007 200.277 238.212C200.44 238.413 200.662 238.513 200.942 238.513C201.338 238.513 201.597 238.336 201.719 237.981H202.776C202.668 238.401 202.456 238.735 202.139 238.982C201.821 239.23 201.425 239.353 200.949 239.353C200.575 239.353 200.244 239.272 199.955 239.108C199.665 238.94 199.439 238.707 199.276 238.408C199.112 238.105 199.031 237.753 199.031 237.351Z" fill="#0E74CD"/>
<path d="M205.215 239.353C204.842 239.353 204.506 239.272 204.207 239.108C203.909 238.94 203.673 238.705 203.5 238.401C203.332 238.098 203.248 237.748 203.248 237.351C203.248 236.955 203.335 236.605 203.507 236.301C203.685 235.998 203.925 235.765 204.228 235.601C204.532 235.433 204.87 235.349 205.243 235.349C205.617 235.349 205.955 235.433 206.258 235.601C206.562 235.765 206.8 235.998 206.972 236.301C207.15 236.605 207.238 236.955 207.238 237.351C207.238 237.748 207.147 238.098 206.965 238.401C206.788 238.705 206.545 238.94 206.237 239.108C205.934 239.272 205.593 239.353 205.215 239.353ZM205.215 238.499C205.393 238.499 205.558 238.457 205.712 238.373C205.871 238.285 205.997 238.154 206.09 237.981C206.184 237.809 206.23 237.599 206.23 237.351C206.23 236.983 206.132 236.7 205.936 236.504C205.745 236.304 205.509 236.203 205.229 236.203C204.949 236.203 204.714 236.304 204.522 236.504C204.336 236.7 204.242 236.983 204.242 237.351C204.242 237.72 204.333 238.005 204.515 238.205C204.702 238.401 204.935 238.499 205.215 238.499Z" fill="#0E74CD"/>
<path d="M209.373 237.337C209.373 236.945 209.45 236.598 209.604 236.294C209.763 235.991 209.978 235.758 210.248 235.594C210.519 235.431 210.82 235.349 211.151 235.349C211.403 235.349 211.644 235.405 211.872 235.517C212.101 235.625 212.283 235.769 212.418 235.951V234.11H213.412V239.29H212.418V238.716C212.297 238.908 212.127 239.062 211.907 239.178C211.688 239.295 211.434 239.353 211.144 239.353C210.818 239.353 210.519 239.269 210.248 239.101C209.978 238.933 209.763 238.698 209.604 238.394C209.45 238.086 209.373 237.734 209.373 237.337ZM212.425 237.351C212.425 237.113 212.379 236.91 212.285 236.742C212.192 236.57 212.066 236.439 211.907 236.35C211.749 236.257 211.578 236.21 211.396 236.21C211.214 236.21 211.046 236.255 210.892 236.343C210.738 236.432 210.612 236.563 210.514 236.735C210.421 236.903 210.374 237.104 210.374 237.337C210.374 237.571 210.421 237.776 210.514 237.953C210.612 238.126 210.738 238.259 210.892 238.352C211.051 238.446 211.219 238.492 211.396 238.492C211.578 238.492 211.749 238.448 211.907 238.359C212.066 238.266 212.192 238.135 212.285 237.967C212.379 237.795 212.425 237.589 212.425 237.351Z" fill="#0E74CD"/>
<path d="M217.974 237.267C217.974 237.407 217.965 237.533 217.946 237.645H215.111C215.135 237.925 215.233 238.145 215.405 238.303C215.578 238.462 215.79 238.541 216.042 238.541C216.406 238.541 216.665 238.385 216.819 238.072H217.876C217.764 238.446 217.55 238.754 217.232 238.996C216.915 239.234 216.525 239.353 216.063 239.353C215.69 239.353 215.354 239.272 215.055 239.108C214.761 238.94 214.53 238.705 214.362 238.401C214.199 238.098 214.117 237.748 214.117 237.351C214.117 236.95 214.199 236.598 214.362 236.294C214.526 235.991 214.754 235.758 215.048 235.594C215.342 235.431 215.681 235.349 216.063 235.349C216.432 235.349 216.761 235.429 217.05 235.587C217.344 235.746 217.571 235.972 217.729 236.266C217.893 236.556 217.974 236.889 217.974 237.267ZM216.959 236.987C216.955 236.735 216.864 236.535 216.686 236.385C216.509 236.231 216.292 236.154 216.035 236.154C215.793 236.154 215.587 236.229 215.419 236.378C215.256 236.523 215.156 236.726 215.118 236.987H216.959Z" fill="#0E74CD"/>
<path d="M220.106 237.351C220.106 236.95 220.187 236.6 220.351 236.301C220.514 235.998 220.74 235.765 221.03 235.601C221.319 235.433 221.65 235.349 222.024 235.349C222.504 235.349 222.901 235.471 223.214 235.713C223.531 235.951 223.743 236.287 223.851 236.721H222.794C222.738 236.553 222.642 236.423 222.507 236.329C222.376 236.231 222.213 236.182 222.017 236.182C221.737 236.182 221.515 236.285 221.352 236.49C221.188 236.691 221.107 236.978 221.107 237.351C221.107 237.72 221.188 238.007 221.352 238.212C221.515 238.413 221.737 238.513 222.017 238.513C222.413 238.513 222.672 238.336 222.794 237.981H223.851C223.743 238.401 223.531 238.735 223.214 238.982C222.896 239.23 222.5 239.353 222.024 239.353C221.65 239.353 221.319 239.272 221.03 239.108C220.74 238.94 220.514 238.707 220.351 238.408C220.187 238.105 220.106 237.753 220.106 237.351Z" fill="#0E74CD"/>
<path d="M225.549 236.014C225.675 235.809 225.838 235.648 226.039 235.531C226.244 235.415 226.477 235.356 226.739 235.356V236.385H226.48C226.172 236.385 225.938 236.458 225.78 236.602C225.626 236.747 225.549 236.999 225.549 237.358V239.29H224.569V235.412H225.549V236.014Z" fill="#0E74CD"/>
<path d="M231.004 237.267C231.004 237.407 230.994 237.533 230.976 237.645H228.141C228.164 237.925 228.262 238.145 228.435 238.303C228.607 238.462 228.82 238.541 229.072 238.541C229.436 238.541 229.695 238.385 229.849 238.072H230.906C230.794 238.446 230.579 238.754 230.262 238.996C229.944 239.234 229.555 239.353 229.093 239.353C228.719 239.353 228.383 239.272 228.085 239.108C227.791 238.94 227.56 238.705 227.392 238.401C227.228 238.098 227.147 237.748 227.147 237.351C227.147 236.95 227.228 236.598 227.392 236.294C227.555 235.991 227.784 235.758 228.078 235.594C228.372 235.431 228.71 235.349 229.093 235.349C229.461 235.349 229.79 235.429 230.08 235.587C230.374 235.746 230.6 235.972 230.759 236.266C230.922 236.556 231.004 236.889 231.004 237.267ZM229.989 236.987C229.984 236.735 229.893 236.535 229.716 236.385C229.538 236.231 229.321 236.154 229.065 236.154C228.822 236.154 228.617 236.229 228.449 236.378C228.285 236.523 228.185 236.726 228.148 236.987H229.989ZM229.842 234.39L228.232 235.125V234.425L229.842 233.592V234.39Z" fill="#0E74CD"/>
<path d="M231.467 237.337C231.467 236.945 231.544 236.598 231.698 236.294C231.857 235.991 232.071 235.758 232.342 235.594C232.613 235.431 232.914 235.349 233.245 235.349C233.497 235.349 233.737 235.405 233.966 235.517C234.195 235.625 234.377 235.769 234.512 235.951V234.11H235.506V239.29H234.512V238.716C234.391 238.908 234.22 239.062 234.001 239.178C233.782 239.295 233.527 239.353 233.238 239.353C232.911 239.353 232.613 239.269 232.342 239.101C232.071 238.933 231.857 238.698 231.698 238.394C231.544 238.086 231.467 237.734 231.467 237.337ZM234.519 237.351C234.519 237.113 234.472 236.91 234.379 236.742C234.286 236.57 234.16 236.439 234.001 236.35C233.842 236.257 233.672 236.21 233.49 236.21C233.308 236.21 233.14 236.255 232.986 236.343C232.832 236.432 232.706 236.563 232.608 236.735C232.515 236.903 232.468 237.104 232.468 237.337C232.468 237.571 232.515 237.776 232.608 237.953C232.706 238.126 232.832 238.259 232.986 238.352C233.145 238.446 233.313 238.492 233.49 238.492C233.672 238.492 233.842 238.448 234.001 238.359C234.16 238.266 234.286 238.135 234.379 237.967C234.472 237.795 234.519 237.589 234.519 237.351Z" fill="#0E74CD"/>
<path d="M236.96 234.95C236.788 234.95 236.643 234.897 236.526 234.789C236.414 234.677 236.358 234.54 236.358 234.376C236.358 234.213 236.414 234.078 236.526 233.97C236.643 233.858 236.788 233.802 236.96 233.802C237.133 233.802 237.275 233.858 237.387 233.97C237.504 234.078 237.562 234.213 237.562 234.376C237.562 234.54 237.504 234.677 237.387 234.789C237.275 234.897 237.133 234.95 236.96 234.95ZM237.443 235.412V239.29H236.463V235.412H237.443Z" fill="#0E74CD"/>
<path d="M239.552 236.217V238.093C239.552 238.224 239.583 238.32 239.643 238.38C239.709 238.436 239.816 238.464 239.965 238.464H240.42V239.29H239.804C238.978 239.29 238.565 238.889 238.565 238.086V236.217H238.103V235.412H238.565V234.453H239.552V235.412H240.42V236.217H239.552Z" fill="#0E74CD"/>
<path d="M242.847 239.353C242.474 239.353 242.138 239.272 241.839 239.108C241.541 238.94 241.305 238.705 241.132 238.401C240.964 238.098 240.88 237.748 240.88 237.351C240.88 236.955 240.967 236.605 241.139 236.301C241.317 235.998 241.557 235.765 241.86 235.601C242.164 235.433 242.502 235.349 242.875 235.349C243.249 235.349 243.587 235.433 243.89 235.601C244.194 235.765 244.432 235.998 244.604 236.301C244.782 236.605 244.87 236.955 244.87 237.351C244.87 237.748 244.779 238.098 244.597 238.401C244.42 238.705 244.177 238.94 243.869 239.108C243.566 239.272 243.225 239.353 242.847 239.353ZM242.847 238.499C243.025 238.499 243.19 238.457 243.344 238.373C243.503 238.285 243.629 238.154 243.722 237.981C243.816 237.809 243.862 237.599 243.862 237.351C243.862 236.983 243.764 236.7 243.568 236.504C243.377 236.304 243.141 236.203 242.861 236.203C242.581 236.203 242.346 236.304 242.154 236.504C241.968 236.7 241.874 236.983 241.874 237.351C241.874 237.72 241.965 238.005 242.147 238.205C242.334 238.401 242.567 238.499 242.847 238.499Z" fill="#0E74CD"/>
<path d="M294.635 236.69C295.042 236.777 295.369 236.98 295.615 237.3C295.862 237.614 295.985 237.974 295.985 238.38C295.985 238.967 295.779 239.434 295.365 239.78C294.959 240.12 294.389 240.29 293.655 240.29H290.385V233.27H293.545C294.259 233.27 294.815 233.434 295.215 233.76C295.622 234.087 295.825 234.53 295.825 235.09C295.825 235.504 295.715 235.847 295.495 236.12C295.282 236.394 294.995 236.584 294.635 236.69ZM292.095 236.11H293.215C293.495 236.11 293.709 236.05 293.855 235.93C294.009 235.804 294.085 235.62 294.085 235.38C294.085 235.14 294.009 234.957 293.855 234.83C293.709 234.704 293.495 234.64 293.215 234.64H292.095V236.11ZM293.355 238.91C293.642 238.91 293.862 238.847 294.015 238.72C294.175 238.587 294.255 238.397 294.255 238.15C294.255 237.904 294.172 237.71 294.005 237.57C293.845 237.43 293.622 237.36 293.335 237.36H292.095V238.91H293.355Z" fill="#147BD4"/>
<path d="M296.637 237.49C296.637 236.917 296.744 236.414 296.957 235.98C297.177 235.547 297.474 235.214 297.847 234.98C298.22 234.747 298.637 234.63 299.097 234.63C299.49 234.63 299.834 234.71 300.127 234.87C300.427 235.03 300.657 235.24 300.817 235.5V234.71H302.527V240.29H300.817V239.5C300.65 239.76 300.417 239.97 300.117 240.13C299.824 240.29 299.48 240.37 299.087 240.37C298.634 240.37 298.22 240.254 297.847 240.02C297.474 239.78 297.177 239.444 296.957 239.01C296.744 238.57 296.637 238.064 296.637 237.49ZM300.817 237.5C300.817 237.074 300.697 236.737 300.457 236.49C300.224 236.244 299.937 236.12 299.597 236.12C299.257 236.12 298.967 236.244 298.727 236.49C298.494 236.73 298.377 237.064 298.377 237.49C298.377 237.917 298.494 238.257 298.727 238.51C298.967 238.757 299.257 238.88 299.597 238.88C299.937 238.88 300.224 238.757 300.457 238.51C300.697 238.264 300.817 237.927 300.817 237.5Z" fill="#147BD4"/>
<path d="M304.624 234.13C304.324 234.13 304.078 234.044 303.884 233.87C303.698 233.69 303.604 233.47 303.604 233.21C303.604 232.944 303.698 232.724 303.884 232.55C304.078 232.37 304.324 232.28 304.624 232.28C304.918 232.28 305.158 232.37 305.344 232.55C305.538 232.724 305.634 232.944 305.634 233.21C305.634 233.47 305.538 233.69 305.344 233.87C305.158 234.044 304.918 234.13 304.624 234.13ZM305.474 234.71V240.29H303.764V234.71H305.474Z" fill="#147BD4"/>
<path d="M310.013 240.29L308.943 238.74L308.043 240.29H306.193L308.033 237.44L306.143 234.71H308.063L309.133 236.25L310.033 234.71H311.883L310.013 237.52L311.933 240.29H310.013Z" fill="#147BD4"/>
<path d="M315.132 240.37C314.586 240.37 314.092 240.254 313.652 240.02C313.219 239.787 312.876 239.454 312.622 239.02C312.376 238.587 312.252 238.08 312.252 237.5C312.252 236.927 312.379 236.424 312.632 235.99C312.886 235.55 313.232 235.214 313.672 234.98C314.112 234.747 314.606 234.63 315.152 234.63C315.699 234.63 316.192 234.747 316.632 234.98C317.072 235.214 317.419 235.55 317.672 235.99C317.926 236.424 318.052 236.927 318.052 237.5C318.052 238.074 317.922 238.58 317.662 239.02C317.409 239.454 317.059 239.787 316.612 240.02C316.172 240.254 315.679 240.37 315.132 240.37ZM315.132 238.89C315.459 238.89 315.736 238.77 315.962 238.53C316.196 238.29 316.312 237.947 316.312 237.5C316.312 237.054 316.199 236.71 315.972 236.47C315.752 236.23 315.479 236.11 315.152 236.11C314.819 236.11 314.542 236.23 314.322 236.47C314.102 236.704 313.992 237.047 313.992 237.5C313.992 237.947 314.099 238.29 314.312 238.53C314.532 238.77 314.806 238.89 315.132 238.89Z" fill="#147BD4"/>
<rect x="185.544" y="246.325" width="155" height="32" rx="6" fill="#00479E"/>
<path d="M201.77 265.616L200.23 262.896H199.57V265.616H198.17V258.636H200.79C201.33 258.636 201.79 258.733 202.17 258.926C202.55 259.113 202.833 259.37 203.02 259.696C203.213 260.016 203.31 260.376 203.31 260.776C203.31 261.236 203.177 261.653 202.91 262.026C202.643 262.393 202.247 262.646 201.72 262.786L203.39 265.616H201.77ZM199.57 261.846H200.74C201.12 261.846 201.403 261.756 201.59 261.576C201.777 261.39 201.87 261.133 201.87 260.806C201.87 260.486 201.777 260.24 201.59 260.066C201.403 259.886 201.12 259.796 200.74 259.796H199.57V261.846Z" fill="white"/>
<path d="M204.216 262.826C204.216 262.266 204.326 261.77 204.546 261.336C204.773 260.903 205.076 260.57 205.456 260.336C205.843 260.103 206.273 259.986 206.746 259.986C207.159 259.986 207.519 260.07 207.826 260.236C208.139 260.403 208.389 260.613 208.576 260.866V260.076H209.986V265.616H208.576V264.806C208.396 265.066 208.146 265.283 207.826 265.456C207.513 265.623 207.149 265.706 206.736 265.706C206.269 265.706 205.843 265.586 205.456 265.346C205.076 265.106 204.773 264.77 204.546 264.336C204.326 263.896 204.216 263.393 204.216 262.826ZM208.576 262.846C208.576 262.506 208.509 262.216 208.376 261.976C208.243 261.73 208.063 261.543 207.836 261.416C207.609 261.283 207.366 261.216 207.106 261.216C206.846 261.216 206.606 261.28 206.386 261.406C206.166 261.533 205.986 261.72 205.846 261.966C205.713 262.206 205.646 262.493 205.646 262.826C205.646 263.16 205.713 263.453 205.846 263.706C205.986 263.953 206.166 264.143 206.386 264.276C206.613 264.41 206.853 264.476 207.106 264.476C207.366 264.476 207.609 264.413 207.836 264.286C208.063 264.153 208.243 263.966 208.376 263.726C208.509 263.48 208.576 263.186 208.576 262.846Z" fill="white"/>
<path d="M212.983 261.226V263.906C212.983 264.093 213.027 264.23 213.113 264.316C213.207 264.396 213.36 264.436 213.573 264.436H214.223V265.616H213.343C212.163 265.616 211.573 265.043 211.573 263.896V261.226H210.913V260.076H211.573V258.706H212.983V260.076H214.223V261.226H212.983Z" fill="white"/>
<path d="M215.94 259.416C215.694 259.416 215.487 259.34 215.32 259.186C215.16 259.026 215.08 258.83 215.08 258.596C215.08 258.363 215.16 258.17 215.32 258.016C215.487 257.856 215.694 257.776 215.94 257.776C216.187 257.776 216.39 257.856 216.55 258.016C216.717 258.17 216.8 258.363 216.8 258.596C216.8 258.83 216.717 259.026 216.55 259.186C216.39 259.34 216.187 259.416 215.94 259.416ZM216.63 260.076V265.616H215.23V260.076H216.63Z" fill="white"/>
<path d="M221.084 259.996C221.744 259.996 222.277 260.206 222.684 260.626C223.09 261.04 223.294 261.62 223.294 262.366V265.616H221.894V262.556C221.894 262.116 221.784 261.78 221.564 261.546C221.344 261.306 221.044 261.186 220.664 261.186C220.277 261.186 219.97 261.306 219.744 261.546C219.524 261.78 219.414 262.116 219.414 262.556V265.616H218.014V260.076H219.414V260.766C219.6 260.526 219.837 260.34 220.124 260.206C220.417 260.066 220.737 259.996 221.084 259.996Z" fill="white"/>
<path d="M226.795 259.986C227.208 259.986 227.572 260.07 227.885 260.236C228.198 260.396 228.445 260.606 228.625 260.866V260.076H230.035V265.656C230.035 266.17 229.932 266.626 229.725 267.026C229.518 267.433 229.208 267.753 228.795 267.986C228.382 268.226 227.882 268.346 227.295 268.346C226.508 268.346 225.862 268.163 225.355 267.796C224.855 267.43 224.572 266.93 224.505 266.296H225.895C225.968 266.55 226.125 266.75 226.365 266.896C226.612 267.05 226.908 267.126 227.255 267.126C227.662 267.126 227.992 267.003 228.245 266.756C228.498 266.516 228.625 266.15 228.625 265.656V264.796C228.445 265.056 228.195 265.273 227.875 265.446C227.562 265.62 227.202 265.706 226.795 265.706C226.328 265.706 225.902 265.586 225.515 265.346C225.128 265.106 224.822 264.77 224.595 264.336C224.375 263.896 224.265 263.393 224.265 262.826C224.265 262.266 224.375 261.77 224.595 261.336C224.822 260.903 225.125 260.57 225.505 260.336C225.892 260.103 226.322 259.986 226.795 259.986ZM228.625 262.846C228.625 262.506 228.558 262.216 228.425 261.976C228.292 261.73 228.112 261.543 227.885 261.416C227.658 261.283 227.415 261.216 227.155 261.216C226.895 261.216 226.655 261.28 226.435 261.406C226.215 261.533 226.035 261.72 225.895 261.966C225.762 262.206 225.695 262.493 225.695 262.826C225.695 263.16 225.762 263.453 225.895 263.706C226.035 263.953 226.215 264.143 226.435 264.276C226.662 264.41 226.902 264.476 227.155 264.476C227.415 264.476 227.658 264.413 227.885 264.286C228.112 264.153 228.292 263.966 228.425 263.726C228.558 263.48 228.625 263.186 228.625 262.846Z" fill="white"/>
<path d="M324.426 266.222H319.422L318.594 268.616H315.948L320.466 256.034H323.4L327.918 268.616H325.254L324.426 266.222ZM323.742 264.206L321.924 258.95L320.106 264.206H323.742Z" fill="white"/>
<g filter="url(#filter0_d_10108_8144)">
<rect y="92.6748" width="166.544" height="166.325" rx="24" fill="#459CE8" fill-opacity="0.7" shape-rendering="crispEdges"/>
<path d="M36.617 222.383C34.5327 224.467 31.1363 224.48 29.214 222.245C21.2377 212.973 15.7652 201.775 13.3674 189.721C10.6216 175.916 12.0308 161.608 17.417 148.605C22.8031 135.601 31.9242 124.487 43.6268 116.668C55.3294 108.848 69.088 104.675 83.1626 104.675C97.2373 104.675 110.996 108.848 122.698 116.668C134.401 124.487 143.522 135.601 148.908 148.605C154.294 161.608 155.704 175.916 152.958 189.721C150.56 201.775 145.088 212.973 137.111 222.245C135.189 224.48 131.793 224.467 129.708 222.383V222.383C127.624 220.299 127.645 216.933 129.537 214.673C136.036 206.913 140.503 197.622 142.489 187.638C144.823 175.905 143.625 163.742 139.046 152.69C134.468 141.637 126.715 132.19 116.768 125.543C106.821 118.897 95.1261 115.349 83.1626 115.349C71.1992 115.349 59.5044 118.897 49.5572 125.543C39.6099 132.19 31.857 141.637 27.2788 152.69C22.7006 163.742 21.5027 175.905 23.8367 187.638C25.8225 197.622 30.2893 206.913 36.7882 214.673C38.6807 216.933 38.7013 220.299 36.617 222.383V222.383Z" fill="white" fill-opacity="0.3"/>
<path d="M36.8357 222.383C34.7514 224.467 31.3549 224.48 29.4326 222.245C22.0954 213.716 16.8678 203.547 14.2117 192.561C11.1366 179.843 11.6277 166.523 15.6311 154.065C19.6345 141.608 26.9951 130.495 36.9039 121.949C46.8126 113.403 58.8858 107.754 71.7963 105.624C84.7068 103.494 97.9546 104.965 110.084 109.875C122.213 114.784 132.753 122.943 140.546 133.455C148.339 143.966 153.083 156.422 154.257 169.454C155.271 180.711 153.587 192.02 149.379 202.454C148.276 205.188 145.056 206.267 142.412 204.963V204.963C139.769 203.659 138.707 200.465 139.774 197.717C143.134 189.056 144.463 179.713 143.626 170.412C142.628 159.334 138.596 148.746 131.971 139.812C125.347 130.877 116.388 123.942 106.078 119.769C95.7686 115.596 84.508 114.345 73.534 116.156C62.5601 117.967 52.2979 122.768 43.8755 130.032C35.453 137.296 29.1965 146.742 25.7936 157.331C22.3908 167.92 21.9733 179.242 24.5872 190.053C26.7818 199.13 31.0419 207.551 37.0069 214.674C38.8994 216.933 38.92 220.299 36.8357 222.383V222.383Z" fill="url(#paint0_linear_10108_8144)"/>
<circle cx="143.497" cy="202.349" r="6.40073" fill="white" stroke="#00479E" stroke-width="2"/>
<path d="M118.951 195.268C119.578 195.583 120.342 195.329 120.656 194.702C120.971 194.075 120.718 193.311 120.091 192.996L87.4474 170.215L87.4346 170.241C87.2561 170.13 87.071 170.026 86.8795 169.93C83.4296 168.199 79.2293 169.592 77.4979 173.042C75.7665 176.492 77.1596 180.692 80.6095 182.423C80.8009 182.52 80.9947 182.606 81.1902 182.683L81.1774 182.708L118.951 195.268Z" fill="white"/>
<circle cx="83.3813" cy="175.838" r="3.1769" fill="#1177D0"/>
<path d="M68.3174 239.67V233.283H69.4955V240.761H68.4294L68.3174 239.67ZM64.8904 238.186V238.083C64.8904 237.684 64.9374 237.321 65.0316 236.993C65.1257 236.662 65.262 236.378 65.4405 236.141C65.619 235.901 65.8364 235.717 66.0928 235.591C66.3492 235.461 66.638 235.396 66.9593 235.396C67.2773 235.396 67.5564 235.458 67.7966 235.581C68.0367 235.704 68.2412 235.881 68.4099 236.112C68.5787 236.339 68.7134 236.612 68.814 236.93C68.9146 237.244 68.986 237.595 69.0282 237.981V238.307C68.986 238.684 68.9146 239.028 68.814 239.339C68.7134 239.651 68.5787 239.92 68.4099 240.147C68.2412 240.374 68.0351 240.55 67.7917 240.673C67.5515 240.796 67.2708 240.858 66.9495 240.858C66.6315 240.858 66.3443 240.792 66.0879 240.658C65.8348 240.525 65.619 240.339 65.4405 240.099C65.262 239.858 65.1257 239.576 65.0316 239.252C64.9374 238.924 64.8904 238.568 64.8904 238.186ZM66.0636 238.083V238.186C66.0636 238.426 66.0847 238.65 66.1269 238.857C66.1723 239.065 66.2421 239.248 66.3362 239.407C66.4303 239.563 66.552 239.686 66.7013 239.777C66.8538 239.865 67.0355 239.909 67.2465 239.909C67.5126 239.909 67.7317 239.85 67.9037 239.734C68.0757 239.617 68.2104 239.459 68.3077 239.261C68.4083 239.06 68.4765 238.836 68.5122 238.59V237.708C68.4927 237.517 68.4521 237.338 68.3905 237.173C68.3321 237.007 68.2525 236.863 68.1519 236.74C68.0513 236.613 67.9264 236.516 67.7771 236.448C67.6311 236.376 67.4574 236.341 67.2562 236.341C67.042 236.341 66.8603 236.386 66.711 236.477C66.5617 236.568 66.4384 236.693 66.341 236.852C66.2469 237.011 66.1772 237.196 66.1317 237.407C66.0863 237.618 66.0636 237.843 66.0636 238.083Z" fill="white" fill-opacity="0.65"/>
<path d="M73.2437 240.858C72.8542 240.858 72.5021 240.795 72.1873 240.668C71.8758 240.538 71.6096 240.358 71.389 240.128C71.1715 239.897 71.0044 239.626 70.8876 239.315C70.7707 239.003 70.7123 238.667 70.7123 238.307V238.112C70.7123 237.7 70.7723 237.327 70.8924 236.993C71.0125 236.659 71.1796 236.373 71.3938 236.136C71.608 235.896 71.8611 235.713 72.1532 235.586C72.4453 235.459 72.7617 235.396 73.1025 235.396C73.4789 235.396 73.8083 235.459 74.0907 235.586C74.373 235.713 74.6067 235.891 74.7917 236.121C74.9799 236.349 75.1195 236.62 75.2103 236.934C75.3044 237.249 75.3515 237.596 75.3515 237.976V238.478H71.2819V237.635H74.1929V237.543C74.1864 237.332 74.1442 237.134 74.0663 236.949C73.9917 236.764 73.8765 236.615 73.7207 236.501C73.5649 236.388 73.3572 236.331 73.0976 236.331C72.9029 236.331 72.7293 236.373 72.5767 236.457C72.4275 236.539 72.3025 236.657 72.2019 236.813C72.1013 236.969 72.0234 237.157 71.9682 237.377C71.9163 237.595 71.8904 237.84 71.8904 238.112V238.307C71.8904 238.538 71.9212 238.752 71.9828 238.95C72.0478 239.145 72.1419 239.315 72.2652 239.461C72.3885 239.607 72.5378 239.722 72.713 239.807C72.8883 239.888 73.0879 239.928 73.3118 239.928C73.5942 239.928 73.8457 239.871 74.0663 239.758C74.287 239.644 74.4785 239.484 74.6408 239.276L75.259 239.875C75.1454 240.04 74.9978 240.199 74.816 240.352C74.6343 240.501 74.412 240.623 74.1491 240.717C73.8895 240.811 73.5877 240.858 73.2437 240.858Z" fill="white" fill-opacity="0.65"/>
<path d="M82.2831 233.649V240.761H81.1099V235.041L79.3721 235.63V234.661L82.142 233.649H82.2831Z" fill="white" fill-opacity="0.65"/>
<path d="M89.5654 236.623V237.781C89.5654 238.336 89.5103 238.81 89.3999 239.203C89.2928 239.592 89.1371 239.909 88.9326 240.152C88.7282 240.396 88.4831 240.574 88.1975 240.688C87.9152 240.801 87.5988 240.858 87.2483 240.858C86.9692 240.858 86.7096 240.822 86.4694 240.751C86.2325 240.68 86.0183 240.568 85.8268 240.415C85.6354 240.263 85.4715 240.066 85.3352 239.826C85.2021 239.583 85.0983 239.292 85.0236 238.955C84.9522 238.617 84.9165 238.226 84.9165 237.781V236.623C84.9165 236.065 84.9717 235.594 85.082 235.211C85.1924 234.825 85.3498 234.512 85.5542 234.272C85.7587 234.028 86.0021 233.851 86.2844 233.741C86.57 233.631 86.8881 233.576 87.2385 233.576C87.5209 233.576 87.7805 233.611 88.0174 233.683C88.2576 233.751 88.4718 233.859 88.66 234.009C88.8515 234.158 89.0137 234.353 89.1468 234.593C89.2831 234.83 89.387 235.117 89.4583 235.455C89.5297 235.789 89.5654 236.178 89.5654 236.623ZM88.3923 237.947V236.448C88.3923 236.165 88.376 235.917 88.3436 235.703C88.3111 235.485 88.2624 235.302 88.1975 235.153C88.1359 235 88.058 234.877 87.9639 234.783C87.8698 234.685 87.7627 234.616 87.6426 234.573C87.5225 234.528 87.3878 234.505 87.2385 234.505C87.0568 234.505 86.8945 234.541 86.7517 234.612C86.609 234.681 86.4889 234.791 86.3915 234.943C86.2942 235.096 86.2195 235.297 86.1676 235.547C86.1189 235.794 86.0946 236.094 86.0946 236.448V237.947C86.0946 238.233 86.1108 238.484 86.1432 238.702C86.1757 238.919 86.2244 239.106 86.2893 239.261C86.3542 239.414 86.4321 239.54 86.523 239.641C86.6171 239.738 86.7242 239.81 86.8442 239.855C86.9676 239.901 87.1022 239.923 87.2483 239.923C87.4333 239.923 87.5972 239.888 87.7399 239.816C87.8827 239.745 88.0028 239.631 88.1002 239.476C88.1975 239.317 88.2706 239.11 88.3192 238.857C88.3679 238.604 88.3923 238.301 88.3923 237.947Z" fill="white" fill-opacity="0.65"/>
<path d="M95.4312 236.623V237.781C95.4312 238.336 95.376 238.81 95.2657 239.203C95.1586 239.592 95.0028 239.909 94.7983 240.152C94.5939 240.396 94.3489 240.574 94.0633 240.688C93.7809 240.801 93.4645 240.858 93.114 240.858C92.8349 240.858 92.5753 240.822 92.3351 240.751C92.0982 240.68 91.884 240.568 91.6926 240.415C91.5011 240.263 91.3372 240.066 91.2009 239.826C91.0678 239.583 90.964 239.292 90.8893 238.955C90.8179 238.617 90.7822 238.226 90.7822 237.781V236.623C90.7822 236.065 90.8374 235.594 90.9478 235.211C91.0581 234.825 91.2155 234.512 91.42 234.272C91.6244 234.028 91.8678 233.851 92.1502 233.741C92.4357 233.631 92.7538 233.576 93.1043 233.576C93.3866 233.576 93.6462 233.611 93.8832 233.683C94.1233 233.751 94.3375 233.859 94.5257 234.009C94.7172 234.158 94.8795 234.353 95.0125 234.593C95.1488 234.83 95.2527 235.117 95.3241 235.455C95.3955 235.789 95.4312 236.178 95.4312 236.623ZM94.258 237.947V236.448C94.258 236.165 94.2418 235.917 94.2093 235.703C94.1769 235.485 94.1282 235.302 94.0633 235.153C94.0016 235 93.9237 234.877 93.8296 234.783C93.7355 234.685 93.6284 234.616 93.5083 234.573C93.3882 234.528 93.2536 234.505 93.1043 234.505C92.9225 234.505 92.7603 234.541 92.6175 234.612C92.4747 234.681 92.3546 234.791 92.2572 234.943C92.1599 235.096 92.0852 235.297 92.0333 235.547C91.9846 235.794 91.9603 236.094 91.9603 236.448V237.947C91.9603 238.233 91.9765 238.484 92.009 238.702C92.0414 238.919 92.0901 239.106 92.155 239.261C92.2199 239.414 92.2978 239.54 92.3887 239.641C92.4828 239.738 92.5899 239.81 92.71 239.855C92.8333 239.901 92.968 239.923 93.114 239.923C93.299 239.923 93.4629 239.888 93.6057 239.816C93.7485 239.745 93.8686 239.631 93.9659 239.476C94.0633 239.317 94.1363 239.11 94.185 238.857C94.2337 238.604 94.258 238.301 94.258 237.947Z" fill="white" fill-opacity="0.65"/>
<path d="M101.297 236.623V237.781C101.297 238.336 101.242 238.81 101.131 239.203C101.024 239.592 100.869 239.909 100.664 240.152C100.46 240.396 100.215 240.574 99.929 240.688C99.6467 240.801 99.3302 240.858 98.9797 240.858C98.7007 240.858 98.441 240.822 98.2009 240.751C97.964 240.68 97.7498 240.568 97.5583 240.415C97.3668 240.263 97.2029 240.066 97.0666 239.826C96.9336 239.583 96.8297 239.292 96.7551 238.955C96.6837 238.617 96.648 238.226 96.648 237.781V236.623C96.648 236.065 96.7032 235.594 96.8135 235.211C96.9238 234.825 97.0812 234.512 97.2857 234.272C97.4901 234.028 97.7335 233.851 98.0159 233.741C98.3015 233.631 98.6195 233.576 98.97 233.576C99.2524 233.576 99.512 233.611 99.7489 233.683C99.989 233.751 100.203 233.859 100.391 234.009C100.583 234.158 100.745 234.353 100.878 234.593C101.015 234.83 101.118 235.117 101.19 235.455C101.261 235.789 101.297 236.178 101.297 236.623ZM100.124 237.947V236.448C100.124 236.165 100.108 235.917 100.075 235.703C100.043 235.485 99.9939 235.302 99.929 235.153C99.8673 235 99.7895 234.877 99.6953 234.783C99.6012 234.685 99.4941 234.616 99.3741 234.573C99.254 234.528 99.1193 234.505 98.97 234.505C98.7883 234.505 98.626 234.541 98.4832 234.612C98.3404 234.681 98.2203 234.791 98.123 234.943C98.0256 235.096 97.951 235.297 97.8991 235.547C97.8504 235.794 97.826 236.094 97.826 236.448V237.947C97.826 238.233 97.8423 238.484 97.8747 238.702C97.9072 238.919 97.9558 239.106 98.0208 239.261C98.0857 239.414 98.1635 239.54 98.2544 239.641C98.3485 239.738 98.4556 239.81 98.5757 239.855C98.699 239.901 98.8337 239.923 98.9797 239.923C99.1647 239.923 99.3286 239.888 99.4714 239.816C99.6142 239.745 99.7343 239.631 99.8316 239.476C99.929 239.317 100.002 239.11 100.051 238.857C100.099 238.604 100.124 238.301 100.124 237.947Z" fill="white" fill-opacity="0.65"/>
<path d="M59.5663 224.683H59.8772C61.1859 224.683 62.3092 224.522 63.2472 224.199C64.196 223.865 64.9758 223.386 65.5866 222.763C66.1973 222.14 66.6499 221.377 66.9444 220.475C67.2388 219.562 67.3861 218.527 67.3861 217.369V212.76C67.3861 211.88 67.2988 211.106 67.1243 210.438C66.9607 209.77 66.7208 209.219 66.4045 208.785C66.0991 208.34 65.7392 208.006 65.3248 207.783C64.9213 207.56 64.4741 207.449 63.9833 207.449C63.4598 207.449 62.9963 207.583 62.5928 207.85C62.1893 208.106 61.8457 208.457 61.5622 208.902C61.2895 209.347 61.0768 209.859 60.9242 210.438C60.7824 211.006 60.7115 211.602 60.7115 212.225C60.7115 212.849 60.7824 213.444 60.9242 214.012C61.0659 214.569 61.2786 215.064 61.5622 215.498C61.8457 215.922 62.2002 216.261 62.6255 216.517C63.0509 216.762 63.5525 216.885 64.1306 216.885C64.6868 216.885 65.183 216.779 65.6193 216.567C66.0664 216.345 66.4427 216.055 66.7481 215.699C67.0643 215.343 67.3043 214.947 67.4679 214.513C67.6424 214.079 67.7296 213.639 67.7296 213.194L69.2838 214.062C69.2838 214.842 69.1202 215.61 68.793 216.367C68.4658 217.124 68.0077 217.814 67.4188 218.438C66.8408 219.05 66.17 219.54 65.4066 219.907C64.6432 220.275 63.8252 220.458 62.9527 220.458C61.8403 220.458 60.8533 220.252 59.9917 219.84C59.1301 219.417 58.3994 218.838 57.7995 218.104C57.2106 217.358 56.7634 216.489 56.4581 215.498C56.1527 214.508 56 213.433 56 212.275C56 211.095 56.1854 209.987 56.5562 208.952C56.9379 207.917 57.4778 207.004 58.1758 206.213C58.8847 205.423 59.7299 204.805 60.7115 204.36C61.7039 203.903 62.8055 203.675 64.0161 203.675C65.2267 203.675 66.3282 203.914 67.3206 204.393C68.3131 204.872 69.1638 205.551 69.8727 206.43C70.5816 207.299 71.1269 208.34 71.5086 209.553C71.9012 210.767 72.0976 212.114 72.0976 213.595V215.265C72.0976 216.846 71.9285 218.315 71.5904 219.673C71.2632 221.032 70.767 222.262 70.1017 223.364C69.4474 224.455 68.6294 225.39 67.6478 226.17C66.6772 226.949 65.5484 227.545 64.2615 227.957C62.9745 228.369 61.5349 228.575 59.9426 228.575H59.5663V224.683Z" fill="white"/>
<path d="M91.4997 214.046V218.254C91.4997 220.08 91.3088 221.655 90.9271 222.98C90.5454 224.294 89.9946 225.374 89.2748 226.22C88.5659 227.055 87.7207 227.673 86.7391 228.074C85.7576 228.474 84.667 228.675 83.4673 228.675C82.5075 228.675 81.6132 228.552 80.7844 228.307C79.9555 228.051 79.2084 227.656 78.5431 227.122C77.8888 226.587 77.3216 225.914 76.8418 225.101C76.3728 224.277 76.0129 223.297 75.762 222.162C75.5112 221.026 75.3858 219.724 75.3858 218.254V214.046C75.3858 212.22 75.5766 210.655 75.9584 209.353C76.351 208.039 76.9017 206.965 77.6106 206.13C78.3305 205.295 79.1811 204.682 80.1627 204.293C81.1443 203.892 82.2349 203.692 83.4346 203.692C84.3943 203.692 85.2832 203.82 86.1011 204.076C86.93 204.321 87.6771 204.705 88.3424 205.228C89.0076 205.751 89.5748 206.425 90.0437 207.249C90.5127 208.061 90.8726 209.036 91.1234 210.171C91.3743 211.296 91.4997 212.587 91.4997 214.046ZM86.7719 218.889V213.394C86.7719 212.515 86.7228 211.747 86.6246 211.09C86.5374 210.433 86.401 209.876 86.2156 209.42C86.0302 208.952 85.8012 208.573 85.5286 208.284C85.2559 207.995 84.9451 207.783 84.5961 207.649C84.2471 207.516 83.8599 207.449 83.4346 207.449C82.9002 207.449 82.4257 207.555 82.0113 207.766C81.6078 207.978 81.2642 208.317 80.9807 208.785C80.6971 209.241 80.479 209.854 80.3263 210.622C80.1845 211.379 80.1136 212.303 80.1136 213.394V218.889C80.1136 219.768 80.1572 220.542 80.2445 221.21C80.3427 221.878 80.4844 222.451 80.6698 222.93C80.8661 223.398 81.0952 223.782 81.3569 224.082C81.6296 224.372 81.9404 224.583 82.2894 224.717C82.6493 224.85 83.0419 224.917 83.4673 224.917C83.9908 224.917 84.4543 224.812 84.8578 224.6C85.2723 224.377 85.6213 224.032 85.9048 223.565C86.1993 223.086 86.4174 222.462 86.5592 221.694C86.701 220.926 86.7719 219.991 86.7719 218.889Z" fill="white"/>
<path d="M111 224.583V228.341H94.7061V225.134L102.411 216.701C103.186 215.821 103.796 215.048 104.244 214.38C104.691 213.7 105.012 213.094 105.209 212.559C105.416 212.014 105.52 211.496 105.52 211.006C105.52 210.271 105.4 209.642 105.16 209.119C104.92 208.585 104.565 208.173 104.096 207.883C103.638 207.594 103.071 207.449 102.395 207.449C101.675 207.449 101.054 207.627 100.53 207.983C100.017 208.34 99.6248 208.835 99.3522 209.47C99.0904 210.104 98.9595 210.822 98.9595 211.624H94.2317C94.2317 210.177 94.5698 208.852 95.246 207.649C95.9222 206.436 96.8765 205.473 98.1089 204.76C99.3413 204.037 100.803 203.675 102.493 203.675C104.162 203.675 105.569 203.953 106.714 204.51C107.87 205.055 108.742 205.846 109.331 206.881C109.931 207.905 110.231 209.13 110.231 210.555C110.231 211.357 110.106 212.142 109.855 212.91C109.604 213.667 109.244 214.424 108.775 215.181C108.317 215.927 107.761 216.684 107.106 217.452C106.452 218.221 105.727 219.017 104.931 219.84L100.792 224.583H111Z" fill="white"/>
</g>
<defs>
<filter id="filter0_d_10108_8144" x="0" y="92.6748" width="178.544" height="178.325" filterUnits="userSpaceOnUse" color-interpolation-filters="sRGB">
<feFlood flood-opacity="0" result="BackgroundImageFix"/>
<feColorMatrix in="SourceAlpha" type="matrix" values="0 0 0 0 0 0 0 0 0 0 0 0 0 0 0 0 0 0 127 0" result="hardAlpha"/>
<feOffset dx="8" dy="8"/>
<feGaussianBlur stdDeviation="2"/>
<feComposite in2="hardAlpha" operator="out"/>
<feColorMatrix type="matrix" values="0 0 0 0 0 0 0 0 0 0 0 0 0 0 0 0 0 0 0.02 0"/>
<feBlend mode="normal" in2="BackgroundImageFix" result="effect1_dropShadow_10108_8144"/>
<feBlend mode="normal" in="SourceGraphic" in2="effect1_dropShadow_10108_8144" result="shape"/>
</filter>
<linearGradient id="paint0_linear_10108_8144" x1="133.642" y1="220.149" x2="33.8216" y2="221.903" gradientUnits="userSpaceOnUse">
<stop stop-color="#00479E"/>
<stop offset="1" stop-color="#00479E"/>
</linearGradient>
</defs>
</svg>
