<svg width="64" height="24" viewBox="0 0 64 24" fill="none" xmlns="http://www.w3.org/2000/svg">
<path d="M23.9998 20.7499C23.7871 20.7499 23.609 20.678 23.4655 20.5341C23.3218 20.3905 23.25 20.2124 23.25 19.9999V19.1056C23.25 18.8931 23.3219 18.7151 23.4658 18.5714C23.6096 18.4276 23.7877 18.3556 24.0002 18.3556C24.2129 18.3556 24.391 18.4276 24.5345 18.5714C24.6782 18.7151 24.75 18.8931 24.75 19.1056V19.9999C24.75 20.2124 24.6781 20.3905 24.5342 20.5341C24.3904 20.678 24.2123 20.7499 23.9998 20.7499ZM27.9997 20.7499C27.7871 20.7499 27.609 20.678 27.4655 20.5341C27.3218 20.3905 27.25 20.2124 27.25 19.9999V14.6056C27.25 14.3931 27.3219 14.2151 27.4658 14.0714C27.6096 13.9276 27.7878 13.8556 28.0003 13.8556C28.2129 13.8556 28.391 13.9276 28.5345 14.0714C28.6782 14.2151 28.75 14.3931 28.75 14.6056V19.9999C28.75 20.2124 28.6781 20.3905 28.5342 20.5341C28.3904 20.678 28.2122 20.7499 27.9997 20.7499ZM31.9998 20.7499C31.7871 20.7499 31.609 20.678 31.4655 20.5341C31.3218 20.3905 31.25 20.2124 31.25 19.9999V16.6056C31.25 16.3931 31.3219 16.2151 31.4658 16.0714C31.6096 15.9276 31.7878 15.8556 32.0003 15.8556C32.2129 15.8556 32.391 15.9276 32.5345 16.0714C32.6782 16.2151 32.75 16.3931 32.75 16.6056V19.9999C32.75 20.2124 32.6781 20.3905 32.5343 20.5341C32.3904 20.678 32.2122 20.7499 31.9998 20.7499ZM35.9998 20.7499C35.7871 20.7499 35.609 20.678 35.4655 20.5341C35.3218 20.3905 35.25 20.2124 35.25 19.9999V15.1056C35.25 14.8931 35.3219 14.7151 35.4658 14.5714C35.6096 14.4276 35.7878 14.3556 36.0003 14.3556C36.2129 14.3556 36.391 14.4276 36.5345 14.5714C36.6782 14.7151 36.75 14.8931 36.75 15.1056V19.9999C36.75 20.2124 36.6781 20.3905 36.5343 20.5341C36.3904 20.678 36.2122 20.7499 35.9998 20.7499ZM39.9998 20.7499C39.7871 20.7499 39.609 20.678 39.4655 20.5341C39.3218 20.3905 39.25 20.2124 39.25 19.9999V11.1056C39.25 10.8931 39.3219 10.7151 39.4657 10.5714C39.6096 10.4276 39.7878 10.3556 40.0002 10.3556C40.2129 10.3556 40.391 10.4276 40.5345 10.5714C40.6782 10.7151 40.75 10.8931 40.75 11.1056V19.9999C40.75 20.2124 40.6781 20.3905 40.5343 20.5341C40.3904 20.678 40.2122 20.7499 39.9998 20.7499ZM34 11.7056C33.7653 11.7056 33.5385 11.6606 33.3195 11.5706C33.1005 11.4806 32.9004 11.3532 32.7192 11.1884L30.2213 8.69014C30.1636 8.63247 30.0898 8.60364 30 8.60364C29.9102 8.60364 29.8364 8.63247 29.7787 8.69014L24.527 13.9421C24.3782 14.0908 24.1999 14.1642 23.9923 14.1624C23.7846 14.1604 23.6064 14.0819 23.4577 13.9269C23.3192 13.7781 23.2531 13.6011 23.2592 13.3959C23.2654 13.1906 23.3367 13.0195 23.473 12.8826L28.7192 7.63639C28.9004 7.45655 29.1005 7.32539 29.3195 7.24289C29.5385 7.16039 29.7653 7.11914 30 7.11914C30.2347 7.11914 30.4653 7.16039 30.6918 7.24289C30.9183 7.32539 31.1146 7.45655 31.2808 7.63639L33.7788 10.1346C33.8364 10.1923 33.9102 10.2211 34 10.2211C34.0898 10.2211 34.1636 10.1923 34.2212 10.1346L39.473 4.88264C39.6218 4.73397 39.8001 4.66055 40.0077 4.66239C40.2154 4.66439 40.3936 4.74289 40.5422 4.89789C40.6807 5.04672 40.7469 5.22372 40.7408 5.42889C40.7346 5.63422 40.6633 5.8053 40.527 5.94214L35.2807 11.1884C35.1146 11.3532 34.9183 11.4806 34.6917 11.5706C34.4653 11.6606 34.2347 11.7056 34 11.7056Z" fill="#576078"/>
</svg>
