<svg width="148" height="107" viewBox="0 0 148 107" fill="none" xmlns="http://www.w3.org/2000/svg">
<g opacity="0.35" clip-path="url(#clip0_4341_5163)">
<mask id="path-1-outside-1_4341_5163" maskUnits="userSpaceOnUse" x="27.0024" y="-113.999" width="211" height="383" fill="black">
<rect fill="white" x="27.0024" y="-113.999" width="211" height="383"/>
<path d="M236.9 -111.732C236.568 -112.708 235.506 -113.231 234.526 -112.899C233.733 -112.631 233.238 -111.881 233.256 -111.088L190.773 -106.175C190.756 -106.247 190.74 -106.32 190.714 -106.39C190.382 -107.366 189.32 -107.891 188.34 -107.557C187.363 -107.226 186.837 -106.166 187.171 -105.187C187.405 -104.501 187.999 -104.041 188.67 -103.941L187.113 -75.0305C186.937 -75.0235 186.76 -74.9932 186.584 -74.9325C185.908 -74.7037 185.45 -74.1293 185.34 -73.4732L166.319 -74.8788C166.312 -75.0492 166.281 -75.222 166.223 -75.3924C165.891 -76.3684 164.829 -76.8914 163.849 -76.5599C162.879 -76.2307 162.355 -75.1823 162.673 -74.211L139.706 -63.2816C139.281 -64.0708 138.338 -64.463 137.459 -64.1642C137.192 -64.0731 136.959 -63.926 136.769 -63.7439L117.998 -80.0154C118.337 -80.4894 118.452 -81.1105 118.251 -81.7035C117.918 -82.6795 116.857 -83.2048 115.877 -82.871C114.899 -82.5394 114.373 -81.4794 114.708 -80.5011C114.785 -80.2746 114.902 -80.0738 115.047 -79.901L99.2781 -63.9844C98.7941 -64.379 98.1253 -64.5261 97.4915 -64.3113C97.0191 -64.1502 96.652 -63.8186 96.4368 -63.41L67.3223 -75.3691C67.4346 -75.731 67.4393 -76.1303 67.306 -76.5178C66.9739 -77.4938 65.9122 -78.0168 64.9324 -77.6853C63.9549 -77.3537 63.4311 -76.2937 63.7631 -75.3154C63.9736 -74.699 64.474 -74.2647 65.061 -74.1106L57.6526 -29.3867C57.4117 -29.403 57.1615 -29.375 56.9183 -29.2909C56.8692 -29.2746 56.8224 -29.2559 56.7757 -29.2349L31.6811 -38.4972C31.7746 -38.8428 31.7699 -39.2164 31.646 -39.5806C31.3139 -40.5566 30.2522 -41.0819 29.2724 -40.748C28.2949 -40.4165 27.7687 -39.3565 28.1031 -38.3782C28.4352 -37.4022 29.4969 -36.8768 30.4767 -37.2107C30.5352 -37.2317 30.5936 -37.2528 30.6498 -37.2784L60.1829 14.324L60.0846 14.4127L60.2787 14.4944L60.6225 15.0968L60.5898 14.6252L93.0086 28.1019C92.894 28.4661 92.8893 28.8677 93.0226 29.2576C93.2869 30.0305 94.0071 30.5185 94.7812 30.5231L97.1665 58.142C97.0753 58.1583 96.9864 58.1794 96.8975 58.2097C95.92 58.5413 95.3962 59.6013 95.7283 60.5796C96.0393 61.4948 96.9887 62.0108 97.9124 61.8007L80.7969 135.232C80.5186 135.194 80.2263 135.215 79.941 135.311C78.9635 135.643 78.4396 136.703 78.7717 137.681C79.1038 138.657 80.1655 139.18 81.1453 138.848C81.5429 138.713 81.8632 138.458 82.083 138.138L136.58 168.611C136.395 169.024 136.358 169.505 136.517 169.969C136.662 170.397 136.947 170.738 137.302 170.957L125.523 194.579C125.128 194.425 124.679 194.404 124.246 194.551C123.269 194.882 122.743 195.942 123.077 196.921C123.318 197.626 123.938 198.093 124.632 198.174L124.066 222.193C123.91 222.205 123.751 222.233 123.594 222.286C122.617 222.618 122.093 223.678 122.425 224.656C122.757 225.632 123.819 226.155 124.798 225.824C124.894 225.791 124.985 225.749 125.074 225.702L148.841 261.857C148.242 262.334 147.973 263.151 148.235 263.917C148.567 264.893 149.629 265.416 150.609 265.084C151.27 264.86 151.722 264.304 151.843 263.664L176.564 266.044C176.552 266.275 176.58 266.511 176.66 266.742C176.992 267.718 178.053 268.243 179.033 267.909C180.011 267.578 180.534 266.518 180.202 265.539C180.193 265.514 180.184 265.49 180.174 265.467L203.833 253.16C204.313 253.746 205.122 254.005 205.882 253.748C206.859 253.417 207.383 252.357 207.051 251.378C206.798 250.636 206.123 250.157 205.384 250.115L200.947 215.429C200.947 215.429 200.961 215.424 200.968 215.422C201.946 215.09 202.47 214.03 202.138 213.052C201.806 212.076 200.744 211.553 199.764 211.885C199.458 211.99 199.193 212.165 198.99 212.389L175.652 193.904C175.939 193.444 176.028 192.865 175.839 192.312C175.589 191.576 174.927 191.1 174.197 191.048L172.291 147.753C172.396 147.737 172.499 147.714 172.602 147.679C173.58 147.347 174.104 146.287 173.771 145.309C173.617 144.856 173.306 144.503 172.918 144.284L182.609 122.717C182.985 122.845 183.409 122.857 183.815 122.719C184.793 122.388 185.319 121.328 184.985 120.349C184.821 119.871 184.484 119.502 184.066 119.289L198.457 83.4587C198.815 83.5661 199.21 83.5685 199.591 83.4377C200.569 83.1062 201.092 82.0461 200.76 81.0678C200.428 80.0919 199.367 79.5689 198.387 79.9004C197.98 80.0382 197.652 80.3044 197.43 80.6382L174.885 68.5297C175.058 68.1211 175.09 67.6542 174.936 67.2012C174.637 66.3233 173.75 65.8143 172.862 65.9591L157.432 6.79877L157.266 6.84313C157.902 6.62599 158.344 6.10065 158.487 5.49125L182.354 8.67598C182.344 8.90012 182.375 9.12661 182.45 9.35075C182.782 10.3267 183.843 10.8521 184.823 10.5182C185.803 10.1843 186.325 9.12661 185.993 8.14831C185.789 7.55059 185.312 7.12331 184.746 6.95754L194.722 -44.0588C194.963 -44.0425 195.211 -44.0705 195.454 -44.1546C196.203 -44.4067 196.682 -45.0862 196.719 -45.8286L218.732 -46.2209C218.748 -46.1228 218.772 -46.0248 218.804 -45.9267C219.136 -44.9507 220.198 -44.4254 221.178 -44.7593C222.155 -45.0908 222.682 -46.1508 222.347 -47.1292C222.162 -47.6755 221.748 -48.0771 221.248 -48.2709L234.891 -109.28C235.165 -109.245 235.45 -109.269 235.73 -109.362C236.708 -109.694 237.232 -110.754 236.9 -111.732ZM218.706 -46.5758L196.705 -46.1835C196.689 -46.3003 196.663 -46.4193 196.623 -46.5338C196.502 -46.891 196.282 -47.1875 196.004 -47.4047L208.838 -68.1988L219.571 -48.1098C219.043 -47.7736 218.72 -47.1922 218.708 -46.5735L218.706 -46.5758ZM182.564 7.86578L140.399 -9.64088C140.513 -10.0051 140.518 -10.4067 140.385 -10.7966C140.354 -10.8853 140.317 -10.9671 140.275 -11.0488L157.825 -22.2047L182.88 7.42684C182.751 7.55759 182.644 7.70469 182.56 7.86346L182.564 7.86578ZM171.386 68.3873C171.426 68.504 171.477 68.6138 171.536 68.7165L168.629 70.7572L143.628 61.9315L171.302 67.5818C171.274 67.8456 171.297 68.1188 171.389 68.385L171.386 68.3873ZM181.337 120.947L150.852 123.917C150.835 123.833 150.817 123.751 150.789 123.669C150.73 123.494 150.646 123.336 150.545 123.193L169.536 106.996L181.793 119.719C181.5 120.057 181.334 120.494 181.337 120.947ZM205.03 250.115C204.911 250.132 204.79 250.157 204.67 250.199C204.053 250.41 203.618 250.909 203.461 251.495L186.484 247.811L200.063 215.485C200.239 215.513 200.419 215.518 200.599 215.492L203.253 236.232L205.028 250.113L205.03 250.115ZM82.2842 136.399C82.2047 136.191 82.0924 136.004 81.9544 135.846L108.934 107.806L113.276 125.969C112.386 126.27 111.873 127.176 112.039 128.073L82.2865 136.399H82.2842ZM138.313 -60.5522L120.748 -50.7949L136.65 -61.1756C137.059 -60.7086 137.684 -60.4658 138.315 -60.5522H138.313ZM165.051 -73.0272C165.294 -73.109 165.51 -73.2374 165.69 -73.3962L176.183 -63.4684L147.491 -37.5703C147.393 -37.659 147.285 -37.7384 147.173 -37.8038L163.756 -73.0623C164.156 -72.9012 164.612 -72.8778 165.054 -73.0272H165.051ZM187.861 -71.4279C188.792 -71.7874 189.283 -72.8171 188.958 -73.7697C188.724 -74.4562 188.13 -74.9161 187.459 -75.0165L188.995 -103.539L194.554 -47.895L187.861 -71.4279ZM185.92 -71.7921C186.346 -71.4022 186.94 -71.2224 187.529 -71.3321L194.25 -47.7035C194.037 -47.6311 193.848 -47.5237 193.682 -47.3906L176.692 -63.4637L185.92 -71.7945V-71.7921ZM193.431 -47.1478C193.109 -46.7719 192.943 -46.2746 192.989 -45.7656L148.015 -36.7298C148.008 -36.7508 148.003 -36.7741 147.996 -36.7951C147.931 -36.9866 147.837 -37.1594 147.723 -37.3135L176.435 -63.2302L193.431 -47.1478ZM154.858 5.55196L137.646 13.7099C137.375 13.2523 136.921 12.9417 136.416 12.8343L137.948 -0.836174L154.867 4.53864C154.773 4.86085 154.764 5.20873 154.86 5.55196H154.858ZM125.963 223.442C125.795 222.942 125.432 222.564 124.992 222.356L131.288 205.123L158.183 240.739C158.059 240.851 157.954 240.979 157.865 241.117L125.928 224.738C126.089 224.339 126.115 223.881 125.965 223.442H125.963ZM134.569 199.05C134.627 199.031 134.681 199.008 134.737 198.984L157.984 239.903L131.43 204.738L133.493 199.087C133.837 199.178 134.209 199.174 134.571 199.05H134.569ZM158.84 240.351C158.782 240.37 158.728 240.393 158.672 240.416L135.034 198.812C135.361 198.585 135.6 198.263 135.729 197.896L169.894 206.398L159.804 240.288C159.493 240.225 159.16 240.241 158.838 240.349L158.84 240.351ZM172.193 192.923L135.799 196.907C135.782 196.832 135.764 196.755 135.738 196.68C135.63 196.365 135.446 196.096 135.214 195.891L149.362 176.841L172.429 191.996C172.273 192.277 172.188 192.596 172.193 192.926V192.923ZM149.28 176.374L139.936 170.236C140.169 169.797 140.23 169.267 140.057 168.758C140.02 168.646 139.971 168.54 139.914 168.442L170.647 147.193C170.703 147.254 170.764 147.307 170.83 147.359L149.28 176.376V176.374ZM170.224 146.5C170.275 146.651 170.348 146.791 170.432 146.92L139.718 168.158C139.496 167.894 139.206 167.698 138.886 167.59L145.931 137.996L170.151 145.608C170.105 145.897 170.126 146.203 170.226 146.5H170.224ZM145.679 137.555L115.706 128.134C115.734 128.001 115.751 127.865 115.748 127.73L147.183 124.627C147.199 124.708 147.218 124.79 147.246 124.872C147.44 125.444 147.886 125.86 148.42 126.039L145.679 137.552V137.555ZM83.0629 -6.38377C83.4511 -6.55654 83.7551 -6.85074 83.9468 -7.20564L106.862 2.49799L95.4243 26.8878C95.0899 26.7687 94.7204 26.7407 94.3556 26.8294L83.0629 -6.38143V-6.38377ZM116.312 -79.2496L116.375 -62.6302L99.954 -62.7142C99.9399 -62.8613 99.9119 -63.0061 99.8628 -63.1532C99.7856 -63.3797 99.6687 -63.5805 99.5237 -63.7532L115.29 -79.6699C115.58 -79.4341 115.935 -79.287 116.31 -79.2519L116.312 -79.2496ZM99.9516 -62.3687L116.375 -62.2846L116.422 -50.1504C116.281 -50.1364 116.139 -50.1084 116.001 -50.0617C115.697 -49.959 115.437 -49.7839 115.231 -49.5644L99.671 -61.5491C99.8254 -61.7943 99.9236 -62.0745 99.9516 -62.3663V-62.3687ZM136.201 -62.1819C136.217 -62.0535 136.245 -61.9274 136.287 -61.8013C136.33 -61.6776 136.383 -61.5632 136.446 -61.4558L118.066 -49.457C117.745 -49.8586 117.275 -50.1107 116.768 -50.1551L116.721 -62.2846L136.201 -62.1842V-62.1819ZM144.451 -35.595C144.503 -35.4409 144.577 -35.2985 144.662 -35.1677L130.792 -24.0772L117.68 -46.7696C117.925 -46.9424 118.122 -47.1712 118.258 -47.4303L144.433 -36.7391C144.323 -36.3772 144.318 -35.9803 144.449 -35.595H144.451ZM136.743 -10.2106L114.2 -9.59885C114.188 -9.64555 114.177 -9.69224 114.16 -9.73894C114.109 -9.89304 114.034 -10.0355 113.95 -10.1662L130.696 -23.5589L137.534 -11.7236C137.043 -11.3757 136.748 -10.8106 136.743 -10.2129V-10.2106ZM148.413 122.5C148.277 122.546 148.151 122.607 148.034 122.679L133.947 103.963L148.228 86.8559C148.392 86.8909 148.56 86.9026 148.731 86.8909L148.838 122.413C148.698 122.427 148.555 122.455 148.415 122.502L148.413 122.5ZM126.19 91.2851L130.979 90.1621L147.276 86.3376C147.447 86.5104 147.65 86.6481 147.87 86.7415L133.731 103.678L125.621 92.9032C126.054 92.4946 126.276 91.8922 126.19 91.2851ZM147.758 122.885C147.367 123.24 147.143 123.746 147.145 124.279L122.362 126.726L115.711 127.382C115.695 127.3 115.676 127.218 115.648 127.137C115.552 126.856 115.395 126.616 115.201 126.42L133.72 104.234L147.758 122.885ZM146.837 85.6255C146.888 85.7749 146.956 85.9103 147.038 86.0364L126.113 90.9466C126.113 90.9466 126.113 90.9442 126.113 90.9419C125.979 90.5496 125.729 90.2345 125.413 90.0126L132.263 77.6099L146.745 84.883C146.727 85.1258 146.757 85.3756 146.839 85.6208L146.837 85.6255ZM132.118 77.157L99.2384 60.645C99.2945 60.5002 99.3319 60.3484 99.353 60.1943L135.853 61.3267L139.353 61.4341C139.367 61.5766 139.395 61.7213 139.442 61.8637C139.566 62.228 139.791 62.5292 140.076 62.7463L132.118 77.157ZM96.5 27.8801C96.3363 27.5135 96.065 27.2216 95.7376 27.0302L107.18 2.62873L134.253 14.0928C134.152 14.408 134.134 14.7536 134.216 15.0945L96.5 27.8801ZM59.0767 -26.5055C59.1282 -26.5848 59.175 -26.6666 59.2147 -26.753L89.3815 -16.6571L83.3762 -9.61987C82.9039 -9.95142 82.2865 -10.0611 81.6995 -9.86269C81.4002 -9.76229 81.1453 -9.59185 80.9419 -9.37704L74.1602 -14.6888L59.0767 -26.5055ZM112.991 -7.37141C113.211 -7.44612 113.407 -7.56053 113.578 -7.70062L134.601 13.4601C134.52 13.5581 134.449 13.6632 134.389 13.7729L107.327 2.31353L111.859 -7.35273C112.217 -7.24767 112.61 -7.24532 112.989 -7.37374L112.991 -7.37141ZM112.76 -10.9694L116.576 -46.4287C116.784 -46.4264 116.997 -46.4544 117.205 -46.5268C117.266 -46.5478 117.327 -46.5711 117.385 -46.5991L130.523 -23.8624L113.735 -10.4371C113.471 -10.7102 113.132 -10.8947 112.76 -10.9694ZM115.526 -46.7696C115.737 -46.6225 115.977 -46.5174 116.23 -46.4661L112.414 -11.0068C112.205 -11.0091 111.993 -10.9811 111.785 -10.9087C111.268 -10.7336 110.88 -10.3553 110.676 -9.89304L89.9732 -16.8205L115.524 -46.7672L115.526 -46.7696ZM110.568 -9.56616C110.545 -9.46577 110.529 -9.36303 110.522 -9.25797L94.5567 -8.69527L84.1573 -8.3287C84.1409 -8.45011 84.1129 -8.57152 84.0731 -8.6906C83.9796 -8.96378 83.8299 -9.19959 83.6405 -9.39339L89.7347 -16.538L110.571 -9.56616H110.568ZM84.1667 -7.98314L110.531 -8.90073C110.547 -8.77932 110.576 -8.65791 110.615 -8.5365C110.779 -8.05785 111.118 -7.68661 111.537 -7.47414L107.007 2.1851L84.0801 -7.52317C84.1269 -7.67027 84.1573 -7.82437 84.1667 -7.98314ZM134.959 16.1895C135.277 16.4113 135.663 16.5351 136.061 16.5281L137.84 33.0331L140.691 59.4705C140.665 59.4775 140.637 59.4845 140.611 59.4939C140.237 59.62 139.931 59.8535 139.711 60.1476L113.379 41.5553L134.959 16.1872V16.1895ZM135.432 12.8927C135.212 12.9674 135.018 13.0795 134.849 13.2173L113.882 -8.01582C113.973 -8.13724 114.048 -8.27032 114.107 -8.41042L137.606 -0.943581L136.068 12.797C135.857 12.7923 135.642 12.8227 135.432 12.8951V12.8927ZM114.902 -47.5121C114.993 -47.3136 115.117 -47.1408 115.262 -46.9914L89.6201 -16.9396L59.327 -27.0752C59.3971 -27.3553 59.4065 -27.6542 59.3387 -27.9507L114.902 -47.5121ZM96.6099 28.2093L134.325 15.4237C134.417 15.6315 134.545 15.8136 134.697 15.9677L113.099 41.3591L96.4111 29.5775C96.6426 29.1759 96.7268 28.6879 96.6099 28.2116V28.2093ZM113.157 41.8214L139.533 60.4442C139.435 60.6449 139.374 60.8644 139.353 61.0886L99.3647 59.8488C99.3553 59.6877 99.3249 59.5242 99.2711 59.3631C99.1776 59.09 99.0256 58.8518 98.8362 58.658L113.16 41.8191L113.157 41.8214ZM99.084 60.9532L131.952 77.4605L125.112 89.8469C124.693 89.6578 124.207 89.618 123.739 89.7768C123.578 89.8305 123.43 89.9076 123.297 89.9963L98.8362 61.266C98.9297 61.1703 99.0139 61.0652 99.0864 60.9508L99.084 60.9532ZM124.941 93.3141C125.088 93.2627 125.226 93.195 125.35 93.1133L133.505 103.949L114.932 126.198C114.815 126.119 114.689 126.051 114.558 125.997L124.017 93.3842C124.317 93.4355 124.632 93.4168 124.939 93.3118L124.941 93.3141ZM146.804 84.5328L132.427 77.3134L140.371 62.9308C140.7 63.0965 141.079 63.1666 141.46 63.1152L147.922 83.2906C147.356 83.5124 146.953 83.9817 146.804 84.5328ZM137.651 -1.29381L114.217 -8.73962C114.254 -8.90773 114.268 -9.08052 114.256 -9.25563L136.776 -9.86736C136.793 -9.77631 136.814 -9.68758 136.844 -9.59652C137.09 -8.87739 137.728 -8.40575 138.439 -8.33804L137.648 -1.29381H137.651ZM138.016 -11.9664C137.955 -11.9454 137.894 -11.922 137.836 -11.894L130.97 -23.776L144.879 -34.8992C145.066 -34.7078 145.288 -34.556 145.536 -34.4603L138.972 -12.0294C138.663 -12.0901 138.334 -12.0738 138.013 -11.9664H138.016ZM163.449 -73.221L146.862 -37.9532C146.476 -38.0933 146.044 -38.1073 145.625 -37.9672C145.15 -37.8061 144.783 -37.4722 144.568 -37.0613L118.393 -47.7525C118.503 -48.1144 118.508 -48.5114 118.377 -48.8966C118.358 -48.948 118.337 -48.9994 118.316 -49.0484L162.872 -73.8001C163.021 -73.5619 163.22 -73.3658 163.449 -73.221ZM136.194 -62.5298L116.723 -62.6302L116.66 -79.2543C116.801 -79.2683 116.943 -79.2963 117.081 -79.343C117.348 -79.4341 117.582 -79.5812 117.771 -79.7633L136.542 -63.4917C136.341 -63.2116 136.217 -62.8777 136.194 -62.5275V-62.5298ZM98.6935 -60.7833C98.9975 -60.8861 99.2571 -61.0612 99.4629 -61.2806L114.799 -49.4687L95.3752 -59.9778L96.797 -61.2059C97.2857 -60.739 98.0107 -60.5522 98.6935 -60.7833ZM114.885 -49.0297C114.729 -48.6655 114.687 -48.2499 114.792 -47.8413L59.3176 -28.3103L59.2007 -28.3547C59.1539 -28.4481 59.1025 -28.5391 59.0417 -28.6232L95.0945 -59.7396L114.885 -49.032V-49.0297ZM58.8616 -26.237L80.7314 -9.1062C80.4321 -8.64391 80.3409 -8.05552 80.5303 -7.49282C80.8249 -6.62893 81.6878 -6.12226 82.5601 -6.24368L75.907 -0.133392L58.6909 -26.0805C58.7517 -26.1296 58.8078 -26.1809 58.8616 -26.237ZM82.8244 -6.01953L94.0305 26.9321C93.9884 26.9508 93.9487 26.9718 93.9089 26.9928L76.1011 0.153801L82.8267 -6.02187L82.8244 -6.01953ZM95.3939 30.4064C95.7236 30.2943 96.0019 30.0982 96.2123 29.8507L112.874 41.616L98.5696 58.4315C98.2609 58.2167 97.8914 58.0953 97.5079 58.093L95.1226 30.4741C95.2138 30.4577 95.3027 30.4367 95.3915 30.4064H95.3939ZM123.028 90.2111C122.532 90.6991 122.329 91.4416 122.567 92.142C122.647 92.3778 122.771 92.5856 122.925 92.7631L109.123 107.106L98.2609 61.6629C98.3708 61.6139 98.476 61.5532 98.5719 61.4855L123.028 90.2088V90.2111ZM123.173 93.0012C123.327 93.125 123.5 93.2231 123.685 93.2908L114.228 125.899C114.027 125.862 113.821 125.855 113.611 125.885L109.217 107.505L123.173 93.0012ZM115.599 128.456L145.595 137.884L138.544 167.501C138.263 167.462 137.967 167.483 137.679 167.581C137.613 167.604 137.55 167.63 137.489 167.658L114.965 129.252C115.25 129.049 115.465 128.771 115.599 128.456ZM138.883 171.118C139.234 170.999 139.526 170.784 139.741 170.516L149.07 176.645L134.933 195.678C134.774 195.583 134.599 195.51 134.417 195.464L138.168 171.214C138.404 171.228 138.645 171.2 138.883 171.118ZM132.19 197.875C132.361 198.375 132.721 198.753 133.163 198.964L131.175 204.404L126.101 197.684C126.396 197.416 126.597 197.058 126.674 196.671L132.092 197.247C132.09 197.455 132.118 197.665 132.19 197.873V197.875ZM125.444 198.072C125.579 198.025 125.708 197.964 125.825 197.892L131.035 204.789L124.665 222.23C124.581 222.207 124.494 222.193 124.405 222.184L124.971 198.165C125.128 198.153 125.287 198.125 125.444 198.072ZM157.701 241.418C157.54 241.817 157.514 242.275 157.664 242.714C157.818 243.169 158.132 243.524 158.522 243.741L156.34 248.635L125.776 225.046L157.701 241.418ZM158.838 243.881C159.214 244.01 159.633 244.019 160.037 243.881C160.192 243.83 160.334 243.758 160.463 243.671L177.277 264.645C177.244 264.671 177.214 264.694 177.183 264.72L156.621 248.85L158.835 243.879L158.838 243.881ZM177.819 264.355C177.733 264.384 177.653 264.421 177.574 264.461L160.734 243.456C160.959 243.239 161.125 242.971 161.218 242.676L186.004 248.054L179.136 264.4C178.731 264.232 178.266 264.204 177.819 264.355ZM161.293 242.338C161.326 242.067 161.303 241.787 161.209 241.511C161.172 241.402 161.125 241.299 161.069 241.201L199.128 215.041C199.303 215.195 199.507 215.314 199.727 215.394L186.142 247.731L161.296 242.34L161.293 242.338ZM198.588 214.236C198.658 214.441 198.761 214.626 198.887 214.787L160.872 240.916C160.671 240.678 160.419 240.493 160.133 240.379L170.229 206.472L198.492 213.505C198.476 213.745 198.504 213.993 198.588 214.236ZM169.992 206.059L135.813 197.556C135.829 197.453 135.836 197.348 135.834 197.243L172.226 193.259C172.242 193.339 172.261 193.416 172.287 193.495C172.474 194.044 172.89 194.448 173.393 194.639L169.992 206.061V206.059ZM173.458 191.123C173.117 191.238 172.834 191.443 172.621 191.702L149.566 176.554L171.115 147.536C171.368 147.669 171.648 147.746 171.938 147.753L173.844 191.034C173.715 191.048 173.587 191.076 173.458 191.121V191.123ZM170.231 145.262L146.006 137.648L148.754 126.109C149.035 126.149 149.329 126.128 149.619 126.03C149.86 125.948 150.073 125.822 150.253 125.666L170.488 144.783C170.381 144.931 170.296 145.092 170.233 145.262H170.231ZM150.319 122.925C150.012 122.628 149.61 122.441 149.182 122.404L149.074 86.8279C149.119 86.8162 149.163 86.8046 149.208 86.7906C149.418 86.7182 149.608 86.6108 149.771 86.48L169.293 106.742L150.316 122.925H150.319ZM150.022 86.2395C150.302 85.915 150.464 85.5017 150.475 85.0674L197.138 81.9458C197.154 82.0485 197.178 82.1489 197.213 82.2493C197.271 82.4244 197.355 82.5832 197.456 82.7256L169.56 106.515L150.024 86.2395H150.022ZM197.115 81.6002L150.452 84.7219C150.435 84.6191 150.412 84.5188 150.377 84.4184C150.337 84.3016 150.288 84.1919 150.227 84.0891L168.678 71.1331L197.168 81.1893C197.136 81.3223 197.117 81.4601 197.112 81.5979L197.115 81.6002ZM150.031 83.8089C149.601 83.3046 148.925 83.0571 148.254 83.1879L141.799 63.0312C141.799 63.0312 141.811 63.0288 141.818 63.0265C142.323 62.856 142.707 62.4872 142.915 62.0389L168.285 70.993L150.036 83.8066L150.031 83.8089ZM141.032 59.3981L136.404 16.4837C136.482 16.4674 136.559 16.4487 136.636 16.423C137.613 16.0914 138.14 15.0314 137.805 14.0531C137.8 14.0391 137.793 14.0274 137.789 14.0134L154.975 5.86716C155.173 6.28043 155.512 6.59097 155.915 6.76374L141.409 59.3981C141.285 59.3841 141.159 59.3841 141.03 59.3981H141.032ZM154.991 4.20942L137.985 -1.19341L138.787 -8.34504C138.93 -8.35905 139.075 -8.38706 139.218 -8.43376C139.51 -8.53182 139.76 -8.6976 139.961 -8.9054L155.176 3.91991C155.105 4.01096 155.045 4.10902 154.993 4.20942H154.991ZM140.092 -11.3476C139.884 -11.6138 139.61 -11.817 139.302 -11.9407L145.866 -34.3716C146.175 -34.3108 146.504 -34.3272 146.825 -34.4346C146.996 -34.493 147.152 -34.5747 147.293 -34.6728L157.603 -22.4779L140.092 -11.3476ZM147.557 -34.8946C147.943 -35.2868 148.144 -35.8402 148.083 -36.4005L193.05 -45.4364C193.06 -45.4037 193.067 -45.3733 193.078 -45.3407C193.109 -45.2519 193.146 -45.1702 193.186 -45.0908L157.898 -22.6623L147.557 -34.8922V-34.8946ZM195.709 -47.6008C195.464 -47.7269 195.19 -47.7993 194.909 -47.8086L189.299 -103.969C189.381 -103.985 189.463 -104.004 189.545 -104.032C189.587 -104.046 189.627 -104.064 189.666 -104.081L208.646 -68.563L195.709 -47.6031V-47.6008ZM189.97 -104.242C190.508 -104.597 190.829 -105.204 190.812 -105.843L233.296 -110.756C233.312 -110.684 233.329 -110.611 233.355 -110.541C233.481 -110.172 233.71 -109.866 234.002 -109.649L208.856 -68.9039L189.97 -104.244V-104.242ZM185.415 -72.5766C185.48 -72.3852 185.574 -72.2124 185.689 -72.0583L176.44 -63.7112L165.926 -73.6577C166.127 -73.9145 166.256 -74.2227 166.302 -74.5472L185.317 -73.144C185.321 -72.9572 185.352 -72.7657 185.415 -72.579V-72.5766ZM139.498 -61.2199C139.893 -61.6939 140.043 -62.3523 139.842 -62.9804L159.535 -72.3501L139.498 -61.2199ZM96.3199 -61.9601C96.3807 -61.7826 96.4649 -61.6192 96.5701 -61.4744L95.0501 -60.1623L68.4729 -74.5426L96.3059 -63.1088C96.1936 -62.7469 96.189 -62.3477 96.3223 -61.9601H96.3199ZM65.4001 -74.0709C65.641 -74.0546 65.8912 -74.0826 66.1344 -74.1666C66.5413 -74.3044 66.8663 -74.5682 67.0862 -74.8975L94.7672 -59.9194L58.8125 -28.887C58.581 -29.1088 58.298 -29.2676 57.9917 -29.347L65.4001 -74.0709ZM30.9468 -37.4606C31.2134 -37.6473 31.4238 -37.8972 31.5595 -38.182L56.3875 -29.0178C55.7631 -28.5461 55.4801 -27.7102 55.7467 -26.9304C56.0063 -26.1669 56.7102 -25.6836 57.4749 -25.6649L60.1758 13.6072L30.9468 -37.4606ZM60.5453 13.9761L57.8186 -25.6906C57.9192 -25.7069 58.0197 -25.7303 58.1203 -25.763C58.2209 -25.7957 58.3121 -25.84 58.4033 -25.8867L75.6521 0.107094L60.5477 13.9784L60.5453 13.9761ZM60.7137 14.2913L75.8439 0.396622L93.6213 27.189C93.4225 27.3501 93.2588 27.5485 93.1419 27.7703L60.7137 14.2913ZM98.1019 62.4848L108.84 107.407L81.7065 135.607C81.5335 135.47 81.3394 135.367 81.1313 135.297L98.1042 62.4872L98.1019 62.4848ZM82.2491 137.823C82.3987 137.487 82.4502 137.109 82.38 136.731L112.133 128.405C112.491 129.338 113.524 129.831 114.481 129.507C114.546 129.483 114.609 129.458 114.673 129.43L137.197 167.835C137.019 167.961 136.87 168.12 136.748 168.295L82.2514 137.823H82.2491ZM137.609 171.095C137.681 171.123 137.754 171.146 137.829 171.165L134.078 195.415C133.841 195.401 133.601 195.429 133.362 195.51C132.707 195.732 132.258 196.281 132.132 196.911L126.714 196.334C126.716 196.127 126.688 195.917 126.615 195.709C126.47 195.281 126.185 194.941 125.83 194.721L137.609 171.099V171.095ZM125.355 225.499C125.427 225.441 125.495 225.38 125.558 225.315L156.2 248.964L150.597 261.535C150.22 261.407 149.802 261.397 149.397 261.535C149.301 261.568 149.21 261.61 149.121 261.656L125.355 225.501V225.499ZM151.869 263.309C151.869 263.109 151.839 262.903 151.771 262.702C151.616 262.247 151.303 261.892 150.913 261.675L156.481 249.179L176.95 264.977C176.786 265.187 176.669 265.43 176.606 265.689L151.869 263.309ZM180.013 265.145C179.866 264.909 179.672 264.713 179.447 264.566L186.35 248.131L203.408 251.831C203.391 252.072 203.419 252.322 203.503 252.565C203.538 252.667 203.583 252.763 203.634 252.856L180.015 265.142L180.013 265.145ZM198.775 212.648C198.674 212.809 198.6 212.984 198.55 213.166L170.329 206.145L173.727 194.733C174.029 194.789 174.349 194.77 174.662 194.663C174.969 194.558 175.231 194.383 175.437 194.161L198.775 212.646V212.648ZM172.598 144.127C172.221 143.999 171.798 143.987 171.391 144.125C171.131 144.214 170.902 144.354 170.715 144.531L150.487 125.421C150.744 125.091 150.887 124.683 150.887 124.26L181.372 121.29C181.388 121.374 181.407 121.456 181.435 121.538C181.589 121.991 181.9 122.343 182.288 122.563L172.598 144.13V144.127ZM183.741 119.147C183.383 119.039 182.988 119.037 182.606 119.168C182.396 119.24 182.207 119.348 182.043 119.478L169.801 106.772L197.683 82.9941C197.816 83.1248 197.968 83.2322 198.134 83.3163L183.743 119.147H183.741ZM196.927 80.7456L169.029 70.8973L171.737 68.9967C172.219 69.5617 173.014 69.8092 173.762 69.5547C174.169 69.417 174.496 69.1508 174.719 68.8169L196.927 80.7433V80.7456ZM172.525 66.0314C171.95 66.2392 171.538 66.6992 171.372 67.2456L143.074 61.4668C143.102 61.203 143.078 60.9298 142.987 60.6636C142.786 60.0683 142.311 59.6433 141.753 59.4752L156.247 6.88049C156.52 6.94353 156.81 6.94585 157.096 6.87581L172.523 66.0314H172.525ZM158.529 5.13635C158.538 4.91221 158.508 4.68572 158.433 4.46158C158.101 3.48561 157.039 2.96027 156.06 3.29416C155.812 3.37821 155.592 3.50897 155.41 3.67474L140.176 -9.16691C140.209 -9.21828 140.24 -9.26963 140.268 -9.32333L182.433 8.18333C182.419 8.2277 182.408 8.27438 182.396 8.32108L158.529 5.13635ZM184.407 6.88049C184.147 6.8548 183.881 6.88049 183.619 6.96921C183.448 7.02758 183.292 7.10931 183.151 7.20737L158.127 -22.3891L193.375 -44.792C193.63 -44.4628 193.988 -44.2293 194.383 -44.1265L184.409 6.88049H184.407ZM220.918 -48.376C220.614 -48.432 220.292 -48.4156 219.976 -48.3082C219.943 -48.2966 219.91 -48.2826 219.88 -48.2709L209.048 -68.542L234.297 -109.458C234.379 -109.418 234.465 -109.383 234.554 -109.355L220.918 -48.376Z"/>
</mask>
<path d="M236.9 -111.732C236.568 -112.708 235.506 -113.231 234.526 -112.899C233.733 -112.631 233.238 -111.881 233.256 -111.088L190.773 -106.175C190.756 -106.247 190.74 -106.32 190.714 -106.39C190.382 -107.366 189.32 -107.891 188.34 -107.557C187.363 -107.226 186.837 -106.166 187.171 -105.187C187.405 -104.501 187.999 -104.041 188.67 -103.941L187.113 -75.0305C186.937 -75.0235 186.76 -74.9932 186.584 -74.9325C185.908 -74.7037 185.45 -74.1293 185.34 -73.4732L166.319 -74.8788C166.312 -75.0492 166.281 -75.222 166.223 -75.3924C165.891 -76.3684 164.829 -76.8914 163.849 -76.5599C162.879 -76.2307 162.355 -75.1823 162.673 -74.211L139.706 -63.2816C139.281 -64.0708 138.338 -64.463 137.459 -64.1642C137.192 -64.0731 136.959 -63.926 136.769 -63.7439L117.998 -80.0154C118.337 -80.4894 118.452 -81.1105 118.251 -81.7035C117.918 -82.6795 116.857 -83.2048 115.877 -82.871C114.899 -82.5394 114.373 -81.4794 114.708 -80.5011C114.785 -80.2746 114.902 -80.0738 115.047 -79.901L99.2781 -63.9844C98.7941 -64.379 98.1253 -64.5261 97.4915 -64.3113C97.0191 -64.1502 96.652 -63.8186 96.4368 -63.41L67.3223 -75.3691C67.4346 -75.731 67.4393 -76.1303 67.306 -76.5178C66.9739 -77.4938 65.9122 -78.0168 64.9324 -77.6853C63.9549 -77.3537 63.4311 -76.2937 63.7631 -75.3154C63.9736 -74.699 64.474 -74.2647 65.061 -74.1106L57.6526 -29.3867C57.4117 -29.403 57.1615 -29.375 56.9183 -29.2909C56.8692 -29.2746 56.8224 -29.2559 56.7757 -29.2349L31.6811 -38.4972C31.7746 -38.8428 31.7699 -39.2164 31.646 -39.5806C31.3139 -40.5566 30.2522 -41.0819 29.2724 -40.748C28.2949 -40.4165 27.7687 -39.3565 28.1031 -38.3782C28.4352 -37.4022 29.4969 -36.8768 30.4767 -37.2107C30.5352 -37.2317 30.5936 -37.2528 30.6498 -37.2784L60.1829 14.324L60.0846 14.4127L60.2787 14.4944L60.6225 15.0968L60.5898 14.6252L93.0086 28.1019C92.894 28.4661 92.8893 28.8677 93.0226 29.2576C93.2869 30.0305 94.0071 30.5185 94.7812 30.5231L97.1665 58.142C97.0753 58.1583 96.9864 58.1794 96.8975 58.2097C95.92 58.5413 95.3962 59.6013 95.7283 60.5796C96.0393 61.4948 96.9887 62.0108 97.9124 61.8007L80.7969 135.232C80.5186 135.194 80.2263 135.215 79.941 135.311C78.9635 135.643 78.4396 136.703 78.7717 137.681C79.1038 138.657 80.1655 139.18 81.1453 138.848C81.5429 138.713 81.8632 138.458 82.083 138.138L136.58 168.611C136.395 169.024 136.358 169.505 136.517 169.969C136.662 170.397 136.947 170.738 137.302 170.957L125.523 194.579C125.128 194.425 124.679 194.404 124.246 194.551C123.269 194.882 122.743 195.942 123.077 196.921C123.318 197.626 123.938 198.093 124.632 198.174L124.066 222.193C123.91 222.205 123.751 222.233 123.594 222.286C122.617 222.618 122.093 223.678 122.425 224.656C122.757 225.632 123.819 226.155 124.798 225.824C124.894 225.791 124.985 225.749 125.074 225.702L148.841 261.857C148.242 262.334 147.973 263.151 148.235 263.917C148.567 264.893 149.629 265.416 150.609 265.084C151.27 264.86 151.722 264.304 151.843 263.664L176.564 266.044C176.552 266.275 176.58 266.511 176.66 266.742C176.992 267.718 178.053 268.243 179.033 267.909C180.011 267.578 180.534 266.518 180.202 265.539C180.193 265.514 180.184 265.49 180.174 265.467L203.833 253.16C204.313 253.746 205.122 254.005 205.882 253.748C206.859 253.417 207.383 252.357 207.051 251.378C206.798 250.636 206.123 250.157 205.384 250.115L200.947 215.429C200.947 215.429 200.961 215.424 200.968 215.422C201.946 215.09 202.47 214.03 202.138 213.052C201.806 212.076 200.744 211.553 199.764 211.885C199.458 211.99 199.193 212.165 198.99 212.389L175.652 193.904C175.939 193.444 176.028 192.865 175.839 192.312C175.589 191.576 174.927 191.1 174.197 191.048L172.291 147.753C172.396 147.737 172.499 147.714 172.602 147.679C173.58 147.347 174.104 146.287 173.771 145.309C173.617 144.856 173.306 144.503 172.918 144.284L182.609 122.717C182.985 122.845 183.409 122.857 183.815 122.719C184.793 122.388 185.319 121.328 184.985 120.349C184.821 119.871 184.484 119.502 184.066 119.289L198.457 83.4587C198.815 83.5661 199.21 83.5685 199.591 83.4377C200.569 83.1062 201.092 82.0461 200.76 81.0678C200.428 80.0919 199.367 79.5689 198.387 79.9004C197.98 80.0382 197.652 80.3044 197.43 80.6382L174.885 68.5297C175.058 68.1211 175.09 67.6542 174.936 67.2012C174.637 66.3233 173.75 65.8143 172.862 65.9591L157.432 6.79877L157.266 6.84313C157.902 6.62599 158.344 6.10065 158.487 5.49125L182.354 8.67598C182.344 8.90012 182.375 9.12661 182.45 9.35075C182.782 10.3267 183.843 10.8521 184.823 10.5182C185.803 10.1843 186.325 9.12661 185.993 8.14831C185.789 7.55059 185.312 7.12331 184.746 6.95754L194.722 -44.0588C194.963 -44.0425 195.211 -44.0705 195.454 -44.1546C196.203 -44.4067 196.682 -45.0862 196.719 -45.8286L218.732 -46.2209C218.748 -46.1228 218.772 -46.0248 218.804 -45.9267C219.136 -44.9507 220.198 -44.4254 221.178 -44.7593C222.155 -45.0908 222.682 -46.1508 222.347 -47.1292C222.162 -47.6755 221.748 -48.0771 221.248 -48.2709L234.891 -109.28C235.165 -109.245 235.45 -109.269 235.73 -109.362C236.708 -109.694 237.232 -110.754 236.9 -111.732ZM218.706 -46.5758L196.705 -46.1835C196.689 -46.3003 196.663 -46.4193 196.623 -46.5338C196.502 -46.891 196.282 -47.1875 196.004 -47.4047L208.838 -68.1988L219.571 -48.1098C219.043 -47.7736 218.72 -47.1922 218.708 -46.5735L218.706 -46.5758ZM182.564 7.86578L140.399 -9.64088C140.513 -10.0051 140.518 -10.4067 140.385 -10.7966C140.354 -10.8853 140.317 -10.9671 140.275 -11.0488L157.825 -22.2047L182.88 7.42684C182.751 7.55759 182.644 7.70469 182.56 7.86346L182.564 7.86578ZM171.386 68.3873C171.426 68.504 171.477 68.6138 171.536 68.7165L168.629 70.7572L143.628 61.9315L171.302 67.5818C171.274 67.8456 171.297 68.1188 171.389 68.385L171.386 68.3873ZM181.337 120.947L150.852 123.917C150.835 123.833 150.817 123.751 150.789 123.669C150.73 123.494 150.646 123.336 150.545 123.193L169.536 106.996L181.793 119.719C181.5 120.057 181.334 120.494 181.337 120.947ZM205.03 250.115C204.911 250.132 204.79 250.157 204.67 250.199C204.053 250.41 203.618 250.909 203.461 251.495L186.484 247.811L200.063 215.485C200.239 215.513 200.419 215.518 200.599 215.492L203.253 236.232L205.028 250.113L205.03 250.115ZM82.2842 136.399C82.2047 136.191 82.0924 136.004 81.9544 135.846L108.934 107.806L113.276 125.969C112.386 126.27 111.873 127.176 112.039 128.073L82.2865 136.399H82.2842ZM138.313 -60.5522L120.748 -50.7949L136.65 -61.1756C137.059 -60.7086 137.684 -60.4658 138.315 -60.5522H138.313ZM165.051 -73.0272C165.294 -73.109 165.51 -73.2374 165.69 -73.3962L176.183 -63.4684L147.491 -37.5703C147.393 -37.659 147.285 -37.7384 147.173 -37.8038L163.756 -73.0623C164.156 -72.9012 164.612 -72.8778 165.054 -73.0272H165.051ZM187.861 -71.4279C188.792 -71.7874 189.283 -72.8171 188.958 -73.7697C188.724 -74.4562 188.13 -74.9161 187.459 -75.0165L188.995 -103.539L194.554 -47.895L187.861 -71.4279ZM185.92 -71.7921C186.346 -71.4022 186.94 -71.2224 187.529 -71.3321L194.25 -47.7035C194.037 -47.6311 193.848 -47.5237 193.682 -47.3906L176.692 -63.4637L185.92 -71.7945V-71.7921ZM193.431 -47.1478C193.109 -46.7719 192.943 -46.2746 192.989 -45.7656L148.015 -36.7298C148.008 -36.7508 148.003 -36.7741 147.996 -36.7951C147.931 -36.9866 147.837 -37.1594 147.723 -37.3135L176.435 -63.2302L193.431 -47.1478ZM154.858 5.55196L137.646 13.7099C137.375 13.2523 136.921 12.9417 136.416 12.8343L137.948 -0.836174L154.867 4.53864C154.773 4.86085 154.764 5.20873 154.86 5.55196H154.858ZM125.963 223.442C125.795 222.942 125.432 222.564 124.992 222.356L131.288 205.123L158.183 240.739C158.059 240.851 157.954 240.979 157.865 241.117L125.928 224.738C126.089 224.339 126.115 223.881 125.965 223.442H125.963ZM134.569 199.05C134.627 199.031 134.681 199.008 134.737 198.984L157.984 239.903L131.43 204.738L133.493 199.087C133.837 199.178 134.209 199.174 134.571 199.05H134.569ZM158.84 240.351C158.782 240.37 158.728 240.393 158.672 240.416L135.034 198.812C135.361 198.585 135.6 198.263 135.729 197.896L169.894 206.398L159.804 240.288C159.493 240.225 159.16 240.241 158.838 240.349L158.84 240.351ZM172.193 192.923L135.799 196.907C135.782 196.832 135.764 196.755 135.738 196.68C135.63 196.365 135.446 196.096 135.214 195.891L149.362 176.841L172.429 191.996C172.273 192.277 172.188 192.596 172.193 192.926V192.923ZM149.28 176.374L139.936 170.236C140.169 169.797 140.23 169.267 140.057 168.758C140.02 168.646 139.971 168.54 139.914 168.442L170.647 147.193C170.703 147.254 170.764 147.307 170.83 147.359L149.28 176.376V176.374ZM170.224 146.5C170.275 146.651 170.348 146.791 170.432 146.92L139.718 168.158C139.496 167.894 139.206 167.698 138.886 167.59L145.931 137.996L170.151 145.608C170.105 145.897 170.126 146.203 170.226 146.5H170.224ZM145.679 137.555L115.706 128.134C115.734 128.001 115.751 127.865 115.748 127.73L147.183 124.627C147.199 124.708 147.218 124.79 147.246 124.872C147.44 125.444 147.886 125.86 148.42 126.039L145.679 137.552V137.555ZM83.0629 -6.38377C83.4511 -6.55654 83.7551 -6.85074 83.9468 -7.20564L106.862 2.49799L95.4243 26.8878C95.0899 26.7687 94.7204 26.7407 94.3556 26.8294L83.0629 -6.38143V-6.38377ZM116.312 -79.2496L116.375 -62.6302L99.954 -62.7142C99.9399 -62.8613 99.9119 -63.0061 99.8628 -63.1532C99.7856 -63.3797 99.6687 -63.5805 99.5237 -63.7532L115.29 -79.6699C115.58 -79.4341 115.935 -79.287 116.31 -79.2519L116.312 -79.2496ZM99.9516 -62.3687L116.375 -62.2846L116.422 -50.1504C116.281 -50.1364 116.139 -50.1084 116.001 -50.0617C115.697 -49.959 115.437 -49.7839 115.231 -49.5644L99.671 -61.5491C99.8254 -61.7943 99.9236 -62.0745 99.9516 -62.3663V-62.3687ZM136.201 -62.1819C136.217 -62.0535 136.245 -61.9274 136.287 -61.8013C136.33 -61.6776 136.383 -61.5632 136.446 -61.4558L118.066 -49.457C117.745 -49.8586 117.275 -50.1107 116.768 -50.1551L116.721 -62.2846L136.201 -62.1842V-62.1819ZM144.451 -35.595C144.503 -35.4409 144.577 -35.2985 144.662 -35.1677L130.792 -24.0772L117.68 -46.7696C117.925 -46.9424 118.122 -47.1712 118.258 -47.4303L144.433 -36.7391C144.323 -36.3772 144.318 -35.9803 144.449 -35.595H144.451ZM136.743 -10.2106L114.2 -9.59885C114.188 -9.64555 114.177 -9.69224 114.16 -9.73894C114.109 -9.89304 114.034 -10.0355 113.95 -10.1662L130.696 -23.5589L137.534 -11.7236C137.043 -11.3757 136.748 -10.8106 136.743 -10.2129V-10.2106ZM148.413 122.5C148.277 122.546 148.151 122.607 148.034 122.679L133.947 103.963L148.228 86.8559C148.392 86.8909 148.56 86.9026 148.731 86.8909L148.838 122.413C148.698 122.427 148.555 122.455 148.415 122.502L148.413 122.5ZM126.19 91.2851L130.979 90.1621L147.276 86.3376C147.447 86.5104 147.65 86.6481 147.87 86.7415L133.731 103.678L125.621 92.9032C126.054 92.4946 126.276 91.8922 126.19 91.2851ZM147.758 122.885C147.367 123.24 147.143 123.746 147.145 124.279L122.362 126.726L115.711 127.382C115.695 127.3 115.676 127.218 115.648 127.137C115.552 126.856 115.395 126.616 115.201 126.42L133.72 104.234L147.758 122.885ZM146.837 85.6255C146.888 85.7749 146.956 85.9103 147.038 86.0364L126.113 90.9466C126.113 90.9466 126.113 90.9442 126.113 90.9419C125.979 90.5496 125.729 90.2345 125.413 90.0126L132.263 77.6099L146.745 84.883C146.727 85.1258 146.757 85.3756 146.839 85.6208L146.837 85.6255ZM132.118 77.157L99.2384 60.645C99.2945 60.5002 99.3319 60.3484 99.353 60.1943L135.853 61.3267L139.353 61.4341C139.367 61.5766 139.395 61.7213 139.442 61.8637C139.566 62.228 139.791 62.5292 140.076 62.7463L132.118 77.157ZM96.5 27.8801C96.3363 27.5135 96.065 27.2216 95.7376 27.0302L107.18 2.62873L134.253 14.0928C134.152 14.408 134.134 14.7536 134.216 15.0945L96.5 27.8801ZM59.0767 -26.5055C59.1282 -26.5848 59.175 -26.6666 59.2147 -26.753L89.3815 -16.6571L83.3762 -9.61987C82.9039 -9.95142 82.2865 -10.0611 81.6995 -9.86269C81.4002 -9.76229 81.1453 -9.59185 80.9419 -9.37704L74.1602 -14.6888L59.0767 -26.5055ZM112.991 -7.37141C113.211 -7.44612 113.407 -7.56053 113.578 -7.70062L134.601 13.4601C134.52 13.5581 134.449 13.6632 134.389 13.7729L107.327 2.31353L111.859 -7.35273C112.217 -7.24767 112.61 -7.24532 112.989 -7.37374L112.991 -7.37141ZM112.76 -10.9694L116.576 -46.4287C116.784 -46.4264 116.997 -46.4544 117.205 -46.5268C117.266 -46.5478 117.327 -46.5711 117.385 -46.5991L130.523 -23.8624L113.735 -10.4371C113.471 -10.7102 113.132 -10.8947 112.76 -10.9694ZM115.526 -46.7696C115.737 -46.6225 115.977 -46.5174 116.23 -46.4661L112.414 -11.0068C112.205 -11.0091 111.993 -10.9811 111.785 -10.9087C111.268 -10.7336 110.88 -10.3553 110.676 -9.89304L89.9732 -16.8205L115.524 -46.7672L115.526 -46.7696ZM110.568 -9.56616C110.545 -9.46577 110.529 -9.36303 110.522 -9.25797L94.5567 -8.69527L84.1573 -8.3287C84.1409 -8.45011 84.1129 -8.57152 84.0731 -8.6906C83.9796 -8.96378 83.8299 -9.19959 83.6405 -9.39339L89.7347 -16.538L110.571 -9.56616H110.568ZM84.1667 -7.98314L110.531 -8.90073C110.547 -8.77932 110.576 -8.65791 110.615 -8.5365C110.779 -8.05785 111.118 -7.68661 111.537 -7.47414L107.007 2.1851L84.0801 -7.52317C84.1269 -7.67027 84.1573 -7.82437 84.1667 -7.98314ZM134.959 16.1895C135.277 16.4113 135.663 16.5351 136.061 16.5281L137.84 33.0331L140.691 59.4705C140.665 59.4775 140.637 59.4845 140.611 59.4939C140.237 59.62 139.931 59.8535 139.711 60.1476L113.379 41.5553L134.959 16.1872V16.1895ZM135.432 12.8927C135.212 12.9674 135.018 13.0795 134.849 13.2173L113.882 -8.01582C113.973 -8.13724 114.048 -8.27032 114.107 -8.41042L137.606 -0.943581L136.068 12.797C135.857 12.7923 135.642 12.8227 135.432 12.8951V12.8927ZM114.902 -47.5121C114.993 -47.3136 115.117 -47.1408 115.262 -46.9914L89.6201 -16.9396L59.327 -27.0752C59.3971 -27.3553 59.4065 -27.6542 59.3387 -27.9507L114.902 -47.5121ZM96.6099 28.2093L134.325 15.4237C134.417 15.6315 134.545 15.8136 134.697 15.9677L113.099 41.3591L96.4111 29.5775C96.6426 29.1759 96.7268 28.6879 96.6099 28.2116V28.2093ZM113.157 41.8214L139.533 60.4442C139.435 60.6449 139.374 60.8644 139.353 61.0886L99.3647 59.8488C99.3553 59.6877 99.3249 59.5242 99.2711 59.3631C99.1776 59.09 99.0256 58.8518 98.8362 58.658L113.16 41.8191L113.157 41.8214ZM99.084 60.9532L131.952 77.4605L125.112 89.8469C124.693 89.6578 124.207 89.618 123.739 89.7768C123.578 89.8305 123.43 89.9076 123.297 89.9963L98.8362 61.266C98.9297 61.1703 99.0139 61.0652 99.0864 60.9508L99.084 60.9532ZM124.941 93.3141C125.088 93.2627 125.226 93.195 125.35 93.1133L133.505 103.949L114.932 126.198C114.815 126.119 114.689 126.051 114.558 125.997L124.017 93.3842C124.317 93.4355 124.632 93.4168 124.939 93.3118L124.941 93.3141ZM146.804 84.5328L132.427 77.3134L140.371 62.9308C140.7 63.0965 141.079 63.1666 141.46 63.1152L147.922 83.2906C147.356 83.5124 146.953 83.9817 146.804 84.5328ZM137.651 -1.29381L114.217 -8.73962C114.254 -8.90773 114.268 -9.08052 114.256 -9.25563L136.776 -9.86736C136.793 -9.77631 136.814 -9.68758 136.844 -9.59652C137.09 -8.87739 137.728 -8.40575 138.439 -8.33804L137.648 -1.29381H137.651ZM138.016 -11.9664C137.955 -11.9454 137.894 -11.922 137.836 -11.894L130.97 -23.776L144.879 -34.8992C145.066 -34.7078 145.288 -34.556 145.536 -34.4603L138.972 -12.0294C138.663 -12.0901 138.334 -12.0738 138.013 -11.9664H138.016ZM163.449 -73.221L146.862 -37.9532C146.476 -38.0933 146.044 -38.1073 145.625 -37.9672C145.15 -37.8061 144.783 -37.4722 144.568 -37.0613L118.393 -47.7525C118.503 -48.1144 118.508 -48.5114 118.377 -48.8966C118.358 -48.948 118.337 -48.9994 118.316 -49.0484L162.872 -73.8001C163.021 -73.5619 163.22 -73.3658 163.449 -73.221ZM136.194 -62.5298L116.723 -62.6302L116.66 -79.2543C116.801 -79.2683 116.943 -79.2963 117.081 -79.343C117.348 -79.4341 117.582 -79.5812 117.771 -79.7633L136.542 -63.4917C136.341 -63.2116 136.217 -62.8777 136.194 -62.5275V-62.5298ZM98.6935 -60.7833C98.9975 -60.8861 99.2571 -61.0612 99.4629 -61.2806L114.799 -49.4687L95.3752 -59.9778L96.797 -61.2059C97.2857 -60.739 98.0107 -60.5522 98.6935 -60.7833ZM114.885 -49.0297C114.729 -48.6655 114.687 -48.2499 114.792 -47.8413L59.3176 -28.3103L59.2007 -28.3547C59.1539 -28.4481 59.1025 -28.5391 59.0417 -28.6232L95.0945 -59.7396L114.885 -49.032V-49.0297ZM58.8616 -26.237L80.7314 -9.1062C80.4321 -8.64391 80.3409 -8.05552 80.5303 -7.49282C80.8249 -6.62893 81.6878 -6.12226 82.5601 -6.24368L75.907 -0.133392L58.6909 -26.0805C58.7517 -26.1296 58.8078 -26.1809 58.8616 -26.237ZM82.8244 -6.01953L94.0305 26.9321C93.9884 26.9508 93.9487 26.9718 93.9089 26.9928L76.1011 0.153801L82.8267 -6.02187L82.8244 -6.01953ZM95.3939 30.4064C95.7236 30.2943 96.0019 30.0982 96.2123 29.8507L112.874 41.616L98.5696 58.4315C98.2609 58.2167 97.8914 58.0953 97.5079 58.093L95.1226 30.4741C95.2138 30.4577 95.3027 30.4367 95.3915 30.4064H95.3939ZM123.028 90.2111C122.532 90.6991 122.329 91.4416 122.567 92.142C122.647 92.3778 122.771 92.5856 122.925 92.7631L109.123 107.106L98.2609 61.6629C98.3708 61.6139 98.476 61.5532 98.5719 61.4855L123.028 90.2088V90.2111ZM123.173 93.0012C123.327 93.125 123.5 93.2231 123.685 93.2908L114.228 125.899C114.027 125.862 113.821 125.855 113.611 125.885L109.217 107.505L123.173 93.0012ZM115.599 128.456L145.595 137.884L138.544 167.501C138.263 167.462 137.967 167.483 137.679 167.581C137.613 167.604 137.55 167.63 137.489 167.658L114.965 129.252C115.25 129.049 115.465 128.771 115.599 128.456ZM138.883 171.118C139.234 170.999 139.526 170.784 139.741 170.516L149.07 176.645L134.933 195.678C134.774 195.583 134.599 195.51 134.417 195.464L138.168 171.214C138.404 171.228 138.645 171.2 138.883 171.118ZM132.19 197.875C132.361 198.375 132.721 198.753 133.163 198.964L131.175 204.404L126.101 197.684C126.396 197.416 126.597 197.058 126.674 196.671L132.092 197.247C132.09 197.455 132.118 197.665 132.19 197.873V197.875ZM125.444 198.072C125.579 198.025 125.708 197.964 125.825 197.892L131.035 204.789L124.665 222.23C124.581 222.207 124.494 222.193 124.405 222.184L124.971 198.165C125.128 198.153 125.287 198.125 125.444 198.072ZM157.701 241.418C157.54 241.817 157.514 242.275 157.664 242.714C157.818 243.169 158.132 243.524 158.522 243.741L156.34 248.635L125.776 225.046L157.701 241.418ZM158.838 243.881C159.214 244.01 159.633 244.019 160.037 243.881C160.192 243.83 160.334 243.758 160.463 243.671L177.277 264.645C177.244 264.671 177.214 264.694 177.183 264.72L156.621 248.85L158.835 243.879L158.838 243.881ZM177.819 264.355C177.733 264.384 177.653 264.421 177.574 264.461L160.734 243.456C160.959 243.239 161.125 242.971 161.218 242.676L186.004 248.054L179.136 264.4C178.731 264.232 178.266 264.204 177.819 264.355ZM161.293 242.338C161.326 242.067 161.303 241.787 161.209 241.511C161.172 241.402 161.125 241.299 161.069 241.201L199.128 215.041C199.303 215.195 199.507 215.314 199.727 215.394L186.142 247.731L161.296 242.34L161.293 242.338ZM198.588 214.236C198.658 214.441 198.761 214.626 198.887 214.787L160.872 240.916C160.671 240.678 160.419 240.493 160.133 240.379L170.229 206.472L198.492 213.505C198.476 213.745 198.504 213.993 198.588 214.236ZM169.992 206.059L135.813 197.556C135.829 197.453 135.836 197.348 135.834 197.243L172.226 193.259C172.242 193.339 172.261 193.416 172.287 193.495C172.474 194.044 172.89 194.448 173.393 194.639L169.992 206.061V206.059ZM173.458 191.123C173.117 191.238 172.834 191.443 172.621 191.702L149.566 176.554L171.115 147.536C171.368 147.669 171.648 147.746 171.938 147.753L173.844 191.034C173.715 191.048 173.587 191.076 173.458 191.121V191.123ZM170.231 145.262L146.006 137.648L148.754 126.109C149.035 126.149 149.329 126.128 149.619 126.03C149.86 125.948 150.073 125.822 150.253 125.666L170.488 144.783C170.381 144.931 170.296 145.092 170.233 145.262H170.231ZM150.319 122.925C150.012 122.628 149.61 122.441 149.182 122.404L149.074 86.8279C149.119 86.8162 149.163 86.8046 149.208 86.7906C149.418 86.7182 149.608 86.6108 149.771 86.48L169.293 106.742L150.316 122.925H150.319ZM150.022 86.2395C150.302 85.915 150.464 85.5017 150.475 85.0674L197.138 81.9458C197.154 82.0485 197.178 82.1489 197.213 82.2493C197.271 82.4244 197.355 82.5832 197.456 82.7256L169.56 106.515L150.024 86.2395H150.022ZM197.115 81.6002L150.452 84.7219C150.435 84.6191 150.412 84.5188 150.377 84.4184C150.337 84.3016 150.288 84.1919 150.227 84.0891L168.678 71.1331L197.168 81.1893C197.136 81.3223 197.117 81.4601 197.112 81.5979L197.115 81.6002ZM150.031 83.8089C149.601 83.3046 148.925 83.0571 148.254 83.1879L141.799 63.0312C141.799 63.0312 141.811 63.0288 141.818 63.0265C142.323 62.856 142.707 62.4872 142.915 62.0389L168.285 70.993L150.036 83.8066L150.031 83.8089ZM141.032 59.3981L136.404 16.4837C136.482 16.4674 136.559 16.4487 136.636 16.423C137.613 16.0914 138.14 15.0314 137.805 14.0531C137.8 14.0391 137.793 14.0274 137.789 14.0134L154.975 5.86716C155.173 6.28043 155.512 6.59097 155.915 6.76374L141.409 59.3981C141.285 59.3841 141.159 59.3841 141.03 59.3981H141.032ZM154.991 4.20942L137.985 -1.19341L138.787 -8.34504C138.93 -8.35905 139.075 -8.38706 139.218 -8.43376C139.51 -8.53182 139.76 -8.6976 139.961 -8.9054L155.176 3.91991C155.105 4.01096 155.045 4.10902 154.993 4.20942H154.991ZM140.092 -11.3476C139.884 -11.6138 139.61 -11.817 139.302 -11.9407L145.866 -34.3716C146.175 -34.3108 146.504 -34.3272 146.825 -34.4346C146.996 -34.493 147.152 -34.5747 147.293 -34.6728L157.603 -22.4779L140.092 -11.3476ZM147.557 -34.8946C147.943 -35.2868 148.144 -35.8402 148.083 -36.4005L193.05 -45.4364C193.06 -45.4037 193.067 -45.3733 193.078 -45.3407C193.109 -45.2519 193.146 -45.1702 193.186 -45.0908L157.898 -22.6623L147.557 -34.8922V-34.8946ZM195.709 -47.6008C195.464 -47.7269 195.19 -47.7993 194.909 -47.8086L189.299 -103.969C189.381 -103.985 189.463 -104.004 189.545 -104.032C189.587 -104.046 189.627 -104.064 189.666 -104.081L208.646 -68.563L195.709 -47.6031V-47.6008ZM189.97 -104.242C190.508 -104.597 190.829 -105.204 190.812 -105.843L233.296 -110.756C233.312 -110.684 233.329 -110.611 233.355 -110.541C233.481 -110.172 233.71 -109.866 234.002 -109.649L208.856 -68.9039L189.97 -104.244V-104.242ZM185.415 -72.5766C185.48 -72.3852 185.574 -72.2124 185.689 -72.0583L176.44 -63.7112L165.926 -73.6577C166.127 -73.9145 166.256 -74.2227 166.302 -74.5472L185.317 -73.144C185.321 -72.9572 185.352 -72.7657 185.415 -72.579V-72.5766ZM139.498 -61.2199C139.893 -61.6939 140.043 -62.3523 139.842 -62.9804L159.535 -72.3501L139.498 -61.2199ZM96.3199 -61.9601C96.3807 -61.7826 96.4649 -61.6192 96.5701 -61.4744L95.0501 -60.1623L68.4729 -74.5426L96.3059 -63.1088C96.1936 -62.7469 96.189 -62.3477 96.3223 -61.9601H96.3199ZM65.4001 -74.0709C65.641 -74.0546 65.8912 -74.0826 66.1344 -74.1666C66.5413 -74.3044 66.8663 -74.5682 67.0862 -74.8975L94.7672 -59.9194L58.8125 -28.887C58.581 -29.1088 58.298 -29.2676 57.9917 -29.347L65.4001 -74.0709ZM30.9468 -37.4606C31.2134 -37.6473 31.4238 -37.8972 31.5595 -38.182L56.3875 -29.0178C55.7631 -28.5461 55.4801 -27.7102 55.7467 -26.9304C56.0063 -26.1669 56.7102 -25.6836 57.4749 -25.6649L60.1758 13.6072L30.9468 -37.4606ZM60.5453 13.9761L57.8186 -25.6906C57.9192 -25.7069 58.0197 -25.7303 58.1203 -25.763C58.2209 -25.7957 58.3121 -25.84 58.4033 -25.8867L75.6521 0.107094L60.5477 13.9784L60.5453 13.9761ZM60.7137 14.2913L75.8439 0.396622L93.6213 27.189C93.4225 27.3501 93.2588 27.5485 93.1419 27.7703L60.7137 14.2913ZM98.1019 62.4848L108.84 107.407L81.7065 135.607C81.5335 135.47 81.3394 135.367 81.1313 135.297L98.1042 62.4872L98.1019 62.4848ZM82.2491 137.823C82.3987 137.487 82.4502 137.109 82.38 136.731L112.133 128.405C112.491 129.338 113.524 129.831 114.481 129.507C114.546 129.483 114.609 129.458 114.673 129.43L137.197 167.835C137.019 167.961 136.87 168.12 136.748 168.295L82.2514 137.823H82.2491ZM137.609 171.095C137.681 171.123 137.754 171.146 137.829 171.165L134.078 195.415C133.841 195.401 133.601 195.429 133.362 195.51C132.707 195.732 132.258 196.281 132.132 196.911L126.714 196.334C126.716 196.127 126.688 195.917 126.615 195.709C126.47 195.281 126.185 194.941 125.83 194.721L137.609 171.099V171.095ZM125.355 225.499C125.427 225.441 125.495 225.38 125.558 225.315L156.2 248.964L150.597 261.535C150.22 261.407 149.802 261.397 149.397 261.535C149.301 261.568 149.21 261.61 149.121 261.656L125.355 225.501V225.499ZM151.869 263.309C151.869 263.109 151.839 262.903 151.771 262.702C151.616 262.247 151.303 261.892 150.913 261.675L156.481 249.179L176.95 264.977C176.786 265.187 176.669 265.43 176.606 265.689L151.869 263.309ZM180.013 265.145C179.866 264.909 179.672 264.713 179.447 264.566L186.35 248.131L203.408 251.831C203.391 252.072 203.419 252.322 203.503 252.565C203.538 252.667 203.583 252.763 203.634 252.856L180.015 265.142L180.013 265.145ZM198.775 212.648C198.674 212.809 198.6 212.984 198.55 213.166L170.329 206.145L173.727 194.733C174.029 194.789 174.349 194.77 174.662 194.663C174.969 194.558 175.231 194.383 175.437 194.161L198.775 212.646V212.648ZM172.598 144.127C172.221 143.999 171.798 143.987 171.391 144.125C171.131 144.214 170.902 144.354 170.715 144.531L150.487 125.421C150.744 125.091 150.887 124.683 150.887 124.26L181.372 121.29C181.388 121.374 181.407 121.456 181.435 121.538C181.589 121.991 181.9 122.343 182.288 122.563L172.598 144.13V144.127ZM183.741 119.147C183.383 119.039 182.988 119.037 182.606 119.168C182.396 119.24 182.207 119.348 182.043 119.478L169.801 106.772L197.683 82.9941C197.816 83.1248 197.968 83.2322 198.134 83.3163L183.743 119.147H183.741ZM196.927 80.7456L169.029 70.8973L171.737 68.9967C172.219 69.5617 173.014 69.8092 173.762 69.5547C174.169 69.417 174.496 69.1508 174.719 68.8169L196.927 80.7433V80.7456ZM172.525 66.0314C171.95 66.2392 171.538 66.6992 171.372 67.2456L143.074 61.4668C143.102 61.203 143.078 60.9298 142.987 60.6636C142.786 60.0683 142.311 59.6433 141.753 59.4752L156.247 6.88049C156.52 6.94353 156.81 6.94585 157.096 6.87581L172.523 66.0314H172.525ZM158.529 5.13635C158.538 4.91221 158.508 4.68572 158.433 4.46158C158.101 3.48561 157.039 2.96027 156.06 3.29416C155.812 3.37821 155.592 3.50897 155.41 3.67474L140.176 -9.16691C140.209 -9.21828 140.24 -9.26963 140.268 -9.32333L182.433 8.18333C182.419 8.2277 182.408 8.27438 182.396 8.32108L158.529 5.13635ZM184.407 6.88049C184.147 6.8548 183.881 6.88049 183.619 6.96921C183.448 7.02758 183.292 7.10931 183.151 7.20737L158.127 -22.3891L193.375 -44.792C193.63 -44.4628 193.988 -44.2293 194.383 -44.1265L184.409 6.88049H184.407ZM220.918 -48.376C220.614 -48.432 220.292 -48.4156 219.976 -48.3082C219.943 -48.2966 219.91 -48.2826 219.88 -48.2709L209.048 -68.542L234.297 -109.458C234.379 -109.418 234.465 -109.383 234.554 -109.355L220.918 -48.376Z" fill="white"/>
<path d="M236.9 -111.732C236.568 -112.708 235.506 -113.231 234.526 -112.899C233.733 -112.631 233.238 -111.881 233.256 -111.088L190.773 -106.175C190.756 -106.247 190.74 -106.32 190.714 -106.39C190.382 -107.366 189.32 -107.891 188.34 -107.557C187.363 -107.226 186.837 -106.166 187.171 -105.187C187.405 -104.501 187.999 -104.041 188.67 -103.941L187.113 -75.0305C186.937 -75.0235 186.76 -74.9932 186.584 -74.9325C185.908 -74.7037 185.45 -74.1293 185.34 -73.4732L166.319 -74.8788C166.312 -75.0492 166.281 -75.222 166.223 -75.3924C165.891 -76.3684 164.829 -76.8914 163.849 -76.5599C162.879 -76.2307 162.355 -75.1823 162.673 -74.211L139.706 -63.2816C139.281 -64.0708 138.338 -64.463 137.459 -64.1642C137.192 -64.0731 136.959 -63.926 136.769 -63.7439L117.998 -80.0154C118.337 -80.4894 118.452 -81.1105 118.251 -81.7035C117.918 -82.6795 116.857 -83.2048 115.877 -82.871C114.899 -82.5394 114.373 -81.4794 114.708 -80.5011C114.785 -80.2746 114.902 -80.0738 115.047 -79.901L99.2781 -63.9844C98.7941 -64.379 98.1253 -64.5261 97.4915 -64.3113C97.0191 -64.1502 96.652 -63.8186 96.4368 -63.41L67.3223 -75.3691C67.4346 -75.731 67.4393 -76.1303 67.306 -76.5178C66.9739 -77.4938 65.9122 -78.0168 64.9324 -77.6853C63.9549 -77.3537 63.4311 -76.2937 63.7631 -75.3154C63.9736 -74.699 64.474 -74.2647 65.061 -74.1106L57.6526 -29.3867C57.4117 -29.403 57.1615 -29.375 56.9183 -29.2909C56.8692 -29.2746 56.8224 -29.2559 56.7757 -29.2349L31.6811 -38.4972C31.7746 -38.8428 31.7699 -39.2164 31.646 -39.5806C31.3139 -40.5566 30.2522 -41.0819 29.2724 -40.748C28.2949 -40.4165 27.7687 -39.3565 28.1031 -38.3782C28.4352 -37.4022 29.4969 -36.8768 30.4767 -37.2107C30.5352 -37.2317 30.5936 -37.2528 30.6498 -37.2784L60.1829 14.324L60.0846 14.4127L60.2787 14.4944L60.6225 15.0968L60.5898 14.6252L93.0086 28.1019C92.894 28.4661 92.8893 28.8677 93.0226 29.2576C93.2869 30.0305 94.0071 30.5185 94.7812 30.5231L97.1665 58.142C97.0753 58.1583 96.9864 58.1794 96.8975 58.2097C95.92 58.5413 95.3962 59.6013 95.7283 60.5796C96.0393 61.4948 96.9887 62.0108 97.9124 61.8007L80.7969 135.232C80.5186 135.194 80.2263 135.215 79.941 135.311C78.9635 135.643 78.4396 136.703 78.7717 137.681C79.1038 138.657 80.1655 139.18 81.1453 138.848C81.5429 138.713 81.8632 138.458 82.083 138.138L136.58 168.611C136.395 169.024 136.358 169.505 136.517 169.969C136.662 170.397 136.947 170.738 137.302 170.957L125.523 194.579C125.128 194.425 124.679 194.404 124.246 194.551C123.269 194.882 122.743 195.942 123.077 196.921C123.318 197.626 123.938 198.093 124.632 198.174L124.066 222.193C123.91 222.205 123.751 222.233 123.594 222.286C122.617 222.618 122.093 223.678 122.425 224.656C122.757 225.632 123.819 226.155 124.798 225.824C124.894 225.791 124.985 225.749 125.074 225.702L148.841 261.857C148.242 262.334 147.973 263.151 148.235 263.917C148.567 264.893 149.629 265.416 150.609 265.084C151.27 264.86 151.722 264.304 151.843 263.664L176.564 266.044C176.552 266.275 176.58 266.511 176.66 266.742C176.992 267.718 178.053 268.243 179.033 267.909C180.011 267.578 180.534 266.518 180.202 265.539C180.193 265.514 180.184 265.49 180.174 265.467L203.833 253.16C204.313 253.746 205.122 254.005 205.882 253.748C206.859 253.417 207.383 252.357 207.051 251.378C206.798 250.636 206.123 250.157 205.384 250.115L200.947 215.429C200.947 215.429 200.961 215.424 200.968 215.422C201.946 215.09 202.47 214.03 202.138 213.052C201.806 212.076 200.744 211.553 199.764 211.885C199.458 211.99 199.193 212.165 198.99 212.389L175.652 193.904C175.939 193.444 176.028 192.865 175.839 192.312C175.589 191.576 174.927 191.1 174.197 191.048L172.291 147.753C172.396 147.737 172.499 147.714 172.602 147.679C173.58 147.347 174.104 146.287 173.771 145.309C173.617 144.856 173.306 144.503 172.918 144.284L182.609 122.717C182.985 122.845 183.409 122.857 183.815 122.719C184.793 122.388 185.319 121.328 184.985 120.349C184.821 119.871 184.484 119.502 184.066 119.289L198.457 83.4587C198.815 83.5661 199.21 83.5685 199.591 83.4377C200.569 83.1062 201.092 82.0461 200.76 81.0678C200.428 80.0919 199.367 79.5689 198.387 79.9004C197.98 80.0382 197.652 80.3044 197.43 80.6382L174.885 68.5297C175.058 68.1211 175.09 67.6542 174.936 67.2012C174.637 66.3233 173.75 65.8143 172.862 65.9591L157.432 6.79877L157.266 6.84313C157.902 6.62599 158.344 6.10065 158.487 5.49125L182.354 8.67598C182.344 8.90012 182.375 9.12661 182.45 9.35075C182.782 10.3267 183.843 10.8521 184.823 10.5182C185.803 10.1843 186.325 9.12661 185.993 8.14831C185.789 7.55059 185.312 7.12331 184.746 6.95754L194.722 -44.0588C194.963 -44.0425 195.211 -44.0705 195.454 -44.1546C196.203 -44.4067 196.682 -45.0862 196.719 -45.8286L218.732 -46.2209C218.748 -46.1228 218.772 -46.0248 218.804 -45.9267C219.136 -44.9507 220.198 -44.4254 221.178 -44.7593C222.155 -45.0908 222.682 -46.1508 222.347 -47.1292C222.162 -47.6755 221.748 -48.0771 221.248 -48.2709L234.891 -109.28C235.165 -109.245 235.45 -109.269 235.73 -109.362C236.708 -109.694 237.232 -110.754 236.9 -111.732ZM218.706 -46.5758L196.705 -46.1835C196.689 -46.3003 196.663 -46.4193 196.623 -46.5338C196.502 -46.891 196.282 -47.1875 196.004 -47.4047L208.838 -68.1988L219.571 -48.1098C219.043 -47.7736 218.72 -47.1922 218.708 -46.5735L218.706 -46.5758ZM182.564 7.86578L140.399 -9.64088C140.513 -10.0051 140.518 -10.4067 140.385 -10.7966C140.354 -10.8853 140.317 -10.9671 140.275 -11.0488L157.825 -22.2047L182.88 7.42684C182.751 7.55759 182.644 7.70469 182.56 7.86346L182.564 7.86578ZM171.386 68.3873C171.426 68.504 171.477 68.6138 171.536 68.7165L168.629 70.7572L143.628 61.9315L171.302 67.5818C171.274 67.8456 171.297 68.1188 171.389 68.385L171.386 68.3873ZM181.337 120.947L150.852 123.917C150.835 123.833 150.817 123.751 150.789 123.669C150.73 123.494 150.646 123.336 150.545 123.193L169.536 106.996L181.793 119.719C181.5 120.057 181.334 120.494 181.337 120.947ZM205.03 250.115C204.911 250.132 204.79 250.157 204.67 250.199C204.053 250.41 203.618 250.909 203.461 251.495L186.484 247.811L200.063 215.485C200.239 215.513 200.419 215.518 200.599 215.492L203.253 236.232L205.028 250.113L205.03 250.115ZM82.2842 136.399C82.2047 136.191 82.0924 136.004 81.9544 135.846L108.934 107.806L113.276 125.969C112.386 126.27 111.873 127.176 112.039 128.073L82.2865 136.399H82.2842ZM138.313 -60.5522L120.748 -50.7949L136.65 -61.1756C137.059 -60.7086 137.684 -60.4658 138.315 -60.5522H138.313ZM165.051 -73.0272C165.294 -73.109 165.51 -73.2374 165.69 -73.3962L176.183 -63.4684L147.491 -37.5703C147.393 -37.659 147.285 -37.7384 147.173 -37.8038L163.756 -73.0623C164.156 -72.9012 164.612 -72.8778 165.054 -73.0272H165.051ZM187.861 -71.4279C188.792 -71.7874 189.283 -72.8171 188.958 -73.7697C188.724 -74.4562 188.13 -74.9161 187.459 -75.0165L188.995 -103.539L194.554 -47.895L187.861 -71.4279ZM185.92 -71.7921C186.346 -71.4022 186.94 -71.2224 187.529 -71.3321L194.25 -47.7035C194.037 -47.6311 193.848 -47.5237 193.682 -47.3906L176.692 -63.4637L185.92 -71.7945V-71.7921ZM193.431 -47.1478C193.109 -46.7719 192.943 -46.2746 192.989 -45.7656L148.015 -36.7298C148.008 -36.7508 148.003 -36.7741 147.996 -36.7951C147.931 -36.9866 147.837 -37.1594 147.723 -37.3135L176.435 -63.2302L193.431 -47.1478ZM154.858 5.55196L137.646 13.7099C137.375 13.2523 136.921 12.9417 136.416 12.8343L137.948 -0.836174L154.867 4.53864C154.773 4.86085 154.764 5.20873 154.86 5.55196H154.858ZM125.963 223.442C125.795 222.942 125.432 222.564 124.992 222.356L131.288 205.123L158.183 240.739C158.059 240.851 157.954 240.979 157.865 241.117L125.928 224.738C126.089 224.339 126.115 223.881 125.965 223.442H125.963ZM134.569 199.05C134.627 199.031 134.681 199.008 134.737 198.984L157.984 239.903L131.43 204.738L133.493 199.087C133.837 199.178 134.209 199.174 134.571 199.05H134.569ZM158.84 240.351C158.782 240.37 158.728 240.393 158.672 240.416L135.034 198.812C135.361 198.585 135.6 198.263 135.729 197.896L169.894 206.398L159.804 240.288C159.493 240.225 159.16 240.241 158.838 240.349L158.84 240.351ZM172.193 192.923L135.799 196.907C135.782 196.832 135.764 196.755 135.738 196.68C135.63 196.365 135.446 196.096 135.214 195.891L149.362 176.841L172.429 191.996C172.273 192.277 172.188 192.596 172.193 192.926V192.923ZM149.28 176.374L139.936 170.236C140.169 169.797 140.23 169.267 140.057 168.758C140.02 168.646 139.971 168.54 139.914 168.442L170.647 147.193C170.703 147.254 170.764 147.307 170.83 147.359L149.28 176.376V176.374ZM170.224 146.5C170.275 146.651 170.348 146.791 170.432 146.92L139.718 168.158C139.496 167.894 139.206 167.698 138.886 167.59L145.931 137.996L170.151 145.608C170.105 145.897 170.126 146.203 170.226 146.5H170.224ZM145.679 137.555L115.706 128.134C115.734 128.001 115.751 127.865 115.748 127.73L147.183 124.627C147.199 124.708 147.218 124.79 147.246 124.872C147.44 125.444 147.886 125.86 148.42 126.039L145.679 137.552V137.555ZM83.0629 -6.38377C83.4511 -6.55654 83.7551 -6.85074 83.9468 -7.20564L106.862 2.49799L95.4243 26.8878C95.0899 26.7687 94.7204 26.7407 94.3556 26.8294L83.0629 -6.38143V-6.38377ZM116.312 -79.2496L116.375 -62.6302L99.954 -62.7142C99.9399 -62.8613 99.9119 -63.0061 99.8628 -63.1532C99.7856 -63.3797 99.6687 -63.5805 99.5237 -63.7532L115.29 -79.6699C115.58 -79.4341 115.935 -79.287 116.31 -79.2519L116.312 -79.2496ZM99.9516 -62.3687L116.375 -62.2846L116.422 -50.1504C116.281 -50.1364 116.139 -50.1084 116.001 -50.0617C115.697 -49.959 115.437 -49.7839 115.231 -49.5644L99.671 -61.5491C99.8254 -61.7943 99.9236 -62.0745 99.9516 -62.3663V-62.3687ZM136.201 -62.1819C136.217 -62.0535 136.245 -61.9274 136.287 -61.8013C136.33 -61.6776 136.383 -61.5632 136.446 -61.4558L118.066 -49.457C117.745 -49.8586 117.275 -50.1107 116.768 -50.1551L116.721 -62.2846L136.201 -62.1842V-62.1819ZM144.451 -35.595C144.503 -35.4409 144.577 -35.2985 144.662 -35.1677L130.792 -24.0772L117.68 -46.7696C117.925 -46.9424 118.122 -47.1712 118.258 -47.4303L144.433 -36.7391C144.323 -36.3772 144.318 -35.9803 144.449 -35.595H144.451ZM136.743 -10.2106L114.2 -9.59885C114.188 -9.64555 114.177 -9.69224 114.16 -9.73894C114.109 -9.89304 114.034 -10.0355 113.95 -10.1662L130.696 -23.5589L137.534 -11.7236C137.043 -11.3757 136.748 -10.8106 136.743 -10.2129V-10.2106ZM148.413 122.5C148.277 122.546 148.151 122.607 148.034 122.679L133.947 103.963L148.228 86.8559C148.392 86.8909 148.56 86.9026 148.731 86.8909L148.838 122.413C148.698 122.427 148.555 122.455 148.415 122.502L148.413 122.5ZM126.19 91.2851L130.979 90.1621L147.276 86.3376C147.447 86.5104 147.65 86.6481 147.87 86.7415L133.731 103.678L125.621 92.9032C126.054 92.4946 126.276 91.8922 126.19 91.2851ZM147.758 122.885C147.367 123.24 147.143 123.746 147.145 124.279L122.362 126.726L115.711 127.382C115.695 127.3 115.676 127.218 115.648 127.137C115.552 126.856 115.395 126.616 115.201 126.42L133.72 104.234L147.758 122.885ZM146.837 85.6255C146.888 85.7749 146.956 85.9103 147.038 86.0364L126.113 90.9466C126.113 90.9466 126.113 90.9442 126.113 90.9419C125.979 90.5496 125.729 90.2345 125.413 90.0126L132.263 77.6099L146.745 84.883C146.727 85.1258 146.757 85.3756 146.839 85.6208L146.837 85.6255ZM132.118 77.157L99.2384 60.645C99.2945 60.5002 99.3319 60.3484 99.353 60.1943L135.853 61.3267L139.353 61.4341C139.367 61.5766 139.395 61.7213 139.442 61.8637C139.566 62.228 139.791 62.5292 140.076 62.7463L132.118 77.157ZM96.5 27.8801C96.3363 27.5135 96.065 27.2216 95.7376 27.0302L107.18 2.62873L134.253 14.0928C134.152 14.408 134.134 14.7536 134.216 15.0945L96.5 27.8801ZM59.0767 -26.5055C59.1282 -26.5848 59.175 -26.6666 59.2147 -26.753L89.3815 -16.6571L83.3762 -9.61987C82.9039 -9.95142 82.2865 -10.0611 81.6995 -9.86269C81.4002 -9.76229 81.1453 -9.59185 80.9419 -9.37704L74.1602 -14.6888L59.0767 -26.5055ZM112.991 -7.37141C113.211 -7.44612 113.407 -7.56053 113.578 -7.70062L134.601 13.4601C134.52 13.5581 134.449 13.6632 134.389 13.7729L107.327 2.31353L111.859 -7.35273C112.217 -7.24767 112.61 -7.24532 112.989 -7.37374L112.991 -7.37141ZM112.76 -10.9694L116.576 -46.4287C116.784 -46.4264 116.997 -46.4544 117.205 -46.5268C117.266 -46.5478 117.327 -46.5711 117.385 -46.5991L130.523 -23.8624L113.735 -10.4371C113.471 -10.7102 113.132 -10.8947 112.76 -10.9694ZM115.526 -46.7696C115.737 -46.6225 115.977 -46.5174 116.23 -46.4661L112.414 -11.0068C112.205 -11.0091 111.993 -10.9811 111.785 -10.9087C111.268 -10.7336 110.88 -10.3553 110.676 -9.89304L89.9732 -16.8205L115.524 -46.7672L115.526 -46.7696ZM110.568 -9.56616C110.545 -9.46577 110.529 -9.36303 110.522 -9.25797L94.5567 -8.69527L84.1573 -8.3287C84.1409 -8.45011 84.1129 -8.57152 84.0731 -8.6906C83.9796 -8.96378 83.8299 -9.19959 83.6405 -9.39339L89.7347 -16.538L110.571 -9.56616H110.568ZM84.1667 -7.98314L110.531 -8.90073C110.547 -8.77932 110.576 -8.65791 110.615 -8.5365C110.779 -8.05785 111.118 -7.68661 111.537 -7.47414L107.007 2.1851L84.0801 -7.52317C84.1269 -7.67027 84.1573 -7.82437 84.1667 -7.98314ZM134.959 16.1895C135.277 16.4113 135.663 16.5351 136.061 16.5281L137.84 33.0331L140.691 59.4705C140.665 59.4775 140.637 59.4845 140.611 59.4939C140.237 59.62 139.931 59.8535 139.711 60.1476L113.379 41.5553L134.959 16.1872V16.1895ZM135.432 12.8927C135.212 12.9674 135.018 13.0795 134.849 13.2173L113.882 -8.01582C113.973 -8.13724 114.048 -8.27032 114.107 -8.41042L137.606 -0.943581L136.068 12.797C135.857 12.7923 135.642 12.8227 135.432 12.8951V12.8927ZM114.902 -47.5121C114.993 -47.3136 115.117 -47.1408 115.262 -46.9914L89.6201 -16.9396L59.327 -27.0752C59.3971 -27.3553 59.4065 -27.6542 59.3387 -27.9507L114.902 -47.5121ZM96.6099 28.2093L134.325 15.4237C134.417 15.6315 134.545 15.8136 134.697 15.9677L113.099 41.3591L96.4111 29.5775C96.6426 29.1759 96.7268 28.6879 96.6099 28.2116V28.2093ZM113.157 41.8214L139.533 60.4442C139.435 60.6449 139.374 60.8644 139.353 61.0886L99.3647 59.8488C99.3553 59.6877 99.3249 59.5242 99.2711 59.3631C99.1776 59.09 99.0256 58.8518 98.8362 58.658L113.16 41.8191L113.157 41.8214ZM99.084 60.9532L131.952 77.4605L125.112 89.8469C124.693 89.6578 124.207 89.618 123.739 89.7768C123.578 89.8305 123.43 89.9076 123.297 89.9963L98.8362 61.266C98.9297 61.1703 99.0139 61.0652 99.0864 60.9508L99.084 60.9532ZM124.941 93.3141C125.088 93.2627 125.226 93.195 125.35 93.1133L133.505 103.949L114.932 126.198C114.815 126.119 114.689 126.051 114.558 125.997L124.017 93.3842C124.317 93.4355 124.632 93.4168 124.939 93.3118L124.941 93.3141ZM146.804 84.5328L132.427 77.3134L140.371 62.9308C140.7 63.0965 141.079 63.1666 141.46 63.1152L147.922 83.2906C147.356 83.5124 146.953 83.9817 146.804 84.5328ZM137.651 -1.29381L114.217 -8.73962C114.254 -8.90773 114.268 -9.08052 114.256 -9.25563L136.776 -9.86736C136.793 -9.77631 136.814 -9.68758 136.844 -9.59652C137.09 -8.87739 137.728 -8.40575 138.439 -8.33804L137.648 -1.29381H137.651ZM138.016 -11.9664C137.955 -11.9454 137.894 -11.922 137.836 -11.894L130.97 -23.776L144.879 -34.8992C145.066 -34.7078 145.288 -34.556 145.536 -34.4603L138.972 -12.0294C138.663 -12.0901 138.334 -12.0738 138.013 -11.9664H138.016ZM163.449 -73.221L146.862 -37.9532C146.476 -38.0933 146.044 -38.1073 145.625 -37.9672C145.15 -37.8061 144.783 -37.4722 144.568 -37.0613L118.393 -47.7525C118.503 -48.1144 118.508 -48.5114 118.377 -48.8966C118.358 -48.948 118.337 -48.9994 118.316 -49.0484L162.872 -73.8001C163.021 -73.5619 163.22 -73.3658 163.449 -73.221ZM136.194 -62.5298L116.723 -62.6302L116.66 -79.2543C116.801 -79.2683 116.943 -79.2963 117.081 -79.343C117.348 -79.4341 117.582 -79.5812 117.771 -79.7633L136.542 -63.4917C136.341 -63.2116 136.217 -62.8777 136.194 -62.5275V-62.5298ZM98.6935 -60.7833C98.9975 -60.8861 99.2571 -61.0612 99.4629 -61.2806L114.799 -49.4687L95.3752 -59.9778L96.797 -61.2059C97.2857 -60.739 98.0107 -60.5522 98.6935 -60.7833ZM114.885 -49.0297C114.729 -48.6655 114.687 -48.2499 114.792 -47.8413L59.3176 -28.3103L59.2007 -28.3547C59.1539 -28.4481 59.1025 -28.5391 59.0417 -28.6232L95.0945 -59.7396L114.885 -49.032V-49.0297ZM58.8616 -26.237L80.7314 -9.1062C80.4321 -8.64391 80.3409 -8.05552 80.5303 -7.49282C80.8249 -6.62893 81.6878 -6.12226 82.5601 -6.24368L75.907 -0.133392L58.6909 -26.0805C58.7517 -26.1296 58.8078 -26.1809 58.8616 -26.237ZM82.8244 -6.01953L94.0305 26.9321C93.9884 26.9508 93.9487 26.9718 93.9089 26.9928L76.1011 0.153801L82.8267 -6.02187L82.8244 -6.01953ZM95.3939 30.4064C95.7236 30.2943 96.0019 30.0982 96.2123 29.8507L112.874 41.616L98.5696 58.4315C98.2609 58.2167 97.8914 58.0953 97.5079 58.093L95.1226 30.4741C95.2138 30.4577 95.3027 30.4367 95.3915 30.4064H95.3939ZM123.028 90.2111C122.532 90.6991 122.329 91.4416 122.567 92.142C122.647 92.3778 122.771 92.5856 122.925 92.7631L109.123 107.106L98.2609 61.6629C98.3708 61.6139 98.476 61.5532 98.5719 61.4855L123.028 90.2088V90.2111ZM123.173 93.0012C123.327 93.125 123.5 93.2231 123.685 93.2908L114.228 125.899C114.027 125.862 113.821 125.855 113.611 125.885L109.217 107.505L123.173 93.0012ZM115.599 128.456L145.595 137.884L138.544 167.501C138.263 167.462 137.967 167.483 137.679 167.581C137.613 167.604 137.55 167.63 137.489 167.658L114.965 129.252C115.25 129.049 115.465 128.771 115.599 128.456ZM138.883 171.118C139.234 170.999 139.526 170.784 139.741 170.516L149.07 176.645L134.933 195.678C134.774 195.583 134.599 195.51 134.417 195.464L138.168 171.214C138.404 171.228 138.645 171.2 138.883 171.118ZM132.19 197.875C132.361 198.375 132.721 198.753 133.163 198.964L131.175 204.404L126.101 197.684C126.396 197.416 126.597 197.058 126.674 196.671L132.092 197.247C132.09 197.455 132.118 197.665 132.19 197.873V197.875ZM125.444 198.072C125.579 198.025 125.708 197.964 125.825 197.892L131.035 204.789L124.665 222.23C124.581 222.207 124.494 222.193 124.405 222.184L124.971 198.165C125.128 198.153 125.287 198.125 125.444 198.072ZM157.701 241.418C157.54 241.817 157.514 242.275 157.664 242.714C157.818 243.169 158.132 243.524 158.522 243.741L156.34 248.635L125.776 225.046L157.701 241.418ZM158.838 243.881C159.214 244.01 159.633 244.019 160.037 243.881C160.192 243.83 160.334 243.758 160.463 243.671L177.277 264.645C177.244 264.671 177.214 264.694 177.183 264.72L156.621 248.85L158.835 243.879L158.838 243.881ZM177.819 264.355C177.733 264.384 177.653 264.421 177.574 264.461L160.734 243.456C160.959 243.239 161.125 242.971 161.218 242.676L186.004 248.054L179.136 264.4C178.731 264.232 178.266 264.204 177.819 264.355ZM161.293 242.338C161.326 242.067 161.303 241.787 161.209 241.511C161.172 241.402 161.125 241.299 161.069 241.201L199.128 215.041C199.303 215.195 199.507 215.314 199.727 215.394L186.142 247.731L161.296 242.34L161.293 242.338ZM198.588 214.236C198.658 214.441 198.761 214.626 198.887 214.787L160.872 240.916C160.671 240.678 160.419 240.493 160.133 240.379L170.229 206.472L198.492 213.505C198.476 213.745 198.504 213.993 198.588 214.236ZM169.992 206.059L135.813 197.556C135.829 197.453 135.836 197.348 135.834 197.243L172.226 193.259C172.242 193.339 172.261 193.416 172.287 193.495C172.474 194.044 172.89 194.448 173.393 194.639L169.992 206.061V206.059ZM173.458 191.123C173.117 191.238 172.834 191.443 172.621 191.702L149.566 176.554L171.115 147.536C171.368 147.669 171.648 147.746 171.938 147.753L173.844 191.034C173.715 191.048 173.587 191.076 173.458 191.121V191.123ZM170.231 145.262L146.006 137.648L148.754 126.109C149.035 126.149 149.329 126.128 149.619 126.03C149.86 125.948 150.073 125.822 150.253 125.666L170.488 144.783C170.381 144.931 170.296 145.092 170.233 145.262H170.231ZM150.319 122.925C150.012 122.628 149.61 122.441 149.182 122.404L149.074 86.8279C149.119 86.8162 149.163 86.8046 149.208 86.7906C149.418 86.7182 149.608 86.6108 149.771 86.48L169.293 106.742L150.316 122.925H150.319ZM150.022 86.2395C150.302 85.915 150.464 85.5017 150.475 85.0674L197.138 81.9458C197.154 82.0485 197.178 82.1489 197.213 82.2493C197.271 82.4244 197.355 82.5832 197.456 82.7256L169.56 106.515L150.024 86.2395H150.022ZM197.115 81.6002L150.452 84.7219C150.435 84.6191 150.412 84.5188 150.377 84.4184C150.337 84.3016 150.288 84.1919 150.227 84.0891L168.678 71.1331L197.168 81.1893C197.136 81.3223 197.117 81.4601 197.112 81.5979L197.115 81.6002ZM150.031 83.8089C149.601 83.3046 148.925 83.0571 148.254 83.1879L141.799 63.0312C141.799 63.0312 141.811 63.0288 141.818 63.0265C142.323 62.856 142.707 62.4872 142.915 62.0389L168.285 70.993L150.036 83.8066L150.031 83.8089ZM141.032 59.3981L136.404 16.4837C136.482 16.4674 136.559 16.4487 136.636 16.423C137.613 16.0914 138.14 15.0314 137.805 14.0531C137.8 14.0391 137.793 14.0274 137.789 14.0134L154.975 5.86716C155.173 6.28043 155.512 6.59097 155.915 6.76374L141.409 59.3981C141.285 59.3841 141.159 59.3841 141.03 59.3981H141.032ZM154.991 4.20942L137.985 -1.19341L138.787 -8.34504C138.93 -8.35905 139.075 -8.38706 139.218 -8.43376C139.51 -8.53182 139.76 -8.6976 139.961 -8.9054L155.176 3.91991C155.105 4.01096 155.045 4.10902 154.993 4.20942H154.991ZM140.092 -11.3476C139.884 -11.6138 139.61 -11.817 139.302 -11.9407L145.866 -34.3716C146.175 -34.3108 146.504 -34.3272 146.825 -34.4346C146.996 -34.493 147.152 -34.5747 147.293 -34.6728L157.603 -22.4779L140.092 -11.3476ZM147.557 -34.8946C147.943 -35.2868 148.144 -35.8402 148.083 -36.4005L193.05 -45.4364C193.06 -45.4037 193.067 -45.3733 193.078 -45.3407C193.109 -45.2519 193.146 -45.1702 193.186 -45.0908L157.898 -22.6623L147.557 -34.8922V-34.8946ZM195.709 -47.6008C195.464 -47.7269 195.19 -47.7993 194.909 -47.8086L189.299 -103.969C189.381 -103.985 189.463 -104.004 189.545 -104.032C189.587 -104.046 189.627 -104.064 189.666 -104.081L208.646 -68.563L195.709 -47.6031V-47.6008ZM189.97 -104.242C190.508 -104.597 190.829 -105.204 190.812 -105.843L233.296 -110.756C233.312 -110.684 233.329 -110.611 233.355 -110.541C233.481 -110.172 233.71 -109.866 234.002 -109.649L208.856 -68.9039L189.97 -104.244V-104.242ZM185.415 -72.5766C185.48 -72.3852 185.574 -72.2124 185.689 -72.0583L176.44 -63.7112L165.926 -73.6577C166.127 -73.9145 166.256 -74.2227 166.302 -74.5472L185.317 -73.144C185.321 -72.9572 185.352 -72.7657 185.415 -72.579V-72.5766ZM139.498 -61.2199C139.893 -61.6939 140.043 -62.3523 139.842 -62.9804L159.535 -72.3501L139.498 -61.2199ZM96.3199 -61.9601C96.3807 -61.7826 96.4649 -61.6192 96.5701 -61.4744L95.0501 -60.1623L68.4729 -74.5426L96.3059 -63.1088C96.1936 -62.7469 96.189 -62.3477 96.3223 -61.9601H96.3199ZM65.4001 -74.0709C65.641 -74.0546 65.8912 -74.0826 66.1344 -74.1666C66.5413 -74.3044 66.8663 -74.5682 67.0862 -74.8975L94.7672 -59.9194L58.8125 -28.887C58.581 -29.1088 58.298 -29.2676 57.9917 -29.347L65.4001 -74.0709ZM30.9468 -37.4606C31.2134 -37.6473 31.4238 -37.8972 31.5595 -38.182L56.3875 -29.0178C55.7631 -28.5461 55.4801 -27.7102 55.7467 -26.9304C56.0063 -26.1669 56.7102 -25.6836 57.4749 -25.6649L60.1758 13.6072L30.9468 -37.4606ZM60.5453 13.9761L57.8186 -25.6906C57.9192 -25.7069 58.0197 -25.7303 58.1203 -25.763C58.2209 -25.7957 58.3121 -25.84 58.4033 -25.8867L75.6521 0.107094L60.5477 13.9784L60.5453 13.9761ZM60.7137 14.2913L75.8439 0.396622L93.6213 27.189C93.4225 27.3501 93.2588 27.5485 93.1419 27.7703L60.7137 14.2913ZM98.1019 62.4848L108.84 107.407L81.7065 135.607C81.5335 135.47 81.3394 135.367 81.1313 135.297L98.1042 62.4872L98.1019 62.4848ZM82.2491 137.823C82.3987 137.487 82.4502 137.109 82.38 136.731L112.133 128.405C112.491 129.338 113.524 129.831 114.481 129.507C114.546 129.483 114.609 129.458 114.673 129.43L137.197 167.835C137.019 167.961 136.87 168.12 136.748 168.295L82.2514 137.823H82.2491ZM137.609 171.095C137.681 171.123 137.754 171.146 137.829 171.165L134.078 195.415C133.841 195.401 133.601 195.429 133.362 195.51C132.707 195.732 132.258 196.281 132.132 196.911L126.714 196.334C126.716 196.127 126.688 195.917 126.615 195.709C126.47 195.281 126.185 194.941 125.83 194.721L137.609 171.099V171.095ZM125.355 225.499C125.427 225.441 125.495 225.38 125.558 225.315L156.2 248.964L150.597 261.535C150.22 261.407 149.802 261.397 149.397 261.535C149.301 261.568 149.21 261.61 149.121 261.656L125.355 225.501V225.499ZM151.869 263.309C151.869 263.109 151.839 262.903 151.771 262.702C151.616 262.247 151.303 261.892 150.913 261.675L156.481 249.179L176.95 264.977C176.786 265.187 176.669 265.43 176.606 265.689L151.869 263.309ZM180.013 265.145C179.866 264.909 179.672 264.713 179.447 264.566L186.35 248.131L203.408 251.831C203.391 252.072 203.419 252.322 203.503 252.565C203.538 252.667 203.583 252.763 203.634 252.856L180.015 265.142L180.013 265.145ZM198.775 212.648C198.674 212.809 198.6 212.984 198.55 213.166L170.329 206.145L173.727 194.733C174.029 194.789 174.349 194.77 174.662 194.663C174.969 194.558 175.231 194.383 175.437 194.161L198.775 212.646V212.648ZM172.598 144.127C172.221 143.999 171.798 143.987 171.391 144.125C171.131 144.214 170.902 144.354 170.715 144.531L150.487 125.421C150.744 125.091 150.887 124.683 150.887 124.26L181.372 121.29C181.388 121.374 181.407 121.456 181.435 121.538C181.589 121.991 181.9 122.343 182.288 122.563L172.598 144.13V144.127ZM183.741 119.147C183.383 119.039 182.988 119.037 182.606 119.168C182.396 119.24 182.207 119.348 182.043 119.478L169.801 106.772L197.683 82.9941C197.816 83.1248 197.968 83.2322 198.134 83.3163L183.743 119.147H183.741ZM196.927 80.7456L169.029 70.8973L171.737 68.9967C172.219 69.5617 173.014 69.8092 173.762 69.5547C174.169 69.417 174.496 69.1508 174.719 68.8169L196.927 80.7433V80.7456ZM172.525 66.0314C171.95 66.2392 171.538 66.6992 171.372 67.2456L143.074 61.4668C143.102 61.203 143.078 60.9298 142.987 60.6636C142.786 60.0683 142.311 59.6433 141.753 59.4752L156.247 6.88049C156.52 6.94353 156.81 6.94585 157.096 6.87581L172.523 66.0314H172.525ZM158.529 5.13635C158.538 4.91221 158.508 4.68572 158.433 4.46158C158.101 3.48561 157.039 2.96027 156.06 3.29416C155.812 3.37821 155.592 3.50897 155.41 3.67474L140.176 -9.16691C140.209 -9.21828 140.24 -9.26963 140.268 -9.32333L182.433 8.18333C182.419 8.2277 182.408 8.27438 182.396 8.32108L158.529 5.13635ZM184.407 6.88049C184.147 6.8548 183.881 6.88049 183.619 6.96921C183.448 7.02758 183.292 7.10931 183.151 7.20737L158.127 -22.3891L193.375 -44.792C193.63 -44.4628 193.988 -44.2293 194.383 -44.1265L184.409 6.88049H184.407ZM220.918 -48.376C220.614 -48.432 220.292 -48.4156 219.976 -48.3082C219.943 -48.2966 219.91 -48.2826 219.88 -48.2709L209.048 -68.542L234.297 -109.458C234.379 -109.418 234.465 -109.383 234.554 -109.355L220.918 -48.376Z" stroke="white" stroke-width="0.8" mask="url(#path-1-outside-1_4341_5163)"/>
</g>
<ellipse opacity="0.1" cx="55" cy="55" rx="55" ry="54" fill="white"/>
<ellipse opacity="0.2" cx="55" cy="55" rx="32" ry="31" fill="white"/>
<g clip-path="url(#clip1_4341_5163)">
<path d="M66.1358 40.5672C65.9825 40.5672 65.8291 40.5288 65.695 40.4522C62.015 38.5547 58.8333 37.7497 55.0191 37.7497C51.2241 37.7497 47.6208 38.6505 44.3433 40.4522C43.8833 40.7013 43.3083 40.5288 43.04 40.0688C42.7908 39.6088 42.9633 39.0147 43.4233 38.7655C46.9883 36.8297 50.8983 35.833 55.0191 35.833C59.1016 35.833 62.6666 36.7338 66.5766 38.7463C67.0558 38.9955 67.2283 39.5705 66.9791 40.0305C66.8066 40.3755 66.4808 40.5672 66.1358 40.5672ZM38.7083 50.6297C38.5166 50.6297 38.325 50.5722 38.1525 50.4572C37.7116 50.1505 37.6158 49.5563 37.9225 49.1155C39.82 46.4322 42.235 44.3238 45.11 42.848C51.1283 39.743 58.8333 39.7238 64.8708 42.8288C67.7458 44.3047 70.1608 46.3938 72.0583 49.058C72.365 49.4797 72.2691 50.093 71.8283 50.3997C71.3875 50.7063 70.7933 50.6105 70.4866 50.1697C68.7616 47.7547 66.5766 45.8572 63.9891 44.5347C58.4883 41.7172 51.4541 41.7172 45.9725 44.5538C43.3658 45.8955 41.1808 47.8122 39.4558 50.2272C39.3025 50.4955 39.015 50.6297 38.7083 50.6297ZM50.6875 73.7638C50.4383 73.7638 50.1891 73.668 50.0166 73.4763C48.3491 71.8088 47.4483 70.7355 46.1641 68.4163C44.8416 66.0588 44.1516 63.1838 44.1516 60.098C44.1516 54.4055 49.02 49.7672 55 49.7672C60.98 49.7672 65.8483 54.4055 65.8483 60.098C65.8483 60.6347 65.4266 61.0563 64.89 61.0563C64.3533 61.0563 63.9316 60.6347 63.9316 60.098C63.9316 55.4597 59.9258 51.6838 55 51.6838C50.0741 51.6838 46.0683 55.4597 46.0683 60.098C46.0683 62.858 46.6816 65.4072 47.8508 67.4772C49.0775 69.6813 49.9208 70.6205 51.3966 72.1155C51.7608 72.4988 51.7608 73.093 51.3966 73.4763C51.1858 73.668 50.9366 73.7638 50.6875 73.7638ZM64.43 70.218C62.1491 70.218 60.1366 69.643 58.4883 68.5122C55.6325 66.5763 53.9266 63.433 53.9266 60.098C53.9266 59.5613 54.3483 59.1397 54.885 59.1397C55.4216 59.1397 55.8433 59.5613 55.8433 60.098C55.8433 62.8005 57.2233 65.3497 59.5616 66.9213C60.9225 67.8413 62.5133 68.2822 64.43 68.2822C64.89 68.2822 65.6566 68.2247 66.4233 68.0905C66.9408 67.9947 67.4391 68.3397 67.535 68.8763C67.6308 69.3938 67.2858 69.8922 66.7491 69.988C65.6566 70.1988 64.6983 70.218 64.43 70.218ZM60.5775 74.1663C60.5008 74.1663 60.405 74.1472 60.3283 74.128C57.2808 73.2847 55.2875 72.1538 53.1983 70.103C50.515 67.4388 49.0391 63.893 49.0391 60.098C49.0391 56.993 51.6841 54.463 54.9425 54.463C58.2008 54.463 60.8458 56.993 60.8458 60.098C60.8458 62.1488 62.6283 63.8163 64.8325 63.8163C67.0366 63.8163 68.8191 62.1488 68.8191 60.098C68.8191 52.8722 62.59 47.0072 54.9233 47.0072C49.48 47.0072 44.4966 50.0355 42.2541 54.7313C41.5066 56.2838 41.1233 58.1047 41.1233 60.098C41.1233 61.593 41.2575 63.9505 42.4075 67.0172C42.5991 67.5155 42.35 68.0713 41.8516 68.2438C41.3533 68.4355 40.7975 68.1672 40.625 67.688C39.6858 65.1772 39.2258 62.6855 39.2258 60.098C39.2258 57.798 39.6666 55.7088 40.5291 53.888C43.0783 48.5405 48.7325 45.0713 54.9233 45.0713C63.6441 45.0713 70.7358 51.7988 70.7358 60.0788C70.7358 63.1838 68.0908 65.7138 64.8325 65.7138C61.5741 65.7138 58.9291 63.1838 58.9291 60.0788C58.9291 58.028 57.1466 56.3605 54.9425 56.3605C52.7383 56.3605 50.9558 58.028 50.9558 60.0788C50.9558 63.3563 52.2208 66.423 54.54 68.723C56.3608 70.5247 58.1049 71.5213 60.8075 72.2688C61.325 72.403 61.6125 72.9397 61.4783 73.438C61.3825 73.8788 60.98 74.1663 60.5775 74.1663Z" fill="white"/>
</g>
<defs>
<clipPath id="clip0_4341_5163">
<rect width="209" height="381" fill="white" transform="translate(18 -113)"/>
</clipPath>
<clipPath id="clip1_4341_5163">
<rect width="46" height="46" fill="white" transform="translate(32 32)"/>
</clipPath>
</defs>
</svg>
