<svg width="157" height="107" viewBox="0 0 157 107" fill="none" xmlns="http://www.w3.org/2000/svg">
<g filter="url(#filter0_d_4375_4863)">
<g clip-path="url(#clip0_4375_4863)">
<circle opacity="0.05" cx="100.5" cy="55.5" r="60.5" fill="white"/>
<circle opacity="0.05" cx="100.5" cy="55.5" r="83.5" fill="white"/>
<g opacity="0.5">
<path d="M93.581 45.9363L93.1782 44.4772C92.9011 43.4743 92.2918 42.5951 91.4501 41.9834C90.6083 41.3718 89.5839 41.0639 88.5444 41.1102L68.2037 41.9995C66.9851 42.0531 65.8378 42.5886 65.014 43.4881C64.1902 44.3876 63.7574 45.5775 63.8108 46.796L65.9734 96.2964C65.9912 96.7104 66.0903 97.1169 66.2653 97.4925C66.4402 97.8681 66.6875 98.2056 66.993 98.4855C67.2985 98.7655 67.6562 98.9825 68.0456 99.1241C68.435 99.2658 68.8485 99.3292 69.2625 99.3109L142.045 96.1297C142.459 96.113 142.867 96.0146 143.243 95.8402C143.62 95.6658 143.958 95.4187 144.239 95.1132C144.52 94.8077 144.738 94.4497 144.88 94.0598C145.022 93.67 145.086 93.2558 145.068 92.8412L143.18 50.0474C143.144 49.2121 142.778 48.4253 142.162 47.8601C141.546 47.2948 140.73 46.9974 139.895 47.0333L97.6301 48.8831C96.7215 48.9217 95.8266 48.6515 95.0913 48.1163C94.356 47.5812 93.8236 46.8128 93.581 45.9363Z" fill="white" fill-opacity="0.4"/>
<path d="M99.955 47.3133L99.6848 45.8978C99.4947 44.9179 98.9512 44.042 98.1575 43.4366C97.3639 42.8312 96.3755 42.5385 95.3802 42.6142L75.0394 43.5035C73.8049 43.5643 72.6349 44.0733 71.7489 44.9351C70.8628 45.7968 70.3215 46.9522 70.2265 48.1846L67.8685 96.3161C67.8465 96.7123 67.9096 97.1087 68.0535 97.4785C68.1974 97.8483 68.4189 98.1831 68.7029 98.4602C68.987 98.7374 69.3271 98.9505 69.7004 99.0852C70.0737 99.22 70.4715 99.2732 70.867 99.2414L143.649 96.0602C144.495 96.0197 145.296 95.6723 145.904 95.0831C146.511 94.494 146.883 93.7036 146.95 92.8599L148.99 51.2518C149.011 50.8553 148.947 50.4588 148.803 50.0889C148.659 49.719 148.437 49.3843 148.152 49.1072C147.868 48.8302 147.528 48.6171 147.154 48.4824C146.781 48.3476 146.383 48.2943 145.987 48.3261L103.726 50.172C102.857 50.2406 101.992 49.9874 101.297 49.4604C100.601 48.9334 100.124 48.1693 99.955 47.3133Z" fill="white"/>
<path d="M99.955 47.3133L99.6848 45.8978C99.4947 44.9179 98.9512 44.042 98.1575 43.4366C97.3639 42.8312 96.3755 42.5385 95.3802 42.6142L75.0394 43.5035C73.8049 43.5643 72.6349 44.0733 71.7489 44.9351C70.8628 45.7968 70.3215 46.9522 70.2265 48.1846L67.8685 96.3161C67.8465 96.7123 67.9096 97.1087 68.0535 97.4785C68.1974 97.8483 68.4189 98.1831 68.7029 98.4602C68.987 98.7374 69.3271 98.9505 69.7004 99.0852C70.0737 99.22 70.4715 99.2732 70.867 99.2414L143.649 96.0602C144.495 96.0197 145.296 95.6723 145.904 95.0831C146.511 94.494 146.883 93.7036 146.95 92.8599L148.99 51.2518C149.011 50.8553 148.947 50.4588 148.803 50.0889C148.659 49.719 148.437 49.3843 148.152 49.1072C147.868 48.8302 147.528 48.6171 147.154 48.4824C146.781 48.3476 146.383 48.2943 145.987 48.3261L103.726 50.172C102.857 50.2406 101.992 49.9874 101.297 49.4604C100.601 48.9334 100.124 48.1693 99.955 47.3133Z" fill="white"/>
<g opacity="0.7">
<path fill-rule="evenodd" clip-rule="evenodd" d="M129.708 8.57704L93.1735 8.17163C92.5281 8.163 91.8874 8.28171 91.288 8.52097C90.6886 8.76024 90.1423 9.11536 89.6803 9.56601C89.2183 10.0167 88.8497 10.554 88.5956 11.1473C88.3416 11.7405 88.207 12.3781 88.1996 13.0234L87.4492 80.5467C87.441 81.1925 87.5604 81.8335 87.8004 82.4331C88.0404 83.0326 88.3964 83.5789 88.8479 84.0406C89.2995 84.5024 89.8377 84.8704 90.4317 85.1238C91.0258 85.3772 91.664 85.5108 92.3097 85.517L139.069 86.0355C139.714 86.0436 140.354 85.9243 140.952 85.6847C141.551 85.445 142.096 85.0896 142.557 84.6388C143.018 84.188 143.385 83.6506 143.638 83.0576C143.891 82.4645 144.024 81.8274 144.03 81.1827L144.685 23.8817L129.708 8.57704ZM126.777 79.1197L96.3771 78.7837C95.8094 78.7749 95.2682 78.5417 94.8718 78.1353C94.4753 77.7288 94.2558 77.182 94.2611 76.6142C94.2699 76.0467 94.5023 75.5056 94.9078 75.1086C95.3133 74.7115 95.8591 74.4905 96.4267 74.4937L126.826 74.8339C127.394 74.8415 127.936 75.0736 128.333 75.4794C128.731 75.8851 128.951 76.4316 128.947 76.9995C128.939 77.568 128.707 78.1103 128.3 78.5076C127.893 78.905 127.346 79.1251 126.777 79.1197ZM97.0415 19.2516L113.12 19.4391C113.69 19.4435 114.238 19.2218 114.644 18.8227C115.05 18.4235 115.281 17.8795 115.287 17.3101C115.292 16.7427 115.072 16.1963 114.676 15.7905C114.279 15.3846 113.738 15.1525 113.17 15.1448L97.0908 14.9658C96.5225 14.9615 95.9757 15.1819 95.5692 15.5791C95.1628 15.9762 94.9298 16.5178 94.921 17.086C94.9178 17.6535 95.1388 18.1994 95.5358 18.6049C95.9329 19.0104 96.474 19.2428 97.0415 19.2516ZM123.515 28.0619L96.9472 27.7635C96.379 27.7569 95.8366 27.5252 95.4391 27.1192C95.0415 26.7132 94.8213 26.1661 94.8267 25.5979C94.8344 25.0293 95.0671 24.4871 95.4738 24.0897C95.8804 23.6923 96.428 23.4723 96.9965 23.4777L123.56 23.7758C124.128 23.7824 124.67 24.0141 125.068 24.4201C125.465 24.8261 125.686 25.3732 125.68 25.9414C125.672 26.5093 125.44 27.051 125.035 27.4483C124.629 27.8456 124.082 28.0662 123.515 28.0619ZM96.8532 36.2719L135.626 36.7047C136.192 36.7067 136.736 36.485 137.14 36.0878C137.544 35.6906 137.775 35.15 137.783 34.5836C137.788 34.0158 137.569 33.469 137.172 33.0625C136.776 32.656 136.234 32.4229 135.667 32.4141L96.8898 31.9852C96.3224 31.9799 95.776 32.1996 95.3702 32.5962C94.9644 32.9929 94.7322 33.5341 94.7246 34.1015C94.7201 34.6713 94.9417 35.2196 95.3406 35.6264C95.7396 36.0331 96.2835 36.2653 96.8532 36.2719ZM135.532 45.2092L112.992 44.9581C112.424 44.9505 111.882 44.7184 111.485 44.3127C111.087 43.9069 110.867 43.3604 110.871 42.7926C110.878 42.2244 111.109 41.682 111.515 41.2844C111.921 40.8869 112.469 40.6666 113.037 40.672L135.577 40.9231C136.145 40.9297 136.688 41.1614 137.085 41.5674C137.483 41.9734 137.703 42.5205 137.697 43.0887C137.69 43.6565 137.458 44.1983 137.052 44.5956C136.646 44.9929 136.1 45.2135 135.532 45.2092ZM96.7553 44.7758L102.652 44.8407C103.22 44.846 103.767 44.6265 104.173 44.23C104.58 43.8336 104.813 43.2924 104.822 42.7247C104.826 42.1565 104.606 41.6096 104.208 41.2032C103.811 40.7968 103.27 40.5637 102.702 40.5549L96.8046 40.49C96.2368 40.4857 95.6903 40.7064 95.2845 41.1037C94.8788 41.501 94.6467 42.0427 94.639 42.6105C94.6337 43.178 94.8534 43.7244 95.25 44.1302C95.6467 44.536 96.1879 44.7681 96.7553 44.7758ZM135.438 53.7131L96.6617 53.28C96.0939 53.2723 95.5521 53.0403 95.1548 52.6345C94.7575 52.2288 94.5369 51.6823 94.5412 51.1144C94.55 50.5463 94.7831 50.0046 95.1895 49.6075C95.5959 49.2104 96.1428 48.9899 96.711 48.9942L135.483 49.427C136.052 49.4347 136.594 49.6674 136.992 50.074C137.389 50.4807 137.609 51.0282 137.604 51.5968C137.596 52.1642 137.364 52.7054 136.958 53.1021C136.552 53.4987 136.006 53.7184 135.438 53.7131ZM96.5677 61.7878L120.38 62.051C120.948 62.0574 121.495 61.8381 121.901 61.4412C122.307 61.0444 122.539 60.5025 122.545 59.9347C122.55 59.3669 122.331 58.8201 121.935 58.4136C121.538 58.0072 120.997 57.7741 120.429 57.7652L96.617 57.502C96.0492 57.4967 95.5024 57.7162 95.096 58.1127C94.6895 58.5091 94.4564 59.0503 94.4475 59.618C94.4432 60.1862 94.6637 60.7331 95.0608 61.1395C95.4579 61.546 95.9996 61.779 96.5677 61.7878ZM135.34 62.2205L128.981 62.1474C128.414 62.1397 127.873 61.9076 127.476 61.5018C127.079 61.096 126.86 60.5495 126.865 59.9821C126.872 59.4139 127.103 58.8715 127.509 58.474C127.915 58.0764 128.462 57.8562 129.031 57.8616L135.389 57.9347C135.958 57.9412 136.5 58.1729 136.897 58.5789C137.295 58.9849 137.515 59.5321 137.51 60.1003C137.501 60.6684 137.268 61.2101 136.862 61.6072C136.455 62.0043 135.908 62.2248 135.34 62.2205ZM96.474 70.2918L135.246 70.7245C135.815 70.7299 136.362 70.5097 136.768 70.1121C137.174 69.7146 137.405 69.1722 137.412 68.604C137.417 68.0366 137.198 67.4901 136.801 67.0843C136.404 66.6785 135.863 66.4464 135.296 66.4387L96.5191 66.0057C95.9512 66.0014 95.4047 66.222 94.999 66.6193C94.5932 67.0166 94.3612 67.5583 94.3535 68.1262C94.3492 68.694 94.5699 69.2405 94.9672 69.6463C95.3645 70.052 95.9062 70.2841 96.474 70.2918Z" fill="white"/>
<path opacity="0.4" d="M129.708 8.57812L129.595 18.8033C129.587 19.448 129.707 20.0878 129.946 20.6863C130.186 21.2848 130.542 21.8301 130.992 22.2912C131.443 22.7523 131.98 23.1202 132.573 23.3737C133.165 23.6272 133.802 23.7615 134.447 23.7688L144.685 23.8827L129.708 8.57812Z" fill="#76AEEE"/>
</g>
</g>
</g>
</g>
<defs>
<filter id="filter0_d_4375_4863" x="-4" y="0" width="165" height="115" filterUnits="userSpaceOnUse" color-interpolation-filters="sRGB">
<feFlood flood-opacity="0" result="BackgroundImageFix"/>
<feColorMatrix in="SourceAlpha" type="matrix" values="0 0 0 0 0 0 0 0 0 0 0 0 0 0 0 0 0 0 127 0" result="hardAlpha"/>
<feOffset dy="4"/>
<feGaussianBlur stdDeviation="2"/>
<feComposite in2="hardAlpha" operator="out"/>
<feColorMatrix type="matrix" values="0 0 0 0 0.698906 0 0 0 0 0.750291 0 0 0 0 0.7875 0 0 0 0.5 0"/>
<feBlend mode="normal" in2="BackgroundImageFix" result="effect1_dropShadow_4375_4863"/>
<feBlend mode="normal" in="SourceGraphic" in2="effect1_dropShadow_4375_4863" result="shape"/>
</filter>
<clipPath id="clip0_4375_4863">
<rect width="157" height="107" rx="8" fill="white"/>
</clipPath>
</defs>
</svg>
