<svg width="95" height="94" viewBox="0 0 95 94" fill="none" xmlns="http://www.w3.org/2000/svg">
<ellipse opacity="0.21" cx="47.5" cy="46.6772" rx="47.5" ry="46.5" fill="white"/>
<ellipse opacity="0.4" cx="48" cy="47.1772" rx="29" ry="28" fill="white"/>
<path opacity="0.9" fill-rule="evenodd" clip-rule="evenodd" d="M32.7745 11.1531L57.4439 11.3896L67.5726 21.7084L67.1892 60.4005C67.1856 60.8358 67.0963 61.2662 66.9261 61.6669C66.756 62.0676 66.5085 62.4308 66.1977 62.7356C65.887 63.0405 65.5191 63.2811 65.1153 63.4435C64.7114 63.606 64.2794 63.6871 63.8441 63.6823L32.2703 63.38C31.8342 63.3764 31.4031 63.2868 31.0018 63.1164C30.6004 62.9459 30.2366 62.6979 29.9312 62.3866C29.6259 62.0753 29.3849 61.7068 29.2223 61.3022C29.0596 60.8976 28.9783 60.4649 28.9832 60.0288L29.4209 14.4343C29.4252 13.9985 29.5155 13.5679 29.6864 13.1671C29.8574 12.7662 30.1057 12.403 30.4172 12.0982C30.7287 11.7935 31.0972 11.5531 31.5017 11.391C31.9062 11.2288 32.3387 11.148 32.7745 11.1531ZM35.0097 58.8283L55.5371 59.0242C55.921 59.0272 56.2905 58.8781 56.5647 58.6093C56.8389 58.3406 56.9954 57.9742 57.0001 57.5903C57.0024 57.2069 56.8528 56.8381 56.5842 56.5645C56.3155 56.2909 55.9494 56.1348 55.566 56.1302L35.0388 55.9316C34.6556 55.93 34.2873 56.0798 34.0139 56.3483C33.7405 56.6168 33.5841 56.9824 33.5787 57.3656C33.5757 57.749 33.7245 58.118 33.9926 58.392C34.2607 58.6661 34.6264 58.823 35.0097 58.8283ZM46.2547 18.74L35.3976 18.6298C35.0144 18.6244 34.6488 18.4681 34.3802 18.1947C34.1117 17.9212 33.9619 17.5529 33.9635 17.1697C33.9689 16.786 34.1257 16.4201 34.3997 16.1515C34.6737 15.8829 35.0428 15.7335 35.4265 15.7358L46.2841 15.8403C46.6672 15.8449 47.0329 16.0011 47.3011 16.2747C47.5694 16.5483 47.7183 16.9171 47.7153 17.3002C47.7122 17.6847 47.5566 18.0523 47.2828 18.3222C47.009 18.5921 46.6392 18.7424 46.2547 18.74ZM35.2878 30.1229L61.4685 30.3755C61.8511 30.3763 62.2184 30.2261 62.4908 29.9574C62.7632 29.6888 62.9185 29.3235 62.9229 28.941C62.926 28.5577 62.7772 28.1887 62.5091 27.9146C62.2409 27.6405 61.8753 27.4837 61.4919 27.4783L35.3082 27.2283C34.925 27.2253 34.5563 27.3742 34.2827 27.6424C34.0091 27.9107 33.8529 28.2764 33.8483 28.6595C33.8459 29.0442 33.996 29.4142 34.2658 29.6885C34.5356 29.9628 34.9031 30.119 35.2878 30.1229ZM61.414 36.1185L46.1939 35.972C45.8105 35.9674 45.4445 35.8113 45.1758 35.5377C44.9071 35.2641 44.7576 34.8953 44.7599 34.5119C44.7637 34.1282 44.9196 33.7618 45.1934 33.4929C45.4671 33.224 45.8363 33.0748 46.22 33.0778L61.4401 33.2244C61.8238 33.2282 62.1902 33.3841 62.4591 33.6578C62.7279 33.9316 62.8772 34.3008 62.8741 34.6845C62.8696 35.0679 62.7134 35.4339 62.4398 35.7026C62.1663 35.9713 61.7975 36.1208 61.414 36.1185ZM35.2305 35.8649L39.2123 35.9027C39.5957 35.9057 39.9647 35.7569 40.2388 35.4888C40.5128 35.2207 40.6697 34.855 40.6751 34.4717C40.6774 34.088 40.528 33.719 40.2594 33.4449C39.9909 33.1709 39.6249 33.0141 39.2412 33.0087L35.2594 32.9709C34.876 32.9686 34.5072 33.1182 34.2336 33.3868C33.96 33.6555 33.8039 34.0216 33.7993 34.405C33.7963 34.7881 33.9452 35.1569 34.2134 35.4305C34.4817 35.7041 34.8474 35.8603 35.2305 35.8649ZM61.3595 41.8595L35.1759 41.6067C34.7925 41.6021 34.4265 41.4459 34.1578 41.1724C33.8891 40.8988 33.7396 40.53 33.7419 40.1466C33.7473 39.7629 33.9041 39.3969 34.1781 39.1284C34.4521 38.8598 34.8212 38.7104 35.2049 38.7127L61.3856 38.9653C61.7694 38.97 62.1359 39.1265 62.4046 39.4007C62.6733 39.6749 62.8225 40.0444 62.8194 40.4283C62.8148 40.8114 62.6586 41.1771 62.385 41.4454C62.1114 41.7136 61.7426 41.8625 61.3595 41.8595ZM35.1211 47.3534L51.2 47.5068C51.5834 47.5106 51.9526 47.3619 52.2264 47.0935C52.5001 46.8251 52.6561 46.459 52.6599 46.0756C52.663 45.6922 52.5142 45.3232 52.2461 45.0492C51.9779 44.7751 51.6123 44.6182 51.2289 44.6129L35.15 44.4595C34.7666 44.4565 34.3976 44.6052 34.1235 44.8734C33.8495 45.1415 33.6926 45.5071 33.6872 45.8905C33.6849 46.2741 33.8343 46.6432 34.1029 46.9172C34.3715 47.1912 34.7374 47.348 35.1211 47.3534ZM61.3019 47.6043L57.0082 47.5614C56.6251 47.5568 56.2594 47.4006 55.9911 47.127C55.7229 46.8534 55.574 46.4847 55.577 46.1015C55.5809 45.7179 55.7367 45.3514 56.0105 45.0826C56.2842 44.8137 56.6534 44.6644 57.0371 44.6675L61.3308 44.7104C61.7145 44.7142 62.0809 44.8701 62.3498 45.1438C62.6186 45.4176 62.7679 45.7868 62.7649 46.1705C62.7595 46.5541 62.6027 46.9201 62.3286 47.1886C62.0546 47.4572 61.6856 47.6066 61.3019 47.6043ZM35.0667 53.0945L61.2474 53.3471C61.631 53.3502 62.0002 53.2009 62.274 52.9321C62.5477 52.6632 62.7036 52.2968 62.7075 51.9131C62.7105 51.5299 62.5616 51.1612 62.2933 50.8876C62.0251 50.614 61.6594 50.4578 61.2763 50.4532L35.0927 50.2004C34.7093 50.1981 34.3405 50.3476 34.0669 50.6163C33.7933 50.885 33.6372 51.251 33.6326 51.6344C33.6303 52.0179 33.7798 52.3866 34.0485 52.6602C34.3172 52.9338 34.6832 53.0899 35.0667 53.0945Z" fill="white"/>
<path opacity="0.4" d="M57.4438 11.3896L57.378 18.2941C57.3735 18.7294 57.4549 19.1614 57.6175 19.5652C57.78 19.9691 58.0205 20.337 58.3252 20.6478C58.63 20.9587 58.993 21.2066 59.3935 21.3771C59.794 21.5477 60.2242 21.6377 60.6595 21.642L67.5726 21.7085L57.4438 11.3896Z" fill="#D88100"/>
</svg>
