<svg width="161" height="107" viewBox="0 0 161 107" fill="none" xmlns="http://www.w3.org/2000/svg">
<g filter="url(#filter0_d_6009_5202)">
<g clip-path="url(#clip0_6009_5202)">
<g opacity="0.35" clip-path="url(#clip1_6009_5202)">
<path d="M130.063 23.9157L129.268 19.2044L135.11 20.3801L130.063 23.9157Z" fill="white"/>
<path d="M157.847 83.3179L160.603 77.7054L167.848 85.7103L157.847 83.3179Z" fill="white"/>
<path d="M131.923 73.3132L127.993 75.6009L127.093 69.9895L131.923 73.3132Z" fill="white"/>
<path d="M113.963 10.9685L115.877 14.6421L116.762 11.3387L113.963 10.9685Z" fill="white"/>
<path d="M67.7901 26.6476L64.0203 21.6676L70.1637 19.9548L67.7901 26.6476Z" fill="white"/>
<path d="M128.841 -31.0292C128.649 -30.823 128.457 -30.6169 128.266 -30.4088C128.224 -30.3623 128.04 -30.197 128.032 -30.148C127.905 -29.2935 127.681 -28.4139 127.291 -27.5456C127.145 -27.2199 126.974 -26.8974 126.778 -26.5849C125.41 -25.6371 123.954 -25.6126 122.69 -25.7054C121.35 -25.8036 120.007 -26.0427 118.504 -25.5258C117.863 -25.3045 117.233 -24.9381 116.692 -24.4111C115.956 -23.6966 115.137 -22.8791 114.535 -22.0494C113.436 -20.5308 113.392 -18.8153 113.551 -17.4218C113.708 -16.0388 114.039 -14.6573 113.608 -13.0932C113.575 -12.6612 113.446 -12.2316 113.179 -11.9431C113.164 -11.9174 113.144 -11.8965 113.121 -11.8744C113.105 -11.8441 113.092 -11.813 113.074 -11.7831C112.475 -11.425 111.853 -11.2863 111.266 -11.2371C110.016 -11.1311 108.792 -11.4062 107.452 -10.7628C106.572 -10.3397 105.893 -9.62001 105.2 -8.88083C104.439 -8.06774 103.652 -7.27788 103.117 -6.3179C102.108 -4.50608 102.102 -2.65145 102.362 -1.07411C102.352 -1.13463 103.102 -1.85661 103.183 -1.94233C103.276 -2.0414 104.009 -2.72341 103.992 -2.82195C103.763 -4.2127 103.738 -5.78503 104.419 -7.39605C104.577 -7.77298 104.778 -8.14535 105.01 -8.5025C105.016 -8.51246 105.024 -8.522 105.03 -8.53196C105.635 -8.97583 106.281 -9.2519 106.923 -9.36554C108.209 -9.59548 109.379 -9.25399 110.708 -9.69565C111.392 -9.92351 111.965 -10.3629 112.509 -10.937C113.208 -11.6745 114.032 -12.4347 114.565 -13.2941C116.692 -16.7206 114.179 -19.3424 115.571 -22.7199C115.655 -22.922 115.753 -23.1104 115.862 -23.2958C115.892 -23.3143 115.92 -23.3332 115.949 -23.3501C116.656 -23.7734 117.402 -23.9681 118.103 -24.0494C119.535 -24.2174 120.789 -23.883 122.177 -23.9221C122.905 -23.9419 123.683 -24.0637 124.452 -24.4291C125.367 -24.8659 126.043 -25.6061 126.761 -26.3731C127.538 -27.2053 128.271 -27.9783 128.769 -28.9729C129.252 -29.9415 129.519 -30.9352 129.66 -31.8947C129.641 -31.7596 128.959 -31.1561 128.839 -31.0265L128.841 -31.0292Z" fill="white"/>
<path d="M82.8023 15.9703L82.6943 20.1144L85.0696 17.6545L82.8023 15.9703Z" fill="white"/>
<path d="M88.1364 3.50164L85.3122 -0.349772L91.0631 -1.92662L88.1364 3.50164Z" fill="white"/>
<path d="M153.018 20.4952L151.716 23.5364L148.76 20.657L153.018 20.4952Z" fill="white"/>
<path d="M153.172 42.3745L156.925 37.3757L160.248 42.8223L153.172 42.3745Z" fill="white"/>
<path d="M54.6813 84.0088L60.7056 90.7142L52.076 93.9224L54.6813 84.0088Z" fill="white"/>
<path d="M48.4542 51.8622L47.4718 45.6903L56.6362 47.7281L48.4542 51.8622Z" fill="white"/>
<path d="M113.932 90.6621L116.801 96.1686L118.128 91.215L113.932 90.6621Z" fill="white"/>
<path d="M82.8023 15.9703L82.6943 20.1144L85.0696 17.6545L82.8023 15.9703Z" fill="white"/>
<path d="M133.161 9.89861L132.069 5.58161L136.574 6.16438L133.161 9.89861Z" fill="white"/>
<path d="M84.2541 90.526L81.2479 89.3225L83.9964 86.35L84.2541 90.526Z" fill="white"/>
<path d="M97.8818 14.6128L98.8002 11.3332L102.207 13.871L97.8818 14.6128Z" fill="white"/>
<path d="M69.3945 9.76712L68.1772 12.458L70.4166 11.5024L69.3945 9.76712Z" fill="white"/>
<path d="M49.6016 32.9051L49.5202 36.3099L45.5929 34.6928L49.6016 32.9051Z" fill="white"/>
<path d="M141.659 39.935L139.613 37.4234L143.455 36.1576L141.659 39.935Z" fill="white"/>
<path d="M72.8032 100.695L71.5859 103.386L73.8253 102.43L72.8032 100.695Z" fill="white"/>
<path d="M110.439 96.8932C110.293 96.7616 110.146 96.6331 110.002 96.5084C109.44 96.0226 108.74 95.7476 108.011 95.6381C106.49 95.4073 105.147 95.9458 103.71 96.337C102.973 96.5373 102.182 96.6755 101.431 96.4628C101.29 96.4233 101.154 96.372 101.021 96.3098C100.869 96.0446 100.744 95.7667 100.642 95.4718C100.007 93.6322 100.056 91.4788 100.207 89.5639C100.216 89.4425 99.6577 89.0105 99.5665 88.92C99.4138 88.7701 99.2611 88.6202 99.1079 88.4718C99.0802 88.4462 98.9125 88.3154 98.9145 88.2895C98.7761 90.0425 98.7522 91.922 99.1844 93.638C99.3702 94.3781 99.6679 95.1068 100.181 95.682C100.294 95.8081 100.413 95.9307 100.533 96.0503C100.403 96.0668 101.317 96.931 101.344 96.844C101.57 97.0663 101.8 97.2883 102.071 97.4533C103.361 98.2382 104.877 97.6553 106.189 97.2505C107.568 96.8255 109.102 96.6256 110.457 97.2464C110.531 97.2793 110.602 97.3149 110.672 97.3536C110.767 97.5211 110.851 97.6939 110.918 97.8818C111.163 98.5683 111.203 99.3106 111.159 100.034C111.072 101.505 110.604 102.924 110.552 104.399C110.527 105.126 110.587 105.873 110.856 106.555C111.163 107.329 111.767 107.861 112.35 108.431C112.857 108.927 113.333 109.39 114.007 109.648C114.641 109.891 115.329 109.964 116.002 110.003C117.688 110.099 119.302 110.056 120.83 110.892C121.136 111.058 121.425 111.25 121.702 111.459C121.761 111.534 121.819 111.609 121.875 111.689C122.386 112.404 122.748 113.204 122.949 114.059C122.959 114.101 123.125 114.241 123.134 114.25C123.284 114.403 123.437 114.553 123.588 114.702C123.741 114.852 123.894 115.002 124.047 115.151C124.086 115.189 124.23 115.286 124.24 115.333C123.91 113.932 123.147 112.865 122.197 111.866C122.321 111.944 121.289 110.911 121.342 111.019C120.341 110.084 119.278 109.308 117.894 108.986C116.492 108.658 115.031 108.859 113.618 108.614C113.131 108.53 112.707 108.377 112.296 108.158C112.259 108.087 112.224 108.015 112.192 107.942C112.045 107.605 111.953 107.247 111.9 106.884C111.679 105.391 112.087 103.935 112.318 102.473C112.539 101.062 112.63 99.4502 111.72 98.2471C111.495 97.949 111.234 97.6626 110.958 97.3888C110.779 97.2056 110.559 96.9946 110.436 96.8955L110.439 96.8932ZM112.553 108.565C112.505 108.499 112.46 108.433 112.417 108.365C112.402 108.341 112.389 108.316 112.375 108.293C112.89 108.746 112.817 108.926 112.553 108.565Z" fill="white"/>
<path d="M43.3807 69.793C41.7105 69.4181 40.0328 69.5267 38.5032 70.3191C37.6535 70.7585 36.69 71.1609 35.9703 71.8103C35.4053 72.3194 35.0175 72.9851 34.7761 73.7015C34.2865 75.1474 34.3253 76.7067 34.0628 78.197C33.9271 78.9681 33.7275 79.7932 33.2399 80.4254C32.8616 80.4711 32.4777 80.464 32.1002 80.4272C30.3844 80.2532 28.8354 79.346 27.1077 79.2414C26.303 79.1926 25.6358 79.4002 24.9434 79.7382C25.0173 79.5978 23.4937 80.405 23.4645 80.5078C22.9611 80.799 22.4947 81.143 22.1537 81.6279C20.9285 83.3705 21.436 85.574 22.1322 87.4119C22.1052 87.3403 24.1294 86.474 24.091 86.3712C23.4613 84.7097 22.9817 82.8142 23.7969 81.1253C23.9383 80.8313 24.1166 80.5537 24.3314 80.3058C24.9912 80.2183 25.6714 80.3131 26.3171 80.463C28.0297 80.8641 29.7136 81.7661 31.5212 81.4313C32.4474 81.2601 33.3106 80.6723 34.1217 80.2291C34.8982 79.8047 35.408 79.2493 35.71 78.4055C36.2316 76.9451 36.1817 75.353 36.4465 73.8419C36.5736 73.1213 36.7691 72.4041 37.1347 71.7656C37.3199 71.4436 37.5456 71.1425 37.8113 70.8834C37.8333 70.8629 37.8552 70.8423 37.8772 70.8218C39.4509 70.4062 41.085 70.7004 42.6252 71.1544C44.1181 71.594 45.6637 72.1816 47.2473 72.0675C48.2239 71.9973 49.0222 71.5655 49.8717 71.1144C50.7849 70.6292 51.6525 70.1846 52.3034 69.355C53.6439 67.65 53.7771 65.4117 53.8824 63.3328C53.8783 63.4159 53.0003 63.7883 52.8982 63.8435C52.7808 63.9062 51.9305 64.2432 51.9236 64.3734C51.8306 66.2096 51.7297 68.1427 50.7734 69.7674C50.5589 70.131 50.3073 70.4732 50.0151 70.7763C49.9628 70.83 49.9109 70.8822 49.8563 70.932C49.2825 71.0556 48.6885 71.0633 48.1059 70.998C46.483 70.8158 44.9685 70.1491 43.3842 69.7922L43.3807 69.793ZM37.9272 70.7708C38.0488 70.6613 38.1765 70.5601 38.3091 70.4652C38.8065 70.1163 39.0199 70.3105 37.9272 70.7708ZM50.272 70.8204C50.1691 70.8539 50.0643 70.882 49.9599 70.9085C50.6733 70.4672 50.8179 70.6413 50.272 70.8204Z" fill="white"/>
<path d="M137.847 5.8081C136.176 5.43324 134.499 5.54185 132.969 6.3342C132.119 6.77367 131.156 7.17606 130.436 7.82542C129.871 8.33456 129.483 9.00021 129.242 9.71662C128.752 11.1625 128.791 12.7219 128.529 14.2121C128.393 14.9833 128.193 15.8083 127.706 16.4406C127.327 16.4862 126.944 16.4791 126.566 16.4424C124.85 16.2683 123.301 15.3611 121.573 15.2565C120.769 15.2077 120.102 15.4154 119.409 15.7533C119.483 15.613 117.96 16.4201 117.93 16.5229C117.427 16.8141 116.961 17.1581 116.62 17.6431C115.394 19.3856 115.902 21.5891 116.598 23.427C116.571 23.3554 118.595 22.4892 118.557 22.3864C117.927 20.7248 117.447 18.8293 118.263 17.1404C118.404 16.8464 118.582 16.5688 118.797 16.3209C119.457 16.2335 120.137 16.3282 120.783 16.4781C122.496 16.8792 124.179 17.7812 125.987 17.4465C126.913 17.2752 127.776 16.6874 128.588 16.2442C129.364 15.8198 129.874 15.2645 130.176 14.4206C130.697 12.9602 130.648 11.3681 130.912 9.85704C131.039 9.13643 131.235 8.41926 131.601 7.78072C131.786 7.45878 132.011 7.15762 132.277 6.89852C132.299 6.87799 132.321 6.85746 132.343 6.83693C133.917 6.42135 135.551 6.71554 137.091 7.16951C138.584 7.60917 140.13 8.19671 141.713 8.08267C142.69 8.01245 143.488 7.58065 144.338 7.12957C145.251 6.64433 146.118 6.19974 146.769 5.37012C148.11 3.6651 148.243 1.42684 148.348 -0.652089C148.344 -0.568977 147.466 -0.196518 147.364 -0.141324C147.247 -0.0786426 146.396 0.258289 146.389 0.388555C146.296 2.22473 146.196 4.15788 145.239 5.78255C145.025 6.14618 144.773 6.48831 144.481 6.79147C144.429 6.84516 144.377 6.89731 144.322 6.94709C143.748 7.07075 143.154 7.0784 142.572 7.01312C140.949 6.83093 139.434 6.1642 137.85 5.80738L137.847 5.8081ZM132.393 6.78591C132.515 6.67648 132.642 6.57528 132.775 6.48036C133.272 6.13143 133.486 6.32567 132.393 6.78591ZM144.738 6.83554C144.635 6.86905 144.53 6.89712 144.426 6.92365C145.139 6.48233 145.284 6.65648 144.738 6.83554Z" fill="white"/>
<path d="M56.7513 9.90144C56.6811 8.19114 56.1419 6.59869 54.9807 5.32631C54.3363 4.61926 53.6982 3.79278 52.8847 3.26568C52.2467 2.85164 51.5034 2.6494 50.7489 2.60163C49.2255 2.50289 47.7293 2.944 46.222 3.07618C45.442 3.14465 44.5934 3.16535 43.8564 2.85801C43.7145 2.50448 43.6219 2.13185 43.5597 1.75763C43.2838 0.0552909 43.7591 -1.67571 43.413 -3.37167C43.2519 -4.16153 42.8786 -4.75233 42.373 -5.33358C42.5277 -5.29854 41.3537 -6.56136 41.2468 -6.56295C40.8353 -6.97381 40.3823 -7.33529 39.8256 -7.53913C37.8253 -8.27166 35.8283 -7.21108 34.2332 -6.06292C34.2954 -6.10751 35.656 -4.37651 35.7453 -4.44021C37.1873 -5.47849 38.8941 -6.43237 40.7364 -6.08203C41.057 -6.02152 41.3712 -5.92119 41.6663 -5.77787C41.9216 -5.16319 42.0061 -4.48161 42.0284 -3.81915C42.0843 -2.06108 41.6488 -0.201095 42.44 1.45824C42.8451 2.30861 43.6363 2.99019 44.2743 3.65902C44.8853 4.29918 45.5536 4.64793 46.4469 4.72118C47.9925 4.84699 49.5175 4.38677 51.0456 4.25141C51.7745 4.18771 52.5178 4.1909 53.2293 4.3788C53.5882 4.47435 53.9375 4.61449 54.2565 4.80399C54.282 4.81991 54.3076 4.83584 54.3331 4.85176C55.1418 6.26427 55.2806 7.91883 55.2407 9.52403C55.2024 11.0799 55.0349 12.7249 55.5549 14.225C55.8755 15.1502 56.4992 15.8094 57.1548 16.5133C57.8599 17.2697 58.5138 17.9927 59.4837 18.4067C61.4776 19.2603 63.674 18.8096 65.7094 18.3733C65.628 18.3908 65.041 17.6392 64.9613 17.5548C64.8703 17.4576 64.3248 16.7235 64.1972 16.7506C62.3995 17.136 60.5061 17.5389 58.6893 17.0356C58.2826 16.9226 57.887 16.7681 57.5185 16.5643C57.4531 16.5276 57.3893 16.491 57.3271 16.4512C57.0591 15.9289 56.898 15.3572 56.8103 14.7775C56.5662 13.1628 56.8182 11.5273 56.7528 9.90462L56.7513 9.90144ZM54.3953 4.8868C54.5325 4.97598 54.6633 5.07312 54.7893 5.17663C55.255 5.56678 55.1227 5.82316 54.3953 4.8868ZM57.5424 16.8238C57.4834 16.7331 57.4292 16.6391 57.3765 16.5452C57.9875 17.12 57.8567 17.3048 57.5424 16.8238Z" fill="white"/>
<path d="M52.1746 -8.82088C51.1345 -10.2919 49.3379 -11.0012 47.6461 -11.4C46.747 -11.6128 45.8186 -11.6799 44.9219 -11.902C44.4765 -12.0115 44.0411 -12.1711 43.6612 -12.433C43.6081 -12.4687 43.5574 -12.5071 43.5071 -12.547C42.6881 -15.8463 45.4431 -19.1754 43.8553 -22.4297C43.3795 -23.4043 42.7917 -24.3974 42.1495 -25.268C41.5387 -26.0955 40.7223 -26.7651 39.7998 -27.2171C37.9648 -28.115 35.8389 -28.1364 33.8748 -27.7098C33.9167 -27.7184 34.4114 -26.7899 34.4617 -26.707C34.5166 -26.6164 34.9845 -25.6983 35.0682 -25.7155C36.7957 -26.0899 38.6274 -26.1209 40.3059 -25.5126C41.1686 -25.2006 41.9639 -24.7167 42.6298 -24.0825C42.7271 -23.9903 42.8212 -23.8924 42.9118 -23.7938C42.9922 -23.5708 43.0609 -23.3411 43.1057 -23.0962C43.4277 -21.3321 42.7811 -19.5898 42.4065 -17.8902C42.2058 -16.9812 42.1009 -16.0482 42.2182 -15.1201C42.3345 -14.2005 42.7198 -13.4664 43.1857 -12.6827C43.6685 -11.8696 44.1058 -10.9235 44.9245 -10.392C45.7092 -9.88117 46.6724 -9.79648 47.574 -9.65399C49.3292 -9.37523 51.216 -8.87958 52.5882 -7.68787C52.6563 -7.62833 52.721 -7.56808 52.7852 -7.50628C52.832 -7.35501 52.8719 -7.20231 52.8977 -7.04017C53.0164 -6.30817 52.9576 -5.55936 52.8395 -4.8297C52.5887 -3.29673 52.0552 -1.79162 52.088 -0.222262C52.1045 0.596267 52.3116 1.38002 52.6951 2.10206C52.7741 2.25037 52.8542 2.40064 52.9362 2.54978C52.9526 2.58719 52.9934 2.66252 53.0512 2.76058C53.4546 3.49455 53.894 4.22988 54.4043 4.87856C55.4666 6.22999 57.1148 7.07457 58.8418 7.02208C58.7602 7.025 58.3153 6.11973 58.2549 6.01931C58.1869 5.90367 57.7779 5.02453 57.6484 5.02782C56.1108 5.0749 54.6375 4.41427 53.5787 3.30818C53.5605 3.29008 53.5442 3.27086 53.5275 3.25317C53.4871 3.13335 53.4502 3.0128 53.4195 2.88733C53.2394 2.15046 53.2518 1.38425 53.347 0.635258C53.5419 -0.904433 54.0937 -2.39145 54.1522 -3.95118C54.1803 -4.70824 54.0725 -5.46869 53.7553 -6.16139C53.3357 -7.08133 52.7639 -7.99913 52.1801 -8.82273L52.1746 -8.82088ZM43.3213 -12.7025C43.2897 -12.7324 43.2582 -12.7623 43.2282 -12.7918C43.1541 -12.8662 43.0923 -12.9554 43.0194 -13.0278C43.1341 -12.9145 43.2334 -12.8053 43.3209 -12.7009L43.3213 -12.7025ZM43.6732 -12.0038C43.6215 -12.1432 43.5763 -12.2824 43.5382 -12.4231C44.0243 -11.733 43.9029 -11.3907 43.6732 -12.0038ZM52.8348 -7.45169C52.9051 -7.38167 52.975 -7.3101 53.0409 -7.23628C53.1118 -7.1562 53.1803 -7.07344 53.2453 -6.98997C53.65 -6.46373 53.3181 -6.39413 52.8353 -7.45323L52.8348 -7.45169Z" fill="white"/>
<path d="M150.941 61.4608C149.1 61.3489 147.25 61.8656 145.413 61.5832C145.07 61.5307 144.731 61.4466 144.409 61.3191C144.127 60.796 143.982 60.2071 143.916 59.6164C143.745 58.0514 144.045 56.477 143.915 54.9115C143.853 54.1584 143.687 53.402 143.308 52.7408C142.728 51.7265 141.647 50.9497 140.766 50.2198C139.215 48.9323 137.01 48.794 135.112 49.2367C133.96 49.506 132.852 50.0794 131.643 50.0363C131.132 50.0182 130.633 49.8812 130.177 49.6532C130.148 49.614 130.116 49.576 130.089 49.5357C128.689 47.4579 128.936 44.8141 129.169 42.4475C129.183 42.3123 128.419 41.7674 128.308 41.6701C128.103 41.488 127.897 41.3074 127.691 41.1284C127.658 41.0996 127.428 40.9372 127.432 40.9101C127.225 43.0033 126.991 45.2936 127.927 47.2554C128.401 48.2494 129.146 48.9476 129.956 49.665C130.748 50.3679 131.523 51.1501 132.57 51.4455C133.615 51.7404 134.649 51.4525 135.651 51.1317C136.653 50.8088 137.645 50.5628 138.705 50.5527C139.665 50.5442 140.648 50.7004 141.519 51.117C141.701 51.4168 141.842 51.7402 141.945 52.0765C142.799 54.8699 141.037 58.5114 143.452 60.7555C143.509 60.8087 143.566 60.8618 143.622 60.915C143.475 60.9002 144.467 61.7854 144.803 62.0092C145.2 62.3418 145.619 62.6358 146.076 62.8309C146.873 63.1698 147.761 63.2211 148.617 63.1996C150.401 63.1542 152.211 62.7507 153.973 63.2079C154.776 63.4165 155.539 63.7679 156.23 64.2273C156.291 64.2964 156.35 64.3666 156.406 64.4379C156.71 64.8132 156.983 65.2134 157.222 65.6325C158.153 67.2708 158.527 69.1939 158.119 71.0481C158.095 71.1541 158.886 71.7409 158.98 71.8256C159.073 71.9064 159.88 72.4861 159.858 72.5859C160.223 70.9299 159.967 69.2149 159.235 67.6944C158.363 65.8803 156.845 64.5968 155.332 63.3242C154.088 62.2793 152.581 61.5652 150.945 61.4651L150.941 61.4608ZM141.17 50.6319C141.252 50.73 141.331 50.8303 141.403 50.9356C141.422 50.9622 141.44 50.99 141.457 51.0177C140.588 50.3605 140.709 50.0874 141.17 50.6319Z" fill="white"/>
<path d="M130.084 88.16L135.941 85.1898L136.772 93.354L130.084 88.16Z" fill="white"/>
<path d="M56.4531 23.6437L55.1502 26.6848L52.1942 23.8054L56.4531 23.6437Z" fill="white"/>
</g>
<g opacity="0.5">
<g opacity="0.7">
<path fill-rule="evenodd" clip-rule="evenodd" d="M105.705 23.4084L76.2403 23.0814C75.7198 23.0745 75.2031 23.1702 74.7197 23.3632C74.2362 23.5562 73.7956 23.8426 73.423 24.206C73.0504 24.5695 72.7532 25.0029 72.5482 25.4813C72.3433 25.9598 72.2348 26.474 72.2288 26.9945L71.6236 81.4526C71.617 81.9734 71.7133 82.4904 71.9069 82.974C72.1005 83.4575 72.3876 83.8981 72.7517 84.2705C73.1159 84.6429 73.55 84.9397 74.0291 85.1441C74.5082 85.3484 75.0229 85.4562 75.5437 85.4612L113.256 85.8793C113.775 85.8859 114.292 85.7897 114.774 85.5964C115.257 85.4031 115.697 85.1164 116.068 84.7529C116.44 84.3893 116.736 83.9559 116.94 83.4776C117.144 82.9993 117.252 82.4855 117.257 81.9656L117.785 35.7517L105.705 23.4084ZM92.3276 32.169L79.3598 32.0178C78.9021 32.0107 78.4657 31.8233 78.1455 31.4962C77.8252 31.1692 77.647 30.729 77.6496 30.2712C77.6567 29.813 77.8446 29.3762 78.1724 29.0559C78.5002 28.7356 78.9413 28.5578 79.3995 28.5613L92.3679 28.7057C92.8255 28.7119 93.262 28.8991 93.5819 29.2264C93.9018 29.5537 94.079 29.9943 94.0747 30.452C94.0703 30.9112 93.8838 31.3499 93.5563 31.6719C93.2287 31.9938 92.7868 32.1726 92.3276 32.169ZM79.208 45.7445L110.478 46.0935C110.935 46.0951 111.374 45.9163 111.7 45.596C112.026 45.2757 112.212 44.8396 112.218 44.3828C112.222 43.9249 112.045 43.4839 111.725 43.156C111.406 42.8282 110.969 42.6402 110.511 42.6331L79.2375 42.2872C78.7799 42.2829 78.3392 42.4601 78.0119 42.78C77.6846 43.0999 77.4974 43.5364 77.4912 43.994C77.4876 44.4535 77.6663 44.8957 77.9881 45.2238C78.3098 45.5519 78.7485 45.7391 79.208 45.7445ZM110.403 52.9527L92.2238 52.7502C91.7658 52.744 91.3289 52.5568 91.0085 52.2296C90.688 51.9023 90.5101 51.4616 90.5136 51.0036C90.5188 50.5453 90.7057 50.1079 91.0332 49.7873C91.3606 49.4667 91.8019 49.289 92.2601 49.2934L110.439 49.4959C110.897 49.5012 111.335 49.688 111.655 50.0155C111.976 50.3429 112.154 50.7842 112.149 51.2424C112.143 51.7004 111.956 52.1373 111.629 52.4578C111.301 52.7782 110.861 52.9561 110.403 52.9527ZM79.129 52.6032L83.8849 52.6555C84.3428 52.6598 84.7838 52.4828 85.1117 52.163C85.4395 51.8433 85.6275 51.4068 85.6346 50.949C85.6381 50.4907 85.4603 50.0496 85.14 49.7218C84.8197 49.3941 84.3829 49.2061 83.9247 49.199L79.1688 49.1467C78.7108 49.1432 78.27 49.3211 77.9428 49.6416C77.6155 49.962 77.4284 50.3989 77.4222 50.8569C77.4179 51.3145 77.5951 51.7552 77.915 52.0825C78.2349 52.4098 78.6714 52.597 79.129 52.6032ZM110.327 59.8111L79.0535 59.4619C78.5956 59.4557 78.1587 59.2685 77.8382 58.9413C77.5178 58.6141 77.3399 58.1733 77.3433 57.7153C77.3505 57.2571 77.5384 56.8202 77.8662 56.4999C78.194 56.1797 78.635 56.0019 79.0933 56.0053L110.364 56.3544C110.822 56.3606 111.259 56.5483 111.58 56.8762C111.9 57.2042 112.078 57.6458 112.074 58.1043C112.067 58.5619 111.88 58.9985 111.553 59.3183C111.226 59.6382 110.785 59.8154 110.327 59.8111ZM78.9777 66.3233L98.1824 66.5356C98.6403 66.5408 99.0815 66.3639 99.409 66.0438C99.7365 65.7237 99.9234 65.2867 99.9287 64.8288C99.933 64.3708 99.756 63.9298 99.4362 63.602C99.1165 63.2742 98.68 63.0862 98.2222 63.079L79.0174 62.8668C78.5595 62.8625 78.1185 63.0396 77.7907 63.3593C77.4629 63.679 77.2749 64.1155 77.2677 64.5734C77.2643 65.0316 77.442 65.4727 77.7623 65.8005C78.0826 66.1283 78.5195 66.3162 78.9777 66.3233ZM110.248 66.6725L105.12 66.6135C104.662 66.6074 104.225 66.4201 103.906 66.0928C103.586 65.7656 103.408 65.3249 103.413 64.8672C103.418 64.409 103.605 63.9715 103.932 63.6509C104.26 63.3303 104.701 63.1527 105.159 63.157L110.288 63.216C110.746 63.2212 111.183 63.4081 111.504 63.7356C111.825 64.063 112.002 64.5043 111.998 64.9625C111.991 65.4207 111.803 65.8576 111.475 66.1779C111.147 66.4982 110.706 66.6759 110.248 66.6725ZM78.9022 73.1819L110.172 73.531C110.631 73.5353 111.072 73.3577 111.399 73.0371C111.727 72.7164 111.914 72.279 111.919 71.8208C111.923 71.3631 111.746 70.9224 111.426 70.5951C111.106 70.2678 110.67 70.0806 110.212 70.0744L78.9385 69.7252C78.4805 69.7217 78.0398 69.8996 77.7125 70.2201C77.3853 70.5405 77.1981 70.9774 77.192 71.4354C77.1885 71.8934 77.3664 72.3341 77.6869 72.6614C78.0073 72.9886 78.4442 73.1758 78.9022 73.1819Z" fill="white"/>
<path opacity="0.4" d="M105.705 23.4092L105.614 31.6559C105.608 32.1758 105.705 32.6919 105.898 33.1745C106.091 33.6572 106.378 34.097 106.741 34.4689C107.105 34.8408 107.538 35.1375 108.016 35.3419C108.494 35.5464 109.008 35.6547 109.528 35.6606L117.785 35.7525L105.705 23.4092Z" fill="#76AEEE"/>
</g>
</g>
<path d="M78 82C78.6818 79.6497 81.9273 75.8638 89.4545 79.5227C96.9818 83.1815 102.955 81.0472 105 79.5227" stroke="#5CDBBD" stroke-width="3" stroke-linecap="round"/>
</g>
</g>
<defs>
<filter id="filter0_d_6009_5202" x="0" y="0" width="165" height="115" filterUnits="userSpaceOnUse" color-interpolation-filters="sRGB">
<feFlood flood-opacity="0" result="BackgroundImageFix"/>
<feColorMatrix in="SourceAlpha" type="matrix" values="0 0 0 0 0 0 0 0 0 0 0 0 0 0 0 0 0 0 127 0" result="hardAlpha"/>
<feOffset dy="4"/>
<feGaussianBlur stdDeviation="2"/>
<feComposite in2="hardAlpha" operator="out"/>
<feColorMatrix type="matrix" values="0 0 0 0 0.698906 0 0 0 0 0.750291 0 0 0 0 0.7875 0 0 0 0.5 0"/>
<feBlend mode="normal" in2="BackgroundImageFix" result="effect1_dropShadow_6009_5202"/>
<feBlend mode="normal" in="SourceGraphic" in2="effect1_dropShadow_6009_5202" result="shape"/>
</filter>
<clipPath id="clip0_6009_5202">
<rect x="4" width="157" height="107" rx="8" fill="white"/>
</clipPath>
<clipPath id="clip1_6009_5202">
<rect width="151.677" height="160.599" fill="white" transform="translate(0.308105 90.4683) rotate(-75)"/>
</clipPath>
</defs>
</svg>
