<svg width="131" height="107" viewBox="0 0 131 107" fill="none" xmlns="http://www.w3.org/2000/svg">
<g filter="url(#filter0_d_8676_8762)">
<ellipse opacity="0.4" cx="70" cy="57" rx="25" ry="24" fill="white"/>
<ellipse opacity="0.15" cx="70" cy="57" rx="43" ry="42" fill="white"/>
<g opacity="0.2">
<rect x="106.535" y="15.0176" width="22" height="16" rx="2" fill="white"/>
<path d="M112.579 32.9164C112.394 33.0697 112.126 33.0697 111.941 32.9164L109.071 30.5384C108.71 30.2396 108.922 29.6534 109.39 29.6534L115.13 29.6534C115.598 29.6534 115.81 30.2396 115.449 30.5384L112.579 32.9164Z" fill="white"/>
</g>
<g clip-path="url(#clip0_8676_8762)">
<path d="M117.535 28.2679C118.179 28.2679 118.701 27.7456 118.701 27.1012C118.701 26.4569 118.179 25.9346 117.535 25.9346C116.89 25.9346 116.368 26.4569 116.368 27.1012C116.368 27.7456 116.89 28.2679 117.535 28.2679Z" fill="white" fill-opacity="0.4"/>
<path d="M116.368 17.7676H118.701V24.7676H116.368V17.7676Z" fill="white" fill-opacity="0.4"/>
</g>
<g opacity="0.2">
<rect width="27.858" height="20.2604" rx="2" transform="matrix(-1 0 0 1 31.8579 8)" fill="white"/>
<path d="M24.2891 30.7357C24.4741 30.889 24.742 30.889 24.9271 30.7357L28.9307 27.4186C29.2914 27.1197 29.0801 26.5335 28.6117 26.5335L20.6044 26.5335C20.1361 26.5335 19.9248 27.1197 20.2854 27.4186L24.2891 30.7357Z" fill="white"/>
</g>
<g clip-path="url(#clip1_8676_8762)">
<path d="M17.929 24.7789C18.7449 24.7789 19.4063 24.1174 19.4063 23.3015C19.4063 22.4856 18.7449 21.8242 17.929 21.8242C17.1131 21.8242 16.4517 22.4856 16.4517 23.3015C16.4517 24.1174 17.1131 24.7789 17.929 24.7789Z" fill="white" fill-opacity="0.4"/>
<path d="M16.4517 11.4824H19.4063V20.3463H16.4517V11.4824Z" fill="white" fill-opacity="0.4"/>
</g>
<g clip-path="url(#clip2_8676_8762)">
<path d="M18.628 93.3391C19.1491 93.3391 19.5715 92.9167 19.5715 92.3956C19.5715 91.8746 19.1491 91.4521 18.628 91.4521C18.107 91.4521 17.6846 91.8746 17.6846 92.3956C17.6846 92.9167 18.107 93.3391 18.628 93.3391Z" fill="white" fill-opacity="0.4"/>
<path d="M17.6846 84.8477H19.5715V90.5085H17.6846V84.8477Z" fill="white" fill-opacity="0.4"/>
</g>
<g opacity="0.2">
<rect width="20.5694" height="14.9595" rx="1" transform="matrix(-1 0 0 1 28.5347 82.0176)" fill="white"/>
<path d="M23.054 98.8943C23.128 98.9556 23.2352 98.9556 23.3092 98.8943L26.7347 96.0561C26.879 95.9366 26.7945 95.7021 26.6071 95.7021L19.7561 95.7021C19.5687 95.7021 19.4842 95.9366 19.6285 96.0561L23.054 98.8943Z" fill="white"/>
</g>
<g clip-path="url(#clip3_8676_8762)">
<path d="M69.8333 70.5007C71.3981 70.5007 72.6667 69.2321 72.6667 67.6673C72.6667 66.1025 71.3981 64.834 69.8333 64.834C68.2685 64.834 67 66.1025 67 67.6673C67 69.2321 68.2685 70.5007 69.8333 70.5007Z" fill="white"/>
<path d="M67 45H72.6667V62H67V45Z" fill="white"/>
</g>
</g>
<defs>
<filter id="filter0_d_8676_8762" x="0" y="0" width="135" height="115" filterUnits="userSpaceOnUse" color-interpolation-filters="sRGB">
<feFlood flood-opacity="0" result="BackgroundImageFix"/>
<feColorMatrix in="SourceAlpha" type="matrix" values="0 0 0 0 0 0 0 0 0 0 0 0 0 0 0 0 0 0 127 0" result="hardAlpha"/>
<feOffset dy="4"/>
<feGaussianBlur stdDeviation="2"/>
<feComposite in2="hardAlpha" operator="out"/>
<feColorMatrix type="matrix" values="0 0 0 0 0.698906 0 0 0 0 0.750291 0 0 0 0 0.7875 0 0 0 0.5 0"/>
<feBlend mode="normal" in2="BackgroundImageFix" result="effect1_dropShadow_8676_8762"/>
<feBlend mode="normal" in="SourceGraphic" in2="effect1_dropShadow_8676_8762" result="shape"/>
</filter>
<clipPath id="clip0_8676_8762">
<rect width="14" height="14" fill="white" transform="translate(110.535 16.0176)"/>
</clipPath>
<clipPath id="clip1_8676_8762">
<rect width="17.7278" height="17.7278" fill="white" transform="translate(9.06494 9.2666)"/>
</clipPath>
<clipPath id="clip2_8676_8762">
<rect width="11.3216" height="11.3216" fill="white" transform="translate(12.9673 83.4326)"/>
</clipPath>
<clipPath id="clip3_8676_8762">
<rect width="36" height="36" fill="white" transform="translate(52 39)"/>
</clipPath>
</defs>
</svg>
