<svg width="122" height="92" viewBox="0 0 122 92" fill="none" xmlns="http://www.w3.org/2000/svg">
<ellipse opacity="0.4" cx="65.5346" cy="48.9004" rx="25" ry="24" fill="white"/>
<ellipse opacity="0.15" cx="65.5346" cy="49.0176" rx="43" ry="42" fill="white"/>
<g clip-path="url(#clip0_4320_5670)">
<path d="M76.618 40.0499L74.3855 37.8174L65.5346 46.6682L56.6838 37.8174L54.4513 40.0499L63.3021 48.9007L54.4513 57.7515L56.6838 59.984L65.5346 51.1332L74.3855 59.984L76.618 57.7515L67.7671 48.9007L76.618 40.0499Z" fill="white"/>
</g>
<g opacity="0.2">
<rect x="102.535" y="7.01758" width="22" height="16" rx="2" fill="white"/>
<path d="M108.579 24.9169C108.394 25.0702 108.126 25.0702 107.941 24.9169L105.071 22.5389C104.71 22.2401 104.921 21.6539 105.39 21.6539L111.13 21.6539C111.598 21.6539 111.81 22.2401 111.449 22.5389L108.579 24.9169Z" fill="white"/>
</g>
<g clip-path="url(#clip1_4320_5670)">
<path d="M113.535 20.2674C114.179 20.2674 114.701 19.7451 114.701 19.1007C114.701 18.4564 114.179 17.9341 113.535 17.9341C112.89 17.9341 112.368 18.4564 112.368 19.1007C112.368 19.7451 112.89 20.2674 113.535 20.2674Z" fill="white" fill-opacity="0.4"/>
<path d="M112.368 9.76758H114.701V16.7676H112.368V9.76758Z" fill="white" fill-opacity="0.4"/>
</g>
<g opacity="0.2">
<rect width="27.858" height="20.2604" rx="2" transform="matrix(-1 0 0 1 27.858 0)" fill="white"/>
<path d="M20.2892 22.7357C20.4743 22.889 20.7422 22.889 20.9272 22.7357L24.9309 19.4186C25.2915 19.1197 25.0802 18.5335 24.6119 18.5335L16.6046 18.5335C16.1363 18.5335 15.925 19.1197 16.2856 19.4186L20.2892 22.7357Z" fill="white"/>
</g>
<path d="M13.929 16.7779C14.7449 16.7779 15.4063 16.1165 15.4063 15.3006C15.4063 14.4847 14.7449 13.8232 13.929 13.8232C13.1131 13.8232 12.4517 14.4847 12.4517 15.3006C12.4517 16.1165 13.1131 16.7779 13.929 16.7779Z" fill="white" fill-opacity="0.4"/>
<path d="M12.4517 3.48193H15.4063V12.3458H12.4517V3.48193Z" fill="white" fill-opacity="0.4"/>
<path d="M14.6282 85.3391C15.1493 85.3391 15.5717 84.9167 15.5717 84.3956C15.5717 83.8746 15.1493 83.4521 14.6282 83.4521C14.1072 83.4521 13.6848 83.8746 13.6848 84.3956C13.6848 84.9167 14.1072 85.3391 14.6282 85.3391Z" fill="white" fill-opacity="0.4"/>
<path d="M13.6848 76.8477H15.5717V82.5085H13.6848V76.8477Z" fill="white" fill-opacity="0.4"/>
<g opacity="0.2">
<rect width="20.5694" height="14.9595" rx="1" transform="matrix(-1 0 0 1 24.5346 74.0176)" fill="white"/>
<path d="M19.054 90.8943C19.1281 90.9556 19.2352 90.9556 19.3092 90.8943L22.7348 88.0561C22.879 87.9366 22.7945 87.7021 22.6072 87.7021L15.7561 87.7021C15.5688 87.7021 15.4843 87.9366 15.6285 88.0561L19.054 90.8943Z" fill="white"/>
</g>
<defs>
<clipPath id="clip0_4320_5670">
<rect width="38" height="38" fill="white" transform="translate(46.5346 29.9009)"/>
</clipPath>
<clipPath id="clip1_4320_5670">
<rect width="14" height="14" fill="white" transform="translate(106.535 8.01758)"/>
</clipPath>
</defs>
</svg>
