<svg width="95" height="93" viewBox="0 0 95 93" fill="none" xmlns="http://www.w3.org/2000/svg">
<ellipse opacity="0.21" cx="47.5" cy="46.5" rx="47.5" ry="46.5" fill="white"/>
<ellipse opacity="0.4" cx="48" cy="47" rx="29" ry="28" fill="white"/>
<g clip-path="url(#clip0_4341_5548)">
<path d="M48.6496 45.1245C44.6359 44.0756 43.3451 42.9912 43.3451 41.3023C43.3451 39.3645 45.1309 38.0134 48.1192 38.0134C51.2665 38.0134 52.4335 39.5245 52.5396 41.7467H56.4473C56.3235 38.689 54.4669 35.8801 50.7714 34.9734V31.0801H45.4669V34.9201C42.0366 35.6667 39.2783 37.9067 39.2783 41.3379C39.2783 45.4445 42.6555 47.489 47.5887 48.6801C52.0091 49.7467 52.8932 51.3112 52.8932 52.9645C52.8932 54.1912 52.0268 56.1467 48.1192 56.1467C44.4767 56.1467 43.0445 54.5112 42.85 52.4134H38.96C39.1722 56.3067 42.072 58.4934 45.4669 59.2223V63.0801H50.7714V59.2579C54.2194 58.6001 56.96 56.5912 56.96 52.9467C56.96 47.8979 52.6634 46.1734 48.6496 45.1245Z" fill="white"/>
</g>
<defs>
<clipPath id="clip0_4341_5548">
<rect width="36" height="36" fill="white" transform="translate(29.96 29.0801)"/>
</clipPath>
</defs>
</svg>
