<svg width="180" height="107" viewBox="0 0 180 107" fill="none" xmlns="http://www.w3.org/2000/svg">
<g opacity="0.35" clip-path="url(#clip0_4320_5089)">
<path d="M160.646 17.6351L159.666 11.8266L166.869 13.2762L160.646 17.6351Z" fill="white"/>
<path d="M162.939 78.5366L158.094 81.3571L156.984 74.4388L162.939 78.5366Z" fill="white"/>
<path d="M140.797 1.67282L143.157 6.20191L144.248 2.12923L140.797 1.67282Z" fill="white"/>
<path d="M83.8713 21.0034L79.2236 14.8636L86.7977 12.752L83.8713 21.0034Z" fill="white"/>
<path d="M102.38 7.83945L102.246 12.9486L105.175 9.91588L102.38 7.83945Z" fill="white"/>
<path d="M67.7096 91.7231L75.137 99.9901L64.4976 103.945L67.7096 91.7231Z" fill="white"/>
<path d="M60.0324 52.0899L58.8212 44.4807L70.1198 46.9931L60.0324 52.0899Z" fill="white"/>
<path d="M140.759 99.9256L144.296 106.714L145.933 100.607L140.759 99.9256Z" fill="white"/>
<path d="M102.38 7.83945L102.246 12.9486L105.175 9.91588L102.38 7.83945Z" fill="white"/>
<path d="M164.466 0.353263L163.12 -4.96909L168.673 -4.2506L164.466 0.353263Z" fill="white"/>
<path d="M104.169 99.7579L100.463 98.2741L103.852 94.6093L104.169 99.7579Z" fill="white"/>
<path d="M120.971 6.16553L122.103 2.12214L126.303 5.251L120.971 6.16553Z" fill="white"/>
<path d="M85.8491 0.191236L84.3484 3.50879L87.1092 2.33069L85.8491 0.191236Z" fill="white"/>
<path d="M61.4469 28.7181L61.3465 32.9158L56.5046 30.9221L61.4469 28.7181Z" fill="white"/>
<path d="M174.942 37.3848L172.42 34.2883L177.158 32.7277L174.942 37.3848Z" fill="white"/>
<path d="M136.453 107.608C136.273 107.445 136.092 107.287 135.913 107.133C135.22 106.534 134.358 106.195 133.459 106.06C131.584 105.776 129.928 106.44 128.157 106.922C127.247 107.169 126.272 107.339 125.347 107.077C125.173 107.028 125.005 106.965 124.84 106.888C124.654 106.561 124.499 106.219 124.373 105.855C123.591 103.587 123.652 100.932 123.837 98.5714C123.849 98.4218 123.16 97.8891 123.048 97.7776C122.859 97.5927 122.671 97.4079 122.482 97.225C122.448 97.1934 122.241 97.0321 122.244 97.0002C122.073 99.1615 122.044 101.479 122.577 103.594C122.806 104.507 123.173 105.405 123.806 106.114C123.945 106.27 124.092 106.421 124.239 106.568C124.079 106.589 125.206 107.654 125.239 107.547C125.517 107.821 125.802 108.095 126.135 108.298C127.726 109.266 129.595 108.547 131.213 108.048C132.912 107.524 134.803 107.278 136.474 108.043C136.565 108.084 136.653 108.127 136.74 108.175C136.857 108.382 136.961 108.595 137.043 108.826C137.345 109.673 137.394 110.588 137.34 111.48C137.232 113.293 136.656 115.042 136.591 116.861C136.56 117.757 136.635 118.679 136.966 119.519C137.345 120.474 138.09 121.129 138.808 121.833C139.433 122.444 140.02 123.015 140.851 123.333C141.633 123.632 142.48 123.723 143.311 123.77C145.389 123.889 147.379 123.836 149.264 124.866C149.64 125.071 149.997 125.307 150.338 125.566C150.411 125.658 150.482 125.751 150.551 125.849C151.181 126.73 151.628 127.717 151.876 128.771C151.888 128.823 152.092 128.996 152.103 129.007C152.289 129.195 152.477 129.38 152.664 129.564C152.852 129.749 153.04 129.934 153.229 130.117C153.277 130.164 153.455 130.283 153.467 130.342C153.06 128.614 152.12 127.299 150.948 126.067C151.101 126.163 149.829 124.89 149.894 125.023C148.661 123.87 147.35 122.914 145.643 122.516C143.914 122.112 142.114 122.36 140.372 122.058C139.771 121.954 139.249 121.766 138.742 121.495C138.696 121.408 138.653 121.319 138.614 121.229C138.433 120.814 138.319 120.372 138.254 119.925C137.981 118.085 138.484 116.29 138.768 114.487C139.041 112.748 139.153 110.76 138.032 109.277C137.754 108.909 137.432 108.556 137.092 108.219C136.872 107.993 136.6 107.733 136.448 107.61L136.453 107.608ZM139.059 121.998C138.999 121.916 138.944 121.834 138.891 121.751C138.872 121.722 138.856 121.691 138.839 121.662C139.474 122.221 139.384 122.443 139.059 121.998Z" fill="white"/>
<path d="M53.7774 74.1962C51.7182 73.734 49.6498 73.8679 47.764 74.8448C46.7164 75.3866 45.5285 75.8827 44.6412 76.6833C43.9446 77.311 43.4666 78.1317 43.1689 79.0149C42.5652 80.7975 42.6131 82.7201 42.2895 84.5573C42.1222 85.5081 41.8761 86.5253 41.2749 87.3048C40.8086 87.361 40.3353 87.3523 39.8698 87.307C37.7545 87.0924 35.8448 85.974 33.7146 85.845C32.7226 85.7848 31.8999 86.0408 31.0464 86.4575C31.1375 86.2844 29.259 87.2795 29.223 87.4063C28.6024 87.7653 28.0274 88.1894 27.607 88.7873C26.0964 90.9356 26.7221 93.6523 27.5805 95.9183C27.5472 95.83 30.0428 94.762 29.9954 94.6353C29.2191 92.5868 28.6278 90.2498 29.6328 88.1676C29.8072 87.8051 30.027 87.4629 30.2918 87.1572C31.1053 87.0494 31.9439 87.1663 32.7399 87.351C34.8514 87.8456 36.9274 88.9576 39.156 88.5449C40.2979 88.3338 41.3621 87.6091 42.3621 87.0627C43.3194 86.5394 43.948 85.8548 44.3203 84.8144C44.9633 83.0139 44.9018 81.051 45.2283 79.188C45.385 78.2996 45.626 77.4154 46.0768 76.6282C46.3051 76.2313 46.5834 75.86 46.9109 75.5405C46.938 75.5152 46.9651 75.4899 46.9922 75.4646C48.9324 74.9522 50.9471 75.3149 52.8459 75.8746C54.6865 76.4167 56.5921 77.1411 58.5444 77.0005C59.7485 76.9139 60.7327 76.3815 61.7801 75.8254C62.9058 75.2272 63.9755 74.679 64.778 73.6562C66.4307 71.5541 66.5949 68.7946 66.7248 66.2315C66.7197 66.334 65.6373 66.7932 65.5113 66.8612C65.3666 66.9385 64.3183 67.3539 64.3098 67.5145C64.1951 69.7783 64.0707 72.1616 62.8917 74.1647C62.6273 74.613 62.3171 75.0348 61.9568 75.4086C61.8923 75.4748 61.8283 75.539 61.7611 75.6004C61.0536 75.7529 60.3213 75.7623 59.603 75.6818C57.6022 75.4572 55.735 74.6352 53.7817 74.1953L53.7774 74.1962ZM47.0538 75.4017C47.2038 75.2668 47.3612 75.142 47.5247 75.025C48.1379 74.5948 48.401 74.8343 47.0538 75.4017ZM62.2736 75.4629C62.1466 75.5042 62.0174 75.5388 61.8888 75.5715C62.7683 75.0274 62.9465 75.2421 62.2736 75.4629Z" fill="white"/>
<path d="M170.243 -4.68956C168.184 -5.15173 166.115 -5.01782 164.229 -4.04094C163.182 -3.49912 161.994 -3.00302 161.107 -2.20244C160.41 -1.57473 159.932 -0.754061 159.634 0.12919C159.031 1.91177 159.078 3.83433 158.755 5.6716C158.587 6.62233 158.341 7.63951 157.74 8.41904C157.274 8.47529 156.801 8.46656 156.335 8.42123C154.22 8.20666 152.31 7.08823 150.18 6.95927C149.188 6.89909 148.365 7.15506 147.512 7.57176C147.603 7.39868 145.724 8.3938 145.688 8.52056C145.068 8.87955 144.493 9.30368 144.072 9.90159C142.562 12.0499 143.187 14.7666 144.046 17.0325C144.012 16.9442 146.508 15.8762 146.461 15.7495C145.684 13.701 145.093 11.3641 146.098 9.28188C146.272 8.91938 146.492 8.57718 146.757 8.27149C147.571 8.1637 148.409 8.28051 149.205 8.46531C151.317 8.95981 153.393 10.0719 155.621 9.6592C156.763 9.44806 157.827 8.72336 158.827 8.17695C159.785 7.65369 160.413 6.96905 160.786 5.92867C161.429 4.12813 161.367 2.16528 161.694 0.302305C161.85 -0.586125 162.091 -1.4703 162.542 -2.25755C162.77 -2.65447 163.049 -3.02576 163.376 -3.3452C163.403 -3.37051 163.43 -3.39582 163.458 -3.42113C165.398 -3.93349 167.412 -3.5708 169.311 -3.0111C171.152 -2.46906 173.057 -1.74469 175.01 -1.88528C176.214 -1.97186 177.198 -2.50422 178.245 -3.06034C179.371 -3.65859 180.441 -4.20671 181.243 -5.22953C182.896 -7.33163 183.06 -10.0911 183.19 -12.6542C183.185 -12.5518 182.103 -12.0926 181.977 -12.0245C181.832 -11.9472 180.784 -11.5318 180.775 -11.3712C180.66 -9.10744 180.536 -6.7241 179.357 -4.72106C179.093 -4.27275 178.782 -3.85094 178.422 -3.47718C178.358 -3.41099 178.294 -3.34669 178.226 -3.28532C177.519 -3.13286 176.787 -3.12343 176.068 -3.20391C174.067 -3.42854 172.2 -4.25053 170.247 -4.69045L170.243 -4.68956ZM163.519 -3.48404C163.669 -3.61895 163.826 -3.74371 163.99 -3.86075C164.603 -4.29093 164.866 -4.05145 163.519 -3.48404ZM178.739 -3.42285C178.612 -3.38153 178.483 -3.34693 178.354 -3.31422C179.234 -3.85832 179.412 -3.64361 178.739 -3.42285Z" fill="white"/>
<path d="M70.2615 0.356735C70.175 -1.75186 69.5103 -3.71518 68.0786 -5.28386C67.2841 -6.15557 66.4975 -7.17453 65.4945 -7.82438C64.7079 -8.33484 63.7915 -8.58419 62.8613 -8.64308C60.9832 -8.76481 59.1386 -8.22097 57.2801 -8.05802C56.3185 -7.9736 55.2723 -7.94807 54.3637 -8.32699C54.1887 -8.76285 54.0746 -9.22226 53.9979 -9.68364C53.6577 -11.7824 54.2437 -13.9165 53.817 -16.0075C53.6184 -16.9813 53.1582 -17.7097 52.5348 -18.4263C52.7255 -18.3831 51.2781 -19.94 51.1464 -19.9419C50.639 -20.4485 50.0805 -20.8942 49.3942 -21.1455C46.9281 -22.0486 44.4659 -20.741 42.4993 -19.3255C42.576 -19.3804 44.2535 -17.2463 44.3636 -17.3248C46.1414 -18.6049 48.2457 -19.781 50.5171 -19.349C50.9124 -19.2744 51.2998 -19.1507 51.6636 -18.974C51.9782 -18.2162 52.0825 -17.3759 52.11 -16.5592C52.1788 -14.3917 51.642 -12.0985 52.6174 -10.0527C53.1169 -9.00433 54.0923 -8.16404 54.8789 -7.33945C55.6321 -6.55019 56.4561 -6.12023 57.5574 -6.02992C59.463 -5.87481 61.3431 -6.44221 63.2271 -6.6091C64.1258 -6.68763 65.0422 -6.6837 65.9193 -6.45203C66.3618 -6.33423 66.7925 -6.16146 67.1858 -5.92783C67.2173 -5.90819 67.2487 -5.88856 67.2802 -5.86893C68.2772 -4.12747 68.4483 -2.08759 68.3992 -0.10857C68.352 1.80959 68.1455 3.83769 68.7866 5.68713C69.1819 6.82781 69.9508 7.64062 70.7591 8.50841C71.6283 9.44098 72.4346 10.3323 73.6303 10.8428C76.0885 11.8951 78.7965 11.3395 81.3058 10.8016C81.2055 10.8231 80.4818 9.89647 80.3835 9.79241C80.2714 9.67265 79.5988 8.76757 79.4415 8.80094C77.2252 9.27606 74.8908 9.77278 72.6509 9.15237C72.1494 9.01298 71.6617 8.82254 71.2074 8.57123C71.1268 8.52608 71.0482 8.48092 70.9715 8.43184C70.6411 7.78787 70.4424 7.08304 70.3343 6.3684C70.0334 4.3776 70.3441 2.36127 70.2635 0.360661L70.2615 0.356735ZM67.3569 -5.82573C67.526 -5.71579 67.6873 -5.59602 67.8426 -5.46841C68.4169 -4.9874 68.2536 -4.67131 67.3569 -5.82573ZM71.2369 8.89125C71.1642 8.77935 71.0973 8.66351 71.0324 8.54767C71.7856 9.25643 71.6244 9.48417 71.2369 8.89125Z" fill="white"/>
<path d="M186.387 63.9239C184.117 63.7859 181.836 64.4229 179.572 64.0747C179.148 64.0101 178.731 63.9064 178.334 63.7491C177.986 63.1043 177.807 62.3782 177.725 61.6499C177.515 59.7204 177.884 57.7795 177.725 55.8493C177.648 54.9208 177.443 53.9883 176.976 53.1731C176.261 51.9226 174.928 50.9649 173.842 50.0651C171.929 48.4777 169.211 48.3071 166.871 48.853C165.451 49.185 164.085 49.8919 162.595 49.8388C161.965 49.8165 161.349 49.6476 160.787 49.3664C160.751 49.3182 160.712 49.2713 160.679 49.2216C158.953 46.66 159.257 43.4005 159.545 40.4827C159.561 40.3161 158.619 39.6443 158.483 39.5242C158.23 39.2997 157.976 39.0771 157.723 38.8563C157.681 38.8208 157.397 38.6206 157.402 38.5873C157.148 41.1679 156.859 43.9916 158.014 46.4103C158.598 47.6358 159.516 48.4965 160.514 49.381C161.492 50.2476 162.447 51.212 163.737 51.5761C165.026 51.9398 166.3 51.5848 167.536 51.1892C168.771 50.7912 169.994 50.4879 171.301 50.4755C172.484 50.4649 173.697 50.6575 174.771 51.1712C174.995 51.5407 175.169 51.9395 175.295 52.3542C176.348 55.7981 174.176 60.2875 177.154 63.0543C177.224 63.1199 177.294 63.1854 177.363 63.251C177.181 63.2327 178.405 64.3241 178.819 64.5999C179.309 65.0101 179.826 65.3725 180.389 65.6131C181.371 66.0308 182.466 66.0941 183.522 66.0676C185.722 66.0117 187.952 65.5141 190.125 66.0778C191.115 66.335 192.056 66.7683 192.908 67.3346C192.983 67.4198 193.055 67.5064 193.125 67.5943C193.499 68.0569 193.836 68.5504 194.131 69.0671C195.279 71.0869 195.739 73.4579 195.236 75.7439C195.207 75.8746 196.182 76.598 196.298 76.7025C196.412 76.8021 197.407 77.5168 197.381 77.6399C197.83 75.5981 197.514 73.4837 196.612 71.6092C195.537 69.3726 193.666 67.7902 191.8 66.2213C190.267 64.933 188.409 64.0525 186.391 63.9292L186.387 63.9239ZM174.34 50.5731C174.441 50.6941 174.538 50.8178 174.627 50.9475C174.651 50.9804 174.673 51.0146 174.694 51.0488C173.622 50.2384 173.771 49.9018 174.34 50.5731Z" fill="white"/>
<path d="M160.672 96.8408L167.893 93.1789L168.918 103.244L160.672 96.8408Z" fill="white"/>
<path d="M69.8941 17.2994L68.2878 21.0488L64.6434 17.4988L69.8941 17.2994Z" fill="white"/>
</g>
<ellipse opacity="0.4" cx="114" cy="54" rx="25" ry="24" fill="white"/>
<ellipse opacity="0.21" cx="114" cy="54" rx="43" ry="42" fill="white"/>
<g clip-path="url(#clip1_4320_5089)">
<path d="M114.125 58.6255L101 45.5005L96.625 49.8755L114.125 67.3755L151.625 29.8755L147.25 25.5005L114.125 58.6255Z" fill="white"/>
</g>
<defs>
<clipPath id="clip0_4320_5089">
<rect width="187" height="198" fill="white" transform="translate(0.673767 99.6865) rotate(-75)"/>
</clipPath>
<clipPath id="clip1_4320_5089">
<rect width="75" height="75" fill="white" transform="translate(86 8.00049)"/>
</clipPath>
</defs>
</svg>
