<svg width="125" height="92" viewBox="0 0 125 92" fill="none" xmlns="http://www.w3.org/2000/svg">
<ellipse opacity="0.4" cx="66" cy="49" rx="25" ry="24" fill="white"/>
<ellipse opacity="0.15" cx="65.5346" cy="49.0176" rx="43" ry="42" fill="white"/>
<g opacity="0.2">
<rect x="102.535" y="7.01758" width="22" height="16" rx="2" fill="white"/>
<path d="M108.579 24.9164C108.394 25.0697 108.126 25.0697 107.941 24.9164L105.071 22.5384C104.71 22.2396 104.921 21.6534 105.39 21.6534L111.13 21.6534C111.598 21.6534 111.81 22.2396 111.449 22.5384L108.579 24.9164Z" fill="white"/>
</g>
<g clip-path="url(#clip0_4341_5653)">
<path d="M113.535 20.2679C114.179 20.2679 114.701 19.7456 114.701 19.1012C114.701 18.4569 114.179 17.9346 113.535 17.9346C112.89 17.9346 112.368 18.4569 112.368 19.1012C112.368 19.7456 112.89 20.2679 113.535 20.2679Z" fill="white" fill-opacity="0.4"/>
<path d="M112.368 9.76758H114.701V16.7676H112.368V9.76758Z" fill="white" fill-opacity="0.4"/>
</g>
<g opacity="0.2">
<rect width="27.858" height="20.2604" rx="2" transform="matrix(-1 0 0 1 27.858 0)" fill="white"/>
<path d="M20.2892 22.7357C20.4743 22.889 20.7422 22.889 20.9272 22.7357L24.9309 19.4186C25.2915 19.1197 25.0802 18.5335 24.6119 18.5335L16.6046 18.5335C16.1363 18.5335 15.925 19.1197 16.2856 19.4186L20.2892 22.7357Z" fill="white"/>
</g>
<g clip-path="url(#clip1_4341_5653)">
<path d="M13.929 16.7789C14.7449 16.7789 15.4063 16.1174 15.4063 15.3015C15.4063 14.4856 14.7449 13.8242 13.929 13.8242C13.1131 13.8242 12.4517 14.4856 12.4517 15.3015C12.4517 16.1174 13.1131 16.7789 13.929 16.7789Z" fill="white" fill-opacity="0.4"/>
<path d="M12.4517 3.48242H15.4063V12.3463H12.4517V3.48242Z" fill="white" fill-opacity="0.4"/>
</g>
<g clip-path="url(#clip2_4341_5653)">
<path d="M14.6282 85.3391C15.1493 85.3391 15.5717 84.9167 15.5717 84.3956C15.5717 83.8746 15.1493 83.4521 14.6282 83.4521C14.1072 83.4521 13.6848 83.8746 13.6848 84.3956C13.6848 84.9167 14.1072 85.3391 14.6282 85.3391Z" fill="white" fill-opacity="0.4"/>
<path d="M13.6848 76.8477H15.5717V82.5085H13.6848V76.8477Z" fill="white" fill-opacity="0.4"/>
</g>
<g opacity="0.2">
<rect width="20.5694" height="14.9595" rx="1" transform="matrix(-1 0 0 1 24.5346 74.0176)" fill="white"/>
<path d="M19.054 90.8943C19.1281 90.9556 19.2352 90.9556 19.3092 90.8943L22.7348 88.0561C22.879 87.9366 22.7945 87.7021 22.6072 87.7021L15.7561 87.7021C15.5688 87.7021 15.4843 87.9366 15.6285 88.0561L19.054 90.8943Z" fill="white"/>
</g>
<g clip-path="url(#clip3_4341_5653)">
<path d="M72 32.5V35.5H60V32.5H57V35.5H55.5C53.835 35.5 52.515 36.85 52.515 38.5L52.5 59.5C52.5 61.15 53.835 62.5 55.5 62.5H76.5C78.15 62.5 79.5 61.15 79.5 59.5V38.5C79.5 36.85 78.15 35.5 76.5 35.5H75V32.5H72ZM76.5 59.5H55.5V43H76.5V59.5Z" fill="white"/>
<path d="M66.1667 56.5003C66.811 56.5003 67.3333 55.978 67.3333 55.3337C67.3333 54.6893 66.811 54.167 66.1667 54.167C65.5223 54.167 65 54.6893 65 55.3337C65 55.978 65.5223 56.5003 66.1667 56.5003Z" fill="white"/>
<path d="M65 46H67.3333V53H65V46Z" fill="white"/>
</g>
<defs>
<clipPath id="clip0_4341_5653">
<rect width="14" height="14" fill="white" transform="translate(106.535 8.01758)"/>
</clipPath>
<clipPath id="clip1_4341_5653">
<rect width="17.7278" height="17.7278" fill="white" transform="translate(5.06506 1.2666)"/>
</clipPath>
<clipPath id="clip2_4341_5653">
<rect width="11.3216" height="11.3216" fill="white" transform="translate(8.96742 75.4326)"/>
</clipPath>
<clipPath id="clip3_4341_5653">
<rect width="36" height="36" fill="white" transform="translate(48 31)"/>
</clipPath>
</defs>
</svg>
