<svg width="161" height="107" viewBox="0 0 161 107" fill="none" xmlns="http://www.w3.org/2000/svg">
<mask id="mask0_4213_3380" style="mask-type:alpha" maskUnits="userSpaceOnUse" x="0" y="0" width="161" height="107">
<path d="M0 0H153C157.418 0 161 3.58172 161 8V99C161 103.418 157.418 107 153 107H0V0Z" fill="white"/>
</mask>
<g mask="url(#mask0_4213_3380)">
<ellipse opacity="0.21" cx="92.5" cy="53.623" rx="53.5" ry="52.623" fill="white"/>
<ellipse opacity="0.12" cx="92.5" cy="53.5" rx="73.5" ry="72.5" fill="white"/>
<ellipse opacity="0.03" cx="92.5" cy="53.5" rx="92.5" ry="91.5" fill="white"/>
<ellipse opacity="0.4" cx="92.959" cy="54.082" rx="35.959" ry="35.082" fill="white"/>
<g clip-path="url(#clip0_4213_3380)">
<path d="M93.6496 52.1245C89.6359 51.0756 88.3451 49.9912 88.3451 48.3023C88.3451 46.3645 90.1309 45.0134 93.1192 45.0134C96.2665 45.0134 97.4335 46.5245 97.5396 48.7467H101.447C101.323 45.689 99.4669 42.8801 95.7714 41.9734V38.0801H90.4669V41.9201C87.0366 42.6667 84.2783 44.9067 84.2783 48.3379C84.2783 52.4445 87.6555 54.489 92.5887 55.6801C97.0091 56.7467 97.8932 58.3112 97.8932 59.9645C97.8932 61.1912 97.0268 63.1467 93.1192 63.1467C89.4767 63.1467 88.0445 61.5112 87.85 59.4134H83.96C84.1722 63.3067 87.072 65.4934 90.4669 66.2223V70.0801H95.7714V66.2579C99.2194 65.6001 101.96 63.5912 101.96 59.9467C101.96 54.8979 97.6634 53.1734 93.6496 52.1245Z" fill="white"/>
</g>
</g>
<defs>
<clipPath id="clip0_4213_3380">
<rect width="36" height="36" fill="white" transform="translate(74.96 36.0801)"/>
</clipPath>
</defs>
</svg>
